%TF.GenerationSoftware,KiCad,Pcbnew,(5.1.9-0-10_14)*%
%TF.CreationDate,2021-09-11T10:50:20-05:00*%
%TF.ProjectId,OwlSat_Zbot_Panel,4f776c53-6174-45f5-9a62-6f745f50616e,rev?*%
%TF.SameCoordinates,Original*%
%TF.FileFunction,Copper,L2,Bot*%
%TF.FilePolarity,Positive*%
%FSLAX46Y46*%
G04 Gerber Fmt 4.6, Leading zero omitted, Abs format (unit mm)*
G04 Created by KiCad (PCBNEW (5.1.9-0-10_14)) date 2021-09-11 10:50:20*
%MOMM*%
%LPD*%
G01*
G04 APERTURE LIST*
%TA.AperFunction,ComponentPad*%
%ADD10C,1.524000*%
%TD*%
%TA.AperFunction,ViaPad*%
%ADD11C,0.800000*%
%TD*%
%TA.AperFunction,Conductor*%
%ADD12C,0.254000*%
%TD*%
%TA.AperFunction,Conductor*%
%ADD13C,0.100000*%
%TD*%
G04 APERTURE END LIST*
D10*
%TO.P,REF\u002A\u002A,2*%
%TO.N,Net-(U1-Pad2)*%
X143950000Y-83640000D03*
%TO.P,REF\u002A\u002A,1*%
%TO.N,Net-(U1-Pad1)*%
X143930000Y-80810000D03*
%TD*%
D11*
%TO.N,Net-(U1-Pad2)*%
X148910000Y-73260000D03*
X148920000Y-74490000D03*
X148920000Y-75820000D03*
X150370000Y-88350000D03*
X150380000Y-89570000D03*
X150380000Y-90830000D03*
%TD*%
D12*
%TO.N,Net-(U1-Pad2)*%
X194463000Y-91993000D02*
X109977000Y-91993000D01*
X109977000Y-84605565D01*
X143164040Y-84605565D01*
X143231020Y-84845656D01*
X143480048Y-84962756D01*
X143747135Y-85029023D01*
X144022017Y-85041910D01*
X144294133Y-85000922D01*
X144553023Y-84907636D01*
X144668980Y-84845656D01*
X144735960Y-84605565D01*
X143950000Y-83819605D01*
X143164040Y-84605565D01*
X109977000Y-84605565D01*
X109977000Y-83712017D01*
X142548090Y-83712017D01*
X142589078Y-83984133D01*
X142682364Y-84243023D01*
X142744344Y-84358980D01*
X142984435Y-84425960D01*
X143770395Y-83640000D01*
X142984435Y-82854040D01*
X142744344Y-82921020D01*
X142627244Y-83170048D01*
X142560977Y-83437135D01*
X142548090Y-83712017D01*
X109977000Y-83712017D01*
X109977000Y-82674435D01*
X143164040Y-82674435D01*
X143950000Y-83460395D01*
X144735960Y-82674435D01*
X144668980Y-82434344D01*
X144419952Y-82317244D01*
X144152865Y-82250977D01*
X143877983Y-82238090D01*
X143605867Y-82279078D01*
X143346977Y-82372364D01*
X143231020Y-82434344D01*
X143164040Y-82674435D01*
X109977000Y-82674435D01*
X109977000Y-80672408D01*
X142533000Y-80672408D01*
X142533000Y-80947592D01*
X142586686Y-81217490D01*
X142691995Y-81471727D01*
X142844880Y-81700535D01*
X143039465Y-81895120D01*
X143268273Y-82048005D01*
X143522510Y-82153314D01*
X143792408Y-82207000D01*
X144067592Y-82207000D01*
X144337490Y-82153314D01*
X144591727Y-82048005D01*
X144820535Y-81895120D01*
X145015120Y-81700535D01*
X145022979Y-81688773D01*
X145012535Y-81741280D01*
X145012535Y-82658720D01*
X145059366Y-82894157D01*
X144915565Y-82854040D01*
X144129605Y-83640000D01*
X144915565Y-84425960D01*
X145155656Y-84358980D01*
X145272756Y-84109952D01*
X145327886Y-83887752D01*
X145542608Y-84406137D01*
X146052311Y-85168961D01*
X146701039Y-85817689D01*
X147463863Y-86327392D01*
X148311468Y-86678481D01*
X149211280Y-86857465D01*
X150128720Y-86857465D01*
X151028532Y-86678481D01*
X151876137Y-86327392D01*
X152638961Y-85817689D01*
X153287689Y-85168961D01*
X153797392Y-84406137D01*
X154148481Y-83558532D01*
X154327465Y-82658720D01*
X154327465Y-81741280D01*
X154148481Y-80841468D01*
X153797392Y-79993863D01*
X153287689Y-79231039D01*
X152638961Y-78582311D01*
X151876137Y-78072608D01*
X151028532Y-77721519D01*
X150128720Y-77542535D01*
X149211280Y-77542535D01*
X148311468Y-77721519D01*
X147463863Y-78072608D01*
X146701039Y-78582311D01*
X146052311Y-79231039D01*
X145542608Y-79993863D01*
X145305765Y-80565653D01*
X145273314Y-80402510D01*
X145168005Y-80148273D01*
X145015120Y-79919465D01*
X144820535Y-79724880D01*
X144591727Y-79571995D01*
X144337490Y-79466686D01*
X144067592Y-79413000D01*
X143792408Y-79413000D01*
X143522510Y-79466686D01*
X143268273Y-79571995D01*
X143039465Y-79724880D01*
X142844880Y-79919465D01*
X142691995Y-80148273D01*
X142586686Y-80402510D01*
X142533000Y-80672408D01*
X109977000Y-80672408D01*
X109977000Y-72337000D01*
X194463000Y-72337000D01*
X194463000Y-91993000D01*
%TA.AperFunction,Conductor*%
D13*
G36*
X194463000Y-91993000D02*
G01*
X109977000Y-91993000D01*
X109977000Y-84605565D01*
X143164040Y-84605565D01*
X143231020Y-84845656D01*
X143480048Y-84962756D01*
X143747135Y-85029023D01*
X144022017Y-85041910D01*
X144294133Y-85000922D01*
X144553023Y-84907636D01*
X144668980Y-84845656D01*
X144735960Y-84605565D01*
X143950000Y-83819605D01*
X143164040Y-84605565D01*
X109977000Y-84605565D01*
X109977000Y-83712017D01*
X142548090Y-83712017D01*
X142589078Y-83984133D01*
X142682364Y-84243023D01*
X142744344Y-84358980D01*
X142984435Y-84425960D01*
X143770395Y-83640000D01*
X142984435Y-82854040D01*
X142744344Y-82921020D01*
X142627244Y-83170048D01*
X142560977Y-83437135D01*
X142548090Y-83712017D01*
X109977000Y-83712017D01*
X109977000Y-82674435D01*
X143164040Y-82674435D01*
X143950000Y-83460395D01*
X144735960Y-82674435D01*
X144668980Y-82434344D01*
X144419952Y-82317244D01*
X144152865Y-82250977D01*
X143877983Y-82238090D01*
X143605867Y-82279078D01*
X143346977Y-82372364D01*
X143231020Y-82434344D01*
X143164040Y-82674435D01*
X109977000Y-82674435D01*
X109977000Y-80672408D01*
X142533000Y-80672408D01*
X142533000Y-80947592D01*
X142586686Y-81217490D01*
X142691995Y-81471727D01*
X142844880Y-81700535D01*
X143039465Y-81895120D01*
X143268273Y-82048005D01*
X143522510Y-82153314D01*
X143792408Y-82207000D01*
X144067592Y-82207000D01*
X144337490Y-82153314D01*
X144591727Y-82048005D01*
X144820535Y-81895120D01*
X145015120Y-81700535D01*
X145022979Y-81688773D01*
X145012535Y-81741280D01*
X145012535Y-82658720D01*
X145059366Y-82894157D01*
X144915565Y-82854040D01*
X144129605Y-83640000D01*
X144915565Y-84425960D01*
X145155656Y-84358980D01*
X145272756Y-84109952D01*
X145327886Y-83887752D01*
X145542608Y-84406137D01*
X146052311Y-85168961D01*
X146701039Y-85817689D01*
X147463863Y-86327392D01*
X148311468Y-86678481D01*
X149211280Y-86857465D01*
X150128720Y-86857465D01*
X151028532Y-86678481D01*
X151876137Y-86327392D01*
X152638961Y-85817689D01*
X153287689Y-85168961D01*
X153797392Y-84406137D01*
X154148481Y-83558532D01*
X154327465Y-82658720D01*
X154327465Y-81741280D01*
X154148481Y-80841468D01*
X153797392Y-79993863D01*
X153287689Y-79231039D01*
X152638961Y-78582311D01*
X151876137Y-78072608D01*
X151028532Y-77721519D01*
X150128720Y-77542535D01*
X149211280Y-77542535D01*
X148311468Y-77721519D01*
X147463863Y-78072608D01*
X146701039Y-78582311D01*
X146052311Y-79231039D01*
X145542608Y-79993863D01*
X145305765Y-80565653D01*
X145273314Y-80402510D01*
X145168005Y-80148273D01*
X145015120Y-79919465D01*
X144820535Y-79724880D01*
X144591727Y-79571995D01*
X144337490Y-79466686D01*
X144067592Y-79413000D01*
X143792408Y-79413000D01*
X143522510Y-79466686D01*
X143268273Y-79571995D01*
X143039465Y-79724880D01*
X142844880Y-79919465D01*
X142691995Y-80148273D01*
X142586686Y-80402510D01*
X142533000Y-80672408D01*
X109977000Y-80672408D01*
X109977000Y-72337000D01*
X194463000Y-72337000D01*
X194463000Y-91993000D01*
G37*
%TD.AperFunction*%
%TD*%
M02*
