%TF.GenerationSoftware,KiCad,Pcbnew,(5.1.9-0-10_14)*%
%TF.CreationDate,2021-08-19T21:49:59-05:00*%
%TF.ProjectId,OwlSat_Z_Panel,4f776c53-6174-45f5-9a5f-50616e656c2e,rev?*%
%TF.SameCoordinates,Original*%
%TF.FileFunction,Legend,Top*%
%TF.FilePolarity,Positive*%
%FSLAX46Y46*%
G04 Gerber Fmt 4.6, Leading zero omitted, Abs format (unit mm)*
G04 Created by KiCad (PCBNEW (5.1.9-0-10_14)) date 2021-08-19 21:49:59*
%MOMM*%
%LPD*%
G01*
G04 APERTURE LIST*
%ADD10C,0.120000*%
%ADD11C,0.150000*%
G04 APERTURE END LIST*
D10*
%TO.C,U1*%
X179010000Y-72150000D02*
X109910000Y-72150000D01*
X109910000Y-72150000D02*
X109910000Y-32450000D01*
X109910000Y-32450000D02*
X179010000Y-32450000D01*
X179010000Y-32450000D02*
X179010000Y-72150000D01*
%TO.C,U2*%
X120240000Y-131880000D02*
X120240000Y-92180000D01*
X189340000Y-131880000D02*
X120240000Y-131880000D01*
X189340000Y-92180000D02*
X189340000Y-131880000D01*
X120240000Y-92180000D02*
X189340000Y-92180000D01*
%TO.C,U1*%
D11*
X188718095Y-66162380D02*
X188718095Y-66971904D01*
X188765714Y-67067142D01*
X188813333Y-67114761D01*
X188908571Y-67162380D01*
X189099047Y-67162380D01*
X189194285Y-67114761D01*
X189241904Y-67067142D01*
X189289523Y-66971904D01*
X189289523Y-66162380D01*
X190289523Y-67162380D02*
X189718095Y-67162380D01*
X190003809Y-67162380D02*
X190003809Y-66162380D01*
X189908571Y-66305238D01*
X189813333Y-66400476D01*
X189718095Y-66448095D01*
%TO.C,U2*%
X109008095Y-97072380D02*
X109008095Y-97881904D01*
X109055714Y-97977142D01*
X109103333Y-98024761D01*
X109198571Y-98072380D01*
X109389047Y-98072380D01*
X109484285Y-98024761D01*
X109531904Y-97977142D01*
X109579523Y-97881904D01*
X109579523Y-97072380D01*
X110008095Y-97167619D02*
X110055714Y-97120000D01*
X110150952Y-97072380D01*
X110389047Y-97072380D01*
X110484285Y-97120000D01*
X110531904Y-97167619D01*
X110579523Y-97262857D01*
X110579523Y-97358095D01*
X110531904Y-97500952D01*
X109960476Y-98072380D01*
X110579523Y-98072380D01*
%TD*%
M02*
