%TF.GenerationSoftware,KiCad,Pcbnew,(5.1.9-0-10_14)*%
%TF.CreationDate,2022-02-18T16:15:46-06:00*%
%TF.ProjectId,OwlSat_Official,4f776c53-6174-45f4-9f66-66696369616c,4*%
%TF.SameCoordinates,Original*%
%TF.FileFunction,Profile,NP*%
%FSLAX46Y46*%
G04 Gerber Fmt 4.6, Leading zero omitted, Abs format (unit mm)*
G04 Created by KiCad (PCBNEW (5.1.9-0-10_14)) date 2022-02-18 16:15:46*
%MOMM*%
%LPD*%
G01*
G04 APERTURE LIST*
%TA.AperFunction,Profile*%
%ADD10C,0.050000*%
%TD*%
G04 APERTURE END LIST*
D10*
X152609999Y-95410001D02*
G75*
G02*
X144610001Y-95409999I-3999999J500001D01*
G01*
X143610000Y-95410000D02*
X144610000Y-95410000D01*
X143610000Y-94410000D02*
X143610000Y-95410000D01*
X144610001Y-94409999D02*
X143610000Y-94410000D01*
X144610002Y-94409999D02*
G75*
G02*
X152609999Y-94410001I3999998J-510001D01*
G01*
X153610000Y-95410000D02*
X152610000Y-95410000D01*
X153610000Y-94410000D02*
X152610000Y-94410000D01*
X153610000Y-94410000D02*
X153610000Y-95410000D01*
X139110000Y-94910000D02*
G75*
G03*
X139110000Y-94910000I-1500000J0D01*
G01*
X161110000Y-94910000D02*
G75*
G03*
X161110000Y-94910000I-1500000J0D01*
G01*
X121650000Y-44910000D02*
X175570000Y-44910000D01*
X106610000Y-44910000D02*
X113900000Y-44910000D01*
X183320000Y-44910000D02*
X190610000Y-44910000D01*
X176560000Y-47790000D02*
X176570000Y-45910000D01*
X175570000Y-44910000D02*
G75*
G02*
X176570000Y-45910000I0J-1000000D01*
G01*
X182320000Y-47790000D02*
G75*
G02*
X176560000Y-47790000I-2880000J0D01*
G01*
X182320000Y-45910000D02*
X182320000Y-47790000D01*
X182320000Y-45910000D02*
G75*
G02*
X183320000Y-44910000I1000000J0D01*
G01*
X114890000Y-47790000D02*
X114900000Y-45910000D01*
X113900000Y-44910000D02*
G75*
G02*
X114900000Y-45910000I0J-1000000D01*
G01*
X120650000Y-47790000D02*
G75*
G02*
X114890000Y-47790000I-2880000J0D01*
G01*
X120650000Y-45910000D02*
X120650000Y-47790000D01*
X120650000Y-45910000D02*
G75*
G02*
X121650000Y-44910000I1000000J0D01*
G01*
X113900000Y-144910000D02*
X106610000Y-144910000D01*
X175570000Y-144910000D02*
X121650000Y-144910000D01*
X190610000Y-144910000D02*
X183320000Y-144910000D01*
X182330000Y-142030000D02*
X182320000Y-143910000D01*
X183320000Y-144910000D02*
G75*
G02*
X182320000Y-143910000I0J1000000D01*
G01*
X176570000Y-142030000D02*
G75*
G02*
X182330000Y-142030000I2880000J0D01*
G01*
X176570000Y-143910000D02*
G75*
G02*
X175570000Y-144910000I-1000000J0D01*
G01*
X176570000Y-143910000D02*
X176570000Y-142030000D01*
X114900000Y-143910000D02*
X114900000Y-142030000D01*
X120660000Y-142030000D02*
X120650000Y-143910000D01*
X121650000Y-144910000D02*
G75*
G02*
X120650000Y-143910000I0J1000000D01*
G01*
X114900000Y-143910000D02*
G75*
G02*
X113900000Y-144910000I-1000000J0D01*
G01*
X114900000Y-142030000D02*
G75*
G02*
X120660000Y-142030000I2880000J0D01*
G01*
X187950000Y-141910000D02*
G75*
G03*
X187950000Y-141910000I-1500000J0D01*
G01*
X187950000Y-47910000D02*
G75*
G03*
X187950000Y-47910000I-1500000J0D01*
G01*
X112270000Y-47910000D02*
G75*
G03*
X112270000Y-47910000I-1500000J0D01*
G01*
X112270133Y-141910000D02*
G75*
G03*
X112270133Y-141910000I-1500133J0D01*
G01*
X106610000Y-144910000D02*
X106610000Y-44910000D01*
X190610000Y-44910000D02*
X190610000Y-144910000D01*
M02*
