%TF.GenerationSoftware,KiCad,Pcbnew,(5.1.9-0-10_14)*%
%TF.CreationDate,2022-02-18T16:15:46-06:00*%
%TF.ProjectId,OwlSat_Official,4f776c53-6174-45f4-9f66-66696369616c,4*%
%TF.SameCoordinates,Original*%
%TF.FileFunction,Copper,L2,Bot*%
%TF.FilePolarity,Positive*%
%FSLAX46Y46*%
G04 Gerber Fmt 4.6, Leading zero omitted, Abs format (unit mm)*
G04 Created by KiCad (PCBNEW (5.1.9-0-10_14)) date 2022-02-18 16:15:46*
%MOMM*%
%LPD*%
G01*
G04 APERTURE LIST*
%TA.AperFunction,ViaPad*%
%ADD10C,0.800000*%
%TD*%
%TA.AperFunction,Conductor*%
%ADD11C,0.500000*%
%TD*%
%TA.AperFunction,Conductor*%
%ADD12C,0.254000*%
%TD*%
%TA.AperFunction,Conductor*%
%ADD13C,0.100000*%
%TD*%
G04 APERTURE END LIST*
%TO.P,U3,1*%
%TO.N,Net-(U1-Pad2)*%
%TA.AperFunction,SMDPad,CuDef*%
G36*
G01*
X182260000Y-97145000D02*
X181060000Y-97145000D01*
G75*
G02*
X180860000Y-96945000I0J200000D01*
G01*
X180860000Y-96545000D01*
G75*
G02*
X181060000Y-96345000I200000J0D01*
G01*
X182260000Y-96345000D01*
G75*
G02*
X182460000Y-96545000I0J-200000D01*
G01*
X182460000Y-96945000D01*
G75*
G02*
X182260000Y-97145000I-200000J0D01*
G01*
G37*
%TD.AperFunction*%
%TO.P,U3,2*%
%TA.AperFunction,SMDPad,CuDef*%
G36*
G01*
X182260000Y-95895000D02*
X181060000Y-95895000D01*
G75*
G02*
X180860000Y-95695000I0J200000D01*
G01*
X180860000Y-95295000D01*
G75*
G02*
X181060000Y-95095000I200000J0D01*
G01*
X182260000Y-95095000D01*
G75*
G02*
X182460000Y-95295000I0J-200000D01*
G01*
X182460000Y-95695000D01*
G75*
G02*
X182260000Y-95895000I-200000J0D01*
G01*
G37*
%TD.AperFunction*%
%TO.P,U3,3*%
%TO.N,Net-(U1-Pad1)*%
%TA.AperFunction,SMDPad,CuDef*%
G36*
G01*
X182260000Y-94645000D02*
X181060000Y-94645000D01*
G75*
G02*
X180860000Y-94445000I0J200000D01*
G01*
X180860000Y-94045000D01*
G75*
G02*
X181060000Y-93845000I200000J0D01*
G01*
X182260000Y-93845000D01*
G75*
G02*
X182460000Y-94045000I0J-200000D01*
G01*
X182460000Y-94445000D01*
G75*
G02*
X182260000Y-94645000I-200000J0D01*
G01*
G37*
%TD.AperFunction*%
%TO.P,U3,4*%
%TA.AperFunction,SMDPad,CuDef*%
G36*
G01*
X182260000Y-93395000D02*
X181060000Y-93395000D01*
G75*
G02*
X180860000Y-93195000I0J200000D01*
G01*
X180860000Y-92795000D01*
G75*
G02*
X181060000Y-92595000I200000J0D01*
G01*
X182260000Y-92595000D01*
G75*
G02*
X182460000Y-92795000I0J-200000D01*
G01*
X182460000Y-93195000D01*
G75*
G02*
X182260000Y-93395000I-200000J0D01*
G01*
G37*
%TD.AperFunction*%
%TO.P,U3,MP*%
%TO.N,N/C*%
%TA.AperFunction,SMDPad,CuDef*%
G36*
G01*
X180010001Y-100345000D02*
X177509999Y-100345000D01*
G75*
G02*
X177260000Y-100095001I0J249999D01*
G01*
X177260000Y-98494999D01*
G75*
G02*
X177509999Y-98245000I249999J0D01*
G01*
X180010001Y-98245000D01*
G75*
G02*
X180260000Y-98494999I0J-249999D01*
G01*
X180260000Y-100095001D01*
G75*
G02*
X180010001Y-100345000I-249999J0D01*
G01*
G37*
%TD.AperFunction*%
%TA.AperFunction,SMDPad,CuDef*%
G36*
G01*
X180010001Y-91495000D02*
X177509999Y-91495000D01*
G75*
G02*
X177260000Y-91245001I0J249999D01*
G01*
X177260000Y-89644999D01*
G75*
G02*
X177509999Y-89395000I249999J0D01*
G01*
X180010001Y-89395000D01*
G75*
G02*
X180260000Y-89644999I0J-249999D01*
G01*
X180260000Y-91245001D01*
G75*
G02*
X180010001Y-91495000I-249999J0D01*
G01*
G37*
%TD.AperFunction*%
%TD*%
D10*
%TO.N,Net-(U1-Pad1)*%
X184010000Y-92980000D03*
X184020000Y-94230000D03*
%TO.N,Net-(U1-Pad2)*%
X152390000Y-88800000D03*
X152400000Y-87560000D03*
X152400000Y-86290000D03*
X144990000Y-100780000D03*
X145010000Y-102160000D03*
X144980000Y-103510000D03*
%TD*%
D11*
%TO.N,Net-(U1-Pad1)*%
X181675000Y-92980000D02*
X181660000Y-92995000D01*
X184010000Y-92980000D02*
X181675000Y-92980000D01*
X181675000Y-94230000D02*
X181660000Y-94245000D01*
X184020000Y-94230000D02*
X181675000Y-94230000D01*
%TD*%
D12*
%TO.N,Net-(U1-Pad2)*%
X189950001Y-104513000D02*
X114197000Y-104513000D01*
X114197000Y-94696323D01*
X135440497Y-94696323D01*
X135440497Y-95123677D01*
X135523870Y-95542821D01*
X135687412Y-95937645D01*
X135924837Y-96292977D01*
X136227023Y-96595163D01*
X136582355Y-96832588D01*
X136977179Y-96996130D01*
X137396323Y-97079503D01*
X137823677Y-97079503D01*
X138242821Y-96996130D01*
X138637645Y-96832588D01*
X138992977Y-96595163D01*
X139295163Y-96292977D01*
X139532588Y-95937645D01*
X139696130Y-95542821D01*
X139722549Y-95410000D01*
X142946807Y-95410000D01*
X142959550Y-95539383D01*
X142997290Y-95663793D01*
X143058575Y-95778450D01*
X143141052Y-95878948D01*
X143241550Y-95961425D01*
X143356207Y-96022710D01*
X143480617Y-96060450D01*
X143577581Y-96070000D01*
X143610000Y-96073193D01*
X143642419Y-96070000D01*
X144071717Y-96070000D01*
X144089968Y-96158910D01*
X144105750Y-96209891D01*
X144119810Y-96261377D01*
X144123154Y-96269964D01*
X144413729Y-97001075D01*
X144441126Y-97054213D01*
X144467809Y-97107789D01*
X144472757Y-97115563D01*
X144899804Y-97776310D01*
X144937019Y-97823138D01*
X144973583Y-97870489D01*
X144979947Y-97877154D01*
X145527201Y-98442370D01*
X145572822Y-98481093D01*
X145617866Y-98520423D01*
X145625403Y-98525725D01*
X146272019Y-98973881D01*
X146324247Y-99002981D01*
X146376119Y-99032839D01*
X146384542Y-99036576D01*
X147105891Y-99350602D01*
X147162800Y-99369010D01*
X147219459Y-99388216D01*
X147228448Y-99390246D01*
X147997054Y-99558181D01*
X148056457Y-99565185D01*
X148115765Y-99573020D01*
X148124977Y-99573265D01*
X148911565Y-99588712D01*
X148971185Y-99584046D01*
X149030897Y-99580211D01*
X149039981Y-99578662D01*
X149814587Y-99441033D01*
X149872165Y-99424875D01*
X149929996Y-99409515D01*
X149938607Y-99406231D01*
X150671729Y-99120767D01*
X150725094Y-99093722D01*
X150778817Y-99067433D01*
X150786625Y-99062539D01*
X151450338Y-98640115D01*
X151497414Y-98603236D01*
X151545028Y-98566997D01*
X151551738Y-98560680D01*
X151620529Y-98494999D01*
X176621928Y-98494999D01*
X176621928Y-100095001D01*
X176638992Y-100268255D01*
X176689528Y-100434851D01*
X176771595Y-100588387D01*
X176882038Y-100722962D01*
X177016613Y-100833405D01*
X177170149Y-100915472D01*
X177336745Y-100966008D01*
X177509999Y-100983072D01*
X180010001Y-100983072D01*
X180183255Y-100966008D01*
X180349851Y-100915472D01*
X180503387Y-100833405D01*
X180637962Y-100722962D01*
X180748405Y-100588387D01*
X180830472Y-100434851D01*
X180881008Y-100268255D01*
X180898072Y-100095001D01*
X180898072Y-98494999D01*
X180881008Y-98321745D01*
X180830472Y-98155149D01*
X180748405Y-98001613D01*
X180637962Y-97867038D01*
X180503387Y-97756595D01*
X180349851Y-97674528D01*
X180183255Y-97623992D01*
X180010001Y-97606928D01*
X177509999Y-97606928D01*
X177336745Y-97623992D01*
X177170149Y-97674528D01*
X177016613Y-97756595D01*
X176882038Y-97867038D01*
X176771595Y-98001613D01*
X176689528Y-98155149D01*
X176638992Y-98321745D01*
X176621928Y-98494999D01*
X151620529Y-98494999D01*
X152120762Y-98017385D01*
X152159774Y-97972069D01*
X152199447Y-97927267D01*
X152204801Y-97919766D01*
X152657461Y-97276295D01*
X152686943Y-97224238D01*
X152717143Y-97172609D01*
X152720939Y-97164212D01*
X152729462Y-97145000D01*
X180221928Y-97145000D01*
X180234188Y-97269482D01*
X180270498Y-97389180D01*
X180329463Y-97499494D01*
X180408815Y-97596185D01*
X180505506Y-97675537D01*
X180615820Y-97734502D01*
X180735518Y-97770812D01*
X180860000Y-97783072D01*
X181374250Y-97780000D01*
X181533000Y-97621250D01*
X181533000Y-96872000D01*
X181787000Y-96872000D01*
X181787000Y-97621250D01*
X181945750Y-97780000D01*
X182460000Y-97783072D01*
X182584482Y-97770812D01*
X182704180Y-97734502D01*
X182814494Y-97675537D01*
X182911185Y-97596185D01*
X182990537Y-97499494D01*
X183049502Y-97389180D01*
X183085812Y-97269482D01*
X183098072Y-97145000D01*
X183095000Y-97030750D01*
X182936250Y-96872000D01*
X181787000Y-96872000D01*
X181533000Y-96872000D01*
X180383750Y-96872000D01*
X180225000Y-97030750D01*
X180221928Y-97145000D01*
X152729462Y-97145000D01*
X153039993Y-96445073D01*
X153058797Y-96388296D01*
X153078399Y-96331771D01*
X153080491Y-96322796D01*
X153137577Y-96070000D01*
X153577581Y-96070000D01*
X153610000Y-96073193D01*
X153642419Y-96070000D01*
X153739383Y-96060450D01*
X153863793Y-96022710D01*
X153978450Y-95961425D01*
X154078948Y-95878948D01*
X154161425Y-95778450D01*
X154222710Y-95663793D01*
X154260450Y-95539383D01*
X154273193Y-95410000D01*
X154270000Y-95377581D01*
X154270000Y-94696323D01*
X157440497Y-94696323D01*
X157440497Y-95123677D01*
X157523870Y-95542821D01*
X157687412Y-95937645D01*
X157924837Y-96292977D01*
X158227023Y-96595163D01*
X158582355Y-96832588D01*
X158977179Y-96996130D01*
X159396323Y-97079503D01*
X159823677Y-97079503D01*
X160242821Y-96996130D01*
X160637645Y-96832588D01*
X160992977Y-96595163D01*
X161295163Y-96292977D01*
X161532588Y-95937645D01*
X161550252Y-95895000D01*
X180221928Y-95895000D01*
X180234188Y-96019482D01*
X180264680Y-96120000D01*
X180234188Y-96220518D01*
X180221928Y-96345000D01*
X180225000Y-96459250D01*
X180383750Y-96618000D01*
X181533000Y-96618000D01*
X181533000Y-95622000D01*
X181787000Y-95622000D01*
X181787000Y-96618000D01*
X182936250Y-96618000D01*
X183095000Y-96459250D01*
X183098072Y-96345000D01*
X183085812Y-96220518D01*
X183055320Y-96120000D01*
X183085812Y-96019482D01*
X183098072Y-95895000D01*
X183095000Y-95780750D01*
X182936250Y-95622000D01*
X181787000Y-95622000D01*
X181533000Y-95622000D01*
X180383750Y-95622000D01*
X180225000Y-95780750D01*
X180221928Y-95895000D01*
X161550252Y-95895000D01*
X161696130Y-95542821D01*
X161779503Y-95123677D01*
X161779503Y-94696323D01*
X161696130Y-94277179D01*
X161532588Y-93882355D01*
X161295163Y-93527023D01*
X160992977Y-93224837D01*
X160637645Y-92987412D01*
X160242821Y-92823870D01*
X160097682Y-92795000D01*
X180221928Y-92795000D01*
X180221928Y-93195000D01*
X180238031Y-93358500D01*
X180285722Y-93515716D01*
X180341463Y-93620000D01*
X180285722Y-93724284D01*
X180238031Y-93881500D01*
X180221928Y-94045000D01*
X180221928Y-94445000D01*
X180238031Y-94608500D01*
X180285722Y-94765716D01*
X180300855Y-94794027D01*
X180270498Y-94850820D01*
X180234188Y-94970518D01*
X180221928Y-95095000D01*
X180225000Y-95209250D01*
X180383750Y-95368000D01*
X181533000Y-95368000D01*
X181533000Y-95348000D01*
X181787000Y-95348000D01*
X181787000Y-95368000D01*
X182936250Y-95368000D01*
X183095000Y-95209250D01*
X183097534Y-95115000D01*
X183481546Y-95115000D01*
X183529744Y-95147205D01*
X183718102Y-95225226D01*
X183918061Y-95265000D01*
X184121939Y-95265000D01*
X184321898Y-95225226D01*
X184510256Y-95147205D01*
X184679774Y-95033937D01*
X184823937Y-94889774D01*
X184832472Y-94877000D01*
X184850000Y-94877000D01*
X184874776Y-94874560D01*
X184898601Y-94867333D01*
X184920557Y-94855597D01*
X184939803Y-94839803D01*
X184955597Y-94820557D01*
X184967333Y-94798601D01*
X184974560Y-94774776D01*
X184977000Y-94750000D01*
X184977000Y-94624183D01*
X185015226Y-94531898D01*
X185055000Y-94331939D01*
X185055000Y-94128061D01*
X185015226Y-93928102D01*
X184977000Y-93835817D01*
X184977000Y-93350041D01*
X185005226Y-93281898D01*
X185045000Y-93081939D01*
X185045000Y-92878061D01*
X185005226Y-92678102D01*
X184977000Y-92609959D01*
X184977000Y-92400000D01*
X184974560Y-92375224D01*
X184967333Y-92351399D01*
X184955597Y-92329443D01*
X184939803Y-92310197D01*
X184920557Y-92294403D01*
X184898601Y-92282667D01*
X184874776Y-92275440D01*
X184850000Y-92273000D01*
X184766711Y-92273000D01*
X184669774Y-92176063D01*
X184500256Y-92062795D01*
X184311898Y-91984774D01*
X184111939Y-91945000D01*
X183908061Y-91945000D01*
X183708102Y-91984774D01*
X183519744Y-92062795D01*
X183471546Y-92095000D01*
X182719679Y-92095000D01*
X182580716Y-92020722D01*
X182423500Y-91973031D01*
X182260000Y-91956928D01*
X181060000Y-91956928D01*
X180896500Y-91973031D01*
X180739284Y-92020722D01*
X180594392Y-92098169D01*
X180467394Y-92202394D01*
X180363169Y-92329392D01*
X180285722Y-92474284D01*
X180238031Y-92631500D01*
X180221928Y-92795000D01*
X160097682Y-92795000D01*
X159823677Y-92740497D01*
X159396323Y-92740497D01*
X158977179Y-92823870D01*
X158582355Y-92987412D01*
X158227023Y-93224837D01*
X157924837Y-93527023D01*
X157687412Y-93882355D01*
X157523870Y-94277179D01*
X157440497Y-94696323D01*
X154270000Y-94696323D01*
X154270000Y-94442419D01*
X154273193Y-94410000D01*
X154260450Y-94280617D01*
X154222710Y-94156207D01*
X154161425Y-94041550D01*
X154078948Y-93941052D01*
X153978450Y-93858575D01*
X153863793Y-93797290D01*
X153739383Y-93759550D01*
X153642419Y-93750000D01*
X153610000Y-93746807D01*
X153577581Y-93750000D01*
X153148282Y-93750000D01*
X153133971Y-93680282D01*
X153118431Y-93630081D01*
X153104706Y-93579334D01*
X153101383Y-93570738D01*
X152812519Y-92838686D01*
X152785230Y-92785438D01*
X152758701Y-92731839D01*
X152753772Y-92724053D01*
X152328219Y-92062051D01*
X152291129Y-92015144D01*
X152254674Y-91967693D01*
X152248327Y-91961012D01*
X151702296Y-91394274D01*
X151656769Y-91355438D01*
X151611822Y-91315997D01*
X151604298Y-91310677D01*
X150958586Y-90860791D01*
X150906413Y-90831553D01*
X150854632Y-90801578D01*
X150846217Y-90797820D01*
X150125420Y-90481922D01*
X150068533Y-90463366D01*
X150011945Y-90444029D01*
X150002961Y-90441977D01*
X149234532Y-90272098D01*
X149175142Y-90264947D01*
X149115858Y-90256967D01*
X149106646Y-90256699D01*
X148319855Y-90239311D01*
X148260224Y-90243831D01*
X148200502Y-90247519D01*
X148191414Y-90249045D01*
X147416230Y-90384810D01*
X147358597Y-90400830D01*
X147300744Y-90416044D01*
X147292126Y-90419307D01*
X146558076Y-90703054D01*
X146504675Y-90729951D01*
X146450857Y-90756123D01*
X146443036Y-90760998D01*
X145778079Y-91181918D01*
X145730892Y-91218697D01*
X145683209Y-91254804D01*
X145676484Y-91261105D01*
X145105948Y-91803166D01*
X145066803Y-91848411D01*
X145027042Y-91893090D01*
X145021669Y-91900577D01*
X144567286Y-92543132D01*
X144537677Y-92595114D01*
X144507349Y-92646670D01*
X144503533Y-92655058D01*
X144182610Y-93373634D01*
X144163665Y-93430368D01*
X144143925Y-93486842D01*
X144141810Y-93495812D01*
X144083752Y-93750000D01*
X143642428Y-93750001D01*
X143610000Y-93746807D01*
X143480617Y-93759550D01*
X143356207Y-93797290D01*
X143241550Y-93858575D01*
X143141052Y-93941052D01*
X143058575Y-94041551D01*
X142997290Y-94156208D01*
X142959550Y-94280618D01*
X142950000Y-94377582D01*
X142950000Y-94377588D01*
X142946808Y-94410000D01*
X142950000Y-94442410D01*
X142950001Y-95377571D01*
X142946807Y-95410000D01*
X139722549Y-95410000D01*
X139779503Y-95123677D01*
X139779503Y-94696323D01*
X139696130Y-94277179D01*
X139532588Y-93882355D01*
X139295163Y-93527023D01*
X138992977Y-93224837D01*
X138637645Y-92987412D01*
X138242821Y-92823870D01*
X137823677Y-92740497D01*
X137396323Y-92740497D01*
X136977179Y-92823870D01*
X136582355Y-92987412D01*
X136227023Y-93224837D01*
X135924837Y-93527023D01*
X135687412Y-93882355D01*
X135523870Y-94277179D01*
X135440497Y-94696323D01*
X114197000Y-94696323D01*
X114197000Y-89644999D01*
X176621928Y-89644999D01*
X176621928Y-91245001D01*
X176638992Y-91418255D01*
X176689528Y-91584851D01*
X176771595Y-91738387D01*
X176882038Y-91872962D01*
X177016613Y-91983405D01*
X177170149Y-92065472D01*
X177336745Y-92116008D01*
X177509999Y-92133072D01*
X180010001Y-92133072D01*
X180183255Y-92116008D01*
X180349851Y-92065472D01*
X180503387Y-91983405D01*
X180637962Y-91872962D01*
X180748405Y-91738387D01*
X180830472Y-91584851D01*
X180881008Y-91418255D01*
X180898072Y-91245001D01*
X180898072Y-89644999D01*
X180881008Y-89471745D01*
X180830472Y-89305149D01*
X180748405Y-89151613D01*
X180637962Y-89017038D01*
X180503387Y-88906595D01*
X180349851Y-88824528D01*
X180183255Y-88773992D01*
X180010001Y-88756928D01*
X177509999Y-88756928D01*
X177336745Y-88773992D01*
X177170149Y-88824528D01*
X177016613Y-88906595D01*
X176882038Y-89017038D01*
X176771595Y-89151613D01*
X176689528Y-89305149D01*
X176638992Y-89471745D01*
X176621928Y-89644999D01*
X114197000Y-89644999D01*
X114197000Y-85196983D01*
X189950000Y-85187083D01*
X189950001Y-104513000D01*
%TA.AperFunction,Conductor*%
D13*
G36*
X189950001Y-104513000D02*
G01*
X114197000Y-104513000D01*
X114197000Y-94696323D01*
X135440497Y-94696323D01*
X135440497Y-95123677D01*
X135523870Y-95542821D01*
X135687412Y-95937645D01*
X135924837Y-96292977D01*
X136227023Y-96595163D01*
X136582355Y-96832588D01*
X136977179Y-96996130D01*
X137396323Y-97079503D01*
X137823677Y-97079503D01*
X138242821Y-96996130D01*
X138637645Y-96832588D01*
X138992977Y-96595163D01*
X139295163Y-96292977D01*
X139532588Y-95937645D01*
X139696130Y-95542821D01*
X139722549Y-95410000D01*
X142946807Y-95410000D01*
X142959550Y-95539383D01*
X142997290Y-95663793D01*
X143058575Y-95778450D01*
X143141052Y-95878948D01*
X143241550Y-95961425D01*
X143356207Y-96022710D01*
X143480617Y-96060450D01*
X143577581Y-96070000D01*
X143610000Y-96073193D01*
X143642419Y-96070000D01*
X144071717Y-96070000D01*
X144089968Y-96158910D01*
X144105750Y-96209891D01*
X144119810Y-96261377D01*
X144123154Y-96269964D01*
X144413729Y-97001075D01*
X144441126Y-97054213D01*
X144467809Y-97107789D01*
X144472757Y-97115563D01*
X144899804Y-97776310D01*
X144937019Y-97823138D01*
X144973583Y-97870489D01*
X144979947Y-97877154D01*
X145527201Y-98442370D01*
X145572822Y-98481093D01*
X145617866Y-98520423D01*
X145625403Y-98525725D01*
X146272019Y-98973881D01*
X146324247Y-99002981D01*
X146376119Y-99032839D01*
X146384542Y-99036576D01*
X147105891Y-99350602D01*
X147162800Y-99369010D01*
X147219459Y-99388216D01*
X147228448Y-99390246D01*
X147997054Y-99558181D01*
X148056457Y-99565185D01*
X148115765Y-99573020D01*
X148124977Y-99573265D01*
X148911565Y-99588712D01*
X148971185Y-99584046D01*
X149030897Y-99580211D01*
X149039981Y-99578662D01*
X149814587Y-99441033D01*
X149872165Y-99424875D01*
X149929996Y-99409515D01*
X149938607Y-99406231D01*
X150671729Y-99120767D01*
X150725094Y-99093722D01*
X150778817Y-99067433D01*
X150786625Y-99062539D01*
X151450338Y-98640115D01*
X151497414Y-98603236D01*
X151545028Y-98566997D01*
X151551738Y-98560680D01*
X151620529Y-98494999D01*
X176621928Y-98494999D01*
X176621928Y-100095001D01*
X176638992Y-100268255D01*
X176689528Y-100434851D01*
X176771595Y-100588387D01*
X176882038Y-100722962D01*
X177016613Y-100833405D01*
X177170149Y-100915472D01*
X177336745Y-100966008D01*
X177509999Y-100983072D01*
X180010001Y-100983072D01*
X180183255Y-100966008D01*
X180349851Y-100915472D01*
X180503387Y-100833405D01*
X180637962Y-100722962D01*
X180748405Y-100588387D01*
X180830472Y-100434851D01*
X180881008Y-100268255D01*
X180898072Y-100095001D01*
X180898072Y-98494999D01*
X180881008Y-98321745D01*
X180830472Y-98155149D01*
X180748405Y-98001613D01*
X180637962Y-97867038D01*
X180503387Y-97756595D01*
X180349851Y-97674528D01*
X180183255Y-97623992D01*
X180010001Y-97606928D01*
X177509999Y-97606928D01*
X177336745Y-97623992D01*
X177170149Y-97674528D01*
X177016613Y-97756595D01*
X176882038Y-97867038D01*
X176771595Y-98001613D01*
X176689528Y-98155149D01*
X176638992Y-98321745D01*
X176621928Y-98494999D01*
X151620529Y-98494999D01*
X152120762Y-98017385D01*
X152159774Y-97972069D01*
X152199447Y-97927267D01*
X152204801Y-97919766D01*
X152657461Y-97276295D01*
X152686943Y-97224238D01*
X152717143Y-97172609D01*
X152720939Y-97164212D01*
X152729462Y-97145000D01*
X180221928Y-97145000D01*
X180234188Y-97269482D01*
X180270498Y-97389180D01*
X180329463Y-97499494D01*
X180408815Y-97596185D01*
X180505506Y-97675537D01*
X180615820Y-97734502D01*
X180735518Y-97770812D01*
X180860000Y-97783072D01*
X181374250Y-97780000D01*
X181533000Y-97621250D01*
X181533000Y-96872000D01*
X181787000Y-96872000D01*
X181787000Y-97621250D01*
X181945750Y-97780000D01*
X182460000Y-97783072D01*
X182584482Y-97770812D01*
X182704180Y-97734502D01*
X182814494Y-97675537D01*
X182911185Y-97596185D01*
X182990537Y-97499494D01*
X183049502Y-97389180D01*
X183085812Y-97269482D01*
X183098072Y-97145000D01*
X183095000Y-97030750D01*
X182936250Y-96872000D01*
X181787000Y-96872000D01*
X181533000Y-96872000D01*
X180383750Y-96872000D01*
X180225000Y-97030750D01*
X180221928Y-97145000D01*
X152729462Y-97145000D01*
X153039993Y-96445073D01*
X153058797Y-96388296D01*
X153078399Y-96331771D01*
X153080491Y-96322796D01*
X153137577Y-96070000D01*
X153577581Y-96070000D01*
X153610000Y-96073193D01*
X153642419Y-96070000D01*
X153739383Y-96060450D01*
X153863793Y-96022710D01*
X153978450Y-95961425D01*
X154078948Y-95878948D01*
X154161425Y-95778450D01*
X154222710Y-95663793D01*
X154260450Y-95539383D01*
X154273193Y-95410000D01*
X154270000Y-95377581D01*
X154270000Y-94696323D01*
X157440497Y-94696323D01*
X157440497Y-95123677D01*
X157523870Y-95542821D01*
X157687412Y-95937645D01*
X157924837Y-96292977D01*
X158227023Y-96595163D01*
X158582355Y-96832588D01*
X158977179Y-96996130D01*
X159396323Y-97079503D01*
X159823677Y-97079503D01*
X160242821Y-96996130D01*
X160637645Y-96832588D01*
X160992977Y-96595163D01*
X161295163Y-96292977D01*
X161532588Y-95937645D01*
X161550252Y-95895000D01*
X180221928Y-95895000D01*
X180234188Y-96019482D01*
X180264680Y-96120000D01*
X180234188Y-96220518D01*
X180221928Y-96345000D01*
X180225000Y-96459250D01*
X180383750Y-96618000D01*
X181533000Y-96618000D01*
X181533000Y-95622000D01*
X181787000Y-95622000D01*
X181787000Y-96618000D01*
X182936250Y-96618000D01*
X183095000Y-96459250D01*
X183098072Y-96345000D01*
X183085812Y-96220518D01*
X183055320Y-96120000D01*
X183085812Y-96019482D01*
X183098072Y-95895000D01*
X183095000Y-95780750D01*
X182936250Y-95622000D01*
X181787000Y-95622000D01*
X181533000Y-95622000D01*
X180383750Y-95622000D01*
X180225000Y-95780750D01*
X180221928Y-95895000D01*
X161550252Y-95895000D01*
X161696130Y-95542821D01*
X161779503Y-95123677D01*
X161779503Y-94696323D01*
X161696130Y-94277179D01*
X161532588Y-93882355D01*
X161295163Y-93527023D01*
X160992977Y-93224837D01*
X160637645Y-92987412D01*
X160242821Y-92823870D01*
X160097682Y-92795000D01*
X180221928Y-92795000D01*
X180221928Y-93195000D01*
X180238031Y-93358500D01*
X180285722Y-93515716D01*
X180341463Y-93620000D01*
X180285722Y-93724284D01*
X180238031Y-93881500D01*
X180221928Y-94045000D01*
X180221928Y-94445000D01*
X180238031Y-94608500D01*
X180285722Y-94765716D01*
X180300855Y-94794027D01*
X180270498Y-94850820D01*
X180234188Y-94970518D01*
X180221928Y-95095000D01*
X180225000Y-95209250D01*
X180383750Y-95368000D01*
X181533000Y-95368000D01*
X181533000Y-95348000D01*
X181787000Y-95348000D01*
X181787000Y-95368000D01*
X182936250Y-95368000D01*
X183095000Y-95209250D01*
X183097534Y-95115000D01*
X183481546Y-95115000D01*
X183529744Y-95147205D01*
X183718102Y-95225226D01*
X183918061Y-95265000D01*
X184121939Y-95265000D01*
X184321898Y-95225226D01*
X184510256Y-95147205D01*
X184679774Y-95033937D01*
X184823937Y-94889774D01*
X184832472Y-94877000D01*
X184850000Y-94877000D01*
X184874776Y-94874560D01*
X184898601Y-94867333D01*
X184920557Y-94855597D01*
X184939803Y-94839803D01*
X184955597Y-94820557D01*
X184967333Y-94798601D01*
X184974560Y-94774776D01*
X184977000Y-94750000D01*
X184977000Y-94624183D01*
X185015226Y-94531898D01*
X185055000Y-94331939D01*
X185055000Y-94128061D01*
X185015226Y-93928102D01*
X184977000Y-93835817D01*
X184977000Y-93350041D01*
X185005226Y-93281898D01*
X185045000Y-93081939D01*
X185045000Y-92878061D01*
X185005226Y-92678102D01*
X184977000Y-92609959D01*
X184977000Y-92400000D01*
X184974560Y-92375224D01*
X184967333Y-92351399D01*
X184955597Y-92329443D01*
X184939803Y-92310197D01*
X184920557Y-92294403D01*
X184898601Y-92282667D01*
X184874776Y-92275440D01*
X184850000Y-92273000D01*
X184766711Y-92273000D01*
X184669774Y-92176063D01*
X184500256Y-92062795D01*
X184311898Y-91984774D01*
X184111939Y-91945000D01*
X183908061Y-91945000D01*
X183708102Y-91984774D01*
X183519744Y-92062795D01*
X183471546Y-92095000D01*
X182719679Y-92095000D01*
X182580716Y-92020722D01*
X182423500Y-91973031D01*
X182260000Y-91956928D01*
X181060000Y-91956928D01*
X180896500Y-91973031D01*
X180739284Y-92020722D01*
X180594392Y-92098169D01*
X180467394Y-92202394D01*
X180363169Y-92329392D01*
X180285722Y-92474284D01*
X180238031Y-92631500D01*
X180221928Y-92795000D01*
X160097682Y-92795000D01*
X159823677Y-92740497D01*
X159396323Y-92740497D01*
X158977179Y-92823870D01*
X158582355Y-92987412D01*
X158227023Y-93224837D01*
X157924837Y-93527023D01*
X157687412Y-93882355D01*
X157523870Y-94277179D01*
X157440497Y-94696323D01*
X154270000Y-94696323D01*
X154270000Y-94442419D01*
X154273193Y-94410000D01*
X154260450Y-94280617D01*
X154222710Y-94156207D01*
X154161425Y-94041550D01*
X154078948Y-93941052D01*
X153978450Y-93858575D01*
X153863793Y-93797290D01*
X153739383Y-93759550D01*
X153642419Y-93750000D01*
X153610000Y-93746807D01*
X153577581Y-93750000D01*
X153148282Y-93750000D01*
X153133971Y-93680282D01*
X153118431Y-93630081D01*
X153104706Y-93579334D01*
X153101383Y-93570738D01*
X152812519Y-92838686D01*
X152785230Y-92785438D01*
X152758701Y-92731839D01*
X152753772Y-92724053D01*
X152328219Y-92062051D01*
X152291129Y-92015144D01*
X152254674Y-91967693D01*
X152248327Y-91961012D01*
X151702296Y-91394274D01*
X151656769Y-91355438D01*
X151611822Y-91315997D01*
X151604298Y-91310677D01*
X150958586Y-90860791D01*
X150906413Y-90831553D01*
X150854632Y-90801578D01*
X150846217Y-90797820D01*
X150125420Y-90481922D01*
X150068533Y-90463366D01*
X150011945Y-90444029D01*
X150002961Y-90441977D01*
X149234532Y-90272098D01*
X149175142Y-90264947D01*
X149115858Y-90256967D01*
X149106646Y-90256699D01*
X148319855Y-90239311D01*
X148260224Y-90243831D01*
X148200502Y-90247519D01*
X148191414Y-90249045D01*
X147416230Y-90384810D01*
X147358597Y-90400830D01*
X147300744Y-90416044D01*
X147292126Y-90419307D01*
X146558076Y-90703054D01*
X146504675Y-90729951D01*
X146450857Y-90756123D01*
X146443036Y-90760998D01*
X145778079Y-91181918D01*
X145730892Y-91218697D01*
X145683209Y-91254804D01*
X145676484Y-91261105D01*
X145105948Y-91803166D01*
X145066803Y-91848411D01*
X145027042Y-91893090D01*
X145021669Y-91900577D01*
X144567286Y-92543132D01*
X144537677Y-92595114D01*
X144507349Y-92646670D01*
X144503533Y-92655058D01*
X144182610Y-93373634D01*
X144163665Y-93430368D01*
X144143925Y-93486842D01*
X144141810Y-93495812D01*
X144083752Y-93750000D01*
X143642428Y-93750001D01*
X143610000Y-93746807D01*
X143480617Y-93759550D01*
X143356207Y-93797290D01*
X143241550Y-93858575D01*
X143141052Y-93941052D01*
X143058575Y-94041551D01*
X142997290Y-94156208D01*
X142959550Y-94280618D01*
X142950000Y-94377582D01*
X142950000Y-94377588D01*
X142946808Y-94410000D01*
X142950000Y-94442410D01*
X142950001Y-95377571D01*
X142946807Y-95410000D01*
X139722549Y-95410000D01*
X139779503Y-95123677D01*
X139779503Y-94696323D01*
X139696130Y-94277179D01*
X139532588Y-93882355D01*
X139295163Y-93527023D01*
X138992977Y-93224837D01*
X138637645Y-92987412D01*
X138242821Y-92823870D01*
X137823677Y-92740497D01*
X137396323Y-92740497D01*
X136977179Y-92823870D01*
X136582355Y-92987412D01*
X136227023Y-93224837D01*
X135924837Y-93527023D01*
X135687412Y-93882355D01*
X135523870Y-94277179D01*
X135440497Y-94696323D01*
X114197000Y-94696323D01*
X114197000Y-89644999D01*
X176621928Y-89644999D01*
X176621928Y-91245001D01*
X176638992Y-91418255D01*
X176689528Y-91584851D01*
X176771595Y-91738387D01*
X176882038Y-91872962D01*
X177016613Y-91983405D01*
X177170149Y-92065472D01*
X177336745Y-92116008D01*
X177509999Y-92133072D01*
X180010001Y-92133072D01*
X180183255Y-92116008D01*
X180349851Y-92065472D01*
X180503387Y-91983405D01*
X180637962Y-91872962D01*
X180748405Y-91738387D01*
X180830472Y-91584851D01*
X180881008Y-91418255D01*
X180898072Y-91245001D01*
X180898072Y-89644999D01*
X180881008Y-89471745D01*
X180830472Y-89305149D01*
X180748405Y-89151613D01*
X180637962Y-89017038D01*
X180503387Y-88906595D01*
X180349851Y-88824528D01*
X180183255Y-88773992D01*
X180010001Y-88756928D01*
X177509999Y-88756928D01*
X177336745Y-88773992D01*
X177170149Y-88824528D01*
X177016613Y-88906595D01*
X176882038Y-89017038D01*
X176771595Y-89151613D01*
X176689528Y-89305149D01*
X176638992Y-89471745D01*
X176621928Y-89644999D01*
X114197000Y-89644999D01*
X114197000Y-85196983D01*
X189950000Y-85187083D01*
X189950001Y-104513000D01*
G37*
%TD.AperFunction*%
%TD*%
M02*
