G04*
G04 #@! TF.GenerationSoftware,Altium Limited,Altium Designer,22.1.2 (22)*
G04*
G04 Layer_Color=2752767*
%FSLAX25Y25*%
%MOIN*%
G70*
G04*
G04 #@! TF.SameCoordinates,036337EA-FE27-457D-A10F-76BC7524DD3D*
G04*
G04*
G04 #@! TF.FilePolarity,Positive*
G04*
G01*
G75*
%ADD30C,0.00200*%
%ADD31C,0.00267*%
D30*
X196050Y195501D02*
Y197101D01*
X197650D01*
Y195501D01*
X196050D01*
X201050Y200501D02*
Y202101D01*
X202650D01*
Y200501D01*
X201050D01*
Y190501D02*
Y192101D01*
X202650D01*
Y190501D01*
X201050D01*
X191050D02*
Y192101D01*
X192650D01*
Y190501D01*
X191050D01*
Y200501D02*
Y202101D01*
X192650D01*
Y200501D01*
X191050D01*
X196850Y45711D02*
X196050Y47311D01*
X197650D01*
X196850Y45711D01*
Y42700D02*
X196050Y44300D01*
X197650D01*
X196850Y42700D01*
X345958Y195499D02*
X345159Y197099D01*
X346759D01*
X345958Y195499D01*
X349000D02*
X348200Y197099D01*
X349800D01*
X349000Y195499D01*
X196850Y345329D02*
X196050Y346929D01*
X197650D01*
X196850Y345329D01*
Y348200D02*
X196050Y349800D01*
X197650D01*
X196850Y348200D01*
X47957Y195499D02*
X47157Y197099D01*
X48757D01*
X47957Y195499D01*
X45000D02*
X44200Y197099D01*
X45800D01*
X45000Y195499D01*
D31*
X374764Y117561D02*
G03*
X374764Y117561I-800J0D01*
G01*
Y275041D02*
G03*
X374764Y275041I-800J0D01*
G01*
X20537Y117561D02*
G03*
X20537Y117561I-800J0D01*
G01*
Y275041D02*
G03*
X20537Y275041I-800J0D01*
G01*
M02*
