G04*
G04 #@! TF.GenerationSoftware,Altium Limited,Altium Designer,22.1.2 (22)*
G04*
G04 Layer_Color=65535*
%FSLAX25Y25*%
%MOIN*%
G70*
G04*
G04 #@! TF.SameCoordinates,A02CA134-AAF4-468B-A2AC-DD95B3683172*
G04*
G04*
G04 #@! TF.FilePolarity,Positive*
G04*
G01*
G75*
%ADD10C,0.01000*%
%ADD28C,0.00600*%
%ADD29C,0.00800*%
D10*
X271700Y140998D02*
Y136000D01*
X270700Y135000D01*
X268701D01*
X267701Y136000D01*
Y140998D01*
X265702Y139998D02*
X264702Y140998D01*
X262703D01*
X261703Y139998D01*
Y138999D01*
X262703Y137999D01*
X263703D01*
X262703D01*
X261703Y136999D01*
Y136000D01*
X262703Y135000D01*
X264702D01*
X265702Y136000D01*
X224405Y230387D02*
Y225389D01*
X223405Y224389D01*
X221406D01*
X220406Y225389D01*
Y230387D01*
X214408Y224389D02*
X218407D01*
X214408Y228388D01*
Y229387D01*
X215408Y230387D01*
X217407D01*
X218407Y229387D01*
X107552Y280500D02*
X112550D01*
X113550Y279500D01*
Y277501D01*
X112550Y276501D01*
X107552D01*
X113550Y274502D02*
Y272503D01*
Y273502D01*
X107552D01*
X108552Y274502D01*
X233800Y131300D02*
Y137298D01*
X230801D01*
X229801Y136298D01*
Y134299D01*
X230801Y133299D01*
X233800D01*
X231801D02*
X229801Y131300D01*
X227802Y136298D02*
X226802Y137298D01*
X224803D01*
X223803Y136298D01*
Y135299D01*
X224803Y134299D01*
X225803D01*
X224803D01*
X223803Y133299D01*
Y132300D01*
X224803Y131300D01*
X226802D01*
X227802Y132300D01*
X206200Y221700D02*
Y227698D01*
X203201D01*
X202201Y226698D01*
Y224699D01*
X203201Y223699D01*
X206200D01*
X204201D02*
X202201Y221700D01*
X196203D02*
X200202D01*
X196203Y225699D01*
Y226698D01*
X197203Y227698D01*
X199202D01*
X200202Y226698D01*
X162300Y283800D02*
Y289798D01*
X159301D01*
X158301Y288798D01*
Y286799D01*
X159301Y285799D01*
X162300D01*
X160301D02*
X158301Y283800D01*
X156302D02*
X154303D01*
X155302D01*
Y289798D01*
X156302Y288798D01*
X188500Y212999D02*
X190499D01*
X189500D01*
Y208001D01*
X190499Y207001D01*
X191499D01*
X192499Y208001D01*
X186501Y207001D02*
X184501D01*
X185501D01*
Y212999D01*
X186501Y211999D01*
D28*
X158050Y298000D02*
G03*
X158050Y298000I-400J0D01*
G01*
X203609Y195976D02*
G03*
X203609Y195976I-400J0D01*
G01*
X232000Y105500D02*
G03*
X232000Y105500I-400J0D01*
G01*
X148250Y302000D02*
Y303500D01*
X146750D02*
X148250D01*
X122250D02*
X123750D01*
X122250Y302000D02*
Y303500D01*
Y272500D02*
Y274000D01*
Y272500D02*
X123750D01*
X146750D02*
X148250D01*
Y274000D01*
X212609Y219976D02*
Y221476D01*
X214109D01*
X237109D02*
X238609D01*
Y219976D02*
Y221476D01*
Y190476D02*
Y191976D01*
X237109Y190476D02*
X238609D01*
X212609D02*
X214109D01*
X212609D02*
Y191976D01*
X241000Y100000D02*
Y101500D01*
Y100000D02*
X242500D01*
X265500D02*
X267000D01*
Y101500D01*
Y129500D02*
Y131000D01*
X265500D02*
X267000D01*
X241000D02*
X242500D01*
X241000Y129500D02*
Y131000D01*
X225500Y123000D02*
X234500D01*
X225500Y128000D02*
X234500D01*
X225500Y123000D02*
Y128000D01*
X234500Y123000D02*
Y128000D01*
X225500Y123000D02*
X234500D01*
X225500Y128000D02*
X234500D01*
X225500Y123000D02*
Y128000D01*
X234500Y123000D02*
Y128000D01*
X153969Y280500D02*
X162969D01*
X153969Y275500D02*
X162969D01*
Y280500D01*
X153969Y275500D02*
Y280500D01*
X162969D01*
X153969Y275500D02*
X162969D01*
Y280500D01*
X153969Y275500D02*
Y280500D01*
X197906Y213388D02*
X206906D01*
X197906Y218388D02*
X206906D01*
X197906Y213388D02*
Y218388D01*
X206906Y213388D02*
Y218388D01*
X197906Y213388D02*
X206906D01*
X197906Y218388D02*
X206906D01*
X197906Y213388D02*
Y218388D01*
X206906Y213388D02*
Y218388D01*
D29*
X194882Y189411D02*
X198819D01*
X189961Y194332D02*
Y198269D01*
X194882Y203190D02*
X198819D01*
X203740Y194332D02*
Y198269D01*
M02*
