G04*
G04 #@! TF.GenerationSoftware,Altium Limited,Altium Designer,22.1.2 (22)*
G04*
G04 Layer_Physical_Order=2*
G04 Layer_Color=16711680*
%FSLAX25Y25*%
%MOIN*%
G70*
G04*
G04 #@! TF.SameCoordinates,036337EA-FE27-457D-A10F-76BC7524DD3D*
G04*
G04*
G04 #@! TF.FilePolarity,Positive*
G04*
G01*
G75*
%ADD18C,0.02568*%
%ADD19C,0.05000*%
%ADD20C,0.21654*%
%ADD21C,0.02362*%
%ADD22C,0.01964*%
%ADD23R,0.09500X0.03000*%
%ADD24R,0.10000X0.23000*%
%ADD25R,0.01968X0.02362*%
%ADD26C,0.01964*%
G36*
X353578Y357718D02*
X353582Y357698D01*
X353579Y357679D01*
X353598Y357293D01*
X353612Y357235D01*
Y357175D01*
X353763Y356419D01*
X353793Y356346D01*
X353809Y356268D01*
X354104Y355555D01*
X354148Y355489D01*
X354178Y355416D01*
X354607Y354774D01*
X354663Y354718D01*
X354707Y354653D01*
X355252Y354107D01*
X355318Y354063D01*
X355374Y354007D01*
X356016Y353578D01*
X356089Y353548D01*
X356155Y353504D01*
X356868Y353209D01*
X356945Y353193D01*
X357018Y353163D01*
X357775Y353013D01*
X357835D01*
X357892Y352998D01*
X358278Y352979D01*
X358298Y352982D01*
X358318Y352978D01*
X392948D01*
Y39623D01*
X358318D01*
X358298Y39619D01*
X358278Y39622D01*
X357892Y39603D01*
X357835Y39589D01*
X357775D01*
X357018Y39438D01*
X356945Y39408D01*
X356868Y39393D01*
X356155Y39097D01*
X356089Y39053D01*
X356016Y39023D01*
X355374Y38594D01*
X355318Y38538D01*
X355252Y38494D01*
X354707Y37949D01*
X354663Y37883D01*
X354607Y37827D01*
X354178Y37185D01*
X354148Y37112D01*
X354104Y37047D01*
X353809Y36333D01*
X353793Y36256D01*
X353763Y36183D01*
X353612Y35426D01*
Y35366D01*
X353598Y35309D01*
X353579Y34923D01*
X353582Y34903D01*
X353578Y34883D01*
Y253D01*
X40223D01*
Y34883D01*
X40219Y34903D01*
X40222Y34923D01*
X40203Y35309D01*
X40189Y35366D01*
Y35426D01*
X40038Y36183D01*
X40008Y36256D01*
X39992Y36333D01*
X39697Y37047D01*
X39653Y37112D01*
X39623Y37185D01*
X39194Y37827D01*
X39138Y37883D01*
X39094Y37949D01*
X38548Y38494D01*
X38483Y38538D01*
X38427Y38594D01*
X37785Y39023D01*
X37712Y39053D01*
X37646Y39097D01*
X36933Y39393D01*
X36856Y39408D01*
X36783Y39438D01*
X36026Y39589D01*
X35966D01*
X35908Y39603D01*
X35522Y39622D01*
X35503Y39619D01*
X35483Y39623D01*
X853D01*
Y352978D01*
X35483D01*
X35503Y352982D01*
X35522Y352979D01*
X35908Y352998D01*
X35966Y353013D01*
X36026D01*
X36783Y353163D01*
X36856Y353193D01*
X36933Y353209D01*
X37646Y353504D01*
X37712Y353548D01*
X37785Y353578D01*
X38427Y354007D01*
X38483Y354063D01*
X38548Y354107D01*
X39094Y354653D01*
X39138Y354718D01*
X39194Y354774D01*
X39623Y355416D01*
X39653Y355489D01*
X39697Y355555D01*
X39992Y356268D01*
X40008Y356346D01*
X40038Y356419D01*
X40189Y357175D01*
Y357235D01*
X40203Y357293D01*
X40222Y357679D01*
X40219Y357698D01*
X40223Y357718D01*
Y392348D01*
X353578D01*
Y357718D01*
D02*
G37*
%LPC*%
G36*
X196850Y351125D02*
X196037Y350963D01*
X195348Y350502D01*
X194887Y349813D01*
X194726Y349000D01*
Y346129D01*
Y339882D01*
X194754Y339739D01*
X194571Y337411D01*
X193992Y335000D01*
X193043Y332710D01*
X191748Y330597D01*
X190138Y328712D01*
X188254Y327102D01*
X186140Y325807D01*
X183850Y324858D01*
X181440Y324280D01*
X179111Y324096D01*
X178969Y324125D01*
X115738D01*
Y324129D01*
X113481Y323951D01*
X111278Y323422D01*
X109186Y322555D01*
X107255Y321372D01*
X105533Y319901D01*
X104062Y318179D01*
X102879Y316248D01*
X102012Y314156D01*
X101484Y311954D01*
X101306Y309698D01*
X101308Y309697D01*
X101368Y308934D01*
X101478Y307534D01*
X101984Y305425D01*
X102814Y303421D01*
X103948Y301571D01*
X105356Y299922D01*
X107006Y298513D01*
X108855Y297380D01*
X110859Y296550D01*
X112969Y296044D01*
X115131Y295873D01*
X115156Y295875D01*
X115157Y295875D01*
X117438D01*
X117950Y295300D01*
X117950Y294975D01*
Y293400D01*
X123500D01*
Y292600D01*
X117950D01*
Y291087D01*
X117950Y290500D01*
X117950Y289913D01*
Y288400D01*
X123500D01*
Y287600D01*
X117950D01*
Y286087D01*
X117950Y285500D01*
X117950Y284913D01*
Y283400D01*
X123500D01*
Y282600D01*
X117950D01*
Y281025D01*
X117950Y280700D01*
X117438Y280125D01*
X99769D01*
X99750Y280121D01*
X97433Y279969D01*
X95138Y279513D01*
X92922Y278760D01*
X90823Y277725D01*
X88877Y276425D01*
X87118Y274882D01*
X85575Y273123D01*
X84275Y271177D01*
X83240Y269078D01*
X82487Y266862D01*
X82031Y264567D01*
X81879Y262250D01*
X81875Y262231D01*
Y210641D01*
X81896Y210538D01*
X81753Y208725D01*
X81304Y206857D01*
X80569Y205082D01*
X79565Y203443D01*
X78317Y201982D01*
X76856Y200734D01*
X75218Y199730D01*
X73442Y198995D01*
X71574Y198546D01*
X69761Y198404D01*
X69658Y198424D01*
X45000D01*
X44187Y198262D01*
X43497Y197802D01*
X43037Y197112D01*
X42875Y196299D01*
X43037Y195486D01*
X43497Y194797D01*
X44187Y194336D01*
X45000Y194174D01*
X69658D01*
X69700Y194183D01*
X71807Y194321D01*
X73919Y194741D01*
X75958Y195433D01*
X77889Y196385D01*
X79679Y197582D01*
X81298Y199001D01*
X82718Y200620D01*
X83914Y202410D01*
X84866Y204342D01*
X85558Y206380D01*
X85978Y208492D01*
X86116Y210599D01*
X86125Y210641D01*
Y262231D01*
X86101Y262350D01*
X86260Y264371D01*
X86761Y266458D01*
X87582Y268441D01*
X88704Y270270D01*
X90098Y271902D01*
X91730Y273296D01*
X93559Y274417D01*
X95542Y275239D01*
X97629Y275740D01*
X99650Y275899D01*
X99769Y275875D01*
X118100D01*
Y275700D01*
X128663D01*
X129200Y275700D01*
X129987Y275700D01*
X134850D01*
Y288000D01*
Y300300D01*
X129987D01*
X129450Y300300D01*
X128663Y300300D01*
X118100D01*
Y300125D01*
X115157D01*
X115024Y300098D01*
X113256Y300272D01*
X111454Y300819D01*
X109792Y301707D01*
X108336Y302902D01*
X107141Y304358D01*
X106253Y306019D01*
X105707Y307822D01*
X105598Y308926D01*
X105559Y309697D01*
X105559Y309697D01*
X105559Y309698D01*
X105595Y310470D01*
X105715Y311690D01*
X106297Y313607D01*
X107241Y315373D01*
X108512Y316922D01*
X110061Y318193D01*
X111828Y319137D01*
X113745Y319719D01*
X115604Y319902D01*
X115738Y319875D01*
X178969D01*
Y319873D01*
X181580Y320044D01*
X184147Y320555D01*
X186626Y321396D01*
X188973Y322554D01*
X191149Y324008D01*
X193117Y325733D01*
X194843Y327701D01*
X196297Y329877D01*
X197454Y332225D01*
X198295Y334703D01*
X198806Y337270D01*
X198977Y339882D01*
X198975D01*
Y346129D01*
Y349000D01*
X198813Y349813D01*
X198353Y350502D01*
X197663Y350963D01*
X196850Y351125D01*
D02*
G37*
G36*
X141250Y300300D02*
X140663Y300300D01*
X135650D01*
Y288000D01*
Y275700D01*
X140663D01*
X141250Y275700D01*
X141837Y275700D01*
X152550D01*
Y275875D01*
X156500D01*
X157222Y276019D01*
X158284Y276019D01*
X159072Y276019D01*
X160037D01*
Y278000D01*
Y279981D01*
X159072D01*
X158653Y279981D01*
X157222Y279981D01*
X156500Y280125D01*
X153062D01*
X152550Y280700D01*
X152550Y281087D01*
Y282600D01*
X147000D01*
Y283400D01*
X152550D01*
Y284913D01*
X152550Y285500D01*
X152550Y286087D01*
Y287600D01*
X147000D01*
Y288400D01*
X152550D01*
Y289913D01*
X152550Y290500D01*
X152550Y291087D01*
Y292600D01*
X147000D01*
Y293400D01*
X152550D01*
Y294913D01*
X152550Y295300D01*
X153062Y295875D01*
X192500D01*
X192597Y295895D01*
X194042Y295752D01*
X195525Y295302D01*
X196891Y294572D01*
X198089Y293589D01*
X199072Y292391D01*
X199802Y291025D01*
X200252Y289542D01*
X200395Y288097D01*
X200375Y288000D01*
Y263000D01*
X200381Y262971D01*
X200528Y261104D01*
X200972Y259254D01*
X201700Y257497D01*
X202694Y255875D01*
X203929Y254429D01*
X205375Y253194D01*
X206997Y252200D01*
X208754Y251472D01*
X210604Y251028D01*
X212471Y250881D01*
X212500Y250875D01*
X243500D01*
X243597Y250894D01*
X245042Y250752D01*
X246525Y250302D01*
X247891Y249572D01*
X249089Y248589D01*
X250072Y247391D01*
X250802Y246025D01*
X251252Y244542D01*
X251395Y243097D01*
X251375Y243000D01*
Y221500D01*
X251387Y221439D01*
X251279Y220615D01*
X250937Y219790D01*
X250394Y219082D01*
X249686Y218539D01*
X248861Y218197D01*
X248037Y218089D01*
X247976Y218101D01*
X242909D01*
Y218276D01*
X232196D01*
X231609Y218276D01*
X231021Y218276D01*
X226009D01*
Y205976D01*
Y193676D01*
X231021D01*
X231609Y193676D01*
X232196Y193676D01*
X242909D01*
Y193851D01*
X248500D01*
X248597Y193870D01*
X250042Y193728D01*
X251525Y193278D01*
X252891Y192548D01*
X254089Y191565D01*
X255072Y190367D01*
X255802Y189000D01*
X256252Y187518D01*
X256395Y186073D01*
X256375Y185976D01*
Y161293D01*
X256392Y161207D01*
X256267Y159620D01*
X255876Y157989D01*
X255234Y156439D01*
X254357Y155008D01*
X253267Y153733D01*
X251992Y152643D01*
X250561Y151766D01*
X249011Y151124D01*
X247380Y150733D01*
X245793Y150608D01*
X245707Y150625D01*
X165947D01*
X165880Y150611D01*
X164763Y150721D01*
X163624Y151067D01*
X162575Y151628D01*
X161655Y152383D01*
X160900Y153303D01*
X160339Y154352D01*
X159993Y155491D01*
X159952Y155907D01*
X159905Y156676D01*
X159905D01*
X159707Y158687D01*
X159121Y160621D01*
X158168Y162403D01*
X156886Y163965D01*
X155324Y165247D01*
X153542Y166200D01*
X151608Y166787D01*
X150353Y166910D01*
X149596Y166985D01*
X149596Y166985D01*
X149596D01*
Y166985D01*
X148840Y166910D01*
X147585Y166787D01*
X145651Y166200D01*
X143869Y165247D01*
X142307Y163965D01*
X141025Y162403D01*
X140072Y160621D01*
X139485Y158687D01*
X139287Y156676D01*
X139296D01*
Y143502D01*
X139310Y143434D01*
X139199Y142317D01*
X138854Y141179D01*
X138293Y140129D01*
X137538Y139209D01*
X136618Y138454D01*
X135569Y137893D01*
X134430Y137548D01*
X133313Y137438D01*
X133246Y137451D01*
X133178Y137438D01*
X132061Y137548D01*
X130922Y137893D01*
X129873Y138454D01*
X128953Y139209D01*
X128198Y140129D01*
X127637Y141179D01*
X127291Y142317D01*
X127181Y143434D01*
X127195Y143502D01*
Y157347D01*
X127204D01*
X127006Y159358D01*
X126419Y161292D01*
X125466Y163074D01*
X124184Y164637D01*
X122622Y165919D01*
X120840Y166871D01*
X118906Y167458D01*
X117651Y167582D01*
X116895Y167656D01*
X116895Y167656D01*
X116895D01*
Y167656D01*
X116138Y167582D01*
X114883Y167458D01*
X112950Y166871D01*
X111167Y165919D01*
X109605Y164637D01*
X108323Y163074D01*
X107370Y161292D01*
X106784Y159358D01*
X106586Y157347D01*
X106586D01*
X106594Y156675D01*
X106602Y156639D01*
X106603Y156563D01*
X106498Y155491D01*
X106152Y154352D01*
X105591Y153303D01*
X104836Y152383D01*
X103916Y151628D01*
X102867Y151067D01*
X101728Y150721D01*
X100611Y150611D01*
X100544Y150625D01*
X79445D01*
Y150631D01*
X76580Y150443D01*
X73763Y149883D01*
X71044Y148960D01*
X68468Y147690D01*
X66081Y146094D01*
X63921Y144201D01*
X62028Y142042D01*
X60433Y139654D01*
X59163Y137079D01*
X58240Y134359D01*
X57679Y131543D01*
X57491Y128677D01*
X57498D01*
X57659Y127864D01*
X57806Y127646D01*
Y126116D01*
X57659Y125898D01*
X57498Y125085D01*
X57492D01*
X57678Y122250D01*
X58232Y119464D01*
X59145Y116775D01*
X60401Y114227D01*
X61979Y111865D01*
X63852Y109730D01*
X65988Y107857D01*
X68349Y106279D01*
X70897Y105023D01*
X71424Y104830D01*
X71460Y104806D01*
X71525Y104793D01*
X72221Y104573D01*
X73587Y104110D01*
X76373Y103555D01*
X79207Y103369D01*
X79207Y103375D01*
X100123D01*
Y103366D01*
X102134Y103565D01*
X104068Y104151D01*
X105850Y105104D01*
X107412Y106386D01*
X108694Y107948D01*
X109647Y109730D01*
X110234Y111664D01*
X110432Y113675D01*
X110432D01*
X110435Y114462D01*
X110520Y115324D01*
X110865Y116463D01*
X111426Y117512D01*
X112181Y118432D01*
X113101Y119187D01*
X114151Y119748D01*
X115289Y120094D01*
X116406Y120204D01*
X116474Y120190D01*
X116541Y120204D01*
X117658Y120094D01*
X118797Y119748D01*
X119846Y119187D01*
X120766Y118432D01*
X121521Y117512D01*
X122082Y116463D01*
X122428Y115324D01*
X122538Y114207D01*
X122524Y114140D01*
Y100302D01*
X122515D01*
X122714Y98291D01*
X123300Y96357D01*
X124253Y94574D01*
X125535Y93012D01*
X127097Y91730D01*
X128879Y90777D01*
X130813Y90191D01*
X132068Y90067D01*
X132825Y89993D01*
X132825Y89993D01*
X132825D01*
Y89993D01*
X133581Y90067D01*
X134836Y90191D01*
X136770Y90777D01*
X138552Y91730D01*
X140114Y93012D01*
X141396Y94574D01*
X142349Y96357D01*
X142936Y98291D01*
X143134Y100302D01*
X143125D01*
Y113675D01*
X143111Y113743D01*
X143221Y114860D01*
X143567Y115999D01*
X144128Y117048D01*
X144883Y117968D01*
X145803Y118723D01*
X146852Y119284D01*
X147991Y119630D01*
X149108Y119740D01*
X149175Y119726D01*
X149243Y119740D01*
X150360Y119630D01*
X151499Y119284D01*
X152548Y118723D01*
X153468Y117968D01*
X154223Y117048D01*
X154784Y115999D01*
X155130Y114860D01*
X155171Y114444D01*
X155217Y113675D01*
X155217D01*
X155415Y111664D01*
X156002Y109730D01*
X156955Y107948D01*
X158237Y106386D01*
X159799Y105104D01*
X161581Y104151D01*
X163515Y103565D01*
X165526Y103366D01*
Y103375D01*
X236700D01*
Y103200D01*
X247413D01*
X248000Y103200D01*
X248587Y103200D01*
X253600D01*
Y115500D01*
Y127800D01*
X248587D01*
X248000Y127800D01*
X247413Y127800D01*
X236700D01*
Y127625D01*
X231968D01*
X231246Y127481D01*
X230184Y127481D01*
X229397Y127481D01*
X228432D01*
Y125500D01*
Y123519D01*
X229397D01*
X229816Y123519D01*
X231246Y123519D01*
X231968Y123375D01*
X236188D01*
X236700Y122800D01*
X236700Y122413D01*
Y120900D01*
X242250D01*
Y120100D01*
X236700D01*
Y118587D01*
X236700Y118000D01*
X236700Y117413D01*
Y115900D01*
X242250D01*
Y115100D01*
X236700D01*
Y113587D01*
X236700Y113000D01*
X236700Y112413D01*
Y110900D01*
X242250D01*
Y110100D01*
X236700D01*
Y108587D01*
X236700Y108200D01*
X236188Y107625D01*
X165526D01*
X165459Y107611D01*
X164342Y107721D01*
X163203Y108067D01*
X162154Y108628D01*
X161234Y109383D01*
X160479Y110303D01*
X159918Y111352D01*
X159572Y112491D01*
X159531Y112908D01*
X159485Y113675D01*
X159485D01*
X159286Y115687D01*
X158700Y117621D01*
X157747Y119403D01*
X156465Y120965D01*
X154903Y122247D01*
X153121Y123200D01*
X151187Y123786D01*
X149932Y123910D01*
X149176Y123985D01*
X149176Y123985D01*
X149175D01*
Y123985D01*
X148419Y123910D01*
X147164Y123786D01*
X145230Y123200D01*
X143448Y122247D01*
X141886Y120965D01*
X140604Y119403D01*
X139651Y117621D01*
X139065Y115687D01*
X138866Y113675D01*
X138875D01*
Y100302D01*
X138889Y100234D01*
X138779Y99117D01*
X138433Y97979D01*
X137872Y96929D01*
X137117Y96009D01*
X136197Y95254D01*
X135148Y94693D01*
X134009Y94348D01*
X132892Y94238D01*
X132825Y94251D01*
X132757Y94238D01*
X131640Y94348D01*
X130501Y94693D01*
X129452Y95254D01*
X128532Y96009D01*
X127777Y96929D01*
X127216Y97979D01*
X126871Y99117D01*
X126760Y100234D01*
X126774Y100302D01*
Y114140D01*
X126783D01*
X126585Y116151D01*
X125998Y118085D01*
X125045Y119867D01*
X123763Y121429D01*
X122201Y122711D01*
X120419Y123664D01*
X118485Y124251D01*
X117230Y124374D01*
X116474Y124449D01*
X116474Y124449D01*
X116474D01*
Y124449D01*
X115717Y124374D01*
X114462Y124251D01*
X112529Y123664D01*
X110746Y122711D01*
X109184Y121429D01*
X107902Y119867D01*
X106949Y118085D01*
X106363Y116151D01*
X106165Y114140D01*
X106165D01*
X106162Y113354D01*
X106077Y112491D01*
X105731Y111352D01*
X105170Y110303D01*
X104415Y109383D01*
X103496Y108628D01*
X102446Y108067D01*
X101307Y107721D01*
X100190Y107611D01*
X100123Y107625D01*
X79207D01*
X79207Y107625D01*
Y107625D01*
X78429Y107648D01*
X76924Y107746D01*
X74681Y108192D01*
X73715Y108520D01*
X73025Y108755D01*
X72515Y108928D01*
X70463Y109940D01*
X68561Y111210D01*
X66841Y112719D01*
X65333Y114438D01*
X64062Y116341D01*
X63050Y118392D01*
X62315Y120558D01*
X61869Y122802D01*
X61721Y125056D01*
X61747Y125085D01*
X61747D01*
X61585Y125898D01*
X61439Y126116D01*
Y127646D01*
X61585Y127864D01*
X61747Y128677D01*
X61747D01*
X61720Y128706D01*
X61870Y130991D01*
X62322Y133265D01*
X63068Y135461D01*
X64093Y137541D01*
X65382Y139469D01*
X66910Y141212D01*
X68654Y142741D01*
X70582Y144029D01*
X72661Y145055D01*
X74857Y145800D01*
X77131Y146252D01*
X79336Y146397D01*
X79445Y146375D01*
X100544D01*
Y146366D01*
X102555Y146564D01*
X104489Y147151D01*
X106271Y148104D01*
X107833Y149386D01*
X109115Y150948D01*
X110068Y152730D01*
X110655Y154664D01*
X110853Y156675D01*
X110853D01*
X110844Y157347D01*
X110837Y157384D01*
X110835Y157459D01*
X110941Y158531D01*
X111286Y159670D01*
X111847Y160720D01*
X112602Y161640D01*
X113522Y162395D01*
X114571Y162956D01*
X115710Y163301D01*
X116827Y163411D01*
X116895Y163398D01*
X116962Y163411D01*
X118079Y163301D01*
X119218Y162956D01*
X120267Y162395D01*
X121187Y161640D01*
X121942Y160720D01*
X122503Y159670D01*
X122849Y158531D01*
X122959Y157414D01*
X122945Y157347D01*
Y143502D01*
X122936D01*
X123135Y141490D01*
X123721Y139557D01*
X124674Y137774D01*
X125956Y136212D01*
X127518Y134930D01*
X129300Y133977D01*
X131234Y133391D01*
X132489Y133267D01*
X133246Y133193D01*
X133246Y133193D01*
X133246D01*
Y133193D01*
X134002Y133267D01*
X135257Y133391D01*
X137191Y133977D01*
X138973Y134930D01*
X140535Y136212D01*
X141817Y137774D01*
X142770Y139557D01*
X143356Y141490D01*
X143554Y143502D01*
X143546D01*
Y156676D01*
X143532Y156743D01*
X143642Y157860D01*
X143988Y158999D01*
X144549Y160048D01*
X145304Y160968D01*
X146224Y161723D01*
X147273Y162284D01*
X148412Y162630D01*
X149529Y162740D01*
X149596Y162726D01*
X149664Y162740D01*
X150781Y162630D01*
X151919Y162284D01*
X152969Y161723D01*
X153889Y160968D01*
X154644Y160048D01*
X155205Y158999D01*
X155550Y157860D01*
X155591Y157443D01*
X155638Y156675D01*
X155638D01*
X155836Y154664D01*
X156423Y152730D01*
X157376Y150948D01*
X158658Y149386D01*
X160220Y148104D01*
X162002Y147151D01*
X163936Y146564D01*
X165947Y146366D01*
Y146375D01*
X245707D01*
Y146370D01*
X248042Y146554D01*
X250319Y147100D01*
X252482Y147996D01*
X254479Y149220D01*
X256259Y150741D01*
X257780Y152521D01*
X259003Y154518D01*
X259900Y156681D01*
X260446Y158958D01*
X260630Y161293D01*
X260625D01*
Y185976D01*
X260619Y186005D01*
X260472Y187872D01*
X260028Y189722D01*
X259300Y191479D01*
X258306Y193101D01*
X257071Y194547D01*
X255625Y195782D01*
X254003Y196776D01*
X252246Y197504D01*
X250396Y197948D01*
X248529Y198095D01*
X248500Y198101D01*
X243421D01*
X242909Y198676D01*
X242909Y199063D01*
Y200576D01*
X237359D01*
Y201376D01*
X242909D01*
Y202888D01*
X242909Y203476D01*
X242909Y204063D01*
Y205576D01*
X237359D01*
Y206376D01*
X242909D01*
Y207888D01*
X242909Y208476D01*
X242909Y209063D01*
Y210576D01*
X237359D01*
Y211376D01*
X242909D01*
Y212888D01*
X242909Y213276D01*
X243421Y213851D01*
X247976D01*
X248016Y213859D01*
X249467Y214002D01*
X250901Y214437D01*
X252223Y215143D01*
X253382Y216094D01*
X254332Y217253D01*
X255039Y218574D01*
X255474Y220008D01*
X255617Y221460D01*
X255625Y221500D01*
Y243000D01*
X255619Y243029D01*
X255472Y244896D01*
X255028Y246746D01*
X254300Y248503D01*
X253306Y250125D01*
X252071Y251571D01*
X250625Y252806D01*
X249003Y253800D01*
X247246Y254528D01*
X245396Y254972D01*
X243529Y255119D01*
X243500Y255125D01*
X212500D01*
X212403Y255105D01*
X210958Y255248D01*
X209475Y255698D01*
X208109Y256428D01*
X206911Y257411D01*
X205928Y258609D01*
X205198Y259975D01*
X204748Y261458D01*
X204606Y262903D01*
X204625Y263000D01*
Y288000D01*
X204619Y288029D01*
X204472Y289896D01*
X204028Y291746D01*
X203300Y293503D01*
X202306Y295125D01*
X201071Y296571D01*
X199625Y297806D01*
X198003Y298800D01*
X196246Y299528D01*
X194396Y299972D01*
X192529Y300119D01*
X192500Y300125D01*
X152550D01*
Y300300D01*
X141837D01*
X141250Y300300D01*
D02*
G37*
G36*
X160837Y279981D02*
Y278400D01*
X162221D01*
Y279981D01*
X160837D01*
D02*
G37*
G36*
X162221Y277600D02*
X160837D01*
Y276019D01*
X162221D01*
Y277600D01*
D02*
G37*
G36*
X19737Y286703D02*
X17912Y286560D01*
X16132Y286133D01*
X14442Y285432D01*
X12881Y284476D01*
X11490Y283288D01*
X10301Y281896D01*
X9345Y280336D01*
X8645Y278645D01*
X8217Y276865D01*
X8074Y275041D01*
X8217Y273216D01*
X8645Y271437D01*
X9345Y269746D01*
X10301Y268186D01*
X11490Y266794D01*
X12881Y265605D01*
X14442Y264649D01*
X16132Y263949D01*
X17912Y263522D01*
X19737Y263378D01*
X21561Y263522D01*
X23340Y263949D01*
X25031Y264649D01*
X26592Y265605D01*
X27983Y266794D01*
X29172Y268186D01*
X30128Y269746D01*
X30828Y271437D01*
X31256Y273216D01*
X31399Y275041D01*
X31256Y276865D01*
X30828Y278645D01*
X30128Y280336D01*
X29172Y281896D01*
X27983Y283288D01*
X26592Y284476D01*
X25031Y285432D01*
X23340Y286133D01*
X21561Y286560D01*
X19737Y286703D01*
D02*
G37*
G36*
X373964Y286703D02*
X372140Y286560D01*
X370360Y286133D01*
X368669Y285432D01*
X367109Y284476D01*
X365717Y283288D01*
X364529Y281896D01*
X363573Y280336D01*
X362872Y278645D01*
X362445Y276865D01*
X362301Y275041D01*
X362445Y273216D01*
X362872Y271437D01*
X363573Y269746D01*
X364529Y268186D01*
X365717Y266794D01*
X367109Y265605D01*
X368669Y264649D01*
X370360Y263949D01*
X372140Y263522D01*
X373964Y263378D01*
X375789Y263522D01*
X377568Y263949D01*
X379259Y264649D01*
X380819Y265605D01*
X382211Y266794D01*
X383400Y268186D01*
X384356Y269746D01*
X385056Y271437D01*
X385483Y273216D01*
X385627Y275041D01*
X385483Y276865D01*
X385056Y278645D01*
X384356Y280336D01*
X383400Y281896D01*
X382211Y283288D01*
X380819Y284476D01*
X379259Y285432D01*
X377568Y286133D01*
X375789Y286560D01*
X373964Y286703D01*
D02*
G37*
G36*
X219609Y218276D02*
X219022Y218276D01*
X208309D01*
Y217793D01*
X206159D01*
Y217869D01*
X203010D01*
X202591Y217869D01*
X201803Y217869D01*
X200838D01*
Y215888D01*
Y213907D01*
X201803D01*
X202222Y213907D01*
X203010Y213907D01*
X206159D01*
Y214159D01*
X207752D01*
X208309Y213602D01*
X208309Y212888D01*
Y211376D01*
X213859D01*
Y210576D01*
X208309D01*
Y209063D01*
X208309Y208476D01*
X208309Y207888D01*
Y206376D01*
X213859D01*
Y205576D01*
X208309D01*
Y204063D01*
X208309Y203476D01*
X208309Y202888D01*
Y201376D01*
X213859D01*
Y200576D01*
X208309D01*
Y199063D01*
X208309Y198676D01*
X207693Y198263D01*
X204606D01*
X204381Y198645D01*
X204283Y199050D01*
X204733Y199636D01*
X205065Y200439D01*
X205126Y200901D01*
X201850D01*
X198574D01*
X198635Y200439D01*
X198881Y199845D01*
X198306Y199270D01*
X197712Y199516D01*
X196850Y199629D01*
X195989Y199516D01*
X195395Y199270D01*
X194819Y199845D01*
X195065Y200439D01*
X195126Y200901D01*
X192250D01*
Y198025D01*
X192712Y198086D01*
X193306Y198332D01*
X193881Y197756D01*
X193635Y197162D01*
X193522Y196301D01*
X193635Y195439D01*
X193881Y194845D01*
X193306Y194270D01*
X192712Y194516D01*
X192250Y194577D01*
Y191701D01*
X195126D01*
X195065Y192162D01*
X194819Y192756D01*
X195395Y193332D01*
X195989Y193086D01*
X196850Y192972D01*
X197712Y193086D01*
X198306Y193332D01*
X198881Y192756D01*
X198635Y192162D01*
X198574Y191701D01*
X201850D01*
X205126D01*
X205065Y192162D01*
X204733Y192965D01*
X204533Y193226D01*
X204921Y194013D01*
X208309D01*
Y193676D01*
X219022D01*
X219609Y193676D01*
X220196Y193676D01*
X225209D01*
Y205976D01*
Y218276D01*
X220196D01*
X219609Y218276D01*
D02*
G37*
G36*
X200038Y217869D02*
X198653D01*
Y216288D01*
X200038D01*
Y217869D01*
D02*
G37*
G36*
Y215488D02*
X198653D01*
Y213907D01*
X200038D01*
Y215488D01*
D02*
G37*
G36*
X202250Y204576D02*
Y201701D01*
X205126D01*
X205065Y202162D01*
X204733Y202965D01*
X204204Y203654D01*
X203515Y204183D01*
X202712Y204516D01*
X202250Y204576D01*
D02*
G37*
G36*
X201450Y204576D02*
X200989Y204516D01*
X200186Y204183D01*
X199497Y203654D01*
X198968Y202965D01*
X198635Y202162D01*
X198574Y201701D01*
X201450D01*
Y204576D01*
D02*
G37*
G36*
X192250D02*
Y201701D01*
X195126D01*
X195065Y202162D01*
X194733Y202965D01*
X194204Y203654D01*
X193515Y204183D01*
X192712Y204516D01*
X192250Y204576D01*
D02*
G37*
G36*
X191450D02*
X190989Y204516D01*
X190186Y204183D01*
X189497Y203654D01*
X188968Y202965D01*
X188635Y202162D01*
X188575Y201701D01*
X191450D01*
Y204576D01*
D02*
G37*
G36*
X191850Y201301D02*
D01*
D01*
D01*
D02*
G37*
G36*
X191450Y200901D02*
X188575D01*
X188635Y200439D01*
X188968Y199636D01*
X189497Y198947D01*
X190186Y198418D01*
X190989Y198086D01*
X191450Y198025D01*
Y200901D01*
D02*
G37*
G36*
X349000Y198424D02*
X339799D01*
X339791Y198422D01*
X337778Y198264D01*
X335806Y197791D01*
X333932Y197014D01*
X332203Y195955D01*
X330661Y194638D01*
X329344Y193096D01*
X328285Y191367D01*
X327509Y189493D01*
X327035Y187522D01*
X326877Y185508D01*
X326875Y185500D01*
Y134000D01*
X326890Y133927D01*
X326774Y132752D01*
X326410Y131552D01*
X325819Y130446D01*
X325023Y129477D01*
X324054Y128681D01*
X322948Y128090D01*
X321748Y127726D01*
X320573Y127610D01*
X320500Y127625D01*
X271450D01*
Y127800D01*
X260587D01*
X259800Y127800D01*
X259562Y127800D01*
X254400D01*
Y115500D01*
Y103200D01*
X259562D01*
X260350Y103200D01*
X260587Y103200D01*
X271450D01*
Y103200D01*
X272237Y103339D01*
X273347Y103230D01*
X275123Y102691D01*
X276760Y101816D01*
X278195Y100639D01*
X279372Y99204D01*
X280247Y97567D01*
X280786Y95791D01*
X280956Y94066D01*
X280931Y93944D01*
X280953Y93834D01*
X280804Y91934D01*
X280333Y89973D01*
X279561Y88110D01*
X278508Y86391D01*
X277198Y84858D01*
X275665Y83548D01*
X273946Y82495D01*
X272083Y81723D01*
X270123Y81253D01*
X268222Y81103D01*
X268112Y81125D01*
X211693D01*
X211660Y81118D01*
X209479Y80975D01*
X207303Y80542D01*
X205202Y79829D01*
X203212Y78848D01*
X201367Y77615D01*
X199698Y76152D01*
X198235Y74484D01*
X197003Y72639D01*
X196021Y70649D01*
X195308Y68547D01*
X194875Y66371D01*
X194732Y64191D01*
X194726Y64157D01*
Y46511D01*
Y43500D01*
X194887Y42687D01*
X195348Y41998D01*
X196037Y41537D01*
X196850Y41375D01*
X197663Y41537D01*
X198353Y41998D01*
X198813Y42687D01*
X198975Y43500D01*
Y46511D01*
Y64157D01*
X198954Y64266D01*
X199102Y66151D01*
X199569Y68097D01*
X200335Y69945D01*
X201380Y71650D01*
X202679Y73172D01*
X204200Y74471D01*
X205906Y75516D01*
X207754Y76281D01*
X209699Y76748D01*
X211585Y76897D01*
X211693Y76875D01*
X268112D01*
X268144Y76882D01*
X270340Y77026D01*
X272529Y77461D01*
X274643Y78178D01*
X276644Y79166D01*
X278501Y80406D01*
X280179Y81877D01*
X281650Y83556D01*
X282891Y85412D01*
X283878Y87414D01*
X284595Y89527D01*
X285031Y91716D01*
X285175Y93912D01*
X285181Y93944D01*
X285182D01*
X285014Y96084D01*
X284513Y98172D01*
X283691Y100155D01*
X282569Y101986D01*
X281175Y103619D01*
X279542Y105013D01*
X277712Y106135D01*
X275728Y106957D01*
X273640Y107458D01*
X271765Y107605D01*
X271391Y108083D01*
X271300Y108525D01*
Y110100D01*
X265750D01*
Y110900D01*
X271300D01*
Y112413D01*
X271300Y113000D01*
X271300Y113587D01*
Y115100D01*
X265750D01*
Y115900D01*
X271300D01*
Y117413D01*
X271300Y118000D01*
X271300Y118587D01*
Y120100D01*
X265750D01*
Y120900D01*
X271300D01*
Y122475D01*
X271387Y122898D01*
X271812Y123375D01*
X320500D01*
X320567Y123389D01*
X322161Y123514D01*
X323781Y123903D01*
X325320Y124540D01*
X326740Y125411D01*
X328007Y126493D01*
X329089Y127760D01*
X329960Y129180D01*
X330597Y130719D01*
X330986Y132339D01*
X331111Y133933D01*
X331125Y134000D01*
Y185500D01*
X331103Y185610D01*
X331259Y187199D01*
X331755Y188832D01*
X332559Y190337D01*
X333642Y191657D01*
X334962Y192740D01*
X336467Y193544D01*
X338101Y194040D01*
X339689Y194196D01*
X339799Y194174D01*
X349000D01*
X349813Y194336D01*
X350502Y194797D01*
X350963Y195486D01*
X351125Y196299D01*
X350963Y197112D01*
X350502Y197802D01*
X349813Y198262D01*
X349000Y198424D01*
D02*
G37*
G36*
X191450Y194577D02*
X190989Y194516D01*
X190186Y194183D01*
X189497Y193654D01*
X188968Y192965D01*
X188635Y192162D01*
X188575Y191701D01*
X191450D01*
Y194577D01*
D02*
G37*
G36*
X205126Y190901D02*
X202250D01*
Y188025D01*
X202712Y188086D01*
X203515Y188418D01*
X204204Y188947D01*
X204733Y189636D01*
X205065Y190439D01*
X205126Y190901D01*
D02*
G37*
G36*
X195126D02*
X192250D01*
Y188025D01*
X192712Y188086D01*
X193515Y188418D01*
X194204Y188947D01*
X194733Y189636D01*
X195065Y190439D01*
X195126Y190901D01*
D02*
G37*
G36*
X191450D02*
X188575D01*
X188635Y190439D01*
X188968Y189636D01*
X189497Y188947D01*
X190186Y188418D01*
X190989Y188086D01*
X191450Y188025D01*
Y190901D01*
D02*
G37*
G36*
X201450D02*
X198574D01*
X198635Y190439D01*
X198968Y189636D01*
X199497Y188947D01*
X200186Y188418D01*
X200989Y188086D01*
X201450Y188025D01*
Y190901D01*
D02*
G37*
G36*
X227631Y127481D02*
X226247D01*
Y125900D01*
X227631D01*
Y127481D01*
D02*
G37*
G36*
Y125100D02*
X226247D01*
Y123519D01*
X227631D01*
Y125100D01*
D02*
G37*
G36*
X19737Y129223D02*
X17912Y129080D01*
X16132Y128652D01*
X14442Y127952D01*
X12881Y126996D01*
X11490Y125807D01*
X10301Y124416D01*
X9345Y122855D01*
X8645Y121165D01*
X8217Y119385D01*
X8074Y117561D01*
X8217Y115736D01*
X8645Y113956D01*
X9345Y112266D01*
X10301Y110705D01*
X11490Y109314D01*
X12881Y108125D01*
X14442Y107169D01*
X16132Y106469D01*
X17912Y106041D01*
X19737Y105898D01*
X21561Y106041D01*
X23340Y106469D01*
X25031Y107169D01*
X26592Y108125D01*
X27983Y109314D01*
X29172Y110705D01*
X30128Y112266D01*
X30828Y113956D01*
X31256Y115736D01*
X31399Y117561D01*
X31256Y119385D01*
X30828Y121165D01*
X30128Y122855D01*
X29172Y124416D01*
X27983Y125807D01*
X26592Y126996D01*
X25031Y127952D01*
X23340Y128652D01*
X21561Y129080D01*
X19737Y129223D01*
D02*
G37*
G36*
X373964Y129223D02*
X372140Y129080D01*
X370360Y128652D01*
X368669Y127952D01*
X367109Y126996D01*
X365717Y125807D01*
X364529Y124416D01*
X363573Y122855D01*
X362872Y121165D01*
X362445Y119385D01*
X362301Y117561D01*
X362445Y115736D01*
X362872Y113956D01*
X363573Y112266D01*
X364529Y110705D01*
X365717Y109314D01*
X367109Y108125D01*
X368669Y107169D01*
X370360Y106469D01*
X372140Y106041D01*
X373964Y105898D01*
X375789Y106041D01*
X377568Y106469D01*
X379259Y107169D01*
X380819Y108125D01*
X382211Y109314D01*
X383400Y110705D01*
X384356Y112266D01*
X385056Y113956D01*
X385483Y115736D01*
X385627Y117561D01*
X385483Y119385D01*
X385056Y121165D01*
X384356Y122855D01*
X383400Y124416D01*
X382211Y125807D01*
X380819Y126996D01*
X379259Y127952D01*
X377568Y128652D01*
X375789Y129080D01*
X373964Y129223D01*
D02*
G37*
%LPD*%
D18*
X157772Y156675D02*
G03*
X165947Y148500I8175J0D01*
G01*
X157772Y156676D02*
G03*
X149596Y164851I-8175J0D01*
G01*
X149596D02*
G03*
X141421Y156676I0J-8175D01*
G01*
X133246Y135326D02*
G03*
X141421Y143502I0J8175D01*
G01*
X125070D02*
G03*
X133246Y135326I8175J0D01*
G01*
X125070Y157347D02*
G03*
X116895Y165523I-8175J0D01*
G01*
X116895D02*
G03*
X108719Y157347I0J-8175D01*
G01*
X100544Y148500D02*
G03*
X108719Y156675I0J8175D01*
G01*
X157351Y113675D02*
G03*
X165526Y105500I8175J0D01*
G01*
X157351Y113675D02*
G03*
X149176Y121851I-8175J0D01*
G01*
X149175D02*
G03*
X141000Y113675I0J-8175D01*
G01*
X132825Y92126D02*
G03*
X141000Y100302I0J8175D01*
G01*
X124649D02*
G03*
X132825Y92126I8175J0D01*
G01*
X124649Y114140D02*
G03*
X116474Y122315I-8175J0D01*
G01*
X116474D02*
G03*
X108298Y114140I0J-8175D01*
G01*
X100123Y105500D02*
G03*
X108298Y113675I0J8175D01*
G01*
X245707Y148500D02*
G03*
X258500Y161293I0J12793D01*
G01*
X72273Y106769D02*
G03*
X79207Y105500I6934J18316D01*
G01*
X79445Y148500D02*
G03*
X59622Y128677I0J-19823D01*
G01*
X258500Y185976D02*
G03*
X248500Y195976I-10000J0D01*
G01*
X59622Y125085D02*
G03*
X72273Y106769I19585J0D01*
G01*
X103434Y309697D02*
G03*
X115157Y298000I11697J-1D01*
G01*
X115738Y322000D02*
G03*
X103434Y309697I0J-12304D01*
G01*
X178969Y322000D02*
G03*
X196850Y339882I0J17882D01*
G01*
X253500Y243000D02*
G03*
X243500Y253000I-10000J0D01*
G01*
X247976Y215976D02*
G03*
X253500Y221500I0J5524D01*
G01*
X202500Y288000D02*
G03*
X192500Y298000I-10000J0D01*
G01*
X202500Y263000D02*
G03*
X212500Y253000I10000J0D01*
G01*
X99769Y278000D02*
G03*
X84000Y262231I0J-15769D01*
G01*
X69658Y196299D02*
G03*
X84000Y210641I0J14342D01*
G01*
X339799Y196299D02*
G03*
X329000Y185500I0J-10799D01*
G01*
X320500Y125500D02*
G03*
X329000Y134000I0J8500D01*
G01*
X283056Y93944D02*
G03*
X271500Y105500I-11556J0D01*
G01*
X268112Y79000D02*
G03*
X283056Y93944I0J14944D01*
G01*
X211693Y79000D02*
G03*
X196850Y64157I0J-14843D01*
G01*
X165947Y148500D02*
X177078D01*
X157772Y156675D02*
Y156676D01*
X149596Y164851D02*
X149596D01*
X141421Y143502D02*
Y156676D01*
X133246Y135326D02*
X133246D01*
X125070Y143502D02*
Y157347D01*
X116895Y165523D02*
X116895D01*
X108719Y156675D02*
Y157347D01*
X99260Y148500D02*
X100544D01*
X165526Y105500D02*
X180857D01*
X157351Y113675D02*
Y113675D01*
X149175Y121851D02*
X149176D01*
X141000Y100302D02*
Y113675D01*
X132825Y92126D02*
X132825D01*
X124649Y100302D02*
Y114140D01*
X116474Y122315D02*
X116474D01*
X108298Y113675D02*
Y114140D01*
X98839Y105500D02*
X100123D01*
X79445Y148500D02*
X99260D01*
X177078D02*
X245707D01*
X79207Y105500D02*
X98839D01*
X180857D02*
X242250D01*
X237359Y195976D02*
X248500D01*
X258500Y161293D02*
Y185976D01*
X196850Y339882D02*
Y346129D01*
X115738Y322000D02*
X115738D01*
X196850Y346129D02*
Y349000D01*
X115738Y322000D02*
X178969D01*
X115157Y298000D02*
X123650D01*
X123500Y283000D02*
X147000D01*
X135250Y288000D02*
X147000D01*
X123500D02*
X135250D01*
X242250Y120500D02*
X265750D01*
X213859Y200976D02*
X237359D01*
X213859Y210976D02*
X237359D01*
X242250Y110500D02*
X265750D01*
X123500Y293000D02*
X147000D01*
X253500Y221500D02*
Y243000D01*
X212500Y253000D02*
X243500D01*
X237359Y215976D02*
X247976D01*
X147000Y298000D02*
X192500D01*
X202500Y263000D02*
Y288000D01*
X99769Y278000D02*
X123650D01*
X84000Y210641D02*
Y262231D01*
X47957Y196299D02*
X69658D01*
X339799D02*
X345958D01*
X329000Y134000D02*
Y185500D01*
X265900Y125500D02*
X320500D01*
X265900Y105500D02*
X271500D01*
X211693Y79000D02*
X268112D01*
X196850Y46511D02*
Y64157D01*
X147000Y278000D02*
X156500D01*
X196850Y43500D02*
Y46511D01*
X345958Y196299D02*
X349000D01*
X45000D02*
X47957D01*
X242250Y115500D02*
X254000D01*
X265750D01*
X231968Y125500D02*
X242250D01*
X197013Y196138D02*
X213697D01*
X225609Y205976D02*
X237359D01*
X213859D02*
X225609D01*
D19*
X196850Y196301D02*
D03*
X201850Y201301D02*
D03*
Y191301D02*
D03*
X191850D02*
D03*
Y201301D02*
D03*
D20*
X373964Y117561D02*
D03*
Y275041D02*
D03*
X19737Y117561D02*
D03*
Y275041D02*
D03*
D21*
X196850Y46511D02*
D03*
Y43500D02*
D03*
X345958Y196299D02*
D03*
X349000D02*
D03*
X196850Y346129D02*
D03*
Y349000D02*
D03*
X47957Y196299D02*
D03*
X45000D02*
D03*
D22*
X72273Y106769D02*
D03*
D23*
X147000Y298000D02*
D03*
X123650D02*
D03*
X123500Y293000D02*
D03*
Y288000D02*
D03*
Y283000D02*
D03*
X123650Y278000D02*
D03*
X147000D02*
D03*
Y283000D02*
D03*
Y288000D02*
D03*
Y293000D02*
D03*
X213859Y200976D02*
D03*
Y205976D02*
D03*
Y210976D02*
D03*
Y215976D02*
D03*
X237359D02*
D03*
Y210976D02*
D03*
Y205976D02*
D03*
Y200976D02*
D03*
Y195976D02*
D03*
X213859D02*
D03*
X242250Y105500D02*
D03*
X265900D02*
D03*
X265750Y110500D02*
D03*
Y115500D02*
D03*
Y120500D02*
D03*
X265900Y125500D02*
D03*
X242250D02*
D03*
Y120500D02*
D03*
Y115500D02*
D03*
Y110500D02*
D03*
D24*
X135250Y288000D02*
D03*
X225609Y205976D02*
D03*
X254000Y115500D02*
D03*
D25*
X228031Y125500D02*
D03*
X231968D02*
D03*
X160437Y278000D02*
D03*
X156500D02*
D03*
X200438Y215888D02*
D03*
X204375D02*
D03*
D26*
X79207Y105500D02*
X79207D01*
X59622Y125085D02*
Y128677D01*
X204375Y215974D02*
X204377Y215976D01*
X213859D01*
X204375Y215888D02*
Y215974D01*
X213697Y196138D02*
X213859Y195976D01*
X196850Y196301D02*
X197013Y196138D01*
M02*
