G04*
G04 #@! TF.GenerationSoftware,Altium Limited,Altium Designer,22.1.2 (22)*
G04*
G04 Layer_Color=16711935*
%FSLAX25Y25*%
%MOIN*%
G70*
G04*
G04 #@! TF.SameCoordinates,A02CA134-AAF4-468B-A2AC-DD95B3683172*
G04*
G04*
G04 #@! TF.FilePolarity,Negative*
G04*
G01*
G75*
%ADD15C,0.06200*%
%ADD16C,0.22853*%
%ADD17C,0.03562*%
%ADD23R,0.09500X0.03000*%
%ADD24R,0.10000X0.23000*%
%ADD27R,0.03169X0.03562*%
D15*
X196850Y196301D02*
D03*
X201850Y201301D02*
D03*
Y191301D02*
D03*
X191850D02*
D03*
Y201301D02*
D03*
D16*
X373964Y117561D02*
D03*
Y275041D02*
D03*
X19737Y117561D02*
D03*
Y275041D02*
D03*
D17*
X196850Y46511D02*
D03*
Y43500D02*
D03*
X345958Y196299D02*
D03*
X349000D02*
D03*
X196850Y346129D02*
D03*
Y349000D02*
D03*
X47957Y196299D02*
D03*
X45000D02*
D03*
D23*
X147000Y298000D02*
D03*
X123650D02*
D03*
X123500Y293000D02*
D03*
Y288000D02*
D03*
Y283000D02*
D03*
X123650Y278000D02*
D03*
X147000D02*
D03*
Y283000D02*
D03*
Y288000D02*
D03*
Y293000D02*
D03*
X213859Y200976D02*
D03*
Y205976D02*
D03*
Y210976D02*
D03*
Y215976D02*
D03*
X237359D02*
D03*
Y210976D02*
D03*
Y205976D02*
D03*
Y200976D02*
D03*
Y195976D02*
D03*
X213859D02*
D03*
X242250Y105500D02*
D03*
X265900D02*
D03*
X265750Y110500D02*
D03*
Y115500D02*
D03*
Y120500D02*
D03*
X265900Y125500D02*
D03*
X242250D02*
D03*
Y120500D02*
D03*
Y115500D02*
D03*
Y110500D02*
D03*
D24*
X135250Y288000D02*
D03*
X225609Y205976D02*
D03*
X254000Y115500D02*
D03*
D27*
X228031Y125500D02*
D03*
X231968D02*
D03*
X160437Y278000D02*
D03*
X156500D02*
D03*
X200438Y215888D02*
D03*
X204375D02*
D03*
M02*
