G04*
G04 #@! TF.GenerationSoftware,Altium Limited,Altium Designer,22.1.2 (22)*
G04*
G04 Layer_Color=32896*
%FSLAX25Y25*%
%MOIN*%
G70*
G04*
G04 #@! TF.SameCoordinates,A02CA134-AAF4-468B-A2AC-DD95B3683172*
G04*
G04*
G04 #@! TF.FilePolarity,Positive*
G04*
G01*
G75*
%ADD10C,0.01000*%
D10*
X370176Y191301D02*
X364178D01*
Y194300D01*
X365178Y195299D01*
X367177D01*
X368177Y194300D01*
Y191301D01*
X365178Y197299D02*
X364178Y198299D01*
Y200298D01*
X365178Y201298D01*
X366178D01*
X367177Y200298D01*
Y199298D01*
Y200298D01*
X368177Y201298D01*
X369177D01*
X370176Y200298D01*
Y198299D01*
X369177Y197299D01*
X191852Y23025D02*
Y29023D01*
X194851D01*
X195851Y28023D01*
Y26024D01*
X194851Y25024D01*
X191852D01*
X200849Y23025D02*
Y29023D01*
X197850Y26024D01*
X201849D01*
X29625Y192300D02*
X23627D01*
Y195299D01*
X24627Y196299D01*
X26626D01*
X27626Y195299D01*
Y192300D01*
X29625Y198299D02*
Y200298D01*
Y199298D01*
X23627D01*
X24627Y198299D01*
X191852Y363576D02*
Y369574D01*
X194851D01*
X195851Y368574D01*
Y366575D01*
X194851Y365575D01*
X191852D01*
X201849Y363576D02*
X197850D01*
X201849Y367575D01*
Y368574D01*
X200849Y369574D01*
X198850D01*
X197850Y368574D01*
M02*
