G04*
G04 #@! TF.GenerationSoftware,Altium Limited,Altium Designer,22.1.2 (22)*
G04*
G04 Layer_Color=128*
%FSLAX25Y25*%
%MOIN*%
G70*
G04*
G04 #@! TF.SameCoordinates,036337EA-FE27-457D-A10F-76BC7524DD3D*
G04*
G04*
G04 #@! TF.FilePolarity,Positive*
G04*
G01*
G75*
%ADD30C,0.00200*%
D30*
X195100Y196301D02*
X198600D01*
X196850Y194551D02*
Y198051D01*
X200100Y201301D02*
X203600D01*
X201850Y199551D02*
Y203051D01*
X200100Y191301D02*
X203600D01*
X201850Y189551D02*
Y193051D01*
X190100Y191301D02*
X193600D01*
X191850Y189551D02*
Y193051D01*
X190100Y201301D02*
X193600D01*
X191850Y199551D02*
Y203051D01*
X367271Y117561D02*
X380657D01*
X373964Y110868D02*
Y124253D01*
X367271Y275041D02*
X380657D01*
X373964Y268348D02*
Y281734D01*
X13044Y117561D02*
X26429D01*
X19737Y110868D02*
Y124253D01*
X13044Y275041D02*
X26429D01*
X19737Y268348D02*
Y281734D01*
X196260Y46511D02*
X197441D01*
X196850Y45921D02*
Y47102D01*
X196260Y43500D02*
X197441D01*
X196850Y42909D02*
Y44091D01*
X345368Y196299D02*
X346549D01*
X345958Y195709D02*
Y196890D01*
X348410Y196299D02*
X349590D01*
X349000Y195709D02*
Y196890D01*
X196260Y346129D02*
X197441D01*
X196850Y345538D02*
Y346719D01*
X196260Y349000D02*
X197441D01*
X196850Y348410D02*
Y349590D01*
X47367Y196299D02*
X48548D01*
X47957Y195709D02*
Y196890D01*
X44409Y196299D02*
X45591D01*
X45000Y195709D02*
Y196890D01*
M02*
