%TF.GenerationSoftware,KiCad,Pcbnew,(5.1.9-0-10_14)*%
%TF.CreationDate,2022-02-18T16:19:17-06:00*%
%TF.ProjectId,OwlSat_Official_vent,4f776c53-6174-45f4-9f66-66696369616c,4*%
%TF.SameCoordinates,Original*%
%TF.FileFunction,Legend,Bot*%
%TF.FilePolarity,Positive*%
%FSLAX46Y46*%
G04 Gerber Fmt 4.6, Leading zero omitted, Abs format (unit mm)*
G04 Created by KiCad (PCBNEW (5.1.9-0-10_14)) date 2022-02-18 16:19:17*
%MOMM*%
%LPD*%
G01*
G04 APERTURE LIST*
%ADD10C,0.120000*%
%ADD11C,0.150000*%
G04 APERTURE END LIST*
D10*
%TO.C,U3*%
X180520000Y-98355000D02*
X180970000Y-98355000D01*
X180970000Y-98355000D02*
X180970000Y-97405000D01*
X180970000Y-97405000D02*
X182460000Y-97405000D01*
X180520000Y-91385000D02*
X180970000Y-91385000D01*
X180970000Y-91385000D02*
X180970000Y-92335000D01*
X177000000Y-98355000D02*
X176550000Y-98355000D01*
X176550000Y-98355000D02*
X176550000Y-91385000D01*
X176550000Y-91385000D02*
X177000000Y-91385000D01*
D11*
X184207619Y-95631904D02*
X183398095Y-95631904D01*
X183302857Y-95584285D01*
X183255238Y-95536666D01*
X183207619Y-95441428D01*
X183207619Y-95250952D01*
X183255238Y-95155714D01*
X183302857Y-95108095D01*
X183398095Y-95060476D01*
X184207619Y-95060476D01*
X184207619Y-94679523D02*
X184207619Y-94060476D01*
X183826666Y-94393809D01*
X183826666Y-94250952D01*
X183779047Y-94155714D01*
X183731428Y-94108095D01*
X183636190Y-94060476D01*
X183398095Y-94060476D01*
X183302857Y-94108095D01*
X183255238Y-94155714D01*
X183207619Y-94250952D01*
X183207619Y-94536666D01*
X183255238Y-94631904D01*
X183302857Y-94679523D01*
%TD*%
M02*
