G04*
G04 #@! TF.GenerationSoftware,Altium Limited,Altium Designer,22.6.1 (34)*
G04*
G04 Layer_Physical_Order=2*
G04 Layer_Color=36540*
%FSLAX25Y25*%
%MOIN*%
G70*
G04*
G04 #@! TF.SameCoordinates,44BA9B1E-1016-45A4-B772-E771DC22F3FE*
G04*
G04*
G04 #@! TF.FilePolarity,Positive*
G04*
G01*
G75*
%ADD55C,0.07900*%
%ADD63C,0.01968*%
%ADD67C,0.01070*%
%ADD103C,0.05394*%
%ADD104C,0.05118*%
%ADD106R,0.07400X0.07400*%
%ADD107O,0.03051X0.06102*%
%ADD108O,0.05118X0.02559*%
%ADD109C,0.19685*%
%ADD110C,0.02299*%
%ADD111C,0.02300*%
G36*
X665238Y377355D02*
X824643D01*
X829341Y374056D01*
X829474Y373997D01*
X829595Y373917D01*
X829707Y373894D01*
X829812Y373848D01*
X829958Y373844D01*
X830100Y373816D01*
X872600D01*
X872742Y373844D01*
X872886Y373847D01*
X872992Y373894D01*
X873105Y373917D01*
X873225Y373997D01*
X873357Y374055D01*
X878016Y377316D01*
X1004490Y377355D01*
X1004513Y377360D01*
X1005770Y377236D01*
X1007000Y376863D01*
X1008134Y376257D01*
X1009129Y375441D01*
X1009945Y374447D01*
X1010551Y373312D01*
X1010924Y372082D01*
X1011048Y370825D01*
X1011043Y370802D01*
Y9050D01*
X1011048Y9027D01*
X1010924Y7770D01*
X1010551Y6539D01*
X1009945Y5405D01*
X1009129Y4411D01*
X1008134Y3595D01*
X1007000Y2989D01*
X1005770Y2616D01*
X1004513Y2492D01*
X1004490Y2497D01*
X665238D01*
X665214Y2492D01*
X663958Y2616D01*
X662727Y2989D01*
X661593Y3595D01*
X660599Y4411D01*
X659783Y5405D01*
X659177Y6539D01*
X658804Y7770D01*
X658680Y9027D01*
X658684Y9050D01*
Y370802D01*
X658680Y370825D01*
X658804Y372082D01*
X659177Y373312D01*
X659783Y374447D01*
X660599Y375441D01*
X661593Y376257D01*
X662727Y376863D01*
X663958Y377236D01*
X665214Y377360D01*
X665238Y377355D01*
D02*
G37*
%LPC*%
G36*
X837061Y371947D02*
Y368530D01*
X839033D01*
Y369655D01*
X838852Y370563D01*
X838338Y371332D01*
X837569Y371846D01*
X837061Y371947D01*
D02*
G37*
G36*
X836261Y371947D02*
X835754Y371846D01*
X834985Y371332D01*
X834471Y370563D01*
X834290Y369655D01*
Y368530D01*
X836261D01*
Y371947D01*
D02*
G37*
G36*
X864620Y371947D02*
Y368530D01*
X866592D01*
Y369655D01*
X866411Y370563D01*
X865897Y371332D01*
X865128Y371846D01*
X864620Y371947D01*
D02*
G37*
G36*
X863820Y371947D02*
X863313Y371846D01*
X862544Y371332D01*
X862030Y370563D01*
X861849Y369655D01*
Y368530D01*
X863820D01*
Y371947D01*
D02*
G37*
G36*
X839033Y367730D02*
X837061D01*
Y364313D01*
X837569Y364414D01*
X838338Y364928D01*
X838852Y365697D01*
X839033Y366604D01*
Y367730D01*
D02*
G37*
G36*
X866592Y367730D02*
X864620D01*
Y364313D01*
X865128Y364414D01*
X865897Y364928D01*
X866411Y365697D01*
X866592Y366604D01*
Y367730D01*
D02*
G37*
G36*
X863820D02*
X861849D01*
Y366604D01*
X862030Y365697D01*
X862544Y364928D01*
X863313Y364414D01*
X863820Y364313D01*
Y367730D01*
D02*
G37*
G36*
X836261Y367730D02*
X834290D01*
Y366604D01*
X834471Y365697D01*
X834985Y364928D01*
X835754Y364414D01*
X836261Y364313D01*
Y367730D01*
D02*
G37*
G36*
X850569Y363984D02*
X849809Y363833D01*
X849164Y363402D01*
X848570Y363593D01*
X848211Y363833D01*
X847450Y363984D01*
X846690Y363833D01*
X846045Y363402D01*
X845614Y362757D01*
X845463Y361996D01*
X845614Y361235D01*
X846045Y360591D01*
X846690Y360160D01*
X847450Y360008D01*
X848211Y360160D01*
X848856Y360591D01*
X849450Y360399D01*
X849809Y360160D01*
X850569Y360008D01*
X851330Y360160D01*
X851975Y360591D01*
X852406Y361235D01*
X852557Y361996D01*
X852406Y362757D01*
X851975Y363402D01*
X851330Y363833D01*
X850569Y363984D01*
D02*
G37*
G36*
X992762Y369223D02*
Y358979D01*
X1003006D01*
X1002906Y360249D01*
X1002515Y361878D01*
X1001874Y363425D01*
X1000999Y364854D01*
X999911Y366127D01*
X998637Y367215D01*
X997209Y368091D01*
X995661Y368732D01*
X994032Y369123D01*
X992762Y369223D01*
D02*
G37*
G36*
X991962Y369223D02*
X990692Y369123D01*
X989063Y368732D01*
X987516Y368091D01*
X986087Y367215D01*
X984813Y366127D01*
X983726Y364854D01*
X982850Y363425D01*
X982209Y361878D01*
X981818Y360249D01*
X981718Y358979D01*
X991962D01*
Y369223D01*
D02*
G37*
G36*
X677804Y369219D02*
Y358975D01*
X688048D01*
X687948Y360245D01*
X687557Y361874D01*
X686916Y363421D01*
X686040Y364850D01*
X684953Y366124D01*
X683679Y367211D01*
X682250Y368087D01*
X680703Y368728D01*
X679074Y369119D01*
X677804Y369219D01*
D02*
G37*
G36*
X677004D02*
X675734Y369119D01*
X674105Y368728D01*
X672557Y368087D01*
X671129Y367211D01*
X669855Y366124D01*
X668767Y364850D01*
X667892Y363421D01*
X667251Y361874D01*
X666860Y360245D01*
X666760Y358975D01*
X677004D01*
Y369219D01*
D02*
G37*
G36*
X861563Y359620D02*
X860684D01*
Y357900D01*
X863604D01*
X863522Y358311D01*
X863062Y358999D01*
X862374Y359459D01*
X861563Y359620D01*
D02*
G37*
G36*
X859883D02*
X859004D01*
X858193Y359459D01*
X857505Y358999D01*
X857045Y358311D01*
X856963Y357900D01*
X859883D01*
Y359620D01*
D02*
G37*
G36*
X841878D02*
X840998D01*
Y357900D01*
X843919D01*
X843837Y358311D01*
X843377Y358999D01*
X842689Y359459D01*
X841878Y359620D01*
D02*
G37*
G36*
X840198D02*
X839319D01*
X838507Y359459D01*
X837820Y358999D01*
X837360Y358311D01*
X837278Y357900D01*
X840198D01*
Y359620D01*
D02*
G37*
G36*
X863604Y357100D02*
X860684D01*
Y355380D01*
X861563D01*
X862374Y355541D01*
X863062Y356001D01*
X863522Y356689D01*
X863604Y357100D01*
D02*
G37*
G36*
X859883D02*
X856963D01*
X857045Y356689D01*
X857505Y356001D01*
X858193Y355541D01*
X859004Y355380D01*
X859883D01*
Y357100D01*
D02*
G37*
G36*
X843919D02*
X840998D01*
Y355380D01*
X841878D01*
X842689Y355541D01*
X843377Y356001D01*
X843837Y356689D01*
X843919Y357100D01*
D02*
G37*
G36*
X840198D02*
X837278D01*
X837360Y356689D01*
X837820Y356001D01*
X838507Y355541D01*
X839319Y355380D01*
X840198D01*
Y357100D01*
D02*
G37*
G36*
X1003006Y358179D02*
X992762D01*
Y347935D01*
X994032Y348035D01*
X995661Y348426D01*
X997209Y349067D01*
X998637Y349942D01*
X999911Y351030D01*
X1000999Y352304D01*
X1001874Y353732D01*
X1002515Y355280D01*
X1002906Y356909D01*
X1003006Y358179D01*
D02*
G37*
G36*
X991962D02*
X981718D01*
X981818Y356909D01*
X982209Y355280D01*
X982850Y353732D01*
X983726Y352304D01*
X984813Y351030D01*
X986087Y349942D01*
X987516Y349067D01*
X989063Y348426D01*
X990692Y348035D01*
X991962Y347935D01*
Y358179D01*
D02*
G37*
G36*
X688048Y358175D02*
X677804D01*
Y347931D01*
X679074Y348031D01*
X680703Y348422D01*
X682250Y349063D01*
X683679Y349938D01*
X684953Y351026D01*
X686040Y352300D01*
X686916Y353728D01*
X687557Y355276D01*
X687948Y356905D01*
X688048Y358175D01*
D02*
G37*
G36*
X677004D02*
X666760D01*
X666860Y356905D01*
X667251Y355276D01*
X667892Y353728D01*
X668767Y352300D01*
X669855Y351026D01*
X671129Y349938D01*
X672557Y349063D01*
X674105Y348422D01*
X675734Y348031D01*
X677004Y347931D01*
Y358175D01*
D02*
G37*
G36*
X825500Y351539D02*
X824739Y351388D01*
X824094Y350957D01*
X823664Y350312D01*
X823512Y349551D01*
X823664Y348791D01*
X824094Y348146D01*
X824739Y347715D01*
X825500Y347563D01*
X826261Y347715D01*
X826906Y348146D01*
X827337Y348791D01*
X827488Y349551D01*
X827337Y350312D01*
X826906Y350957D01*
X826261Y351388D01*
X825500Y351539D01*
D02*
G37*
G36*
X752000Y350988D02*
X751239Y350836D01*
X750594Y350406D01*
X750164Y349761D01*
X750012Y349000D01*
X750164Y348239D01*
X750594Y347594D01*
X751239Y347164D01*
X752000Y347012D01*
X752761Y347164D01*
X753406Y347594D01*
X753836Y348239D01*
X753988Y349000D01*
X753836Y349761D01*
X753406Y350406D01*
X752761Y350836D01*
X752000Y350988D01*
D02*
G37*
G36*
X704000Y350488D02*
X703239Y350337D01*
X702594Y349906D01*
X702164Y349261D01*
X702012Y348500D01*
X702164Y347739D01*
X702594Y347094D01*
X703239Y346663D01*
X704000Y346512D01*
X704761Y346663D01*
X705406Y347094D01*
X705836Y347739D01*
X705988Y348500D01*
X705836Y349261D01*
X705406Y349906D01*
X704761Y350337D01*
X704000Y350488D01*
D02*
G37*
G36*
X800214Y350314D02*
X799453Y350163D01*
X798808Y349732D01*
X798377Y349087D01*
X798226Y348326D01*
X798377Y347565D01*
X798808Y346920D01*
X799453Y346489D01*
X800214Y346338D01*
X800975Y346489D01*
X801620Y346920D01*
X802051Y347565D01*
X802202Y348326D01*
X802051Y349087D01*
X801620Y349732D01*
X800975Y350163D01*
X800214Y350314D01*
D02*
G37*
G36*
X819000Y349488D02*
X818239Y349337D01*
X817594Y348906D01*
X817163Y348261D01*
X817012Y347500D01*
X817163Y346739D01*
X817594Y346094D01*
X818239Y345663D01*
X819000Y345512D01*
X819761Y345663D01*
X820406Y346094D01*
X820837Y346739D01*
X820988Y347500D01*
X820837Y348261D01*
X820406Y348906D01*
X819761Y349337D01*
X819000Y349488D01*
D02*
G37*
G36*
X921500Y350328D02*
X920638Y350215D01*
X919836Y349883D01*
X919146Y349354D01*
X918617Y348664D01*
X918285Y347862D01*
X918172Y347000D01*
X918285Y346139D01*
X918617Y345336D01*
X919146Y344646D01*
X919836Y344117D01*
X920638Y343785D01*
X921500Y343671D01*
X922361Y343785D01*
X923164Y344117D01*
X923854Y344646D01*
X924383Y345336D01*
X924715Y346139D01*
X924829Y347000D01*
X924715Y347862D01*
X924383Y348664D01*
X923854Y349354D01*
X923164Y349883D01*
X922361Y350215D01*
X921500Y350328D01*
D02*
G37*
G36*
X936193Y349529D02*
X935331Y349415D01*
X934529Y349082D01*
X933839Y348554D01*
X933310Y347864D01*
X932978Y347061D01*
X932864Y346200D01*
X932978Y345339D01*
X933310Y344536D01*
X933839Y343846D01*
X934529Y343318D01*
X935331Y342985D01*
X936193Y342871D01*
X937054Y342985D01*
X937857Y343318D01*
X938546Y343846D01*
X939075Y344536D01*
X939408Y345339D01*
X939521Y346200D01*
X939408Y347061D01*
X939075Y347864D01*
X938546Y348554D01*
X937857Y349082D01*
X937054Y349415D01*
X936193Y349529D01*
D02*
G37*
G36*
X957900Y346238D02*
Y341900D01*
X962238D01*
X962128Y342740D01*
X961649Y343896D01*
X960888Y344888D01*
X959896Y345649D01*
X958740Y346128D01*
X957900Y346238D01*
D02*
G37*
G36*
X957100D02*
X956260Y346128D01*
X955105Y345649D01*
X954112Y344888D01*
X953351Y343896D01*
X952872Y342740D01*
X952762Y341900D01*
X957100D01*
Y346238D01*
D02*
G37*
G36*
X962238Y341100D02*
X957900D01*
Y336762D01*
X958740Y336872D01*
X959896Y337351D01*
X960888Y338112D01*
X961649Y339105D01*
X962128Y340260D01*
X962238Y341100D01*
D02*
G37*
G36*
X957100D02*
X952762D01*
X952872Y340260D01*
X953351Y339105D01*
X954112Y338112D01*
X955105Y337351D01*
X956260Y336872D01*
X957100Y336762D01*
Y341100D01*
D02*
G37*
G36*
X887500Y346291D02*
X886260Y346128D01*
X885104Y345649D01*
X884112Y344888D01*
X883351Y343896D01*
X882872Y342740D01*
X882709Y341500D01*
X882872Y340260D01*
X883351Y339105D01*
X884112Y338112D01*
X885104Y337351D01*
X886260Y336872D01*
X887500Y336709D01*
X888740Y336872D01*
X889896Y337351D01*
X890888Y338112D01*
X891649Y339105D01*
X892128Y340260D01*
X892291Y341500D01*
X892128Y342740D01*
X891649Y343896D01*
X890888Y344888D01*
X889896Y345649D01*
X888740Y346128D01*
X887500Y346291D01*
D02*
G37*
G36*
X759000Y336488D02*
X758239Y336336D01*
X757594Y335906D01*
X757163Y335261D01*
X757012Y334500D01*
X757163Y333739D01*
X757594Y333094D01*
X758239Y332663D01*
X759000Y332512D01*
X759761Y332663D01*
X760406Y333094D01*
X760837Y333739D01*
X760988Y334500D01*
X760837Y335261D01*
X760406Y335906D01*
X759761Y336336D01*
X759000Y336488D01*
D02*
G37*
G36*
X794000Y333488D02*
X793239Y333336D01*
X792594Y332906D01*
X792164Y332261D01*
X792012Y331500D01*
X792164Y330739D01*
X792594Y330094D01*
X793239Y329663D01*
X794000Y329512D01*
X794761Y329663D01*
X795406Y330094D01*
X795836Y330739D01*
X795988Y331500D01*
X795836Y332261D01*
X795406Y332906D01*
X794761Y333336D01*
X794000Y333488D01*
D02*
G37*
G36*
X675030Y326870D02*
X670930D01*
Y322770D01*
X675030D01*
Y326870D01*
D02*
G37*
G36*
X670130D02*
X666030D01*
Y322770D01*
X670130D01*
Y326870D01*
D02*
G37*
G36*
X1003000Y322000D02*
X998900D01*
Y317900D01*
X1003000D01*
Y322000D01*
D02*
G37*
G36*
X998100D02*
X994000D01*
Y317900D01*
X998100D01*
Y322000D01*
D02*
G37*
G36*
X675030Y321970D02*
X670930D01*
Y317870D01*
X675030D01*
Y321970D01*
D02*
G37*
G36*
X670130D02*
X666030D01*
Y317870D01*
X670130D01*
Y321970D01*
D02*
G37*
G36*
X1003000Y317100D02*
X998900D01*
Y313000D01*
X1003000D01*
Y317100D01*
D02*
G37*
G36*
X998100D02*
X994000D01*
Y313000D01*
X998100D01*
Y317100D01*
D02*
G37*
G36*
X809500Y315988D02*
X808739Y315837D01*
X808094Y315406D01*
X807664Y314761D01*
X807512Y314000D01*
X807664Y313239D01*
X808094Y312594D01*
X808739Y312163D01*
X809500Y312012D01*
X810261Y312163D01*
X810906Y312594D01*
X811337Y313239D01*
X811488Y314000D01*
X811337Y314761D01*
X810906Y315406D01*
X810261Y315837D01*
X809500Y315988D01*
D02*
G37*
G36*
X669530Y316909D02*
X668355Y316754D01*
X667261Y316301D01*
X666321Y315579D01*
X665599Y314639D01*
X665146Y313545D01*
X664991Y312370D01*
X665146Y311195D01*
X665599Y310101D01*
X666321Y309161D01*
X667261Y308439D01*
X668355Y307986D01*
X669530Y307831D01*
X670705Y307986D01*
X671799Y308439D01*
X672739Y309161D01*
X673461Y310101D01*
X673914Y311195D01*
X674069Y312370D01*
X673914Y313545D01*
X673461Y314639D01*
X672739Y315579D01*
X671799Y316301D01*
X670705Y316754D01*
X669530Y316909D01*
D02*
G37*
G36*
X957500Y316291D02*
X956260Y316128D01*
X955105Y315649D01*
X954112Y314888D01*
X953351Y313896D01*
X952872Y312740D01*
X952709Y311500D01*
X952872Y310260D01*
X953351Y309104D01*
X954112Y308112D01*
X955105Y307351D01*
X956260Y306872D01*
X957500Y306709D01*
X958740Y306872D01*
X959896Y307351D01*
X960888Y308112D01*
X961649Y309104D01*
X962128Y310260D01*
X962291Y311500D01*
X962128Y312740D01*
X961649Y313896D01*
X960888Y314888D01*
X959896Y315649D01*
X958740Y316128D01*
X957500Y316291D01*
D02*
G37*
G36*
X927500D02*
X926260Y316128D01*
X925105Y315649D01*
X924112Y314888D01*
X923351Y313896D01*
X922872Y312740D01*
X922709Y311500D01*
X922872Y310260D01*
X923351Y309104D01*
X924112Y308112D01*
X925105Y307351D01*
X926260Y306872D01*
X927500Y306709D01*
X928740Y306872D01*
X929895Y307351D01*
X930888Y308112D01*
X931649Y309104D01*
X932128Y310260D01*
X932291Y311500D01*
X932128Y312740D01*
X931649Y313896D01*
X930888Y314888D01*
X929895Y315649D01*
X928740Y316128D01*
X927500Y316291D01*
D02*
G37*
G36*
X887500D02*
X886260Y316128D01*
X885104Y315649D01*
X884112Y314888D01*
X883351Y313896D01*
X882872Y312740D01*
X882709Y311500D01*
X882872Y310260D01*
X883351Y309104D01*
X884112Y308112D01*
X885104Y307351D01*
X886260Y306872D01*
X887500Y306709D01*
X888740Y306872D01*
X889896Y307351D01*
X890888Y308112D01*
X891649Y309104D01*
X892128Y310260D01*
X892291Y311500D01*
X892128Y312740D01*
X891649Y313896D01*
X890888Y314888D01*
X889896Y315649D01*
X888740Y316128D01*
X887500Y316291D01*
D02*
G37*
G36*
X741000Y309488D02*
X740239Y309336D01*
X739594Y308906D01*
X739163Y308261D01*
X739012Y307500D01*
X739163Y306739D01*
X739594Y306094D01*
X740239Y305663D01*
X741000Y305512D01*
X741761Y305663D01*
X742406Y306094D01*
X742837Y306739D01*
X742988Y307500D01*
X742837Y308261D01*
X742406Y308906D01*
X741761Y309336D01*
X741000Y309488D01*
D02*
G37*
G36*
X997500Y312039D02*
X996325Y311884D01*
X995231Y311431D01*
X994291Y310709D01*
X993569Y309769D01*
X993116Y308675D01*
X992961Y307500D01*
X993116Y306325D01*
X993569Y305231D01*
X994291Y304291D01*
X995231Y303569D01*
X996325Y303116D01*
X997500Y302961D01*
X998675Y303116D01*
X999769Y303569D01*
X1000709Y304291D01*
X1001431Y305231D01*
X1001884Y306325D01*
X1002039Y307500D01*
X1001884Y308675D01*
X1001431Y309769D01*
X1000709Y310709D01*
X999769Y311431D01*
X998675Y311884D01*
X997500Y312039D01*
D02*
G37*
G36*
X735500Y304488D02*
X734739Y304337D01*
X734094Y303906D01*
X733664Y303261D01*
X733512Y302500D01*
X733664Y301739D01*
X734094Y301094D01*
X734739Y300663D01*
X735500Y300512D01*
X736261Y300663D01*
X736906Y301094D01*
X737336Y301739D01*
X737488Y302500D01*
X737336Y303261D01*
X736906Y303906D01*
X736261Y304337D01*
X735500Y304488D01*
D02*
G37*
G36*
X761677Y301990D02*
X760917Y301839D01*
X760272Y301408D01*
X759841Y300763D01*
X759689Y300003D01*
X759841Y299242D01*
X760272Y298597D01*
X760917Y298166D01*
X761677Y298015D01*
X762438Y298166D01*
X763083Y298597D01*
X763514Y299242D01*
X763665Y300003D01*
X763514Y300763D01*
X763083Y301408D01*
X762438Y301839D01*
X761677Y301990D01*
D02*
G37*
G36*
X670530Y306909D02*
X669355Y306754D01*
X668261Y306301D01*
X667321Y305579D01*
X666599Y304639D01*
X666146Y303545D01*
X665991Y302370D01*
X666146Y301195D01*
X666599Y300101D01*
X667321Y299161D01*
X668261Y298439D01*
X669355Y297986D01*
X670530Y297831D01*
X671705Y297986D01*
X672799Y298439D01*
X673739Y299161D01*
X674461Y300101D01*
X674914Y301195D01*
X675069Y302370D01*
X674914Y303545D01*
X674461Y304639D01*
X673739Y305579D01*
X672799Y306301D01*
X671705Y306754D01*
X670530Y306909D01*
D02*
G37*
G36*
X754349Y301377D02*
X753588Y301226D01*
X752943Y300795D01*
X752512Y300150D01*
X752361Y299389D01*
X752512Y298629D01*
X752943Y297984D01*
X753588Y297553D01*
X754349Y297401D01*
X755109Y297553D01*
X755754Y297984D01*
X756185Y298629D01*
X756336Y299389D01*
X756185Y300150D01*
X755754Y300795D01*
X755109Y301226D01*
X754349Y301377D01*
D02*
G37*
G36*
X726847Y301298D02*
X726086Y301147D01*
X725441Y300716D01*
X725010Y300071D01*
X724859Y299310D01*
X725010Y298550D01*
X725441Y297905D01*
X726086Y297474D01*
X726847Y297323D01*
X727607Y297474D01*
X728252Y297905D01*
X728683Y298550D01*
X728834Y299310D01*
X728683Y300071D01*
X728252Y300716D01*
X727607Y301147D01*
X726847Y301298D01*
D02*
G37*
G36*
X939758Y301126D02*
X938997Y300975D01*
X938352Y300544D01*
X937921Y299899D01*
X937770Y299138D01*
X937921Y298377D01*
X938352Y297732D01*
X938997Y297301D01*
X939758Y297149D01*
X940519Y297301D01*
X941164Y297732D01*
X941595Y298377D01*
X941746Y299138D01*
X941595Y299899D01*
X941164Y300544D01*
X940519Y300975D01*
X939758Y301126D01*
D02*
G37*
G36*
X784688Y303988D02*
X783927Y303836D01*
X783282Y303406D01*
X782851Y302761D01*
X782700Y302000D01*
X782817Y301414D01*
X782838Y301224D01*
X782441Y300774D01*
X782117Y300710D01*
X781472Y300279D01*
X781041Y299634D01*
X780890Y298873D01*
X781041Y298113D01*
X781472Y297468D01*
X782117Y297037D01*
X782878Y296886D01*
X783639Y297037D01*
X784283Y297468D01*
X784714Y298113D01*
X784866Y298873D01*
X784749Y299459D01*
X784728Y299650D01*
X785125Y300099D01*
X785449Y300164D01*
X786093Y300594D01*
X786524Y301239D01*
X786676Y302000D01*
X786524Y302761D01*
X786093Y303406D01*
X785449Y303836D01*
X784688Y303988D01*
D02*
G37*
G36*
X998500Y302039D02*
X997325Y301884D01*
X996231Y301431D01*
X995291Y300709D01*
X994569Y299769D01*
X994116Y298675D01*
X993961Y297500D01*
X994116Y296325D01*
X994569Y295231D01*
X995291Y294291D01*
X996231Y293569D01*
X997325Y293116D01*
X998500Y292961D01*
X999675Y293116D01*
X1000769Y293569D01*
X1001709Y294291D01*
X1002431Y295231D01*
X1002884Y296325D01*
X1003039Y297500D01*
X1002884Y298675D01*
X1002431Y299769D01*
X1001709Y300709D01*
X1000769Y301431D01*
X999675Y301884D01*
X998500Y302039D01*
D02*
G37*
G36*
X930500Y290988D02*
X929739Y290837D01*
X929094Y290406D01*
X928664Y289761D01*
X928512Y289000D01*
X928664Y288239D01*
X929094Y287594D01*
X929739Y287163D01*
X930500Y287012D01*
X931261Y287163D01*
X931906Y287594D01*
X932337Y288239D01*
X932488Y289000D01*
X932337Y289761D01*
X931906Y290406D01*
X931261Y290837D01*
X930500Y290988D01*
D02*
G37*
G36*
X753163Y282613D02*
X752403Y282462D01*
X751758Y282031D01*
X751327Y281386D01*
X751176Y280625D01*
X751327Y279864D01*
X751758Y279220D01*
X752403Y278789D01*
X753163Y278637D01*
X753924Y278789D01*
X754569Y279220D01*
X755000Y279864D01*
X755151Y280625D01*
X755000Y281386D01*
X754569Y282031D01*
X753924Y282462D01*
X753163Y282613D01*
D02*
G37*
G36*
X730784Y282488D02*
X730023Y282336D01*
X729378Y281906D01*
X728947Y281261D01*
X728796Y280500D01*
X728947Y279739D01*
X729378Y279094D01*
X730023Y278663D01*
X730784Y278512D01*
X731544Y278663D01*
X732189Y279094D01*
X732620Y279739D01*
X732771Y280500D01*
X732620Y281261D01*
X732189Y281906D01*
X731544Y282336D01*
X730784Y282488D01*
D02*
G37*
G36*
X725500Y279988D02*
X724739Y279837D01*
X724094Y279406D01*
X723664Y278761D01*
X723512Y278000D01*
X723664Y277239D01*
X724094Y276594D01*
X724739Y276164D01*
X725500Y276012D01*
X726261Y276164D01*
X726906Y276594D01*
X727337Y277239D01*
X727488Y278000D01*
X727337Y278761D01*
X726906Y279406D01*
X726261Y279837D01*
X725500Y279988D01*
D02*
G37*
G36*
X758284Y278748D02*
X757523Y278596D01*
X756878Y278165D01*
X756447Y277520D01*
X756296Y276760D01*
X756447Y275999D01*
X756878Y275354D01*
X757523Y274923D01*
X758284Y274772D01*
X759044Y274923D01*
X759689Y275354D01*
X760120Y275999D01*
X760271Y276760D01*
X760120Y277520D01*
X759689Y278165D01*
X759044Y278596D01*
X758284Y278748D01*
D02*
G37*
G36*
X771388Y278636D02*
X770627Y278485D01*
X769982Y278054D01*
X769551Y277409D01*
X769400Y276648D01*
X769551Y275887D01*
X769982Y275242D01*
X770627Y274812D01*
X771388Y274660D01*
X772148Y274812D01*
X772793Y275242D01*
X773224Y275887D01*
X773376Y276648D01*
X773224Y277409D01*
X772793Y278054D01*
X772148Y278485D01*
X771388Y278636D01*
D02*
G37*
G36*
X749000Y277488D02*
X748239Y277337D01*
X747594Y276906D01*
X747163Y276261D01*
X747012Y275500D01*
X747163Y274739D01*
X747594Y274094D01*
X748239Y273663D01*
X749000Y273512D01*
X749761Y273663D01*
X750406Y274094D01*
X750837Y274739D01*
X750988Y275500D01*
X750837Y276261D01*
X750406Y276906D01*
X749761Y277337D01*
X749000Y277488D01*
D02*
G37*
G36*
X681500D02*
X680739Y277337D01*
X680094Y276906D01*
X679664Y276261D01*
X679512Y275500D01*
X679664Y274739D01*
X680094Y274094D01*
X680739Y273663D01*
X681500Y273512D01*
X682261Y273663D01*
X682906Y274094D01*
X683336Y274739D01*
X683488Y275500D01*
X683336Y276261D01*
X682906Y276906D01*
X682261Y277337D01*
X681500Y277488D01*
D02*
G37*
G36*
X936258Y277376D02*
X935497Y277225D01*
X934852Y276794D01*
X934421Y276149D01*
X934270Y275388D01*
X934421Y274627D01*
X934852Y273982D01*
X935497Y273551D01*
X936258Y273399D01*
X937019Y273551D01*
X937664Y273982D01*
X938095Y274627D01*
X938246Y275388D01*
X938095Y276149D01*
X937664Y276794D01*
X937019Y277225D01*
X936258Y277376D01*
D02*
G37*
G36*
X779669Y275931D02*
X778908Y275780D01*
X778263Y275349D01*
X777832Y274704D01*
X777681Y273944D01*
X777832Y273183D01*
X778263Y272538D01*
X778908Y272107D01*
X779669Y271956D01*
X780429Y272107D01*
X781074Y272538D01*
X781505Y273183D01*
X781656Y273944D01*
X781505Y274704D01*
X781074Y275349D01*
X780429Y275780D01*
X779669Y275931D01*
D02*
G37*
G36*
X978214Y273814D02*
X977453Y273663D01*
X976808Y273232D01*
X976377Y272587D01*
X976226Y271826D01*
X976377Y271065D01*
X976808Y270420D01*
X977453Y269989D01*
X978214Y269838D01*
X978975Y269989D01*
X979620Y270420D01*
X980051Y271065D01*
X980202Y271826D01*
X980051Y272587D01*
X979620Y273232D01*
X978975Y273663D01*
X978214Y273814D01*
D02*
G37*
G36*
X769794Y273275D02*
X769033Y273124D01*
X768389Y272693D01*
X767958Y272048D01*
X767806Y271287D01*
X767958Y270526D01*
X768389Y269881D01*
X769033Y269450D01*
X769794Y269299D01*
X770555Y269450D01*
X771200Y269881D01*
X771630Y270526D01*
X771782Y271287D01*
X771630Y272048D01*
X771200Y272693D01*
X770555Y273124D01*
X769794Y273275D01*
D02*
G37*
G36*
X956500Y268988D02*
X955739Y268837D01*
X955094Y268406D01*
X954663Y267761D01*
X954512Y267000D01*
X954663Y266239D01*
X955094Y265594D01*
X955739Y265163D01*
X956500Y265012D01*
X957261Y265163D01*
X957906Y265594D01*
X958337Y266239D01*
X958488Y267000D01*
X958337Y267761D01*
X957906Y268406D01*
X957261Y268837D01*
X956500Y268988D01*
D02*
G37*
G36*
X676042Y261893D02*
X675281Y261741D01*
X674636Y261310D01*
X674205Y260665D01*
X674053Y259904D01*
X674205Y259143D01*
X674636Y258499D01*
X675281Y258067D01*
X676042Y257916D01*
X676803Y258067D01*
X677448Y258499D01*
X677879Y259143D01*
X678030Y259904D01*
X677879Y260665D01*
X677448Y261310D01*
X676803Y261741D01*
X676042Y261893D01*
D02*
G37*
G36*
X747469Y258755D02*
X746708Y258604D01*
X746063Y258173D01*
X745632Y257528D01*
X745481Y256768D01*
X745632Y256007D01*
X746063Y255362D01*
X746708Y254931D01*
X747469Y254780D01*
X748229Y254931D01*
X748874Y255362D01*
X749305Y256007D01*
X749456Y256768D01*
X749305Y257528D01*
X748874Y258173D01*
X748229Y258604D01*
X747469Y258755D01*
D02*
G37*
G36*
X756547Y254053D02*
X755787Y253902D01*
X755142Y253471D01*
X754711Y252826D01*
X754560Y252065D01*
X754711Y251304D01*
X755142Y250659D01*
X755787Y250229D01*
X756547Y250077D01*
X757308Y250229D01*
X757953Y250659D01*
X758384Y251304D01*
X758535Y252065D01*
X758384Y252826D01*
X757953Y253471D01*
X757308Y253902D01*
X756547Y254053D01*
D02*
G37*
G36*
X747469Y242220D02*
X746708Y242069D01*
X746063Y241638D01*
X745632Y240993D01*
X745481Y240232D01*
X745632Y239472D01*
X746063Y238827D01*
X746708Y238396D01*
X747469Y238245D01*
X748229Y238396D01*
X748874Y238827D01*
X749305Y239472D01*
X749456Y240232D01*
X749305Y240993D01*
X748874Y241638D01*
X748229Y242069D01*
X747469Y242220D01*
D02*
G37*
G36*
X761469Y241720D02*
X760708Y241569D01*
X760063Y241138D01*
X759632Y240493D01*
X759481Y239732D01*
X759632Y238972D01*
X760063Y238327D01*
X760708Y237896D01*
X761469Y237744D01*
X762229Y237896D01*
X762874Y238327D01*
X763305Y238972D01*
X763456Y239732D01*
X763305Y240493D01*
X762874Y241138D01*
X762229Y241569D01*
X761469Y241720D01*
D02*
G37*
G36*
X829500Y243488D02*
X828739Y243337D01*
X828094Y242906D01*
X827664Y242261D01*
X827512Y241500D01*
X827664Y240739D01*
X828094Y240094D01*
X828296Y239960D01*
X828261Y239570D01*
X828194Y239306D01*
X827594Y238906D01*
X827164Y238261D01*
X827012Y237500D01*
X827164Y236739D01*
X827594Y236094D01*
X828239Y235664D01*
X829000Y235512D01*
X829761Y235664D01*
X830406Y236094D01*
X830836Y236739D01*
X830988Y237500D01*
X830836Y238261D01*
X830406Y238906D01*
X830204Y239040D01*
X830239Y239430D01*
X830306Y239694D01*
X830906Y240094D01*
X831336Y240739D01*
X831488Y241500D01*
X831336Y242261D01*
X830906Y242906D01*
X830261Y243337D01*
X829500Y243488D01*
D02*
G37*
G36*
X760856Y235519D02*
X760095Y235368D01*
X759450Y234937D01*
X759019Y234292D01*
X758868Y233531D01*
X759019Y232771D01*
X759450Y232126D01*
X760095Y231695D01*
X760856Y231544D01*
X761616Y231695D01*
X762261Y232126D01*
X762692Y232771D01*
X762843Y233531D01*
X762692Y234292D01*
X762261Y234937D01*
X761616Y235368D01*
X760856Y235519D01*
D02*
G37*
G36*
X828347Y234975D02*
X827586Y234823D01*
X826942Y234393D01*
X826511Y233748D01*
X826359Y232987D01*
X826511Y232226D01*
X826942Y231581D01*
X827586Y231151D01*
X828347Y230999D01*
X829108Y231151D01*
X829753Y231581D01*
X830184Y232226D01*
X830335Y232987D01*
X830184Y233748D01*
X829753Y234393D01*
X829108Y234823D01*
X828347Y234975D01*
D02*
G37*
G36*
X825572Y227168D02*
X824811Y227016D01*
X824166Y226585D01*
X823735Y225940D01*
X823584Y225180D01*
X823735Y224419D01*
X824166Y223774D01*
X824811Y223343D01*
X825572Y223191D01*
X826333Y223343D01*
X826978Y223774D01*
X827409Y224419D01*
X827560Y225180D01*
X827409Y225940D01*
X826978Y226585D01*
X826333Y227016D01*
X825572Y227168D01*
D02*
G37*
G36*
X834065Y213497D02*
X833305Y213346D01*
X832659Y212915D01*
X832228Y212270D01*
X832077Y211509D01*
X832228Y210748D01*
X832659Y210103D01*
X833305Y209672D01*
X834065Y209521D01*
X834826Y209672D01*
X835471Y210103D01*
X835902Y210748D01*
X836053Y211509D01*
X835902Y212270D01*
X835471Y212915D01*
X834826Y213346D01*
X834065Y213497D01*
D02*
G37*
G36*
X900500Y206488D02*
X899739Y206336D01*
X899094Y205906D01*
X898664Y205261D01*
X898512Y204500D01*
X898664Y203739D01*
X899094Y203094D01*
X899739Y202663D01*
X900500Y202512D01*
X901261Y202663D01*
X901906Y203094D01*
X902337Y203739D01*
X902488Y204500D01*
X902337Y205261D01*
X901906Y205906D01*
X901261Y206336D01*
X900500Y206488D01*
D02*
G37*
G36*
X806258Y203112D02*
X805498Y202961D01*
X804853Y202530D01*
X804422Y201885D01*
X804270Y201124D01*
X804422Y200363D01*
X804853Y199718D01*
X805498Y199287D01*
X806258Y199136D01*
X807019Y199287D01*
X807664Y199718D01*
X808095Y200363D01*
X808247Y201124D01*
X808095Y201885D01*
X807664Y202530D01*
X807019Y202961D01*
X806258Y203112D01*
D02*
G37*
G36*
X861000Y202988D02*
X860239Y202836D01*
X859594Y202406D01*
X859163Y201761D01*
X859012Y201000D01*
X859163Y200239D01*
X859594Y199594D01*
X860239Y199163D01*
X861000Y199012D01*
X861761Y199163D01*
X862406Y199594D01*
X862836Y200239D01*
X862988Y201000D01*
X862836Y201761D01*
X862406Y202406D01*
X861761Y202836D01*
X861000Y202988D01*
D02*
G37*
G36*
X827432Y202290D02*
X826672Y202139D01*
X826027Y201708D01*
X825596Y201063D01*
X825445Y200302D01*
X825596Y199542D01*
X826027Y198897D01*
X826672Y198466D01*
X827432Y198315D01*
X828193Y198466D01*
X828838Y198897D01*
X829269Y199542D01*
X829420Y200302D01*
X829269Y201063D01*
X828838Y201708D01*
X828193Y202139D01*
X827432Y202290D01*
D02*
G37*
G36*
X836921Y197988D02*
X836160Y197836D01*
X835515Y197406D01*
X835227D01*
X834582Y197836D01*
X833822Y197988D01*
X833061Y197836D01*
X832416Y197406D01*
X831985Y196761D01*
X831834Y196000D01*
X831985Y195239D01*
X832416Y194594D01*
X833061Y194164D01*
X833822Y194012D01*
X834582Y194164D01*
X835227Y194594D01*
X835515D01*
X836160Y194164D01*
X836921Y194012D01*
X837682Y194164D01*
X838326Y194594D01*
X838757Y195239D01*
X838909Y196000D01*
X838757Y196761D01*
X838326Y197406D01*
X837682Y197836D01*
X836921Y197988D01*
D02*
G37*
G36*
X880500Y200988D02*
X879739Y200836D01*
X879094Y200406D01*
X878664Y199761D01*
X878512Y199000D01*
X878664Y198239D01*
X879094Y197594D01*
X879739Y197163D01*
X880500Y197012D01*
X881261Y197163D01*
X881906Y197594D01*
X882337Y198239D01*
X882488Y199000D01*
X882337Y199761D01*
X881906Y200406D01*
X881261Y200836D01*
X880500Y200988D01*
D02*
G37*
G36*
X893962Y200527D02*
X893201Y200375D01*
X892556Y199944D01*
X892125Y199299D01*
X891974Y198538D01*
X892125Y197777D01*
X892556Y197133D01*
X893201Y196702D01*
X893962Y196550D01*
X894723Y196702D01*
X895368Y197133D01*
X895799Y197777D01*
X895950Y198538D01*
X895799Y199299D01*
X895368Y199944D01*
X894723Y200375D01*
X893962Y200527D01*
D02*
G37*
G36*
X902000Y199488D02*
X901239Y199337D01*
X900594Y198906D01*
X900163Y198261D01*
X900012Y197500D01*
X900163Y196739D01*
X900594Y196094D01*
X901239Y195663D01*
X902000Y195512D01*
X902761Y195663D01*
X903406Y196094D01*
X903837Y196739D01*
X903988Y197500D01*
X903837Y198261D01*
X903406Y198906D01*
X902761Y199337D01*
X902000Y199488D01*
D02*
G37*
G36*
X915664Y198723D02*
X914903Y198572D01*
X914258Y198141D01*
X913827Y197496D01*
X913676Y196735D01*
X913827Y195975D01*
X914258Y195330D01*
X914903Y194899D01*
X915664Y194747D01*
X916424Y194899D01*
X917069Y195330D01*
X917500Y195975D01*
X917652Y196735D01*
X917500Y197496D01*
X917069Y198141D01*
X916424Y198572D01*
X915664Y198723D01*
D02*
G37*
G36*
X808710Y195744D02*
X807949Y195593D01*
X807304Y195162D01*
X806873Y194517D01*
X806722Y193756D01*
X806873Y192996D01*
X807304Y192351D01*
X807949Y191920D01*
X808710Y191769D01*
X809470Y191920D01*
X810115Y192351D01*
X810546Y192996D01*
X810698Y193756D01*
X810546Y194517D01*
X810115Y195162D01*
X809470Y195593D01*
X808710Y195744D01*
D02*
G37*
G36*
X927267Y195069D02*
X926506Y194918D01*
X925861Y194487D01*
X925430Y193842D01*
X925279Y193081D01*
X925430Y192320D01*
X925861Y191675D01*
X926506Y191244D01*
X927267Y191093D01*
X928028Y191244D01*
X928673Y191675D01*
X929104Y192320D01*
X929255Y193081D01*
X929104Y193842D01*
X928673Y194487D01*
X928028Y194918D01*
X927267Y195069D01*
D02*
G37*
G36*
X724814Y194914D02*
X724053Y194763D01*
X723408Y194332D01*
X722977Y193687D01*
X722826Y192926D01*
X722977Y192165D01*
X723408Y191520D01*
X724053Y191089D01*
X724814Y190938D01*
X725575Y191089D01*
X726220Y191520D01*
X726651Y192165D01*
X726802Y192926D01*
X726651Y193687D01*
X726220Y194332D01*
X725575Y194763D01*
X724814Y194914D01*
D02*
G37*
G36*
X801500Y194774D02*
X800739Y194622D01*
X800094Y194192D01*
X799663Y193547D01*
X799512Y192786D01*
X799663Y192025D01*
X800094Y191380D01*
X800739Y190949D01*
X801500Y190798D01*
X802261Y190949D01*
X802906Y191380D01*
X803337Y192025D01*
X803488Y192786D01*
X803337Y193547D01*
X802906Y194192D01*
X802261Y194622D01*
X801500Y194774D01*
D02*
G37*
G36*
X791000D02*
X790239Y194622D01*
X789594Y194192D01*
X789163Y193547D01*
X789012Y192786D01*
X789163Y192025D01*
X789594Y191380D01*
X790239Y190949D01*
X791000Y190798D01*
X791761Y190949D01*
X792406Y191380D01*
X792837Y192025D01*
X792988Y192786D01*
X792837Y193547D01*
X792406Y194192D01*
X791761Y194622D01*
X791000Y194774D01*
D02*
G37*
G36*
X868734Y190578D02*
X867974Y190427D01*
X867328Y189996D01*
X866897Y189351D01*
X866746Y188590D01*
X866897Y187829D01*
X867328Y187184D01*
X867974Y186753D01*
X868734Y186601D01*
X869495Y186753D01*
X870140Y187184D01*
X870571Y187829D01*
X870723Y188590D01*
X870571Y189351D01*
X870140Y189996D01*
X869495Y190427D01*
X868734Y190578D01*
D02*
G37*
G36*
X756714Y190314D02*
X755953Y190163D01*
X755308Y189732D01*
X754877Y189087D01*
X754726Y188326D01*
X754877Y187565D01*
X755308Y186920D01*
X755953Y186489D01*
X756714Y186338D01*
X757475Y186489D01*
X758120Y186920D01*
X758551Y187565D01*
X758702Y188326D01*
X758551Y189087D01*
X758120Y189732D01*
X757475Y190163D01*
X756714Y190314D01*
D02*
G37*
G36*
X894564Y189081D02*
X893803Y188929D01*
X893158Y188498D01*
X892727Y187853D01*
X892576Y187092D01*
X892727Y186331D01*
X893158Y185686D01*
X893803Y185255D01*
X894564Y185104D01*
X895325Y185255D01*
X895970Y185686D01*
X896401Y186331D01*
X896552Y187092D01*
X896401Y187853D01*
X895970Y188498D01*
X895325Y188929D01*
X894564Y189081D01*
D02*
G37*
G36*
X910682Y188322D02*
X909921Y188171D01*
X909276Y187740D01*
X908845Y187094D01*
X908694Y186334D01*
X908845Y185573D01*
X909276Y184928D01*
X909921Y184497D01*
X910682Y184345D01*
X911443Y184497D01*
X912088Y184928D01*
X912519Y185573D01*
X912671Y186334D01*
X912519Y187094D01*
X912088Y187740D01*
X911443Y188171D01*
X910682Y188322D01*
D02*
G37*
G36*
X820731Y187626D02*
X819970Y187474D01*
X819325Y187043D01*
X818894Y186398D01*
X818743Y185637D01*
X818894Y184877D01*
X819325Y184231D01*
X819970Y183800D01*
X820731Y183649D01*
X821492Y183800D01*
X822137Y184231D01*
X822568Y184877D01*
X822719Y185637D01*
X822568Y186398D01*
X822137Y187043D01*
X821492Y187474D01*
X820731Y187626D01*
D02*
G37*
G36*
X725214Y186864D02*
X724453Y186713D01*
X723808Y186282D01*
X723377Y185637D01*
X723226Y184876D01*
X723377Y184115D01*
X723808Y183470D01*
X724453Y183039D01*
X725214Y182888D01*
X725975Y183039D01*
X726620Y183470D01*
X727051Y184115D01*
X727202Y184876D01*
X727051Y185637D01*
X726620Y186282D01*
X725975Y186713D01*
X725214Y186864D01*
D02*
G37*
G36*
X760000Y185988D02*
X759239Y185837D01*
X758594Y185406D01*
X758163Y184761D01*
X758012Y184000D01*
X758163Y183239D01*
X758594Y182594D01*
X759239Y182164D01*
X760000Y182012D01*
X760761Y182164D01*
X761406Y182594D01*
X761836Y183239D01*
X761988Y184000D01*
X761836Y184761D01*
X761406Y185406D01*
X760761Y185837D01*
X760000Y185988D01*
D02*
G37*
G36*
X750000D02*
X749239Y185837D01*
X748594Y185406D01*
X748164Y184761D01*
X748012Y184000D01*
X748164Y183239D01*
X748594Y182594D01*
X749239Y182164D01*
X750000Y182012D01*
X750761Y182164D01*
X751406Y182594D01*
X751836Y183239D01*
X751988Y184000D01*
X751836Y184761D01*
X751406Y185406D01*
X750761Y185837D01*
X750000Y185988D01*
D02*
G37*
G36*
X764714Y185730D02*
X763953Y185579D01*
X763308Y185148D01*
X762877Y184503D01*
X762726Y183742D01*
X762877Y182981D01*
X763308Y182336D01*
X763953Y181905D01*
X764714Y181754D01*
X765475Y181905D01*
X766120Y182336D01*
X766551Y182981D01*
X766702Y183742D01*
X766551Y184503D01*
X766120Y185148D01*
X765475Y185579D01*
X764714Y185730D01*
D02*
G37*
G36*
X881449Y184071D02*
X880688Y183919D01*
X880043Y183488D01*
X879612Y182843D01*
X879461Y182083D01*
X879612Y181322D01*
X880043Y180677D01*
X880688Y180246D01*
X881449Y180095D01*
X882209Y180246D01*
X882854Y180677D01*
X883285Y181322D01*
X883437Y182083D01*
X883285Y182843D01*
X882854Y183488D01*
X882209Y183919D01*
X881449Y184071D01*
D02*
G37*
G36*
X1000900Y182335D02*
Y179400D01*
X1003835D01*
X1003773Y179877D01*
X1003434Y180694D01*
X1002896Y181396D01*
X1002194Y181934D01*
X1001377Y182273D01*
X1000900Y182335D01*
D02*
G37*
G36*
X990900D02*
Y179400D01*
X993835D01*
X993773Y179877D01*
X993434Y180694D01*
X992896Y181396D01*
X992194Y181934D01*
X991377Y182273D01*
X990900Y182335D01*
D02*
G37*
G36*
X1000100D02*
X999623Y182273D01*
X998806Y181934D01*
X998104Y181396D01*
X997566Y180694D01*
X997227Y179877D01*
X997165Y179400D01*
X1000100D01*
Y182335D01*
D02*
G37*
G36*
X990100D02*
X989623Y182273D01*
X988806Y181934D01*
X988104Y181396D01*
X987566Y180694D01*
X987227Y179877D01*
X987165Y179400D01*
X990100D01*
Y182335D01*
D02*
G37*
G36*
X745814Y183314D02*
X745053Y183163D01*
X744408Y182732D01*
X743977Y182087D01*
X743826Y181326D01*
X743977Y180565D01*
X744408Y179920D01*
X745053Y179489D01*
X745814Y179338D01*
X746575Y179489D01*
X747220Y179920D01*
X747651Y180565D01*
X747802Y181326D01*
X747651Y182087D01*
X747220Y182732D01*
X746575Y183163D01*
X745814Y183314D01*
D02*
G37*
G36*
X858028Y189711D02*
X857267Y189559D01*
X856623Y189128D01*
X856192Y188483D01*
X856040Y187723D01*
X855510Y187311D01*
X855071Y187224D01*
X854426Y186793D01*
X853995Y186148D01*
X853844Y185387D01*
X853995Y184626D01*
X854426Y183981D01*
X855071Y183550D01*
X855832Y183399D01*
X855852Y182837D01*
X855207Y182406D01*
X854776Y181761D01*
X854624Y181000D01*
X854776Y180239D01*
X855207Y179594D01*
X855852Y179163D01*
X856613Y179012D01*
X857374Y179163D01*
X858018Y179594D01*
X858449Y180239D01*
X858601Y181000D01*
X858449Y181761D01*
X858018Y182406D01*
X857374Y182837D01*
X856613Y182988D01*
X856593Y183550D01*
X857238Y183981D01*
X857669Y184626D01*
X857820Y185387D01*
X858350Y185798D01*
X858789Y185886D01*
X859434Y186317D01*
X859865Y186962D01*
X860017Y187723D01*
X859865Y188483D01*
X859434Y189128D01*
X858789Y189559D01*
X858028Y189711D01*
D02*
G37*
G36*
X833815Y179477D02*
X833054Y179326D01*
X832409Y178895D01*
X831978Y178250D01*
X831827Y177489D01*
X831959Y176823D01*
X831738Y176585D01*
X831473Y176426D01*
X831143Y176647D01*
X830382Y176798D01*
X829622Y176647D01*
X828977Y176216D01*
X828546Y175571D01*
X828394Y174810D01*
X828546Y174049D01*
X828977Y173405D01*
X829622Y172974D01*
X830382Y172822D01*
X831143Y172974D01*
X831788Y173405D01*
X832219Y174049D01*
X832370Y174810D01*
X832238Y175476D01*
X832459Y175714D01*
X832724Y175873D01*
X833054Y175652D01*
X833815Y175501D01*
X834576Y175652D01*
X835221Y176083D01*
X835652Y176728D01*
X835803Y177489D01*
X835652Y178250D01*
X835221Y178895D01*
X834576Y179326D01*
X833815Y179477D01*
D02*
G37*
G36*
X1003835Y178600D02*
X1000900D01*
Y175665D01*
X1001377Y175727D01*
X1002194Y176066D01*
X1002896Y176604D01*
X1003434Y177306D01*
X1003773Y178123D01*
X1003835Y178600D01*
D02*
G37*
G36*
X993835D02*
X990900D01*
Y175665D01*
X991377Y175727D01*
X992194Y176066D01*
X992896Y176604D01*
X993434Y177306D01*
X993773Y178123D01*
X993835Y178600D01*
D02*
G37*
G36*
X1000100D02*
X997165D01*
X997227Y178123D01*
X997566Y177306D01*
X998104Y176604D01*
X998806Y176066D01*
X999623Y175727D01*
X1000100Y175665D01*
Y178600D01*
D02*
G37*
G36*
X990100D02*
X987165D01*
X987227Y178123D01*
X987566Y177306D01*
X988104Y176604D01*
X988806Y176066D01*
X989623Y175727D01*
X990100Y175665D01*
Y178600D01*
D02*
G37*
G36*
X694500Y179488D02*
X693739Y179337D01*
X693094Y178906D01*
X692663Y178261D01*
X692512Y177500D01*
X692663Y176739D01*
X693094Y176094D01*
X693739Y175663D01*
X694500Y175512D01*
X695261Y175663D01*
X695906Y176094D01*
X696337Y176739D01*
X696488Y177500D01*
X696337Y178261D01*
X695906Y178906D01*
X695261Y179337D01*
X694500Y179488D01*
D02*
G37*
G36*
X873405Y184146D02*
X872644Y183995D01*
X871999Y183564D01*
X871568Y182919D01*
X871417Y182158D01*
X871568Y181397D01*
X871999Y180752D01*
X872644Y180321D01*
X873155Y180220D01*
X873012Y179500D01*
X873163Y178739D01*
X873579Y178117D01*
X873660Y177960D01*
Y177540D01*
X873579Y177383D01*
X873163Y176761D01*
X873012Y176000D01*
X873163Y175239D01*
X873594Y174594D01*
X874239Y174163D01*
X875000Y174012D01*
X875761Y174163D01*
X876406Y174594D01*
X876837Y175239D01*
X876988Y176000D01*
X876837Y176761D01*
X876421Y177383D01*
X876340Y177540D01*
Y177960D01*
X876421Y178117D01*
X876837Y178739D01*
X876988Y179500D01*
X876837Y180261D01*
X876406Y180906D01*
X875761Y181337D01*
X875250Y181438D01*
X875393Y182158D01*
X875242Y182919D01*
X874811Y183564D01*
X874166Y183995D01*
X873405Y184146D01*
D02*
G37*
G36*
X913500Y174988D02*
X912739Y174837D01*
X912094Y174406D01*
X911664Y173761D01*
X911512Y173000D01*
X911664Y172239D01*
X912094Y171594D01*
X912739Y171163D01*
X913500Y171012D01*
X914261Y171163D01*
X914906Y171594D01*
X915337Y172239D01*
X915488Y173000D01*
X915337Y173761D01*
X914906Y174406D01*
X914261Y174837D01*
X913500Y174988D01*
D02*
G37*
G36*
X873866Y170988D02*
X873105Y170837D01*
X872460Y170406D01*
X872029Y169761D01*
X871878Y169000D01*
X872018Y168297D01*
X872015Y168216D01*
X871753Y167772D01*
X871159Y167640D01*
X870701Y168011D01*
X870720Y168105D01*
X870568Y168866D01*
X870137Y169510D01*
X869492Y169941D01*
X868732Y170093D01*
X867971Y169941D01*
X867326Y169510D01*
X866895Y168866D01*
X866744Y168105D01*
X866895Y167344D01*
X867326Y166699D01*
X867971Y166268D01*
X868732Y166117D01*
X869492Y166268D01*
X869507Y166278D01*
X870047Y165918D01*
X870012Y165740D01*
X870163Y164979D01*
X870594Y164334D01*
X871239Y163903D01*
X872000Y163751D01*
X872761Y163903D01*
X873406Y164334D01*
X873837Y164979D01*
X873988Y165740D01*
X873848Y166443D01*
X873851Y166524D01*
X874176Y167073D01*
X874627Y167163D01*
X875272Y167594D01*
X875703Y168239D01*
X875854Y169000D01*
X875703Y169761D01*
X875272Y170406D01*
X874627Y170837D01*
X873866Y170988D01*
D02*
G37*
G36*
X1000500Y172388D02*
X999623Y172273D01*
X998806Y171934D01*
X998104Y171396D01*
X997566Y170694D01*
X997227Y169877D01*
X997112Y169000D01*
X997227Y168123D01*
X997566Y167306D01*
X998104Y166604D01*
X998806Y166066D01*
X999623Y165727D01*
X1000500Y165612D01*
X1001377Y165727D01*
X1002194Y166066D01*
X1002896Y166604D01*
X1003434Y167306D01*
X1003773Y168123D01*
X1003888Y169000D01*
X1003773Y169877D01*
X1003434Y170694D01*
X1002896Y171396D01*
X1002194Y171934D01*
X1001377Y172273D01*
X1000500Y172388D01*
D02*
G37*
G36*
X990500D02*
X989623Y172273D01*
X988806Y171934D01*
X988104Y171396D01*
X987566Y170694D01*
X987227Y169877D01*
X987112Y169000D01*
X987227Y168123D01*
X987566Y167306D01*
X988104Y166604D01*
X988806Y166066D01*
X989623Y165727D01*
X990500Y165612D01*
X991377Y165727D01*
X992194Y166066D01*
X992896Y166604D01*
X993434Y167306D01*
X993773Y168123D01*
X993888Y169000D01*
X993773Y169877D01*
X993434Y170694D01*
X992896Y171396D01*
X992194Y171934D01*
X991377Y172273D01*
X990500Y172388D01*
D02*
G37*
G36*
X756714Y169314D02*
X755953Y169163D01*
X755308Y168732D01*
X754877Y168087D01*
X754726Y167326D01*
X754877Y166565D01*
X755308Y165920D01*
X755953Y165489D01*
X756714Y165338D01*
X757475Y165489D01*
X758120Y165920D01*
X758551Y166565D01*
X758702Y167326D01*
X758551Y168087D01*
X758120Y168732D01*
X757475Y169163D01*
X756714Y169314D01*
D02*
G37*
G36*
X904014Y168288D02*
X903253Y168137D01*
X902608Y167706D01*
X902177Y167061D01*
X902026Y166300D01*
X902177Y165539D01*
X902608Y164894D01*
X903253Y164463D01*
X904014Y164312D01*
X904775Y164463D01*
X905420Y164894D01*
X905851Y165539D01*
X906002Y166300D01*
X905851Y167061D01*
X905420Y167706D01*
X904775Y168137D01*
X904014Y168288D01*
D02*
G37*
G36*
X817167Y181975D02*
X816406Y181824D01*
X815761Y181393D01*
X815330Y180748D01*
X815179Y179987D01*
X815330Y179226D01*
X815761Y178581D01*
X816329Y178201D01*
X816411Y177834D01*
X816415Y177537D01*
X816407Y177532D01*
X815977Y176887D01*
X815825Y176126D01*
X815977Y175365D01*
X816098Y175183D01*
X815880Y174547D01*
X815833Y174500D01*
X815228Y174096D01*
X814797Y173451D01*
X814646Y172690D01*
X814797Y171930D01*
X815228Y171285D01*
X815688Y170978D01*
X815296Y170392D01*
X815145Y169631D01*
X815296Y168870D01*
X815727Y168225D01*
X815734Y168221D01*
Y167499D01*
X815594Y167406D01*
X815163Y166761D01*
X815012Y166000D01*
X815163Y165239D01*
X815594Y164594D01*
X816194Y164193D01*
X816260Y163929D01*
X816296Y163540D01*
X816094Y163406D01*
X815664Y162761D01*
X815512Y162000D01*
X815652Y161296D01*
X815450Y161050D01*
X815203Y160848D01*
X814500Y160988D01*
X813739Y160837D01*
X813094Y160406D01*
X812663Y159761D01*
X812512Y159000D01*
X812663Y158239D01*
X813094Y157594D01*
X813739Y157164D01*
X814500Y157012D01*
X815261Y157164D01*
X815906Y157594D01*
X816337Y158239D01*
X816488Y159000D01*
X816348Y159704D01*
X816550Y159950D01*
X816796Y160152D01*
X817500Y160012D01*
X818261Y160163D01*
X818906Y160594D01*
X819337Y161239D01*
X819469Y161906D01*
X819540Y162035D01*
X820028Y162359D01*
X820509Y162264D01*
X821270Y162415D01*
X821915Y162846D01*
X822346Y163491D01*
X822497Y164252D01*
X822346Y165012D01*
X821915Y165657D01*
X821270Y166088D01*
X820509Y166239D01*
X819748Y166088D01*
X819561Y165963D01*
X819516Y165966D01*
X818935Y166266D01*
X818837Y166761D01*
X818406Y167406D01*
X818399Y167410D01*
Y168132D01*
X818539Y168225D01*
X818970Y168870D01*
X819121Y169631D01*
X818970Y170392D01*
X818539Y171037D01*
X818079Y171344D01*
X818470Y171930D01*
X818622Y172690D01*
X818470Y173451D01*
X818349Y173633D01*
X818574Y174289D01*
X819219Y174720D01*
X819650Y175365D01*
X819802Y176126D01*
X819650Y176887D01*
X819219Y177532D01*
X818651Y177912D01*
X818570Y178279D01*
X818566Y178576D01*
X818573Y178581D01*
X819004Y179226D01*
X819155Y179987D01*
X819004Y180748D01*
X818573Y181393D01*
X817928Y181824D01*
X817167Y181975D01*
D02*
G37*
G36*
X914000Y164988D02*
X913239Y164837D01*
X912594Y164406D01*
X912163Y163761D01*
X912012Y163000D01*
X912163Y162239D01*
X912594Y161594D01*
X913239Y161163D01*
X914000Y161012D01*
X914761Y161163D01*
X915406Y161594D01*
X915837Y162239D01*
X915988Y163000D01*
X915837Y163761D01*
X915406Y164406D01*
X914761Y164837D01*
X914000Y164988D01*
D02*
G37*
G36*
X852500Y163488D02*
X851739Y163337D01*
X851094Y162906D01*
X850663Y162261D01*
X850512Y161500D01*
X850663Y160739D01*
X851094Y160094D01*
X851739Y159663D01*
X852500Y159512D01*
X853261Y159663D01*
X853906Y160094D01*
X854336Y160739D01*
X854488Y161500D01*
X854336Y162261D01*
X853906Y162906D01*
X853261Y163337D01*
X852500Y163488D01*
D02*
G37*
G36*
X1000900Y162335D02*
Y159400D01*
X1003835D01*
X1003773Y159877D01*
X1003434Y160694D01*
X1002896Y161396D01*
X1002194Y161934D01*
X1001377Y162273D01*
X1000900Y162335D01*
D02*
G37*
G36*
X1000100D02*
X999623Y162273D01*
X998806Y161934D01*
X998104Y161396D01*
X997566Y160694D01*
X997227Y159877D01*
X997165Y159400D01*
X1000100D01*
Y162335D01*
D02*
G37*
G36*
X831841Y163119D02*
X831080Y162967D01*
X830435Y162536D01*
X830004Y161891D01*
X829853Y161130D01*
X830004Y160370D01*
X830435Y159724D01*
X831080Y159294D01*
X831841Y159142D01*
X832602Y159294D01*
X833247Y159724D01*
X833678Y160370D01*
X833829Y161130D01*
X833678Y161891D01*
X833247Y162536D01*
X832602Y162967D01*
X831841Y163119D01*
D02*
G37*
G36*
X759886Y161988D02*
X759125Y161837D01*
X758480Y161406D01*
X758049Y160761D01*
X757898Y160000D01*
X758049Y159239D01*
X758480Y158594D01*
X759125Y158163D01*
X759886Y158012D01*
X760646Y158163D01*
X761291Y158594D01*
X761722Y159239D01*
X761874Y160000D01*
X761722Y160761D01*
X761291Y161406D01*
X760646Y161837D01*
X759886Y161988D01*
D02*
G37*
G36*
X749886D02*
X749125Y161837D01*
X748480Y161406D01*
X748049Y160761D01*
X747898Y160000D01*
X748049Y159239D01*
X748480Y158594D01*
X749125Y158163D01*
X749886Y158012D01*
X750646Y158163D01*
X751291Y158594D01*
X751722Y159239D01*
X751874Y160000D01*
X751722Y160761D01*
X751291Y161406D01*
X750646Y161837D01*
X749886Y161988D01*
D02*
G37*
G36*
X858000Y161488D02*
X857239Y161337D01*
X856594Y160906D01*
X856163Y160261D01*
X856012Y159500D01*
X856163Y158739D01*
X856594Y158094D01*
X857239Y157663D01*
X858000Y157512D01*
X858761Y157663D01*
X859406Y158094D01*
X859837Y158739D01*
X859988Y159500D01*
X859837Y160261D01*
X859406Y160906D01*
X858761Y161337D01*
X858000Y161488D01*
D02*
G37*
G36*
X903714Y160290D02*
X902953Y160139D01*
X902308Y159708D01*
X901877Y159063D01*
X901726Y158302D01*
X901877Y157541D01*
X902308Y156896D01*
X902953Y156465D01*
X903714Y156314D01*
X904475Y156465D01*
X905120Y156896D01*
X905551Y157541D01*
X905702Y158302D01*
X905551Y159063D01*
X905120Y159708D01*
X904475Y160139D01*
X903714Y160290D01*
D02*
G37*
G36*
X1003835Y158600D02*
X1000900D01*
Y155665D01*
X1001377Y155727D01*
X1002194Y156066D01*
X1002896Y156604D01*
X1003434Y157306D01*
X1003773Y158123D01*
X1003835Y158600D01*
D02*
G37*
G36*
X1000100D02*
X997165D01*
X997227Y158123D01*
X997566Y157306D01*
X998104Y156604D01*
X998806Y156066D01*
X999623Y155727D01*
X1000100Y155665D01*
Y158600D01*
D02*
G37*
G36*
X990500Y162388D02*
X989623Y162273D01*
X988806Y161934D01*
X988104Y161396D01*
X987566Y160694D01*
X987227Y159877D01*
X987112Y159000D01*
X987227Y158123D01*
X987566Y157306D01*
X988104Y156604D01*
X988806Y156066D01*
X989623Y155727D01*
X990500Y155612D01*
X991377Y155727D01*
X992194Y156066D01*
X992896Y156604D01*
X993434Y157306D01*
X993773Y158123D01*
X993888Y159000D01*
X993773Y159877D01*
X993434Y160694D01*
X992896Y161396D01*
X992194Y161934D01*
X991377Y162273D01*
X990500Y162388D01*
D02*
G37*
G36*
X873000Y159288D02*
X872239Y159137D01*
X871594Y158706D01*
X871163Y158061D01*
X871012Y157300D01*
X871163Y156539D01*
X871594Y155894D01*
X872239Y155463D01*
X873000Y155312D01*
X873761Y155463D01*
X874406Y155894D01*
X874837Y156539D01*
X874988Y157300D01*
X874837Y158061D01*
X874406Y158706D01*
X873761Y159137D01*
X873000Y159288D01*
D02*
G37*
G36*
X835159Y154763D02*
X834398Y154611D01*
X833753Y154180D01*
X833322Y153535D01*
X833171Y152775D01*
X833322Y152014D01*
X833753Y151369D01*
X834398Y150938D01*
X835159Y150787D01*
X835919Y150938D01*
X836564Y151369D01*
X836995Y152014D01*
X837146Y152775D01*
X836995Y153535D01*
X836564Y154180D01*
X835919Y154611D01*
X835159Y154763D01*
D02*
G37*
G36*
X810500Y151988D02*
X809739Y151837D01*
X809094Y151406D01*
X808663Y150761D01*
X808512Y150000D01*
X808663Y149239D01*
X809094Y148594D01*
X809739Y148163D01*
X810500Y148012D01*
X811261Y148163D01*
X811906Y148594D01*
X812337Y149239D01*
X812488Y150000D01*
X812337Y150761D01*
X811906Y151406D01*
X811261Y151837D01*
X810500Y151988D01*
D02*
G37*
G36*
X1000500Y152388D02*
X999623Y152273D01*
X998806Y151934D01*
X998104Y151396D01*
X997566Y150694D01*
X997227Y149877D01*
X997112Y149000D01*
X997227Y148123D01*
X997566Y147306D01*
X998104Y146604D01*
X998806Y146066D01*
X999623Y145727D01*
X1000500Y145612D01*
X1001377Y145727D01*
X1002194Y146066D01*
X1002896Y146604D01*
X1003434Y147306D01*
X1003773Y148123D01*
X1003888Y149000D01*
X1003773Y149877D01*
X1003434Y150694D01*
X1002896Y151396D01*
X1002194Y151934D01*
X1001377Y152273D01*
X1000500Y152388D01*
D02*
G37*
G36*
X990500D02*
X989623Y152273D01*
X988806Y151934D01*
X988104Y151396D01*
X987566Y150694D01*
X987227Y149877D01*
X987112Y149000D01*
X987227Y148123D01*
X987566Y147306D01*
X988104Y146604D01*
X988806Y146066D01*
X989623Y145727D01*
X990500Y145612D01*
X991377Y145727D01*
X992194Y146066D01*
X992896Y146604D01*
X993434Y147306D01*
X993773Y148123D01*
X993888Y149000D01*
X993773Y149877D01*
X993434Y150694D01*
X992896Y151396D01*
X992194Y151934D01*
X991377Y152273D01*
X990500Y152388D01*
D02*
G37*
G36*
X844500Y146988D02*
X843739Y146836D01*
X843094Y146406D01*
X842663Y145761D01*
X842512Y145000D01*
X842663Y144239D01*
X843094Y143594D01*
X843739Y143164D01*
X844500Y143012D01*
X845261Y143164D01*
X845906Y143594D01*
X846336Y144239D01*
X846488Y145000D01*
X846336Y145761D01*
X845906Y146406D01*
X845261Y146836D01*
X844500Y146988D01*
D02*
G37*
G36*
X702022Y143888D02*
X701262Y143737D01*
X700617Y143306D01*
X700186Y142661D01*
X700035Y141900D01*
X700186Y141139D01*
X700617Y140495D01*
X701262Y140064D01*
X702022Y139912D01*
X702783Y140064D01*
X703428Y140495D01*
X703859Y141139D01*
X704010Y141900D01*
X703859Y142661D01*
X703428Y143306D01*
X702783Y143737D01*
X702022Y143888D01*
D02*
G37*
G36*
X850000Y143488D02*
X849239Y143336D01*
X848594Y142906D01*
X848164Y142261D01*
X848012Y141500D01*
X848164Y140739D01*
X848594Y140094D01*
X849239Y139664D01*
X850000Y139512D01*
X850761Y139664D01*
X851406Y140094D01*
X851836Y140739D01*
X851988Y141500D01*
X851836Y142261D01*
X851406Y142906D01*
X850761Y143336D01*
X850000Y143488D01*
D02*
G37*
G36*
X1000500Y142388D02*
X999623Y142273D01*
X998806Y141934D01*
X998104Y141396D01*
X997566Y140694D01*
X997227Y139877D01*
X997112Y139000D01*
X997227Y138123D01*
X997566Y137306D01*
X998104Y136604D01*
X998806Y136066D01*
X999623Y135727D01*
X1000500Y135612D01*
X1001377Y135727D01*
X1002194Y136066D01*
X1002896Y136604D01*
X1003434Y137306D01*
X1003773Y138123D01*
X1003888Y139000D01*
X1003773Y139877D01*
X1003434Y140694D01*
X1002896Y141396D01*
X1002194Y141934D01*
X1001377Y142273D01*
X1000500Y142388D01*
D02*
G37*
G36*
X990500D02*
X989623Y142273D01*
X988806Y141934D01*
X988104Y141396D01*
X987566Y140694D01*
X987227Y139877D01*
X987112Y139000D01*
X987227Y138123D01*
X987566Y137306D01*
X988104Y136604D01*
X988806Y136066D01*
X989623Y135727D01*
X990500Y135612D01*
X991377Y135727D01*
X992194Y136066D01*
X992896Y136604D01*
X993434Y137306D01*
X993773Y138123D01*
X993888Y139000D01*
X993773Y139877D01*
X993434Y140694D01*
X992896Y141396D01*
X992194Y141934D01*
X991377Y142273D01*
X990500Y142388D01*
D02*
G37*
G36*
X802000Y132988D02*
X801239Y132836D01*
X800594Y132406D01*
X800163Y131761D01*
X800012Y131000D01*
X800163Y130239D01*
X800594Y129594D01*
X801239Y129164D01*
X802000Y129012D01*
X802761Y129164D01*
X803406Y129594D01*
X803837Y130239D01*
X803988Y131000D01*
X803837Y131761D01*
X803406Y132406D01*
X802761Y132836D01*
X802000Y132988D01*
D02*
G37*
G36*
X796000Y131988D02*
X795239Y131836D01*
X794594Y131406D01*
X794164Y130761D01*
X794012Y130000D01*
X794164Y129239D01*
X794594Y128594D01*
X795239Y128164D01*
X796000Y128012D01*
X796761Y128164D01*
X797406Y128594D01*
X797836Y129239D01*
X797988Y130000D01*
X797836Y130761D01*
X797406Y131406D01*
X796761Y131836D01*
X796000Y131988D01*
D02*
G37*
G36*
X834500Y128988D02*
X833739Y128837D01*
X833094Y128406D01*
X832664Y127761D01*
X832512Y127000D01*
X832664Y126239D01*
X833094Y125594D01*
X833739Y125163D01*
X834500Y125012D01*
X835261Y125163D01*
X835906Y125594D01*
X836337Y126239D01*
X836488Y127000D01*
X836337Y127761D01*
X835906Y128406D01*
X835261Y128837D01*
X834500Y128988D01*
D02*
G37*
G36*
X797000Y124228D02*
X796239Y124077D01*
X795594Y123646D01*
X795163Y123001D01*
X795012Y122240D01*
X795163Y121479D01*
X795594Y120835D01*
X796239Y120404D01*
X797000Y120252D01*
X797761Y120404D01*
X798406Y120835D01*
X798837Y121479D01*
X798988Y122240D01*
X798837Y123001D01*
X798406Y123646D01*
X797761Y124077D01*
X797000Y124228D01*
D02*
G37*
G36*
X799000Y115988D02*
X798239Y115837D01*
X797594Y115406D01*
X797163Y114761D01*
X797012Y114000D01*
X797163Y113239D01*
X797594Y112594D01*
X798239Y112163D01*
X799000Y112012D01*
X799761Y112163D01*
X800406Y112594D01*
X800836Y113239D01*
X800988Y114000D01*
X800836Y114761D01*
X800406Y115406D01*
X799761Y115837D01*
X799000Y115988D01*
D02*
G37*
G36*
X772500Y115488D02*
X771739Y115337D01*
X771094Y114906D01*
X770663Y114261D01*
X770512Y113500D01*
X770663Y112739D01*
X771094Y112094D01*
X771739Y111663D01*
X772500Y111512D01*
X773261Y111663D01*
X773906Y112094D01*
X774336Y112739D01*
X774488Y113500D01*
X774336Y114261D01*
X773906Y114906D01*
X773261Y115337D01*
X772500Y115488D01*
D02*
G37*
G36*
X762500D02*
X761739Y115337D01*
X761094Y114906D01*
X760664Y114261D01*
X760512Y113500D01*
X760664Y112739D01*
X761094Y112094D01*
X761739Y111663D01*
X762500Y111512D01*
X763261Y111663D01*
X763906Y112094D01*
X764336Y112739D01*
X764488Y113500D01*
X764336Y114261D01*
X763906Y114906D01*
X763261Y115337D01*
X762500Y115488D01*
D02*
G37*
G36*
X805000Y113988D02*
X804239Y113837D01*
X803594Y113406D01*
X803164Y112761D01*
X803012Y112000D01*
X803164Y111239D01*
X803594Y110594D01*
X804239Y110163D01*
X805000Y110012D01*
X805761Y110163D01*
X806406Y110594D01*
X806837Y111239D01*
X806988Y112000D01*
X806837Y112761D01*
X806406Y113406D01*
X805761Y113837D01*
X805000Y113988D01*
D02*
G37*
G36*
X791500D02*
X790739Y113837D01*
X790094Y113406D01*
X789664Y112761D01*
X789512Y112000D01*
X789664Y111239D01*
X790094Y110594D01*
X790739Y110163D01*
X791500Y110012D01*
X792261Y110163D01*
X792906Y110594D01*
X793336Y111239D01*
X793488Y112000D01*
X793336Y112761D01*
X792906Y113406D01*
X792261Y113837D01*
X791500Y113988D01*
D02*
G37*
G36*
X702500Y113488D02*
X701739Y113337D01*
X701094Y112906D01*
X700664Y112261D01*
X700512Y111500D01*
X700664Y110739D01*
X701094Y110094D01*
X701739Y109663D01*
X702500Y109512D01*
X703261Y109663D01*
X703906Y110094D01*
X704337Y110739D01*
X704488Y111500D01*
X704337Y112261D01*
X703906Y112906D01*
X703261Y113337D01*
X702500Y113488D01*
D02*
G37*
G36*
X780000Y111988D02*
X779239Y111837D01*
X778594Y111406D01*
X778163Y110761D01*
X778012Y110000D01*
X778163Y109239D01*
X778594Y108594D01*
X779239Y108163D01*
X780000Y108012D01*
X780761Y108163D01*
X781406Y108594D01*
X781837Y109239D01*
X781988Y110000D01*
X781837Y110761D01*
X781406Y111406D01*
X780761Y111837D01*
X780000Y111988D01*
D02*
G37*
G36*
X985500Y110988D02*
X984739Y110837D01*
X984094Y110406D01*
X983663Y109761D01*
X983512Y109000D01*
X983663Y108239D01*
X984094Y107594D01*
X984739Y107164D01*
X985500Y107012D01*
X986261Y107164D01*
X986906Y107594D01*
X987337Y108239D01*
X987488Y109000D01*
X987337Y109761D01*
X986906Y110406D01*
X986261Y110837D01*
X985500Y110988D01*
D02*
G37*
G36*
X805500Y107488D02*
X804739Y107336D01*
X804094Y106906D01*
X803664Y106261D01*
X803512Y105500D01*
X803664Y104739D01*
X804094Y104094D01*
X804739Y103664D01*
X805500Y103512D01*
X806261Y103664D01*
X806906Y104094D01*
X807337Y104739D01*
X807488Y105500D01*
X807337Y106261D01*
X806906Y106906D01*
X806261Y107336D01*
X805500Y107488D01*
D02*
G37*
G36*
X699000Y104988D02*
X698239Y104836D01*
X697594Y104406D01*
X697163Y103761D01*
X697012Y103000D01*
X697163Y102239D01*
X697594Y101594D01*
X698239Y101163D01*
X699000Y101012D01*
X699761Y101163D01*
X700406Y101594D01*
X700837Y102239D01*
X700988Y103000D01*
X700837Y103761D01*
X700406Y104406D01*
X699761Y104836D01*
X699000Y104988D01*
D02*
G37*
G36*
X749886Y102206D02*
X749125Y102055D01*
X748480Y101624D01*
X748049Y100979D01*
X747898Y100218D01*
X748049Y99458D01*
X748480Y98813D01*
X749125Y98382D01*
X749886Y98231D01*
X750646Y98382D01*
X751291Y98813D01*
X751722Y99458D01*
X751874Y100218D01*
X751722Y100979D01*
X751291Y101624D01*
X750646Y102055D01*
X749886Y102206D01*
D02*
G37*
G36*
X758746Y102111D02*
X757985Y101960D01*
X757340Y101529D01*
X756910Y100884D01*
X756758Y100123D01*
X756910Y99362D01*
X757340Y98718D01*
X757985Y98287D01*
X758746Y98135D01*
X759507Y98287D01*
X760152Y98718D01*
X760582Y99362D01*
X760734Y100123D01*
X760582Y100884D01*
X760152Y101529D01*
X759507Y101960D01*
X758746Y102111D01*
D02*
G37*
G36*
X809000Y101988D02*
X808239Y101837D01*
X807594Y101406D01*
X807164Y100761D01*
X807012Y100000D01*
X807164Y99239D01*
X807594Y98594D01*
X808239Y98163D01*
X809000Y98012D01*
X809761Y98163D01*
X810406Y98594D01*
X810837Y99239D01*
X810988Y100000D01*
X810837Y100761D01*
X810406Y101406D01*
X809761Y101837D01*
X809000Y101988D01*
D02*
G37*
G36*
X791000Y100988D02*
X790239Y100837D01*
X789594Y100406D01*
X789163Y99761D01*
X789012Y99000D01*
X789163Y98239D01*
X789594Y97594D01*
X790239Y97163D01*
X791000Y97012D01*
X791761Y97163D01*
X792406Y97594D01*
X792837Y98239D01*
X792988Y99000D01*
X792837Y99761D01*
X792406Y100406D01*
X791761Y100837D01*
X791000Y100988D01*
D02*
G37*
G36*
X773500D02*
X772739Y100837D01*
X772094Y100406D01*
X771664Y99761D01*
X771512Y99000D01*
X771664Y98239D01*
X772094Y97594D01*
X772739Y97163D01*
X773500Y97012D01*
X774261Y97163D01*
X774906Y97594D01*
X775337Y98239D01*
X775488Y99000D01*
X775337Y99761D01*
X774906Y100406D01*
X774261Y100837D01*
X773500Y100988D01*
D02*
G37*
G36*
X780500Y97988D02*
X779739Y97837D01*
X779094Y97406D01*
X778663Y96761D01*
X778512Y96000D01*
X778663Y95239D01*
X779094Y94594D01*
X779739Y94164D01*
X780500Y94012D01*
X781261Y94164D01*
X781906Y94594D01*
X782337Y95239D01*
X782488Y96000D01*
X782337Y96761D01*
X781906Y97406D01*
X781261Y97837D01*
X780500Y97988D01*
D02*
G37*
G36*
X727000D02*
X726239Y97837D01*
X725594Y97406D01*
X725164Y96761D01*
X725012Y96000D01*
X725164Y95239D01*
X725594Y94594D01*
X726239Y94164D01*
X727000Y94012D01*
X727761Y94164D01*
X728406Y94594D01*
X728836Y95239D01*
X728988Y96000D01*
X728836Y96761D01*
X728406Y97406D01*
X727761Y97837D01*
X727000Y97988D01*
D02*
G37*
G36*
X811000Y93988D02*
X810239Y93836D01*
X809594Y93406D01*
X809163Y92761D01*
X809012Y92000D01*
X809163Y91239D01*
X809594Y90594D01*
X810239Y90163D01*
X811000Y90012D01*
X811761Y90163D01*
X812406Y90594D01*
X812836Y91239D01*
X812988Y92000D01*
X812836Y92761D01*
X812406Y93406D01*
X811761Y93836D01*
X811000Y93988D01*
D02*
G37*
G36*
X776000Y92988D02*
X775239Y92836D01*
X774594Y92406D01*
X774163Y91761D01*
X774012Y91000D01*
X774163Y90239D01*
X774594Y89594D01*
X775239Y89164D01*
X776000Y89012D01*
X776761Y89164D01*
X777406Y89594D01*
X777837Y90239D01*
X777988Y91000D01*
X777837Y91761D01*
X777406Y92406D01*
X776761Y92836D01*
X776000Y92988D01*
D02*
G37*
G36*
X786000Y91988D02*
X785239Y91837D01*
X784594Y91406D01*
X784164Y90761D01*
X784012Y90000D01*
X784164Y89239D01*
X784594Y88594D01*
X785239Y88164D01*
X786000Y88012D01*
X786761Y88164D01*
X787406Y88594D01*
X787837Y89239D01*
X787988Y90000D01*
X787837Y90761D01*
X787406Y91406D01*
X786761Y91837D01*
X786000Y91988D01*
D02*
G37*
G36*
X984500Y90988D02*
X983739Y90837D01*
X983094Y90406D01*
X982664Y89761D01*
X982512Y89000D01*
X982664Y88239D01*
X983094Y87594D01*
X983739Y87164D01*
X984500Y87012D01*
X985261Y87164D01*
X985906Y87594D01*
X986337Y88239D01*
X986488Y89000D01*
X986337Y89761D01*
X985906Y90406D01*
X985261Y90837D01*
X984500Y90988D01*
D02*
G37*
G36*
X700000Y90488D02*
X699239Y90337D01*
X698594Y89906D01*
X698164Y89261D01*
X698012Y88500D01*
X698164Y87739D01*
X698594Y87094D01*
X699239Y86664D01*
X700000Y86512D01*
X700761Y86664D01*
X701406Y87094D01*
X701836Y87739D01*
X701988Y88500D01*
X701836Y89261D01*
X701406Y89906D01*
X700761Y90337D01*
X700000Y90488D01*
D02*
G37*
G36*
X770900Y89988D02*
X770139Y89837D01*
X769494Y89406D01*
X769064Y88761D01*
X768912Y88000D01*
X769064Y87239D01*
X769494Y86594D01*
X770139Y86164D01*
X770900Y86012D01*
X771661Y86164D01*
X772306Y86594D01*
X772737Y87239D01*
X772888Y88000D01*
X772737Y88761D01*
X772306Y89406D01*
X771661Y89837D01*
X770900Y89988D01*
D02*
G37*
G36*
X791000Y89488D02*
X790239Y89337D01*
X789594Y88906D01*
X789163Y88261D01*
X789012Y87500D01*
X789163Y86739D01*
X789594Y86094D01*
X790239Y85663D01*
X791000Y85512D01*
X791761Y85663D01*
X792406Y86094D01*
X792837Y86739D01*
X792988Y87500D01*
X792837Y88261D01*
X792406Y88906D01*
X791761Y89337D01*
X791000Y89488D01*
D02*
G37*
G36*
X729500D02*
X728739Y89337D01*
X728094Y88906D01*
X727664Y88261D01*
X727512Y87500D01*
X727664Y86739D01*
X728094Y86094D01*
X728739Y85663D01*
X729500Y85512D01*
X730261Y85663D01*
X730906Y86094D01*
X731336Y86739D01*
X731488Y87500D01*
X731336Y88261D01*
X730906Y88906D01*
X730261Y89337D01*
X729500Y89488D01*
D02*
G37*
G36*
X838099Y84488D02*
X837339Y84337D01*
X836993Y84106D01*
X836550Y83955D01*
X836106Y84106D01*
X835761Y84337D01*
X835000Y84488D01*
X834239Y84337D01*
X833594Y83906D01*
X833164Y83261D01*
X833012Y82500D01*
X833164Y81739D01*
X833594Y81094D01*
X834239Y80664D01*
X835000Y80512D01*
X835761Y80664D01*
X836106Y80894D01*
X836550Y81045D01*
X836993Y80894D01*
X837339Y80664D01*
X838099Y80512D01*
X838860Y80664D01*
X839505Y81094D01*
X839936Y81739D01*
X840087Y82500D01*
X839936Y83261D01*
X839505Y83906D01*
X838860Y84337D01*
X838099Y84488D01*
D02*
G37*
G36*
X723500Y84988D02*
X722739Y84837D01*
X722094Y84406D01*
X721664Y83761D01*
X721512Y83000D01*
X721664Y82239D01*
X722094Y81594D01*
X722739Y81164D01*
X723500Y81012D01*
X724261Y81164D01*
X724906Y81594D01*
X725337Y82239D01*
X725488Y83000D01*
X725337Y83761D01*
X724906Y84406D01*
X724261Y84837D01*
X723500Y84988D01*
D02*
G37*
G36*
X702500Y82488D02*
X701739Y82336D01*
X701094Y81906D01*
X700664Y81261D01*
X700512Y80500D01*
X700664Y79739D01*
X701094Y79094D01*
X701739Y78663D01*
X702500Y78512D01*
X703261Y78663D01*
X703906Y79094D01*
X704337Y79739D01*
X704488Y80500D01*
X704337Y81261D01*
X703906Y81906D01*
X703261Y82336D01*
X702500Y82488D01*
D02*
G37*
G36*
X758746Y81298D02*
X757985Y81147D01*
X757340Y80716D01*
X756910Y80071D01*
X756758Y79310D01*
X756910Y78550D01*
X757340Y77905D01*
X757985Y77474D01*
X758746Y77323D01*
X759507Y77474D01*
X760152Y77905D01*
X760582Y78550D01*
X760734Y79310D01*
X760582Y80071D01*
X760152Y80716D01*
X759507Y81147D01*
X758746Y81298D01*
D02*
G37*
G36*
X749886D02*
X749125Y81147D01*
X748480Y80716D01*
X748049Y80071D01*
X747898Y79310D01*
X748049Y78550D01*
X748480Y77905D01*
X749125Y77474D01*
X749886Y77323D01*
X750646Y77474D01*
X751291Y77905D01*
X751722Y78550D01*
X751874Y79310D01*
X751722Y80071D01*
X751291Y80716D01*
X750646Y81147D01*
X749886Y81298D01*
D02*
G37*
G36*
X780500Y75488D02*
X779739Y75336D01*
X779094Y74906D01*
X778663Y74261D01*
X778512Y73500D01*
X778663Y72739D01*
X779094Y72094D01*
X779739Y71663D01*
X780500Y71512D01*
X781261Y71663D01*
X781906Y72094D01*
X782337Y72739D01*
X782488Y73500D01*
X782337Y74261D01*
X781906Y74906D01*
X781261Y75336D01*
X780500Y75488D01*
D02*
G37*
G36*
X730492Y69132D02*
X729732Y68981D01*
X729087Y68550D01*
X728656Y67905D01*
X728504Y67144D01*
X728656Y66384D01*
X729087Y65739D01*
X729732Y65308D01*
X730492Y65157D01*
X731253Y65308D01*
X731898Y65739D01*
X732329Y66384D01*
X732480Y67144D01*
X732329Y67905D01*
X731898Y68550D01*
X731253Y68981D01*
X730492Y69132D01*
D02*
G37*
G36*
X820286Y55022D02*
Y51947D01*
X823360D01*
X823293Y52460D01*
X822940Y53311D01*
X822380Y54041D01*
X821649Y54602D01*
X820799Y54954D01*
X820286Y55022D01*
D02*
G37*
G36*
X810286D02*
Y51947D01*
X813360D01*
X813293Y52460D01*
X812940Y53311D01*
X812380Y54041D01*
X811649Y54602D01*
X810799Y54954D01*
X810286Y55022D01*
D02*
G37*
G36*
X819486D02*
X818973Y54954D01*
X818122Y54602D01*
X817392Y54041D01*
X816831Y53311D01*
X816479Y52460D01*
X816411Y51947D01*
X819486D01*
Y55022D01*
D02*
G37*
G36*
X809486D02*
X808973Y54954D01*
X808122Y54602D01*
X807392Y54041D01*
X806831Y53311D01*
X806479Y52460D01*
X806411Y51947D01*
X809486D01*
Y55022D01*
D02*
G37*
G36*
X823360Y51147D02*
X820286D01*
Y48073D01*
X820799Y48140D01*
X821649Y48493D01*
X822380Y49053D01*
X822940Y49784D01*
X823293Y50634D01*
X823360Y51147D01*
D02*
G37*
G36*
X813360D02*
X810286D01*
Y48073D01*
X810799Y48140D01*
X811649Y48493D01*
X812380Y49053D01*
X812940Y49784D01*
X813293Y50634D01*
X813360Y51147D01*
D02*
G37*
G36*
X819486D02*
X816411D01*
X816479Y50634D01*
X816831Y49784D01*
X817392Y49053D01*
X818122Y48493D01*
X818973Y48140D01*
X819486Y48073D01*
Y51147D01*
D02*
G37*
G36*
X809486D02*
X806411D01*
X806479Y50634D01*
X806831Y49784D01*
X807392Y49053D01*
X808122Y48493D01*
X808973Y48140D01*
X809486Y48073D01*
Y51147D01*
D02*
G37*
G36*
X963383Y55044D02*
X956389D01*
Y48050D01*
X963383D01*
Y55044D01*
D02*
G37*
G36*
X949886Y55074D02*
X948973Y54954D01*
X948122Y54602D01*
X947392Y54041D01*
X946831Y53311D01*
X946479Y52460D01*
X946359Y51547D01*
X946479Y50634D01*
X946831Y49784D01*
X947392Y49053D01*
X948122Y48493D01*
X948973Y48140D01*
X949886Y48020D01*
X950799Y48140D01*
X951649Y48493D01*
X952380Y49053D01*
X952940Y49784D01*
X953293Y50634D01*
X953413Y51547D01*
X953293Y52460D01*
X952940Y53311D01*
X952380Y54041D01*
X951649Y54602D01*
X950799Y54954D01*
X949886Y55074D01*
D02*
G37*
G36*
X939886D02*
X938973Y54954D01*
X938122Y54602D01*
X937392Y54041D01*
X936831Y53311D01*
X936479Y52460D01*
X936359Y51547D01*
X936479Y50634D01*
X936831Y49784D01*
X937392Y49053D01*
X938122Y48493D01*
X938973Y48140D01*
X939886Y48020D01*
X940799Y48140D01*
X941649Y48493D01*
X942380Y49053D01*
X942940Y49784D01*
X943293Y50634D01*
X943413Y51547D01*
X943293Y52460D01*
X942940Y53311D01*
X942380Y54041D01*
X941649Y54602D01*
X940799Y54954D01*
X939886Y55074D01*
D02*
G37*
G36*
X929886D02*
X928973Y54954D01*
X928122Y54602D01*
X927392Y54041D01*
X926831Y53311D01*
X926479Y52460D01*
X926359Y51547D01*
X926479Y50634D01*
X926831Y49784D01*
X927392Y49053D01*
X928122Y48493D01*
X928973Y48140D01*
X929886Y48020D01*
X930799Y48140D01*
X931649Y48493D01*
X932380Y49053D01*
X932940Y49784D01*
X933293Y50634D01*
X933413Y51547D01*
X933293Y52460D01*
X932940Y53311D01*
X932380Y54041D01*
X931649Y54602D01*
X930799Y54954D01*
X929886Y55074D01*
D02*
G37*
G36*
X919886D02*
X918973Y54954D01*
X918122Y54602D01*
X917392Y54041D01*
X916831Y53311D01*
X916479Y52460D01*
X916359Y51547D01*
X916479Y50634D01*
X916831Y49784D01*
X917392Y49053D01*
X918122Y48493D01*
X918973Y48140D01*
X919886Y48020D01*
X920799Y48140D01*
X921649Y48493D01*
X922380Y49053D01*
X922940Y49784D01*
X923293Y50634D01*
X923413Y51547D01*
X923293Y52460D01*
X922940Y53311D01*
X922380Y54041D01*
X921649Y54602D01*
X920799Y54954D01*
X919886Y55074D01*
D02*
G37*
G36*
X909886D02*
X908973Y54954D01*
X908122Y54602D01*
X907392Y54041D01*
X906831Y53311D01*
X906479Y52460D01*
X906359Y51547D01*
X906479Y50634D01*
X906831Y49784D01*
X907392Y49053D01*
X908122Y48493D01*
X908973Y48140D01*
X909886Y48020D01*
X910799Y48140D01*
X911649Y48493D01*
X912380Y49053D01*
X912940Y49784D01*
X913293Y50634D01*
X913413Y51547D01*
X913293Y52460D01*
X912940Y53311D01*
X912380Y54041D01*
X911649Y54602D01*
X910799Y54954D01*
X909886Y55074D01*
D02*
G37*
G36*
X899886D02*
X898973Y54954D01*
X898122Y54602D01*
X897392Y54041D01*
X896831Y53311D01*
X896479Y52460D01*
X896359Y51547D01*
X896479Y50634D01*
X896831Y49784D01*
X897392Y49053D01*
X898122Y48493D01*
X898973Y48140D01*
X899886Y48020D01*
X900799Y48140D01*
X901649Y48493D01*
X902380Y49053D01*
X902940Y49784D01*
X903293Y50634D01*
X903413Y51547D01*
X903293Y52460D01*
X902940Y53311D01*
X902380Y54041D01*
X901649Y54602D01*
X900799Y54954D01*
X899886Y55074D01*
D02*
G37*
G36*
X889886D02*
X888973Y54954D01*
X888122Y54602D01*
X887392Y54041D01*
X886831Y53311D01*
X886479Y52460D01*
X886359Y51547D01*
X886479Y50634D01*
X886831Y49784D01*
X887392Y49053D01*
X888122Y48493D01*
X888973Y48140D01*
X889886Y48020D01*
X890799Y48140D01*
X891649Y48493D01*
X892380Y49053D01*
X892940Y49784D01*
X893293Y50634D01*
X893413Y51547D01*
X893293Y52460D01*
X892940Y53311D01*
X892380Y54041D01*
X891649Y54602D01*
X890799Y54954D01*
X889886Y55074D01*
D02*
G37*
G36*
X879886D02*
X878973Y54954D01*
X878122Y54602D01*
X877392Y54041D01*
X876831Y53311D01*
X876479Y52460D01*
X876359Y51547D01*
X876479Y50634D01*
X876831Y49784D01*
X877392Y49053D01*
X878122Y48493D01*
X878973Y48140D01*
X879886Y48020D01*
X880799Y48140D01*
X881649Y48493D01*
X882380Y49053D01*
X882940Y49784D01*
X883293Y50634D01*
X883413Y51547D01*
X883293Y52460D01*
X882940Y53311D01*
X882380Y54041D01*
X881649Y54602D01*
X880799Y54954D01*
X879886Y55074D01*
D02*
G37*
G36*
X869886D02*
X868973Y54954D01*
X868122Y54602D01*
X867392Y54041D01*
X866831Y53311D01*
X866479Y52460D01*
X866359Y51547D01*
X866479Y50634D01*
X866831Y49784D01*
X867392Y49053D01*
X868122Y48493D01*
X868973Y48140D01*
X869886Y48020D01*
X870799Y48140D01*
X871649Y48493D01*
X872380Y49053D01*
X872940Y49784D01*
X873293Y50634D01*
X873413Y51547D01*
X873293Y52460D01*
X872940Y53311D01*
X872380Y54041D01*
X871649Y54602D01*
X870799Y54954D01*
X869886Y55074D01*
D02*
G37*
G36*
X859886D02*
X858973Y54954D01*
X858122Y54602D01*
X857392Y54041D01*
X856831Y53311D01*
X856479Y52460D01*
X856359Y51547D01*
X856479Y50634D01*
X856831Y49784D01*
X857392Y49053D01*
X858122Y48493D01*
X858973Y48140D01*
X859886Y48020D01*
X860799Y48140D01*
X861649Y48493D01*
X862380Y49053D01*
X862940Y49784D01*
X863293Y50634D01*
X863413Y51547D01*
X863293Y52460D01*
X862940Y53311D01*
X862380Y54041D01*
X861649Y54602D01*
X860799Y54954D01*
X859886Y55074D01*
D02*
G37*
G36*
X849886D02*
X848973Y54954D01*
X848122Y54602D01*
X847392Y54041D01*
X846831Y53311D01*
X846479Y52460D01*
X846359Y51547D01*
X846479Y50634D01*
X846831Y49784D01*
X847392Y49053D01*
X848122Y48493D01*
X848973Y48140D01*
X849886Y48020D01*
X850799Y48140D01*
X851649Y48493D01*
X852380Y49053D01*
X852940Y49784D01*
X853293Y50634D01*
X853413Y51547D01*
X853293Y52460D01*
X852940Y53311D01*
X852380Y54041D01*
X851649Y54602D01*
X850799Y54954D01*
X849886Y55074D01*
D02*
G37*
G36*
X839886D02*
X838973Y54954D01*
X838122Y54602D01*
X837392Y54041D01*
X836831Y53311D01*
X836479Y52460D01*
X836359Y51547D01*
X836479Y50634D01*
X836831Y49784D01*
X837392Y49053D01*
X838122Y48493D01*
X838973Y48140D01*
X839886Y48020D01*
X840799Y48140D01*
X841649Y48493D01*
X842380Y49053D01*
X842940Y49784D01*
X843293Y50634D01*
X843413Y51547D01*
X843293Y52460D01*
X842940Y53311D01*
X842380Y54041D01*
X841649Y54602D01*
X840799Y54954D01*
X839886Y55074D01*
D02*
G37*
G36*
X829886D02*
X828973Y54954D01*
X828122Y54602D01*
X827392Y54041D01*
X826831Y53311D01*
X826479Y52460D01*
X826359Y51547D01*
X826479Y50634D01*
X826831Y49784D01*
X827392Y49053D01*
X828122Y48493D01*
X828973Y48140D01*
X829886Y48020D01*
X830799Y48140D01*
X831649Y48493D01*
X832380Y49053D01*
X832940Y49784D01*
X833293Y50634D01*
X833413Y51547D01*
X833293Y52460D01*
X832940Y53311D01*
X832380Y54041D01*
X831649Y54602D01*
X830799Y54954D01*
X829886Y55074D01*
D02*
G37*
G36*
X799886D02*
X798973Y54954D01*
X798122Y54602D01*
X797392Y54041D01*
X796831Y53311D01*
X796479Y52460D01*
X796359Y51547D01*
X796479Y50634D01*
X796831Y49784D01*
X797392Y49053D01*
X798122Y48493D01*
X798973Y48140D01*
X799886Y48020D01*
X800799Y48140D01*
X801649Y48493D01*
X802380Y49053D01*
X802940Y49784D01*
X803293Y50634D01*
X803413Y51547D01*
X803293Y52460D01*
X802940Y53311D01*
X802380Y54041D01*
X801649Y54602D01*
X800799Y54954D01*
X799886Y55074D01*
D02*
G37*
G36*
X789886D02*
X788973Y54954D01*
X788122Y54602D01*
X787392Y54041D01*
X786831Y53311D01*
X786479Y52460D01*
X786359Y51547D01*
X786479Y50634D01*
X786831Y49784D01*
X787392Y49053D01*
X788122Y48493D01*
X788973Y48140D01*
X789886Y48020D01*
X790799Y48140D01*
X791649Y48493D01*
X792380Y49053D01*
X792940Y49784D01*
X793293Y50634D01*
X793413Y51547D01*
X793293Y52460D01*
X792940Y53311D01*
X792380Y54041D01*
X791649Y54602D01*
X790799Y54954D01*
X789886Y55074D01*
D02*
G37*
G36*
X779886D02*
X778973Y54954D01*
X778122Y54602D01*
X777392Y54041D01*
X776831Y53311D01*
X776479Y52460D01*
X776359Y51547D01*
X776479Y50634D01*
X776831Y49784D01*
X777392Y49053D01*
X778122Y48493D01*
X778973Y48140D01*
X779886Y48020D01*
X780799Y48140D01*
X781649Y48493D01*
X782380Y49053D01*
X782940Y49784D01*
X783293Y50634D01*
X783413Y51547D01*
X783293Y52460D01*
X782940Y53311D01*
X782380Y54041D01*
X781649Y54602D01*
X780799Y54954D01*
X779886Y55074D01*
D02*
G37*
G36*
X769886D02*
X768973Y54954D01*
X768122Y54602D01*
X767392Y54041D01*
X766831Y53311D01*
X766479Y52460D01*
X766359Y51547D01*
X766479Y50634D01*
X766831Y49784D01*
X767392Y49053D01*
X768122Y48493D01*
X768973Y48140D01*
X769886Y48020D01*
X770799Y48140D01*
X771649Y48493D01*
X772380Y49053D01*
X772940Y49784D01*
X773293Y50634D01*
X773413Y51547D01*
X773293Y52460D01*
X772940Y53311D01*
X772380Y54041D01*
X771649Y54602D01*
X770799Y54954D01*
X769886Y55074D01*
D02*
G37*
G36*
X759886D02*
X758973Y54954D01*
X758122Y54602D01*
X757392Y54041D01*
X756831Y53311D01*
X756479Y52460D01*
X756359Y51547D01*
X756479Y50634D01*
X756831Y49784D01*
X757392Y49053D01*
X758122Y48493D01*
X758973Y48140D01*
X759886Y48020D01*
X760799Y48140D01*
X761649Y48493D01*
X762380Y49053D01*
X762940Y49784D01*
X763293Y50634D01*
X763413Y51547D01*
X763293Y52460D01*
X762940Y53311D01*
X762380Y54041D01*
X761649Y54602D01*
X760799Y54954D01*
X759886Y55074D01*
D02*
G37*
G36*
X749886D02*
X748973Y54954D01*
X748122Y54602D01*
X747392Y54041D01*
X746831Y53311D01*
X746479Y52460D01*
X746359Y51547D01*
X746479Y50634D01*
X746831Y49784D01*
X747392Y49053D01*
X748122Y48493D01*
X748973Y48140D01*
X749886Y48020D01*
X750799Y48140D01*
X751649Y48493D01*
X752380Y49053D01*
X752940Y49784D01*
X753293Y50634D01*
X753413Y51547D01*
X753293Y52460D01*
X752940Y53311D01*
X752380Y54041D01*
X751649Y54602D01*
X750799Y54954D01*
X749886Y55074D01*
D02*
G37*
G36*
X739886D02*
X738973Y54954D01*
X738122Y54602D01*
X737392Y54041D01*
X736831Y53311D01*
X736479Y52460D01*
X736359Y51547D01*
X736479Y50634D01*
X736831Y49784D01*
X737392Y49053D01*
X738122Y48493D01*
X738973Y48140D01*
X739886Y48020D01*
X740799Y48140D01*
X741649Y48493D01*
X742380Y49053D01*
X742940Y49784D01*
X743293Y50634D01*
X743413Y51547D01*
X743293Y52460D01*
X742940Y53311D01*
X742380Y54041D01*
X741649Y54602D01*
X740799Y54954D01*
X739886Y55074D01*
D02*
G37*
G36*
X729886D02*
X728973Y54954D01*
X728122Y54602D01*
X727392Y54041D01*
X726831Y53311D01*
X726479Y52460D01*
X726359Y51547D01*
X726479Y50634D01*
X726831Y49784D01*
X727392Y49053D01*
X728122Y48493D01*
X728973Y48140D01*
X729886Y48020D01*
X730799Y48140D01*
X731649Y48493D01*
X732380Y49053D01*
X732940Y49784D01*
X733293Y50634D01*
X733413Y51547D01*
X733293Y52460D01*
X732940Y53311D01*
X732380Y54041D01*
X731649Y54602D01*
X730799Y54954D01*
X729886Y55074D01*
D02*
G37*
G36*
X719886D02*
X718973Y54954D01*
X718122Y54602D01*
X717392Y54041D01*
X716831Y53311D01*
X716479Y52460D01*
X716359Y51547D01*
X716479Y50634D01*
X716831Y49784D01*
X717392Y49053D01*
X718122Y48493D01*
X718973Y48140D01*
X719886Y48020D01*
X720799Y48140D01*
X721649Y48493D01*
X722380Y49053D01*
X722940Y49784D01*
X723293Y50634D01*
X723413Y51547D01*
X723293Y52460D01*
X722940Y53311D01*
X722380Y54041D01*
X721649Y54602D01*
X720799Y54954D01*
X719886Y55074D01*
D02*
G37*
G36*
X709886D02*
X708973Y54954D01*
X708122Y54602D01*
X707392Y54041D01*
X706831Y53311D01*
X706479Y52460D01*
X706359Y51547D01*
X706479Y50634D01*
X706831Y49784D01*
X707392Y49053D01*
X708122Y48493D01*
X708973Y48140D01*
X709886Y48020D01*
X710799Y48140D01*
X711649Y48493D01*
X712380Y49053D01*
X712940Y49784D01*
X713293Y50634D01*
X713413Y51547D01*
X713293Y52460D01*
X712940Y53311D01*
X712380Y54041D01*
X711649Y54602D01*
X710799Y54954D01*
X709886Y55074D01*
D02*
G37*
G36*
X820286Y45022D02*
Y41947D01*
X823360D01*
X823293Y42460D01*
X822940Y43311D01*
X822380Y44041D01*
X821649Y44602D01*
X820799Y44954D01*
X820286Y45022D01*
D02*
G37*
G36*
X810286D02*
Y41947D01*
X813360D01*
X813293Y42460D01*
X812940Y43311D01*
X812380Y44041D01*
X811649Y44602D01*
X810799Y44954D01*
X810286Y45022D01*
D02*
G37*
G36*
X819486D02*
X818973Y44954D01*
X818122Y44602D01*
X817392Y44041D01*
X816831Y43311D01*
X816479Y42460D01*
X816411Y41947D01*
X819486D01*
Y45022D01*
D02*
G37*
G36*
X809486D02*
X808973Y44954D01*
X808122Y44602D01*
X807392Y44041D01*
X806831Y43311D01*
X806479Y42460D01*
X806411Y41947D01*
X809486D01*
Y45022D01*
D02*
G37*
G36*
X823360Y41147D02*
X820286D01*
Y38073D01*
X820799Y38140D01*
X821649Y38493D01*
X822380Y39053D01*
X822940Y39784D01*
X823293Y40634D01*
X823360Y41147D01*
D02*
G37*
G36*
X813360D02*
X810286D01*
Y38073D01*
X810799Y38140D01*
X811649Y38493D01*
X812380Y39053D01*
X812940Y39784D01*
X813293Y40634D01*
X813360Y41147D01*
D02*
G37*
G36*
X819486D02*
X816411D01*
X816479Y40634D01*
X816831Y39784D01*
X817392Y39053D01*
X818122Y38493D01*
X818973Y38140D01*
X819486Y38073D01*
Y41147D01*
D02*
G37*
G36*
X809486D02*
X806411D01*
X806479Y40634D01*
X806831Y39784D01*
X807392Y39053D01*
X808122Y38493D01*
X808973Y38140D01*
X809486Y38073D01*
Y41147D01*
D02*
G37*
G36*
X959886Y45074D02*
X958973Y44954D01*
X958122Y44602D01*
X957392Y44041D01*
X956831Y43311D01*
X956479Y42460D01*
X956359Y41547D01*
X956479Y40634D01*
X956831Y39784D01*
X957392Y39053D01*
X958122Y38493D01*
X958973Y38140D01*
X959886Y38020D01*
X960799Y38140D01*
X961649Y38493D01*
X962380Y39053D01*
X962940Y39784D01*
X963293Y40634D01*
X963413Y41547D01*
X963293Y42460D01*
X962940Y43311D01*
X962380Y44041D01*
X961649Y44602D01*
X960799Y44954D01*
X959886Y45074D01*
D02*
G37*
G36*
X949886D02*
X948973Y44954D01*
X948122Y44602D01*
X947392Y44041D01*
X946831Y43311D01*
X946479Y42460D01*
X946359Y41547D01*
X946479Y40634D01*
X946831Y39784D01*
X947392Y39053D01*
X948122Y38493D01*
X948973Y38140D01*
X949886Y38020D01*
X950799Y38140D01*
X951649Y38493D01*
X952380Y39053D01*
X952940Y39784D01*
X953293Y40634D01*
X953413Y41547D01*
X953293Y42460D01*
X952940Y43311D01*
X952380Y44041D01*
X951649Y44602D01*
X950799Y44954D01*
X949886Y45074D01*
D02*
G37*
G36*
X939886D02*
X938973Y44954D01*
X938122Y44602D01*
X937392Y44041D01*
X936831Y43311D01*
X936479Y42460D01*
X936359Y41547D01*
X936479Y40634D01*
X936831Y39784D01*
X937392Y39053D01*
X938122Y38493D01*
X938973Y38140D01*
X939886Y38020D01*
X940799Y38140D01*
X941649Y38493D01*
X942380Y39053D01*
X942940Y39784D01*
X943293Y40634D01*
X943413Y41547D01*
X943293Y42460D01*
X942940Y43311D01*
X942380Y44041D01*
X941649Y44602D01*
X940799Y44954D01*
X939886Y45074D01*
D02*
G37*
G36*
X929886D02*
X928973Y44954D01*
X928122Y44602D01*
X927392Y44041D01*
X926831Y43311D01*
X926479Y42460D01*
X926359Y41547D01*
X926479Y40634D01*
X926831Y39784D01*
X927392Y39053D01*
X928122Y38493D01*
X928973Y38140D01*
X929886Y38020D01*
X930799Y38140D01*
X931649Y38493D01*
X932380Y39053D01*
X932940Y39784D01*
X933293Y40634D01*
X933413Y41547D01*
X933293Y42460D01*
X932940Y43311D01*
X932380Y44041D01*
X931649Y44602D01*
X930799Y44954D01*
X929886Y45074D01*
D02*
G37*
G36*
X919886D02*
X918973Y44954D01*
X918122Y44602D01*
X917392Y44041D01*
X916831Y43311D01*
X916479Y42460D01*
X916359Y41547D01*
X916479Y40634D01*
X916831Y39784D01*
X917392Y39053D01*
X918122Y38493D01*
X918973Y38140D01*
X919886Y38020D01*
X920799Y38140D01*
X921649Y38493D01*
X922380Y39053D01*
X922940Y39784D01*
X923293Y40634D01*
X923413Y41547D01*
X923293Y42460D01*
X922940Y43311D01*
X922380Y44041D01*
X921649Y44602D01*
X920799Y44954D01*
X919886Y45074D01*
D02*
G37*
G36*
X909886D02*
X908973Y44954D01*
X908122Y44602D01*
X907392Y44041D01*
X906831Y43311D01*
X906479Y42460D01*
X906359Y41547D01*
X906479Y40634D01*
X906831Y39784D01*
X907392Y39053D01*
X908122Y38493D01*
X908973Y38140D01*
X909886Y38020D01*
X910799Y38140D01*
X911649Y38493D01*
X912380Y39053D01*
X912940Y39784D01*
X913293Y40634D01*
X913413Y41547D01*
X913293Y42460D01*
X912940Y43311D01*
X912380Y44041D01*
X911649Y44602D01*
X910799Y44954D01*
X909886Y45074D01*
D02*
G37*
G36*
X899886D02*
X898973Y44954D01*
X898122Y44602D01*
X897392Y44041D01*
X896831Y43311D01*
X896479Y42460D01*
X896359Y41547D01*
X896479Y40634D01*
X896831Y39784D01*
X897392Y39053D01*
X898122Y38493D01*
X898973Y38140D01*
X899886Y38020D01*
X900799Y38140D01*
X901649Y38493D01*
X902380Y39053D01*
X902940Y39784D01*
X903293Y40634D01*
X903413Y41547D01*
X903293Y42460D01*
X902940Y43311D01*
X902380Y44041D01*
X901649Y44602D01*
X900799Y44954D01*
X899886Y45074D01*
D02*
G37*
G36*
X889886D02*
X888973Y44954D01*
X888122Y44602D01*
X887392Y44041D01*
X886831Y43311D01*
X886479Y42460D01*
X886359Y41547D01*
X886479Y40634D01*
X886831Y39784D01*
X887392Y39053D01*
X888122Y38493D01*
X888973Y38140D01*
X889886Y38020D01*
X890799Y38140D01*
X891649Y38493D01*
X892380Y39053D01*
X892940Y39784D01*
X893293Y40634D01*
X893413Y41547D01*
X893293Y42460D01*
X892940Y43311D01*
X892380Y44041D01*
X891649Y44602D01*
X890799Y44954D01*
X889886Y45074D01*
D02*
G37*
G36*
X879886D02*
X878973Y44954D01*
X878122Y44602D01*
X877392Y44041D01*
X876831Y43311D01*
X876479Y42460D01*
X876359Y41547D01*
X876479Y40634D01*
X876831Y39784D01*
X877392Y39053D01*
X878122Y38493D01*
X878973Y38140D01*
X879886Y38020D01*
X880799Y38140D01*
X881649Y38493D01*
X882380Y39053D01*
X882940Y39784D01*
X883293Y40634D01*
X883413Y41547D01*
X883293Y42460D01*
X882940Y43311D01*
X882380Y44041D01*
X881649Y44602D01*
X880799Y44954D01*
X879886Y45074D01*
D02*
G37*
G36*
X869886D02*
X868973Y44954D01*
X868122Y44602D01*
X867392Y44041D01*
X866831Y43311D01*
X866479Y42460D01*
X866359Y41547D01*
X866479Y40634D01*
X866831Y39784D01*
X867392Y39053D01*
X868122Y38493D01*
X868973Y38140D01*
X869886Y38020D01*
X870799Y38140D01*
X871649Y38493D01*
X872380Y39053D01*
X872940Y39784D01*
X873293Y40634D01*
X873413Y41547D01*
X873293Y42460D01*
X872940Y43311D01*
X872380Y44041D01*
X871649Y44602D01*
X870799Y44954D01*
X869886Y45074D01*
D02*
G37*
G36*
X859886D02*
X858973Y44954D01*
X858122Y44602D01*
X857392Y44041D01*
X856831Y43311D01*
X856479Y42460D01*
X856359Y41547D01*
X856479Y40634D01*
X856831Y39784D01*
X857392Y39053D01*
X858122Y38493D01*
X858973Y38140D01*
X859886Y38020D01*
X860799Y38140D01*
X861649Y38493D01*
X862380Y39053D01*
X862940Y39784D01*
X863293Y40634D01*
X863413Y41547D01*
X863293Y42460D01*
X862940Y43311D01*
X862380Y44041D01*
X861649Y44602D01*
X860799Y44954D01*
X859886Y45074D01*
D02*
G37*
G36*
X849886D02*
X848973Y44954D01*
X848122Y44602D01*
X847392Y44041D01*
X846831Y43311D01*
X846479Y42460D01*
X846359Y41547D01*
X846479Y40634D01*
X846831Y39784D01*
X847392Y39053D01*
X848122Y38493D01*
X848973Y38140D01*
X849886Y38020D01*
X850799Y38140D01*
X851649Y38493D01*
X852380Y39053D01*
X852940Y39784D01*
X853293Y40634D01*
X853413Y41547D01*
X853293Y42460D01*
X852940Y43311D01*
X852380Y44041D01*
X851649Y44602D01*
X850799Y44954D01*
X849886Y45074D01*
D02*
G37*
G36*
X839886D02*
X838973Y44954D01*
X838122Y44602D01*
X837392Y44041D01*
X836831Y43311D01*
X836479Y42460D01*
X836359Y41547D01*
X836479Y40634D01*
X836831Y39784D01*
X837392Y39053D01*
X838122Y38493D01*
X838973Y38140D01*
X839886Y38020D01*
X840799Y38140D01*
X841649Y38493D01*
X842380Y39053D01*
X842940Y39784D01*
X843293Y40634D01*
X843413Y41547D01*
X843293Y42460D01*
X842940Y43311D01*
X842380Y44041D01*
X841649Y44602D01*
X840799Y44954D01*
X839886Y45074D01*
D02*
G37*
G36*
X829886D02*
X828973Y44954D01*
X828122Y44602D01*
X827392Y44041D01*
X826831Y43311D01*
X826479Y42460D01*
X826359Y41547D01*
X826479Y40634D01*
X826831Y39784D01*
X827392Y39053D01*
X828122Y38493D01*
X828973Y38140D01*
X829886Y38020D01*
X830799Y38140D01*
X831649Y38493D01*
X832380Y39053D01*
X832940Y39784D01*
X833293Y40634D01*
X833413Y41547D01*
X833293Y42460D01*
X832940Y43311D01*
X832380Y44041D01*
X831649Y44602D01*
X830799Y44954D01*
X829886Y45074D01*
D02*
G37*
G36*
X799886D02*
X798973Y44954D01*
X798122Y44602D01*
X797392Y44041D01*
X796831Y43311D01*
X796479Y42460D01*
X796359Y41547D01*
X796479Y40634D01*
X796831Y39784D01*
X797392Y39053D01*
X798122Y38493D01*
X798973Y38140D01*
X799886Y38020D01*
X800799Y38140D01*
X801649Y38493D01*
X802380Y39053D01*
X802940Y39784D01*
X803293Y40634D01*
X803413Y41547D01*
X803293Y42460D01*
X802940Y43311D01*
X802380Y44041D01*
X801649Y44602D01*
X800799Y44954D01*
X799886Y45074D01*
D02*
G37*
G36*
X789886D02*
X788973Y44954D01*
X788122Y44602D01*
X787392Y44041D01*
X786831Y43311D01*
X786479Y42460D01*
X786359Y41547D01*
X786479Y40634D01*
X786831Y39784D01*
X787392Y39053D01*
X788122Y38493D01*
X788973Y38140D01*
X789886Y38020D01*
X790799Y38140D01*
X791649Y38493D01*
X792380Y39053D01*
X792940Y39784D01*
X793293Y40634D01*
X793413Y41547D01*
X793293Y42460D01*
X792940Y43311D01*
X792380Y44041D01*
X791649Y44602D01*
X790799Y44954D01*
X789886Y45074D01*
D02*
G37*
G36*
X779886D02*
X778973Y44954D01*
X778122Y44602D01*
X777392Y44041D01*
X776831Y43311D01*
X776479Y42460D01*
X776359Y41547D01*
X776479Y40634D01*
X776831Y39784D01*
X777392Y39053D01*
X778122Y38493D01*
X778973Y38140D01*
X779886Y38020D01*
X780799Y38140D01*
X781649Y38493D01*
X782380Y39053D01*
X782940Y39784D01*
X783293Y40634D01*
X783413Y41547D01*
X783293Y42460D01*
X782940Y43311D01*
X782380Y44041D01*
X781649Y44602D01*
X780799Y44954D01*
X779886Y45074D01*
D02*
G37*
G36*
X769886D02*
X768973Y44954D01*
X768122Y44602D01*
X767392Y44041D01*
X766831Y43311D01*
X766479Y42460D01*
X766359Y41547D01*
X766479Y40634D01*
X766831Y39784D01*
X767392Y39053D01*
X768122Y38493D01*
X768973Y38140D01*
X769886Y38020D01*
X770799Y38140D01*
X771649Y38493D01*
X772380Y39053D01*
X772940Y39784D01*
X773293Y40634D01*
X773413Y41547D01*
X773293Y42460D01*
X772940Y43311D01*
X772380Y44041D01*
X771649Y44602D01*
X770799Y44954D01*
X769886Y45074D01*
D02*
G37*
G36*
X759886D02*
X758973Y44954D01*
X758122Y44602D01*
X757392Y44041D01*
X756831Y43311D01*
X756479Y42460D01*
X756359Y41547D01*
X756479Y40634D01*
X756831Y39784D01*
X757392Y39053D01*
X758122Y38493D01*
X758973Y38140D01*
X759886Y38020D01*
X760799Y38140D01*
X761649Y38493D01*
X762380Y39053D01*
X762940Y39784D01*
X763293Y40634D01*
X763413Y41547D01*
X763293Y42460D01*
X762940Y43311D01*
X762380Y44041D01*
X761649Y44602D01*
X760799Y44954D01*
X759886Y45074D01*
D02*
G37*
G36*
X749886D02*
X748973Y44954D01*
X748122Y44602D01*
X747392Y44041D01*
X746831Y43311D01*
X746479Y42460D01*
X746359Y41547D01*
X746479Y40634D01*
X746831Y39784D01*
X747392Y39053D01*
X748122Y38493D01*
X748973Y38140D01*
X749886Y38020D01*
X750799Y38140D01*
X751649Y38493D01*
X752380Y39053D01*
X752940Y39784D01*
X753293Y40634D01*
X753413Y41547D01*
X753293Y42460D01*
X752940Y43311D01*
X752380Y44041D01*
X751649Y44602D01*
X750799Y44954D01*
X749886Y45074D01*
D02*
G37*
G36*
X739886D02*
X738973Y44954D01*
X738122Y44602D01*
X737392Y44041D01*
X736831Y43311D01*
X736479Y42460D01*
X736359Y41547D01*
X736479Y40634D01*
X736831Y39784D01*
X737392Y39053D01*
X738122Y38493D01*
X738973Y38140D01*
X739886Y38020D01*
X740799Y38140D01*
X741649Y38493D01*
X742380Y39053D01*
X742940Y39784D01*
X743293Y40634D01*
X743413Y41547D01*
X743293Y42460D01*
X742940Y43311D01*
X742380Y44041D01*
X741649Y44602D01*
X740799Y44954D01*
X739886Y45074D01*
D02*
G37*
G36*
X729886D02*
X728973Y44954D01*
X728122Y44602D01*
X727392Y44041D01*
X726831Y43311D01*
X726479Y42460D01*
X726359Y41547D01*
X726479Y40634D01*
X726831Y39784D01*
X727392Y39053D01*
X728122Y38493D01*
X728973Y38140D01*
X729886Y38020D01*
X730799Y38140D01*
X731649Y38493D01*
X732380Y39053D01*
X732940Y39784D01*
X733293Y40634D01*
X733413Y41547D01*
X733293Y42460D01*
X732940Y43311D01*
X732380Y44041D01*
X731649Y44602D01*
X730799Y44954D01*
X729886Y45074D01*
D02*
G37*
G36*
X719886D02*
X718973Y44954D01*
X718122Y44602D01*
X717392Y44041D01*
X716831Y43311D01*
X716479Y42460D01*
X716359Y41547D01*
X716479Y40634D01*
X716831Y39784D01*
X717392Y39053D01*
X718122Y38493D01*
X718973Y38140D01*
X719886Y38020D01*
X720799Y38140D01*
X721649Y38493D01*
X722380Y39053D01*
X722940Y39784D01*
X723293Y40634D01*
X723413Y41547D01*
X723293Y42460D01*
X722940Y43311D01*
X722380Y44041D01*
X721649Y44602D01*
X720799Y44954D01*
X719886Y45074D01*
D02*
G37*
G36*
X709886D02*
X708973Y44954D01*
X708122Y44602D01*
X707392Y44041D01*
X706831Y43311D01*
X706479Y42460D01*
X706359Y41547D01*
X706479Y40634D01*
X706831Y39784D01*
X707392Y39053D01*
X708122Y38493D01*
X708973Y38140D01*
X709886Y38020D01*
X710799Y38140D01*
X711649Y38493D01*
X712380Y39053D01*
X712940Y39784D01*
X713293Y40634D01*
X713413Y41547D01*
X713293Y42460D01*
X712940Y43311D01*
X712380Y44041D01*
X711649Y44602D01*
X710799Y44954D01*
X709886Y45074D01*
D02*
G37*
G36*
X963383Y33745D02*
X956389D01*
Y26751D01*
X963383D01*
Y33745D01*
D02*
G37*
G36*
X949886Y33775D02*
X948973Y33655D01*
X948122Y33303D01*
X947392Y32742D01*
X946831Y32012D01*
X946479Y31161D01*
X946359Y30248D01*
X946479Y29335D01*
X946831Y28484D01*
X947392Y27754D01*
X948122Y27193D01*
X948973Y26841D01*
X949886Y26721D01*
X950799Y26841D01*
X951649Y27193D01*
X952380Y27754D01*
X952940Y28484D01*
X953293Y29335D01*
X953413Y30248D01*
X953293Y31161D01*
X952940Y32012D01*
X952380Y32742D01*
X951649Y33303D01*
X950799Y33655D01*
X949886Y33775D01*
D02*
G37*
G36*
X939886D02*
X938973Y33655D01*
X938122Y33303D01*
X937392Y32742D01*
X936831Y32012D01*
X936479Y31161D01*
X936359Y30248D01*
X936479Y29335D01*
X936831Y28484D01*
X937392Y27754D01*
X938122Y27193D01*
X938973Y26841D01*
X939886Y26721D01*
X940799Y26841D01*
X941649Y27193D01*
X942380Y27754D01*
X942940Y28484D01*
X943293Y29335D01*
X943413Y30248D01*
X943293Y31161D01*
X942940Y32012D01*
X942380Y32742D01*
X941649Y33303D01*
X940799Y33655D01*
X939886Y33775D01*
D02*
G37*
G36*
X929886D02*
X928973Y33655D01*
X928122Y33303D01*
X927392Y32742D01*
X926831Y32012D01*
X926479Y31161D01*
X926359Y30248D01*
X926479Y29335D01*
X926831Y28484D01*
X927392Y27754D01*
X928122Y27193D01*
X928973Y26841D01*
X929886Y26721D01*
X930799Y26841D01*
X931649Y27193D01*
X932380Y27754D01*
X932940Y28484D01*
X933293Y29335D01*
X933413Y30248D01*
X933293Y31161D01*
X932940Y32012D01*
X932380Y32742D01*
X931649Y33303D01*
X930799Y33655D01*
X929886Y33775D01*
D02*
G37*
G36*
X919886D02*
X918973Y33655D01*
X918122Y33303D01*
X917392Y32742D01*
X916831Y32012D01*
X916479Y31161D01*
X916359Y30248D01*
X916479Y29335D01*
X916831Y28484D01*
X917392Y27754D01*
X918122Y27193D01*
X918973Y26841D01*
X919886Y26721D01*
X920799Y26841D01*
X921649Y27193D01*
X922380Y27754D01*
X922940Y28484D01*
X923293Y29335D01*
X923413Y30248D01*
X923293Y31161D01*
X922940Y32012D01*
X922380Y32742D01*
X921649Y33303D01*
X920799Y33655D01*
X919886Y33775D01*
D02*
G37*
G36*
X909886D02*
X908973Y33655D01*
X908122Y33303D01*
X907392Y32742D01*
X906831Y32012D01*
X906479Y31161D01*
X906359Y30248D01*
X906479Y29335D01*
X906831Y28484D01*
X907392Y27754D01*
X908122Y27193D01*
X908973Y26841D01*
X909886Y26721D01*
X910799Y26841D01*
X911649Y27193D01*
X912380Y27754D01*
X912940Y28484D01*
X913293Y29335D01*
X913413Y30248D01*
X913293Y31161D01*
X912940Y32012D01*
X912380Y32742D01*
X911649Y33303D01*
X910799Y33655D01*
X909886Y33775D01*
D02*
G37*
G36*
X899886D02*
X898973Y33655D01*
X898122Y33303D01*
X897392Y32742D01*
X896831Y32012D01*
X896479Y31161D01*
X896359Y30248D01*
X896479Y29335D01*
X896831Y28484D01*
X897392Y27754D01*
X898122Y27193D01*
X898973Y26841D01*
X899886Y26721D01*
X900799Y26841D01*
X901649Y27193D01*
X902380Y27754D01*
X902940Y28484D01*
X903293Y29335D01*
X903413Y30248D01*
X903293Y31161D01*
X902940Y32012D01*
X902380Y32742D01*
X901649Y33303D01*
X900799Y33655D01*
X899886Y33775D01*
D02*
G37*
G36*
X889886D02*
X888973Y33655D01*
X888122Y33303D01*
X887392Y32742D01*
X886831Y32012D01*
X886479Y31161D01*
X886359Y30248D01*
X886479Y29335D01*
X886831Y28484D01*
X887392Y27754D01*
X888122Y27193D01*
X888973Y26841D01*
X889886Y26721D01*
X890799Y26841D01*
X891649Y27193D01*
X892380Y27754D01*
X892940Y28484D01*
X893293Y29335D01*
X893413Y30248D01*
X893293Y31161D01*
X892940Y32012D01*
X892380Y32742D01*
X891649Y33303D01*
X890799Y33655D01*
X889886Y33775D01*
D02*
G37*
G36*
X879886D02*
X878973Y33655D01*
X878122Y33303D01*
X877392Y32742D01*
X876831Y32012D01*
X876479Y31161D01*
X876359Y30248D01*
X876479Y29335D01*
X876831Y28484D01*
X877392Y27754D01*
X878122Y27193D01*
X878973Y26841D01*
X879886Y26721D01*
X880799Y26841D01*
X881649Y27193D01*
X882380Y27754D01*
X882940Y28484D01*
X883293Y29335D01*
X883413Y30248D01*
X883293Y31161D01*
X882940Y32012D01*
X882380Y32742D01*
X881649Y33303D01*
X880799Y33655D01*
X879886Y33775D01*
D02*
G37*
G36*
X869886D02*
X868973Y33655D01*
X868122Y33303D01*
X867392Y32742D01*
X866831Y32012D01*
X866479Y31161D01*
X866359Y30248D01*
X866479Y29335D01*
X866831Y28484D01*
X867392Y27754D01*
X868122Y27193D01*
X868973Y26841D01*
X869886Y26721D01*
X870799Y26841D01*
X871649Y27193D01*
X872380Y27754D01*
X872940Y28484D01*
X873293Y29335D01*
X873413Y30248D01*
X873293Y31161D01*
X872940Y32012D01*
X872380Y32742D01*
X871649Y33303D01*
X870799Y33655D01*
X869886Y33775D01*
D02*
G37*
G36*
X859886D02*
X858973Y33655D01*
X858122Y33303D01*
X857392Y32742D01*
X856831Y32012D01*
X856479Y31161D01*
X856359Y30248D01*
X856479Y29335D01*
X856831Y28484D01*
X857392Y27754D01*
X858122Y27193D01*
X858973Y26841D01*
X859886Y26721D01*
X860799Y26841D01*
X861649Y27193D01*
X862380Y27754D01*
X862940Y28484D01*
X863293Y29335D01*
X863413Y30248D01*
X863293Y31161D01*
X862940Y32012D01*
X862380Y32742D01*
X861649Y33303D01*
X860799Y33655D01*
X859886Y33775D01*
D02*
G37*
G36*
X849886D02*
X848973Y33655D01*
X848122Y33303D01*
X847392Y32742D01*
X846831Y32012D01*
X846479Y31161D01*
X846359Y30248D01*
X846479Y29335D01*
X846831Y28484D01*
X847392Y27754D01*
X848122Y27193D01*
X848973Y26841D01*
X849886Y26721D01*
X850799Y26841D01*
X851649Y27193D01*
X852380Y27754D01*
X852940Y28484D01*
X853293Y29335D01*
X853413Y30248D01*
X853293Y31161D01*
X852940Y32012D01*
X852380Y32742D01*
X851649Y33303D01*
X850799Y33655D01*
X849886Y33775D01*
D02*
G37*
G36*
X839886D02*
X838973Y33655D01*
X838122Y33303D01*
X837392Y32742D01*
X836831Y32012D01*
X836479Y31161D01*
X836359Y30248D01*
X836479Y29335D01*
X836831Y28484D01*
X837392Y27754D01*
X838122Y27193D01*
X838973Y26841D01*
X839886Y26721D01*
X840799Y26841D01*
X841649Y27193D01*
X842380Y27754D01*
X842940Y28484D01*
X843293Y29335D01*
X843413Y30248D01*
X843293Y31161D01*
X842940Y32012D01*
X842380Y32742D01*
X841649Y33303D01*
X840799Y33655D01*
X839886Y33775D01*
D02*
G37*
G36*
X829886D02*
X828973Y33655D01*
X828122Y33303D01*
X827392Y32742D01*
X826831Y32012D01*
X826479Y31161D01*
X826359Y30248D01*
X826479Y29335D01*
X826831Y28484D01*
X827392Y27754D01*
X828122Y27193D01*
X828973Y26841D01*
X829886Y26721D01*
X830799Y26841D01*
X831649Y27193D01*
X832380Y27754D01*
X832940Y28484D01*
X833293Y29335D01*
X833413Y30248D01*
X833293Y31161D01*
X832940Y32012D01*
X832380Y32742D01*
X831649Y33303D01*
X830799Y33655D01*
X829886Y33775D01*
D02*
G37*
G36*
X819886D02*
X818973Y33655D01*
X818122Y33303D01*
X817392Y32742D01*
X816831Y32012D01*
X816479Y31161D01*
X816359Y30248D01*
X816479Y29335D01*
X816831Y28484D01*
X817392Y27754D01*
X818122Y27193D01*
X818973Y26841D01*
X819886Y26721D01*
X820799Y26841D01*
X821649Y27193D01*
X822380Y27754D01*
X822940Y28484D01*
X823293Y29335D01*
X823413Y30248D01*
X823293Y31161D01*
X822940Y32012D01*
X822380Y32742D01*
X821649Y33303D01*
X820799Y33655D01*
X819886Y33775D01*
D02*
G37*
G36*
X809886D02*
X808973Y33655D01*
X808122Y33303D01*
X807392Y32742D01*
X806831Y32012D01*
X806479Y31161D01*
X806359Y30248D01*
X806479Y29335D01*
X806831Y28484D01*
X807392Y27754D01*
X808122Y27193D01*
X808973Y26841D01*
X809886Y26721D01*
X810799Y26841D01*
X811649Y27193D01*
X812380Y27754D01*
X812940Y28484D01*
X813293Y29335D01*
X813413Y30248D01*
X813293Y31161D01*
X812940Y32012D01*
X812380Y32742D01*
X811649Y33303D01*
X810799Y33655D01*
X809886Y33775D01*
D02*
G37*
G36*
X799886D02*
X798973Y33655D01*
X798122Y33303D01*
X797392Y32742D01*
X796831Y32012D01*
X796479Y31161D01*
X796359Y30248D01*
X796479Y29335D01*
X796831Y28484D01*
X797392Y27754D01*
X798122Y27193D01*
X798973Y26841D01*
X799886Y26721D01*
X800799Y26841D01*
X801649Y27193D01*
X802380Y27754D01*
X802940Y28484D01*
X803293Y29335D01*
X803413Y30248D01*
X803293Y31161D01*
X802940Y32012D01*
X802380Y32742D01*
X801649Y33303D01*
X800799Y33655D01*
X799886Y33775D01*
D02*
G37*
G36*
X789886D02*
X788973Y33655D01*
X788122Y33303D01*
X787392Y32742D01*
X786831Y32012D01*
X786479Y31161D01*
X786359Y30248D01*
X786479Y29335D01*
X786831Y28484D01*
X787392Y27754D01*
X788122Y27193D01*
X788973Y26841D01*
X789886Y26721D01*
X790799Y26841D01*
X791649Y27193D01*
X792380Y27754D01*
X792940Y28484D01*
X793293Y29335D01*
X793413Y30248D01*
X793293Y31161D01*
X792940Y32012D01*
X792380Y32742D01*
X791649Y33303D01*
X790799Y33655D01*
X789886Y33775D01*
D02*
G37*
G36*
X779886D02*
X778973Y33655D01*
X778122Y33303D01*
X777392Y32742D01*
X776831Y32012D01*
X776479Y31161D01*
X776359Y30248D01*
X776479Y29335D01*
X776831Y28484D01*
X777392Y27754D01*
X778122Y27193D01*
X778973Y26841D01*
X779886Y26721D01*
X780799Y26841D01*
X781649Y27193D01*
X782380Y27754D01*
X782940Y28484D01*
X783293Y29335D01*
X783413Y30248D01*
X783293Y31161D01*
X782940Y32012D01*
X782380Y32742D01*
X781649Y33303D01*
X780799Y33655D01*
X779886Y33775D01*
D02*
G37*
G36*
X769886D02*
X768973Y33655D01*
X768122Y33303D01*
X767392Y32742D01*
X766831Y32012D01*
X766479Y31161D01*
X766359Y30248D01*
X766479Y29335D01*
X766831Y28484D01*
X767392Y27754D01*
X768122Y27193D01*
X768973Y26841D01*
X769886Y26721D01*
X770799Y26841D01*
X771649Y27193D01*
X772380Y27754D01*
X772940Y28484D01*
X773293Y29335D01*
X773413Y30248D01*
X773293Y31161D01*
X772940Y32012D01*
X772380Y32742D01*
X771649Y33303D01*
X770799Y33655D01*
X769886Y33775D01*
D02*
G37*
G36*
X759886D02*
X758973Y33655D01*
X758122Y33303D01*
X757392Y32742D01*
X756831Y32012D01*
X756479Y31161D01*
X756359Y30248D01*
X756479Y29335D01*
X756831Y28484D01*
X757392Y27754D01*
X758122Y27193D01*
X758973Y26841D01*
X759886Y26721D01*
X760799Y26841D01*
X761649Y27193D01*
X762380Y27754D01*
X762940Y28484D01*
X763293Y29335D01*
X763413Y30248D01*
X763293Y31161D01*
X762940Y32012D01*
X762380Y32742D01*
X761649Y33303D01*
X760799Y33655D01*
X759886Y33775D01*
D02*
G37*
G36*
X749886D02*
X748973Y33655D01*
X748122Y33303D01*
X747392Y32742D01*
X746831Y32012D01*
X746479Y31161D01*
X746359Y30248D01*
X746479Y29335D01*
X746831Y28484D01*
X747392Y27754D01*
X748122Y27193D01*
X748973Y26841D01*
X749886Y26721D01*
X750799Y26841D01*
X751649Y27193D01*
X752380Y27754D01*
X752940Y28484D01*
X753293Y29335D01*
X753413Y30248D01*
X753293Y31161D01*
X752940Y32012D01*
X752380Y32742D01*
X751649Y33303D01*
X750799Y33655D01*
X749886Y33775D01*
D02*
G37*
G36*
X739886D02*
X738973Y33655D01*
X738122Y33303D01*
X737392Y32742D01*
X736831Y32012D01*
X736479Y31161D01*
X736359Y30248D01*
X736479Y29335D01*
X736831Y28484D01*
X737392Y27754D01*
X738122Y27193D01*
X738973Y26841D01*
X739886Y26721D01*
X740799Y26841D01*
X741649Y27193D01*
X742380Y27754D01*
X742940Y28484D01*
X743293Y29335D01*
X743413Y30248D01*
X743293Y31161D01*
X742940Y32012D01*
X742380Y32742D01*
X741649Y33303D01*
X740799Y33655D01*
X739886Y33775D01*
D02*
G37*
G36*
X729886D02*
X728973Y33655D01*
X728122Y33303D01*
X727392Y32742D01*
X726831Y32012D01*
X726479Y31161D01*
X726359Y30248D01*
X726479Y29335D01*
X726831Y28484D01*
X727392Y27754D01*
X728122Y27193D01*
X728973Y26841D01*
X729886Y26721D01*
X730799Y26841D01*
X731649Y27193D01*
X732380Y27754D01*
X732940Y28484D01*
X733293Y29335D01*
X733413Y30248D01*
X733293Y31161D01*
X732940Y32012D01*
X732380Y32742D01*
X731649Y33303D01*
X730799Y33655D01*
X729886Y33775D01*
D02*
G37*
G36*
X719886D02*
X718973Y33655D01*
X718122Y33303D01*
X717392Y32742D01*
X716831Y32012D01*
X716479Y31161D01*
X716359Y30248D01*
X716479Y29335D01*
X716831Y28484D01*
X717392Y27754D01*
X718122Y27193D01*
X718973Y26841D01*
X719886Y26721D01*
X720799Y26841D01*
X721649Y27193D01*
X722380Y27754D01*
X722940Y28484D01*
X723293Y29335D01*
X723413Y30248D01*
X723293Y31161D01*
X722940Y32012D01*
X722380Y32742D01*
X721649Y33303D01*
X720799Y33655D01*
X719886Y33775D01*
D02*
G37*
G36*
X709886D02*
X708973Y33655D01*
X708122Y33303D01*
X707392Y32742D01*
X706831Y32012D01*
X706479Y31161D01*
X706359Y30248D01*
X706479Y29335D01*
X706831Y28484D01*
X707392Y27754D01*
X708122Y27193D01*
X708973Y26841D01*
X709886Y26721D01*
X710799Y26841D01*
X711649Y27193D01*
X712380Y27754D01*
X712940Y28484D01*
X713293Y29335D01*
X713413Y30248D01*
X713293Y31161D01*
X712940Y32012D01*
X712380Y32742D01*
X711649Y33303D01*
X710799Y33655D01*
X709886Y33775D01*
D02*
G37*
G36*
X690205Y31819D02*
Y21575D01*
X700449D01*
X700350Y22845D01*
X699958Y24474D01*
X699317Y26022D01*
X698442Y27450D01*
X697354Y28724D01*
X696080Y29812D01*
X694652Y30687D01*
X693104Y31328D01*
X691475Y31719D01*
X690205Y31819D01*
D02*
G37*
G36*
X689405D02*
X688135Y31719D01*
X686507Y31328D01*
X684959Y30687D01*
X683531Y29812D01*
X682257Y28724D01*
X681169Y27450D01*
X680294Y26022D01*
X679653Y24474D01*
X679261Y22845D01*
X679162Y21575D01*
X689405D01*
Y31819D01*
D02*
G37*
G36*
X980365Y31818D02*
Y21574D01*
X990609D01*
X990509Y22844D01*
X990117Y24473D01*
X989476Y26021D01*
X988601Y27449D01*
X987513Y28723D01*
X986239Y29811D01*
X984811Y30686D01*
X983263Y31327D01*
X981635Y31718D01*
X980365Y31818D01*
D02*
G37*
G36*
X979565D02*
X978294Y31718D01*
X976666Y31327D01*
X975118Y30686D01*
X973690Y29811D01*
X972416Y28723D01*
X971328Y27449D01*
X970453Y26021D01*
X969812Y24473D01*
X969421Y22844D01*
X969321Y21574D01*
X979565D01*
Y31818D01*
D02*
G37*
G36*
X959886Y23775D02*
X958973Y23655D01*
X958122Y23302D01*
X957392Y22742D01*
X956831Y22012D01*
X956479Y21161D01*
X956359Y20248D01*
X956479Y19335D01*
X956831Y18485D01*
X957392Y17754D01*
X958122Y17194D01*
X958973Y16841D01*
X959886Y16721D01*
X960799Y16841D01*
X961649Y17194D01*
X962380Y17754D01*
X962940Y18485D01*
X963293Y19335D01*
X963413Y20248D01*
X963293Y21161D01*
X962940Y22012D01*
X962380Y22742D01*
X961649Y23302D01*
X960799Y23655D01*
X959886Y23775D01*
D02*
G37*
G36*
X949886D02*
X948973Y23655D01*
X948122Y23302D01*
X947392Y22742D01*
X946831Y22012D01*
X946479Y21161D01*
X946359Y20248D01*
X946479Y19335D01*
X946831Y18485D01*
X947392Y17754D01*
X948122Y17194D01*
X948973Y16841D01*
X949886Y16721D01*
X950799Y16841D01*
X951649Y17194D01*
X952380Y17754D01*
X952940Y18485D01*
X953293Y19335D01*
X953413Y20248D01*
X953293Y21161D01*
X952940Y22012D01*
X952380Y22742D01*
X951649Y23302D01*
X950799Y23655D01*
X949886Y23775D01*
D02*
G37*
G36*
X939886D02*
X938973Y23655D01*
X938122Y23302D01*
X937392Y22742D01*
X936831Y22012D01*
X936479Y21161D01*
X936359Y20248D01*
X936479Y19335D01*
X936831Y18485D01*
X937392Y17754D01*
X938122Y17194D01*
X938973Y16841D01*
X939886Y16721D01*
X940799Y16841D01*
X941649Y17194D01*
X942380Y17754D01*
X942940Y18485D01*
X943293Y19335D01*
X943413Y20248D01*
X943293Y21161D01*
X942940Y22012D01*
X942380Y22742D01*
X941649Y23302D01*
X940799Y23655D01*
X939886Y23775D01*
D02*
G37*
G36*
X929886D02*
X928973Y23655D01*
X928122Y23302D01*
X927392Y22742D01*
X926831Y22012D01*
X926479Y21161D01*
X926359Y20248D01*
X926479Y19335D01*
X926831Y18485D01*
X927392Y17754D01*
X928122Y17194D01*
X928973Y16841D01*
X929886Y16721D01*
X930799Y16841D01*
X931649Y17194D01*
X932380Y17754D01*
X932940Y18485D01*
X933293Y19335D01*
X933413Y20248D01*
X933293Y21161D01*
X932940Y22012D01*
X932380Y22742D01*
X931649Y23302D01*
X930799Y23655D01*
X929886Y23775D01*
D02*
G37*
G36*
X919886D02*
X918973Y23655D01*
X918122Y23302D01*
X917392Y22742D01*
X916831Y22012D01*
X916479Y21161D01*
X916359Y20248D01*
X916479Y19335D01*
X916831Y18485D01*
X917392Y17754D01*
X918122Y17194D01*
X918973Y16841D01*
X919886Y16721D01*
X920799Y16841D01*
X921649Y17194D01*
X922380Y17754D01*
X922940Y18485D01*
X923293Y19335D01*
X923413Y20248D01*
X923293Y21161D01*
X922940Y22012D01*
X922380Y22742D01*
X921649Y23302D01*
X920799Y23655D01*
X919886Y23775D01*
D02*
G37*
G36*
X909886D02*
X908973Y23655D01*
X908122Y23302D01*
X907392Y22742D01*
X906831Y22012D01*
X906479Y21161D01*
X906359Y20248D01*
X906479Y19335D01*
X906831Y18485D01*
X907392Y17754D01*
X908122Y17194D01*
X908973Y16841D01*
X909886Y16721D01*
X910799Y16841D01*
X911649Y17194D01*
X912380Y17754D01*
X912940Y18485D01*
X913293Y19335D01*
X913413Y20248D01*
X913293Y21161D01*
X912940Y22012D01*
X912380Y22742D01*
X911649Y23302D01*
X910799Y23655D01*
X909886Y23775D01*
D02*
G37*
G36*
X899886D02*
X898973Y23655D01*
X898122Y23302D01*
X897392Y22742D01*
X896831Y22012D01*
X896479Y21161D01*
X896359Y20248D01*
X896479Y19335D01*
X896831Y18485D01*
X897392Y17754D01*
X898122Y17194D01*
X898973Y16841D01*
X899886Y16721D01*
X900799Y16841D01*
X901649Y17194D01*
X902380Y17754D01*
X902940Y18485D01*
X903293Y19335D01*
X903413Y20248D01*
X903293Y21161D01*
X902940Y22012D01*
X902380Y22742D01*
X901649Y23302D01*
X900799Y23655D01*
X899886Y23775D01*
D02*
G37*
G36*
X889886D02*
X888973Y23655D01*
X888122Y23302D01*
X887392Y22742D01*
X886831Y22012D01*
X886479Y21161D01*
X886359Y20248D01*
X886479Y19335D01*
X886831Y18485D01*
X887392Y17754D01*
X888122Y17194D01*
X888973Y16841D01*
X889886Y16721D01*
X890799Y16841D01*
X891649Y17194D01*
X892380Y17754D01*
X892940Y18485D01*
X893293Y19335D01*
X893413Y20248D01*
X893293Y21161D01*
X892940Y22012D01*
X892380Y22742D01*
X891649Y23302D01*
X890799Y23655D01*
X889886Y23775D01*
D02*
G37*
G36*
X879886D02*
X878973Y23655D01*
X878122Y23302D01*
X877392Y22742D01*
X876831Y22012D01*
X876479Y21161D01*
X876359Y20248D01*
X876479Y19335D01*
X876831Y18485D01*
X877392Y17754D01*
X878122Y17194D01*
X878973Y16841D01*
X879886Y16721D01*
X880799Y16841D01*
X881649Y17194D01*
X882380Y17754D01*
X882940Y18485D01*
X883293Y19335D01*
X883413Y20248D01*
X883293Y21161D01*
X882940Y22012D01*
X882380Y22742D01*
X881649Y23302D01*
X880799Y23655D01*
X879886Y23775D01*
D02*
G37*
G36*
X869886D02*
X868973Y23655D01*
X868122Y23302D01*
X867392Y22742D01*
X866831Y22012D01*
X866479Y21161D01*
X866359Y20248D01*
X866479Y19335D01*
X866831Y18485D01*
X867392Y17754D01*
X868122Y17194D01*
X868973Y16841D01*
X869886Y16721D01*
X870799Y16841D01*
X871649Y17194D01*
X872380Y17754D01*
X872940Y18485D01*
X873293Y19335D01*
X873413Y20248D01*
X873293Y21161D01*
X872940Y22012D01*
X872380Y22742D01*
X871649Y23302D01*
X870799Y23655D01*
X869886Y23775D01*
D02*
G37*
G36*
X859886D02*
X858973Y23655D01*
X858122Y23302D01*
X857392Y22742D01*
X856831Y22012D01*
X856479Y21161D01*
X856359Y20248D01*
X856479Y19335D01*
X856831Y18485D01*
X857392Y17754D01*
X858122Y17194D01*
X858973Y16841D01*
X859886Y16721D01*
X860799Y16841D01*
X861649Y17194D01*
X862380Y17754D01*
X862940Y18485D01*
X863293Y19335D01*
X863413Y20248D01*
X863293Y21161D01*
X862940Y22012D01*
X862380Y22742D01*
X861649Y23302D01*
X860799Y23655D01*
X859886Y23775D01*
D02*
G37*
G36*
X849886D02*
X848973Y23655D01*
X848122Y23302D01*
X847392Y22742D01*
X846831Y22012D01*
X846479Y21161D01*
X846359Y20248D01*
X846479Y19335D01*
X846831Y18485D01*
X847392Y17754D01*
X848122Y17194D01*
X848973Y16841D01*
X849886Y16721D01*
X850799Y16841D01*
X851649Y17194D01*
X852380Y17754D01*
X852940Y18485D01*
X853293Y19335D01*
X853413Y20248D01*
X853293Y21161D01*
X852940Y22012D01*
X852380Y22742D01*
X851649Y23302D01*
X850799Y23655D01*
X849886Y23775D01*
D02*
G37*
G36*
X839886D02*
X838973Y23655D01*
X838122Y23302D01*
X837392Y22742D01*
X836831Y22012D01*
X836479Y21161D01*
X836359Y20248D01*
X836479Y19335D01*
X836831Y18485D01*
X837392Y17754D01*
X838122Y17194D01*
X838973Y16841D01*
X839886Y16721D01*
X840799Y16841D01*
X841649Y17194D01*
X842380Y17754D01*
X842940Y18485D01*
X843293Y19335D01*
X843413Y20248D01*
X843293Y21161D01*
X842940Y22012D01*
X842380Y22742D01*
X841649Y23302D01*
X840799Y23655D01*
X839886Y23775D01*
D02*
G37*
G36*
X829886D02*
X828973Y23655D01*
X828122Y23302D01*
X827392Y22742D01*
X826831Y22012D01*
X826479Y21161D01*
X826359Y20248D01*
X826479Y19335D01*
X826831Y18485D01*
X827392Y17754D01*
X828122Y17194D01*
X828973Y16841D01*
X829886Y16721D01*
X830799Y16841D01*
X831649Y17194D01*
X832380Y17754D01*
X832940Y18485D01*
X833293Y19335D01*
X833413Y20248D01*
X833293Y21161D01*
X832940Y22012D01*
X832380Y22742D01*
X831649Y23302D01*
X830799Y23655D01*
X829886Y23775D01*
D02*
G37*
G36*
X819886D02*
X818973Y23655D01*
X818122Y23302D01*
X817392Y22742D01*
X816831Y22012D01*
X816479Y21161D01*
X816359Y20248D01*
X816479Y19335D01*
X816831Y18485D01*
X817392Y17754D01*
X818122Y17194D01*
X818973Y16841D01*
X819886Y16721D01*
X820799Y16841D01*
X821649Y17194D01*
X822380Y17754D01*
X822940Y18485D01*
X823293Y19335D01*
X823413Y20248D01*
X823293Y21161D01*
X822940Y22012D01*
X822380Y22742D01*
X821649Y23302D01*
X820799Y23655D01*
X819886Y23775D01*
D02*
G37*
G36*
X809886D02*
X808973Y23655D01*
X808122Y23302D01*
X807392Y22742D01*
X806831Y22012D01*
X806479Y21161D01*
X806359Y20248D01*
X806479Y19335D01*
X806831Y18485D01*
X807392Y17754D01*
X808122Y17194D01*
X808973Y16841D01*
X809886Y16721D01*
X810799Y16841D01*
X811649Y17194D01*
X812380Y17754D01*
X812940Y18485D01*
X813293Y19335D01*
X813413Y20248D01*
X813293Y21161D01*
X812940Y22012D01*
X812380Y22742D01*
X811649Y23302D01*
X810799Y23655D01*
X809886Y23775D01*
D02*
G37*
G36*
X799886D02*
X798973Y23655D01*
X798122Y23302D01*
X797392Y22742D01*
X796831Y22012D01*
X796479Y21161D01*
X796359Y20248D01*
X796479Y19335D01*
X796831Y18485D01*
X797392Y17754D01*
X798122Y17194D01*
X798973Y16841D01*
X799886Y16721D01*
X800799Y16841D01*
X801649Y17194D01*
X802380Y17754D01*
X802940Y18485D01*
X803293Y19335D01*
X803413Y20248D01*
X803293Y21161D01*
X802940Y22012D01*
X802380Y22742D01*
X801649Y23302D01*
X800799Y23655D01*
X799886Y23775D01*
D02*
G37*
G36*
X789886D02*
X788973Y23655D01*
X788122Y23302D01*
X787392Y22742D01*
X786831Y22012D01*
X786479Y21161D01*
X786359Y20248D01*
X786479Y19335D01*
X786831Y18485D01*
X787392Y17754D01*
X788122Y17194D01*
X788973Y16841D01*
X789886Y16721D01*
X790799Y16841D01*
X791649Y17194D01*
X792380Y17754D01*
X792940Y18485D01*
X793293Y19335D01*
X793413Y20248D01*
X793293Y21161D01*
X792940Y22012D01*
X792380Y22742D01*
X791649Y23302D01*
X790799Y23655D01*
X789886Y23775D01*
D02*
G37*
G36*
X779886D02*
X778973Y23655D01*
X778122Y23302D01*
X777392Y22742D01*
X776831Y22012D01*
X776479Y21161D01*
X776359Y20248D01*
X776479Y19335D01*
X776831Y18485D01*
X777392Y17754D01*
X778122Y17194D01*
X778973Y16841D01*
X779886Y16721D01*
X780799Y16841D01*
X781649Y17194D01*
X782380Y17754D01*
X782940Y18485D01*
X783293Y19335D01*
X783413Y20248D01*
X783293Y21161D01*
X782940Y22012D01*
X782380Y22742D01*
X781649Y23302D01*
X780799Y23655D01*
X779886Y23775D01*
D02*
G37*
G36*
X769886D02*
X768973Y23655D01*
X768122Y23302D01*
X767392Y22742D01*
X766831Y22012D01*
X766479Y21161D01*
X766359Y20248D01*
X766479Y19335D01*
X766831Y18485D01*
X767392Y17754D01*
X768122Y17194D01*
X768973Y16841D01*
X769886Y16721D01*
X770799Y16841D01*
X771649Y17194D01*
X772380Y17754D01*
X772940Y18485D01*
X773293Y19335D01*
X773413Y20248D01*
X773293Y21161D01*
X772940Y22012D01*
X772380Y22742D01*
X771649Y23302D01*
X770799Y23655D01*
X769886Y23775D01*
D02*
G37*
G36*
X759886D02*
X758973Y23655D01*
X758122Y23302D01*
X757392Y22742D01*
X756831Y22012D01*
X756479Y21161D01*
X756359Y20248D01*
X756479Y19335D01*
X756831Y18485D01*
X757392Y17754D01*
X758122Y17194D01*
X758973Y16841D01*
X759886Y16721D01*
X760799Y16841D01*
X761649Y17194D01*
X762380Y17754D01*
X762940Y18485D01*
X763293Y19335D01*
X763413Y20248D01*
X763293Y21161D01*
X762940Y22012D01*
X762380Y22742D01*
X761649Y23302D01*
X760799Y23655D01*
X759886Y23775D01*
D02*
G37*
G36*
X749886D02*
X748973Y23655D01*
X748122Y23302D01*
X747392Y22742D01*
X746831Y22012D01*
X746479Y21161D01*
X746359Y20248D01*
X746479Y19335D01*
X746831Y18485D01*
X747392Y17754D01*
X748122Y17194D01*
X748973Y16841D01*
X749886Y16721D01*
X750799Y16841D01*
X751649Y17194D01*
X752380Y17754D01*
X752940Y18485D01*
X753293Y19335D01*
X753413Y20248D01*
X753293Y21161D01*
X752940Y22012D01*
X752380Y22742D01*
X751649Y23302D01*
X750799Y23655D01*
X749886Y23775D01*
D02*
G37*
G36*
X739886D02*
X738973Y23655D01*
X738122Y23302D01*
X737392Y22742D01*
X736831Y22012D01*
X736479Y21161D01*
X736359Y20248D01*
X736479Y19335D01*
X736831Y18485D01*
X737392Y17754D01*
X738122Y17194D01*
X738973Y16841D01*
X739886Y16721D01*
X740799Y16841D01*
X741649Y17194D01*
X742380Y17754D01*
X742940Y18485D01*
X743293Y19335D01*
X743413Y20248D01*
X743293Y21161D01*
X742940Y22012D01*
X742380Y22742D01*
X741649Y23302D01*
X740799Y23655D01*
X739886Y23775D01*
D02*
G37*
G36*
X729886D02*
X728973Y23655D01*
X728122Y23302D01*
X727392Y22742D01*
X726831Y22012D01*
X726479Y21161D01*
X726359Y20248D01*
X726479Y19335D01*
X726831Y18485D01*
X727392Y17754D01*
X728122Y17194D01*
X728973Y16841D01*
X729886Y16721D01*
X730799Y16841D01*
X731649Y17194D01*
X732380Y17754D01*
X732940Y18485D01*
X733293Y19335D01*
X733413Y20248D01*
X733293Y21161D01*
X732940Y22012D01*
X732380Y22742D01*
X731649Y23302D01*
X730799Y23655D01*
X729886Y23775D01*
D02*
G37*
G36*
X719886D02*
X718973Y23655D01*
X718122Y23302D01*
X717392Y22742D01*
X716831Y22012D01*
X716479Y21161D01*
X716359Y20248D01*
X716479Y19335D01*
X716831Y18485D01*
X717392Y17754D01*
X718122Y17194D01*
X718973Y16841D01*
X719886Y16721D01*
X720799Y16841D01*
X721649Y17194D01*
X722380Y17754D01*
X722940Y18485D01*
X723293Y19335D01*
X723413Y20248D01*
X723293Y21161D01*
X722940Y22012D01*
X722380Y22742D01*
X721649Y23302D01*
X720799Y23655D01*
X719886Y23775D01*
D02*
G37*
G36*
X709886D02*
X708973Y23655D01*
X708122Y23302D01*
X707392Y22742D01*
X706831Y22012D01*
X706479Y21161D01*
X706359Y20248D01*
X706479Y19335D01*
X706831Y18485D01*
X707392Y17754D01*
X708122Y17194D01*
X708973Y16841D01*
X709886Y16721D01*
X710799Y16841D01*
X711649Y17194D01*
X712380Y17754D01*
X712940Y18485D01*
X713293Y19335D01*
X713413Y20248D01*
X713293Y21161D01*
X712940Y22012D01*
X712380Y22742D01*
X711649Y23302D01*
X710799Y23655D01*
X709886Y23775D01*
D02*
G37*
G36*
X689405Y20775D02*
X679162D01*
X679261Y19505D01*
X679653Y17876D01*
X680294Y16329D01*
X681169Y14900D01*
X682257Y13626D01*
X683531Y12539D01*
X684959Y11663D01*
X686507Y11022D01*
X688135Y10631D01*
X689405Y10531D01*
Y20775D01*
D02*
G37*
G36*
X700449D02*
X690205D01*
Y10531D01*
X691475Y10631D01*
X693104Y11022D01*
X694652Y11663D01*
X696080Y12539D01*
X697354Y13626D01*
X698442Y14900D01*
X699317Y16329D01*
X699958Y17876D01*
X700350Y19505D01*
X700449Y20775D01*
D02*
G37*
G36*
X990609Y20774D02*
X980365D01*
Y10530D01*
X981635Y10630D01*
X983263Y11021D01*
X984811Y11662D01*
X986239Y12538D01*
X987513Y13626D01*
X988601Y14899D01*
X989476Y16328D01*
X990117Y17875D01*
X990509Y19504D01*
X990609Y20774D01*
D02*
G37*
G36*
X979565D02*
X969321D01*
X969421Y19504D01*
X969812Y17875D01*
X970453Y16328D01*
X971328Y14899D01*
X972416Y13626D01*
X973690Y12538D01*
X975118Y11662D01*
X976666Y11021D01*
X978294Y10630D01*
X979565Y10530D01*
Y20774D01*
D02*
G37*
%LPD*%
D55*
X957500Y341500D02*
D03*
D63*
X838718Y167330D02*
D03*
Y171661D02*
D03*
Y175991D02*
D03*
Y180322D02*
D03*
X843048Y167330D02*
D03*
Y171661D02*
D03*
Y175991D02*
D03*
Y180322D02*
D03*
X847379Y167330D02*
D03*
Y171661D02*
D03*
Y175991D02*
D03*
Y180322D02*
D03*
X851710Y167330D02*
D03*
Y171661D02*
D03*
Y175991D02*
D03*
Y180322D02*
D03*
X781760Y290500D02*
D03*
X789240D02*
D03*
X785500Y288236D02*
D03*
Y292764D02*
D03*
X843026Y149713D02*
D03*
X757000Y293264D02*
D03*
Y288736D02*
D03*
X760740Y291000D02*
D03*
X753260D02*
D03*
X729468Y293201D02*
D03*
Y288673D02*
D03*
X733209Y290937D02*
D03*
X725728D02*
D03*
D67*
X773500Y65500D02*
X775000Y67000D01*
Y73500D01*
D103*
X809886Y41547D02*
D03*
Y51547D02*
D03*
X819886Y41547D02*
D03*
Y51547D02*
D03*
D104*
X1000500Y179000D02*
D03*
Y159000D02*
D03*
X990500Y179000D02*
D03*
D106*
X670530Y322370D02*
D03*
X998500Y317500D02*
D03*
D107*
X864221Y368130D02*
D03*
X836661D02*
D03*
D108*
X860283Y357500D02*
D03*
X840598D02*
D03*
D109*
X677404Y358575D02*
D03*
X992362Y358579D02*
D03*
X689806Y21175D02*
D03*
X979965Y21174D02*
D03*
D110*
X775000Y73500D02*
D03*
X794500Y74000D02*
D03*
X737500Y101822D02*
D03*
Y70322D02*
D03*
Y133377D02*
D03*
X705859Y66000D02*
D03*
Y128500D02*
D03*
Y97250D02*
D03*
X740000Y214500D02*
D03*
X947988Y285500D02*
D03*
X816000Y192786D02*
D03*
X898500Y166000D02*
D03*
X894000D02*
D03*
X891988Y158476D02*
D03*
X880490Y185030D02*
D03*
X851023Y346737D02*
D03*
Y326390D02*
D03*
Y316217D02*
D03*
Y306044D02*
D03*
Y295871D02*
D03*
Y285697D02*
D03*
Y275524D02*
D03*
Y265351D02*
D03*
Y255178D02*
D03*
Y245004D02*
D03*
Y234831D02*
D03*
X847000Y210500D02*
D03*
X854884Y218608D02*
D03*
X858666Y228052D02*
D03*
Y238225D02*
D03*
Y248399D02*
D03*
Y258572D02*
D03*
Y268745D02*
D03*
Y278918D02*
D03*
Y289091D02*
D03*
Y299265D02*
D03*
Y309438D02*
D03*
Y319611D02*
D03*
Y329784D02*
D03*
Y350131D02*
D03*
X830382Y178747D02*
D03*
X857993Y171756D02*
D03*
X682328Y217747D02*
D03*
X725500Y175500D02*
D03*
X682500Y180039D02*
D03*
X825500Y219000D02*
D03*
X725016Y157991D02*
D03*
X783257Y214147D02*
D03*
X918500Y183000D02*
D03*
X790500Y198500D02*
D03*
X685500Y246500D02*
D03*
X671500Y250000D02*
D03*
X682500Y65851D02*
D03*
Y103851D02*
D03*
X682000Y141500D02*
D03*
X826000Y128500D02*
D03*
Y150000D02*
D03*
X731500Y321500D02*
D03*
X794000Y311680D02*
D03*
X764000Y317500D02*
D03*
X961000Y258173D02*
D03*
X954500Y364970D02*
D03*
Y368500D02*
D03*
X904000Y368000D02*
D03*
Y365500D02*
D03*
X735461Y366854D02*
D03*
X787000Y367000D02*
D03*
X825286Y362052D02*
D03*
X925294Y269562D02*
D03*
X966000Y273000D02*
D03*
X904000Y180500D02*
D03*
X918500Y163000D02*
D03*
X984000Y119000D02*
D03*
X917000D02*
D03*
X806000Y171500D02*
D03*
D111*
X831081Y200700D02*
D03*
X860850Y196975D02*
D03*
M02*
