G04*
G04 #@! TF.GenerationSoftware,Altium Limited,Altium Designer,22.6.1 (34)*
G04*
G04 Layer_Physical_Order=1*
G04 Layer_Color=255*
%FSLAX25Y25*%
%MOIN*%
G70*
G04*
G04 #@! TF.SameCoordinates,44BA9B1E-1016-45A4-B772-E771DC22F3FE*
G04*
G04*
G04 #@! TF.FilePolarity,Positive*
G04*
G01*
G75*
%ADD12C,0.01968*%
%ADD15C,0.00800*%
%ADD19C,0.00500*%
%ADD48C,0.05847*%
G04:AMPARAMS|DCode=49|XSize=23.62mil|YSize=9.45mil|CornerRadius=1.98mil|HoleSize=0mil|Usage=FLASHONLY|Rotation=270.000|XOffset=0mil|YOffset=0mil|HoleType=Round|Shape=RoundedRectangle|*
%AMROUNDEDRECTD49*
21,1,0.02362,0.00548,0,0,270.0*
21,1,0.01965,0.00945,0,0,270.0*
1,1,0.00397,-0.00274,-0.00983*
1,1,0.00397,-0.00274,0.00983*
1,1,0.00397,0.00274,0.00983*
1,1,0.00397,0.00274,-0.00983*
%
%ADD49ROUNDEDRECTD49*%
%ADD55C,0.07900*%
%ADD63C,0.01968*%
%ADD65C,0.00945*%
%ADD66C,0.01181*%
%ADD67C,0.01070*%
%ADD68C,0.01575*%
%ADD69C,0.01100*%
%ADD70C,0.05000*%
%ADD71C,0.02362*%
%ADD72R,0.05906X0.03347*%
G04:AMPARAMS|DCode=73|XSize=17.72mil|YSize=53.15mil|CornerRadius=1.95mil|HoleSize=0mil|Usage=FLASHONLY|Rotation=90.000|XOffset=0mil|YOffset=0mil|HoleType=Round|Shape=RoundedRectangle|*
%AMROUNDEDRECTD73*
21,1,0.01772,0.04925,0,0,90.0*
21,1,0.01382,0.05315,0,0,90.0*
1,1,0.00390,0.02463,0.00691*
1,1,0.00390,0.02463,-0.00691*
1,1,0.00390,-0.02463,-0.00691*
1,1,0.00390,-0.02463,0.00691*
%
%ADD73ROUNDEDRECTD73*%
G04:AMPARAMS|DCode=74|XSize=82.68mil|YSize=118.11mil|CornerRadius=4.96mil|HoleSize=0mil|Usage=FLASHONLY|Rotation=270.000|XOffset=0mil|YOffset=0mil|HoleType=Round|Shape=RoundedRectangle|*
%AMROUNDEDRECTD74*
21,1,0.08268,0.10819,0,0,270.0*
21,1,0.07276,0.11811,0,0,270.0*
1,1,0.00992,-0.05409,-0.03638*
1,1,0.00992,-0.05409,0.03638*
1,1,0.00992,0.05409,0.03638*
1,1,0.00992,0.05409,-0.03638*
%
%ADD74ROUNDEDRECTD74*%
G04:AMPARAMS|DCode=75|XSize=31.5mil|YSize=62.99mil|CornerRadius=3.94mil|HoleSize=0mil|Usage=FLASHONLY|Rotation=270.000|XOffset=0mil|YOffset=0mil|HoleType=Round|Shape=RoundedRectangle|*
%AMROUNDEDRECTD75*
21,1,0.03150,0.05512,0,0,270.0*
21,1,0.02362,0.06299,0,0,270.0*
1,1,0.00787,-0.02756,-0.01181*
1,1,0.00787,-0.02756,0.01181*
1,1,0.00787,0.02756,0.01181*
1,1,0.00787,0.02756,-0.01181*
%
%ADD75ROUNDEDRECTD75*%
%ADD76R,0.01400X0.05800*%
%ADD77R,0.05906X0.05906*%
%ADD78R,0.07087X0.03937*%
%ADD79R,0.00984X0.02657*%
%ADD80R,0.02657X0.00984*%
%ADD81R,0.08661X0.05512*%
%ADD82R,0.03543X0.05512*%
%ADD83R,0.05906X0.03937*%
%ADD84R,0.08268X0.08268*%
%ADD85R,0.04724X0.01772*%
%ADD86O,0.01181X0.03347*%
%ADD87O,0.03347X0.01181*%
%ADD88R,0.18898X0.18898*%
%ADD89R,0.08700X0.02400*%
%ADD90R,0.03543X0.03543*%
G04:AMPARAMS|DCode=91|XSize=34.45mil|YSize=37.4mil|CornerRadius=4.31mil|HoleSize=0mil|Usage=FLASHONLY|Rotation=270.000|XOffset=0mil|YOffset=0mil|HoleType=Round|Shape=RoundedRectangle|*
%AMROUNDEDRECTD91*
21,1,0.03445,0.02879,0,0,270.0*
21,1,0.02584,0.03740,0,0,270.0*
1,1,0.00861,-0.01440,-0.01292*
1,1,0.00861,-0.01440,0.01292*
1,1,0.00861,0.01440,0.01292*
1,1,0.00861,0.01440,-0.01292*
%
%ADD91ROUNDEDRECTD91*%
%ADD92R,0.05200X0.02200*%
%ADD93R,0.05512X0.03937*%
G04:AMPARAMS|DCode=94|XSize=45.28mil|YSize=55.12mil|CornerRadius=4.98mil|HoleSize=0mil|Usage=FLASHONLY|Rotation=90.000|XOffset=0mil|YOffset=0mil|HoleType=Round|Shape=RoundedRectangle|*
%AMROUNDEDRECTD94*
21,1,0.04528,0.04516,0,0,90.0*
21,1,0.03532,0.05512,0,0,90.0*
1,1,0.00996,0.02258,0.01766*
1,1,0.00996,0.02258,-0.01766*
1,1,0.00996,-0.02258,-0.01766*
1,1,0.00996,-0.02258,0.01766*
%
%ADD94ROUNDEDRECTD94*%
%ADD95R,0.08268X0.11811*%
%ADD96R,0.03150X0.06299*%
G04:AMPARAMS|DCode=97|XSize=34.45mil|YSize=37.4mil|CornerRadius=4.31mil|HoleSize=0mil|Usage=FLASHONLY|Rotation=0.000|XOffset=0mil|YOffset=0mil|HoleType=Round|Shape=RoundedRectangle|*
%AMROUNDEDRECTD97*
21,1,0.03445,0.02879,0,0,0.0*
21,1,0.02584,0.03740,0,0,0.0*
1,1,0.00861,0.01292,-0.01440*
1,1,0.00861,-0.01292,-0.01440*
1,1,0.00861,-0.01292,0.01440*
1,1,0.00861,0.01292,0.01440*
%
%ADD97ROUNDEDRECTD97*%
%ADD98R,0.02400X0.08700*%
%ADD99C,0.03150*%
%ADD100C,0.02500*%
%ADD101C,0.02000*%
%ADD102R,0.05394X0.05394*%
%ADD103C,0.05394*%
%ADD104C,0.05118*%
%ADD105C,0.07400*%
%ADD106R,0.07400X0.07400*%
%ADD107O,0.03051X0.06102*%
%ADD108O,0.05118X0.02559*%
%ADD109C,0.19685*%
%ADD110C,0.02299*%
%ADD111C,0.02300*%
%ADD112C,0.05000*%
G36*
X724941Y294185D02*
X724902D01*
X724829Y294155D01*
X724774Y294100D01*
X724744Y294027D01*
Y293988D01*
X724744D01*
Y292413D01*
X722972Y292413D01*
X722933D01*
X722861Y292383D01*
X722806Y292328D01*
X722776Y292256D01*
Y292216D01*
Y292216D01*
X722776Y291626D01*
X722776Y291587D01*
X722806Y291514D01*
X722861Y291459D01*
X722933Y291429D01*
X722972Y291429D01*
X722972D01*
X724744Y291429D01*
Y290445D01*
X722972D01*
X722933Y290445D01*
X722861Y290415D01*
X722806Y290359D01*
X722776Y290287D01*
Y290248D01*
X722776D01*
Y289657D01*
Y289618D01*
X722806Y289546D01*
X722861Y289491D01*
X722933Y289461D01*
X722972D01*
X722972D01*
X724744Y289461D01*
X724744Y287886D01*
Y287847D01*
X724774Y287774D01*
X724829Y287719D01*
X724902Y287689D01*
X724941D01*
D01*
X733996D01*
X734035D01*
X734107Y287719D01*
X734163Y287774D01*
X734193Y287847D01*
Y287886D01*
X734193Y287886D01*
Y289461D01*
X735965Y289461D01*
X736004D01*
X736076Y289491D01*
X736131Y289546D01*
X736161Y289618D01*
Y289657D01*
X736161D01*
Y290248D01*
X736161Y290287D01*
X736131Y290359D01*
X736076Y290415D01*
X736004Y290445D01*
X735965Y290445D01*
Y290445D01*
X734193Y290445D01*
Y291429D01*
X735965Y291429D01*
X736004Y291429D01*
X736076Y291459D01*
X736131Y291514D01*
X736161Y291587D01*
X736161Y291626D01*
Y291626D01*
X736161Y292216D01*
Y292256D01*
X736131Y292328D01*
X736076Y292383D01*
X736004Y292413D01*
X735965D01*
Y292413D01*
X734193Y292413D01*
X734193Y293988D01*
Y294027D01*
X734163Y294100D01*
X734107Y294155D01*
X734035Y294185D01*
X733996D01*
X733996Y294185D01*
X724941Y294185D01*
D02*
G37*
G36*
X752472Y294248D02*
X752433D01*
X752361Y294218D01*
X752306Y294163D01*
X752276Y294090D01*
Y294051D01*
X752276D01*
Y292476D01*
X750504Y292476D01*
X750465D01*
X750392Y292446D01*
X750337Y292391D01*
X750307Y292319D01*
Y292280D01*
Y292280D01*
X750307Y291689D01*
X750307Y291650D01*
X750337Y291578D01*
X750392Y291522D01*
X750465Y291492D01*
X750504Y291492D01*
X750504D01*
X752276Y291492D01*
Y290508D01*
X750504D01*
X750465Y290508D01*
X750392Y290478D01*
X750337Y290423D01*
X750307Y290350D01*
Y290311D01*
X750307D01*
Y289721D01*
Y289681D01*
X750337Y289609D01*
X750392Y289554D01*
X750465Y289524D01*
X750504D01*
X750504D01*
X752276Y289524D01*
X752276Y287949D01*
Y287910D01*
X752306Y287837D01*
X752361Y287782D01*
X752433Y287752D01*
X752472D01*
D01*
X761527D01*
X761567D01*
X761639Y287782D01*
X761694Y287837D01*
X761724Y287910D01*
Y287949D01*
X761724Y287949D01*
Y289524D01*
X763496Y289524D01*
X763535D01*
X763608Y289554D01*
X763663Y289609D01*
X763693Y289681D01*
Y289721D01*
X763693D01*
Y290311D01*
X763693Y290350D01*
X763663Y290423D01*
X763608Y290478D01*
X763535Y290508D01*
X763496Y290508D01*
Y290508D01*
X761724Y290508D01*
Y291492D01*
X763496Y291492D01*
X763535Y291492D01*
X763608Y291522D01*
X763663Y291578D01*
X763693Y291650D01*
X763693Y291689D01*
Y291689D01*
X763693Y292280D01*
Y292319D01*
X763663Y292391D01*
X763608Y292446D01*
X763535Y292476D01*
X763496D01*
Y292476D01*
X761724Y292476D01*
X761724Y294051D01*
Y294090D01*
X761694Y294163D01*
X761639Y294218D01*
X761567Y294248D01*
X761527D01*
X761528Y294248D01*
X752472Y294248D01*
D02*
G37*
G36*
X780972Y293748D02*
X780933D01*
X780861Y293718D01*
X780806Y293663D01*
X780776Y293590D01*
Y293551D01*
X780776D01*
Y291976D01*
X779004Y291976D01*
X778965D01*
X778892Y291946D01*
X778837Y291891D01*
X778807Y291819D01*
Y291779D01*
Y291779D01*
X778807Y291189D01*
X778807Y291150D01*
X778837Y291077D01*
X778892Y291022D01*
X778965Y290992D01*
X779004Y290992D01*
X779004D01*
X780776Y290992D01*
Y290008D01*
X779004D01*
X778965Y290008D01*
X778892Y289978D01*
X778837Y289922D01*
X778807Y289850D01*
Y289811D01*
X778807D01*
Y289220D01*
Y289181D01*
X778837Y289109D01*
X778892Y289054D01*
X778965Y289024D01*
X779004D01*
X779004D01*
X780776Y289024D01*
X780776Y287449D01*
Y287410D01*
X780806Y287337D01*
X780861Y287282D01*
X780933Y287252D01*
X780972D01*
D01*
X790028D01*
X790067D01*
X790139Y287282D01*
X790194Y287337D01*
X790224Y287410D01*
Y287449D01*
X790224Y287449D01*
Y289024D01*
X791996Y289024D01*
X792035D01*
X792108Y289054D01*
X792163Y289109D01*
X792193Y289181D01*
Y289220D01*
X792193D01*
Y289811D01*
X792193Y289850D01*
X792163Y289922D01*
X792108Y289978D01*
X792035Y290008D01*
X791996Y290008D01*
Y290008D01*
X790224Y290008D01*
Y290992D01*
X791996Y290992D01*
X792035Y290992D01*
X792108Y291022D01*
X792163Y291077D01*
X792193Y291150D01*
X792193Y291189D01*
Y291189D01*
X792193Y291779D01*
Y291819D01*
X792163Y291891D01*
X792108Y291946D01*
X792035Y291976D01*
X791996D01*
Y291976D01*
X790224Y291976D01*
X790224Y293551D01*
Y293590D01*
X790194Y293663D01*
X790139Y293718D01*
X790067Y293748D01*
X790028D01*
X790028Y293748D01*
X780972Y293748D01*
D02*
G37*
D12*
X767000Y105750D02*
Y134000D01*
Y77500D02*
Y105750D01*
X769737Y77500D02*
X772000Y75237D01*
X767000Y77500D02*
X769737D01*
X763445Y73945D02*
X767000Y77500D01*
X737500Y73945D02*
X763445D01*
X764000Y137000D02*
X767000Y134000D01*
X737500Y137000D02*
X764000D01*
X736221D02*
X737500D01*
X989870Y79000D02*
Y89000D01*
X761469Y239732D02*
Y244063D01*
X747469Y240232D02*
Y244563D01*
X961050Y267434D02*
Y273486D01*
Y267150D02*
Y267434D01*
X961000Y267100D02*
X961050Y267150D01*
Y273486D02*
X961100Y273536D01*
D15*
X887067Y157803D02*
X887087Y157803D01*
X891158Y157933D02*
X891714Y158185D01*
X817688Y170111D02*
X817724Y170144D01*
X918500Y165895D02*
X918269Y166457D01*
X820664Y150027D02*
X820867Y150001D01*
X794031Y233531D02*
X808500Y248000D01*
X760856Y233531D02*
X794031D01*
X808500Y248000D02*
X833000D01*
X870500Y210500D01*
X894500D02*
X900500Y204500D01*
X870500Y210500D02*
X894500D01*
X887040Y157803D02*
X887067D01*
X885078Y157739D02*
X887040Y157803D01*
X887087Y157803D02*
X891158Y157933D01*
X891714Y158185D02*
X891988Y158476D01*
X817133Y169631D02*
X817688Y170111D01*
X817727Y170147D02*
X818453Y170873D01*
X817724Y170144D02*
X817727Y170147D01*
X818453Y170873D02*
X827694D01*
X911130Y119000D02*
X917000D01*
X984000Y119000D02*
X989870D01*
X989870Y119000D01*
X917000D02*
X917000Y119000D01*
X788156Y198500D02*
X790500D01*
X786785Y198476D02*
X788156Y198500D01*
X685524Y246524D02*
X689818D01*
X689842Y246548D01*
X685500Y246500D02*
X685524Y246524D01*
X671242Y253804D02*
X671500Y253546D01*
Y250000D02*
Y253546D01*
X918266Y166461D02*
X918269Y166457D01*
X820867Y150001D02*
X826000Y150000D01*
X819326Y150387D02*
X820664Y150027D01*
X794568Y360625D02*
Y365432D01*
X793000Y367000D02*
X794568Y365432D01*
X787000Y367000D02*
X793000D01*
X961050Y267434D02*
X961300Y268392D01*
X960965Y267109D02*
X961050Y267434D01*
X960950Y267050D02*
X960965Y267109D01*
X960950Y267050D02*
X961000Y267100D01*
X960900Y267000D02*
X960950Y267050D01*
X961100Y273536D02*
X961300Y273336D01*
X956500Y267000D02*
X960900D01*
X918500Y165895D02*
X918500Y163000D01*
X918214Y166512D02*
X918266Y166461D01*
X806000Y175213D02*
X806113Y175326D01*
X806000Y171500D02*
Y175213D01*
X770643Y198476D02*
X786785D01*
X806113Y175326D02*
Y181326D01*
D19*
X749886Y160000D02*
X750000Y160114D01*
D48*
X785500Y290500D02*
D03*
X757000Y291000D02*
D03*
X729468Y290937D02*
D03*
D49*
X789437Y284988D02*
D03*
X787468D02*
D03*
X785500D02*
D03*
X783532D02*
D03*
X781563D02*
D03*
Y296012D02*
D03*
X783532D02*
D03*
X785500D02*
D03*
X787468D02*
D03*
X789437D02*
D03*
X760937Y296512D02*
D03*
X758968D02*
D03*
X757000D02*
D03*
X755031D02*
D03*
X753063D02*
D03*
Y285488D02*
D03*
X755031D02*
D03*
X757000D02*
D03*
X758968D02*
D03*
X760937D02*
D03*
X733405Y296449D02*
D03*
X731437D02*
D03*
X729468D02*
D03*
X727500D02*
D03*
X725531D02*
D03*
Y285425D02*
D03*
X727500D02*
D03*
X729468D02*
D03*
X731437D02*
D03*
X733405D02*
D03*
D55*
X887500Y311500D02*
D03*
X927500D02*
D03*
X957500D02*
D03*
Y341500D02*
D03*
X887500D02*
D03*
D63*
X838718Y167330D02*
D03*
Y171661D02*
D03*
Y175991D02*
D03*
Y180322D02*
D03*
X843048Y167330D02*
D03*
Y171661D02*
D03*
Y175991D02*
D03*
Y180322D02*
D03*
X847379Y167330D02*
D03*
Y171661D02*
D03*
Y175991D02*
D03*
Y180322D02*
D03*
X851710Y167330D02*
D03*
Y171661D02*
D03*
Y175991D02*
D03*
Y180322D02*
D03*
X781760Y290500D02*
D03*
X789240D02*
D03*
X785500Y288236D02*
D03*
Y292764D02*
D03*
X843026Y149713D02*
D03*
X757000Y293264D02*
D03*
Y288736D02*
D03*
X760740Y291000D02*
D03*
X753260D02*
D03*
X729468Y293201D02*
D03*
Y288673D02*
D03*
X733209Y290937D02*
D03*
X725728D02*
D03*
D65*
X809887Y245500D02*
X809225Y245225D01*
X794109Y230500D02*
X794775Y230775D01*
X890307Y199673D02*
X890468Y199000D01*
X897188Y188647D02*
X897768Y188448D01*
X894464Y190920D02*
X894462Y190966D01*
X894464Y190920D02*
X894999Y189997D01*
X895953Y189425D02*
X895900Y189458D01*
X909109Y335000D02*
X909777Y335277D01*
X826891Y335000D02*
X826223Y334723D01*
X789679Y298179D02*
X789405Y297518D01*
X754788Y282422D02*
X755031Y283055D01*
X773799Y276907D02*
X774466Y277182D01*
X781289Y284006D02*
X781563Y284671D01*
X772329Y272510D02*
X772588Y272694D01*
X793831Y331669D02*
X793164Y331945D01*
X755163Y337556D02*
X754886Y336913D01*
X754788Y333148D02*
X754787Y333118D01*
X754886Y308033D02*
X755051Y307502D01*
X755292Y307151D02*
X755630Y306783D01*
X756968Y305240D02*
X756622Y305972D01*
X810334Y153039D02*
X810335Y152987D01*
X756968Y299583D02*
X756968Y299573D01*
X753063Y291573D02*
X753260Y291000D01*
X785500Y300430D02*
X785223Y301098D01*
X764223Y346617D02*
X764500Y347285D01*
X758937Y299583D02*
X758937Y299573D01*
X931343Y353049D02*
X931619Y352381D01*
X935650Y347958D02*
X935375Y348625D01*
X922598Y333500D02*
X923253Y333764D01*
X716507Y316884D02*
X716784Y316216D01*
X729468Y303140D02*
X729193Y303806D01*
X725531Y284950D02*
X725531Y284955D01*
X783242Y308764D02*
X783472Y308434D01*
X787428Y303988D02*
X787085Y304821D01*
X787428Y299188D02*
X787430Y299117D01*
X787430Y298739D02*
X787428Y298668D01*
X787430Y298739D02*
X787430Y299117D01*
X762000Y230500D02*
X794109D01*
X809891Y245500D02*
X832250D01*
X794775Y230775D02*
X809225Y245225D01*
X809887Y245500D02*
X809891Y245500D01*
X750000Y184000D02*
Y218500D01*
X762000Y230500D01*
X832250Y245500D02*
X869250Y208500D01*
X893000D01*
X890468Y199000D02*
X893134D01*
X890468D02*
X890468D01*
X893000Y208500D02*
X893962Y207538D01*
Y198538D02*
Y207538D01*
X890307Y199673D02*
X890307Y199673D01*
X890307Y199673D02*
X890403Y200373D01*
X890100Y199000D02*
X890468D01*
X893134D02*
X893595Y198538D01*
X893962D01*
X894026Y197569D02*
X894462Y190966D01*
X893962Y198538D02*
X894026Y197569D01*
X894999Y189997D02*
X895900Y189458D01*
X895953Y189425D02*
X897188Y188647D01*
X897768Y188448D02*
X899230Y188302D01*
X862733Y174810D02*
X873444D01*
X874633Y176000D01*
X875000D01*
X862779Y162954D02*
X884863D01*
X862733Y162999D02*
X862779Y162954D01*
X884863D02*
X885078Y162739D01*
X909777Y335277D02*
X921500Y347000D01*
X789679Y298179D02*
X826223Y334723D01*
X826891Y335000D02*
X909109Y335000D01*
X839887Y333500D02*
X839891Y333500D01*
X839887Y333500D02*
X839887D01*
X829000D02*
X839887D01*
X809500Y314000D02*
X829000Y333500D01*
X839891Y333500D02*
X922598D01*
X789405Y295949D02*
Y297518D01*
X761370Y252035D02*
X761469D01*
X760976D02*
X761370D01*
X760947Y252065D02*
X760976Y252035D01*
X733405Y279606D02*
X760947Y252065D01*
X733405Y279606D02*
Y285425D01*
X787468Y281469D02*
Y284988D01*
X779944Y273944D02*
X787468Y281469D01*
X761469Y252035D02*
X761961D01*
X789437Y279512D02*
Y284988D01*
X779669Y273944D02*
X779944D01*
X761961Y252035D02*
X789437Y279512D01*
X760937Y298896D02*
X761677Y299636D01*
X760937Y296512D02*
Y298896D01*
X761677Y299636D02*
Y300003D01*
X749000Y275500D02*
Y280716D01*
X753063Y284780D02*
Y285488D01*
X749000Y280716D02*
X753063Y284780D01*
X758937Y277780D02*
Y284925D01*
X760937Y252567D02*
Y285488D01*
X758284Y276760D02*
Y277126D01*
X753163Y280625D02*
X754788Y282422D01*
X758284Y277126D02*
X758937Y277780D01*
X755031Y283055D02*
Y285488D01*
X772588Y272694D02*
X783532Y283638D01*
Y284988D02*
X785500D01*
X781563Y284671D02*
Y284988D01*
X774466Y277182D02*
X781289Y284006D01*
X771647Y276907D02*
X773799D01*
X771388Y276648D02*
X771647Y276907D01*
X760937Y252567D02*
X761469Y252035D01*
X793831Y331669D02*
X794000Y331500D01*
X781500Y331945D02*
X793164D01*
X754788Y333148D02*
X754886Y336913D01*
X754787Y322882D02*
Y333118D01*
Y322882D02*
X754886Y308033D01*
X755163Y337556D02*
X764223Y346617D01*
X755051Y307502D02*
X755292Y307151D01*
X755630Y306783D02*
X756622Y305972D01*
X756968Y305240D02*
X756968D01*
Y299583D02*
Y305240D01*
X984500Y89000D02*
X989870D01*
X989870Y89000D01*
X985500Y109000D02*
X989870D01*
X989870Y109000D01*
X810335Y152987D02*
X810500Y150000D01*
X810334Y153039D02*
Y153806D01*
X810314Y153826D02*
X810334Y153806D01*
X769794Y271287D02*
X772329Y272510D01*
X783532Y283638D02*
Y284988D01*
X782878Y298507D02*
X783532Y297853D01*
Y296012D02*
Y297853D01*
X782878Y298507D02*
Y298873D01*
X727500Y296449D02*
Y298290D01*
X726847Y298944D02*
X727500Y298290D01*
X726847Y298944D02*
Y299310D01*
X741000Y307500D02*
Y311143D01*
X755031Y296512D02*
Y298340D01*
X754349Y299023D02*
Y299389D01*
Y299023D02*
X755031Y298340D01*
X757000Y296512D02*
Y297220D01*
X756968Y299573D02*
X757000Y297220D01*
X753260Y291000D02*
X753260Y291000D01*
X753063Y291573D02*
Y296512D01*
X728531Y288673D02*
X729468D01*
X781563Y290974D02*
X781760Y290777D01*
X781563Y290974D02*
Y296012D01*
X781760Y290500D02*
Y290777D01*
X725728Y290937D02*
Y291214D01*
X725531Y291411D02*
Y296449D01*
Y291411D02*
X725728Y291214D01*
X727500Y286705D02*
X728531Y287735D01*
Y288673D02*
X728531Y288673D01*
X727500Y285425D02*
Y286705D01*
X728531Y287735D02*
Y288673D01*
X729468Y285425D02*
Y288673D01*
X757000Y285488D02*
Y288736D01*
X784688Y301634D02*
X785223Y301098D01*
X785500Y296012D02*
Y300430D01*
X764500Y347285D02*
Y351390D01*
X758937Y299573D02*
X758968Y297220D01*
Y296512D02*
Y297220D01*
X758937Y299583D02*
Y308709D01*
X759000Y310500D01*
X931343Y353049D02*
Y356000D01*
X935650Y346742D02*
Y347958D01*
X931619Y352381D02*
X935375Y348625D01*
X923253Y333764D02*
X936193Y346200D01*
X935650Y346742D02*
X936193Y346200D01*
X923252Y333763D02*
X923253Y333764D01*
X936193Y346200D02*
Y355929D01*
X936264Y356000D01*
X784688Y301634D02*
Y302000D01*
X716784Y316216D02*
X729193Y303806D01*
X716507Y316884D02*
Y351342D01*
X729468Y296449D02*
Y303140D01*
X716507Y351342D02*
X718882Y353716D01*
Y355291D01*
X716335Y351342D02*
X716507D01*
X713961Y353716D02*
X716335Y351342D01*
X713961Y353716D02*
Y355291D01*
X764500Y351705D02*
X766803Y354008D01*
Y355583D01*
X764500Y351390D02*
Y351705D01*
X761882Y354008D02*
X764500Y351390D01*
X761882Y354008D02*
Y355583D01*
X731437Y296449D02*
Y308264D01*
X731439Y310054D01*
X733405Y300406D02*
X735500Y302500D01*
X733405Y296449D02*
Y300406D01*
X725531Y284955D02*
Y285425D01*
X725500Y278000D02*
X725531Y284950D01*
X730784Y280867D02*
X731437Y281520D01*
Y285425D01*
X730784Y280500D02*
Y280867D01*
X781468Y310437D02*
X783242Y308764D01*
X783472Y308434D02*
X787085Y304821D01*
X787428Y299188D02*
Y303988D01*
Y295958D02*
Y298668D01*
D66*
X808122Y114991D02*
X808140Y115009D01*
X834011Y117000D02*
X834846Y117346D01*
X850135Y155204D02*
X850135Y155224D01*
X833511Y119500D02*
X834343Y119843D01*
X839951Y125451D02*
X840292Y126282D01*
X789989Y119500D02*
X789154Y119154D01*
X831476Y125085D02*
X832170Y125310D01*
X784773Y100600D02*
X785090Y101406D01*
X782217Y92913D02*
X782707Y93207D01*
X685840Y218253D02*
X685667Y218241D01*
X845829Y146329D02*
X846173Y147162D01*
X882825Y199000D02*
X883053Y199023D01*
X882819Y199000D02*
X883053Y199023D01*
X801714Y192100D02*
X801580Y192632D01*
X753971Y240420D02*
X754246Y239754D01*
X753971Y245547D02*
X753696Y246209D01*
X749439Y250547D02*
X749624Y250282D01*
X760893Y252065D02*
X761363Y251937D01*
X760703Y252210D02*
X760893Y252065D01*
X837910Y208524D02*
X837799Y208622D01*
X826168Y164926D02*
X826275Y164939D01*
X826611Y172842D02*
X826581Y172842D01*
X826605Y164968D02*
X826280Y164940D01*
X838324Y155211D02*
X838324Y155224D01*
X760195Y233805D02*
X760856Y233531D01*
X759852Y251239D02*
X760976Y251549D01*
X856613Y181000D02*
X856806Y181054D01*
X831841Y161130D02*
X831490Y161593D01*
X831388Y161683D02*
X831487Y161596D01*
X854638Y146732D02*
X854694Y146671D01*
X902025Y99341D02*
X902848Y99000D01*
X900018Y103841D02*
X900841Y103500D01*
X918500Y102405D02*
X918176Y103180D01*
X917400Y103500D01*
X861383Y182684D02*
X860969Y182609D01*
X852104Y218407D02*
X851757Y219243D01*
X850135Y215384D02*
X849799Y216209D01*
X918178Y96048D02*
X918500Y96826D01*
X926078Y351578D02*
X926421Y352411D01*
X754246Y239754D02*
X760195Y233805D01*
X838000Y75296D02*
Y82500D01*
X808140Y115009D02*
X810131Y117000D01*
X805000Y112000D02*
X808122Y114991D01*
X810131Y117000D02*
X834011D01*
X795926Y130074D02*
X796000Y130000D01*
X798676Y134324D02*
X802000Y131000D01*
X798676Y134324D02*
Y202823D01*
X821154Y194047D02*
Y203645D01*
X795926Y130074D02*
Y202823D01*
X802103Y209000D01*
X815799D01*
X821154Y203645D01*
X819352Y193066D02*
Y202036D01*
X798676Y202823D02*
X802853Y207000D01*
X814388D01*
X819352Y202036D01*
X826611Y188590D02*
X827694D01*
X821154Y194047D02*
X826611Y188590D01*
X819352Y193066D02*
X825796Y186621D01*
X827694D01*
X847309Y161370D02*
X852370D01*
X852500Y161500D01*
X846198Y160259D02*
X847309Y161370D01*
X846198Y156306D02*
Y160259D01*
X834846Y117346D02*
X842333Y124833D01*
Y137708D01*
X848166Y143542D01*
Y156306D01*
X831500Y92000D02*
X854000Y114500D01*
X811000Y92000D02*
X831500D01*
X835000Y78000D02*
Y82500D01*
X824000Y67000D02*
X835000Y78000D01*
X826704Y64000D02*
X838000Y75296D01*
X794000Y64000D02*
X826704D01*
X795000Y67000D02*
X824000D01*
X854000Y114500D02*
Y144914D01*
X852104Y146810D02*
Y156306D01*
Y146810D02*
X854000Y144914D01*
X850135Y155224D02*
Y156306D01*
X850000Y141500D02*
X850135Y155204D01*
X799000Y114000D02*
X799303D01*
X799803Y113500D02*
X799908D01*
X800600Y104100D02*
Y112808D01*
X799303Y114000D02*
X799803Y113500D01*
X799908D02*
X800600Y112808D01*
X789989Y119500D02*
X833511D01*
X834343Y119843D02*
X839951Y125451D01*
X840292Y126282D02*
Y156306D01*
X781290Y111290D02*
X789154Y119154D01*
X838324Y155224D02*
Y156306D01*
Y126949D02*
Y155224D01*
X790300Y110497D02*
X791500Y111697D01*
X790300Y104100D02*
Y110497D01*
X791500Y111697D02*
Y112000D01*
X797000Y122240D02*
X797240Y122000D01*
X833375D01*
X838324Y126949D01*
X832170Y125310D02*
X834500Y127000D01*
X788188Y125085D02*
X831476D01*
X780000Y110000D02*
X781290Y111290D01*
Y109786D02*
Y111290D01*
Y109786D02*
X782700Y108376D01*
X780000Y110000D02*
X780214Y109786D01*
X781290D01*
X782700Y104100D02*
Y108376D01*
X790300Y99700D02*
X791000Y99000D01*
X790300Y99700D02*
Y104100D01*
X727000Y146000D02*
X767273D01*
X788188Y125085D01*
X749886Y79310D02*
Y100218D01*
X758746Y79310D02*
Y100123D01*
X780500Y96000D02*
X784773Y100600D01*
X785090Y101406D02*
X785090Y101406D01*
Y103991D01*
X776000Y91000D02*
X782217Y92913D01*
X782707Y93207D02*
X787800Y98300D01*
X790300Y71700D02*
X795000Y67000D01*
X790300Y71700D02*
Y81900D01*
X787800Y70200D02*
X794000Y64000D01*
X787800Y70200D02*
Y81900D01*
X780500Y73500D02*
X782700Y75700D01*
Y81900D01*
X791000Y87500D02*
X797949D01*
X800490Y84958D01*
Y82010D02*
X800600Y81900D01*
X800490Y82010D02*
Y84958D01*
X786000Y90000D02*
X795500Y99500D01*
Y104100D01*
X787800Y98300D02*
Y104100D01*
X785090Y103991D02*
X785200Y104100D01*
X773500Y99000D02*
X775449D01*
X777390Y100942D01*
Y103991D01*
X777500Y104100D01*
X772400D02*
X775000D01*
X780100D02*
X782700D01*
X790300D02*
X792900D01*
X798000D02*
X800600D01*
X797972Y82010D02*
X798000Y82038D01*
X795500Y81900D02*
X795610Y82010D01*
X798000Y81900D02*
Y82038D01*
X795610Y82010D02*
X797972D01*
X682328Y217747D02*
X685667Y218241D01*
X686663Y218253D02*
X686949Y218539D01*
X685840Y218253D02*
X686663D01*
X846173Y147162D02*
Y152036D01*
X883053Y199000D02*
X883900D01*
X883053Y199023D02*
Y199023D01*
X882825Y199000D02*
X883900D01*
X890500Y173500D02*
Y179116D01*
X890314Y179302D02*
X890500Y179116D01*
X889739Y172739D02*
X890500Y173500D01*
X885078Y172739D02*
X889739D01*
X884000Y192302D02*
Y199309D01*
X880500Y199000D02*
X882819D01*
X871908Y180716D02*
X873350Y182158D01*
X871751Y176779D02*
X874185Y179213D01*
X873350Y182158D02*
X873405D01*
X874713Y179213D02*
X875000Y179500D01*
X874185Y179213D02*
X874713D01*
X827694Y182684D02*
X831139D01*
X819808D02*
X827694D01*
X812314Y190178D02*
X819808Y182684D01*
X801714Y191786D02*
Y192093D01*
X801714Y192100D02*
X801714Y192093D01*
X812195Y193200D02*
Y197370D01*
X801500Y192786D02*
X801580Y192632D01*
X801714Y191786D02*
X803174Y190326D01*
X806113D01*
X904936Y166514D02*
X906161Y167739D01*
X904014Y166300D02*
X904228Y166514D01*
X906161Y167739D02*
X907637D01*
X904228Y166514D02*
X904936D01*
X913643Y172857D02*
X918070D01*
X918214Y172713D01*
X913500Y173000D02*
X913643Y172857D01*
X907768Y172870D02*
X913370D01*
X907637Y172739D02*
X907768Y172870D01*
X913370D02*
X913500Y173000D01*
X884976Y172842D02*
X885078Y172739D01*
X862733Y172842D02*
X884976D01*
X867804Y176779D02*
X871751D01*
X867804Y176779D02*
X867804Y176779D01*
X862733Y176779D02*
X867804D01*
X871937Y165740D02*
X872000D01*
X871165Y164968D02*
X871937Y165740D01*
X862733Y164968D02*
X871165D01*
X882981Y180582D02*
X884113Y179302D01*
X881449Y182083D02*
X882981Y180582D01*
X753971Y240420D02*
Y245543D01*
X753971Y245547D02*
X753971Y245543D01*
X747469Y252437D02*
X749439Y250547D01*
X749439Y250547D01*
X756547Y252065D02*
X760893D01*
X760947D01*
X761370Y252035D02*
X761469Y251937D01*
X761363D02*
X761469D01*
X747469Y252535D02*
Y256768D01*
Y252437D02*
Y252535D01*
X868429Y168105D02*
X868732D01*
X867260Y166936D02*
X868429Y168105D01*
X862733Y166936D02*
X867260D01*
X834065Y211509D02*
X837798Y208623D01*
X831081Y194865D02*
Y200699D01*
X831081Y200700D02*
X831081Y200699D01*
X836355Y193244D02*
X836707Y193595D01*
Y195786D02*
X836921Y196000D01*
X836355Y191346D02*
Y193244D01*
X836707Y193595D02*
Y195786D01*
X829546Y193332D02*
Y198189D01*
X830450Y192000D02*
Y192428D01*
X834387Y191346D02*
Y193244D01*
X827644Y200091D02*
X829546Y198189D01*
X834036Y193595D02*
X834387Y193244D01*
X834036Y193595D02*
Y195786D01*
X833822Y196000D02*
X834036Y195786D01*
X837910Y208524D02*
X837910Y208524D01*
X838324Y191346D02*
Y193528D01*
X832419Y191346D02*
Y193528D01*
X837798Y208623D02*
X837799Y208622D01*
X838324Y193528D02*
X839661Y194865D01*
X831081D02*
X832419Y193528D01*
X839661Y194865D02*
Y206773D01*
X829546Y193332D02*
X830450Y192428D01*
X837910Y208524D02*
X839661Y206773D01*
X842261Y191346D02*
Y208491D01*
X827432Y200302D02*
X827644Y200091D01*
X820509Y164252D02*
Y164478D01*
X826168Y164926D01*
X826275Y164939D02*
X826280Y164940D01*
X816634Y172690D02*
X826581Y172842D01*
X842261Y150721D02*
X843026Y149956D01*
X842261Y150721D02*
Y156306D01*
X843026Y149713D02*
Y149956D01*
X844500Y145000D02*
X845829Y146329D01*
X844230Y153979D02*
X846173Y152036D01*
X844230Y153979D02*
Y156306D01*
X835159Y153077D02*
X836355Y154274D01*
X832419Y138383D02*
Y156306D01*
X828401Y134365D02*
X832419Y138383D01*
X835159Y152775D02*
Y153077D01*
X749624Y250282D02*
X753696Y246209D01*
X761340Y252065D02*
X761370Y252035D01*
X760947Y252065D02*
X761340D01*
X860969Y182609D02*
X860970Y182609D01*
X856806Y181054D02*
X860969Y182609D01*
X759886Y160000D02*
Y183886D01*
X760000Y184000D01*
X812314Y181326D02*
X812924Y180716D01*
X817033D01*
X831487Y161596D02*
X831490Y161593D01*
X830072Y162999D02*
X831388Y161683D01*
X817803Y162000D02*
X818772Y161031D01*
X827694D01*
X826611Y164968D02*
X827694D01*
X826605Y164968D02*
X826611Y164968D01*
X827694Y162999D02*
X830072D01*
X826611Y172842D02*
X827694D01*
X812195Y190298D02*
Y193200D01*
Y190298D02*
X812314Y190178D01*
X812075Y197489D02*
X812195Y197370D01*
X812314Y190178D02*
Y190326D01*
X833601Y177703D02*
Y180222D01*
X831139Y182684D02*
X833601Y180222D01*
Y177703D02*
X833815Y177489D01*
X818116Y176126D02*
X818769Y176779D01*
X827694D01*
Y178747D02*
X830382D01*
X817813Y176126D02*
X818116D01*
X827694Y174810D02*
X828777D01*
X830382Y174810D01*
X836355Y154274D02*
Y156306D01*
X830450Y146257D02*
Y156306D01*
X828401Y144208D02*
X830450Y146257D01*
X854072Y147298D02*
X854638Y146732D01*
X854072Y147298D02*
Y156306D01*
X902848Y99000D02*
X911130D01*
X854694Y146671D02*
X902025Y99341D01*
X856050Y147809D02*
X900018Y103841D01*
X856041Y151521D02*
X856050Y151511D01*
X900841Y103500D02*
X917400D01*
X918500Y96826D02*
Y102405D01*
X856050Y147809D02*
Y151511D01*
X856041Y151521D02*
Y156306D01*
X857993Y171747D02*
X860835Y168905D01*
X862733D01*
X857993Y171747D02*
Y171756D01*
X861383Y182684D02*
X861384Y182684D01*
X862733Y182684D01*
X859289Y186621D02*
X862733D01*
X858187Y187723D02*
X859289Y186621D01*
X858028Y187723D02*
X858187D01*
X862733Y182684D02*
X863816Y182684D01*
X862733Y188590D02*
X868734D01*
X859978Y195799D02*
X860850Y196672D01*
X859978Y191346D02*
Y195799D01*
X860850Y196672D02*
Y196975D01*
X858009Y191346D02*
Y198009D01*
X861000Y201000D01*
X825572Y225180D02*
X842261Y208491D01*
X828527Y232987D02*
X844230Y217285D01*
X828347Y232987D02*
X828527D01*
X844230Y191346D02*
Y217285D01*
X852104Y218407D02*
X852104Y218407D01*
X850135Y215384D02*
X850135Y215384D01*
X794000Y326203D02*
Y329206D01*
X725428Y185090D02*
X730782D01*
X731173Y185482D01*
X725214Y184876D02*
X725428Y185090D01*
X729893Y186613D02*
X731173Y185482D01*
X725214Y184876D02*
X725214D01*
X826826Y134365D02*
X828401D01*
X826804Y134387D02*
X826826Y134365D01*
X819326Y134387D02*
X826804D01*
X819483Y128343D02*
X825843D01*
X819326Y128186D02*
X819483Y128343D01*
X825843D02*
X826000Y128500D01*
X682664Y180203D02*
X686785D01*
X686949Y180367D01*
X682500Y180039D02*
X682664Y180203D01*
X682107Y141607D02*
X686842D01*
X686949Y141715D01*
X682000Y141500D02*
X682107Y141607D01*
X911130Y89000D02*
X918178Y96048D01*
X852104Y191346D02*
Y218407D01*
X829500Y241500D02*
X851757Y219243D01*
X850135Y191346D02*
Y215384D01*
X829000Y237500D02*
X849799Y216209D01*
X682500Y65851D02*
X687982D01*
X682500Y103851D02*
X687982D01*
X819326Y144186D02*
X826804D01*
X826826Y144208D01*
X828401D01*
X750000Y160114D02*
Y184000D01*
X814500Y159000D02*
X818012Y159062D01*
X827694D01*
X817500Y162000D02*
X817803D01*
X926421Y352411D02*
Y356000D01*
X921500Y347000D02*
X926078Y351578D01*
X691400Y263000D02*
Y280400D01*
X691300Y280500D02*
X691400Y280400D01*
X683364Y275286D02*
X688150Y270500D01*
X681500Y275500D02*
X681714Y275286D01*
X688150Y270500D02*
X691300D01*
X681714Y275286D02*
X683364D01*
X681714Y275714D02*
X683364D01*
X688150Y280500D02*
X691300D01*
X683364Y275714D02*
X688150Y280500D01*
X681500Y275500D02*
X681714Y275714D01*
X681500Y275500D02*
X691300D01*
X697600Y250656D02*
Y263000D01*
X697242Y250298D02*
X697600Y250656D01*
X694450Y285500D02*
X697600Y282350D01*
Y263000D02*
Y282350D01*
X691300Y285500D02*
X694450D01*
X862733Y180716D02*
X871908D01*
X921500Y347000D02*
Y356000D01*
X752000Y349047D02*
Y349500D01*
Y349000D02*
Y349047D01*
X756961Y354008D02*
Y355583D01*
X752000Y349047D02*
X756961Y354008D01*
X752000Y349500D02*
X752039Y349539D01*
Y355583D01*
X704118Y348795D02*
X709039Y353716D01*
X704118Y348795D02*
Y355291D01*
X704000Y348677D02*
X704118Y348795D01*
Y348618D02*
Y348795D01*
X709039Y353716D02*
Y355291D01*
X704000Y348500D02*
Y348677D01*
Y348500D02*
X704118Y348618D01*
X709000Y355252D02*
X709039Y355291D01*
D67*
X824021Y185312D02*
X823268Y185626D01*
X790827Y192737D02*
X790360Y192464D01*
X865411Y158644D02*
X865616Y158599D01*
X880952Y185453D02*
X880982Y185482D01*
X816629Y172690D02*
X815928Y172407D01*
X814052Y170674D02*
X814028Y170651D01*
X904670Y190271D02*
X903916Y189960D01*
X902540Y188584D02*
X902229Y187830D01*
X881745Y185802D02*
X880989Y185489D01*
X904170Y181218D02*
X904198Y181457D01*
X820731Y185637D02*
X823268Y185626D01*
X824021Y185312D02*
X824680Y184653D01*
X824021Y185312D02*
X824021D01*
X824680Y184653D02*
X827694D01*
X775000Y73500D02*
X777500Y76000D01*
X779935Y78435D01*
X777500Y76000D02*
Y81900D01*
X779935Y81735D02*
X780100Y81900D01*
X779935Y78435D02*
Y81735D01*
X794500Y74000D02*
Y74333D01*
X792900Y75933D02*
Y81900D01*
Y75933D02*
X794500Y74333D01*
X737500Y98555D02*
Y101822D01*
Y67055D02*
Y70322D01*
Y130110D02*
Y133377D01*
X706500Y128500D02*
X708740Y130740D01*
Y133161D01*
Y68240D02*
Y71161D01*
Y99958D02*
Y102161D01*
X705859Y97077D02*
X708740Y99958D01*
X706500Y66000D02*
X708740Y68240D01*
X943877Y285500D02*
X947988D01*
X943839Y285539D02*
X943877Y285500D01*
X811638Y193756D02*
X812195Y193200D01*
X786785Y192176D02*
X790073D01*
X808710Y193756D02*
X811638D01*
X790827Y192737D02*
X791000Y192786D01*
X790073Y192176D02*
X790360Y192464D01*
X903949Y158067D02*
X907310D01*
X907637Y157739D01*
X903714Y158302D02*
X903949Y158067D01*
X862733Y159062D02*
X863816D01*
X865616Y158599D02*
X873000Y157300D01*
X863816Y159062D02*
X865411Y158644D01*
X880982Y185482D02*
X880989Y185489D01*
X880490Y185030D02*
X880952Y185453D01*
X818269Y166936D02*
X827694D01*
X817333Y166000D02*
X818269Y166936D01*
X817000Y166000D02*
X817333D01*
X802926Y155161D02*
X804113Y153826D01*
X816629Y172690D02*
X816634Y172690D01*
X814052Y170674D02*
X815928Y172407D01*
X814025Y170648D02*
X814028Y170651D01*
X804113Y160737D02*
X814025Y170648D01*
X680719Y260128D02*
X680842Y260251D01*
X680495Y259904D02*
X680719Y260128D01*
X671242Y260251D02*
X671588Y259904D01*
X858004Y156311D02*
Y159495D01*
Y156311D02*
X858009Y156306D01*
X858000Y159500D02*
X858004Y159495D01*
X856899Y184653D02*
X862733D01*
X855832Y185387D02*
X856165D01*
X856899Y184653D01*
X904198Y188198D02*
X904302Y188302D01*
X904198Y183334D02*
Y188198D01*
X902229Y183334D02*
Y187830D01*
X898446Y190313D02*
Y195147D01*
X918500Y183203D02*
X922176Y186879D01*
X794000Y329206D02*
Y331500D01*
X781500Y317358D02*
Y325055D01*
X781468Y317327D02*
X793673D01*
Y319676D01*
X794000Y320003D01*
X759110Y317500D02*
Y323417D01*
X759000Y324555D02*
X759110Y323417D01*
X992500Y284000D02*
X993000Y284500D01*
X726735Y191338D02*
X730828D01*
X731173Y191682D01*
X724814Y192926D02*
X725147D01*
X726735Y191338D01*
X729838Y192870D02*
X731173Y191682D01*
X759000Y330857D02*
Y334500D01*
X813859Y348027D02*
X816277Y347500D01*
X819000D01*
X825500Y349551D02*
Y352278D01*
X918500Y183000D02*
Y183203D01*
X922176Y186879D02*
X922324D01*
X918265Y183235D02*
X918500Y183000D01*
X915664Y186862D02*
X915811D01*
X918265Y184409D01*
Y183235D02*
Y184409D01*
X915664Y193063D02*
Y196735D01*
X902230Y195922D02*
X905238D01*
X899221D02*
X902230D01*
Y197271D01*
X902000Y197500D02*
X902230Y197271D01*
X770643Y192176D02*
X786785D01*
X904670Y190271D02*
X907198D01*
X903916Y189960D02*
X903916Y189960D01*
X902540Y188584D02*
X903916Y189960D01*
X902229Y187830D02*
X902701Y188302D01*
X881745Y185802D02*
X884113D01*
X904198Y181457D02*
Y183334D01*
X904169Y181215D02*
X904170Y181218D01*
X740912Y316945D02*
X741000Y316857D01*
X731500Y316945D02*
X740912D01*
X731500D02*
Y321500D01*
X794000Y311680D02*
Y317000D01*
X793673Y317327D02*
X794000Y317000D01*
X781468Y317327D02*
X781500Y317358D01*
X759110Y317500D02*
X764000D01*
X904000Y180500D02*
X904169Y181215D01*
X902272Y182228D02*
Y183291D01*
X904000Y180500D02*
Y180500D01*
X902229Y183334D02*
X902272Y183291D01*
Y182228D02*
X904000Y180500D01*
X961000Y258173D02*
Y260900D01*
X1000403Y282597D02*
Y282597D01*
X998809Y284191D02*
X998809D01*
X825393Y358585D02*
Y361945D01*
Y358585D02*
X825500Y358478D01*
X825286Y362052D02*
X825393Y361945D01*
X927720Y269562D02*
X928907Y269388D01*
X925294Y269562D02*
X927720D01*
X966000Y273000D02*
X966057Y272943D01*
X970593D02*
X970650Y272887D01*
X966057Y272943D02*
X970593D01*
X976550Y276637D02*
X978050D01*
X975985Y276072D02*
X976550Y276637D01*
X975985Y273458D02*
Y276072D01*
X975529Y273002D02*
X975985Y273458D01*
X975529Y270389D02*
Y273002D01*
X971613Y266474D02*
X975529Y270389D01*
X971613Y266326D02*
Y266474D01*
X904302Y188302D02*
X907198D01*
X902701D02*
X904302D01*
X906124Y193314D02*
X906166Y193271D01*
X906124Y193314D02*
Y195036D01*
X905238Y195922D02*
X906124Y195036D01*
X898446Y195147D02*
X899221Y195922D01*
X898446Y190313D02*
X898489Y190271D01*
X899230D01*
X804113Y153826D02*
Y160737D01*
X681086Y254048D02*
X689842D01*
X680842Y253804D02*
X681086Y254048D01*
X961100Y279737D02*
X961750Y280387D01*
X970650D01*
X936258Y275388D02*
X940754D01*
X943425Y278058D01*
X676042Y259904D02*
X680495D01*
X671588D02*
X676042D01*
D68*
X730035Y66035D02*
X730492Y67144D01*
X726411Y63063D02*
X727522Y63522D01*
X722028Y108415D02*
Y112577D01*
X722950Y113500D01*
X772500D02*
X775000Y111000D01*
Y104100D02*
Y111000D01*
X722950Y113500D02*
X762500D01*
X730492Y67144D02*
Y72585D01*
X727522Y63522D02*
X730035Y66035D01*
X703437Y63063D02*
X726411D01*
X730492Y67144D02*
Y67144D01*
X730492Y67144D01*
X693000Y88549D02*
Y107500D01*
Y84500D02*
Y88549D01*
X699951D02*
X700000Y88500D01*
X693000Y88549D02*
X699951D01*
X699000Y103000D02*
X700721Y104720D01*
Y107280D01*
X702022Y141900D02*
X705545Y138378D01*
X698500Y145422D02*
X702022Y141900D01*
X721386Y146000D02*
X727000D01*
X716224Y140839D02*
X721386Y146000D01*
X708740Y140839D02*
X716224D01*
X722028Y77415D02*
X723064Y76378D01*
X726161D02*
X726260Y76279D01*
X723064Y76378D02*
X726161D01*
X722028Y77415D02*
Y81528D01*
X723500Y83000D01*
X704161Y78839D02*
X708740D01*
X702500Y80500D02*
X704161Y78839D01*
Y109839D02*
X708740D01*
X702500Y111500D02*
X704161Y109839D01*
X726161Y107378D02*
X726260Y107280D01*
X723064Y107378D02*
X726161D01*
X722028Y108415D02*
X723064Y107378D01*
X726260Y138181D02*
X726358D01*
X726260Y135721D02*
Y138181D01*
Y138279D02*
X726358Y138181D01*
X729878Y104622D02*
X731000Y103500D01*
X726260Y104720D02*
X726358Y104622D01*
X729878D01*
X731000Y97561D02*
Y103500D01*
X729577Y96139D02*
X731000Y97561D01*
X727139Y96139D02*
X729577D01*
X727000Y96000D02*
X727139Y96139D01*
X694500Y177500D02*
Y184000D01*
X693211Y185289D02*
X694500Y184000D01*
X686949Y185289D02*
X693211D01*
X686988Y223500D02*
X696000D01*
X686949Y223461D02*
X686988Y223500D01*
X698500Y145422D02*
Y221000D01*
X696000Y223500D02*
X698500Y221000D01*
X708642Y138378D02*
X708740Y138279D01*
X705545Y138378D02*
X708642D01*
X698500Y109500D02*
X700721Y107280D01*
X708740D01*
X690295Y145345D02*
X690520D01*
X698500Y137365D01*
Y109500D02*
Y137365D01*
X686949Y147117D02*
X688524D01*
X690295Y145345D01*
X691555Y108945D02*
X693000Y107500D01*
X686949Y108945D02*
X691555D01*
X693000Y84500D02*
X701221Y76279D01*
X708740D01*
X687176Y71000D02*
X695500D01*
X686949Y70772D02*
X687176Y71000D01*
X695500D02*
X703437Y63063D01*
X726260Y73721D02*
X726358Y73622D01*
X729456D01*
X730492Y72585D01*
X773361Y88139D02*
X775000Y86500D01*
X718829Y89245D02*
X720574Y87500D01*
X729500D01*
X770900Y88000D02*
X771039Y88139D01*
X773361D01*
X766695Y105445D02*
X767000Y105750D01*
X737500Y105445D02*
X766695D01*
X839886Y51547D02*
Y56614D01*
X836000Y60500D02*
X839886Y56614D01*
X791500Y60500D02*
X836000D01*
X783000Y69000D02*
X791500Y60500D01*
X772000Y71000D02*
Y75237D01*
X772400Y75637D02*
Y81900D01*
X772000Y75237D02*
X772400Y75637D01*
X772000Y71000D02*
X774000Y69000D01*
X783000D01*
X785200Y71200D02*
Y81900D01*
X783000Y69000D02*
X785200Y71200D01*
X718829Y89245D02*
Y102161D01*
Y76329D02*
Y89245D01*
X775000Y81900D02*
Y86500D01*
X716270Y104720D02*
X718829Y107280D01*
Y133161D01*
X716221Y73721D02*
X718829Y76329D01*
X716270Y135721D02*
X718829Y133161D01*
X708740Y135721D02*
X716270D01*
X718829Y133161D02*
X726260D01*
X708740Y104720D02*
X716270D01*
X718829Y102161D01*
X726260D01*
X716221Y73721D02*
X718780Y71161D01*
X726260D01*
X708740Y73721D02*
X716221D01*
X731327Y78839D02*
X736221Y73945D01*
X726260Y78839D02*
X731327D01*
X736221Y73945D02*
X737500D01*
X726260Y109839D02*
X731827D01*
X736221Y105445D01*
X737500D01*
X732382Y140839D02*
X736221Y137000D01*
X726260Y140839D02*
X732382D01*
D69*
X871679Y170651D02*
X871017Y170873D01*
X894781Y184061D02*
X894919Y184052D01*
X894514Y187141D02*
X895321Y186334D01*
X871679Y170651D02*
X873866Y169000D01*
X862733Y170873D02*
X871017D01*
X817033Y180716D02*
X827694D01*
X907768Y162870D02*
X913870D01*
X907637Y162739D02*
X907768Y162870D01*
X913870D02*
X914000Y163000D01*
X882086Y160000D02*
X887478D01*
X862733Y161031D02*
X881055D01*
X882086Y160000D01*
X885414Y167403D02*
X888097D01*
X885078Y167739D02*
X885414Y167403D01*
X888097D02*
X889500Y166000D01*
Y162022D02*
Y166000D01*
X887478Y160000D02*
X889500Y162022D01*
X890200Y191454D02*
X892194Y189460D01*
X894564Y187092D01*
X812314Y175326D02*
Y181326D01*
X764714Y183742D02*
X764817Y183639D01*
X817033Y180121D02*
Y180716D01*
Y180121D02*
X817167Y179987D01*
X799915Y348027D02*
X800214Y348326D01*
X794568Y348027D02*
X799915D01*
X922324Y193079D02*
X923644Y193081D01*
X927267D01*
X891487Y184482D02*
X894781Y184061D01*
X890314Y185802D02*
X891487Y184482D01*
X894919Y184052D02*
X899543D01*
X900261Y183334D01*
X907296Y186334D02*
X910682D01*
X890200Y191454D02*
Y192302D01*
X895321Y186334D02*
X899230D01*
X756714Y167326D02*
X756943Y167555D01*
X756714Y188326D02*
X756943Y188097D01*
Y167555D02*
Y188097D01*
X935108Y269388D02*
X936258Y270537D01*
Y275388D01*
D70*
X934623Y301069D02*
X934003Y300312D01*
X933543Y299449D01*
X933259Y298513D01*
X933163Y297539D01*
X947124Y311500D02*
X946151Y311404D01*
X945214Y311121D01*
X944351Y310660D01*
X943594Y310041D01*
X993964Y292965D02*
X993343Y292207D01*
X992881Y291342D01*
X992596Y290404D01*
X992500Y289429D01*
Y284000D02*
Y289429D01*
X933163Y294098D02*
Y297539D01*
X947937Y368500D02*
X954500D01*
X947937Y364970D02*
X954500D01*
X904000Y368000D02*
X909827D01*
X904000Y365500D02*
X909827D01*
X670615Y270585D02*
Y302285D01*
Y270585D02*
X670700Y270500D01*
X670530Y302370D02*
X670615Y302285D01*
X943594Y310041D02*
X943594Y310041D01*
X934623Y301069D02*
X943594Y310041D01*
X914187Y311500D02*
X931589Y294098D01*
X887500Y311500D02*
X914187D01*
X931589Y294098D02*
X933163D01*
X947124Y311500D02*
X957500D01*
X993964Y292965D02*
X998500Y297500D01*
X946303Y366604D02*
X947937Y364970D01*
X946303Y366604D02*
Y367417D01*
X954500Y364970D02*
Y368500D01*
X946303Y367417D02*
X947937Y368500D01*
X909827Y365500D02*
X911461Y367134D01*
Y367417D01*
X904000Y365500D02*
Y368000D01*
X909827D02*
X911461Y367417D01*
X735461Y366854D02*
X741854D01*
X729067D02*
X735461D01*
X776842Y367000D02*
X787000D01*
X692445Y363303D02*
X694079Y364937D01*
X681378Y358575D02*
X686106Y363303D01*
X694079Y364937D02*
Y366709D01*
X686106Y363303D02*
X692445D01*
X677404Y358575D02*
X681378D01*
X741854Y366854D02*
X742000Y367000D01*
X728921Y366709D02*
X729067Y366854D01*
D71*
X988443Y284500D02*
X987689Y284189D01*
X986023Y282523D02*
X985714Y281775D01*
X990714Y273626D02*
Y282214D01*
X988443Y284500D02*
X998057D01*
X990714Y282214D02*
X992500Y284000D01*
X806258Y197873D02*
Y201124D01*
X805874Y197489D02*
X806258Y197873D01*
X986023Y282523D02*
X987689Y284189D01*
X998164Y284456D02*
X998809Y284191D01*
X985714Y273626D02*
Y281775D01*
X1000403Y282597D02*
X1000714Y281843D01*
Y273626D02*
Y281843D01*
X998809Y284191D02*
X1000403Y282597D01*
X993000Y284500D02*
X995714Y281786D01*
Y273626D02*
Y281786D01*
D72*
X737500Y67055D02*
D03*
Y73945D02*
D03*
Y105445D02*
D03*
Y98555D02*
D03*
X781500Y331945D02*
D03*
Y325055D02*
D03*
X737500Y137000D02*
D03*
Y130110D02*
D03*
X741000Y317445D02*
D03*
Y310555D02*
D03*
X759000Y331445D02*
D03*
Y324555D02*
D03*
D73*
X726260Y133161D02*
D03*
Y135721D02*
D03*
Y138279D02*
D03*
X708740Y133161D02*
D03*
Y135721D02*
D03*
Y138279D02*
D03*
Y140839D02*
D03*
X726260D02*
D03*
Y71161D02*
D03*
Y73721D02*
D03*
Y76279D02*
D03*
X708740Y71161D02*
D03*
Y73721D02*
D03*
Y76279D02*
D03*
Y78839D02*
D03*
X726260D02*
D03*
Y109839D02*
D03*
X708740D02*
D03*
Y107280D02*
D03*
Y104720D02*
D03*
Y102161D02*
D03*
X726260Y107280D02*
D03*
Y104720D02*
D03*
Y102161D02*
D03*
D74*
X675531Y208500D02*
D03*
Y233500D02*
D03*
Y195328D02*
D03*
Y170328D02*
D03*
Y132156D02*
D03*
Y157156D02*
D03*
Y55812D02*
D03*
Y80812D02*
D03*
Y93984D02*
D03*
Y118984D02*
D03*
D75*
X686949Y218539D02*
D03*
Y223461D02*
D03*
Y185289D02*
D03*
Y180367D02*
D03*
Y142195D02*
D03*
Y147117D02*
D03*
Y65851D02*
D03*
Y70772D02*
D03*
Y104023D02*
D03*
Y108945D02*
D03*
D76*
X772400Y81900D02*
D03*
X775000D02*
D03*
X777500D02*
D03*
X780100D02*
D03*
X782700D02*
D03*
X785200D02*
D03*
X787800D02*
D03*
X790300D02*
D03*
X792900D02*
D03*
X795500D02*
D03*
X798000D02*
D03*
X800600D02*
D03*
Y104100D02*
D03*
X798000D02*
D03*
X795500D02*
D03*
X792900D02*
D03*
X790300D02*
D03*
X787800D02*
D03*
X785200D02*
D03*
X782700D02*
D03*
X780100D02*
D03*
X777500D02*
D03*
X775000D02*
D03*
X772400D02*
D03*
D77*
X911130Y79000D02*
D03*
Y89000D02*
D03*
Y99000D02*
D03*
Y109000D02*
D03*
Y119000D02*
D03*
X989870D02*
D03*
Y109000D02*
D03*
Y99000D02*
D03*
Y89000D02*
D03*
Y79000D02*
D03*
D78*
X826826Y144208D02*
D03*
Y134365D02*
D03*
D79*
X900261Y183334D02*
D03*
X902229D02*
D03*
X904198D02*
D03*
X906166D02*
D03*
Y193271D02*
D03*
X904198D02*
D03*
X902229D02*
D03*
X900261D02*
D03*
D80*
X907198Y186334D02*
D03*
Y188302D02*
D03*
Y190271D02*
D03*
X899230D02*
D03*
Y188302D02*
D03*
Y186334D02*
D03*
D81*
X933163Y294098D02*
D03*
D82*
X943203D02*
D03*
D83*
X813859Y348027D02*
D03*
Y360625D02*
D03*
X794568Y348027D02*
D03*
Y360625D02*
D03*
D84*
X896358Y165239D02*
D03*
D85*
X907637Y172739D02*
D03*
Y167739D02*
D03*
Y162739D02*
D03*
Y157739D02*
D03*
X885078D02*
D03*
Y162739D02*
D03*
Y167739D02*
D03*
Y172739D02*
D03*
D86*
X830450Y156306D02*
D03*
X832419D02*
D03*
X834387D02*
D03*
X836355D02*
D03*
X838324D02*
D03*
X840292D02*
D03*
X842261D02*
D03*
X844230D02*
D03*
X846198D02*
D03*
X848166D02*
D03*
X850135D02*
D03*
X852104D02*
D03*
X854072D02*
D03*
X856041D02*
D03*
X858009D02*
D03*
X859978D02*
D03*
Y191346D02*
D03*
X858009D02*
D03*
X856041D02*
D03*
X854072D02*
D03*
X852104D02*
D03*
X850135D02*
D03*
X848166D02*
D03*
X846198D02*
D03*
X844230D02*
D03*
X842261D02*
D03*
X840292D02*
D03*
X838324D02*
D03*
X836355D02*
D03*
X834387D02*
D03*
X832419D02*
D03*
X830450D02*
D03*
D87*
X862733Y159062D02*
D03*
Y161031D02*
D03*
Y162999D02*
D03*
Y164968D02*
D03*
Y166936D02*
D03*
Y168905D02*
D03*
Y170873D02*
D03*
Y172842D02*
D03*
Y174810D02*
D03*
Y176779D02*
D03*
Y178747D02*
D03*
Y180716D02*
D03*
Y182684D02*
D03*
Y184653D02*
D03*
Y186621D02*
D03*
Y188590D02*
D03*
X827694D02*
D03*
Y186621D02*
D03*
Y184653D02*
D03*
Y182684D02*
D03*
Y180716D02*
D03*
Y178747D02*
D03*
Y176779D02*
D03*
Y174810D02*
D03*
Y172842D02*
D03*
Y170873D02*
D03*
Y168905D02*
D03*
Y166936D02*
D03*
Y164968D02*
D03*
Y162999D02*
D03*
Y161031D02*
D03*
Y159062D02*
D03*
D88*
X845214Y173826D02*
D03*
D89*
X670700Y270500D02*
D03*
Y275500D02*
D03*
Y280500D02*
D03*
Y285500D02*
D03*
X691300D02*
D03*
Y280500D02*
D03*
Y275500D02*
D03*
Y270500D02*
D03*
D90*
X786785Y192176D02*
D03*
Y198476D02*
D03*
X770643D02*
D03*
Y192176D02*
D03*
D91*
X961000Y267100D02*
D03*
Y260900D02*
D03*
X915664Y193063D02*
D03*
Y186862D02*
D03*
X794000Y320003D02*
D03*
Y326203D02*
D03*
X825500Y358478D02*
D03*
Y352278D02*
D03*
X731173Y191682D02*
D03*
Y185482D02*
D03*
X918214Y166512D02*
D03*
Y172713D02*
D03*
X922324Y186879D02*
D03*
Y193079D02*
D03*
X819326Y128186D02*
D03*
Y134387D02*
D03*
Y150387D02*
D03*
Y144186D02*
D03*
X961100Y273536D02*
D03*
Y279737D02*
D03*
X680842Y260005D02*
D03*
Y253804D02*
D03*
X671242D02*
D03*
Y260005D02*
D03*
D92*
X970650Y280387D02*
D03*
Y272887D02*
D03*
X978050Y276637D02*
D03*
X697242Y250298D02*
D03*
X689842Y246548D02*
D03*
Y254048D02*
D03*
D93*
X943839Y278058D02*
D03*
Y285539D02*
D03*
X935177Y281798D02*
D03*
D94*
X781468Y309846D02*
D03*
Y317917D02*
D03*
X761469Y243965D02*
D03*
Y252035D02*
D03*
X747469Y244465D02*
D03*
Y252535D02*
D03*
X759000Y317980D02*
D03*
Y309910D02*
D03*
X731500Y317535D02*
D03*
Y309465D02*
D03*
D95*
X911461Y367417D02*
D03*
X946303D02*
D03*
X728921Y366709D02*
D03*
X694079D02*
D03*
X776842Y367000D02*
D03*
X742000D02*
D03*
D96*
X921500Y356000D02*
D03*
X926421D02*
D03*
X931343D02*
D03*
X936264D02*
D03*
X718882Y355291D02*
D03*
X713961D02*
D03*
X709039D02*
D03*
X704118D02*
D03*
X766803Y355583D02*
D03*
X761882D02*
D03*
X756961D02*
D03*
X752039D02*
D03*
D97*
X883900Y199000D02*
D03*
X890100D02*
D03*
X884113Y185802D02*
D03*
X890314D02*
D03*
X884113Y179302D02*
D03*
X890314D02*
D03*
X805874Y197489D02*
D03*
X812075D02*
D03*
X890200Y192302D02*
D03*
X884000D02*
D03*
X804113Y153826D02*
D03*
X810314D02*
D03*
X812314Y190326D02*
D03*
X806113D02*
D03*
Y175326D02*
D03*
X812314D02*
D03*
Y181326D02*
D03*
X806113D02*
D03*
X928907Y269388D02*
D03*
X935108D02*
D03*
X691400Y263000D02*
D03*
X697600D02*
D03*
X977814Y266326D02*
D03*
X971613D02*
D03*
D98*
X985714Y253026D02*
D03*
X990714D02*
D03*
X995714D02*
D03*
X1000714D02*
D03*
Y273626D02*
D03*
X995714D02*
D03*
X990714D02*
D03*
X985714D02*
D03*
D99*
X930500Y289000D02*
Y293010D01*
X931589Y294098D01*
D100*
X939758Y290638D02*
Y294888D01*
X935258Y282293D02*
Y286138D01*
X934763Y281798D02*
X935258Y282293D01*
Y286138D02*
X939758Y290638D01*
Y294888D02*
Y299138D01*
Y294888D02*
X940547Y294098D01*
X943203D01*
D101*
X971613Y259049D02*
Y266326D01*
Y259049D02*
X983773Y246889D01*
X997726D01*
X1000714Y249876D01*
Y253026D01*
X986885Y260553D02*
X990658D01*
X983588D02*
X986885D01*
X977814Y266178D02*
X978537Y265456D01*
X978684D02*
X983588Y260553D01*
X977814Y266178D02*
Y266326D01*
X978537Y265456D02*
X978684D01*
X990658Y260553D02*
X994430D01*
X990714Y253026D02*
Y260496D01*
X990658Y260553D02*
X990714Y260496D01*
X995714Y253026D02*
Y259269D01*
X994430Y260553D02*
X995714Y259269D01*
X985714Y253026D02*
Y259381D01*
X986885Y260553D01*
X977814Y266326D02*
Y269800D01*
X978214Y270200D02*
Y271826D01*
D102*
X959886Y30248D02*
D03*
Y51547D02*
D03*
D103*
Y20248D02*
D03*
X949886Y30248D02*
D03*
Y20248D02*
D03*
X939886Y30248D02*
D03*
Y20248D02*
D03*
X929886Y30248D02*
D03*
Y20248D02*
D03*
X919886Y30248D02*
D03*
Y20248D02*
D03*
X909886Y30248D02*
D03*
Y20248D02*
D03*
X899886Y30248D02*
D03*
Y20248D02*
D03*
X889886Y30248D02*
D03*
Y20248D02*
D03*
X879886Y30248D02*
D03*
Y20248D02*
D03*
X869886Y30248D02*
D03*
Y20248D02*
D03*
X859886Y30248D02*
D03*
Y20248D02*
D03*
X849886Y30248D02*
D03*
Y20248D02*
D03*
X839886Y30248D02*
D03*
Y20248D02*
D03*
X829886Y30248D02*
D03*
Y20248D02*
D03*
X819886Y30248D02*
D03*
Y20248D02*
D03*
X809886Y30248D02*
D03*
Y20248D02*
D03*
X799886Y30248D02*
D03*
Y20248D02*
D03*
X789886Y30248D02*
D03*
Y20248D02*
D03*
X779886Y30248D02*
D03*
Y20248D02*
D03*
X769886Y30248D02*
D03*
Y20248D02*
D03*
X759886Y30248D02*
D03*
Y20248D02*
D03*
X749886Y30248D02*
D03*
Y20248D02*
D03*
X739886Y30248D02*
D03*
Y20248D02*
D03*
X729886Y30248D02*
D03*
Y20248D02*
D03*
X719886Y30248D02*
D03*
Y20248D02*
D03*
X709886Y30248D02*
D03*
Y20248D02*
D03*
Y41547D02*
D03*
Y51547D02*
D03*
X719886Y41547D02*
D03*
Y51547D02*
D03*
X729886Y41547D02*
D03*
Y51547D02*
D03*
X739886Y41547D02*
D03*
Y51547D02*
D03*
X749886Y41547D02*
D03*
Y51547D02*
D03*
X759886Y41547D02*
D03*
Y51547D02*
D03*
X769886Y41547D02*
D03*
Y51547D02*
D03*
X779886Y41547D02*
D03*
Y51547D02*
D03*
X789886Y41547D02*
D03*
Y51547D02*
D03*
X799886Y41547D02*
D03*
Y51547D02*
D03*
X809886Y41547D02*
D03*
Y51547D02*
D03*
X819886Y41547D02*
D03*
Y51547D02*
D03*
X829886Y41547D02*
D03*
Y51547D02*
D03*
X839886Y41547D02*
D03*
Y51547D02*
D03*
X849886Y41547D02*
D03*
Y51547D02*
D03*
X859886Y41547D02*
D03*
Y51547D02*
D03*
X869886Y41547D02*
D03*
Y51547D02*
D03*
X879886Y41547D02*
D03*
Y51547D02*
D03*
X889886Y41547D02*
D03*
Y51547D02*
D03*
X899886Y41547D02*
D03*
Y51547D02*
D03*
X909886Y41547D02*
D03*
Y51547D02*
D03*
X919886Y41547D02*
D03*
Y51547D02*
D03*
X929886Y41547D02*
D03*
Y51547D02*
D03*
X939886Y41547D02*
D03*
Y51547D02*
D03*
X949886Y41547D02*
D03*
Y51547D02*
D03*
X959886Y41547D02*
D03*
D104*
X1000500Y149000D02*
D03*
Y139000D02*
D03*
X990500Y149000D02*
D03*
Y139000D02*
D03*
X1000500Y179000D02*
D03*
Y159000D02*
D03*
X990500Y179000D02*
D03*
Y159000D02*
D03*
X1000500Y169000D02*
D03*
X990500D02*
D03*
D105*
X670530Y302370D02*
D03*
X669530Y312370D02*
D03*
X997500Y307500D02*
D03*
X998500Y297500D02*
D03*
D106*
X670530Y322370D02*
D03*
X998500Y317500D02*
D03*
D107*
X864221Y368130D02*
D03*
X836661D02*
D03*
D108*
X860283Y357500D02*
D03*
X840598D02*
D03*
D109*
X677404Y358575D02*
D03*
X992362Y358579D02*
D03*
X689806Y21175D02*
D03*
X979965Y21174D02*
D03*
D110*
X900500Y204500D02*
D03*
X838099Y82500D02*
D03*
X805500Y105500D02*
D03*
X809000Y100000D02*
D03*
X805000Y112000D02*
D03*
X796000Y130000D02*
D03*
X835000Y82500D02*
D03*
X802000Y131000D02*
D03*
X852500Y161500D02*
D03*
X811000Y92000D02*
D03*
X780500Y73500D02*
D03*
X850000Y141500D02*
D03*
X772500Y113500D02*
D03*
X762500D02*
D03*
X799000Y114000D02*
D03*
X702500Y111500D02*
D03*
X791500Y112000D02*
D03*
X797000Y122240D02*
D03*
X834500Y127000D02*
D03*
X780000Y110000D02*
D03*
X791000Y99000D02*
D03*
X702500Y80500D02*
D03*
X749886Y100218D02*
D03*
X758746Y100123D02*
D03*
X749886Y79310D02*
D03*
X758746D02*
D03*
X780500Y96000D02*
D03*
X776000Y91000D02*
D03*
X730492Y67144D02*
D03*
X723500Y83000D02*
D03*
X700000Y88500D02*
D03*
X699000Y103000D02*
D03*
X702022Y141900D02*
D03*
X791000Y87500D02*
D03*
X786000Y90000D02*
D03*
X773500Y99000D02*
D03*
X727000Y96000D02*
D03*
X694500Y177500D02*
D03*
X729500Y87500D02*
D03*
X770900Y88000D02*
D03*
X775000Y73500D02*
D03*
X794500Y74000D02*
D03*
X737500Y101822D02*
D03*
Y70322D02*
D03*
Y133377D02*
D03*
X705859Y66000D02*
D03*
Y128500D02*
D03*
Y97250D02*
D03*
X740000Y214500D02*
D03*
X947988Y285500D02*
D03*
X880500Y199000D02*
D03*
X801500Y192786D02*
D03*
X816000D02*
D03*
X791000D02*
D03*
X808710Y193756D02*
D03*
X898500Y166000D02*
D03*
X894000D02*
D03*
X891988Y158476D02*
D03*
X881449Y182083D02*
D03*
X880490Y185030D02*
D03*
X868732Y168105D02*
D03*
X851023Y346737D02*
D03*
Y326390D02*
D03*
Y316217D02*
D03*
Y306044D02*
D03*
Y295871D02*
D03*
Y285697D02*
D03*
Y275524D02*
D03*
Y265351D02*
D03*
Y255178D02*
D03*
Y245004D02*
D03*
Y234831D02*
D03*
X847000Y210500D02*
D03*
X854884Y218608D02*
D03*
X858666Y228052D02*
D03*
Y238225D02*
D03*
Y248399D02*
D03*
Y258572D02*
D03*
Y268745D02*
D03*
Y278918D02*
D03*
Y289091D02*
D03*
Y299265D02*
D03*
Y309438D02*
D03*
Y319611D02*
D03*
Y329784D02*
D03*
Y350131D02*
D03*
X809500Y314000D02*
D03*
X850569Y361996D02*
D03*
X847450Y361996D02*
D03*
X836921Y196000D02*
D03*
X833822D02*
D03*
X820509Y164252D02*
D03*
X816634Y172690D02*
D03*
X835159Y152775D02*
D03*
X844500Y145000D02*
D03*
X779669Y273944D02*
D03*
X761677Y300003D02*
D03*
X753163Y280625D02*
D03*
X758284Y276760D02*
D03*
X760000Y184000D02*
D03*
X830382Y178747D02*
D03*
Y174810D02*
D03*
X857993Y171756D02*
D03*
X861000Y201000D02*
D03*
X682328Y217747D02*
D03*
X725500Y175500D02*
D03*
X794000Y331500D02*
D03*
X682500Y180039D02*
D03*
X825500Y219000D02*
D03*
X761469Y239732D02*
D03*
X747469Y240232D02*
D03*
X725016Y157991D02*
D03*
X783257Y214147D02*
D03*
X984500Y89000D02*
D03*
X985500Y109000D02*
D03*
X810500Y150000D02*
D03*
X769794Y271287D02*
D03*
X782878Y298873D02*
D03*
X726847Y299310D02*
D03*
X741000Y307500D02*
D03*
X754349Y299389D02*
D03*
X759000Y334500D02*
D03*
X819000Y347500D02*
D03*
X825500Y349551D02*
D03*
X913500Y173000D02*
D03*
X918500Y183000D02*
D03*
X915664Y196735D02*
D03*
X902000Y197500D02*
D03*
X827432Y200302D02*
D03*
X790500Y198500D02*
D03*
X829500Y241500D02*
D03*
X829000Y237500D02*
D03*
X828347Y232987D02*
D03*
X685500Y246500D02*
D03*
X671500Y250000D02*
D03*
X930500Y289000D02*
D03*
X682500Y65851D02*
D03*
Y103851D02*
D03*
X682000Y141500D02*
D03*
X826000Y128500D02*
D03*
Y150000D02*
D03*
X747469Y256768D02*
D03*
X756547Y252065D02*
D03*
X760856Y233531D02*
D03*
X750000Y184000D02*
D03*
X759886Y160000D02*
D03*
X749886D02*
D03*
X814500Y159000D02*
D03*
X817500Y162000D02*
D03*
X731500Y321500D02*
D03*
X794000Y311680D02*
D03*
X764000Y317500D02*
D03*
X735500Y302500D02*
D03*
X725500Y278000D02*
D03*
X730784Y280500D02*
D03*
X771388Y276648D02*
D03*
X749000Y275500D02*
D03*
X784688Y302000D02*
D03*
X681500Y275500D02*
D03*
X961000Y258173D02*
D03*
X954500Y364970D02*
D03*
Y368500D02*
D03*
X904000Y368000D02*
D03*
Y365500D02*
D03*
X735461Y366854D02*
D03*
X787000Y367000D02*
D03*
X825286Y362052D02*
D03*
X925294Y269562D02*
D03*
X966000Y273000D02*
D03*
X904000Y180500D02*
D03*
X918500Y163000D02*
D03*
X984000Y119000D02*
D03*
X917000D02*
D03*
X806000Y171500D02*
D03*
X752000Y349000D02*
D03*
X704000Y348500D02*
D03*
D111*
X820731Y185637D02*
D03*
X893962Y198538D02*
D03*
X873866Y169000D02*
D03*
X873405Y182158D02*
D03*
X875000Y179500D02*
D03*
X872000Y165740D02*
D03*
X873000Y157300D02*
D03*
X894564Y187092D02*
D03*
X834065Y211509D02*
D03*
X831081Y200700D02*
D03*
X817133Y169631D02*
D03*
X904014Y166300D02*
D03*
X914000Y163000D02*
D03*
X875000Y176000D02*
D03*
X745814Y181326D02*
D03*
X817000Y166000D02*
D03*
X764714Y183742D02*
D03*
X817167Y179987D02*
D03*
X831841Y161130D02*
D03*
X858000Y159500D02*
D03*
X856613Y181000D02*
D03*
X855832Y185387D02*
D03*
X858028Y187723D02*
D03*
X868734Y188590D02*
D03*
X860850Y196975D02*
D03*
X833815Y177489D02*
D03*
X724814Y192926D02*
D03*
X806258Y201124D02*
D03*
X825572Y225180D02*
D03*
X800214Y348326D02*
D03*
X956500Y267000D02*
D03*
X927267Y193081D02*
D03*
X903714Y158302D02*
D03*
X910682Y186334D02*
D03*
X817813Y176126D02*
D03*
X756714Y167326D02*
D03*
Y188326D02*
D03*
X939758Y299138D02*
D03*
X978214Y271826D02*
D03*
X936258Y275388D02*
D03*
X676042Y259904D02*
D03*
X725214Y184876D02*
D03*
D112*
X936193Y346200D02*
D03*
X921500Y347000D02*
D03*
M02*
