G04*
G04 #@! TF.GenerationSoftware,Altium Limited,Altium Designer,22.6.1 (34)*
G04*
G04 Layer_Color=16711935*
%FSLAX25Y25*%
%MOIN*%
G70*
G04*
G04 #@! TF.SameCoordinates,44BA9B1E-1016-45A4-B772-E771DC22F3FE*
G04*
G04*
G04 #@! TF.FilePolarity,Negative*
G04*
G01*
G75*
G04:AMPARAMS|DCode=42|XSize=38.45mil|YSize=41.4mil|CornerRadius=6.31mil|HoleSize=0mil|Usage=FLASHONLY|Rotation=270.000|XOffset=0mil|YOffset=0mil|HoleType=Round|Shape=RoundedRectangle|*
%AMROUNDEDRECTD42*
21,1,0.03845,0.02879,0,0,270.0*
21,1,0.02584,0.04140,0,0,270.0*
1,1,0.01261,-0.01440,-0.01292*
1,1,0.01261,-0.01440,0.01292*
1,1,0.01261,0.01440,0.01292*
1,1,0.01261,0.01440,-0.01292*
%
%ADD42ROUNDEDRECTD42*%
G04:AMPARAMS|DCode=45|XSize=49.28mil|YSize=59.12mil|CornerRadius=6.98mil|HoleSize=0mil|Usage=FLASHONLY|Rotation=90.000|XOffset=0mil|YOffset=0mil|HoleType=Round|Shape=RoundedRectangle|*
%AMROUNDEDRECTD45*
21,1,0.04928,0.04516,0,0,90.0*
21,1,0.03532,0.05912,0,0,90.0*
1,1,0.01396,0.02258,0.01766*
1,1,0.01396,0.02258,-0.01766*
1,1,0.01396,-0.02258,-0.01766*
1,1,0.01396,-0.02258,0.01766*
%
%ADD45ROUNDEDRECTD45*%
G04:AMPARAMS|DCode=50|XSize=38.45mil|YSize=41.4mil|CornerRadius=6.31mil|HoleSize=0mil|Usage=FLASHONLY|Rotation=0.000|XOffset=0mil|YOffset=0mil|HoleType=Round|Shape=RoundedRectangle|*
%AMROUNDEDRECTD50*
21,1,0.03845,0.02879,0,0,0.0*
21,1,0.02584,0.04140,0,0,0.0*
1,1,0.01261,0.01292,-0.01440*
1,1,0.01261,-0.01292,-0.01440*
1,1,0.01261,-0.01292,0.01440*
1,1,0.01261,0.01292,0.01440*
%
%ADD50ROUNDEDRECTD50*%
%ADD52R,0.06194X0.06194*%
%ADD53C,0.06194*%
%ADD54C,0.05518*%
%ADD55C,0.07900*%
%ADD56R,0.07900X0.07900*%
%ADD57O,0.03851X0.06902*%
%ADD58O,0.05918X0.03359*%
%ADD59C,0.08400*%
%ADD60C,0.20085*%
%ADD61C,0.03099*%
%ADD62C,0.02769*%
%ADD63C,0.01968*%
%ADD64C,0.05800*%
%ADD125R,0.06706X0.06902*%
%ADD126R,0.02375X0.06115*%
G04:AMPARAMS|DCode=127|XSize=72.9mil|YSize=27.62mil|CornerRadius=4.95mil|HoleSize=0mil|Usage=FLASHONLY|Rotation=0.000|XOffset=0mil|YOffset=0mil|HoleType=Round|Shape=RoundedRectangle|*
%AMROUNDEDRECTD127*
21,1,0.07290,0.01772,0,0,0.0*
21,1,0.06299,0.02762,0,0,0.0*
1,1,0.00991,0.03150,-0.00886*
1,1,0.00991,-0.03150,-0.00886*
1,1,0.00991,-0.03150,0.00886*
1,1,0.00991,0.03150,0.00886*
%
%ADD127ROUNDEDRECTD127*%
%ADD128R,0.05028X0.06406*%
%ADD129R,0.09161X0.05028*%
%ADD130R,0.05224X0.05067*%
%ADD131R,0.05421X0.05067*%
%ADD132R,0.10343X0.04240*%
%ADD133R,0.05382X0.03650*%
G36*
X841780Y371575D02*
X836268D01*
X836165Y371571D01*
X836063Y371563D01*
X835961Y371551D01*
X835858Y371532D01*
X835760Y371508D01*
X835658Y371480D01*
X835563Y371445D01*
X835468Y371406D01*
X835374Y371362D01*
X835283Y371311D01*
X835197Y371256D01*
X835110Y371201D01*
X835028Y371138D01*
X834949Y371071D01*
X834874Y371000D01*
X834803Y370925D01*
X834736Y370847D01*
X834673Y370764D01*
X834618Y370677D01*
X834563Y370590D01*
X834512Y370500D01*
X834468Y370406D01*
X834429Y370311D01*
X834394Y370216D01*
X834366Y370114D01*
X834342Y370016D01*
X834323Y369913D01*
X834311Y369811D01*
X834303Y369709D01*
X834299Y369606D01*
Y366653D01*
X834303Y366551D01*
X834311Y366449D01*
X834323Y366347D01*
X834342Y366244D01*
X834366Y366146D01*
X834394Y366043D01*
X834429Y365949D01*
X834468Y365854D01*
X834512Y365760D01*
X834563Y365669D01*
X834618Y365583D01*
X834673Y365496D01*
X834736Y365413D01*
X834803Y365335D01*
X834874Y365260D01*
X834949Y365189D01*
X835028Y365122D01*
X835110Y365059D01*
X835197Y365004D01*
X835283Y364949D01*
X835374Y364898D01*
X835468Y364854D01*
X835563Y364815D01*
X835658Y364779D01*
X835760Y364752D01*
X835858Y364728D01*
X835961Y364709D01*
X836063Y364697D01*
X836165Y364689D01*
X836268Y364685D01*
X841780D01*
Y371575D01*
D02*
G37*
G36*
X864717Y364689D02*
X864819Y364697D01*
X864921Y364709D01*
X865024Y364728D01*
X865122Y364752D01*
X865224Y364779D01*
X865319Y364815D01*
X865413Y364854D01*
X865508Y364898D01*
X865598Y364949D01*
X865685Y365004D01*
X865772Y365059D01*
X865854Y365122D01*
X865933Y365189D01*
X866008Y365260D01*
X866079Y365335D01*
X866146Y365413D01*
X866209Y365496D01*
X866264Y365583D01*
X866319Y365669D01*
X866370Y365760D01*
X866413Y365854D01*
X866453Y365949D01*
X866488Y366043D01*
X866516Y366146D01*
X866539Y366244D01*
X866559Y366347D01*
X866571Y366449D01*
X866579Y366551D01*
X866583Y366653D01*
Y369606D01*
X866579Y369709D01*
X866571Y369811D01*
X866559Y369913D01*
X866539Y370016D01*
X866516Y370114D01*
X866488Y370216D01*
X866453Y370311D01*
X866413Y370406D01*
X866370Y370500D01*
X866319Y370590D01*
X866264Y370677D01*
X866209Y370764D01*
X866146Y370847D01*
X866079Y370925D01*
X866008Y371000D01*
X865933Y371071D01*
X865854Y371138D01*
X865772Y371201D01*
X865685Y371256D01*
X865598Y371311D01*
X865508Y371362D01*
X865413Y371406D01*
X865319Y371445D01*
X865224Y371480D01*
X865122Y371508D01*
X865024Y371532D01*
X864921Y371551D01*
X864819Y371563D01*
X864717Y371571D01*
X864614Y371575D01*
X859102D01*
Y364685D01*
X864614D01*
X864717Y364689D01*
D02*
G37*
G36*
X827352Y364000D02*
X826623D01*
Y363684D01*
X827352D01*
Y363471D01*
X825692D01*
Y363684D01*
X826424D01*
Y364000D01*
X825692D01*
Y364213D01*
X827352D01*
Y364000D01*
D02*
G37*
G36*
X826596Y363232D02*
X826665Y363230D01*
X826729Y363224D01*
X826787Y363216D01*
X826845Y363208D01*
X826895Y363196D01*
X826942Y363185D01*
X826983Y363174D01*
X827022Y363163D01*
X827053Y363152D01*
X827083Y363141D01*
X827105Y363133D01*
X827122Y363124D01*
X827136Y363119D01*
X827144Y363113D01*
X827147D01*
X827186Y363088D01*
X827222Y363064D01*
X827252Y363038D01*
X827277Y363011D01*
X827299Y362983D01*
X827318Y362955D01*
X827332Y362930D01*
X827346Y362906D01*
X827363Y362861D01*
X827366Y362842D01*
X827371Y362825D01*
Y362811D01*
X827374Y362800D01*
Y362792D01*
X827371Y362756D01*
X827363Y362723D01*
X827352Y362692D01*
X827338Y362662D01*
X827302Y362606D01*
X827260Y362562D01*
X827222Y362523D01*
X827186Y362496D01*
X827169Y362487D01*
X827158Y362479D01*
X827152Y362476D01*
X827150Y362474D01*
X827105Y362451D01*
X827058Y362432D01*
X826956Y362399D01*
X826853Y362376D01*
X826753Y362363D01*
X826706Y362357D01*
X826662Y362352D01*
X826623Y362349D01*
X826590D01*
X826562Y362346D01*
X826540D01*
X826529D01*
X826523D01*
X826454D01*
X826388Y362352D01*
X826327Y362357D01*
X826269Y362365D01*
X826213Y362374D01*
X826163Y362385D01*
X826116Y362396D01*
X826075Y362407D01*
X826036Y362418D01*
X826003Y362429D01*
X825975Y362440D01*
X825953Y362449D01*
X825933Y362457D01*
X825920Y362462D01*
X825911Y362465D01*
X825909Y362468D01*
X825867Y362493D01*
X825831Y362518D01*
X825798Y362543D01*
X825770Y362570D01*
X825748Y362598D01*
X825729Y362623D01*
X825712Y362651D01*
X825701Y362676D01*
X825690Y362701D01*
X825684Y362723D01*
X825679Y362742D01*
X825673Y362759D01*
Y362773D01*
X825670Y362784D01*
Y362792D01*
X825673Y362831D01*
X825681Y362867D01*
X825692Y362900D01*
X825709Y362930D01*
X825726Y362961D01*
X825745Y362989D01*
X825790Y363033D01*
X825834Y363072D01*
X825856Y363086D01*
X825873Y363097D01*
X825889Y363108D01*
X825900Y363113D01*
X825909Y363116D01*
X825911Y363119D01*
X825959Y363138D01*
X826006Y363158D01*
X826108Y363185D01*
X826210Y363208D01*
X826260Y363213D01*
X826307Y363221D01*
X826352Y363224D01*
X826393Y363230D01*
X826429Y363232D01*
X826463D01*
X826488Y363235D01*
X826507D01*
X826518D01*
X826523D01*
X826596Y363232D01*
D02*
G37*
G36*
X827352Y361493D02*
X827152D01*
Y361903D01*
X825692D01*
Y362116D01*
X827352D01*
Y361493D01*
D02*
G37*
G36*
Y360715D02*
X827152D01*
Y361124D01*
X825692D01*
Y361338D01*
X827352D01*
Y360715D01*
D02*
G37*
G36*
Y360354D02*
X825692D01*
Y360568D01*
X827352D01*
Y360354D01*
D02*
G37*
G36*
Y359811D02*
X827349Y359764D01*
X827343Y359720D01*
X827332Y359679D01*
X827318Y359640D01*
X827305Y359604D01*
X827285Y359573D01*
X827266Y359543D01*
X827246Y359515D01*
X827227Y359493D01*
X827211Y359471D01*
X827191Y359454D01*
X827177Y359438D01*
X827163Y359426D01*
X827152Y359418D01*
X827147Y359415D01*
X827144Y359413D01*
X827102Y359388D01*
X827055Y359366D01*
X827008Y359346D01*
X826958Y359330D01*
X826853Y359305D01*
X826753Y359288D01*
X826706Y359282D01*
X826662Y359280D01*
X826623Y359277D01*
X826587Y359274D01*
X826560Y359271D01*
X826540D01*
X826526D01*
X826521D01*
X826446Y359274D01*
X826374Y359277D01*
X826310Y359285D01*
X826246Y359296D01*
X826191Y359307D01*
X826136Y359324D01*
X826089Y359341D01*
X826042Y359360D01*
X826000Y359382D01*
X825961Y359404D01*
X825925Y359426D01*
X825895Y359451D01*
X825867Y359476D01*
X825839Y359504D01*
X825795Y359557D01*
X825762Y359609D01*
X825737Y359662D01*
X825718Y359709D01*
X825706Y359753D01*
X825698Y359789D01*
X825695Y359817D01*
X825692Y359828D01*
Y360075D01*
X827352D01*
Y359811D01*
D02*
G37*
G36*
Y358956D02*
X826983Y358889D01*
Y358582D01*
X827352Y358521D01*
Y358313D01*
X825681Y358626D01*
Y358847D01*
X827352Y359161D01*
Y358956D01*
D02*
G37*
G36*
X826596Y358019D02*
X827352D01*
Y357806D01*
X826596D01*
X825692Y357543D01*
Y357767D01*
X826338Y357914D01*
Y357920D01*
X825692Y358061D01*
Y358282D01*
X826596Y358019D01*
D02*
G37*
%LPC*%
G36*
X826576Y363011D02*
X826554D01*
X826537D01*
X826526D01*
X826523D01*
X826468D01*
X826416Y363008D01*
X826366Y363005D01*
X826321Y363002D01*
X826277Y362997D01*
X826238Y362994D01*
X826202Y362989D01*
X826169Y362983D01*
X826141Y362978D01*
X826116Y362972D01*
X826094Y362969D01*
X826078Y362964D01*
X826064Y362961D01*
X826053Y362958D01*
X826047Y362955D01*
X826044D01*
X826014Y362944D01*
X825986Y362933D01*
X825964Y362919D01*
X825945Y362906D01*
X825925Y362895D01*
X825911Y362881D01*
X825892Y362853D01*
X825878Y362831D01*
X825873Y362811D01*
X825870Y362800D01*
Y362795D01*
X825873Y362775D01*
X825878Y362759D01*
X825886Y362739D01*
X825898Y362725D01*
X825925Y362698D01*
X825956Y362673D01*
X825986Y362656D01*
X826014Y362642D01*
X826025Y362637D01*
X826033Y362634D01*
X826039Y362631D01*
X826042D01*
X826075Y362620D01*
X826111Y362612D01*
X826188Y362595D01*
X826269Y362584D01*
X826346Y362579D01*
X826382Y362576D01*
X826416Y362573D01*
X826446D01*
X826471Y362570D01*
X826493D01*
X826510D01*
X826521D01*
X826523D01*
X826579D01*
X826632Y362573D01*
X826681Y362576D01*
X826729Y362579D01*
X826770Y362584D01*
X826809Y362590D01*
X826845Y362595D01*
X826878Y362601D01*
X826906Y362606D01*
X826931Y362612D01*
X826953Y362617D01*
X826972Y362623D01*
X826986Y362626D01*
X826994Y362629D01*
X827000Y362631D01*
X827003D01*
X827033Y362642D01*
X827058Y362653D01*
X827083Y362667D01*
X827102Y362681D01*
X827119Y362692D01*
X827133Y362706D01*
X827152Y362731D01*
X827166Y362753D01*
X827172Y362773D01*
X827174Y362784D01*
Y362789D01*
X827172Y362809D01*
X827166Y362828D01*
X827158Y362845D01*
X827150Y362861D01*
X827122Y362889D01*
X827091Y362914D01*
X827061Y362930D01*
X827033Y362944D01*
X827025Y362950D01*
X827017Y362953D01*
X827011Y362955D01*
X827008D01*
X826975Y362964D01*
X826939Y362975D01*
X826861Y362989D01*
X826781Y362997D01*
X826704Y363002D01*
X826665Y363005D01*
X826632Y363008D01*
X826601D01*
X826576Y363011D01*
D02*
G37*
G36*
X827152Y359861D02*
X825892D01*
Y359825D01*
X825895Y359792D01*
X825898Y359759D01*
X825914Y359703D01*
X825939Y359656D01*
X825964Y359620D01*
X825992Y359593D01*
X826017Y359573D01*
X826033Y359562D01*
X826036Y359559D01*
X826039D01*
X826069Y359546D01*
X826103Y359535D01*
X826138Y359523D01*
X826177Y359515D01*
X826258Y359504D01*
X826338Y359493D01*
X826377Y359490D01*
X826413Y359487D01*
X826446D01*
X826474Y359485D01*
X826499D01*
X826515D01*
X826529D01*
X826532D01*
X826593D01*
X826648Y359487D01*
X826698Y359493D01*
X826745Y359496D01*
X826789Y359504D01*
X826828Y359510D01*
X826864Y359518D01*
X826895Y359523D01*
X826922Y359532D01*
X826945Y359540D01*
X826964Y359546D01*
X826981Y359551D01*
X826992Y359557D01*
X827000Y359562D01*
X827005Y359565D01*
X827008D01*
X827033Y359582D01*
X827055Y359598D01*
X827075Y359618D01*
X827091Y359640D01*
X827116Y359684D01*
X827133Y359726D01*
X827144Y359767D01*
X827150Y359800D01*
X827152Y359814D01*
Y359861D01*
D02*
G37*
G36*
X826784Y358859D02*
X826091Y358742D01*
Y358737D01*
X826784Y358620D01*
Y358859D01*
D02*
G37*
%LPD*%
D42*
X921664Y193063D02*
D03*
Y186862D02*
D03*
X930414Y193052D02*
D03*
Y186852D02*
D03*
X829500Y211400D02*
D03*
Y217600D02*
D03*
X914714Y193063D02*
D03*
Y186862D02*
D03*
D45*
X812114Y175391D02*
D03*
Y183461D02*
D03*
D50*
X842400Y159500D02*
D03*
X848600D02*
D03*
X857990Y175007D02*
D03*
X864191D02*
D03*
X860299Y196000D02*
D03*
X866500D02*
D03*
X827613Y204826D02*
D03*
X833814D02*
D03*
X857997Y168505D02*
D03*
X864197D02*
D03*
X806113Y190326D02*
D03*
X812314D02*
D03*
D52*
X959886Y30248D02*
D03*
Y51547D02*
D03*
D53*
Y20248D02*
D03*
X949886Y30248D02*
D03*
Y20248D02*
D03*
X939886Y30248D02*
D03*
Y20248D02*
D03*
X929886Y30248D02*
D03*
Y20248D02*
D03*
X919886Y30248D02*
D03*
Y20248D02*
D03*
X909886Y30248D02*
D03*
Y20248D02*
D03*
X899886Y30248D02*
D03*
Y20248D02*
D03*
X889886Y30248D02*
D03*
Y20248D02*
D03*
X879886Y30248D02*
D03*
Y20248D02*
D03*
X869886Y30248D02*
D03*
Y20248D02*
D03*
X859886Y30248D02*
D03*
Y20248D02*
D03*
X849886Y30248D02*
D03*
Y20248D02*
D03*
X839886Y30248D02*
D03*
Y20248D02*
D03*
X829886Y30248D02*
D03*
Y20248D02*
D03*
X819886Y30248D02*
D03*
Y20248D02*
D03*
X809886Y30248D02*
D03*
Y20248D02*
D03*
X799886Y30248D02*
D03*
Y20248D02*
D03*
X789886Y30248D02*
D03*
Y20248D02*
D03*
X779886Y30248D02*
D03*
Y20248D02*
D03*
X769886Y30248D02*
D03*
Y20248D02*
D03*
X759886Y30248D02*
D03*
Y20248D02*
D03*
X749886Y30248D02*
D03*
Y20248D02*
D03*
X739886Y30248D02*
D03*
Y20248D02*
D03*
X729886Y30248D02*
D03*
Y20248D02*
D03*
X719886Y30248D02*
D03*
Y20248D02*
D03*
X709886Y30248D02*
D03*
Y20248D02*
D03*
Y41547D02*
D03*
Y51547D02*
D03*
X719886Y41547D02*
D03*
Y51547D02*
D03*
X729886Y41547D02*
D03*
Y51547D02*
D03*
X739886Y41547D02*
D03*
Y51547D02*
D03*
X749886Y41547D02*
D03*
Y51547D02*
D03*
X759886Y41547D02*
D03*
Y51547D02*
D03*
X769886Y41547D02*
D03*
Y51547D02*
D03*
X779886Y41547D02*
D03*
Y51547D02*
D03*
X789886Y41547D02*
D03*
Y51547D02*
D03*
X799886Y41547D02*
D03*
Y51547D02*
D03*
X809886Y41547D02*
D03*
Y51547D02*
D03*
X819886Y41547D02*
D03*
Y51547D02*
D03*
X829886Y41547D02*
D03*
Y51547D02*
D03*
X839886Y41547D02*
D03*
Y51547D02*
D03*
X849886Y41547D02*
D03*
Y51547D02*
D03*
X859886Y41547D02*
D03*
Y51547D02*
D03*
X869886Y41547D02*
D03*
Y51547D02*
D03*
X879886Y41547D02*
D03*
Y51547D02*
D03*
X889886Y41547D02*
D03*
Y51547D02*
D03*
X899886Y41547D02*
D03*
Y51547D02*
D03*
X909886Y41547D02*
D03*
Y51547D02*
D03*
X919886Y41547D02*
D03*
Y51547D02*
D03*
X929886Y41547D02*
D03*
Y51547D02*
D03*
X939886Y41547D02*
D03*
Y51547D02*
D03*
X949886Y41547D02*
D03*
Y51547D02*
D03*
X959886Y41547D02*
D03*
D54*
X1000500Y149000D02*
D03*
Y139000D02*
D03*
X990500Y149000D02*
D03*
Y139000D02*
D03*
X1000500Y179000D02*
D03*
Y159000D02*
D03*
X990500Y179000D02*
D03*
Y159000D02*
D03*
X1000500Y169000D02*
D03*
X990500D02*
D03*
D55*
X670530Y302370D02*
D03*
X669530Y312370D02*
D03*
X997500Y307500D02*
D03*
X998500Y297500D02*
D03*
D56*
X670530Y322370D02*
D03*
X998500Y317500D02*
D03*
D57*
X864221Y368130D02*
D03*
X836661D02*
D03*
D58*
X860283Y357500D02*
D03*
X840598D02*
D03*
D59*
X887500Y311500D02*
D03*
X927500D02*
D03*
X957500D02*
D03*
Y341500D02*
D03*
X887500D02*
D03*
D60*
X677404Y358575D02*
D03*
X992362Y358579D02*
D03*
X689806Y21175D02*
D03*
X979965Y21174D02*
D03*
D61*
X900500Y204500D02*
D03*
X838099Y82500D02*
D03*
X805500Y105500D02*
D03*
X809000Y100000D02*
D03*
X805000Y112000D02*
D03*
X796000Y130000D02*
D03*
X835000Y82500D02*
D03*
X802000Y131000D02*
D03*
X852500Y161500D02*
D03*
X811000Y92000D02*
D03*
X780500Y73500D02*
D03*
X850000Y141500D02*
D03*
X772500Y113500D02*
D03*
X762500D02*
D03*
X799000Y114000D02*
D03*
X702500Y111500D02*
D03*
X791500Y112000D02*
D03*
X797000Y122240D02*
D03*
X834500Y127000D02*
D03*
X780000Y110000D02*
D03*
X791000Y99000D02*
D03*
X702500Y80500D02*
D03*
X749886Y100218D02*
D03*
X758746Y100123D02*
D03*
X749886Y79310D02*
D03*
X758746D02*
D03*
X780500Y96000D02*
D03*
X776000Y91000D02*
D03*
X730492Y67144D02*
D03*
X723500Y83000D02*
D03*
X700000Y88500D02*
D03*
X699000Y103000D02*
D03*
X702022Y141900D02*
D03*
X791000Y87500D02*
D03*
X786000Y90000D02*
D03*
X773500Y99000D02*
D03*
X727000Y96000D02*
D03*
X694500Y177500D02*
D03*
X729500Y87500D02*
D03*
X770900Y88000D02*
D03*
X775000Y73500D02*
D03*
X794500Y74000D02*
D03*
X737500Y101822D02*
D03*
Y70322D02*
D03*
Y133377D02*
D03*
X705859Y66000D02*
D03*
Y128500D02*
D03*
Y97250D02*
D03*
X740000Y214500D02*
D03*
X947988Y285500D02*
D03*
X880500Y199000D02*
D03*
X801500Y192786D02*
D03*
X816000D02*
D03*
X791000D02*
D03*
X808710Y193756D02*
D03*
X898500Y166000D02*
D03*
X894000D02*
D03*
X891988Y158476D02*
D03*
X881449Y182083D02*
D03*
X880490Y185030D02*
D03*
X868732Y168105D02*
D03*
X851023Y346737D02*
D03*
Y326390D02*
D03*
Y316217D02*
D03*
Y306044D02*
D03*
Y295871D02*
D03*
Y285697D02*
D03*
Y275524D02*
D03*
Y265351D02*
D03*
Y255178D02*
D03*
Y245004D02*
D03*
Y234831D02*
D03*
X847000Y210500D02*
D03*
X854884Y218608D02*
D03*
X858666Y228052D02*
D03*
Y238225D02*
D03*
Y248399D02*
D03*
Y258572D02*
D03*
Y268745D02*
D03*
Y278918D02*
D03*
Y289091D02*
D03*
Y299265D02*
D03*
Y309438D02*
D03*
Y319611D02*
D03*
Y329784D02*
D03*
Y350131D02*
D03*
X809500Y314000D02*
D03*
X850569Y361996D02*
D03*
X847450Y361996D02*
D03*
X836921Y196000D02*
D03*
X833822D02*
D03*
X820509Y164252D02*
D03*
X816634Y172690D02*
D03*
X835159Y152775D02*
D03*
X844500Y145000D02*
D03*
X779669Y273944D02*
D03*
X761677Y300003D02*
D03*
X753163Y280625D02*
D03*
X758284Y276760D02*
D03*
X760000Y184000D02*
D03*
X830382Y178747D02*
D03*
Y174810D02*
D03*
X857993Y171756D02*
D03*
X861000Y201000D02*
D03*
X682328Y217747D02*
D03*
X725500Y175500D02*
D03*
X794000Y331500D02*
D03*
X682500Y180039D02*
D03*
X825500Y219000D02*
D03*
X761469Y239732D02*
D03*
X747469Y240232D02*
D03*
X725016Y157991D02*
D03*
X783257Y214147D02*
D03*
X984500Y89000D02*
D03*
X985500Y109000D02*
D03*
X810500Y150000D02*
D03*
X769794Y271287D02*
D03*
X782878Y298873D02*
D03*
X726847Y299310D02*
D03*
X741000Y307500D02*
D03*
X754349Y299389D02*
D03*
X759000Y334500D02*
D03*
X819000Y347500D02*
D03*
X825500Y349551D02*
D03*
X913500Y173000D02*
D03*
X918500Y183000D02*
D03*
X915664Y196735D02*
D03*
X902000Y197500D02*
D03*
X827432Y200302D02*
D03*
X790500Y198500D02*
D03*
X829500Y241500D02*
D03*
X829000Y237500D02*
D03*
X828347Y232987D02*
D03*
X685500Y246500D02*
D03*
X671500Y250000D02*
D03*
X930500Y289000D02*
D03*
X682500Y65851D02*
D03*
Y103851D02*
D03*
X682000Y141500D02*
D03*
X826000Y128500D02*
D03*
Y150000D02*
D03*
X747469Y256768D02*
D03*
X756547Y252065D02*
D03*
X760856Y233531D02*
D03*
X750000Y184000D02*
D03*
X759886Y160000D02*
D03*
X749886D02*
D03*
X814500Y159000D02*
D03*
X817500Y162000D02*
D03*
X731500Y321500D02*
D03*
X794000Y311680D02*
D03*
X764000Y317500D02*
D03*
X735500Y302500D02*
D03*
X725500Y278000D02*
D03*
X730784Y280500D02*
D03*
X771388Y276648D02*
D03*
X749000Y275500D02*
D03*
X784688Y302000D02*
D03*
X681500Y275500D02*
D03*
X961000Y258173D02*
D03*
X954500Y364970D02*
D03*
Y368500D02*
D03*
X904000Y368000D02*
D03*
Y365500D02*
D03*
X735461Y366854D02*
D03*
X787000Y367000D02*
D03*
X825286Y362052D02*
D03*
X925294Y269562D02*
D03*
X966000Y273000D02*
D03*
X904000Y180500D02*
D03*
X918500Y163000D02*
D03*
X984000Y119000D02*
D03*
X917000D02*
D03*
X806000Y171500D02*
D03*
X752000Y349000D02*
D03*
X704000Y348500D02*
D03*
D62*
X838718Y167330D02*
D03*
Y171661D02*
D03*
Y175991D02*
D03*
Y180322D02*
D03*
X843048Y167330D02*
D03*
Y171661D02*
D03*
Y175991D02*
D03*
Y180322D02*
D03*
X847379Y167330D02*
D03*
Y171661D02*
D03*
Y175991D02*
D03*
Y180322D02*
D03*
X851710Y167330D02*
D03*
Y171661D02*
D03*
Y175991D02*
D03*
Y180322D02*
D03*
X843026Y149713D02*
D03*
D63*
X781760Y290500D02*
D03*
X789240D02*
D03*
X785500Y288236D02*
D03*
Y292764D02*
D03*
X757000Y293264D02*
D03*
Y288736D02*
D03*
X760740Y291000D02*
D03*
X753260D02*
D03*
X729468Y293201D02*
D03*
Y288673D02*
D03*
X733209Y290937D02*
D03*
X725728D02*
D03*
D64*
X936193Y346200D02*
D03*
X921500Y347000D02*
D03*
D125*
X854378Y368130D02*
D03*
X846504D02*
D03*
D126*
X855559Y357500D02*
D03*
X853000D02*
D03*
X850441D02*
D03*
X847882D02*
D03*
X845323D02*
D03*
D127*
X799076Y199826D02*
D03*
Y204826D02*
D03*
Y209826D02*
D03*
Y214826D02*
D03*
X819352D02*
D03*
Y209826D02*
D03*
Y204826D02*
D03*
Y199826D02*
D03*
D128*
X779911Y166377D02*
D03*
Y197007D02*
D03*
D129*
X776781Y213956D02*
D03*
X731584Y157696D02*
D03*
D130*
X775482Y159291D02*
D03*
D131*
X740048D02*
D03*
D132*
X732174Y214350D02*
D03*
D133*
X729694Y166928D02*
D03*
Y171259D02*
D03*
Y175590D02*
D03*
Y179920D02*
D03*
Y184251D02*
D03*
Y188582D02*
D03*
Y192913D02*
D03*
Y197243D02*
D03*
M02*
