G04*
G04 #@! TF.GenerationSoftware,Altium Limited,Altium Designer,22.6.1 (34)*
G04*
G04 Layer_Color=16711935*
%FSLAX25Y25*%
%MOIN*%
G70*
G04*
G04 #@! TF.SameCoordinates,44BA9B1E-1016-45A4-B772-E771DC22F3FE*
G04*
G04*
G04 #@! TF.FilePolarity,Positive*
G04*
G01*
G75*
%ADD13C,0.00394*%
D13*
X712000Y138755D02*
Y136459D01*
X712459Y136000D01*
X713378D01*
X713837Y136459D01*
Y138755D01*
X716592Y136000D02*
X714755D01*
X716592Y137837D01*
Y138296D01*
X716132Y138755D01*
X715214D01*
X714755Y138296D01*
X717510D02*
X717969Y138755D01*
X718888D01*
X719347Y138296D01*
Y137837D01*
X718888Y137378D01*
X718428D01*
X718888D01*
X719347Y136918D01*
Y136459D01*
X718888Y136000D01*
X717969D01*
X717510Y136459D01*
X712000Y76755D02*
Y74459D01*
X712459Y74000D01*
X713378D01*
X713837Y74459D01*
Y76755D01*
X716592Y74000D02*
X714755D01*
X716592Y75837D01*
Y76296D01*
X716132Y76755D01*
X715214D01*
X714755Y76296D01*
X717510Y74000D02*
X718428D01*
X717969D01*
Y76755D01*
X717510Y76296D01*
X712000Y107755D02*
Y105459D01*
X712459Y105000D01*
X713378D01*
X713837Y105459D01*
Y107755D01*
X716592Y105000D02*
X714755D01*
X716592Y106837D01*
Y107296D01*
X716132Y107755D01*
X715214D01*
X714755Y107296D01*
X719347Y105000D02*
X717510D01*
X719347Y106837D01*
Y107296D01*
X718888Y107755D01*
X717969D01*
X717510Y107296D01*
M02*
