G04*
G04 #@! TF.GenerationSoftware,Altium Limited,Altium Designer,22.6.1 (34)*
G04*
G04 Layer_Color=8388736*
%FSLAX25Y25*%
%MOIN*%
G70*
G04*
G04 #@! TF.SameCoordinates,44BA9B1E-1016-45A4-B772-E771DC22F3FE*
G04*
G04*
G04 #@! TF.FilePolarity,Negative*
G04*
G01*
G75*
%ADD23R,0.06706X0.04147*%
G04:AMPARAMS|DCode=24|XSize=25.72mil|YSize=61.15mil|CornerRadius=5.95mil|HoleSize=0mil|Usage=FLASHONLY|Rotation=90.000|XOffset=0mil|YOffset=0mil|HoleType=Round|Shape=RoundedRectangle|*
%AMROUNDEDRECTD24*
21,1,0.02572,0.04925,0,0,90.0*
21,1,0.01382,0.06115,0,0,90.0*
1,1,0.01190,0.02463,0.00691*
1,1,0.01190,0.02463,-0.00691*
1,1,0.01190,-0.02463,-0.00691*
1,1,0.01190,-0.02463,0.00691*
%
%ADD24ROUNDEDRECTD24*%
G04:AMPARAMS|DCode=25|XSize=90.68mil|YSize=126.11mil|CornerRadius=8.96mil|HoleSize=0mil|Usage=FLASHONLY|Rotation=270.000|XOffset=0mil|YOffset=0mil|HoleType=Round|Shape=RoundedRectangle|*
%AMROUNDEDRECTD25*
21,1,0.09068,0.10819,0,0,270.0*
21,1,0.07276,0.12611,0,0,270.0*
1,1,0.01792,-0.05409,-0.03638*
1,1,0.01792,-0.05409,0.03638*
1,1,0.01792,0.05409,0.03638*
1,1,0.01792,0.05409,-0.03638*
%
%ADD25ROUNDEDRECTD25*%
G04:AMPARAMS|DCode=26|XSize=39.5mil|YSize=70.99mil|CornerRadius=7.94mil|HoleSize=0mil|Usage=FLASHONLY|Rotation=270.000|XOffset=0mil|YOffset=0mil|HoleType=Round|Shape=RoundedRectangle|*
%AMROUNDEDRECTD26*
21,1,0.03950,0.05512,0,0,270.0*
21,1,0.02362,0.07099,0,0,270.0*
1,1,0.01587,-0.02756,-0.01181*
1,1,0.01587,-0.02756,0.01181*
1,1,0.01587,0.02756,0.01181*
1,1,0.01587,0.02756,-0.01181*
%
%ADD26ROUNDEDRECTD26*%
%ADD27R,0.02200X0.06600*%
%ADD28R,0.06706X0.06706*%
%ADD29R,0.07487X0.04337*%
%ADD30R,0.01384X0.03057*%
%ADD31R,0.03057X0.01384*%
%ADD32R,0.09161X0.06012*%
%ADD33R,0.04043X0.06012*%
%ADD34R,0.06306X0.04337*%
%ADD35R,0.08768X0.08768*%
%ADD36R,0.05224X0.02272*%
%ADD37O,0.01981X0.04147*%
%ADD38O,0.04147X0.01981*%
%ADD39R,0.19698X0.19698*%
%ADD40R,0.09100X0.02800*%
%ADD41R,0.03943X0.03943*%
G04:AMPARAMS|DCode=42|XSize=38.45mil|YSize=41.4mil|CornerRadius=6.31mil|HoleSize=0mil|Usage=FLASHONLY|Rotation=270.000|XOffset=0mil|YOffset=0mil|HoleType=Round|Shape=RoundedRectangle|*
%AMROUNDEDRECTD42*
21,1,0.03845,0.02879,0,0,270.0*
21,1,0.02584,0.04140,0,0,270.0*
1,1,0.01261,-0.01440,-0.01292*
1,1,0.01261,-0.01440,0.01292*
1,1,0.01261,0.01440,0.01292*
1,1,0.01261,0.01440,-0.01292*
%
%ADD42ROUNDEDRECTD42*%
%ADD43R,0.05700X0.02700*%
%ADD44R,0.06012X0.04437*%
G04:AMPARAMS|DCode=45|XSize=49.28mil|YSize=59.12mil|CornerRadius=6.98mil|HoleSize=0mil|Usage=FLASHONLY|Rotation=90.000|XOffset=0mil|YOffset=0mil|HoleType=Round|Shape=RoundedRectangle|*
%AMROUNDEDRECTD45*
21,1,0.04928,0.04516,0,0,90.0*
21,1,0.03532,0.05912,0,0,90.0*
1,1,0.01396,0.02258,0.01766*
1,1,0.01396,0.02258,-0.01766*
1,1,0.01396,-0.02258,-0.01766*
1,1,0.01396,-0.02258,0.01766*
%
%ADD45ROUNDEDRECTD45*%
%ADD46R,0.09068X0.12611*%
%ADD47R,0.03950X0.07099*%
%ADD48C,0.05847*%
G04:AMPARAMS|DCode=49|XSize=23.62mil|YSize=9.45mil|CornerRadius=1.98mil|HoleSize=0mil|Usage=FLASHONLY|Rotation=270.000|XOffset=0mil|YOffset=0mil|HoleType=Round|Shape=RoundedRectangle|*
%AMROUNDEDRECTD49*
21,1,0.02362,0.00548,0,0,270.0*
21,1,0.01965,0.00945,0,0,270.0*
1,1,0.00397,-0.00274,-0.00983*
1,1,0.00397,-0.00274,0.00983*
1,1,0.00397,0.00274,0.00983*
1,1,0.00397,0.00274,-0.00983*
%
%ADD49ROUNDEDRECTD49*%
G04:AMPARAMS|DCode=50|XSize=38.45mil|YSize=41.4mil|CornerRadius=6.31mil|HoleSize=0mil|Usage=FLASHONLY|Rotation=0.000|XOffset=0mil|YOffset=0mil|HoleType=Round|Shape=RoundedRectangle|*
%AMROUNDEDRECTD50*
21,1,0.03845,0.02879,0,0,0.0*
21,1,0.02584,0.04140,0,0,0.0*
1,1,0.01261,0.01292,-0.01440*
1,1,0.01261,-0.01292,-0.01440*
1,1,0.01261,-0.01292,0.01440*
1,1,0.01261,0.01292,0.01440*
%
%ADD50ROUNDEDRECTD50*%
%ADD51R,0.02800X0.09100*%
%ADD52R,0.06194X0.06194*%
%ADD53C,0.06194*%
%ADD54C,0.05518*%
%ADD55C,0.07900*%
%ADD56R,0.07900X0.07900*%
%ADD57O,0.03851X0.06902*%
%ADD58O,0.05918X0.03359*%
%ADD59C,0.08400*%
%ADD60C,0.20085*%
%ADD61C,0.03099*%
%ADD62C,0.02769*%
%ADD63C,0.01968*%
%ADD64C,0.05800*%
G36*
X733996Y294185D02*
X734035D01*
X734107Y294155D01*
X734163Y294100D01*
X734193Y294027D01*
Y293988D01*
X734193Y292413D01*
X735965Y292413D01*
Y292413D01*
X736004D01*
X736076Y292383D01*
X736131Y292328D01*
X736161Y292256D01*
Y292216D01*
X736161Y291626D01*
Y291626D01*
X736161Y291587D01*
X736131Y291514D01*
X736076Y291459D01*
X736004Y291429D01*
X735965Y291429D01*
X734193Y291429D01*
Y290445D01*
X735965Y290445D01*
Y290445D01*
X736004Y290445D01*
X736076Y290415D01*
X736131Y290359D01*
X736161Y290287D01*
X736161Y290248D01*
Y289657D01*
X736161D01*
Y289618D01*
X736131Y289546D01*
X736076Y289491D01*
X736004Y289461D01*
X735965D01*
X734193Y289461D01*
Y287886D01*
X734193Y287886D01*
Y287847D01*
X734163Y287774D01*
X734107Y287719D01*
X734035Y287689D01*
X724902D01*
X724829Y287719D01*
X724774Y287774D01*
X724744Y287847D01*
Y287886D01*
X724744Y289461D01*
X722972Y289461D01*
X722933D01*
X722861Y289491D01*
X722806Y289546D01*
X722776Y289618D01*
Y289657D01*
Y290248D01*
X722776D01*
Y290287D01*
X722806Y290359D01*
X722861Y290415D01*
X722933Y290445D01*
X722972Y290445D01*
X724744D01*
Y291429D01*
X722972Y291429D01*
X722972D01*
X722933Y291429D01*
X722861Y291459D01*
X722806Y291514D01*
X722776Y291587D01*
X722776Y291626D01*
X722776Y292216D01*
Y292256D01*
X722806Y292328D01*
X722861Y292383D01*
X722933Y292413D01*
X722972D01*
X724744Y292413D01*
Y293988D01*
X724744D01*
Y294027D01*
X724774Y294100D01*
X724829Y294155D01*
X724902Y294185D01*
X724941D01*
X733996Y294185D01*
X733996Y294185D01*
D02*
G37*
G36*
X761527Y294248D02*
X761567D01*
X761639Y294218D01*
X761694Y294163D01*
X761724Y294090D01*
Y294051D01*
X761724Y292476D01*
X763496Y292476D01*
Y292476D01*
X763535D01*
X763608Y292446D01*
X763663Y292391D01*
X763693Y292319D01*
Y292280D01*
X763693Y291689D01*
Y291689D01*
X763693Y291650D01*
X763663Y291578D01*
X763608Y291522D01*
X763535Y291492D01*
X763496Y291492D01*
X761724Y291492D01*
Y290508D01*
X763496Y290508D01*
Y290508D01*
X763535Y290508D01*
X763608Y290478D01*
X763663Y290423D01*
X763693Y290350D01*
X763693Y290311D01*
Y289721D01*
X763693D01*
Y289681D01*
X763663Y289609D01*
X763608Y289554D01*
X763535Y289524D01*
X763496D01*
X761724Y289524D01*
Y287949D01*
X761724Y287949D01*
Y287910D01*
X761694Y287837D01*
X761639Y287782D01*
X761567Y287752D01*
X752433D01*
X752361Y287782D01*
X752306Y287837D01*
X752276Y287910D01*
Y287949D01*
X752276Y289524D01*
X750504Y289524D01*
X750465D01*
X750392Y289554D01*
X750337Y289609D01*
X750307Y289681D01*
Y289721D01*
Y290311D01*
X750307D01*
Y290350D01*
X750337Y290423D01*
X750392Y290478D01*
X750465Y290508D01*
X750504Y290508D01*
X752276D01*
Y291492D01*
X750504Y291492D01*
X750504D01*
X750465Y291492D01*
X750392Y291522D01*
X750337Y291578D01*
X750307Y291650D01*
X750307Y291689D01*
X750307Y292280D01*
Y292319D01*
X750337Y292391D01*
X750392Y292446D01*
X750465Y292476D01*
X750504D01*
X752276Y292476D01*
Y294051D01*
X752276D01*
Y294090D01*
X752306Y294163D01*
X752361Y294218D01*
X752433Y294248D01*
X752472D01*
X761528Y294248D01*
X761527Y294248D01*
D02*
G37*
G36*
X790028Y293748D02*
X790067D01*
X790139Y293718D01*
X790194Y293663D01*
X790224Y293590D01*
Y293551D01*
X790224Y291976D01*
X791996Y291976D01*
Y291976D01*
X792035D01*
X792108Y291946D01*
X792163Y291891D01*
X792193Y291819D01*
Y291779D01*
X792193Y291189D01*
Y291189D01*
X792193Y291150D01*
X792163Y291077D01*
X792108Y291022D01*
X792035Y290992D01*
X791996Y290992D01*
X790224Y290992D01*
Y290008D01*
X791996Y290008D01*
Y290008D01*
X792035Y290008D01*
X792108Y289978D01*
X792163Y289922D01*
X792193Y289850D01*
X792193Y289811D01*
Y289220D01*
X792193D01*
Y289181D01*
X792163Y289109D01*
X792108Y289054D01*
X792035Y289024D01*
X791996D01*
X790224Y289024D01*
Y287449D01*
X790224Y287449D01*
Y287410D01*
X790194Y287337D01*
X790139Y287282D01*
X790067Y287252D01*
X780933D01*
X780861Y287282D01*
X780806Y287337D01*
X780776Y287410D01*
Y287449D01*
X780776Y289024D01*
X779004Y289024D01*
X778965D01*
X778892Y289054D01*
X778837Y289109D01*
X778807Y289181D01*
Y289220D01*
Y289811D01*
X778807D01*
Y289850D01*
X778837Y289922D01*
X778892Y289978D01*
X778965Y290008D01*
X779004Y290008D01*
X780776D01*
Y290992D01*
X779004Y290992D01*
X779004D01*
X778965Y290992D01*
X778892Y291022D01*
X778837Y291077D01*
X778807Y291150D01*
X778807Y291189D01*
X778807Y291779D01*
Y291819D01*
X778837Y291891D01*
X778892Y291946D01*
X778965Y291976D01*
X779004D01*
X780776Y291976D01*
Y293551D01*
X780776D01*
Y293590D01*
X780806Y293663D01*
X780861Y293718D01*
X780933Y293748D01*
X780972D01*
X790028Y293748D01*
X790028Y293748D01*
D02*
G37*
D23*
X737500Y67055D02*
D03*
Y73945D02*
D03*
Y105445D02*
D03*
Y98555D02*
D03*
X781500Y331945D02*
D03*
Y325055D02*
D03*
X737500Y137000D02*
D03*
Y130110D02*
D03*
X741000Y317445D02*
D03*
Y310555D02*
D03*
X759000Y331445D02*
D03*
Y324555D02*
D03*
D24*
X726260Y133161D02*
D03*
Y135721D02*
D03*
Y138279D02*
D03*
X708740Y133161D02*
D03*
Y135721D02*
D03*
Y138279D02*
D03*
Y140839D02*
D03*
X726260D02*
D03*
Y71161D02*
D03*
Y73721D02*
D03*
Y76279D02*
D03*
X708740Y71161D02*
D03*
Y73721D02*
D03*
Y76279D02*
D03*
Y78839D02*
D03*
X726260D02*
D03*
Y109839D02*
D03*
X708740D02*
D03*
Y107280D02*
D03*
Y104720D02*
D03*
Y102161D02*
D03*
X726260Y107280D02*
D03*
Y104720D02*
D03*
Y102161D02*
D03*
D25*
X675531Y208500D02*
D03*
Y233500D02*
D03*
Y195328D02*
D03*
Y170328D02*
D03*
Y132156D02*
D03*
Y157156D02*
D03*
Y55812D02*
D03*
Y80812D02*
D03*
Y93984D02*
D03*
Y118984D02*
D03*
D26*
X686949Y218539D02*
D03*
Y223461D02*
D03*
Y185289D02*
D03*
Y180367D02*
D03*
Y142195D02*
D03*
Y147117D02*
D03*
Y65851D02*
D03*
Y70772D02*
D03*
Y104023D02*
D03*
Y108945D02*
D03*
D27*
X772400Y81900D02*
D03*
X775000D02*
D03*
X777500D02*
D03*
X780100D02*
D03*
X782700D02*
D03*
X785200D02*
D03*
X787800D02*
D03*
X790300D02*
D03*
X792900D02*
D03*
X795500D02*
D03*
X798000D02*
D03*
X800600D02*
D03*
Y104100D02*
D03*
X798000D02*
D03*
X795500D02*
D03*
X792900D02*
D03*
X790300D02*
D03*
X787800D02*
D03*
X785200D02*
D03*
X782700D02*
D03*
X780100D02*
D03*
X777500D02*
D03*
X775000D02*
D03*
X772400D02*
D03*
D28*
X911130Y79000D02*
D03*
Y89000D02*
D03*
Y99000D02*
D03*
Y109000D02*
D03*
Y119000D02*
D03*
X989870D02*
D03*
Y109000D02*
D03*
Y99000D02*
D03*
Y89000D02*
D03*
Y79000D02*
D03*
D29*
X826826Y144208D02*
D03*
Y134365D02*
D03*
D30*
X900261Y183334D02*
D03*
X902229D02*
D03*
X904198D02*
D03*
X906166D02*
D03*
Y193271D02*
D03*
X904198D02*
D03*
X902229D02*
D03*
X900261D02*
D03*
D31*
X907198Y186334D02*
D03*
Y188302D02*
D03*
Y190271D02*
D03*
X899230D02*
D03*
Y188302D02*
D03*
Y186334D02*
D03*
D32*
X933163Y294098D02*
D03*
D33*
X943203D02*
D03*
D34*
X813859Y348027D02*
D03*
Y360625D02*
D03*
X794568Y348027D02*
D03*
Y360625D02*
D03*
D35*
X896358Y165239D02*
D03*
D36*
X907637Y172739D02*
D03*
Y167739D02*
D03*
Y162739D02*
D03*
Y157739D02*
D03*
X885078D02*
D03*
Y162739D02*
D03*
Y167739D02*
D03*
Y172739D02*
D03*
D37*
X830450Y156306D02*
D03*
X832419D02*
D03*
X834387D02*
D03*
X836355D02*
D03*
X838324D02*
D03*
X840292D02*
D03*
X842261D02*
D03*
X844230D02*
D03*
X846198D02*
D03*
X848166D02*
D03*
X850135D02*
D03*
X852104D02*
D03*
X854072D02*
D03*
X856041D02*
D03*
X858009D02*
D03*
X859978D02*
D03*
Y191346D02*
D03*
X858009D02*
D03*
X856041D02*
D03*
X854072D02*
D03*
X852104D02*
D03*
X850135D02*
D03*
X848166D02*
D03*
X846198D02*
D03*
X844230D02*
D03*
X842261D02*
D03*
X840292D02*
D03*
X838324D02*
D03*
X836355D02*
D03*
X834387D02*
D03*
X832419D02*
D03*
X830450D02*
D03*
D38*
X862733Y159062D02*
D03*
Y161031D02*
D03*
Y162999D02*
D03*
Y164968D02*
D03*
Y166936D02*
D03*
Y168905D02*
D03*
Y170873D02*
D03*
Y172842D02*
D03*
Y174810D02*
D03*
Y176779D02*
D03*
Y178747D02*
D03*
Y180716D02*
D03*
Y182684D02*
D03*
Y184653D02*
D03*
Y186621D02*
D03*
Y188590D02*
D03*
X827694D02*
D03*
Y186621D02*
D03*
Y184653D02*
D03*
Y182684D02*
D03*
Y180716D02*
D03*
Y178747D02*
D03*
Y176779D02*
D03*
Y174810D02*
D03*
Y172842D02*
D03*
Y170873D02*
D03*
Y168905D02*
D03*
Y166936D02*
D03*
Y164968D02*
D03*
Y162999D02*
D03*
Y161031D02*
D03*
Y159062D02*
D03*
D39*
X845214Y173826D02*
D03*
D40*
X670700Y270500D02*
D03*
Y275500D02*
D03*
Y280500D02*
D03*
Y285500D02*
D03*
X691300D02*
D03*
Y280500D02*
D03*
Y275500D02*
D03*
Y270500D02*
D03*
D41*
X786785Y192176D02*
D03*
Y198476D02*
D03*
X770643D02*
D03*
Y192176D02*
D03*
D42*
X961000Y267100D02*
D03*
Y260900D02*
D03*
X915664Y193063D02*
D03*
Y186862D02*
D03*
X794000Y320003D02*
D03*
Y326203D02*
D03*
X825500Y358478D02*
D03*
Y352278D02*
D03*
X731173Y191682D02*
D03*
Y185482D02*
D03*
X918214Y166512D02*
D03*
Y172713D02*
D03*
X922324Y186879D02*
D03*
Y193079D02*
D03*
X819326Y128186D02*
D03*
Y134387D02*
D03*
Y150387D02*
D03*
Y144186D02*
D03*
X961100Y273536D02*
D03*
Y279737D02*
D03*
X680842Y260005D02*
D03*
Y253804D02*
D03*
X671242D02*
D03*
Y260005D02*
D03*
D43*
X970650Y280387D02*
D03*
Y272887D02*
D03*
X978050Y276637D02*
D03*
X697242Y250298D02*
D03*
X689842Y246548D02*
D03*
Y254048D02*
D03*
D44*
X943839Y278058D02*
D03*
Y285539D02*
D03*
X935177Y281798D02*
D03*
D45*
X781468Y309846D02*
D03*
Y317917D02*
D03*
X761469Y243965D02*
D03*
Y252035D02*
D03*
X747469Y244465D02*
D03*
Y252535D02*
D03*
X759000Y317980D02*
D03*
Y309910D02*
D03*
X731500Y317535D02*
D03*
Y309465D02*
D03*
D46*
X911461Y367417D02*
D03*
X946303D02*
D03*
X728921Y366709D02*
D03*
X694079D02*
D03*
X776842Y367000D02*
D03*
X742000D02*
D03*
D47*
X921500Y356000D02*
D03*
X926421D02*
D03*
X931343D02*
D03*
X936264D02*
D03*
X718882Y355291D02*
D03*
X713961D02*
D03*
X709039D02*
D03*
X704118D02*
D03*
X766803Y355583D02*
D03*
X761882D02*
D03*
X756961D02*
D03*
X752039D02*
D03*
D48*
X785500Y290500D02*
D03*
X757000Y291000D02*
D03*
X729468Y290937D02*
D03*
D49*
X789437Y284988D02*
D03*
X787468D02*
D03*
X785500D02*
D03*
X783532D02*
D03*
X781563D02*
D03*
Y296012D02*
D03*
X783532D02*
D03*
X785500D02*
D03*
X787468D02*
D03*
X789437D02*
D03*
X760937Y296512D02*
D03*
X758968D02*
D03*
X757000D02*
D03*
X755031D02*
D03*
X753063D02*
D03*
Y285488D02*
D03*
X755031D02*
D03*
X757000D02*
D03*
X758968D02*
D03*
X760937D02*
D03*
X733405Y296449D02*
D03*
X731437D02*
D03*
X729468D02*
D03*
X727500D02*
D03*
X725531D02*
D03*
Y285425D02*
D03*
X727500D02*
D03*
X729468D02*
D03*
X731437D02*
D03*
X733405D02*
D03*
D50*
X883900Y199000D02*
D03*
X890100D02*
D03*
X884113Y185802D02*
D03*
X890314D02*
D03*
X884113Y179302D02*
D03*
X890314D02*
D03*
X805874Y197489D02*
D03*
X812075D02*
D03*
X890200Y192302D02*
D03*
X884000D02*
D03*
X804113Y153826D02*
D03*
X810314D02*
D03*
X812314Y190326D02*
D03*
X806113D02*
D03*
Y175326D02*
D03*
X812314D02*
D03*
Y181326D02*
D03*
X806113D02*
D03*
X928907Y269388D02*
D03*
X935108D02*
D03*
X691400Y263000D02*
D03*
X697600D02*
D03*
X977814Y266326D02*
D03*
X971613D02*
D03*
D51*
X985714Y253026D02*
D03*
X990714D02*
D03*
X995714D02*
D03*
X1000714D02*
D03*
Y273626D02*
D03*
X995714D02*
D03*
X990714D02*
D03*
X985714D02*
D03*
D52*
X959886Y30248D02*
D03*
Y51547D02*
D03*
D53*
Y20248D02*
D03*
X949886Y30248D02*
D03*
Y20248D02*
D03*
X939886Y30248D02*
D03*
Y20248D02*
D03*
X929886Y30248D02*
D03*
Y20248D02*
D03*
X919886Y30248D02*
D03*
Y20248D02*
D03*
X909886Y30248D02*
D03*
Y20248D02*
D03*
X899886Y30248D02*
D03*
Y20248D02*
D03*
X889886Y30248D02*
D03*
Y20248D02*
D03*
X879886Y30248D02*
D03*
Y20248D02*
D03*
X869886Y30248D02*
D03*
Y20248D02*
D03*
X859886Y30248D02*
D03*
Y20248D02*
D03*
X849886Y30248D02*
D03*
Y20248D02*
D03*
X839886Y30248D02*
D03*
Y20248D02*
D03*
X829886Y30248D02*
D03*
Y20248D02*
D03*
X819886Y30248D02*
D03*
Y20248D02*
D03*
X809886Y30248D02*
D03*
Y20248D02*
D03*
X799886Y30248D02*
D03*
Y20248D02*
D03*
X789886Y30248D02*
D03*
Y20248D02*
D03*
X779886Y30248D02*
D03*
Y20248D02*
D03*
X769886Y30248D02*
D03*
Y20248D02*
D03*
X759886Y30248D02*
D03*
Y20248D02*
D03*
X749886Y30248D02*
D03*
Y20248D02*
D03*
X739886Y30248D02*
D03*
Y20248D02*
D03*
X729886Y30248D02*
D03*
Y20248D02*
D03*
X719886Y30248D02*
D03*
Y20248D02*
D03*
X709886Y30248D02*
D03*
Y20248D02*
D03*
Y41547D02*
D03*
Y51547D02*
D03*
X719886Y41547D02*
D03*
Y51547D02*
D03*
X729886Y41547D02*
D03*
Y51547D02*
D03*
X739886Y41547D02*
D03*
Y51547D02*
D03*
X749886Y41547D02*
D03*
Y51547D02*
D03*
X759886Y41547D02*
D03*
Y51547D02*
D03*
X769886Y41547D02*
D03*
Y51547D02*
D03*
X779886Y41547D02*
D03*
Y51547D02*
D03*
X789886Y41547D02*
D03*
Y51547D02*
D03*
X799886Y41547D02*
D03*
Y51547D02*
D03*
X809886Y41547D02*
D03*
Y51547D02*
D03*
X819886Y41547D02*
D03*
Y51547D02*
D03*
X829886Y41547D02*
D03*
Y51547D02*
D03*
X839886Y41547D02*
D03*
Y51547D02*
D03*
X849886Y41547D02*
D03*
Y51547D02*
D03*
X859886Y41547D02*
D03*
Y51547D02*
D03*
X869886Y41547D02*
D03*
Y51547D02*
D03*
X879886Y41547D02*
D03*
Y51547D02*
D03*
X889886Y41547D02*
D03*
Y51547D02*
D03*
X899886Y41547D02*
D03*
Y51547D02*
D03*
X909886Y41547D02*
D03*
Y51547D02*
D03*
X919886Y41547D02*
D03*
Y51547D02*
D03*
X929886Y41547D02*
D03*
Y51547D02*
D03*
X939886Y41547D02*
D03*
Y51547D02*
D03*
X949886Y41547D02*
D03*
Y51547D02*
D03*
X959886Y41547D02*
D03*
D54*
X1000500Y149000D02*
D03*
Y139000D02*
D03*
X990500Y149000D02*
D03*
Y139000D02*
D03*
X1000500Y179000D02*
D03*
Y159000D02*
D03*
X990500Y179000D02*
D03*
Y159000D02*
D03*
X1000500Y169000D02*
D03*
X990500D02*
D03*
D55*
X670530Y302370D02*
D03*
X669530Y312370D02*
D03*
X997500Y307500D02*
D03*
X998500Y297500D02*
D03*
D56*
X670530Y322370D02*
D03*
X998500Y317500D02*
D03*
D57*
X864221Y368130D02*
D03*
X836661D02*
D03*
D58*
X860283Y357500D02*
D03*
X840598D02*
D03*
D59*
X887500Y311500D02*
D03*
X927500D02*
D03*
X957500D02*
D03*
Y341500D02*
D03*
X887500D02*
D03*
D60*
X677404Y358575D02*
D03*
X992362Y358579D02*
D03*
X689806Y21175D02*
D03*
X979965Y21174D02*
D03*
D61*
X900500Y204500D02*
D03*
X838099Y82500D02*
D03*
X805500Y105500D02*
D03*
X809000Y100000D02*
D03*
X805000Y112000D02*
D03*
X796000Y130000D02*
D03*
X835000Y82500D02*
D03*
X802000Y131000D02*
D03*
X852500Y161500D02*
D03*
X811000Y92000D02*
D03*
X780500Y73500D02*
D03*
X850000Y141500D02*
D03*
X772500Y113500D02*
D03*
X762500D02*
D03*
X799000Y114000D02*
D03*
X702500Y111500D02*
D03*
X791500Y112000D02*
D03*
X797000Y122240D02*
D03*
X834500Y127000D02*
D03*
X780000Y110000D02*
D03*
X791000Y99000D02*
D03*
X702500Y80500D02*
D03*
X749886Y100218D02*
D03*
X758746Y100123D02*
D03*
X749886Y79310D02*
D03*
X758746D02*
D03*
X780500Y96000D02*
D03*
X776000Y91000D02*
D03*
X730492Y67144D02*
D03*
X723500Y83000D02*
D03*
X700000Y88500D02*
D03*
X699000Y103000D02*
D03*
X702022Y141900D02*
D03*
X791000Y87500D02*
D03*
X786000Y90000D02*
D03*
X773500Y99000D02*
D03*
X727000Y96000D02*
D03*
X694500Y177500D02*
D03*
X729500Y87500D02*
D03*
X770900Y88000D02*
D03*
X775000Y73500D02*
D03*
X794500Y74000D02*
D03*
X737500Y101822D02*
D03*
Y70322D02*
D03*
Y133377D02*
D03*
X705859Y66000D02*
D03*
Y128500D02*
D03*
Y97250D02*
D03*
X740000Y214500D02*
D03*
X947988Y285500D02*
D03*
X880500Y199000D02*
D03*
X801500Y192786D02*
D03*
X816000D02*
D03*
X791000D02*
D03*
X808710Y193756D02*
D03*
X898500Y166000D02*
D03*
X894000D02*
D03*
X891988Y158476D02*
D03*
X881449Y182083D02*
D03*
X880490Y185030D02*
D03*
X868732Y168105D02*
D03*
X851023Y346737D02*
D03*
Y326390D02*
D03*
Y316217D02*
D03*
Y306044D02*
D03*
Y295871D02*
D03*
Y285697D02*
D03*
Y275524D02*
D03*
Y265351D02*
D03*
Y255178D02*
D03*
Y245004D02*
D03*
Y234831D02*
D03*
X847000Y210500D02*
D03*
X854884Y218608D02*
D03*
X858666Y228052D02*
D03*
Y238225D02*
D03*
Y248399D02*
D03*
Y258572D02*
D03*
Y268745D02*
D03*
Y278918D02*
D03*
Y289091D02*
D03*
Y299265D02*
D03*
Y309438D02*
D03*
Y319611D02*
D03*
Y329784D02*
D03*
Y350131D02*
D03*
X809500Y314000D02*
D03*
X850569Y361996D02*
D03*
X847450Y361996D02*
D03*
X836921Y196000D02*
D03*
X833822D02*
D03*
X820509Y164252D02*
D03*
X816634Y172690D02*
D03*
X835159Y152775D02*
D03*
X844500Y145000D02*
D03*
X779669Y273944D02*
D03*
X761677Y300003D02*
D03*
X753163Y280625D02*
D03*
X758284Y276760D02*
D03*
X760000Y184000D02*
D03*
X830382Y178747D02*
D03*
Y174810D02*
D03*
X857993Y171756D02*
D03*
X861000Y201000D02*
D03*
X682328Y217747D02*
D03*
X725500Y175500D02*
D03*
X794000Y331500D02*
D03*
X682500Y180039D02*
D03*
X825500Y219000D02*
D03*
X761469Y239732D02*
D03*
X747469Y240232D02*
D03*
X725016Y157991D02*
D03*
X783257Y214147D02*
D03*
X984500Y89000D02*
D03*
X985500Y109000D02*
D03*
X810500Y150000D02*
D03*
X769794Y271287D02*
D03*
X782878Y298873D02*
D03*
X726847Y299310D02*
D03*
X741000Y307500D02*
D03*
X754349Y299389D02*
D03*
X759000Y334500D02*
D03*
X819000Y347500D02*
D03*
X825500Y349551D02*
D03*
X913500Y173000D02*
D03*
X918500Y183000D02*
D03*
X915664Y196735D02*
D03*
X902000Y197500D02*
D03*
X827432Y200302D02*
D03*
X790500Y198500D02*
D03*
X829500Y241500D02*
D03*
X829000Y237500D02*
D03*
X828347Y232987D02*
D03*
X685500Y246500D02*
D03*
X671500Y250000D02*
D03*
X930500Y289000D02*
D03*
X682500Y65851D02*
D03*
Y103851D02*
D03*
X682000Y141500D02*
D03*
X826000Y128500D02*
D03*
Y150000D02*
D03*
X747469Y256768D02*
D03*
X756547Y252065D02*
D03*
X760856Y233531D02*
D03*
X750000Y184000D02*
D03*
X759886Y160000D02*
D03*
X749886D02*
D03*
X814500Y159000D02*
D03*
X817500Y162000D02*
D03*
X731500Y321500D02*
D03*
X794000Y311680D02*
D03*
X764000Y317500D02*
D03*
X735500Y302500D02*
D03*
X725500Y278000D02*
D03*
X730784Y280500D02*
D03*
X771388Y276648D02*
D03*
X749000Y275500D02*
D03*
X784688Y302000D02*
D03*
X681500Y275500D02*
D03*
X961000Y258173D02*
D03*
X954500Y364970D02*
D03*
Y368500D02*
D03*
X904000Y368000D02*
D03*
Y365500D02*
D03*
X735461Y366854D02*
D03*
X787000Y367000D02*
D03*
X825286Y362052D02*
D03*
X925294Y269562D02*
D03*
X966000Y273000D02*
D03*
X904000Y180500D02*
D03*
X918500Y163000D02*
D03*
X984000Y119000D02*
D03*
X917000D02*
D03*
X806000Y171500D02*
D03*
X752000Y349000D02*
D03*
X704000Y348500D02*
D03*
D62*
X838718Y167330D02*
D03*
Y171661D02*
D03*
Y175991D02*
D03*
Y180322D02*
D03*
X843048Y167330D02*
D03*
Y171661D02*
D03*
Y175991D02*
D03*
Y180322D02*
D03*
X847379Y167330D02*
D03*
Y171661D02*
D03*
Y175991D02*
D03*
Y180322D02*
D03*
X851710Y167330D02*
D03*
Y171661D02*
D03*
Y175991D02*
D03*
Y180322D02*
D03*
X843026Y149713D02*
D03*
D63*
X781760Y290500D02*
D03*
X789240D02*
D03*
X785500Y288236D02*
D03*
Y292764D02*
D03*
X757000Y293264D02*
D03*
Y288736D02*
D03*
X760740Y291000D02*
D03*
X753260D02*
D03*
X729468Y293201D02*
D03*
Y288673D02*
D03*
X733209Y290937D02*
D03*
X725728D02*
D03*
D64*
X936193Y346200D02*
D03*
X921500Y347000D02*
D03*
M02*
