M48
;Layer_Color=9474304
;FILE_FORMAT=2:4
INCH,TZ
;TYPE=PLATED
T1F00S00C0.0079
T2F00S00C0.0118
T5F00S00C0.0280
T6F00S00C0.0400
T7F00S00C0.0402
T8F00S00C0.0510
T9F00S00C0.1260
%
T01
X84303Y14971
X84305Y16733
X83872
Y17166
Y17599
Y18032
X84305
Y17599
Y17166
X84738
Y16733
X85171
Y17166
Y17599
X84738
Y18032
X85171
X78924Y29050
X78550Y28824
Y29276
X78176Y29050
X76074Y29100
X75700Y29326
Y28874
X75326Y29100
X73321Y29094
X72947Y29320
Y28867
X72573Y29094
T02
X68250Y6585
X70586Y6600
X70250Y8050
X70000Y8850
X70586Y9725
X69900Y10300
X70250Y11150
X70586Y12850
X70202Y14190
X68200Y14150
X68250Y10385
X72700Y9600
X72950Y8750
X72350Y8300
X73049Y6714
X73750Y7032
X74989Y7931
X75875
Y10012
X74989Y10022
X73750Y10182
Y13338
X76250Y11350
X77250
X78000Y11000
X78050Y9600
X77600Y9100
X77090Y8800
X77350Y9900
X77500Y7350
X78050
X79450Y7400
X79100Y8750
X78600Y9000
X79100Y9900
X79150Y11200
X79900Y11400
X80500Y11200
X80550Y10550
X80900Y10000
X81100Y9200
X83500Y8250
X83810
X83450Y12700
X82600Y12850
Y15000
X83516Y15277
X84450Y14500
X85000Y14150
X81050Y15000
X80200Y13100
X79600Y13000
X79700Y12224
X91700Y11900
X98400
X98550Y10900
X98450Y8900
X97821Y27183
X96600Y27300
X95650Y26700
X96100Y25817
X94799Y28550
X93976Y29914
X93050Y28900
X93626Y27539
X92529Y26956
X85867Y26875
Y25857
Y24840
Y23823
Y22805
X85488Y21861
X84700Y21050
X83407Y21151
X83108Y20070
X82743Y20030
X83382Y19600
X83692
X83382Y17749
X83038Y17875
Y17481
X81781Y17613
X81717Y17999
X81663Y17269
X81713Y16963
X81700Y16600
X81750Y16200
X82051Y16425
X81450Y15900
X83184Y16113
X85250Y16150
X85800Y15950
X85799Y17176
X85661Y18100
X85583Y18539
X85803Y18772
X86873Y18859
X87341Y18216
X87500Y17950
Y17600
X87387Y16900
X87200Y16574
X86873Y16810
X87300Y15730
X89199Y15848
X89400Y16600
X89850
X90401Y16630
X90371Y15830
X91400Y16300
X91850
X91350Y17300
X91850Y18300
X91068Y18633
X90400Y18050
X89456Y18709
X89396Y19854
X90200Y19750
X90050Y20450
X91566Y19674
X92727Y19308
X88050Y19900
X88049Y18503
X88145Y18208
X86085Y19697
X86100Y20100
X85102Y23483
Y24500
Y25518
Y26535
Y27552
Y28570
Y29587
Y30604
X85867Y30944
Y29926
Y28909
Y27892
X82950Y24150
X82900Y23750
X82835Y23299
X82557Y22518
X82550Y21900
X81600Y19279
X80871Y19376
X80150Y19279
X79100
X79050Y19850
X80626Y20112
X80600Y17150
X82073Y18564
X78326Y21415
X78288Y29887
X78469Y30200
X79400Y31168
X76168Y30000
X75435Y29939
X75316Y28063
X75828Y27676
X74900Y27550
X74747Y25677
X75655Y25207
X76147Y23973
X76086Y23353
X74747Y24023
X74000Y21450
X72481Y19293
X72521Y18488
X72550Y17550
X72502Y15799
X74989Y16000
X75989
X75671Y16733
X76000Y18400
X76471Y18374
X75671Y18833
X75000Y18400
X74581Y18133
X69450Y17750
X68250Y18004
X68233Y21775
X68550Y24650
X67150Y25000
X67604Y25990
X68150Y27550
X72550Y27800
X73078Y28050
X72685Y29931
X73550Y30250
X74100Y30750
X77139Y27665
X76979Y27129
X77967Y27394
X76400Y31750
X75900Y33450
X75200Y34900
X73546Y36685
X73150Y32150
X70400Y34850
X80021Y34833
X81900Y34750
X82550Y34955
X82529Y36205
X84745Y36200
X85057Y36200
X85102Y34674
X85867Y35013
Y32978
Y31961
X85102Y31622
Y32639
X80950Y31400
X79400Y33150
X78700Y36700
X90400Y36800
Y36550
X95450Y36497
Y36850
T05
X92150Y34700
X93619Y34620
T06
X99050Y13900
X100050
Y14900
X99050
Y15900
X100050
Y16900
Y17900
X99050
Y16900
X99850Y29750
X99750Y30750
X67053Y30237
X66953Y31237
X67053Y32237
X99850Y31750
T07
X70989Y2025
X71989
X72989
X73989
X74989
X75989
X76989
X77989
Y3025
X76989
X75989
X74989
X73989
X72989
X71989
X70989
Y4155
Y5155
X71989
Y4155
X72989
Y5155
X73989
Y4155
X74989
Y5155
X75989
Y4155
X76989
Y5155
X77989
Y4155
X78989
Y5155
X79989
Y4155
X80989
Y5155
X81989
Y4155
X82989
Y5155
X83989
Y4155
X84989
Y5155
X85989
Y4155
X86989
Y5155
X87989
Y4155
X88989
Y5155
X89989
Y4155
X90989
Y5155
X91989
Y4155
X92989
Y5155
Y3025
Y2025
X91989
Y3025
X90989
Y2025
X89989
Y3025
X88989
Y2025
X87989
Y3025
X86989
Y2025
X85989
Y3025
X84989
Y2025
X83989
Y3025
X82989
Y2025
X81989
Y3025
X80989
Y2025
X79989
Y3025
X78989
Y2025
X93989
X94989
X95989
Y3025
X94989
X93989
Y4155
Y5155
X94989
Y4155
X95989
Y5155
T08
X95750Y31150
X92750
X88750
Y34150
X95750
T09
X68981Y2118
X97996Y2117
X67740Y35857
X99236Y35858
M30
