G04*
G04 #@! TF.GenerationSoftware,Altium Limited,Altium Designer,22.6.1 (34)*
G04*
G04 Layer_Color=16711935*
%FSLAX25Y25*%
%MOIN*%
G70*
G04*
G04 #@! TF.SameCoordinates,44BA9B1E-1016-45A4-B772-E771DC22F3FE*
G04*
G04*
G04 #@! TF.FilePolarity,Positive*
G04*
G01*
G75*
%ADD13C,0.00394*%
%ADD19C,0.00500*%
G36*
X813084Y178720D02*
X812819D01*
Y179824D01*
X810842D01*
Y180123D01*
X813084D01*
Y178720D01*
D02*
G37*
G36*
X811642Y178221D02*
X811620Y178172D01*
X811597Y178123D01*
X811574Y178078D01*
X811555Y178039D01*
X811539Y178007D01*
X811526Y177987D01*
X811522Y177984D01*
Y177981D01*
X811487Y177923D01*
X811451Y177871D01*
X811419Y177825D01*
X811390Y177790D01*
X811367Y177757D01*
X811347Y177738D01*
X811335Y177722D01*
X811331Y177718D01*
X813084D01*
Y177443D01*
X810832D01*
Y177621D01*
X810887Y177654D01*
X810939Y177689D01*
X810991Y177732D01*
X811036Y177770D01*
X811075Y177809D01*
X811108Y177838D01*
X811117Y177851D01*
X811127Y177861D01*
X811130Y177864D01*
X811134Y177867D01*
X811189Y177936D01*
X811241Y178004D01*
X811286Y178068D01*
X811322Y178133D01*
X811354Y178188D01*
X811367Y178211D01*
X811377Y178230D01*
X811386Y178247D01*
X811390Y178260D01*
X811396Y178266D01*
Y178269D01*
X811662D01*
X811642Y178221D01*
D02*
G37*
G36*
X807080Y208539D02*
X807116Y208488D01*
X807158Y208436D01*
X807197Y208390D01*
X807236Y208351D01*
X807265Y208319D01*
X807278Y208309D01*
X807288Y208300D01*
X807291Y208296D01*
X807294Y208293D01*
X807362Y208238D01*
X807430Y208186D01*
X807495Y208141D01*
X807560Y208105D01*
X807615Y208073D01*
X807638Y208060D01*
X807657Y208050D01*
X807673Y208040D01*
X807686Y208037D01*
X807693Y208031D01*
X807696D01*
Y207765D01*
X807647Y207784D01*
X807599Y207807D01*
X807550Y207830D01*
X807505Y207853D01*
X807466Y207872D01*
X807433Y207888D01*
X807414Y207901D01*
X807411Y207904D01*
X807407D01*
X807349Y207940D01*
X807297Y207976D01*
X807252Y208008D01*
X807216Y208037D01*
X807184Y208060D01*
X807164Y208079D01*
X807148Y208092D01*
X807145Y208096D01*
Y206343D01*
X806870D01*
Y208594D01*
X807048D01*
X807080Y208539D01*
D02*
G37*
G36*
X810051Y207289D02*
Y207224D01*
X810048Y207162D01*
X810045Y207104D01*
X810038Y207049D01*
X810032Y207000D01*
X810025Y206955D01*
X810016Y206913D01*
X810009Y206874D01*
X810003Y206838D01*
X809993Y206809D01*
X809986Y206783D01*
X809980Y206764D01*
X809974Y206748D01*
X809970Y206735D01*
X809967Y206728D01*
Y206725D01*
X809931Y206654D01*
X809886Y206589D01*
X809841Y206537D01*
X809792Y206492D01*
X809750Y206456D01*
X809714Y206430D01*
X809701Y206424D01*
X809692Y206417D01*
X809685Y206411D01*
X809682D01*
X809601Y206375D01*
X809517Y206349D01*
X809429Y206330D01*
X809348Y206317D01*
X809313Y206313D01*
X809277Y206310D01*
X809245Y206307D01*
X809219D01*
X809196Y206304D01*
X809167D01*
X809050Y206310D01*
X808998Y206317D01*
X808950Y206323D01*
X808901Y206333D01*
X808859Y206343D01*
X808820Y206352D01*
X808784Y206365D01*
X808752Y206378D01*
X808726Y206388D01*
X808700Y206398D01*
X808681Y206407D01*
X808665Y206417D01*
X808655Y206420D01*
X808648Y206427D01*
X808645D01*
X808574Y206475D01*
X808516Y206531D01*
X808470Y206582D01*
X808431Y206634D01*
X808402Y206680D01*
X808383Y206715D01*
X808376Y206728D01*
X808370Y206738D01*
X808366Y206744D01*
Y206748D01*
X808354Y206786D01*
X808341Y206829D01*
X808321Y206916D01*
X808308Y207007D01*
X808298Y207094D01*
X808295Y207133D01*
X808292Y207172D01*
Y207205D01*
X808289Y207234D01*
Y207256D01*
Y207273D01*
Y207285D01*
Y207289D01*
Y208585D01*
X808587D01*
Y207289D01*
Y207214D01*
X808593Y207143D01*
X808600Y207081D01*
X808609Y207023D01*
X808619Y206971D01*
X808632Y206923D01*
X808642Y206880D01*
X808655Y206845D01*
X808668Y206816D01*
X808681Y206786D01*
X808694Y206767D01*
X808704Y206748D01*
X808713Y206735D01*
X808720Y206725D01*
X808723Y206722D01*
X808726Y206718D01*
X808755Y206693D01*
X808788Y206670D01*
X808859Y206634D01*
X808934Y206608D01*
X809011Y206592D01*
X809083Y206579D01*
X809112Y206576D01*
X809141D01*
X809160Y206573D01*
X809193D01*
X809261Y206576D01*
X809322Y206586D01*
X809381Y206595D01*
X809426Y206612D01*
X809465Y206625D01*
X809494Y206634D01*
X809510Y206644D01*
X809517Y206647D01*
X809562Y206676D01*
X809601Y206712D01*
X809633Y206748D01*
X809656Y206780D01*
X809676Y206812D01*
X809692Y206835D01*
X809698Y206851D01*
X809701Y206858D01*
X809711Y206887D01*
X809718Y206916D01*
X809731Y206984D01*
X809740Y207055D01*
X809747Y207127D01*
X809750Y207188D01*
Y207217D01*
X809753Y207240D01*
Y207260D01*
Y207276D01*
Y207285D01*
Y207289D01*
Y208585D01*
X810051D01*
Y207289D01*
D02*
G37*
G36*
X782439Y315589D02*
X780686D01*
X780689Y315586D01*
X780702Y315570D01*
X780722Y315550D01*
X780744Y315518D01*
X780773Y315482D01*
X780806Y315437D01*
X780842Y315385D01*
X780877Y315327D01*
Y315324D01*
X780880Y315320D01*
X780893Y315301D01*
X780910Y315269D01*
X780929Y315230D01*
X780952Y315184D01*
X780974Y315136D01*
X780997Y315087D01*
X781016Y315039D01*
X780751D01*
Y315042D01*
X780744Y315048D01*
X780741Y315061D01*
X780731Y315077D01*
X780722Y315097D01*
X780709Y315120D01*
X780676Y315175D01*
X780641Y315239D01*
X780595Y315304D01*
X780544Y315372D01*
X780488Y315440D01*
X780485Y315444D01*
X780482Y315447D01*
X780472Y315457D01*
X780463Y315470D01*
X780430Y315499D01*
X780391Y315538D01*
X780346Y315576D01*
X780294Y315618D01*
X780242Y315654D01*
X780187Y315687D01*
Y315865D01*
X782439D01*
Y315589D01*
D02*
G37*
G36*
Y313185D02*
X780197D01*
Y313483D01*
X782173D01*
Y314588D01*
X782439D01*
Y313185D01*
D02*
G37*
G36*
X762740Y248398D02*
X760764D01*
Y247294D01*
X760498D01*
Y248697D01*
X762740D01*
Y248398D01*
D02*
G37*
G36*
X762186Y246840D02*
X762193Y246834D01*
X762196Y246821D01*
X762206Y246804D01*
X762215Y246785D01*
X762228Y246762D01*
X762261Y246707D01*
X762296Y246642D01*
X762342Y246578D01*
X762394Y246510D01*
X762449Y246442D01*
X762452Y246438D01*
X762455Y246435D01*
X762465Y246425D01*
X762474Y246412D01*
X762507Y246383D01*
X762546Y246344D01*
X762591Y246305D01*
X762643Y246263D01*
X762695Y246228D01*
X762750Y246195D01*
Y246017D01*
X760498D01*
Y246292D01*
X762251D01*
X762248Y246296D01*
X762235Y246312D01*
X762215Y246331D01*
X762193Y246364D01*
X762163Y246399D01*
X762131Y246445D01*
X762095Y246497D01*
X762060Y246555D01*
Y246558D01*
X762057Y246561D01*
X762044Y246581D01*
X762027Y246613D01*
X762008Y246652D01*
X761985Y246697D01*
X761963Y246746D01*
X761940Y246795D01*
X761920Y246843D01*
X762186D01*
Y246840D01*
D02*
G37*
G36*
X748740Y248899D02*
X746764D01*
Y247794D01*
X746498D01*
Y249197D01*
X748740D01*
Y248899D01*
D02*
G37*
G36*
X748186Y247340D02*
X748193Y247334D01*
X748196Y247321D01*
X748206Y247304D01*
X748215Y247285D01*
X748228Y247262D01*
X748261Y247207D01*
X748296Y247142D01*
X748342Y247078D01*
X748393Y247010D01*
X748449Y246942D01*
X748452Y246938D01*
X748455Y246935D01*
X748465Y246925D01*
X748475Y246912D01*
X748507Y246883D01*
X748546Y246844D01*
X748591Y246806D01*
X748643Y246763D01*
X748695Y246728D01*
X748750Y246695D01*
Y246517D01*
X746498D01*
Y246793D01*
X748251D01*
X748248Y246796D01*
X748235Y246812D01*
X748215Y246831D01*
X748193Y246864D01*
X748164Y246899D01*
X748131Y246945D01*
X748095Y246997D01*
X748060Y247055D01*
Y247058D01*
X748057Y247061D01*
X748044Y247081D01*
X748027Y247113D01*
X748008Y247152D01*
X747985Y247198D01*
X747963Y247246D01*
X747940Y247295D01*
X747921Y247343D01*
X748186D01*
Y247340D01*
D02*
G37*
G36*
X759970Y315652D02*
X758217D01*
X758221Y315649D01*
X758234Y315633D01*
X758253Y315614D01*
X758276Y315581D01*
X758305Y315545D01*
X758337Y315500D01*
X758373Y315448D01*
X758409Y315390D01*
Y315387D01*
X758412Y315383D01*
X758425Y315364D01*
X758441Y315332D01*
X758461Y315293D01*
X758483Y315247D01*
X758506Y315199D01*
X758529Y315150D01*
X758548Y315102D01*
X758282D01*
Y315105D01*
X758276Y315111D01*
X758273Y315124D01*
X758263Y315140D01*
X758253Y315160D01*
X758240Y315183D01*
X758208Y315238D01*
X758172Y315302D01*
X758127Y315367D01*
X758075Y315435D01*
X758020Y315503D01*
X758017Y315507D01*
X758013Y315510D01*
X758004Y315519D01*
X757994Y315532D01*
X757962Y315562D01*
X757923Y315600D01*
X757877Y315639D01*
X757826Y315682D01*
X757774Y315717D01*
X757719Y315750D01*
Y315928D01*
X759970D01*
Y315652D01*
D02*
G37*
G36*
Y313248D02*
X757728D01*
Y313546D01*
X759705D01*
Y314651D01*
X759970D01*
Y313248D01*
D02*
G37*
G36*
X732470Y315208D02*
X730718D01*
X730721Y315204D01*
X730734Y315188D01*
X730753Y315169D01*
X730776Y315136D01*
X730805Y315101D01*
X730837Y315055D01*
X730873Y315003D01*
X730909Y314945D01*
Y314942D01*
X730912Y314939D01*
X730925Y314919D01*
X730941Y314887D01*
X730961Y314848D01*
X730983Y314803D01*
X731006Y314754D01*
X731029Y314705D01*
X731048Y314657D01*
X730782D01*
Y314660D01*
X730776Y314666D01*
X730773Y314679D01*
X730763Y314696D01*
X730753Y314715D01*
X730740Y314738D01*
X730708Y314793D01*
X730672Y314858D01*
X730627Y314922D01*
X730575Y314990D01*
X730520Y315058D01*
X730517Y315062D01*
X730513Y315065D01*
X730504Y315075D01*
X730494Y315088D01*
X730462Y315117D01*
X730423Y315156D01*
X730377Y315195D01*
X730326Y315237D01*
X730274Y315272D01*
X730219Y315305D01*
Y315483D01*
X732470D01*
Y315208D01*
D02*
G37*
G36*
Y312803D02*
X730228D01*
Y313102D01*
X732205D01*
Y314206D01*
X732470D01*
Y312803D01*
D02*
G37*
G36*
X775697Y222686D02*
X774982D01*
Y223013D01*
X775697D01*
Y222686D01*
D02*
G37*
G36*
X779291Y223784D02*
X779344Y223780D01*
X779441Y223749D01*
X779524Y223714D01*
X779595Y223665D01*
X779652Y223621D01*
X779696Y223586D01*
X779723Y223555D01*
X779732Y223551D01*
Y223546D01*
X779767Y223498D01*
X779798Y223449D01*
X779846Y223348D01*
X779882Y223246D01*
X779904Y223154D01*
X779921Y223070D01*
X779926Y223035D01*
Y223004D01*
X779930Y222977D01*
Y222960D01*
Y222947D01*
Y222942D01*
X779926Y222823D01*
X779904Y222717D01*
X779877Y222625D01*
X779838Y222541D01*
X779793Y222470D01*
X779745Y222409D01*
X779692Y222356D01*
X779635Y222311D01*
X779582Y222276D01*
X779524Y222250D01*
X779476Y222228D01*
X779432Y222210D01*
X779392Y222201D01*
X779366Y222192D01*
X779348Y222188D01*
X779339D01*
Y221407D01*
X779846D01*
Y221099D01*
X779008D01*
Y222488D01*
X779026Y222483D01*
X779048Y222479D01*
X779092Y222470D01*
X779145D01*
X779216Y222475D01*
X779282Y222492D01*
X779335Y222510D01*
X779379Y222536D01*
X779414Y222558D01*
X779441Y222581D01*
X779458Y222598D01*
X779463Y222603D01*
X779502Y222655D01*
X779533Y222713D01*
X779551Y222770D01*
X779568Y222827D01*
X779577Y222876D01*
X779582Y222920D01*
Y222947D01*
Y222951D01*
Y222955D01*
X779577Y223039D01*
X779564Y223114D01*
X779546Y223180D01*
X779529Y223233D01*
X779507Y223273D01*
X779489Y223304D01*
X779476Y223326D01*
X779471Y223330D01*
X779427Y223374D01*
X779379Y223405D01*
X779330Y223432D01*
X779282Y223445D01*
X779242Y223454D01*
X779207Y223458D01*
X779185Y223463D01*
X779176D01*
X779132Y223458D01*
X779088Y223454D01*
X779044Y223445D01*
X779004Y223432D01*
X778964Y223418D01*
X778938Y223410D01*
X778920Y223405D01*
X778911Y223401D01*
Y223718D01*
X778973Y223740D01*
X779031Y223758D01*
X779088Y223771D01*
X779136Y223780D01*
X779176Y223784D01*
X779211Y223789D01*
X779238D01*
X779291Y223784D01*
D02*
G37*
G36*
X766771D02*
X766824Y223780D01*
X766921Y223749D01*
X767004Y223714D01*
X767075Y223665D01*
X767132Y223621D01*
X767176Y223586D01*
X767203Y223555D01*
X767212Y223551D01*
Y223546D01*
X767247Y223498D01*
X767278Y223449D01*
X767326Y223348D01*
X767362Y223246D01*
X767384Y223154D01*
X767401Y223070D01*
X767406Y223035D01*
Y223004D01*
X767410Y222977D01*
Y222960D01*
Y222947D01*
Y222942D01*
X767406Y222823D01*
X767384Y222717D01*
X767357Y222625D01*
X767317Y222541D01*
X767273Y222470D01*
X767225Y222409D01*
X767172Y222356D01*
X767115Y222311D01*
X767062Y222276D01*
X767004Y222250D01*
X766956Y222228D01*
X766912Y222210D01*
X766872Y222201D01*
X766846Y222192D01*
X766828Y222188D01*
X766819D01*
Y221407D01*
X767326D01*
Y221099D01*
X766488D01*
Y222488D01*
X766506Y222483D01*
X766528Y222479D01*
X766572Y222470D01*
X766625D01*
X766696Y222475D01*
X766762Y222492D01*
X766815Y222510D01*
X766859Y222536D01*
X766894Y222558D01*
X766921Y222581D01*
X766938Y222598D01*
X766943Y222603D01*
X766982Y222655D01*
X767013Y222713D01*
X767031Y222770D01*
X767049Y222827D01*
X767057Y222876D01*
X767062Y222920D01*
Y222947D01*
Y222951D01*
Y222955D01*
X767057Y223039D01*
X767044Y223114D01*
X767026Y223180D01*
X767009Y223233D01*
X766987Y223273D01*
X766969Y223304D01*
X766956Y223326D01*
X766952Y223330D01*
X766907Y223374D01*
X766859Y223405D01*
X766810Y223432D01*
X766762Y223445D01*
X766722Y223454D01*
X766687Y223458D01*
X766665Y223463D01*
X766656D01*
X766612Y223458D01*
X766568Y223454D01*
X766524Y223445D01*
X766484Y223432D01*
X766444Y223418D01*
X766418Y223410D01*
X766400Y223405D01*
X766391Y223401D01*
Y223718D01*
X766453Y223740D01*
X766510Y223758D01*
X766568Y223771D01*
X766616Y223780D01*
X766656Y223784D01*
X766691Y223789D01*
X766718D01*
X766771Y223784D01*
D02*
G37*
G36*
X781390Y223405D02*
X780768D01*
X780825Y223295D01*
X780874Y223193D01*
X780922Y223096D01*
X780966Y223008D01*
X781006Y222924D01*
X781041Y222845D01*
X781072Y222775D01*
X781103Y222708D01*
X781125Y222651D01*
X781147Y222603D01*
X781165Y222558D01*
X781178Y222523D01*
X781191Y222497D01*
X781200Y222479D01*
X781205Y222466D01*
Y222461D01*
X781249Y222334D01*
X781280Y222214D01*
X781302Y222104D01*
X781315Y222007D01*
X781324Y221963D01*
X781328Y221928D01*
Y221892D01*
X781332Y221866D01*
Y221844D01*
Y221826D01*
Y221817D01*
Y221813D01*
X781324Y221690D01*
X781306Y221584D01*
X781280Y221491D01*
X781253Y221412D01*
X781222Y221350D01*
X781196Y221306D01*
X781182Y221293D01*
X781178Y221280D01*
X781169Y221271D01*
X781138Y221235D01*
X781103Y221204D01*
X781033Y221156D01*
X780958Y221121D01*
X780887Y221099D01*
X780825Y221081D01*
X780772Y221077D01*
X780755Y221072D01*
X780728D01*
X780662Y221077D01*
X780592Y221086D01*
X780525Y221103D01*
X780468Y221121D01*
X780420Y221138D01*
X780380Y221156D01*
X780353Y221165D01*
X780349Y221169D01*
X780345D01*
Y221518D01*
X780411Y221487D01*
X780468Y221465D01*
X780521Y221451D01*
X780561Y221438D01*
X780596Y221434D01*
X780618Y221429D01*
X780640D01*
X780693Y221434D01*
X780746Y221447D01*
X780786Y221469D01*
X780821Y221491D01*
X780852Y221513D01*
X780869Y221535D01*
X780883Y221549D01*
X780887Y221553D01*
X780918Y221601D01*
X780944Y221654D01*
X780962Y221707D01*
X780971Y221760D01*
X780980Y221804D01*
X780984Y221840D01*
Y221866D01*
Y221870D01*
Y221875D01*
X780975Y222003D01*
X780953Y222144D01*
X780922Y222289D01*
X780878Y222439D01*
X780825Y222589D01*
X780764Y222744D01*
X780702Y222889D01*
X780640Y223035D01*
X780574Y223167D01*
X780512Y223290D01*
X780450Y223405D01*
X780402Y223502D01*
X780375Y223542D01*
X780358Y223582D01*
X780336Y223612D01*
X780323Y223639D01*
X780309Y223661D01*
X780301Y223678D01*
X780292Y223687D01*
Y223692D01*
Y223740D01*
X781390D01*
Y223405D01*
D02*
G37*
G36*
X774656D02*
X774034D01*
X774091Y223295D01*
X774140Y223193D01*
X774188Y223096D01*
X774232Y223008D01*
X774272Y222924D01*
X774307Y222845D01*
X774338Y222775D01*
X774369Y222708D01*
X774391Y222651D01*
X774413Y222603D01*
X774431Y222558D01*
X774444Y222523D01*
X774457Y222497D01*
X774466Y222479D01*
X774471Y222466D01*
Y222461D01*
X774515Y222334D01*
X774545Y222214D01*
X774568Y222104D01*
X774581Y222007D01*
X774590Y221963D01*
X774594Y221928D01*
Y221892D01*
X774598Y221866D01*
Y221844D01*
Y221826D01*
Y221817D01*
Y221813D01*
X774590Y221690D01*
X774572Y221584D01*
X774545Y221491D01*
X774519Y221412D01*
X774488Y221350D01*
X774462Y221306D01*
X774448Y221293D01*
X774444Y221280D01*
X774435Y221271D01*
X774404Y221235D01*
X774369Y221204D01*
X774298Y221156D01*
X774224Y221121D01*
X774153Y221099D01*
X774091Y221081D01*
X774038Y221077D01*
X774021Y221072D01*
X773994D01*
X773928Y221077D01*
X773857Y221086D01*
X773791Y221103D01*
X773734Y221121D01*
X773686Y221138D01*
X773646Y221156D01*
X773619Y221165D01*
X773615Y221169D01*
X773611D01*
Y221518D01*
X773677Y221487D01*
X773734Y221465D01*
X773787Y221451D01*
X773827Y221438D01*
X773862Y221434D01*
X773884Y221429D01*
X773906D01*
X773959Y221434D01*
X774012Y221447D01*
X774052Y221469D01*
X774087Y221491D01*
X774118Y221513D01*
X774135Y221535D01*
X774149Y221549D01*
X774153Y221553D01*
X774184Y221601D01*
X774210Y221654D01*
X774228Y221707D01*
X774237Y221760D01*
X774246Y221804D01*
X774250Y221840D01*
Y221866D01*
Y221870D01*
Y221875D01*
X774241Y222003D01*
X774219Y222144D01*
X774188Y222289D01*
X774144Y222439D01*
X774091Y222589D01*
X774029Y222744D01*
X773968Y222889D01*
X773906Y223035D01*
X773840Y223167D01*
X773778Y223290D01*
X773716Y223405D01*
X773668Y223502D01*
X773641Y223542D01*
X773624Y223582D01*
X773602Y223612D01*
X773589Y223639D01*
X773575Y223661D01*
X773566Y223678D01*
X773558Y223687D01*
Y223692D01*
Y223740D01*
X774656D01*
Y223405D01*
D02*
G37*
G36*
X769650Y223784D02*
X769699Y223780D01*
X769787Y223753D01*
X769867Y223718D01*
X769933Y223674D01*
X769985Y223635D01*
X770025Y223599D01*
X770052Y223573D01*
X770060Y223568D01*
Y223564D01*
X770096Y223520D01*
X770122Y223476D01*
X770171Y223379D01*
X770206Y223290D01*
X770228Y223202D01*
X770241Y223127D01*
X770246Y223092D01*
Y223066D01*
X770250Y223043D01*
Y223026D01*
Y223017D01*
Y223013D01*
X770246Y222920D01*
X770232Y222832D01*
X770211Y222752D01*
X770184Y222686D01*
X770149Y222620D01*
X770113Y222567D01*
X770074Y222519D01*
X770034Y222475D01*
X769994Y222439D01*
X769955Y222409D01*
X769919Y222382D01*
X769884Y222360D01*
X769858Y222347D01*
X769836Y222338D01*
X769822Y222329D01*
X769818D01*
X769888Y222289D01*
X769950Y222245D01*
X770003Y222201D01*
X770052Y222153D01*
X770087Y222100D01*
X770122Y222051D01*
X770149Y222003D01*
X770171Y221954D01*
X770184Y221910D01*
X770197Y221866D01*
X770206Y221826D01*
X770215Y221796D01*
Y221769D01*
X770219Y221747D01*
Y221734D01*
Y221729D01*
X770211Y221628D01*
X770193Y221535D01*
X770166Y221456D01*
X770135Y221390D01*
X770100Y221337D01*
X770074Y221297D01*
X770056Y221271D01*
X770047Y221262D01*
X770016Y221227D01*
X769981Y221200D01*
X769911Y221152D01*
X769840Y221116D01*
X769774Y221094D01*
X769712Y221081D01*
X769668Y221077D01*
X769650Y221072D01*
X769624D01*
X769562Y221077D01*
X769509Y221081D01*
X769456Y221094D01*
X769412Y221103D01*
X769377Y221116D01*
X769346Y221130D01*
X769328Y221134D01*
X769324Y221138D01*
Y221469D01*
X769368Y221447D01*
X769412Y221429D01*
X769452Y221416D01*
X769487Y221407D01*
X769514Y221403D01*
X769536Y221399D01*
X769553D01*
X769606Y221403D01*
X769650Y221416D01*
X769690Y221434D01*
X769721Y221451D01*
X769747Y221469D01*
X769769Y221487D01*
X769778Y221500D01*
X769783Y221504D01*
X769814Y221549D01*
X769836Y221593D01*
X769849Y221641D01*
X769862Y221685D01*
X769867Y221725D01*
X769871Y221756D01*
Y221778D01*
Y221787D01*
X769867Y221848D01*
X769858Y221901D01*
X769840Y221950D01*
X769822Y221989D01*
X769800Y222025D01*
X769774Y222056D01*
X769743Y222082D01*
X769717Y222104D01*
X769655Y222140D01*
X769606Y222157D01*
X769589Y222166D01*
X769571D01*
X769562Y222170D01*
X769558D01*
Y222505D01*
X769620Y222519D01*
X769672Y222541D01*
X769717Y222572D01*
X769756Y222603D01*
X769792Y222642D01*
X769818Y222682D01*
X769840Y222722D01*
X769858Y222766D01*
X769884Y222845D01*
X769893Y222885D01*
X769897Y222916D01*
X769902Y222942D01*
Y222964D01*
Y222977D01*
Y222982D01*
X769897Y223061D01*
X769888Y223132D01*
X769871Y223189D01*
X769853Y223242D01*
X769836Y223282D01*
X769818Y223308D01*
X769809Y223330D01*
X769805Y223335D01*
X769765Y223379D01*
X769725Y223410D01*
X769681Y223432D01*
X769642Y223445D01*
X769606Y223454D01*
X769580Y223463D01*
X769553D01*
X769505Y223458D01*
X769452Y223449D01*
X769403Y223436D01*
X769359Y223418D01*
X769320Y223401D01*
X769289Y223388D01*
X769271Y223379D01*
X769262Y223374D01*
Y223714D01*
X769333Y223740D01*
X769399Y223758D01*
X769456Y223771D01*
X769505Y223780D01*
X769549Y223784D01*
X769575Y223789D01*
X769602D01*
X769650Y223784D01*
D02*
G37*
G36*
X776706Y221099D02*
X776367D01*
Y223740D01*
X776706D01*
Y221099D01*
D02*
G37*
G36*
X771419D02*
X771079D01*
Y223740D01*
X771419D01*
Y221099D01*
D02*
G37*
G36*
X778029Y223784D02*
X778074Y223780D01*
X778153Y223753D01*
X778223Y223718D01*
X778285Y223678D01*
X778334Y223639D01*
X778369Y223608D01*
X778387Y223582D01*
X778395Y223577D01*
Y223573D01*
X778448Y223484D01*
X778488Y223392D01*
X778514Y223295D01*
X778537Y223207D01*
X778545Y223123D01*
X778550Y223088D01*
Y223057D01*
X778554Y223035D01*
Y223017D01*
Y223004D01*
Y222999D01*
X778550Y222920D01*
X778541Y222845D01*
X778528Y222779D01*
X778506Y222717D01*
X778484Y222660D01*
X778457Y222607D01*
X778431Y222563D01*
X778404Y222519D01*
X778373Y222483D01*
X778347Y222453D01*
X778320Y222426D01*
X778298Y222404D01*
X778276Y222391D01*
X778263Y222378D01*
X778254Y222369D01*
X778250D01*
X778298Y222329D01*
X778338Y222285D01*
X778378Y222241D01*
X778409Y222192D01*
X778435Y222144D01*
X778457Y222095D01*
X778488Y222003D01*
X778510Y221919D01*
X778514Y221879D01*
X778519Y221848D01*
X778523Y221822D01*
Y221804D01*
Y221791D01*
Y221787D01*
X778514Y221672D01*
X778497Y221566D01*
X778470Y221478D01*
X778440Y221403D01*
X778409Y221346D01*
X778382Y221302D01*
X778365Y221275D01*
X778356Y221266D01*
X778325Y221231D01*
X778294Y221200D01*
X778228Y221156D01*
X778166Y221121D01*
X778109Y221094D01*
X778056Y221081D01*
X778016Y221077D01*
X777990Y221072D01*
X777946D01*
X777906Y221081D01*
X777840Y221103D01*
X777774Y221134D01*
X777721Y221165D01*
X777672Y221200D01*
X777641Y221231D01*
X777619Y221253D01*
X777610Y221257D01*
Y221262D01*
X777558Y221337D01*
X777518Y221425D01*
X777487Y221513D01*
X777469Y221597D01*
X777456Y221672D01*
X777452Y221703D01*
Y221729D01*
X777447Y221756D01*
Y221773D01*
Y221782D01*
Y221787D01*
X777452Y221857D01*
X777460Y221919D01*
X777474Y221981D01*
X777491Y222038D01*
X777535Y222140D01*
X777558Y222179D01*
X777584Y222219D01*
X777610Y222254D01*
X777633Y222285D01*
X777659Y222311D01*
X777677Y222329D01*
X777694Y222347D01*
X777707Y222360D01*
X777716Y222364D01*
X777721Y222369D01*
X777668Y222409D01*
X777619Y222448D01*
X777580Y222497D01*
X777544Y222545D01*
X777513Y222598D01*
X777491Y222651D01*
X777469Y222704D01*
X777456Y222757D01*
X777434Y222854D01*
X777425Y222898D01*
X777421Y222933D01*
X777416Y222964D01*
Y222986D01*
Y223004D01*
Y223008D01*
X777425Y223136D01*
X777443Y223246D01*
X777465Y223343D01*
X777496Y223427D01*
X777522Y223493D01*
X777535Y223515D01*
X777549Y223537D01*
X777558Y223555D01*
X777566Y223568D01*
X777571Y223573D01*
Y223577D01*
X777602Y223612D01*
X777633Y223648D01*
X777699Y223701D01*
X777769Y223736D01*
X777835Y223762D01*
X777893Y223776D01*
X777937Y223784D01*
X777954Y223789D01*
X777981D01*
X778029Y223784D01*
D02*
G37*
G36*
X772742D02*
X772786Y223780D01*
X772865Y223753D01*
X772936Y223718D01*
X772998Y223678D01*
X773046Y223639D01*
X773081Y223608D01*
X773099Y223582D01*
X773108Y223577D01*
Y223573D01*
X773161Y223484D01*
X773200Y223392D01*
X773227Y223295D01*
X773249Y223207D01*
X773258Y223123D01*
X773262Y223088D01*
Y223057D01*
X773267Y223035D01*
Y223017D01*
Y223004D01*
Y222999D01*
X773262Y222920D01*
X773253Y222845D01*
X773240Y222779D01*
X773218Y222717D01*
X773196Y222660D01*
X773170Y222607D01*
X773143Y222563D01*
X773117Y222519D01*
X773086Y222483D01*
X773059Y222453D01*
X773033Y222426D01*
X773011Y222404D01*
X772989Y222391D01*
X772975Y222378D01*
X772967Y222369D01*
X772962D01*
X773011Y222329D01*
X773050Y222285D01*
X773090Y222241D01*
X773121Y222192D01*
X773147Y222144D01*
X773170Y222095D01*
X773200Y222003D01*
X773222Y221919D01*
X773227Y221879D01*
X773231Y221848D01*
X773236Y221822D01*
Y221804D01*
Y221791D01*
Y221787D01*
X773227Y221672D01*
X773209Y221566D01*
X773183Y221478D01*
X773152Y221403D01*
X773121Y221346D01*
X773095Y221302D01*
X773077Y221275D01*
X773068Y221266D01*
X773037Y221231D01*
X773006Y221200D01*
X772940Y221156D01*
X772879Y221121D01*
X772821Y221094D01*
X772768Y221081D01*
X772729Y221077D01*
X772702Y221072D01*
X772658D01*
X772618Y221081D01*
X772552Y221103D01*
X772486Y221134D01*
X772433Y221165D01*
X772385Y221200D01*
X772354Y221231D01*
X772332Y221253D01*
X772323Y221257D01*
Y221262D01*
X772270Y221337D01*
X772230Y221425D01*
X772199Y221513D01*
X772182Y221597D01*
X772168Y221672D01*
X772164Y221703D01*
Y221729D01*
X772160Y221756D01*
Y221773D01*
Y221782D01*
Y221787D01*
X772164Y221857D01*
X772173Y221919D01*
X772186Y221981D01*
X772204Y222038D01*
X772248Y222140D01*
X772270Y222179D01*
X772296Y222219D01*
X772323Y222254D01*
X772345Y222285D01*
X772371Y222311D01*
X772389Y222329D01*
X772407Y222347D01*
X772420Y222360D01*
X772429Y222364D01*
X772433Y222369D01*
X772380Y222409D01*
X772332Y222448D01*
X772292Y222497D01*
X772257Y222545D01*
X772226Y222598D01*
X772204Y222651D01*
X772182Y222704D01*
X772168Y222757D01*
X772146Y222854D01*
X772138Y222898D01*
X772133Y222933D01*
X772129Y222964D01*
Y222986D01*
Y223004D01*
Y223008D01*
X772138Y223136D01*
X772155Y223246D01*
X772177Y223343D01*
X772208Y223427D01*
X772235Y223493D01*
X772248Y223515D01*
X772261Y223537D01*
X772270Y223555D01*
X772279Y223568D01*
X772283Y223573D01*
Y223577D01*
X772314Y223612D01*
X772345Y223648D01*
X772411Y223701D01*
X772482Y223736D01*
X772548Y223762D01*
X772605Y223776D01*
X772649Y223784D01*
X772667Y223789D01*
X772693D01*
X772742Y223784D01*
D02*
G37*
G36*
X768407D02*
X768455Y223776D01*
X768504Y223758D01*
X768548Y223736D01*
X768627Y223683D01*
X768689Y223621D01*
X768738Y223559D01*
X768768Y223507D01*
X768782Y223484D01*
X768790Y223467D01*
X768795Y223458D01*
Y223454D01*
X768817Y223388D01*
X768839Y223312D01*
X768857Y223233D01*
X768874Y223149D01*
X768896Y222982D01*
X768914Y222819D01*
X768918Y222739D01*
X768923Y222669D01*
X768927Y222603D01*
X768931Y222545D01*
Y222501D01*
Y222466D01*
Y222444D01*
Y222435D01*
Y222307D01*
X768927Y222188D01*
X768918Y222073D01*
X768910Y221972D01*
X768896Y221879D01*
X768887Y221796D01*
X768874Y221721D01*
X768861Y221650D01*
X768843Y221593D01*
X768830Y221540D01*
X768821Y221496D01*
X768808Y221460D01*
X768799Y221434D01*
X768790Y221412D01*
X768786Y221403D01*
Y221399D01*
X768760Y221341D01*
X768729Y221293D01*
X768693Y221249D01*
X768658Y221209D01*
X768623Y221178D01*
X768588Y221152D01*
X768548Y221130D01*
X768517Y221112D01*
X768451Y221090D01*
X768398Y221077D01*
X768376Y221072D01*
X768349D01*
X768296Y221077D01*
X768248Y221086D01*
X768204Y221108D01*
X768160Y221130D01*
X768124Y221160D01*
X768085Y221196D01*
X768054Y221240D01*
X768019Y221284D01*
X767966Y221390D01*
X767922Y221504D01*
X767882Y221628D01*
X767851Y221751D01*
X767829Y221879D01*
X767811Y222003D01*
X767798Y222117D01*
X767789Y222223D01*
X767785Y222267D01*
Y222307D01*
Y222347D01*
X767780Y222378D01*
Y222400D01*
Y222417D01*
Y222430D01*
Y222435D01*
Y222558D01*
X767785Y222677D01*
X767794Y222783D01*
X767803Y222885D01*
X767811Y222977D01*
X767825Y223061D01*
X767838Y223136D01*
X767851Y223202D01*
X767860Y223264D01*
X767873Y223317D01*
X767886Y223361D01*
X767895Y223396D01*
X767904Y223423D01*
X767913Y223440D01*
X767917Y223454D01*
Y223458D01*
X767944Y223515D01*
X767975Y223568D01*
X768010Y223612D01*
X768041Y223648D01*
X768076Y223683D01*
X768116Y223709D01*
X768151Y223731D01*
X768186Y223749D01*
X768248Y223771D01*
X768301Y223784D01*
X768323D01*
X768336Y223789D01*
X768349D01*
X768407Y223784D01*
D02*
G37*
G36*
X920588Y192398D02*
X920675Y192391D01*
X920759Y192383D01*
X920835Y192376D01*
X920904Y192365D01*
X920966Y192354D01*
X921021Y192343D01*
X921072Y192336D01*
X921115Y192325D01*
X921152Y192314D01*
X921181Y192307D01*
X921203Y192300D01*
X921217Y192292D01*
X921228Y192289D01*
X921232D01*
X921279Y192267D01*
X921323Y192241D01*
X921359Y192212D01*
X921388Y192187D01*
X921418Y192158D01*
X921439Y192125D01*
X921457Y192096D01*
X921472Y192067D01*
X921490Y192016D01*
X921501Y191972D01*
Y191954D01*
X921505Y191943D01*
Y191932D01*
X921501Y191885D01*
X921494Y191845D01*
X921479Y191805D01*
X921461Y191768D01*
X921418Y191703D01*
X921367Y191652D01*
X921316Y191612D01*
X921272Y191586D01*
X921254Y191575D01*
X921239Y191568D01*
X921232Y191564D01*
X921228D01*
X921174Y191546D01*
X921112Y191528D01*
X921046Y191513D01*
X920977Y191499D01*
X920839Y191481D01*
X920704Y191466D01*
X920638Y191463D01*
X920580Y191459D01*
X920526Y191455D01*
X920478Y191452D01*
X920442D01*
X920413D01*
X920395D01*
X920387D01*
X920282D01*
X920183Y191455D01*
X920089Y191463D01*
X920005Y191470D01*
X919929Y191481D01*
X919860Y191488D01*
X919798Y191499D01*
X919740Y191510D01*
X919692Y191524D01*
X919648Y191535D01*
X919612Y191543D01*
X919583Y191553D01*
X919561Y191561D01*
X919543Y191568D01*
X919536Y191572D01*
X919532D01*
X919485Y191594D01*
X919445Y191619D01*
X919408Y191648D01*
X919376Y191677D01*
X919350Y191706D01*
X919328Y191735D01*
X919310Y191768D01*
X919295Y191794D01*
X919277Y191848D01*
X919266Y191892D01*
X919263Y191910D01*
Y191932D01*
X919266Y191976D01*
X919273Y192016D01*
X919292Y192052D01*
X919310Y192089D01*
X919335Y192118D01*
X919364Y192150D01*
X919401Y192176D01*
X919437Y192205D01*
X919525Y192249D01*
X919619Y192285D01*
X919721Y192318D01*
X919823Y192343D01*
X919929Y192362D01*
X920031Y192376D01*
X920125Y192387D01*
X920213Y192394D01*
X920249Y192398D01*
X920282D01*
X920315D01*
X920340Y192402D01*
X920358D01*
X920373D01*
X920384D01*
X920387D01*
X920489D01*
X920588Y192398D01*
D02*
G37*
G36*
X921341Y191211D02*
X921367Y191208D01*
X921407Y191190D01*
X921421Y191179D01*
X921432Y191171D01*
X921439Y191168D01*
X921443Y191164D01*
X921461Y191142D01*
X921472Y191120D01*
X921487Y191080D01*
X921490Y191062D01*
X921494Y191048D01*
Y191037D01*
X921490Y191011D01*
X921487Y190986D01*
X921469Y190946D01*
X921457Y190931D01*
X921450Y190920D01*
X921447Y190917D01*
X921443Y190913D01*
X921421Y190895D01*
X921399Y190880D01*
X921377Y190873D01*
X921359Y190866D01*
X921341Y190862D01*
X921327Y190858D01*
X921319D01*
X921316D01*
X921286Y190862D01*
X921265Y190866D01*
X921225Y190884D01*
X921210Y190895D01*
X921196Y190906D01*
X921192Y190909D01*
X921188Y190913D01*
X921170Y190931D01*
X921155Y190953D01*
X921148Y190975D01*
X921141Y190993D01*
X921137Y191011D01*
X921134Y191026D01*
Y191037D01*
X921137Y191062D01*
X921141Y191088D01*
X921159Y191128D01*
X921170Y191142D01*
X921181Y191153D01*
X921185Y191160D01*
X921188Y191164D01*
X921206Y191182D01*
X921228Y191193D01*
X921272Y191208D01*
X921290Y191211D01*
X921301Y191215D01*
X921312D01*
X921316D01*
X921341Y191211D01*
D02*
G37*
G36*
X921465Y190014D02*
X919285D01*
Y190294D01*
X921465D01*
Y190014D01*
D02*
G37*
G36*
X921144Y189409D02*
X921203Y189399D01*
X921257Y189384D01*
X921297Y189369D01*
X921334Y189355D01*
X921356Y189340D01*
X921374Y189329D01*
X921377Y189326D01*
X921414Y189289D01*
X921439Y189249D01*
X921461Y189209D01*
X921472Y189173D01*
X921479Y189140D01*
X921483Y189115D01*
X921487Y189096D01*
Y189089D01*
X921483Y189060D01*
X921479Y189035D01*
X921457Y188984D01*
X921428Y188940D01*
X921396Y188900D01*
X921363Y188871D01*
X921337Y188849D01*
X921316Y188834D01*
X921312Y188831D01*
X921308D01*
Y188823D01*
X921465D01*
Y188569D01*
X920020D01*
Y188823D01*
X921086D01*
X921097Y188827D01*
X921112Y188834D01*
X921144Y188853D01*
X921159Y188867D01*
X921174Y188874D01*
X921181Y188882D01*
X921185Y188885D01*
X921206Y188907D01*
X921225Y188933D01*
X921235Y188954D01*
X921246Y188976D01*
X921250Y188995D01*
X921254Y189009D01*
Y189024D01*
X921250Y189046D01*
X921246Y189067D01*
X921221Y189100D01*
X921188Y189126D01*
X921152Y189140D01*
X921115Y189151D01*
X921083Y189155D01*
X921057Y189158D01*
X921054D01*
X921050D01*
X920020D01*
Y189413D01*
X921075D01*
X921144Y189409D01*
D02*
G37*
G36*
X921465Y187924D02*
X920457D01*
Y187553D01*
X920195D01*
Y187924D01*
X919547D01*
Y187524D01*
X919285D01*
Y188205D01*
X921465D01*
Y187924D01*
D02*
G37*
G36*
X823506Y215590D02*
X824194Y215980D01*
Y215710D01*
X823491Y215346D01*
X822749Y215739D01*
Y216027D01*
X823506Y215590D01*
D02*
G37*
G36*
X824929Y215066D02*
X822749D01*
Y215321D01*
X824929D01*
Y215066D01*
D02*
G37*
G36*
X824030Y214778D02*
X824125Y214771D01*
X824209Y214764D01*
X824285Y214753D01*
X824354Y214746D01*
X824416Y214735D01*
X824474Y214724D01*
X824522Y214709D01*
X824565Y214698D01*
X824602Y214691D01*
X824631Y214680D01*
X824653Y214673D01*
X824671Y214666D01*
X824678Y214662D01*
X824682D01*
X824729Y214640D01*
X824769Y214615D01*
X824806Y214585D01*
X824838Y214556D01*
X824864Y214527D01*
X824886Y214498D01*
X824904Y214465D01*
X824918Y214440D01*
X824937Y214385D01*
X824947Y214342D01*
X824951Y214323D01*
Y214302D01*
X824947Y214258D01*
X824940Y214218D01*
X824922Y214181D01*
X824904Y214145D01*
X824878Y214116D01*
X824849Y214083D01*
X824813Y214058D01*
X824776Y214029D01*
X824689Y213985D01*
X824594Y213948D01*
X824492Y213916D01*
X824391Y213890D01*
X824285Y213872D01*
X824183Y213858D01*
X824088Y213847D01*
X824001Y213839D01*
X823965Y213836D01*
X823932D01*
X823899D01*
X823874Y213832D01*
X823855D01*
X823841D01*
X823830D01*
X823826D01*
X823724D01*
X823626Y213836D01*
X823539Y213843D01*
X823455Y213850D01*
X823379Y213858D01*
X823310Y213868D01*
X823248Y213879D01*
X823193Y213890D01*
X823142Y213898D01*
X823098Y213909D01*
X823062Y213919D01*
X823033Y213927D01*
X823011Y213934D01*
X822997Y213941D01*
X822986Y213945D01*
X822982D01*
X822935Y213967D01*
X822891Y213992D01*
X822855Y214021D01*
X822825Y214047D01*
X822796Y214076D01*
X822774Y214109D01*
X822756Y214138D01*
X822742Y214167D01*
X822723Y214218D01*
X822713Y214262D01*
Y214280D01*
X822709Y214291D01*
Y214302D01*
X822713Y214349D01*
X822720Y214389D01*
X822734Y214429D01*
X822753Y214465D01*
X822796Y214531D01*
X822847Y214582D01*
X822898Y214622D01*
X822942Y214647D01*
X822960Y214658D01*
X822975Y214666D01*
X822982Y214669D01*
X822986D01*
X823040Y214687D01*
X823102Y214706D01*
X823168Y214720D01*
X823237Y214735D01*
X823375Y214753D01*
X823510Y214768D01*
X823575Y214771D01*
X823633Y214775D01*
X823688Y214778D01*
X823735Y214782D01*
X823772D01*
X823801D01*
X823819D01*
X823826D01*
X823932D01*
X824030Y214778D01*
D02*
G37*
G36*
X824929Y212973D02*
X822749D01*
Y213253D01*
X824929D01*
Y212973D01*
D02*
G37*
G36*
X809718Y195244D02*
X809714Y195175D01*
X809703Y195117D01*
X809689Y195062D01*
X809674Y195022D01*
X809660Y194986D01*
X809645Y194964D01*
X809634Y194946D01*
X809631Y194942D01*
X809594Y194906D01*
X809554Y194880D01*
X809514Y194858D01*
X809478Y194848D01*
X809445Y194840D01*
X809419Y194837D01*
X809401Y194833D01*
X809394D01*
X809365Y194837D01*
X809339Y194840D01*
X809288Y194862D01*
X809245Y194891D01*
X809205Y194924D01*
X809176Y194957D01*
X809154Y194982D01*
X809139Y195004D01*
X809136Y195008D01*
Y195011D01*
X809128D01*
Y194855D01*
X808873D01*
Y196300D01*
X809128D01*
Y195233D01*
X809132Y195222D01*
X809139Y195208D01*
X809157Y195175D01*
X809172Y195161D01*
X809179Y195146D01*
X809186Y195139D01*
X809190Y195135D01*
X809212Y195113D01*
X809237Y195095D01*
X809259Y195084D01*
X809281Y195073D01*
X809299Y195070D01*
X809314Y195066D01*
X809328D01*
X809350Y195070D01*
X809372Y195073D01*
X809405Y195099D01*
X809430Y195131D01*
X809445Y195168D01*
X809456Y195204D01*
X809459Y195237D01*
X809463Y195263D01*
Y195266D01*
Y195270D01*
Y196300D01*
X809718D01*
Y195244D01*
D02*
G37*
G36*
X810599Y194855D02*
X810318D01*
Y197035D01*
X810599D01*
Y194855D01*
D02*
G37*
G36*
X808509D02*
X808229D01*
Y195863D01*
X807858D01*
Y196125D01*
X808229D01*
Y196773D01*
X807829D01*
Y197035D01*
X808509D01*
Y194855D01*
D02*
G37*
G36*
X862655Y173403D02*
X862651Y173334D01*
X862640Y173276D01*
X862626Y173221D01*
X862611Y173181D01*
X862597Y173145D01*
X862582Y173123D01*
X862571Y173105D01*
X862568Y173101D01*
X862531Y173065D01*
X862491Y173039D01*
X862451Y173017D01*
X862415Y173006D01*
X862382Y172999D01*
X862356Y172995D01*
X862338Y172992D01*
X862331D01*
X862302Y172995D01*
X862276Y172999D01*
X862225Y173021D01*
X862182Y173050D01*
X862142Y173083D01*
X862113Y173116D01*
X862091Y173141D01*
X862076Y173163D01*
X862072Y173167D01*
Y173170D01*
X862065D01*
Y173014D01*
X861810D01*
Y174459D01*
X862065D01*
Y173392D01*
X862069Y173381D01*
X862076Y173367D01*
X862094Y173334D01*
X862109Y173319D01*
X862116Y173305D01*
X862123Y173298D01*
X862127Y173294D01*
X862149Y173272D01*
X862174Y173254D01*
X862196Y173243D01*
X862218Y173232D01*
X862236Y173228D01*
X862251Y173225D01*
X862265D01*
X862287Y173228D01*
X862309Y173232D01*
X862342Y173258D01*
X862367Y173290D01*
X862382Y173327D01*
X862393Y173363D01*
X862396Y173396D01*
X862400Y173421D01*
Y173425D01*
Y173429D01*
Y174459D01*
X862655D01*
Y173403D01*
D02*
G37*
G36*
X863536Y173014D02*
X863256D01*
Y175194D01*
X863536D01*
Y173014D01*
D02*
G37*
G36*
X861446D02*
X861166D01*
Y174022D01*
X860795D01*
Y174284D01*
X861166D01*
Y174932D01*
X860766D01*
Y175194D01*
X861446D01*
Y173014D01*
D02*
G37*
G36*
X831218Y209744D02*
X831214Y209675D01*
X831203Y209617D01*
X831189Y209562D01*
X831174Y209522D01*
X831160Y209486D01*
X831145Y209464D01*
X831134Y209446D01*
X831131Y209442D01*
X831094Y209406D01*
X831054Y209380D01*
X831014Y209358D01*
X830978Y209348D01*
X830945Y209340D01*
X830919Y209337D01*
X830901Y209333D01*
X830894D01*
X830865Y209337D01*
X830839Y209340D01*
X830788Y209362D01*
X830745Y209391D01*
X830705Y209424D01*
X830676Y209457D01*
X830654Y209482D01*
X830639Y209504D01*
X830636Y209508D01*
Y209511D01*
X830628D01*
Y209355D01*
X830373D01*
Y210800D01*
X830628D01*
Y209733D01*
X830632Y209722D01*
X830639Y209708D01*
X830657Y209675D01*
X830672Y209661D01*
X830679Y209646D01*
X830686Y209639D01*
X830690Y209635D01*
X830712Y209613D01*
X830737Y209595D01*
X830759Y209584D01*
X830781Y209573D01*
X830799Y209570D01*
X830814Y209566D01*
X830828D01*
X830850Y209570D01*
X830872Y209573D01*
X830905Y209599D01*
X830930Y209631D01*
X830945Y209668D01*
X830956Y209704D01*
X830960Y209737D01*
X830963Y209763D01*
Y209766D01*
Y209770D01*
Y210800D01*
X831218D01*
Y209744D01*
D02*
G37*
G36*
X832099Y209355D02*
X831818D01*
Y211535D01*
X832099D01*
Y209355D01*
D02*
G37*
G36*
X830009D02*
X829729D01*
Y210363D01*
X829358D01*
Y210625D01*
X829729D01*
Y211273D01*
X829329D01*
Y211535D01*
X830009D01*
Y209355D01*
D02*
G37*
G36*
X863904Y200918D02*
X863900Y200849D01*
X863889Y200791D01*
X863875Y200736D01*
X863860Y200696D01*
X863846Y200660D01*
X863831Y200638D01*
X863820Y200620D01*
X863816Y200616D01*
X863780Y200580D01*
X863740Y200554D01*
X863700Y200533D01*
X863663Y200521D01*
X863631Y200514D01*
X863605Y200511D01*
X863587Y200507D01*
X863580D01*
X863551Y200511D01*
X863525Y200514D01*
X863474Y200536D01*
X863431Y200565D01*
X863391Y200598D01*
X863361Y200631D01*
X863340Y200656D01*
X863325Y200678D01*
X863321Y200682D01*
Y200685D01*
X863314D01*
Y200529D01*
X863059D01*
Y201974D01*
X863314D01*
Y200907D01*
X863318Y200897D01*
X863325Y200882D01*
X863343Y200849D01*
X863358Y200835D01*
X863365Y200820D01*
X863372Y200813D01*
X863376Y200809D01*
X863398Y200787D01*
X863423Y200769D01*
X863445Y200758D01*
X863467Y200747D01*
X863485Y200744D01*
X863500Y200740D01*
X863514D01*
X863536Y200744D01*
X863558Y200747D01*
X863591Y200773D01*
X863616Y200805D01*
X863631Y200842D01*
X863642Y200878D01*
X863645Y200911D01*
X863649Y200937D01*
Y200940D01*
Y200944D01*
Y201974D01*
X863904D01*
Y200918D01*
D02*
G37*
G36*
X864785Y200529D02*
X864504D01*
Y202709D01*
X864785D01*
Y200529D01*
D02*
G37*
G36*
X862695D02*
X862415D01*
Y201537D01*
X862044D01*
Y201799D01*
X862415D01*
Y202447D01*
X862015D01*
Y202709D01*
X862695D01*
Y200529D01*
D02*
G37*
G36*
X860997Y179905D02*
X860994Y179836D01*
X860983Y179778D01*
X860968Y179723D01*
X860954Y179683D01*
X860939Y179647D01*
X860925Y179625D01*
X860914Y179607D01*
X860910Y179603D01*
X860874Y179567D01*
X860834Y179541D01*
X860794Y179519D01*
X860757Y179509D01*
X860725Y179501D01*
X860699Y179498D01*
X860681Y179494D01*
X860674D01*
X860644Y179498D01*
X860619Y179501D01*
X860568Y179523D01*
X860524Y179552D01*
X860484Y179585D01*
X860455Y179618D01*
X860433Y179643D01*
X860419Y179665D01*
X860415Y179669D01*
Y179672D01*
X860408D01*
Y179516D01*
X860153D01*
Y180961D01*
X860408D01*
Y179894D01*
X860411Y179884D01*
X860419Y179869D01*
X860437Y179836D01*
X860452Y179822D01*
X860459Y179807D01*
X860466Y179800D01*
X860470Y179796D01*
X860492Y179774D01*
X860517Y179756D01*
X860539Y179745D01*
X860561Y179734D01*
X860579Y179731D01*
X860594Y179727D01*
X860608D01*
X860630Y179731D01*
X860652Y179734D01*
X860684Y179760D01*
X860710Y179792D01*
X860725Y179829D01*
X860735Y179865D01*
X860739Y179898D01*
X860743Y179924D01*
Y179927D01*
Y179931D01*
Y180961D01*
X860997D01*
Y179905D01*
D02*
G37*
G36*
X863072Y179516D02*
X862792D01*
Y181696D01*
X863072D01*
Y179516D01*
D02*
G37*
G36*
X859789D02*
X859509D01*
Y180524D01*
X859138D01*
Y180786D01*
X859509D01*
Y181434D01*
X859108D01*
Y181696D01*
X859789D01*
Y179516D01*
D02*
G37*
G36*
X861787Y181714D02*
X861827Y181707D01*
X861864Y181689D01*
X861900Y181671D01*
X861929Y181645D01*
X861962Y181616D01*
X861988Y181580D01*
X862017Y181543D01*
X862060Y181456D01*
X862097Y181361D01*
X862130Y181259D01*
X862155Y181158D01*
X862173Y181052D01*
X862188Y180950D01*
X862199Y180855D01*
X862206Y180768D01*
X862210Y180732D01*
Y180699D01*
Y180666D01*
X862213Y180641D01*
Y180622D01*
Y180608D01*
Y180597D01*
Y180593D01*
Y180491D01*
X862210Y180393D01*
X862202Y180306D01*
X862195Y180222D01*
X862188Y180146D01*
X862177Y180076D01*
X862166Y180015D01*
X862155Y179960D01*
X862148Y179909D01*
X862137Y179865D01*
X862126Y179829D01*
X862119Y179800D01*
X862111Y179778D01*
X862104Y179763D01*
X862100Y179753D01*
Y179749D01*
X862079Y179701D01*
X862053Y179658D01*
X862024Y179621D01*
X861998Y179592D01*
X861969Y179563D01*
X861937Y179541D01*
X861907Y179523D01*
X861878Y179509D01*
X861827Y179490D01*
X861784Y179480D01*
X861766D01*
X861755Y179476D01*
X861744D01*
X861696Y179480D01*
X861656Y179487D01*
X861616Y179501D01*
X861580Y179519D01*
X861514Y179563D01*
X861464Y179614D01*
X861423Y179665D01*
X861398Y179709D01*
X861387Y179727D01*
X861380Y179742D01*
X861376Y179749D01*
Y179753D01*
X861358Y179807D01*
X861340Y179869D01*
X861325Y179935D01*
X861311Y180004D01*
X861292Y180142D01*
X861278Y180277D01*
X861274Y180342D01*
X861271Y180400D01*
X861267Y180455D01*
X861263Y180502D01*
Y180539D01*
Y180568D01*
Y180586D01*
Y180593D01*
Y180699D01*
X861267Y180797D01*
X861274Y180892D01*
X861281Y180975D01*
X861292Y181052D01*
X861300Y181121D01*
X861311Y181183D01*
X861322Y181241D01*
X861336Y181289D01*
X861347Y181332D01*
X861354Y181369D01*
X861365Y181398D01*
X861372Y181420D01*
X861380Y181438D01*
X861383Y181445D01*
Y181449D01*
X861405Y181496D01*
X861431Y181536D01*
X861460Y181572D01*
X861489Y181605D01*
X861518Y181631D01*
X861547Y181652D01*
X861580Y181671D01*
X861605Y181685D01*
X861660Y181703D01*
X861704Y181714D01*
X861722Y181718D01*
X861744D01*
X861787Y181714D01*
D02*
G37*
G36*
X844295Y166269D02*
X844321Y166266D01*
X844372Y166244D01*
X844415Y166215D01*
X844455Y166182D01*
X844484Y166149D01*
X844506Y166124D01*
X844521Y166102D01*
X844524Y166098D01*
Y166095D01*
X844532D01*
Y166251D01*
X844787D01*
Y164806D01*
X844532D01*
Y165873D01*
X844528Y165883D01*
X844521Y165898D01*
X844503Y165931D01*
X844488Y165945D01*
X844481Y165960D01*
X844473Y165967D01*
X844470Y165971D01*
X844448Y165993D01*
X844423Y166011D01*
X844401Y166022D01*
X844379Y166033D01*
X844361Y166036D01*
X844346Y166040D01*
X844332D01*
X844310Y166036D01*
X844288Y166033D01*
X844255Y166007D01*
X844230Y165974D01*
X844215Y165938D01*
X844204Y165902D01*
X844201Y165869D01*
X844197Y165843D01*
Y165840D01*
Y165836D01*
Y164806D01*
X843942D01*
Y165862D01*
X843946Y165931D01*
X843957Y165989D01*
X843971Y166044D01*
X843986Y166084D01*
X844000Y166120D01*
X844015Y166142D01*
X844026Y166160D01*
X844029Y166164D01*
X844066Y166200D01*
X844106Y166226D01*
X844146Y166247D01*
X844182Y166258D01*
X844215Y166266D01*
X844241Y166269D01*
X844259Y166273D01*
X844266D01*
X844295Y166269D01*
D02*
G37*
G36*
X845431Y165243D02*
X845802D01*
Y164981D01*
X845431D01*
Y164333D01*
X845831D01*
Y164071D01*
X845151D01*
Y166251D01*
X845431D01*
Y165243D01*
D02*
G37*
G36*
X843342Y164071D02*
X843061D01*
Y166251D01*
X843342D01*
Y164071D01*
D02*
G37*
G36*
X812157Y220745D02*
X812539Y219587D01*
X812240D01*
X811993Y220399D01*
X811989D01*
X811734Y219587D01*
X811432D01*
X811822Y220745D01*
X811487Y221767D01*
X811789D01*
X811986Y221043D01*
X811993Y221039D01*
X812186Y221767D01*
X812484D01*
X812157Y220745D01*
D02*
G37*
G36*
X815036Y219587D02*
X814763D01*
X814781Y221163D01*
X814774Y221167D01*
X814497Y220450D01*
X814446D01*
X814170Y221167D01*
X814162Y221163D01*
X814177Y219587D01*
X813904D01*
Y221767D01*
X814144D01*
X814472Y220967D01*
X814799Y221767D01*
X815036D01*
Y219587D01*
D02*
G37*
G36*
X808662Y221109D02*
X808695Y221032D01*
X808728Y220956D01*
X808753Y220879D01*
X808775Y220803D01*
X808812Y220661D01*
X808823Y220595D01*
X808833Y220533D01*
X808841Y220475D01*
X808848Y220421D01*
X808852Y220377D01*
X808855Y220337D01*
X808859Y220304D01*
Y220279D01*
Y220264D01*
Y220260D01*
Y220199D01*
X808852Y220137D01*
X808848Y220082D01*
X808837Y220031D01*
X808830Y219984D01*
X808819Y219940D01*
X808808Y219900D01*
X808793Y219864D01*
X808782Y219835D01*
X808772Y219806D01*
X808761Y219784D01*
X808750Y219762D01*
X808742Y219747D01*
X808735Y219736D01*
X808731Y219733D01*
Y219729D01*
X808706Y219696D01*
X808681Y219671D01*
X808651Y219645D01*
X808626Y219623D01*
X808571Y219591D01*
X808520Y219569D01*
X808477Y219558D01*
X808444Y219551D01*
X808429Y219547D01*
X808411D01*
X808375Y219551D01*
X808342Y219554D01*
X808280Y219580D01*
X808222Y219609D01*
X808175Y219649D01*
X808134Y219685D01*
X808109Y219714D01*
X808091Y219740D01*
X808084Y219744D01*
Y219747D01*
X808040Y219827D01*
X808007Y219915D01*
X807982Y219998D01*
X807967Y220078D01*
X807956Y220151D01*
X807952Y220180D01*
Y220206D01*
X807949Y220228D01*
Y220242D01*
Y220253D01*
Y220257D01*
X807952Y220366D01*
X807967Y220461D01*
X807985Y220544D01*
X808007Y220614D01*
X808018Y220643D01*
X808029Y220668D01*
X808040Y220690D01*
X808047Y220708D01*
X808054Y220723D01*
X808062Y220734D01*
X808065Y220737D01*
Y220741D01*
X808087Y220774D01*
X808109Y220803D01*
X808134Y220828D01*
X808160Y220850D01*
X808207Y220883D01*
X808255Y220905D01*
X808298Y220916D01*
X808331Y220923D01*
X808353Y220927D01*
X808360D01*
X808400Y220923D01*
X808440Y220919D01*
X808455Y220916D01*
X808469Y220912D01*
X808477Y220908D01*
X808480D01*
X808058Y221767D01*
X808338D01*
X808662Y221109D01*
D02*
G37*
G36*
X813700Y219587D02*
X813431D01*
X813343Y220071D01*
X812939D01*
X812859Y219587D01*
X812586D01*
X812998Y221782D01*
X813289D01*
X813700Y219587D01*
D02*
G37*
G36*
X807632D02*
X807352D01*
Y220563D01*
X807316D01*
X807286Y220552D01*
X807257Y220537D01*
X807232Y220519D01*
X807214Y220497D01*
X807199Y220482D01*
X807192Y220468D01*
X807188Y220464D01*
X807174Y220443D01*
X807163Y220410D01*
X807148Y220377D01*
X807133Y220340D01*
X807108Y220257D01*
X807083Y220173D01*
X807064Y220093D01*
X807053Y220057D01*
X807046Y220024D01*
X807039Y219998D01*
X807035Y219980D01*
X807032Y219966D01*
Y219962D01*
X806944Y219587D01*
X806649D01*
X806751Y220035D01*
X806773Y220129D01*
X806799Y220217D01*
X806824Y220293D01*
X806850Y220362D01*
X806875Y220424D01*
X806901Y220479D01*
X806922Y220526D01*
X806948Y220566D01*
X806970Y220599D01*
X806988Y220628D01*
X807006Y220650D01*
X807021Y220665D01*
X807032Y220679D01*
X807043Y220686D01*
X807046Y220694D01*
X807050D01*
X807010Y220726D01*
X806973Y220759D01*
X806944Y220795D01*
X806919Y220832D01*
X806893Y220872D01*
X806875Y220912D01*
X806850Y220988D01*
X806831Y221058D01*
X806828Y221087D01*
X806824Y221112D01*
X806820Y221134D01*
Y221149D01*
Y221160D01*
Y221163D01*
X806828Y221262D01*
X806842Y221345D01*
X806868Y221422D01*
X806893Y221483D01*
X806922Y221534D01*
X806948Y221571D01*
X806955Y221582D01*
X806962Y221593D01*
X806970Y221600D01*
X806999Y221629D01*
X807032Y221655D01*
X807101Y221698D01*
X807170Y221727D01*
X807239Y221746D01*
X807301Y221760D01*
X807330Y221764D01*
X807352D01*
X807374Y221767D01*
X807632D01*
Y219587D01*
D02*
G37*
G36*
X806438D02*
X805634D01*
Y219849D01*
X806158D01*
Y220592D01*
X805703D01*
Y220854D01*
X806158D01*
Y221505D01*
X805663D01*
Y221767D01*
X806438D01*
Y219587D01*
D02*
G37*
G36*
X804505D02*
X804236D01*
X804149Y220071D01*
X803745D01*
X803665Y219587D01*
X803392D01*
X803803Y221782D01*
X804094D01*
X804505Y219587D01*
D02*
G37*
G36*
X804979Y221789D02*
X805040Y221775D01*
X805099Y221753D01*
X805142Y221727D01*
X805179Y221698D01*
X805208Y221676D01*
X805223Y221662D01*
X805230Y221655D01*
X805270Y221600D01*
X805303Y221542D01*
X805324Y221480D01*
X805339Y221422D01*
X805346Y221371D01*
X805350Y221331D01*
X805354Y221316D01*
Y221305D01*
Y221298D01*
Y221294D01*
X805350Y221251D01*
X805346Y221207D01*
X805339Y221163D01*
X805332Y221119D01*
X805324Y221087D01*
X805317Y221058D01*
X805310Y221039D01*
Y221032D01*
X805288Y220970D01*
X805259Y220905D01*
X805226Y220832D01*
X805193Y220763D01*
X805161Y220697D01*
X805146Y220672D01*
X805135Y220646D01*
X805124Y220628D01*
X805117Y220614D01*
X805110Y220603D01*
Y220599D01*
X805081Y220548D01*
X805055Y220501D01*
X805033Y220457D01*
X805015Y220417D01*
X804997Y220381D01*
X804979Y220348D01*
X804953Y220293D01*
X804935Y220253D01*
X804924Y220224D01*
X804917Y220206D01*
Y220202D01*
X804906Y220166D01*
X804895Y220129D01*
X804888Y220097D01*
X804884Y220071D01*
X804880Y220049D01*
Y220035D01*
Y220024D01*
Y220020D01*
X804884Y219987D01*
X804891Y219962D01*
X804902Y219936D01*
X804913Y219915D01*
X804924Y219897D01*
X804935Y219882D01*
X804942Y219875D01*
X804946Y219871D01*
X804971Y219853D01*
X804997Y219838D01*
X805019Y219827D01*
X805044Y219820D01*
X805062Y219816D01*
X805081Y219813D01*
X805095D01*
X805139Y219816D01*
X805182Y219831D01*
X805226Y219849D01*
X805263Y219875D01*
X805292Y219897D01*
X805317Y219915D01*
X805332Y219929D01*
X805339Y219933D01*
Y219642D01*
X805288Y219613D01*
X805241Y219594D01*
X805193Y219580D01*
X805150Y219569D01*
X805117Y219562D01*
X805088Y219558D01*
X805062D01*
X804990Y219565D01*
X804928Y219580D01*
X804873Y219602D01*
X804826Y219627D01*
X804789Y219653D01*
X804760Y219674D01*
X804746Y219689D01*
X804738Y219696D01*
X804695Y219751D01*
X804666Y219813D01*
X804644Y219871D01*
X804626Y219929D01*
X804618Y219980D01*
X804615Y220020D01*
X804611Y220035D01*
Y220046D01*
Y220053D01*
Y220057D01*
X804615Y220100D01*
X804618Y220148D01*
X804626Y220191D01*
X804633Y220235D01*
X804644Y220268D01*
X804651Y220297D01*
X804655Y220315D01*
X804658Y220322D01*
X804680Y220384D01*
X804709Y220453D01*
X804742Y220526D01*
X804778Y220595D01*
X804811Y220657D01*
X804826Y220686D01*
X804837Y220708D01*
X804848Y220730D01*
X804855Y220745D01*
X804858Y220752D01*
X804862Y220756D01*
X804888Y220806D01*
X804913Y220854D01*
X804935Y220897D01*
X804957Y220937D01*
X804975Y220970D01*
X804990Y221003D01*
X805015Y221058D01*
X805033Y221098D01*
X805044Y221123D01*
X805048Y221141D01*
X805051Y221145D01*
X805062Y221185D01*
X805070Y221221D01*
X805077Y221251D01*
X805081Y221280D01*
Y221302D01*
X805084Y221316D01*
Y221327D01*
Y221331D01*
X805081Y221367D01*
X805073Y221400D01*
X805066Y221429D01*
X805051Y221454D01*
X805037Y221473D01*
X805019Y221491D01*
X804979Y221516D01*
X804939Y221531D01*
X804906Y221538D01*
X804891Y221542D01*
X804873D01*
X804840Y221538D01*
X804808Y221531D01*
X804771Y221520D01*
X804742Y221509D01*
X804713Y221498D01*
X804691Y221487D01*
X804677Y221480D01*
X804673Y221476D01*
Y221738D01*
X804720Y221757D01*
X804764Y221771D01*
X804804Y221782D01*
X804840Y221789D01*
X804869Y221793D01*
X804891Y221796D01*
X804910D01*
X804979Y221789D01*
D02*
G37*
G36*
X811258Y221513D02*
X810704D01*
X811087Y219605D01*
X810821Y219547D01*
X810366Y221767D01*
X811258D01*
Y221513D01*
D02*
G37*
G36*
X809667Y221786D02*
X809707Y221778D01*
X809743Y221760D01*
X809780Y221742D01*
X809809Y221716D01*
X809842Y221687D01*
X809867Y221651D01*
X809896Y221615D01*
X809940Y221527D01*
X809976Y221432D01*
X810009Y221331D01*
X810035Y221229D01*
X810053Y221123D01*
X810067Y221021D01*
X810078Y220927D01*
X810086Y220839D01*
X810089Y220803D01*
Y220770D01*
Y220737D01*
X810093Y220712D01*
Y220694D01*
Y220679D01*
Y220668D01*
Y220665D01*
Y220563D01*
X810089Y220464D01*
X810082Y220377D01*
X810075Y220293D01*
X810067Y220217D01*
X810056Y220148D01*
X810046Y220086D01*
X810035Y220031D01*
X810027Y219980D01*
X810016Y219936D01*
X810005Y219900D01*
X809998Y219871D01*
X809991Y219849D01*
X809984Y219835D01*
X809980Y219824D01*
Y219820D01*
X809958Y219773D01*
X809933Y219729D01*
X809904Y219693D01*
X809878Y219664D01*
X809849Y219634D01*
X809816Y219613D01*
X809787Y219594D01*
X809758Y219580D01*
X809707Y219562D01*
X809663Y219551D01*
X809645D01*
X809634Y219547D01*
X809623D01*
X809576Y219551D01*
X809536Y219558D01*
X809496Y219572D01*
X809459Y219591D01*
X809394Y219634D01*
X809343Y219685D01*
X809303Y219736D01*
X809278Y219780D01*
X809267Y219798D01*
X809259Y219813D01*
X809256Y219820D01*
Y219824D01*
X809237Y219878D01*
X809219Y219940D01*
X809205Y220006D01*
X809190Y220075D01*
X809172Y220213D01*
X809157Y220348D01*
X809154Y220413D01*
X809150Y220472D01*
X809146Y220526D01*
X809143Y220573D01*
Y220610D01*
Y220639D01*
Y220657D01*
Y220665D01*
Y220770D01*
X809146Y220868D01*
X809154Y220963D01*
X809161Y221047D01*
X809172Y221123D01*
X809179Y221192D01*
X809190Y221254D01*
X809201Y221312D01*
X809216Y221360D01*
X809227Y221403D01*
X809234Y221440D01*
X809245Y221469D01*
X809252Y221491D01*
X809259Y221509D01*
X809263Y221516D01*
Y221520D01*
X809285Y221567D01*
X809310Y221607D01*
X809339Y221644D01*
X809369Y221676D01*
X809398Y221702D01*
X809427Y221724D01*
X809459Y221742D01*
X809485Y221757D01*
X809540Y221775D01*
X809583Y221786D01*
X809601Y221789D01*
X809623D01*
X809667Y221786D01*
D02*
G37*
G36*
X848779Y349291D02*
X848816Y349215D01*
X848845Y349138D01*
X848874Y349062D01*
X848896Y348989D01*
X848932Y348847D01*
X848943Y348782D01*
X848954Y348716D01*
X848961Y348661D01*
X848969Y348610D01*
X848972Y348563D01*
X848976Y348523D01*
X848979Y348494D01*
Y348468D01*
Y348454D01*
Y348450D01*
X848976Y348334D01*
X848961Y348228D01*
X848950Y348181D01*
X848939Y348137D01*
X848929Y348101D01*
X848918Y348064D01*
X848903Y348032D01*
X848892Y348006D01*
X848881Y347981D01*
X848874Y347963D01*
X848863Y347944D01*
X848859Y347934D01*
X848852Y347930D01*
Y347926D01*
X848827Y347893D01*
X848801Y347861D01*
X848776Y347835D01*
X848750Y347813D01*
X848696Y347781D01*
X848645Y347759D01*
X848597Y347744D01*
X848561Y347737D01*
X848546Y347733D01*
X848528D01*
X848492Y347737D01*
X848459Y347741D01*
X848397Y347766D01*
X848339Y347799D01*
X848291Y347835D01*
X848255Y347872D01*
X848226Y347904D01*
X848208Y347930D01*
X848201Y347934D01*
Y347937D01*
X848157Y348017D01*
X848124Y348101D01*
X848102Y348185D01*
X848088Y348265D01*
X848077Y348334D01*
X848073Y348367D01*
Y348392D01*
X848069Y348414D01*
Y348429D01*
Y348439D01*
Y348443D01*
X848073Y348549D01*
X848088Y348643D01*
X848106Y348727D01*
X848128Y348796D01*
X848135Y348825D01*
X848146Y348854D01*
X848157Y348876D01*
X848164Y348894D01*
X848171Y348909D01*
X848179Y348920D01*
X848182Y348923D01*
Y348927D01*
X848204Y348960D01*
X848226Y348985D01*
X848252Y349011D01*
X848277Y349033D01*
X848328Y349065D01*
X848375Y349087D01*
X848415Y349098D01*
X848452Y349106D01*
X848473Y349109D01*
X848481D01*
X848521Y349106D01*
X848557Y349102D01*
X848572Y349098D01*
X848586D01*
X848594Y349095D01*
X848597D01*
X848193Y349936D01*
X848466D01*
X848779Y349291D01*
D02*
G37*
G36*
X850982Y349065D02*
X850392D01*
Y349335D01*
X850982D01*
Y349065D01*
D02*
G37*
G36*
X857351Y348927D02*
X857723D01*
Y348665D01*
X857351D01*
Y348017D01*
X857752D01*
Y347755D01*
X857071D01*
Y349936D01*
X857351D01*
Y348927D01*
D02*
G37*
G36*
X856867Y349673D02*
X856329D01*
Y347755D01*
X856048D01*
Y349936D01*
X856867D01*
Y349673D01*
D02*
G37*
G36*
X855397Y347755D02*
X855116D01*
Y349936D01*
X855397D01*
Y347755D01*
D02*
G37*
G36*
X847451D02*
X847170D01*
Y349936D01*
X847451D01*
Y347755D01*
D02*
G37*
G36*
X845063D02*
X844783D01*
Y349936D01*
X845063D01*
Y347755D01*
D02*
G37*
G36*
X843869D02*
X843589D01*
Y349936D01*
X843869D01*
Y347755D01*
D02*
G37*
G36*
X841481D02*
X841201D01*
Y349936D01*
X841481D01*
Y347755D01*
D02*
G37*
G36*
X854105Y349972D02*
X854145Y349965D01*
X854185Y349950D01*
X854221Y349932D01*
X854287Y349888D01*
X854338Y349837D01*
X854378Y349786D01*
X854403Y349743D01*
X854414Y349724D01*
X854421Y349710D01*
X854425Y349703D01*
Y349699D01*
X854443Y349644D01*
X854461Y349582D01*
X854476Y349517D01*
X854490Y349448D01*
X854509Y349309D01*
X854523Y349175D01*
X854527Y349109D01*
X854531Y349051D01*
X854534Y348996D01*
X854538Y348949D01*
Y348913D01*
Y348884D01*
Y348865D01*
Y348858D01*
Y348752D01*
X854534Y348654D01*
X854527Y348559D01*
X854520Y348476D01*
X854509Y348399D01*
X854501Y348330D01*
X854490Y348268D01*
X854480Y348210D01*
X854465Y348163D01*
X854454Y348119D01*
X854447Y348083D01*
X854436Y348054D01*
X854429Y348032D01*
X854421Y348013D01*
X854418Y348006D01*
Y348003D01*
X854396Y347955D01*
X854370Y347915D01*
X854341Y347879D01*
X854312Y347846D01*
X854283Y347821D01*
X854254Y347799D01*
X854221Y347781D01*
X854196Y347766D01*
X854141Y347748D01*
X854097Y347737D01*
X854079Y347733D01*
X854057D01*
X854014Y347737D01*
X853974Y347744D01*
X853937Y347762D01*
X853901Y347781D01*
X853872Y347806D01*
X853839Y347835D01*
X853813Y347872D01*
X853784Y347908D01*
X853741Y347995D01*
X853704Y348090D01*
X853671Y348192D01*
X853646Y348294D01*
X853628Y348399D01*
X853613Y348501D01*
X853602Y348596D01*
X853595Y348683D01*
X853591Y348720D01*
Y348752D01*
Y348785D01*
X853588Y348811D01*
Y348829D01*
Y348844D01*
Y348854D01*
Y348858D01*
Y348960D01*
X853591Y349058D01*
X853599Y349146D01*
X853606Y349229D01*
X853613Y349306D01*
X853624Y349375D01*
X853635Y349437D01*
X853646Y349491D01*
X853653Y349542D01*
X853664Y349586D01*
X853675Y349622D01*
X853682Y349652D01*
X853690Y349673D01*
X853697Y349688D01*
X853701Y349699D01*
Y349703D01*
X853722Y349750D01*
X853748Y349794D01*
X853777Y349830D01*
X853802Y349859D01*
X853832Y349888D01*
X853864Y349910D01*
X853893Y349928D01*
X853923Y349943D01*
X853974Y349961D01*
X854017Y349972D01*
X854035D01*
X854046Y349975D01*
X854057D01*
X854105Y349972D01*
D02*
G37*
G36*
X852911D02*
X852951Y349965D01*
X852991Y349950D01*
X853027Y349932D01*
X853093Y349888D01*
X853144Y349837D01*
X853184Y349786D01*
X853209Y349743D01*
X853220Y349724D01*
X853227Y349710D01*
X853231Y349703D01*
Y349699D01*
X853249Y349644D01*
X853267Y349582D01*
X853282Y349517D01*
X853296Y349448D01*
X853315Y349309D01*
X853329Y349175D01*
X853333Y349109D01*
X853337Y349051D01*
X853340Y348996D01*
X853344Y348949D01*
Y348913D01*
Y348884D01*
Y348865D01*
Y348858D01*
Y348752D01*
X853340Y348654D01*
X853333Y348559D01*
X853326Y348476D01*
X853315Y348399D01*
X853307Y348330D01*
X853296Y348268D01*
X853286Y348210D01*
X853271Y348163D01*
X853260Y348119D01*
X853253Y348083D01*
X853242Y348054D01*
X853235Y348032D01*
X853227Y348013D01*
X853224Y348006D01*
Y348003D01*
X853202Y347955D01*
X853176Y347915D01*
X853147Y347879D01*
X853118Y347846D01*
X853089Y347821D01*
X853060Y347799D01*
X853027Y347781D01*
X853002Y347766D01*
X852947Y347748D01*
X852903Y347737D01*
X852885Y347733D01*
X852863D01*
X852820Y347737D01*
X852780Y347744D01*
X852743Y347762D01*
X852707Y347781D01*
X852678Y347806D01*
X852645Y347835D01*
X852619Y347872D01*
X852590Y347908D01*
X852547Y347995D01*
X852510Y348090D01*
X852477Y348192D01*
X852452Y348294D01*
X852434Y348399D01*
X852419Y348501D01*
X852408Y348596D01*
X852401Y348683D01*
X852397Y348720D01*
Y348752D01*
Y348785D01*
X852394Y348811D01*
Y348829D01*
Y348844D01*
Y348854D01*
Y348858D01*
Y348960D01*
X852397Y349058D01*
X852405Y349146D01*
X852412Y349229D01*
X852419Y349306D01*
X852430Y349375D01*
X852441Y349437D01*
X852452Y349491D01*
X852459Y349542D01*
X852470Y349586D01*
X852481Y349622D01*
X852488Y349652D01*
X852496Y349673D01*
X852503Y349688D01*
X852507Y349699D01*
Y349703D01*
X852528Y349750D01*
X852554Y349794D01*
X852583Y349830D01*
X852609Y349859D01*
X852638Y349888D01*
X852670Y349910D01*
X852700Y349928D01*
X852729Y349943D01*
X852780Y349961D01*
X852823Y349972D01*
X852841D01*
X852852Y349975D01*
X852863D01*
X852911Y349972D01*
D02*
G37*
G36*
X851717D02*
X851757Y349965D01*
X851797Y349950D01*
X851833Y349932D01*
X851899Y349888D01*
X851950Y349837D01*
X851990Y349786D01*
X852015Y349743D01*
X852026Y349724D01*
X852033Y349710D01*
X852037Y349703D01*
Y349699D01*
X852055Y349644D01*
X852073Y349582D01*
X852088Y349517D01*
X852103Y349448D01*
X852121Y349309D01*
X852135Y349175D01*
X852139Y349109D01*
X852143Y349051D01*
X852146Y348996D01*
X852150Y348949D01*
Y348913D01*
Y348884D01*
Y348865D01*
Y348858D01*
Y348752D01*
X852146Y348654D01*
X852139Y348559D01*
X852132Y348476D01*
X852121Y348399D01*
X852114Y348330D01*
X852103Y348268D01*
X852092Y348210D01*
X852077Y348163D01*
X852066Y348119D01*
X852059Y348083D01*
X852048Y348054D01*
X852041Y348032D01*
X852033Y348013D01*
X852030Y348006D01*
Y348003D01*
X852008Y347955D01*
X851982Y347915D01*
X851953Y347879D01*
X851924Y347846D01*
X851895Y347821D01*
X851866Y347799D01*
X851833Y347781D01*
X851808Y347766D01*
X851753Y347748D01*
X851709Y347737D01*
X851691Y347733D01*
X851669D01*
X851626Y347737D01*
X851586Y347744D01*
X851549Y347762D01*
X851513Y347781D01*
X851484Y347806D01*
X851451Y347835D01*
X851426Y347872D01*
X851396Y347908D01*
X851353Y347995D01*
X851316Y348090D01*
X851284Y348192D01*
X851258Y348294D01*
X851240Y348399D01*
X851225Y348501D01*
X851214Y348596D01*
X851207Y348683D01*
X851204Y348720D01*
Y348752D01*
Y348785D01*
X851200Y348811D01*
Y348829D01*
Y348844D01*
Y348854D01*
Y348858D01*
Y348960D01*
X851204Y349058D01*
X851211Y349146D01*
X851218Y349229D01*
X851225Y349306D01*
X851236Y349375D01*
X851247Y349437D01*
X851258Y349491D01*
X851265Y349542D01*
X851276Y349586D01*
X851287Y349622D01*
X851295Y349652D01*
X851302Y349673D01*
X851309Y349688D01*
X851313Y349699D01*
Y349703D01*
X851335Y349750D01*
X851360Y349794D01*
X851389Y349830D01*
X851415Y349859D01*
X851444Y349888D01*
X851476Y349910D01*
X851506Y349928D01*
X851535Y349943D01*
X851586Y349961D01*
X851629Y349972D01*
X851648D01*
X851659Y349975D01*
X851669D01*
X851717Y349972D01*
D02*
G37*
G36*
X850042Y349339D02*
X850163D01*
Y349138D01*
X850042D01*
Y347733D01*
X849780D01*
X849191Y349087D01*
Y349339D01*
X849762D01*
Y349936D01*
X850042D01*
Y349339D01*
D02*
G37*
G36*
X846155Y349972D02*
X846191Y349968D01*
X846257Y349946D01*
X846315Y349917D01*
X846366Y349885D01*
X846406Y349852D01*
X846435Y349826D01*
X846450Y349804D01*
X846457Y349801D01*
Y349797D01*
X846501Y349724D01*
X846533Y349648D01*
X846555Y349568D01*
X846573Y349495D01*
X846581Y349426D01*
X846584Y349397D01*
Y349371D01*
X846588Y349353D01*
Y349339D01*
Y349328D01*
Y349324D01*
X846584Y349258D01*
X846577Y349197D01*
X846566Y349142D01*
X846548Y349091D01*
X846530Y349044D01*
X846508Y349000D01*
X846486Y348964D01*
X846464Y348927D01*
X846439Y348898D01*
X846417Y348873D01*
X846395Y348851D01*
X846377Y348833D01*
X846359Y348822D01*
X846348Y348811D01*
X846340Y348803D01*
X846337D01*
X846377Y348771D01*
X846410Y348734D01*
X846442Y348698D01*
X846468Y348658D01*
X846490Y348618D01*
X846508Y348578D01*
X846533Y348501D01*
X846552Y348432D01*
X846555Y348399D01*
X846559Y348374D01*
X846562Y348352D01*
Y348338D01*
Y348327D01*
Y348323D01*
X846555Y348228D01*
X846541Y348141D01*
X846519Y348068D01*
X846493Y348006D01*
X846468Y347959D01*
X846446Y347922D01*
X846432Y347901D01*
X846424Y347893D01*
X846399Y347864D01*
X846373Y347839D01*
X846319Y347802D01*
X846268Y347773D01*
X846220Y347751D01*
X846177Y347741D01*
X846144Y347737D01*
X846122Y347733D01*
X846086D01*
X846053Y347741D01*
X845998Y347759D01*
X845944Y347784D01*
X845900Y347810D01*
X845860Y347839D01*
X845835Y347864D01*
X845816Y347883D01*
X845809Y347886D01*
Y347890D01*
X845765Y347952D01*
X845733Y348025D01*
X845707Y348097D01*
X845693Y348166D01*
X845682Y348228D01*
X845678Y348254D01*
Y348276D01*
X845674Y348298D01*
Y348312D01*
Y348319D01*
Y348323D01*
X845678Y348381D01*
X845685Y348432D01*
X845696Y348483D01*
X845711Y348530D01*
X845747Y348614D01*
X845765Y348647D01*
X845787Y348680D01*
X845809Y348709D01*
X845827Y348734D01*
X845849Y348756D01*
X845864Y348771D01*
X845878Y348785D01*
X845889Y348796D01*
X845896Y348800D01*
X845900Y348803D01*
X845856Y348836D01*
X845816Y348869D01*
X845784Y348909D01*
X845754Y348949D01*
X845729Y348993D01*
X845711Y349036D01*
X845693Y349080D01*
X845682Y349124D01*
X845663Y349204D01*
X845656Y349240D01*
X845652Y349269D01*
X845649Y349295D01*
Y349313D01*
Y349328D01*
Y349331D01*
X845656Y349437D01*
X845671Y349528D01*
X845689Y349608D01*
X845714Y349677D01*
X845736Y349732D01*
X845747Y349750D01*
X845758Y349768D01*
X845765Y349783D01*
X845773Y349794D01*
X845776Y349797D01*
Y349801D01*
X845802Y349830D01*
X845827Y349859D01*
X845882Y349903D01*
X845940Y349932D01*
X845995Y349954D01*
X846042Y349965D01*
X846078Y349972D01*
X846093Y349975D01*
X846115D01*
X846155Y349972D01*
D02*
G37*
G36*
X842577D02*
X842617Y349965D01*
X842657Y349950D01*
X842693Y349932D01*
X842759Y349888D01*
X842810Y349837D01*
X842850Y349786D01*
X842875Y349743D01*
X842886Y349724D01*
X842893Y349710D01*
X842897Y349703D01*
Y349699D01*
X842915Y349644D01*
X842933Y349582D01*
X842948Y349517D01*
X842963Y349448D01*
X842981Y349309D01*
X842995Y349175D01*
X842999Y349109D01*
X843003Y349051D01*
X843006Y348996D01*
X843010Y348949D01*
Y348913D01*
Y348884D01*
Y348865D01*
Y348858D01*
Y348752D01*
X843006Y348654D01*
X842999Y348559D01*
X842992Y348476D01*
X842981Y348399D01*
X842974Y348330D01*
X842963Y348268D01*
X842952Y348210D01*
X842937Y348163D01*
X842926Y348119D01*
X842919Y348083D01*
X842908Y348054D01*
X842901Y348032D01*
X842893Y348013D01*
X842890Y348006D01*
Y348003D01*
X842868Y347955D01*
X842842Y347915D01*
X842813Y347879D01*
X842784Y347846D01*
X842755Y347821D01*
X842726Y347799D01*
X842693Y347781D01*
X842668Y347766D01*
X842613Y347748D01*
X842569Y347737D01*
X842551Y347733D01*
X842529D01*
X842486Y347737D01*
X842446Y347744D01*
X842409Y347762D01*
X842373Y347781D01*
X842344Y347806D01*
X842311Y347835D01*
X842286Y347872D01*
X842256Y347908D01*
X842213Y347995D01*
X842176Y348090D01*
X842144Y348192D01*
X842118Y348294D01*
X842100Y348399D01*
X842085Y348501D01*
X842074Y348596D01*
X842067Y348683D01*
X842064Y348720D01*
Y348752D01*
Y348785D01*
X842060Y348811D01*
Y348829D01*
Y348844D01*
Y348854D01*
Y348858D01*
Y348960D01*
X842064Y349058D01*
X842071Y349146D01*
X842078Y349229D01*
X842085Y349306D01*
X842096Y349375D01*
X842107Y349437D01*
X842118Y349491D01*
X842125Y349542D01*
X842136Y349586D01*
X842147Y349622D01*
X842155Y349652D01*
X842162Y349673D01*
X842169Y349688D01*
X842173Y349699D01*
Y349703D01*
X842194Y349750D01*
X842220Y349794D01*
X842249Y349830D01*
X842275Y349859D01*
X842304Y349888D01*
X842336Y349910D01*
X842366Y349928D01*
X842395Y349943D01*
X842446Y349961D01*
X842489Y349972D01*
X842508D01*
X842519Y349975D01*
X842529D01*
X842577Y349972D01*
D02*
G37*
G36*
X937165Y191972D02*
X934984D01*
Y192253D01*
X937165D01*
Y191972D01*
D02*
G37*
G36*
X936288Y191390D02*
X936375Y191383D01*
X936459Y191375D01*
X936535Y191368D01*
X936604Y191357D01*
X936666Y191346D01*
X936721Y191335D01*
X936772Y191328D01*
X936815Y191317D01*
X936852Y191306D01*
X936881Y191299D01*
X936903Y191292D01*
X936917Y191284D01*
X936928Y191281D01*
X936932D01*
X936979Y191259D01*
X937023Y191233D01*
X937059Y191204D01*
X937088Y191179D01*
X937117Y191150D01*
X937139Y191117D01*
X937158Y191088D01*
X937172Y191059D01*
X937190Y191008D01*
X937201Y190964D01*
Y190946D01*
X937205Y190935D01*
Y190924D01*
X937201Y190877D01*
X937194Y190837D01*
X937179Y190797D01*
X937161Y190760D01*
X937117Y190695D01*
X937066Y190644D01*
X937016Y190604D01*
X936972Y190578D01*
X936954Y190567D01*
X936939Y190560D01*
X936932Y190556D01*
X936928D01*
X936874Y190538D01*
X936812Y190520D01*
X936746Y190505D01*
X936677Y190491D01*
X936539Y190473D01*
X936404Y190458D01*
X936339Y190454D01*
X936280Y190451D01*
X936226Y190447D01*
X936178Y190444D01*
X936142D01*
X936113D01*
X936095D01*
X936087D01*
X935982D01*
X935884Y190447D01*
X935789Y190454D01*
X935705Y190462D01*
X935629Y190473D01*
X935560Y190480D01*
X935498Y190491D01*
X935439Y190502D01*
X935392Y190516D01*
X935349Y190527D01*
X935312Y190534D01*
X935283Y190545D01*
X935261Y190553D01*
X935243Y190560D01*
X935236Y190564D01*
X935232D01*
X935185Y190585D01*
X935145Y190611D01*
X935108Y190640D01*
X935075Y190669D01*
X935050Y190698D01*
X935028Y190727D01*
X935010Y190760D01*
X934995Y190786D01*
X934977Y190840D01*
X934966Y190884D01*
X934963Y190902D01*
Y190924D01*
X934966Y190968D01*
X934974Y191008D01*
X934992Y191044D01*
X935010Y191080D01*
X935035Y191110D01*
X935065Y191142D01*
X935101Y191168D01*
X935137Y191197D01*
X935225Y191241D01*
X935319Y191277D01*
X935421Y191310D01*
X935523Y191335D01*
X935629Y191353D01*
X935731Y191368D01*
X935825Y191379D01*
X935913Y191386D01*
X935949Y191390D01*
X935982D01*
X936015D01*
X936040Y191394D01*
X936058D01*
X936073D01*
X936084D01*
X936087D01*
X936189D01*
X936288Y191390D01*
D02*
G37*
G36*
X937165Y189847D02*
X934984D01*
Y190127D01*
X937165D01*
Y189847D01*
D02*
G37*
G36*
Y189446D02*
Y189151D01*
X936026Y189585D01*
X934984Y189235D01*
Y189526D01*
X936062Y189836D01*
X937165Y189446D01*
D02*
G37*
G36*
X928415Y191830D02*
X926235D01*
Y192110D01*
X928415D01*
Y191830D01*
D02*
G37*
G36*
X927538Y191248D02*
X927625Y191240D01*
X927709Y191233D01*
X927785Y191226D01*
X927854Y191215D01*
X927916Y191204D01*
X927971Y191193D01*
X928022Y191186D01*
X928065Y191175D01*
X928102Y191164D01*
X928131Y191157D01*
X928153Y191149D01*
X928167Y191142D01*
X928178Y191139D01*
X928182D01*
X928229Y191117D01*
X928273Y191091D01*
X928309Y191062D01*
X928338Y191037D01*
X928368Y191007D01*
X928389Y190975D01*
X928407Y190946D01*
X928422Y190917D01*
X928440Y190866D01*
X928451Y190822D01*
Y190804D01*
X928455Y190793D01*
Y190782D01*
X928451Y190735D01*
X928444Y190694D01*
X928429Y190654D01*
X928411Y190618D01*
X928368Y190552D01*
X928316Y190501D01*
X928266Y190462D01*
X928222Y190436D01*
X928204Y190425D01*
X928189Y190418D01*
X928182Y190414D01*
X928178D01*
X928124Y190396D01*
X928062Y190378D01*
X927996Y190363D01*
X927927Y190349D01*
X927789Y190330D01*
X927654Y190316D01*
X927588Y190312D01*
X927530Y190309D01*
X927476Y190305D01*
X927428Y190301D01*
X927392D01*
X927363D01*
X927345D01*
X927337D01*
X927232D01*
X927133Y190305D01*
X927039Y190312D01*
X926955Y190320D01*
X926879Y190330D01*
X926810Y190338D01*
X926748Y190349D01*
X926690Y190360D01*
X926642Y190374D01*
X926598Y190385D01*
X926562Y190392D01*
X926533Y190403D01*
X926511Y190410D01*
X926493Y190418D01*
X926486Y190421D01*
X926482D01*
X926435Y190443D01*
X926395Y190469D01*
X926358Y190498D01*
X926326Y190527D01*
X926300Y190556D01*
X926278Y190585D01*
X926260Y190618D01*
X926245Y190644D01*
X926227Y190698D01*
X926216Y190742D01*
X926213Y190760D01*
Y190782D01*
X926216Y190825D01*
X926223Y190866D01*
X926242Y190902D01*
X926260Y190938D01*
X926285Y190967D01*
X926315Y191000D01*
X926351Y191026D01*
X926387Y191055D01*
X926475Y191098D01*
X926569Y191135D01*
X926671Y191168D01*
X926773Y191193D01*
X926879Y191211D01*
X926981Y191226D01*
X927075Y191237D01*
X927163Y191244D01*
X927199Y191248D01*
X927232D01*
X927265D01*
X927290Y191251D01*
X927308D01*
X927323D01*
X927334D01*
X927337D01*
X927439D01*
X927538Y191248D01*
D02*
G37*
G36*
X928415Y189704D02*
X926235D01*
Y189985D01*
X928415D01*
Y189704D01*
D02*
G37*
G36*
Y189304D02*
Y189009D01*
X927275Y189442D01*
X926235Y189093D01*
Y189384D01*
X927312Y189693D01*
X928415Y189304D01*
D02*
G37*
G36*
X819731Y181275D02*
X817551D01*
Y181555D01*
X819731D01*
Y181275D01*
D02*
G37*
G36*
X818854Y180693D02*
X818941Y180685D01*
X819025Y180678D01*
X819101Y180671D01*
X819170Y180660D01*
X819232Y180649D01*
X819287Y180638D01*
X819338Y180631D01*
X819382Y180620D01*
X819418Y180609D01*
X819447Y180602D01*
X819469Y180594D01*
X819483Y180587D01*
X819494Y180584D01*
X819498D01*
X819545Y180562D01*
X819589Y180536D01*
X819625Y180507D01*
X819654Y180482D01*
X819684Y180453D01*
X819705Y180420D01*
X819724Y180391D01*
X819738Y180361D01*
X819756Y180310D01*
X819767Y180267D01*
Y180249D01*
X819771Y180238D01*
Y180227D01*
X819767Y180180D01*
X819760Y180139D01*
X819746Y180099D01*
X819727Y180063D01*
X819684Y179998D01*
X819633Y179946D01*
X819582Y179906D01*
X819538Y179881D01*
X819520Y179870D01*
X819505Y179863D01*
X819498Y179859D01*
X819494D01*
X819440Y179841D01*
X819378Y179823D01*
X819312Y179808D01*
X819243Y179794D01*
X819105Y179775D01*
X818970Y179761D01*
X818905Y179757D01*
X818846Y179754D01*
X818792Y179750D01*
X818744Y179746D01*
X818708D01*
X818679D01*
X818661D01*
X818653D01*
X818548D01*
X818450Y179750D01*
X818355Y179757D01*
X818271Y179764D01*
X818195Y179775D01*
X818126Y179783D01*
X818064Y179794D01*
X818006Y179805D01*
X817958Y179819D01*
X817915Y179830D01*
X817878Y179837D01*
X817849Y179848D01*
X817827Y179856D01*
X817809Y179863D01*
X817802Y179866D01*
X817798D01*
X817751Y179888D01*
X817711Y179914D01*
X817674Y179943D01*
X817642Y179972D01*
X817616Y180001D01*
X817594Y180030D01*
X817576Y180063D01*
X817562Y180088D01*
X817543Y180143D01*
X817532Y180187D01*
X817529Y180205D01*
Y180227D01*
X817532Y180271D01*
X817540Y180310D01*
X817558Y180347D01*
X817576Y180383D01*
X817602Y180412D01*
X817631Y180445D01*
X817667Y180471D01*
X817704Y180500D01*
X817791Y180543D01*
X817885Y180580D01*
X817987Y180613D01*
X818089Y180638D01*
X818195Y180656D01*
X818297Y180671D01*
X818391Y180682D01*
X818479Y180689D01*
X818515Y180693D01*
X818548D01*
X818581D01*
X818606Y180696D01*
X818624D01*
X818639D01*
X818650D01*
X818653D01*
X818755D01*
X818854Y180693D01*
D02*
G37*
G36*
X819411Y179477D02*
X819469Y179466D01*
X819524Y179452D01*
X819563Y179437D01*
X819600Y179422D01*
X819622Y179408D01*
X819640Y179397D01*
X819644Y179393D01*
X819680Y179357D01*
X819705Y179317D01*
X819727Y179277D01*
X819738Y179240D01*
X819746Y179208D01*
X819749Y179182D01*
X819753Y179164D01*
Y179157D01*
X819749Y179128D01*
X819746Y179102D01*
X819724Y179051D01*
X819695Y179007D01*
X819662Y178967D01*
X819629Y178938D01*
X819604Y178916D01*
X819582Y178902D01*
X819578Y178898D01*
X819574D01*
Y178891D01*
X819731D01*
Y178636D01*
X818286D01*
Y178891D01*
X819352D01*
X819363Y178894D01*
X819378Y178902D01*
X819411Y178920D01*
X819425Y178935D01*
X819440Y178942D01*
X819447Y178949D01*
X819451Y178953D01*
X819473Y178975D01*
X819491Y179000D01*
X819502Y179022D01*
X819513Y179044D01*
X819516Y179062D01*
X819520Y179077D01*
Y179091D01*
X819516Y179113D01*
X819513Y179135D01*
X819487Y179167D01*
X819454Y179193D01*
X819418Y179208D01*
X819382Y179218D01*
X819349Y179222D01*
X819323Y179226D01*
X819320D01*
X819316D01*
X818286D01*
Y179481D01*
X819341D01*
X819411Y179477D01*
D02*
G37*
G36*
X819731Y177992D02*
X818774D01*
Y177577D01*
X819731D01*
Y177297D01*
X817551D01*
Y177577D01*
X818512D01*
Y177992D01*
X817551D01*
Y178272D01*
X819731D01*
Y177992D01*
D02*
G37*
G36*
X1026915Y92157D02*
X1027006Y92153D01*
X1027090Y92142D01*
X1027170Y92132D01*
X1027243Y92117D01*
X1027308Y92102D01*
X1027370Y92084D01*
X1027425Y92066D01*
X1027476Y92048D01*
X1027519Y92030D01*
X1027556Y92015D01*
X1027585Y92001D01*
X1027610Y91989D01*
X1027625Y91979D01*
X1027636Y91975D01*
X1027639Y91971D01*
X1027690Y91935D01*
X1027738Y91895D01*
X1027778Y91851D01*
X1027810Y91808D01*
X1027840Y91764D01*
X1027861Y91720D01*
X1027883Y91676D01*
X1027898Y91637D01*
X1027920Y91564D01*
X1027923Y91531D01*
X1027931Y91502D01*
Y91480D01*
X1027934Y91462D01*
Y91447D01*
X1027927Y91378D01*
X1027912Y91309D01*
X1027894Y91243D01*
X1027869Y91185D01*
X1027847Y91134D01*
X1027825Y91094D01*
X1027818Y91079D01*
X1027810Y91069D01*
X1027807Y91065D01*
Y91061D01*
X1026733D01*
Y91535D01*
X1026995D01*
Y91342D01*
X1027661D01*
X1027668Y91382D01*
X1027672Y91414D01*
Y91440D01*
X1027668Y91480D01*
X1027661Y91516D01*
X1027650Y91553D01*
X1027636Y91585D01*
X1027618Y91615D01*
X1027592Y91644D01*
X1027538Y91695D01*
X1027476Y91738D01*
X1027403Y91771D01*
X1027326Y91800D01*
X1027246Y91826D01*
X1027166Y91844D01*
X1027090Y91859D01*
X1027017Y91866D01*
X1026955Y91873D01*
X1026900Y91877D01*
X1026875Y91880D01*
X1026857D01*
X1026842D01*
X1026831D01*
X1026824D01*
X1026820D01*
X1026740D01*
X1026664Y91877D01*
X1026595Y91869D01*
X1026529Y91862D01*
X1026467Y91851D01*
X1026413Y91840D01*
X1026358Y91829D01*
X1026311Y91815D01*
X1026267Y91800D01*
X1026227Y91786D01*
X1026154Y91749D01*
X1026096Y91713D01*
X1026049Y91673D01*
X1026012Y91633D01*
X1025987Y91596D01*
X1025965Y91560D01*
X1025954Y91531D01*
X1025947Y91502D01*
X1025939Y91484D01*
Y91465D01*
X1025943Y91433D01*
X1025947Y91400D01*
X1025958Y91367D01*
X1025972Y91331D01*
X1026005Y91265D01*
X1026045Y91200D01*
X1026085Y91145D01*
X1026103Y91120D01*
X1026118Y91101D01*
X1026132Y91083D01*
X1026140Y91072D01*
X1026147Y91065D01*
X1026151Y91061D01*
X1025852D01*
X1025823Y91105D01*
X1025801Y91145D01*
X1025761Y91225D01*
X1025732Y91294D01*
X1025714Y91356D01*
X1025703Y91407D01*
X1025699Y91447D01*
X1025696Y91462D01*
Y91480D01*
X1025699Y91538D01*
X1025710Y91589D01*
X1025725Y91640D01*
X1025743Y91687D01*
X1025794Y91771D01*
X1025848Y91844D01*
X1025878Y91873D01*
X1025903Y91899D01*
X1025929Y91924D01*
X1025954Y91942D01*
X1025972Y91957D01*
X1025987Y91968D01*
X1025998Y91971D01*
X1026001Y91975D01*
X1026060Y92008D01*
X1026122Y92037D01*
X1026191Y92062D01*
X1026256Y92080D01*
X1026394Y92117D01*
X1026526Y92139D01*
X1026584Y92146D01*
X1026642Y92150D01*
X1026693Y92153D01*
X1026733Y92157D01*
X1026770Y92161D01*
X1026799D01*
X1026813D01*
X1026820D01*
X1026915Y92157D01*
D02*
G37*
G36*
X1027632Y90807D02*
X1027683Y90796D01*
X1027727Y90785D01*
X1027763Y90767D01*
X1027792Y90752D01*
X1027818Y90741D01*
X1027832Y90730D01*
X1027836Y90727D01*
X1027872Y90694D01*
X1027898Y90661D01*
X1027920Y90628D01*
X1027931Y90595D01*
X1027938Y90570D01*
X1027942Y90548D01*
X1027945Y90534D01*
Y90530D01*
X1027942Y90504D01*
X1027938Y90479D01*
X1027916Y90428D01*
X1027887Y90381D01*
X1027851Y90341D01*
X1027814Y90304D01*
X1027785Y90275D01*
X1027763Y90260D01*
X1027759Y90253D01*
X1027756D01*
X1027789Y90242D01*
X1027814Y90231D01*
X1027840Y90217D01*
X1027861Y90202D01*
X1027894Y90173D01*
X1027916Y90140D01*
X1027927Y90111D01*
X1027934Y90086D01*
X1027938Y90071D01*
Y90064D01*
X1027934Y90035D01*
X1027920Y90002D01*
X1027905Y89966D01*
X1027883Y89937D01*
X1027865Y89907D01*
X1027847Y89886D01*
X1027836Y89867D01*
X1027832Y89864D01*
X1027632D01*
X1027658Y89889D01*
X1027676Y89915D01*
X1027687Y89929D01*
X1027694Y89944D01*
X1027701Y89955D01*
X1027705Y89962D01*
Y89966D01*
X1027701Y89980D01*
X1027690Y89987D01*
X1027680Y89995D01*
X1027661Y90002D01*
X1027647D01*
X1027636Y90006D01*
X1027625D01*
X1027621D01*
X1026810D01*
X1026748Y90009D01*
X1026689Y90024D01*
X1026642Y90042D01*
X1026602Y90060D01*
X1026569Y90082D01*
X1026544Y90100D01*
X1026529Y90115D01*
X1026526Y90119D01*
X1026489Y90162D01*
X1026464Y90210D01*
X1026445Y90253D01*
X1026435Y90297D01*
X1026424Y90333D01*
X1026420Y90366D01*
Y90392D01*
X1026424Y90428D01*
X1026427Y90461D01*
X1026449Y90530D01*
X1026478Y90595D01*
X1026515Y90654D01*
X1026551Y90701D01*
X1026580Y90741D01*
X1026591Y90756D01*
X1026602Y90767D01*
X1026606Y90770D01*
X1026609Y90774D01*
X1026900D01*
X1026857Y90734D01*
X1026820Y90697D01*
X1026788Y90665D01*
X1026762Y90628D01*
X1026737Y90599D01*
X1026719Y90570D01*
X1026689Y90515D01*
X1026671Y90472D01*
X1026664Y90439D01*
X1026660Y90421D01*
Y90413D01*
X1026664Y90388D01*
X1026667Y90363D01*
X1026689Y90326D01*
X1026719Y90297D01*
X1026755Y90279D01*
X1026791Y90268D01*
X1026820Y90264D01*
X1026842Y90260D01*
X1026846D01*
X1026849D01*
X1026988D01*
X1027021Y90315D01*
X1027053Y90370D01*
X1027083Y90417D01*
X1027112Y90461D01*
X1027137Y90501D01*
X1027163Y90534D01*
X1027184Y90566D01*
X1027206Y90595D01*
X1027225Y90617D01*
X1027243Y90639D01*
X1027268Y90668D01*
X1027283Y90686D01*
X1027290Y90694D01*
X1027337Y90734D01*
X1027385Y90759D01*
X1027436Y90781D01*
X1027479Y90796D01*
X1027519Y90803D01*
X1027552Y90807D01*
X1027574Y90810D01*
X1027577D01*
X1027581D01*
X1027632Y90807D01*
D02*
G37*
G36*
X1027585Y89682D02*
X1027643Y89671D01*
X1027698Y89656D01*
X1027738Y89642D01*
X1027774Y89627D01*
X1027796Y89613D01*
X1027814Y89602D01*
X1027818Y89598D01*
X1027854Y89562D01*
X1027880Y89522D01*
X1027901Y89482D01*
X1027912Y89445D01*
X1027920Y89412D01*
X1027923Y89387D01*
X1027927Y89369D01*
Y89362D01*
X1027923Y89332D01*
X1027920Y89307D01*
X1027898Y89256D01*
X1027869Y89212D01*
X1027836Y89172D01*
X1027803Y89143D01*
X1027778Y89121D01*
X1027756Y89107D01*
X1027752Y89103D01*
X1027749D01*
Y89096D01*
X1027905D01*
Y88841D01*
X1026460D01*
Y89096D01*
X1027527D01*
X1027538Y89099D01*
X1027552Y89107D01*
X1027585Y89125D01*
X1027599Y89139D01*
X1027614Y89147D01*
X1027621Y89154D01*
X1027625Y89158D01*
X1027647Y89179D01*
X1027665Y89205D01*
X1027676Y89227D01*
X1027687Y89249D01*
X1027690Y89267D01*
X1027694Y89281D01*
Y89296D01*
X1027690Y89318D01*
X1027687Y89340D01*
X1027661Y89372D01*
X1027629Y89398D01*
X1027592Y89412D01*
X1027556Y89423D01*
X1027523Y89427D01*
X1027497Y89431D01*
X1027494D01*
X1027490D01*
X1026460D01*
Y89685D01*
X1027516D01*
X1027585Y89682D01*
D02*
G37*
G36*
X1028364Y88597D02*
X1028418Y88582D01*
X1028469Y88561D01*
X1028509Y88535D01*
X1028542Y88513D01*
X1028568Y88491D01*
X1028586Y88477D01*
X1028590Y88470D01*
X1028629Y88415D01*
X1028655Y88357D01*
X1028677Y88302D01*
X1028691Y88248D01*
X1028699Y88200D01*
X1028702Y88160D01*
X1028706Y88146D01*
Y88127D01*
X1028699Y88047D01*
X1028684Y87978D01*
X1028666Y87916D01*
X1028640Y87865D01*
X1028619Y87822D01*
X1028597Y87793D01*
X1028582Y87774D01*
X1028578Y87767D01*
X1028528Y87720D01*
X1028477Y87683D01*
X1028422Y87658D01*
X1028371Y87643D01*
X1028324Y87633D01*
X1028287Y87629D01*
X1028273Y87625D01*
X1028262D01*
X1028258D01*
X1028255D01*
X1028196Y87629D01*
X1028145Y87640D01*
X1028098Y87654D01*
X1028054Y87669D01*
X1028022Y87683D01*
X1028000Y87698D01*
X1027982Y87709D01*
X1027978Y87713D01*
X1027938Y87749D01*
X1027905Y87793D01*
X1027880Y87840D01*
X1027858Y87891D01*
X1027843Y87935D01*
X1027832Y87971D01*
X1027829Y87985D01*
Y87993D01*
X1027825Y88000D01*
Y88004D01*
X1027818Y88040D01*
X1027810Y88073D01*
X1027803Y88102D01*
X1027796Y88127D01*
X1027781Y88168D01*
X1027771Y88197D01*
X1027763Y88215D01*
X1027756Y88229D01*
X1027752Y88237D01*
X1027727Y88255D01*
X1027701Y88262D01*
X1027683Y88266D01*
X1027680D01*
X1027676D01*
X1027654D01*
X1027639Y88262D01*
X1027614Y88251D01*
X1027603Y88240D01*
X1027599Y88237D01*
X1027592Y88222D01*
X1027585Y88208D01*
X1027577Y88175D01*
X1027570Y88160D01*
Y88146D01*
X1027567Y88138D01*
Y88135D01*
X1027552Y88062D01*
X1027527Y88000D01*
X1027494Y87949D01*
X1027457Y87902D01*
X1027417Y87862D01*
X1027370Y87829D01*
X1027326Y87804D01*
X1027279Y87782D01*
X1027232Y87764D01*
X1027188Y87753D01*
X1027144Y87742D01*
X1027108Y87738D01*
X1027079Y87734D01*
X1027057Y87731D01*
X1027039D01*
X1027035D01*
X1026959Y87734D01*
X1026886Y87745D01*
X1026828Y87756D01*
X1026777Y87771D01*
X1026737Y87789D01*
X1026708Y87800D01*
X1026689Y87811D01*
X1026682Y87814D01*
Y87621D01*
X1026460D01*
Y88113D01*
X1026467Y88182D01*
X1026482Y88248D01*
X1026507Y88299D01*
X1026533Y88346D01*
X1026562Y88379D01*
X1026587Y88404D01*
X1026602Y88422D01*
X1026609Y88426D01*
X1026667Y88462D01*
X1026733Y88491D01*
X1026802Y88510D01*
X1026864Y88524D01*
X1026922Y88532D01*
X1026948Y88535D01*
X1026970D01*
X1026984Y88539D01*
X1026999D01*
X1027006D01*
X1027010D01*
X1027072Y88535D01*
X1027130Y88528D01*
X1027181Y88517D01*
X1027232Y88506D01*
X1027275Y88488D01*
X1027316Y88470D01*
X1027352Y88451D01*
X1027385Y88430D01*
X1027414Y88408D01*
X1027439Y88390D01*
X1027457Y88371D01*
X1027476Y88353D01*
X1027487Y88342D01*
X1027497Y88331D01*
X1027501Y88324D01*
X1027505Y88320D01*
X1027519Y88357D01*
X1027538Y88386D01*
X1027556Y88411D01*
X1027574Y88437D01*
X1027614Y88473D01*
X1027650Y88495D01*
X1027687Y88510D01*
X1027712Y88517D01*
X1027730Y88521D01*
X1027738D01*
X1027763Y88517D01*
X1027785Y88513D01*
X1027829Y88495D01*
X1027865Y88470D01*
X1027894Y88441D01*
X1027920Y88411D01*
X1027934Y88386D01*
X1027945Y88368D01*
X1027949Y88361D01*
X1027971Y88404D01*
X1027993Y88441D01*
X1028022Y88473D01*
X1028047Y88502D01*
X1028076Y88524D01*
X1028105Y88546D01*
X1028164Y88575D01*
X1028218Y88590D01*
X1028262Y88601D01*
X1028280Y88604D01*
X1028291D01*
X1028298D01*
X1028302D01*
X1028364Y88597D01*
D02*
G37*
G36*
X1027312Y87469D02*
X1027370Y87461D01*
X1027425Y87454D01*
X1027476Y87443D01*
X1027523Y87436D01*
X1027567Y87425D01*
X1027603Y87410D01*
X1027636Y87400D01*
X1027668Y87389D01*
X1027690Y87381D01*
X1027712Y87370D01*
X1027727Y87363D01*
X1027738Y87356D01*
X1027745Y87352D01*
X1027749D01*
X1027781Y87327D01*
X1027814Y87301D01*
X1027840Y87276D01*
X1027861Y87247D01*
X1027898Y87192D01*
X1027920Y87137D01*
X1027934Y87086D01*
X1027942Y87046D01*
X1027945Y87032D01*
Y87010D01*
X1027942Y86948D01*
X1027927Y86893D01*
X1027905Y86843D01*
X1027883Y86799D01*
X1027861Y86759D01*
X1027840Y86733D01*
X1027825Y86715D01*
X1027821Y86708D01*
X1027567D01*
X1027614Y86752D01*
X1027647Y86792D01*
X1027672Y86835D01*
X1027687Y86875D01*
X1027698Y86908D01*
X1027701Y86934D01*
X1027705Y86952D01*
Y86959D01*
X1027701Y87003D01*
X1027683Y87043D01*
X1027661Y87079D01*
X1027632Y87108D01*
X1027596Y87134D01*
X1027556Y87156D01*
X1027516Y87170D01*
X1027472Y87185D01*
X1027385Y87203D01*
X1027348Y87210D01*
X1027312Y87214D01*
X1027283Y87217D01*
X1027257D01*
X1027243D01*
X1027239D01*
Y86679D01*
X1027166D01*
X1027093Y86682D01*
X1027028Y86686D01*
X1026970Y86693D01*
X1026911Y86701D01*
X1026861Y86712D01*
X1026810Y86722D01*
X1026766Y86737D01*
X1026686Y86766D01*
X1026620Y86799D01*
X1026566Y86835D01*
X1026522Y86872D01*
X1026489Y86908D01*
X1026464Y86945D01*
X1026445Y86981D01*
X1026431Y87010D01*
X1026424Y87036D01*
X1026420Y87054D01*
Y87072D01*
X1026424Y87105D01*
X1026427Y87137D01*
X1026453Y87199D01*
X1026482Y87247D01*
X1026518Y87290D01*
X1026558Y87323D01*
X1026587Y87349D01*
X1026613Y87363D01*
X1026617Y87367D01*
X1026620D01*
X1026660Y87385D01*
X1026700Y87403D01*
X1026791Y87429D01*
X1026886Y87447D01*
X1026977Y87458D01*
X1027017Y87465D01*
X1027057D01*
X1027090Y87469D01*
X1027122Y87472D01*
X1027144D01*
X1027166D01*
X1027177D01*
X1027181D01*
X1027250D01*
X1027312Y87469D01*
D02*
G37*
G36*
X1028309Y84906D02*
X1028149D01*
Y86577D01*
X1028309D01*
Y84906D01*
D02*
G37*
G36*
X1027905Y84189D02*
X1025725D01*
Y84469D01*
X1027905D01*
Y84189D01*
D02*
G37*
G36*
X1027028Y83607D02*
X1027115Y83599D01*
X1027199Y83592D01*
X1027275Y83585D01*
X1027345Y83574D01*
X1027407Y83563D01*
X1027461Y83552D01*
X1027512Y83545D01*
X1027556Y83534D01*
X1027592Y83523D01*
X1027621Y83516D01*
X1027643Y83508D01*
X1027658Y83501D01*
X1027668Y83497D01*
X1027672D01*
X1027719Y83476D01*
X1027763Y83450D01*
X1027800Y83421D01*
X1027829Y83395D01*
X1027858Y83366D01*
X1027880Y83334D01*
X1027898Y83305D01*
X1027912Y83275D01*
X1027931Y83224D01*
X1027942Y83181D01*
Y83162D01*
X1027945Y83152D01*
Y83141D01*
X1027942Y83093D01*
X1027934Y83053D01*
X1027920Y83013D01*
X1027901Y82977D01*
X1027858Y82911D01*
X1027807Y82860D01*
X1027756Y82820D01*
X1027712Y82795D01*
X1027694Y82784D01*
X1027680Y82777D01*
X1027672Y82773D01*
X1027668D01*
X1027614Y82755D01*
X1027552Y82737D01*
X1027487Y82722D01*
X1027417Y82708D01*
X1027279Y82689D01*
X1027144Y82675D01*
X1027079Y82671D01*
X1027021Y82667D01*
X1026966Y82664D01*
X1026919Y82660D01*
X1026882D01*
X1026853D01*
X1026835D01*
X1026828D01*
X1026722D01*
X1026624Y82664D01*
X1026529Y82671D01*
X1026445Y82678D01*
X1026369Y82689D01*
X1026300Y82697D01*
X1026238Y82708D01*
X1026180Y82718D01*
X1026132Y82733D01*
X1026089Y82744D01*
X1026052Y82751D01*
X1026023Y82762D01*
X1026001Y82769D01*
X1025983Y82777D01*
X1025976Y82780D01*
X1025972D01*
X1025925Y82802D01*
X1025885Y82828D01*
X1025848Y82857D01*
X1025816Y82886D01*
X1025790Y82915D01*
X1025768Y82944D01*
X1025750Y82977D01*
X1025736Y83002D01*
X1025718Y83057D01*
X1025707Y83101D01*
X1025703Y83119D01*
Y83141D01*
X1025707Y83184D01*
X1025714Y83224D01*
X1025732Y83261D01*
X1025750Y83297D01*
X1025776Y83326D01*
X1025805Y83359D01*
X1025841Y83385D01*
X1025878Y83414D01*
X1025965Y83457D01*
X1026060Y83494D01*
X1026162Y83526D01*
X1026264Y83552D01*
X1026369Y83570D01*
X1026471Y83585D01*
X1026566Y83596D01*
X1026653Y83603D01*
X1026689Y83607D01*
X1026722D01*
X1026755D01*
X1026780Y83610D01*
X1026799D01*
X1026813D01*
X1026824D01*
X1026828D01*
X1026930D01*
X1027028Y83607D01*
D02*
G37*
G36*
X1027905Y82125D02*
X1026831D01*
X1026802Y82107D01*
X1026773Y82089D01*
X1026729Y82052D01*
X1026700Y82020D01*
X1026678Y81987D01*
X1026664Y81965D01*
X1026660Y81943D01*
X1026657Y81932D01*
Y81929D01*
X1026660Y81903D01*
X1026667Y81881D01*
X1026678Y81863D01*
X1026689Y81845D01*
X1026726Y81819D01*
X1026766Y81805D01*
X1026810Y81794D01*
X1026842Y81790D01*
X1026857Y81787D01*
X1026868D01*
X1026875D01*
X1026879D01*
X1027905D01*
Y81532D01*
X1026828D01*
X1026799Y81514D01*
X1026770Y81495D01*
X1026729Y81459D01*
X1026697Y81426D01*
X1026678Y81397D01*
X1026664Y81372D01*
X1026660Y81350D01*
X1026657Y81335D01*
Y81332D01*
X1026660Y81306D01*
X1026667Y81284D01*
X1026678Y81266D01*
X1026689Y81252D01*
X1026726Y81226D01*
X1026766Y81212D01*
X1026806Y81201D01*
X1026842Y81197D01*
X1026853Y81193D01*
X1026864D01*
X1026871D01*
X1026875D01*
X1027905D01*
Y80939D01*
X1026861D01*
X1026788Y80942D01*
X1026726Y80953D01*
X1026671Y80968D01*
X1026628Y80982D01*
X1026591Y81000D01*
X1026569Y81015D01*
X1026551Y81026D01*
X1026547Y81029D01*
X1026511Y81066D01*
X1026482Y81102D01*
X1026464Y81139D01*
X1026449Y81175D01*
X1026442Y81208D01*
X1026435Y81233D01*
Y81259D01*
X1026438Y81295D01*
X1026442Y81324D01*
X1026453Y81353D01*
X1026460Y81375D01*
X1026471Y81393D01*
X1026482Y81408D01*
X1026486Y81415D01*
X1026489Y81419D01*
X1026511Y81441D01*
X1026536Y81466D01*
X1026591Y81510D01*
X1026613Y81528D01*
X1026635Y81543D01*
X1026649Y81554D01*
X1026653Y81557D01*
X1026613Y81579D01*
X1026580Y81601D01*
X1026551Y81626D01*
X1026526Y81648D01*
X1026504Y81674D01*
X1026489Y81699D01*
X1026460Y81747D01*
X1026445Y81787D01*
X1026438Y81823D01*
X1026435Y81845D01*
Y81852D01*
X1026438Y81881D01*
X1026442Y81910D01*
X1026464Y81965D01*
X1026493Y82009D01*
X1026526Y82049D01*
X1026558Y82078D01*
X1026587Y82103D01*
X1026609Y82118D01*
X1026613Y82121D01*
X1026617D01*
Y82125D01*
X1026460D01*
Y82380D01*
X1027905D01*
Y82125D01*
D02*
G37*
G36*
Y80392D02*
X1026831D01*
X1026802Y80374D01*
X1026773Y80356D01*
X1026729Y80320D01*
X1026700Y80287D01*
X1026678Y80254D01*
X1026664Y80232D01*
X1026660Y80211D01*
X1026657Y80200D01*
Y80196D01*
X1026660Y80171D01*
X1026667Y80149D01*
X1026678Y80130D01*
X1026689Y80112D01*
X1026726Y80087D01*
X1026766Y80072D01*
X1026810Y80061D01*
X1026842Y80058D01*
X1026857Y80054D01*
X1026868D01*
X1026875D01*
X1026879D01*
X1027905D01*
Y79799D01*
X1026828D01*
X1026799Y79781D01*
X1026770Y79763D01*
X1026729Y79726D01*
X1026697Y79694D01*
X1026678Y79664D01*
X1026664Y79639D01*
X1026660Y79617D01*
X1026657Y79603D01*
Y79599D01*
X1026660Y79574D01*
X1026667Y79552D01*
X1026678Y79533D01*
X1026689Y79519D01*
X1026726Y79493D01*
X1026766Y79479D01*
X1026806Y79468D01*
X1026842Y79464D01*
X1026853Y79461D01*
X1026864D01*
X1026871D01*
X1026875D01*
X1027905D01*
Y79206D01*
X1026861D01*
X1026788Y79210D01*
X1026726Y79220D01*
X1026671Y79235D01*
X1026628Y79250D01*
X1026591Y79268D01*
X1026569Y79282D01*
X1026551Y79293D01*
X1026547Y79297D01*
X1026511Y79333D01*
X1026482Y79370D01*
X1026464Y79406D01*
X1026449Y79443D01*
X1026442Y79475D01*
X1026435Y79501D01*
Y79526D01*
X1026438Y79563D01*
X1026442Y79592D01*
X1026453Y79621D01*
X1026460Y79643D01*
X1026471Y79661D01*
X1026482Y79675D01*
X1026486Y79683D01*
X1026489Y79686D01*
X1026511Y79708D01*
X1026536Y79734D01*
X1026591Y79777D01*
X1026613Y79795D01*
X1026635Y79810D01*
X1026649Y79821D01*
X1026653Y79825D01*
X1026613Y79847D01*
X1026580Y79868D01*
X1026551Y79894D01*
X1026526Y79916D01*
X1026504Y79941D01*
X1026489Y79967D01*
X1026460Y80014D01*
X1026445Y80054D01*
X1026438Y80090D01*
X1026435Y80112D01*
Y80120D01*
X1026438Y80149D01*
X1026442Y80178D01*
X1026464Y80232D01*
X1026493Y80276D01*
X1026526Y80316D01*
X1026558Y80345D01*
X1026587Y80371D01*
X1026609Y80385D01*
X1026613Y80389D01*
X1026617D01*
Y80392D01*
X1026460D01*
Y80647D01*
X1027905D01*
Y80392D01*
D02*
G37*
G36*
X1028309Y77419D02*
X1028149D01*
Y79089D01*
X1028309D01*
Y77419D01*
D02*
G37*
G36*
X1025987Y77069D02*
X1027905D01*
Y76789D01*
X1025987D01*
Y76454D01*
X1025725D01*
Y77404D01*
X1025987D01*
Y77069D01*
D02*
G37*
G36*
X1027658Y76006D02*
X1028702Y76297D01*
Y76046D01*
X1026460Y75417D01*
Y75671D01*
X1027213Y75879D01*
Y75886D01*
X1026460Y76123D01*
Y76389D01*
X1027658Y76006D01*
D02*
G37*
G36*
X1028684Y74976D02*
X1027818D01*
Y74972D01*
X1027861Y74936D01*
X1027891Y74900D01*
X1027912Y74863D01*
X1027931Y74827D01*
X1027938Y74798D01*
X1027942Y74776D01*
X1027945Y74758D01*
Y74754D01*
X1027942Y74721D01*
X1027938Y74689D01*
X1027912Y74630D01*
X1027880Y74579D01*
X1027843Y74536D01*
X1027807Y74503D01*
X1027774Y74477D01*
X1027749Y74459D01*
X1027745Y74456D01*
X1027741D01*
X1027658Y74416D01*
X1027570Y74387D01*
X1027479Y74365D01*
X1027396Y74350D01*
X1027355Y74347D01*
X1027319Y74343D01*
X1027290Y74339D01*
X1027261Y74335D01*
X1027239D01*
X1027221D01*
X1027210D01*
X1027206D01*
X1027086Y74339D01*
X1026981Y74354D01*
X1026886Y74376D01*
X1026846Y74387D01*
X1026806Y74397D01*
X1026773Y74408D01*
X1026744Y74419D01*
X1026719Y74430D01*
X1026697Y74441D01*
X1026678Y74448D01*
X1026667Y74456D01*
X1026660Y74459D01*
X1026657D01*
X1026617Y74481D01*
X1026584Y74507D01*
X1026555Y74532D01*
X1026529Y74558D01*
X1026507Y74579D01*
X1026489Y74605D01*
X1026464Y74652D01*
X1026445Y74692D01*
X1026438Y74725D01*
X1026435Y74747D01*
Y74754D01*
X1026442Y74801D01*
X1026456Y74845D01*
X1026475Y74882D01*
X1026500Y74914D01*
X1026526Y74940D01*
X1026544Y74958D01*
X1026558Y74969D01*
X1026566Y74972D01*
Y74976D01*
X1026460D01*
Y75231D01*
X1028684D01*
Y74976D01*
D02*
G37*
G36*
X1027312Y74121D02*
X1027370Y74114D01*
X1027425Y74106D01*
X1027476Y74095D01*
X1027523Y74088D01*
X1027567Y74077D01*
X1027603Y74063D01*
X1027636Y74052D01*
X1027668Y74041D01*
X1027690Y74033D01*
X1027712Y74023D01*
X1027727Y74015D01*
X1027738Y74008D01*
X1027745Y74004D01*
X1027749D01*
X1027781Y73979D01*
X1027814Y73953D01*
X1027840Y73928D01*
X1027861Y73899D01*
X1027898Y73844D01*
X1027920Y73790D01*
X1027934Y73739D01*
X1027942Y73699D01*
X1027945Y73684D01*
Y73662D01*
X1027942Y73600D01*
X1027927Y73546D01*
X1027905Y73495D01*
X1027883Y73451D01*
X1027861Y73411D01*
X1027840Y73386D01*
X1027825Y73367D01*
X1027821Y73360D01*
X1027567D01*
X1027614Y73404D01*
X1027647Y73444D01*
X1027672Y73487D01*
X1027687Y73527D01*
X1027698Y73560D01*
X1027701Y73586D01*
X1027705Y73604D01*
Y73611D01*
X1027701Y73655D01*
X1027683Y73695D01*
X1027661Y73731D01*
X1027632Y73760D01*
X1027596Y73786D01*
X1027556Y73808D01*
X1027516Y73822D01*
X1027472Y73837D01*
X1027385Y73855D01*
X1027348Y73862D01*
X1027312Y73866D01*
X1027283Y73870D01*
X1027257D01*
X1027243D01*
X1027239D01*
Y73331D01*
X1027166D01*
X1027093Y73334D01*
X1027028Y73338D01*
X1026970Y73346D01*
X1026911Y73353D01*
X1026861Y73364D01*
X1026810Y73375D01*
X1026766Y73389D01*
X1026686Y73418D01*
X1026620Y73451D01*
X1026566Y73487D01*
X1026522Y73524D01*
X1026489Y73560D01*
X1026464Y73597D01*
X1026445Y73633D01*
X1026431Y73662D01*
X1026424Y73688D01*
X1026420Y73706D01*
Y73724D01*
X1026424Y73757D01*
X1026427Y73790D01*
X1026453Y73851D01*
X1026482Y73899D01*
X1026518Y73942D01*
X1026558Y73975D01*
X1026587Y74001D01*
X1026613Y74015D01*
X1026617Y74019D01*
X1026620D01*
X1026660Y74037D01*
X1026700Y74055D01*
X1026791Y74081D01*
X1026886Y74099D01*
X1026977Y74110D01*
X1027017Y74117D01*
X1027057D01*
X1027090Y74121D01*
X1027122Y74124D01*
X1027144D01*
X1027166D01*
X1027177D01*
X1027181D01*
X1027250D01*
X1027312Y74121D01*
D02*
G37*
G36*
X1027905Y72475D02*
X1025725D01*
Y72756D01*
X1027905D01*
Y72475D01*
D02*
G37*
G36*
X1028309Y70364D02*
X1028149D01*
Y72035D01*
X1028309D01*
Y70364D01*
D02*
G37*
G36*
X1026242Y70288D02*
X1026285Y70284D01*
X1026329Y70277D01*
X1026373Y70270D01*
X1026406Y70262D01*
X1026435Y70255D01*
X1026453Y70248D01*
X1026460D01*
X1026522Y70226D01*
X1026587Y70197D01*
X1026660Y70164D01*
X1026729Y70131D01*
X1026795Y70099D01*
X1026820Y70084D01*
X1026846Y70073D01*
X1026864Y70062D01*
X1026879Y70055D01*
X1026890Y70048D01*
X1026893D01*
X1026944Y70019D01*
X1026991Y69993D01*
X1027035Y69971D01*
X1027075Y69953D01*
X1027112Y69935D01*
X1027144Y69917D01*
X1027199Y69891D01*
X1027239Y69873D01*
X1027268Y69862D01*
X1027286Y69855D01*
X1027290D01*
X1027326Y69844D01*
X1027363Y69833D01*
X1027396Y69826D01*
X1027421Y69822D01*
X1027443Y69818D01*
X1027457D01*
X1027468D01*
X1027472D01*
X1027505Y69822D01*
X1027530Y69829D01*
X1027556Y69840D01*
X1027577Y69851D01*
X1027596Y69862D01*
X1027610Y69873D01*
X1027618Y69880D01*
X1027621Y69884D01*
X1027639Y69909D01*
X1027654Y69935D01*
X1027665Y69957D01*
X1027672Y69982D01*
X1027676Y70000D01*
X1027680Y70019D01*
Y70033D01*
X1027676Y70077D01*
X1027661Y70120D01*
X1027643Y70164D01*
X1027618Y70201D01*
X1027596Y70230D01*
X1027577Y70255D01*
X1027563Y70270D01*
X1027559Y70277D01*
X1027851D01*
X1027880Y70226D01*
X1027898Y70179D01*
X1027912Y70131D01*
X1027923Y70088D01*
X1027931Y70055D01*
X1027934Y70026D01*
Y70000D01*
X1027927Y69928D01*
X1027912Y69866D01*
X1027891Y69811D01*
X1027865Y69764D01*
X1027840Y69727D01*
X1027818Y69698D01*
X1027803Y69684D01*
X1027796Y69676D01*
X1027741Y69633D01*
X1027680Y69604D01*
X1027621Y69582D01*
X1027563Y69564D01*
X1027512Y69556D01*
X1027472Y69553D01*
X1027457Y69549D01*
X1027446D01*
X1027439D01*
X1027436D01*
X1027392Y69553D01*
X1027345Y69556D01*
X1027301Y69564D01*
X1027257Y69571D01*
X1027225Y69582D01*
X1027195Y69589D01*
X1027177Y69593D01*
X1027170Y69596D01*
X1027108Y69618D01*
X1027039Y69647D01*
X1026966Y69680D01*
X1026897Y69716D01*
X1026835Y69749D01*
X1026806Y69764D01*
X1026784Y69775D01*
X1026762Y69785D01*
X1026748Y69793D01*
X1026740Y69797D01*
X1026737Y69800D01*
X1026686Y69826D01*
X1026638Y69851D01*
X1026595Y69873D01*
X1026555Y69895D01*
X1026522Y69913D01*
X1026489Y69928D01*
X1026435Y69953D01*
X1026394Y69971D01*
X1026369Y69982D01*
X1026351Y69986D01*
X1026347Y69989D01*
X1026307Y70000D01*
X1026271Y70008D01*
X1026242Y70015D01*
X1026213Y70019D01*
X1026191D01*
X1026176Y70022D01*
X1026165D01*
X1026162D01*
X1026125Y70019D01*
X1026092Y70011D01*
X1026063Y70004D01*
X1026038Y69989D01*
X1026020Y69975D01*
X1026001Y69957D01*
X1025976Y69917D01*
X1025961Y69876D01*
X1025954Y69844D01*
X1025951Y69829D01*
Y69811D01*
X1025954Y69778D01*
X1025961Y69745D01*
X1025972Y69709D01*
X1025983Y69680D01*
X1025994Y69651D01*
X1026005Y69629D01*
X1026012Y69614D01*
X1026016Y69611D01*
X1025754D01*
X1025736Y69658D01*
X1025721Y69702D01*
X1025710Y69742D01*
X1025703Y69778D01*
X1025699Y69807D01*
X1025696Y69829D01*
Y69847D01*
X1025703Y69917D01*
X1025718Y69978D01*
X1025739Y70037D01*
X1025765Y70080D01*
X1025794Y70117D01*
X1025816Y70146D01*
X1025830Y70161D01*
X1025838Y70168D01*
X1025892Y70208D01*
X1025951Y70240D01*
X1026012Y70262D01*
X1026071Y70277D01*
X1026122Y70284D01*
X1026162Y70288D01*
X1026176Y70292D01*
X1026187D01*
X1026194D01*
X1026198D01*
X1026242Y70288D01*
D02*
G37*
G36*
X1027905Y69047D02*
X1026460D01*
Y69301D01*
X1027905D01*
Y69047D01*
D02*
G37*
G36*
X1025867Y69316D02*
X1025889Y69312D01*
X1025921Y69298D01*
X1025943Y69287D01*
X1025947Y69280D01*
X1025951D01*
X1025965Y69261D01*
X1025972Y69243D01*
X1025987Y69210D01*
Y69196D01*
X1025990Y69185D01*
Y69174D01*
X1025987Y69152D01*
X1025983Y69130D01*
X1025969Y69098D01*
X1025958Y69076D01*
X1025951Y69072D01*
Y69068D01*
X1025932Y69054D01*
X1025914Y69043D01*
X1025881Y69028D01*
X1025867D01*
X1025856Y69025D01*
X1025848D01*
X1025845D01*
X1025823D01*
X1025801Y69032D01*
X1025768Y69047D01*
X1025747Y69061D01*
X1025743Y69065D01*
X1025739Y69068D01*
X1025725Y69087D01*
X1025714Y69105D01*
X1025699Y69138D01*
Y69152D01*
X1025696Y69163D01*
Y69196D01*
X1025703Y69218D01*
X1025718Y69251D01*
X1025732Y69272D01*
X1025736Y69276D01*
X1025739Y69280D01*
X1025758Y69294D01*
X1025776Y69301D01*
X1025809Y69316D01*
X1025823D01*
X1025834Y69320D01*
X1025841D01*
X1025845D01*
X1025867Y69316D01*
D02*
G37*
G36*
X1027905Y68490D02*
X1025725D01*
Y68744D01*
X1027905D01*
Y68490D01*
D02*
G37*
G36*
Y67926D02*
X1025725D01*
Y68180D01*
X1027905D01*
Y67926D01*
D02*
G37*
G36*
Y67507D02*
Y67219D01*
X1027148Y67656D01*
X1026460Y67267D01*
Y67536D01*
X1027163Y67900D01*
X1027905Y67507D01*
D02*
G37*
G36*
X1026242Y67121D02*
X1026285Y67117D01*
X1026329Y67110D01*
X1026373Y67103D01*
X1026406Y67096D01*
X1026435Y67088D01*
X1026453Y67081D01*
X1026460D01*
X1026522Y67059D01*
X1026587Y67030D01*
X1026660Y66997D01*
X1026729Y66965D01*
X1026795Y66932D01*
X1026820Y66917D01*
X1026846Y66906D01*
X1026864Y66895D01*
X1026879Y66888D01*
X1026890Y66881D01*
X1026893D01*
X1026944Y66852D01*
X1026991Y66826D01*
X1027035Y66804D01*
X1027075Y66786D01*
X1027112Y66768D01*
X1027144Y66750D01*
X1027199Y66724D01*
X1027239Y66706D01*
X1027268Y66695D01*
X1027286Y66688D01*
X1027290D01*
X1027326Y66677D01*
X1027363Y66666D01*
X1027396Y66659D01*
X1027421Y66655D01*
X1027443Y66651D01*
X1027457D01*
X1027468D01*
X1027472D01*
X1027505Y66655D01*
X1027530Y66662D01*
X1027556Y66673D01*
X1027577Y66684D01*
X1027596Y66695D01*
X1027610Y66706D01*
X1027618Y66713D01*
X1027621Y66717D01*
X1027639Y66742D01*
X1027654Y66768D01*
X1027665Y66790D01*
X1027672Y66815D01*
X1027676Y66834D01*
X1027680Y66852D01*
Y66866D01*
X1027676Y66910D01*
X1027661Y66954D01*
X1027643Y66997D01*
X1027618Y67034D01*
X1027596Y67063D01*
X1027577Y67088D01*
X1027563Y67103D01*
X1027559Y67110D01*
X1027851D01*
X1027880Y67059D01*
X1027898Y67012D01*
X1027912Y66965D01*
X1027923Y66921D01*
X1027931Y66888D01*
X1027934Y66859D01*
Y66834D01*
X1027927Y66761D01*
X1027912Y66699D01*
X1027891Y66644D01*
X1027865Y66597D01*
X1027840Y66561D01*
X1027818Y66531D01*
X1027803Y66517D01*
X1027796Y66509D01*
X1027741Y66466D01*
X1027680Y66437D01*
X1027621Y66415D01*
X1027563Y66397D01*
X1027512Y66389D01*
X1027472Y66386D01*
X1027457Y66382D01*
X1027446D01*
X1027439D01*
X1027436D01*
X1027392Y66386D01*
X1027345Y66389D01*
X1027301Y66397D01*
X1027257Y66404D01*
X1027225Y66415D01*
X1027195Y66422D01*
X1027177Y66426D01*
X1027170Y66430D01*
X1027108Y66451D01*
X1027039Y66480D01*
X1026966Y66513D01*
X1026897Y66550D01*
X1026835Y66582D01*
X1026806Y66597D01*
X1026784Y66608D01*
X1026762Y66619D01*
X1026748Y66626D01*
X1026740Y66630D01*
X1026737Y66633D01*
X1026686Y66659D01*
X1026638Y66684D01*
X1026595Y66706D01*
X1026555Y66728D01*
X1026522Y66746D01*
X1026489Y66761D01*
X1026435Y66786D01*
X1026394Y66804D01*
X1026369Y66815D01*
X1026351Y66819D01*
X1026347Y66823D01*
X1026307Y66834D01*
X1026271Y66841D01*
X1026242Y66848D01*
X1026213Y66852D01*
X1026191D01*
X1026176Y66855D01*
X1026165D01*
X1026162D01*
X1026125Y66852D01*
X1026092Y66844D01*
X1026063Y66837D01*
X1026038Y66823D01*
X1026020Y66808D01*
X1026001Y66790D01*
X1025976Y66750D01*
X1025961Y66710D01*
X1025954Y66677D01*
X1025951Y66662D01*
Y66644D01*
X1025954Y66611D01*
X1025961Y66579D01*
X1025972Y66542D01*
X1025983Y66513D01*
X1025994Y66484D01*
X1026005Y66462D01*
X1026012Y66448D01*
X1026016Y66444D01*
X1025754D01*
X1025736Y66491D01*
X1025721Y66535D01*
X1025710Y66575D01*
X1025703Y66611D01*
X1025699Y66641D01*
X1025696Y66662D01*
Y66681D01*
X1025703Y66750D01*
X1025718Y66812D01*
X1025739Y66870D01*
X1025765Y66914D01*
X1025794Y66950D01*
X1025816Y66979D01*
X1025830Y66994D01*
X1025838Y67001D01*
X1025892Y67041D01*
X1025951Y67074D01*
X1026012Y67096D01*
X1026071Y67110D01*
X1026122Y67117D01*
X1026162Y67121D01*
X1026176Y67125D01*
X1026187D01*
X1026194D01*
X1026198D01*
X1026242Y67121D01*
D02*
G37*
G36*
X1027312Y66175D02*
X1027417Y66160D01*
X1027508Y66135D01*
X1027552Y66124D01*
X1027588Y66109D01*
X1027621Y66095D01*
X1027650Y66084D01*
X1027676Y66069D01*
X1027694Y66058D01*
X1027712Y66051D01*
X1027723Y66044D01*
X1027730Y66036D01*
X1027734D01*
X1027771Y66007D01*
X1027803Y65978D01*
X1027832Y65945D01*
X1027854Y65916D01*
X1027876Y65883D01*
X1027894Y65854D01*
X1027920Y65796D01*
X1027934Y65741D01*
X1027942Y65702D01*
X1027945Y65687D01*
Y65665D01*
X1027942Y65618D01*
X1027934Y65570D01*
X1027920Y65527D01*
X1027905Y65487D01*
X1027894Y65458D01*
X1027880Y65432D01*
X1027872Y65414D01*
X1027869Y65410D01*
X1027621D01*
X1027650Y65447D01*
X1027668Y65483D01*
X1027683Y65516D01*
X1027694Y65541D01*
X1027701Y65567D01*
X1027705Y65585D01*
Y65600D01*
X1027698Y65650D01*
X1027683Y65698D01*
X1027661Y65738D01*
X1027636Y65771D01*
X1027610Y65796D01*
X1027588Y65818D01*
X1027574Y65829D01*
X1027567Y65833D01*
X1027512Y65862D01*
X1027450Y65883D01*
X1027385Y65898D01*
X1027326Y65909D01*
X1027272Y65916D01*
X1027228Y65920D01*
X1027210D01*
X1027199D01*
X1027192D01*
X1027188D01*
X1027101Y65916D01*
X1027024Y65909D01*
X1026959Y65894D01*
X1026904Y65880D01*
X1026861Y65865D01*
X1026828Y65851D01*
X1026810Y65843D01*
X1026802Y65840D01*
X1026755Y65807D01*
X1026719Y65771D01*
X1026693Y65738D01*
X1026678Y65702D01*
X1026667Y65672D01*
X1026664Y65647D01*
X1026660Y65632D01*
Y65625D01*
X1026664Y65596D01*
X1026671Y65563D01*
X1026697Y65501D01*
X1026711Y65472D01*
X1026722Y65450D01*
X1026729Y65436D01*
X1026733Y65432D01*
X1026475D01*
X1026456Y65476D01*
X1026442Y65519D01*
X1026435Y65560D01*
X1026427Y65596D01*
X1026424Y65625D01*
X1026420Y65647D01*
Y65665D01*
X1026424Y65705D01*
X1026431Y65745D01*
X1026442Y65781D01*
X1026453Y65818D01*
X1026489Y65880D01*
X1026529Y65934D01*
X1026569Y65978D01*
X1026606Y66011D01*
X1026617Y66022D01*
X1026628Y66029D01*
X1026635Y66036D01*
X1026638D01*
X1026726Y66084D01*
X1026817Y66120D01*
X1026911Y66145D01*
X1026999Y66164D01*
X1027039Y66171D01*
X1027075Y66175D01*
X1027112Y66178D01*
X1027137D01*
X1027163Y66182D01*
X1027181D01*
X1027192D01*
X1027195D01*
X1027312Y66175D01*
D02*
G37*
G36*
X1027905Y64959D02*
X1027334D01*
X1027261Y64955D01*
X1027188Y64948D01*
X1027115Y64933D01*
X1027053Y64919D01*
X1026999Y64908D01*
X1026977Y64901D01*
X1026959Y64893D01*
X1026944Y64890D01*
X1026933Y64886D01*
X1026926Y64882D01*
X1026922D01*
X1026882Y64868D01*
X1026849Y64853D01*
X1026820Y64835D01*
X1026795Y64821D01*
X1026773Y64802D01*
X1026758Y64788D01*
X1026729Y64755D01*
X1026715Y64730D01*
X1026708Y64704D01*
X1026704Y64689D01*
Y64686D01*
X1026711Y64646D01*
X1026722Y64609D01*
X1026729Y64595D01*
X1026733Y64584D01*
X1026740Y64580D01*
Y64577D01*
X1026478Y64555D01*
X1026464Y64577D01*
X1026453Y64602D01*
X1026438Y64642D01*
Y64660D01*
X1026435Y64675D01*
Y64686D01*
X1026438Y64719D01*
X1026445Y64748D01*
X1026460Y64770D01*
X1026475Y64792D01*
X1026489Y64806D01*
X1026504Y64817D01*
X1026511Y64824D01*
X1026515Y64828D01*
X1026529Y64839D01*
X1026551Y64846D01*
X1026598Y64868D01*
X1026653Y64890D01*
X1026711Y64912D01*
X1026762Y64930D01*
X1026810Y64941D01*
X1026824Y64948D01*
X1026839Y64952D01*
X1026846Y64955D01*
X1026849D01*
Y64959D01*
X1026460D01*
Y65214D01*
X1027905D01*
Y64959D01*
D02*
G37*
G36*
X1027312Y64453D02*
X1027370Y64446D01*
X1027425Y64438D01*
X1027476Y64428D01*
X1027523Y64420D01*
X1027567Y64409D01*
X1027603Y64395D01*
X1027636Y64384D01*
X1027668Y64373D01*
X1027690Y64366D01*
X1027712Y64355D01*
X1027727Y64347D01*
X1027738Y64340D01*
X1027745Y64337D01*
X1027749D01*
X1027781Y64311D01*
X1027814Y64285D01*
X1027840Y64260D01*
X1027861Y64231D01*
X1027898Y64176D01*
X1027920Y64122D01*
X1027934Y64071D01*
X1027942Y64031D01*
X1027945Y64016D01*
Y63994D01*
X1027942Y63932D01*
X1027927Y63878D01*
X1027905Y63827D01*
X1027883Y63783D01*
X1027861Y63743D01*
X1027840Y63718D01*
X1027825Y63700D01*
X1027821Y63692D01*
X1027567D01*
X1027614Y63736D01*
X1027647Y63776D01*
X1027672Y63820D01*
X1027687Y63860D01*
X1027698Y63892D01*
X1027701Y63918D01*
X1027705Y63936D01*
Y63943D01*
X1027701Y63987D01*
X1027683Y64027D01*
X1027661Y64064D01*
X1027632Y64093D01*
X1027596Y64118D01*
X1027556Y64140D01*
X1027516Y64154D01*
X1027472Y64169D01*
X1027385Y64187D01*
X1027348Y64195D01*
X1027312Y64198D01*
X1027283Y64202D01*
X1027257D01*
X1027243D01*
X1027239D01*
Y63663D01*
X1027166D01*
X1027093Y63667D01*
X1027028Y63670D01*
X1026970Y63678D01*
X1026911Y63685D01*
X1026861Y63696D01*
X1026810Y63707D01*
X1026766Y63721D01*
X1026686Y63750D01*
X1026620Y63783D01*
X1026566Y63820D01*
X1026522Y63856D01*
X1026489Y63892D01*
X1026464Y63929D01*
X1026445Y63965D01*
X1026431Y63994D01*
X1026424Y64020D01*
X1026420Y64038D01*
Y64056D01*
X1026424Y64089D01*
X1026427Y64122D01*
X1026453Y64184D01*
X1026482Y64231D01*
X1026518Y64275D01*
X1026558Y64307D01*
X1026587Y64333D01*
X1026613Y64347D01*
X1026617Y64351D01*
X1026620D01*
X1026660Y64369D01*
X1026700Y64387D01*
X1026791Y64413D01*
X1026886Y64431D01*
X1026977Y64442D01*
X1027017Y64449D01*
X1027057D01*
X1027090Y64453D01*
X1027122Y64457D01*
X1027144D01*
X1027166D01*
X1027177D01*
X1027181D01*
X1027250D01*
X1027312Y64453D01*
D02*
G37*
G36*
Y63430D02*
X1027370Y63423D01*
X1027425Y63415D01*
X1027476Y63405D01*
X1027523Y63397D01*
X1027567Y63386D01*
X1027603Y63372D01*
X1027636Y63361D01*
X1027668Y63350D01*
X1027690Y63343D01*
X1027712Y63332D01*
X1027727Y63324D01*
X1027738Y63317D01*
X1027745Y63314D01*
X1027749D01*
X1027781Y63288D01*
X1027814Y63263D01*
X1027840Y63237D01*
X1027861Y63208D01*
X1027898Y63153D01*
X1027920Y63099D01*
X1027934Y63048D01*
X1027942Y63008D01*
X1027945Y62993D01*
Y62972D01*
X1027942Y62910D01*
X1027927Y62855D01*
X1027905Y62804D01*
X1027883Y62760D01*
X1027861Y62720D01*
X1027840Y62695D01*
X1027825Y62677D01*
X1027821Y62669D01*
X1027567D01*
X1027614Y62713D01*
X1027647Y62753D01*
X1027672Y62797D01*
X1027687Y62837D01*
X1027698Y62870D01*
X1027701Y62895D01*
X1027705Y62913D01*
Y62920D01*
X1027701Y62964D01*
X1027683Y63004D01*
X1027661Y63041D01*
X1027632Y63070D01*
X1027596Y63095D01*
X1027556Y63117D01*
X1027516Y63132D01*
X1027472Y63146D01*
X1027385Y63164D01*
X1027348Y63172D01*
X1027312Y63175D01*
X1027283Y63179D01*
X1027257D01*
X1027243D01*
X1027239D01*
Y62640D01*
X1027166D01*
X1027093Y62644D01*
X1027028Y62647D01*
X1026970Y62655D01*
X1026911Y62662D01*
X1026861Y62673D01*
X1026810Y62684D01*
X1026766Y62699D01*
X1026686Y62728D01*
X1026620Y62760D01*
X1026566Y62797D01*
X1026522Y62833D01*
X1026489Y62870D01*
X1026464Y62906D01*
X1026445Y62942D01*
X1026431Y62972D01*
X1026424Y62997D01*
X1026420Y63015D01*
Y63033D01*
X1026424Y63066D01*
X1026427Y63099D01*
X1026453Y63161D01*
X1026482Y63208D01*
X1026518Y63252D01*
X1026558Y63284D01*
X1026587Y63310D01*
X1026613Y63324D01*
X1026617Y63328D01*
X1026620D01*
X1026660Y63346D01*
X1026700Y63365D01*
X1026791Y63390D01*
X1026886Y63408D01*
X1026977Y63419D01*
X1027017Y63427D01*
X1027057D01*
X1027090Y63430D01*
X1027122Y63434D01*
X1027144D01*
X1027166D01*
X1027177D01*
X1027181D01*
X1027250D01*
X1027312Y63430D01*
D02*
G37*
G36*
X1027905Y62105D02*
X1026831D01*
X1026824Y62102D01*
X1026810Y62094D01*
X1026777Y62076D01*
X1026762Y62065D01*
X1026748Y62054D01*
X1026740Y62050D01*
X1026737Y62047D01*
X1026711Y62021D01*
X1026689Y62000D01*
X1026675Y61974D01*
X1026667Y61952D01*
X1026660Y61934D01*
X1026657Y61919D01*
Y61905D01*
X1026660Y61879D01*
X1026664Y61858D01*
X1026675Y61839D01*
X1026689Y61825D01*
X1026722Y61799D01*
X1026762Y61785D01*
X1026802Y61774D01*
X1026835Y61770D01*
X1026849Y61767D01*
X1026857D01*
X1026864D01*
X1026868D01*
X1027905D01*
Y61512D01*
X1026864D01*
X1026791Y61515D01*
X1026729Y61526D01*
X1026678Y61541D01*
X1026631Y61555D01*
X1026598Y61570D01*
X1026573Y61585D01*
X1026555Y61595D01*
X1026551Y61599D01*
X1026511Y61636D01*
X1026482Y61672D01*
X1026464Y61712D01*
X1026449Y61748D01*
X1026442Y61781D01*
X1026435Y61807D01*
Y61832D01*
X1026438Y61861D01*
X1026442Y61890D01*
X1026464Y61941D01*
X1026493Y61989D01*
X1026526Y62025D01*
X1026558Y62058D01*
X1026587Y62083D01*
X1026609Y62098D01*
X1026613Y62102D01*
X1026617D01*
Y62105D01*
X1026460D01*
Y62360D01*
X1027905D01*
Y62105D01*
D02*
G37*
G36*
X1025987Y60995D02*
X1027905D01*
Y60715D01*
X1025987D01*
Y60380D01*
X1025725D01*
Y61330D01*
X1025987D01*
Y60995D01*
D02*
G37*
G36*
X1027312Y60227D02*
X1027370Y60220D01*
X1027421Y60212D01*
X1027472Y60201D01*
X1027519Y60194D01*
X1027559Y60183D01*
X1027599Y60169D01*
X1027632Y60158D01*
X1027661Y60147D01*
X1027687Y60140D01*
X1027709Y60129D01*
X1027723Y60121D01*
X1027734Y60114D01*
X1027741Y60110D01*
X1027745D01*
X1027781Y60089D01*
X1027810Y60063D01*
X1027836Y60034D01*
X1027861Y60009D01*
X1027898Y59954D01*
X1027920Y59899D01*
X1027934Y59852D01*
X1027942Y59816D01*
X1027945Y59801D01*
Y59779D01*
X1027942Y59743D01*
X1027938Y59706D01*
X1027912Y59641D01*
X1027883Y59583D01*
X1027843Y59535D01*
X1027807Y59499D01*
X1027778Y59470D01*
X1027752Y59455D01*
X1027749Y59448D01*
X1027745D01*
X1027661Y59408D01*
X1027570Y59375D01*
X1027479Y59353D01*
X1027388Y59339D01*
X1027348Y59335D01*
X1027308Y59332D01*
X1027272Y59328D01*
X1027243Y59324D01*
X1027217D01*
X1027199D01*
X1027188D01*
X1027184D01*
X1027119D01*
X1027061Y59328D01*
X1027002Y59335D01*
X1026948Y59342D01*
X1026900Y59353D01*
X1026853Y59364D01*
X1026810Y59375D01*
X1026773Y59386D01*
X1026740Y59397D01*
X1026711Y59408D01*
X1026686Y59419D01*
X1026664Y59430D01*
X1026649Y59437D01*
X1026638Y59444D01*
X1026631Y59448D01*
X1026628D01*
X1026591Y59473D01*
X1026558Y59499D01*
X1026533Y59524D01*
X1026507Y59553D01*
X1026486Y59579D01*
X1026471Y59608D01*
X1026445Y59659D01*
X1026431Y59706D01*
X1026424Y59746D01*
X1026420Y59757D01*
Y59779D01*
X1026424Y59819D01*
X1026427Y59856D01*
X1026438Y59888D01*
X1026453Y59921D01*
X1026486Y59976D01*
X1026522Y60023D01*
X1026562Y60059D01*
X1026595Y60089D01*
X1026609Y60100D01*
X1026620Y60103D01*
X1026624Y60110D01*
X1026628D01*
X1026711Y60150D01*
X1026799Y60180D01*
X1026893Y60201D01*
X1026981Y60216D01*
X1027024Y60220D01*
X1027061Y60223D01*
X1027097Y60227D01*
X1027126D01*
X1027152Y60230D01*
X1027170D01*
X1027181D01*
X1027184D01*
X1027250D01*
X1027312Y60227D01*
D02*
G37*
G36*
X1028684Y58800D02*
X1027818D01*
Y58796D01*
X1027861Y58760D01*
X1027891Y58724D01*
X1027912Y58687D01*
X1027931Y58651D01*
X1027938Y58622D01*
X1027942Y58600D01*
X1027945Y58582D01*
Y58578D01*
X1027942Y58545D01*
X1027938Y58513D01*
X1027912Y58454D01*
X1027880Y58403D01*
X1027843Y58360D01*
X1027807Y58327D01*
X1027774Y58301D01*
X1027749Y58283D01*
X1027745Y58280D01*
X1027741D01*
X1027658Y58240D01*
X1027570Y58210D01*
X1027479Y58188D01*
X1027396Y58174D01*
X1027355Y58170D01*
X1027319Y58167D01*
X1027290Y58163D01*
X1027261Y58159D01*
X1027239D01*
X1027221D01*
X1027210D01*
X1027206D01*
X1027086Y58163D01*
X1026981Y58178D01*
X1026886Y58199D01*
X1026846Y58210D01*
X1026806Y58221D01*
X1026773Y58232D01*
X1026744Y58243D01*
X1026719Y58254D01*
X1026697Y58265D01*
X1026678Y58272D01*
X1026667Y58280D01*
X1026660Y58283D01*
X1026657D01*
X1026617Y58305D01*
X1026584Y58331D01*
X1026555Y58356D01*
X1026529Y58381D01*
X1026507Y58403D01*
X1026489Y58429D01*
X1026464Y58476D01*
X1026445Y58516D01*
X1026438Y58549D01*
X1026435Y58571D01*
Y58578D01*
X1026442Y58625D01*
X1026456Y58669D01*
X1026475Y58705D01*
X1026500Y58738D01*
X1026526Y58764D01*
X1026544Y58782D01*
X1026558Y58793D01*
X1026566Y58796D01*
Y58800D01*
X1026460D01*
Y59055D01*
X1028684D01*
Y58800D01*
D02*
G37*
%LPC*%
G36*
X777998Y223463D02*
X777981D01*
X777946Y223458D01*
X777915Y223440D01*
X777888Y223423D01*
X777866Y223396D01*
X777849Y223374D01*
X777835Y223352D01*
X777826Y223339D01*
X777822Y223335D01*
X777805Y223282D01*
X777791Y223229D01*
X777778Y223171D01*
X777774Y223118D01*
X777769Y223070D01*
X777765Y223035D01*
Y223008D01*
Y223004D01*
Y222999D01*
X777769Y222920D01*
X777774Y222854D01*
X777787Y222792D01*
X777800Y222744D01*
X777813Y222699D01*
X777835Y222664D01*
X777853Y222633D01*
X777875Y222611D01*
X777893Y222589D01*
X777915Y222576D01*
X777946Y222563D01*
X777972Y222554D01*
X777981D01*
X778021Y222558D01*
X778056Y222572D01*
X778087Y222594D01*
X778113Y222625D01*
X778131Y222655D01*
X778153Y222695D01*
X778179Y222775D01*
X778193Y222858D01*
X778197Y222898D01*
X778201Y222929D01*
X778206Y222960D01*
Y222982D01*
Y222995D01*
Y222999D01*
X778201Y223074D01*
X778197Y223141D01*
X778188Y223198D01*
X778175Y223246D01*
X778162Y223286D01*
X778153Y223317D01*
X778148Y223335D01*
X778144Y223339D01*
X778118Y223379D01*
X778091Y223410D01*
X778065Y223432D01*
X778038Y223445D01*
X778016Y223454D01*
X777998Y223463D01*
D02*
G37*
G36*
X777994Y222228D02*
X777981D01*
X777950Y222223D01*
X777923Y222210D01*
X777902Y222192D01*
X777879Y222175D01*
X777866Y222157D01*
X777853Y222140D01*
X777849Y222126D01*
X777844Y222122D01*
X777826Y222078D01*
X777818Y222034D01*
X777809Y221985D01*
X777800Y221937D01*
Y221897D01*
X777796Y221866D01*
Y221844D01*
Y221835D01*
X777800Y221760D01*
X777805Y221690D01*
X777813Y221632D01*
X777826Y221584D01*
X777840Y221540D01*
X777853Y221504D01*
X777871Y221478D01*
X777888Y221451D01*
X777906Y221434D01*
X777923Y221421D01*
X777950Y221407D01*
X777972Y221399D01*
X777981D01*
X778012Y221403D01*
X778043Y221416D01*
X778069Y221438D01*
X778087Y221469D01*
X778104Y221500D01*
X778122Y221540D01*
X778144Y221619D01*
X778157Y221698D01*
X778162Y221738D01*
Y221769D01*
X778166Y221800D01*
Y221822D01*
Y221835D01*
Y221840D01*
Y221906D01*
X778157Y221959D01*
X778148Y222012D01*
X778140Y222051D01*
X778131Y222082D01*
X778122Y222109D01*
X778118Y222122D01*
X778113Y222126D01*
X778095Y222162D01*
X778074Y222184D01*
X778051Y222201D01*
X778029Y222214D01*
X778012Y222223D01*
X777994Y222228D01*
D02*
G37*
G36*
X772711Y223463D02*
X772693D01*
X772658Y223458D01*
X772627Y223440D01*
X772601Y223423D01*
X772579Y223396D01*
X772561Y223374D01*
X772548Y223352D01*
X772539Y223339D01*
X772535Y223335D01*
X772517Y223282D01*
X772504Y223229D01*
X772490Y223171D01*
X772486Y223118D01*
X772482Y223070D01*
X772477Y223035D01*
Y223008D01*
Y223004D01*
Y222999D01*
X772482Y222920D01*
X772486Y222854D01*
X772499Y222792D01*
X772512Y222744D01*
X772526Y222699D01*
X772548Y222664D01*
X772565Y222633D01*
X772587Y222611D01*
X772605Y222589D01*
X772627Y222576D01*
X772658Y222563D01*
X772684Y222554D01*
X772693D01*
X772733Y222558D01*
X772768Y222572D01*
X772799Y222594D01*
X772826Y222625D01*
X772843Y222655D01*
X772865Y222695D01*
X772892Y222775D01*
X772905Y222858D01*
X772909Y222898D01*
X772914Y222929D01*
X772918Y222960D01*
Y222982D01*
Y222995D01*
Y222999D01*
X772914Y223074D01*
X772909Y223141D01*
X772901Y223198D01*
X772887Y223246D01*
X772874Y223286D01*
X772865Y223317D01*
X772861Y223335D01*
X772857Y223339D01*
X772830Y223379D01*
X772803Y223410D01*
X772777Y223432D01*
X772751Y223445D01*
X772729Y223454D01*
X772711Y223463D01*
D02*
G37*
G36*
X772707Y222228D02*
X772693D01*
X772662Y222223D01*
X772636Y222210D01*
X772614Y222192D01*
X772592Y222175D01*
X772579Y222157D01*
X772565Y222140D01*
X772561Y222126D01*
X772557Y222122D01*
X772539Y222078D01*
X772530Y222034D01*
X772521Y221985D01*
X772512Y221937D01*
Y221897D01*
X772508Y221866D01*
Y221844D01*
Y221835D01*
X772512Y221760D01*
X772517Y221690D01*
X772526Y221632D01*
X772539Y221584D01*
X772552Y221540D01*
X772565Y221504D01*
X772583Y221478D01*
X772601Y221451D01*
X772618Y221434D01*
X772636Y221421D01*
X772662Y221407D01*
X772684Y221399D01*
X772693D01*
X772724Y221403D01*
X772755Y221416D01*
X772782Y221438D01*
X772799Y221469D01*
X772817Y221500D01*
X772834Y221540D01*
X772857Y221619D01*
X772870Y221698D01*
X772874Y221738D01*
Y221769D01*
X772879Y221800D01*
Y221822D01*
Y221835D01*
Y221840D01*
Y221906D01*
X772870Y221959D01*
X772861Y222012D01*
X772852Y222051D01*
X772843Y222082D01*
X772834Y222109D01*
X772830Y222122D01*
X772826Y222126D01*
X772808Y222162D01*
X772786Y222184D01*
X772764Y222201D01*
X772742Y222214D01*
X772724Y222223D01*
X772707Y222228D01*
D02*
G37*
G36*
X768363Y223480D02*
X768354D01*
X768332Y223476D01*
X768314Y223467D01*
X768296Y223454D01*
X768279Y223436D01*
X768266Y223410D01*
X768248Y223383D01*
X768226Y223317D01*
X768204Y223238D01*
X768182Y223149D01*
X768169Y223057D01*
X768155Y222955D01*
X768147Y222858D01*
X768142Y222766D01*
X768138Y222677D01*
X768133Y222598D01*
X768129Y222532D01*
Y222505D01*
Y222479D01*
Y222461D01*
Y222448D01*
Y222439D01*
Y222435D01*
Y222316D01*
X768133Y222206D01*
Y222109D01*
X768138Y222020D01*
X768142Y221941D01*
X768147Y221870D01*
X768151Y221809D01*
X768155Y221756D01*
X768160Y221712D01*
X768164Y221672D01*
X768169Y221641D01*
X768173Y221615D01*
X768177Y221597D01*
X768182Y221584D01*
Y221575D01*
X768195Y221540D01*
X768204Y221509D01*
X768235Y221465D01*
X768261Y221429D01*
X768288Y221403D01*
X768314Y221390D01*
X768336Y221385D01*
X768349Y221381D01*
X768354D01*
X768376Y221385D01*
X768394Y221390D01*
X768433Y221416D01*
X768460Y221451D01*
X768486Y221491D01*
X768504Y221531D01*
X768517Y221566D01*
X768521Y221593D01*
X768526Y221597D01*
Y221601D01*
X768535Y221645D01*
X768543Y221698D01*
X768552Y221760D01*
X768561Y221826D01*
X768570Y221963D01*
X768574Y222100D01*
X768579Y222166D01*
Y222228D01*
X768583Y222285D01*
Y222334D01*
Y222378D01*
Y222409D01*
Y222426D01*
Y222435D01*
Y222532D01*
X768579Y222620D01*
Y222704D01*
X768574Y222779D01*
X768570Y222854D01*
X768561Y222920D01*
X768557Y222982D01*
X768548Y223039D01*
X768539Y223092D01*
X768530Y223141D01*
X768513Y223224D01*
X768491Y223295D01*
X768469Y223348D01*
X768446Y223392D01*
X768424Y223423D01*
X768407Y223449D01*
X768389Y223463D01*
X768376Y223471D01*
X768363Y223480D01*
D02*
G37*
G36*
X920467Y192114D02*
X920446D01*
X920424D01*
X920409D01*
X920398D01*
X920391D01*
X920387D01*
X920289D01*
X920198Y192110D01*
X920118D01*
X920045Y192107D01*
X919980Y192103D01*
X919921Y192099D01*
X919870Y192096D01*
X919827Y192092D01*
X919790Y192089D01*
X919758Y192085D01*
X919732Y192081D01*
X919710Y192078D01*
X919696Y192074D01*
X919685Y192070D01*
X919678D01*
X919648Y192059D01*
X919623Y192052D01*
X919587Y192027D01*
X919557Y192005D01*
X919536Y191983D01*
X919525Y191961D01*
X919521Y191943D01*
X919517Y191932D01*
Y191928D01*
X919521Y191910D01*
X919525Y191896D01*
X919547Y191863D01*
X919576Y191841D01*
X919608Y191819D01*
X919641Y191805D01*
X919670Y191794D01*
X919692Y191790D01*
X919696Y191786D01*
X919699D01*
X919736Y191779D01*
X919779Y191772D01*
X919831Y191765D01*
X919885Y191757D01*
X919998Y191750D01*
X920111Y191746D01*
X920165Y191743D01*
X920216D01*
X920264Y191739D01*
X920304D01*
X920340D01*
X920366D01*
X920380D01*
X920387D01*
X920467D01*
X920540Y191743D01*
X920609D01*
X920671Y191746D01*
X920733Y191750D01*
X920788Y191757D01*
X920839Y191761D01*
X920886Y191768D01*
X920930Y191776D01*
X920970Y191783D01*
X921039Y191797D01*
X921097Y191816D01*
X921141Y191834D01*
X921177Y191852D01*
X921203Y191870D01*
X921225Y191885D01*
X921235Y191899D01*
X921243Y191910D01*
X921250Y191921D01*
Y191928D01*
X921246Y191947D01*
X921239Y191961D01*
X921228Y191976D01*
X921214Y191990D01*
X921192Y192001D01*
X921170Y192016D01*
X921115Y192034D01*
X921050Y192052D01*
X920977Y192070D01*
X920901Y192081D01*
X920817Y192092D01*
X920737Y192099D01*
X920660Y192103D01*
X920588Y192107D01*
X920522Y192110D01*
X920467Y192114D01*
D02*
G37*
G36*
X823950Y214494D02*
X823910D01*
X823874D01*
X823848D01*
X823834D01*
X823826D01*
X823746D01*
X823674Y214491D01*
X823604D01*
X823542Y214487D01*
X823481Y214484D01*
X823426Y214476D01*
X823375Y214473D01*
X823328Y214465D01*
X823284Y214458D01*
X823244Y214451D01*
X823175Y214436D01*
X823117Y214418D01*
X823073Y214400D01*
X823036Y214382D01*
X823011Y214364D01*
X822989Y214349D01*
X822978Y214334D01*
X822971Y214323D01*
X822964Y214313D01*
Y214305D01*
X822967Y214287D01*
X822975Y214272D01*
X822986Y214258D01*
X823000Y214243D01*
X823022Y214232D01*
X823044Y214218D01*
X823098Y214200D01*
X823164Y214181D01*
X823237Y214163D01*
X823313Y214152D01*
X823397Y214142D01*
X823477Y214134D01*
X823553Y214130D01*
X823626Y214127D01*
X823692Y214123D01*
X823746Y214120D01*
X823768D01*
X823790D01*
X823805D01*
X823816D01*
X823823D01*
X823826D01*
X823925D01*
X824016Y214123D01*
X824096D01*
X824169Y214127D01*
X824234Y214130D01*
X824292Y214134D01*
X824343Y214138D01*
X824387Y214142D01*
X824423Y214145D01*
X824456Y214149D01*
X824482Y214152D01*
X824503Y214156D01*
X824518Y214160D01*
X824529Y214163D01*
X824536D01*
X824565Y214174D01*
X824591Y214181D01*
X824627Y214207D01*
X824656Y214229D01*
X824678Y214251D01*
X824689Y214272D01*
X824693Y214291D01*
X824696Y214302D01*
Y214305D01*
X824693Y214323D01*
X824689Y214338D01*
X824667Y214371D01*
X824638Y214393D01*
X824605Y214415D01*
X824573Y214429D01*
X824543Y214440D01*
X824522Y214444D01*
X824518Y214447D01*
X824514D01*
X824478Y214455D01*
X824434Y214462D01*
X824383Y214469D01*
X824329Y214476D01*
X824216Y214484D01*
X824103Y214487D01*
X824048Y214491D01*
X823997D01*
X823950Y214494D01*
D02*
G37*
G36*
X861744Y181463D02*
X861740D01*
X861722Y181460D01*
X861707Y181456D01*
X861675Y181434D01*
X861653Y181405D01*
X861631Y181372D01*
X861616Y181340D01*
X861605Y181310D01*
X861602Y181289D01*
X861598Y181285D01*
Y181281D01*
X861591Y181245D01*
X861584Y181201D01*
X861576Y181150D01*
X861569Y181096D01*
X861562Y180983D01*
X861558Y180870D01*
X861554Y180815D01*
Y180764D01*
X861551Y180717D01*
Y180677D01*
Y180641D01*
Y180615D01*
Y180601D01*
Y180593D01*
Y180513D01*
X861554Y180440D01*
Y180371D01*
X861558Y180309D01*
X861562Y180247D01*
X861569Y180193D01*
X861573Y180142D01*
X861580Y180095D01*
X861587Y180051D01*
X861594Y180011D01*
X861609Y179942D01*
X861627Y179884D01*
X861645Y179840D01*
X861664Y179803D01*
X861682Y179778D01*
X861696Y179756D01*
X861711Y179745D01*
X861722Y179738D01*
X861733Y179731D01*
X861740D01*
X861758Y179734D01*
X861773Y179742D01*
X861787Y179753D01*
X861802Y179767D01*
X861813Y179789D01*
X861827Y179811D01*
X861846Y179865D01*
X861864Y179931D01*
X861882Y180004D01*
X861893Y180080D01*
X861904Y180164D01*
X861911Y180244D01*
X861915Y180320D01*
X861918Y180393D01*
X861922Y180459D01*
X861926Y180513D01*
Y180535D01*
Y180557D01*
Y180571D01*
Y180582D01*
Y180590D01*
Y180593D01*
Y180692D01*
X861922Y180783D01*
Y180863D01*
X861918Y180936D01*
X861915Y181001D01*
X861911Y181059D01*
X861907Y181110D01*
X861904Y181154D01*
X861900Y181190D01*
X861897Y181223D01*
X861893Y181248D01*
X861889Y181270D01*
X861886Y181285D01*
X861882Y181296D01*
Y181303D01*
X861871Y181332D01*
X861864Y181358D01*
X861838Y181394D01*
X861817Y181423D01*
X861795Y181445D01*
X861773Y181456D01*
X861755Y181460D01*
X861744Y181463D01*
D02*
G37*
G36*
X808415Y220657D02*
X808407D01*
X808378Y220654D01*
X808349Y220643D01*
X808327Y220624D01*
X808309Y220599D01*
X808291Y220570D01*
X808276Y220537D01*
X808258Y220472D01*
X808244Y220402D01*
X808240Y220370D01*
Y220340D01*
X808236Y220319D01*
Y220297D01*
Y220286D01*
Y220282D01*
Y220202D01*
X808244Y220129D01*
X808251Y220068D01*
X808262Y220013D01*
X808276Y219969D01*
X808291Y219929D01*
X808306Y219900D01*
X808320Y219875D01*
X808335Y219856D01*
X808349Y219842D01*
X808364Y219831D01*
X808378Y219824D01*
X808397Y219816D01*
X808404D01*
X808433Y219820D01*
X808459Y219835D01*
X808480Y219856D01*
X808502Y219882D01*
X808517Y219915D01*
X808531Y219947D01*
X808549Y220027D01*
X808564Y220104D01*
X808568Y220137D01*
Y220169D01*
X808571Y220195D01*
Y220217D01*
Y220231D01*
Y220235D01*
X808568Y220308D01*
X808564Y220373D01*
X808557Y220431D01*
X808546Y220479D01*
X808535Y220519D01*
X808520Y220555D01*
X808506Y220581D01*
X808488Y220606D01*
X808473Y220621D01*
X808459Y220635D01*
X808444Y220643D01*
X808433Y220650D01*
X808415Y220657D01*
D02*
G37*
G36*
X813150Y221243D02*
X813143D01*
X812990Y220333D01*
X813303D01*
X813150Y221243D01*
D02*
G37*
G36*
X807352Y221505D02*
X807308Y221502D01*
X807268Y221491D01*
X807235Y221473D01*
X807206Y221447D01*
X807181Y221422D01*
X807163Y221392D01*
X807144Y221360D01*
X807133Y221327D01*
X807115Y221262D01*
X807108Y221232D01*
X807104Y221207D01*
X807101Y221185D01*
Y221167D01*
Y221156D01*
Y221152D01*
X807104Y221094D01*
X807112Y221043D01*
X807123Y220999D01*
X807137Y220963D01*
X807155Y220930D01*
X807177Y220905D01*
X807199Y220883D01*
X807221Y220865D01*
X807243Y220854D01*
X807265Y220843D01*
X807305Y220828D01*
X807319D01*
X807330Y220825D01*
X807352D01*
Y221505D01*
D02*
G37*
G36*
X803956Y221243D02*
X803948D01*
X803796Y220333D01*
X804109D01*
X803956Y221243D01*
D02*
G37*
G36*
X809623Y221534D02*
X809620D01*
X809601Y221531D01*
X809587Y221527D01*
X809554Y221505D01*
X809532Y221476D01*
X809510Y221443D01*
X809496Y221411D01*
X809485Y221382D01*
X809481Y221360D01*
X809478Y221356D01*
Y221352D01*
X809470Y221316D01*
X809463Y221272D01*
X809456Y221221D01*
X809449Y221167D01*
X809441Y221054D01*
X809438Y220941D01*
X809434Y220886D01*
Y220836D01*
X809430Y220788D01*
Y220748D01*
Y220712D01*
Y220686D01*
Y220672D01*
Y220665D01*
Y220584D01*
X809434Y220512D01*
Y220443D01*
X809438Y220381D01*
X809441Y220319D01*
X809449Y220264D01*
X809452Y220213D01*
X809459Y220166D01*
X809467Y220122D01*
X809474Y220082D01*
X809489Y220013D01*
X809507Y219955D01*
X809525Y219911D01*
X809543Y219875D01*
X809561Y219849D01*
X809576Y219827D01*
X809591Y219816D01*
X809601Y219809D01*
X809612Y219802D01*
X809620D01*
X809638Y219806D01*
X809652Y219813D01*
X809667Y219824D01*
X809682Y219838D01*
X809692Y219860D01*
X809707Y219882D01*
X809725Y219936D01*
X809743Y220002D01*
X809762Y220075D01*
X809772Y220151D01*
X809783Y220235D01*
X809791Y220315D01*
X809794Y220392D01*
X809798Y220464D01*
X809802Y220530D01*
X809805Y220584D01*
Y220606D01*
Y220628D01*
Y220643D01*
Y220654D01*
Y220661D01*
Y220665D01*
Y220763D01*
X809802Y220854D01*
Y220934D01*
X809798Y221007D01*
X809794Y221072D01*
X809791Y221130D01*
X809787Y221181D01*
X809783Y221225D01*
X809780Y221262D01*
X809776Y221294D01*
X809772Y221320D01*
X809769Y221341D01*
X809765Y221356D01*
X809762Y221367D01*
Y221374D01*
X809751Y221403D01*
X809743Y221429D01*
X809718Y221465D01*
X809696Y221494D01*
X809674Y221516D01*
X809652Y221527D01*
X809634Y221531D01*
X809623Y221534D01*
D02*
G37*
G36*
X848532Y348840D02*
X848524D01*
X848495Y348836D01*
X848470Y348825D01*
X848448Y348803D01*
X848426Y348782D01*
X848412Y348752D01*
X848397Y348720D01*
X848379Y348651D01*
X848364Y348585D01*
X848361Y348552D01*
Y348523D01*
X848357Y348498D01*
Y348480D01*
Y348468D01*
Y348465D01*
X848361Y348385D01*
X848364Y348312D01*
X848372Y348250D01*
X848382Y348199D01*
X848397Y348152D01*
X848412Y348115D01*
X848426Y348086D01*
X848441Y348061D01*
X848455Y348043D01*
X848470Y348028D01*
X848484Y348017D01*
X848499Y348010D01*
X848517Y348003D01*
X848524D01*
X848554Y348006D01*
X848579Y348021D01*
X848601Y348043D01*
X848623Y348068D01*
X848637Y348101D01*
X848652Y348134D01*
X848670Y348210D01*
X848685Y348290D01*
X848688Y348323D01*
Y348356D01*
X848692Y348381D01*
Y348403D01*
Y348418D01*
Y348421D01*
Y348494D01*
X848685Y348559D01*
X848677Y348614D01*
X848666Y348661D01*
X848652Y348705D01*
X848637Y348738D01*
X848623Y348767D01*
X848608Y348789D01*
X848594Y348803D01*
X848579Y348818D01*
X848565Y348825D01*
X848550Y348833D01*
X848532Y348840D01*
D02*
G37*
G36*
X854068Y349721D02*
X854061D01*
X854043Y349717D01*
X854028Y349710D01*
X854014Y349699D01*
X853999Y349684D01*
X853988Y349662D01*
X853974Y349641D01*
X853955Y349586D01*
X853937Y349520D01*
X853919Y349448D01*
X853908Y349371D01*
X853897Y349288D01*
X853890Y349207D01*
X853886Y349131D01*
X853883Y349058D01*
X853879Y348993D01*
X853875Y348938D01*
Y348916D01*
Y348894D01*
Y348880D01*
Y348869D01*
Y348862D01*
Y348858D01*
Y348760D01*
X853879Y348669D01*
Y348589D01*
X853883Y348516D01*
X853886Y348450D01*
X853890Y348392D01*
X853893Y348341D01*
X853897Y348298D01*
X853901Y348261D01*
X853904Y348228D01*
X853908Y348203D01*
X853912Y348181D01*
X853915Y348166D01*
X853919Y348155D01*
Y348148D01*
X853930Y348119D01*
X853937Y348094D01*
X853963Y348057D01*
X853985Y348028D01*
X854006Y348006D01*
X854028Y347995D01*
X854046Y347992D01*
X854057Y347988D01*
X854061D01*
X854079Y347992D01*
X854094Y347995D01*
X854126Y348017D01*
X854148Y348046D01*
X854170Y348079D01*
X854185Y348112D01*
X854196Y348141D01*
X854199Y348163D01*
X854203Y348166D01*
Y348170D01*
X854210Y348206D01*
X854217Y348250D01*
X854225Y348301D01*
X854232Y348356D01*
X854239Y348468D01*
X854243Y348581D01*
X854247Y348636D01*
Y348687D01*
X854250Y348734D01*
Y348774D01*
Y348811D01*
Y348836D01*
Y348851D01*
Y348858D01*
Y348938D01*
X854247Y349011D01*
Y349080D01*
X854243Y349142D01*
X854239Y349204D01*
X854232Y349258D01*
X854228Y349309D01*
X854221Y349357D01*
X854214Y349400D01*
X854206Y349440D01*
X854192Y349510D01*
X854174Y349568D01*
X854156Y349611D01*
X854137Y349648D01*
X854119Y349673D01*
X854105Y349695D01*
X854090Y349706D01*
X854079Y349713D01*
X854068Y349721D01*
D02*
G37*
G36*
X852874D02*
X852867D01*
X852849Y349717D01*
X852834Y349710D01*
X852820Y349699D01*
X852805Y349684D01*
X852794Y349662D01*
X852780Y349641D01*
X852761Y349586D01*
X852743Y349520D01*
X852725Y349448D01*
X852714Y349371D01*
X852703Y349288D01*
X852696Y349207D01*
X852692Y349131D01*
X852689Y349058D01*
X852685Y348993D01*
X852681Y348938D01*
Y348916D01*
Y348894D01*
Y348880D01*
Y348869D01*
Y348862D01*
Y348858D01*
Y348760D01*
X852685Y348669D01*
Y348589D01*
X852689Y348516D01*
X852692Y348450D01*
X852696Y348392D01*
X852700Y348341D01*
X852703Y348298D01*
X852707Y348261D01*
X852711Y348228D01*
X852714Y348203D01*
X852718Y348181D01*
X852721Y348166D01*
X852725Y348155D01*
Y348148D01*
X852736Y348119D01*
X852743Y348094D01*
X852769Y348057D01*
X852791Y348028D01*
X852812Y348006D01*
X852834Y347995D01*
X852852Y347992D01*
X852863Y347988D01*
X852867D01*
X852885Y347992D01*
X852900Y347995D01*
X852932Y348017D01*
X852954Y348046D01*
X852976Y348079D01*
X852991Y348112D01*
X853002Y348141D01*
X853005Y348163D01*
X853009Y348166D01*
Y348170D01*
X853016Y348206D01*
X853024Y348250D01*
X853031Y348301D01*
X853038Y348356D01*
X853045Y348468D01*
X853049Y348581D01*
X853053Y348636D01*
Y348687D01*
X853056Y348734D01*
Y348774D01*
Y348811D01*
Y348836D01*
Y348851D01*
Y348858D01*
Y348938D01*
X853053Y349011D01*
Y349080D01*
X853049Y349142D01*
X853045Y349204D01*
X853038Y349258D01*
X853034Y349309D01*
X853027Y349357D01*
X853020Y349400D01*
X853013Y349440D01*
X852998Y349510D01*
X852980Y349568D01*
X852962Y349611D01*
X852943Y349648D01*
X852925Y349673D01*
X852911Y349695D01*
X852896Y349706D01*
X852885Y349713D01*
X852874Y349721D01*
D02*
G37*
G36*
X851680D02*
X851673D01*
X851655Y349717D01*
X851640Y349710D01*
X851626Y349699D01*
X851611Y349684D01*
X851600Y349662D01*
X851586Y349641D01*
X851567Y349586D01*
X851549Y349520D01*
X851531Y349448D01*
X851520Y349371D01*
X851509Y349288D01*
X851502Y349207D01*
X851498Y349131D01*
X851495Y349058D01*
X851491Y348993D01*
X851487Y348938D01*
Y348916D01*
Y348894D01*
Y348880D01*
Y348869D01*
Y348862D01*
Y348858D01*
Y348760D01*
X851491Y348669D01*
Y348589D01*
X851495Y348516D01*
X851498Y348450D01*
X851502Y348392D01*
X851506Y348341D01*
X851509Y348298D01*
X851513Y348261D01*
X851517Y348228D01*
X851520Y348203D01*
X851524Y348181D01*
X851528Y348166D01*
X851531Y348155D01*
Y348148D01*
X851542Y348119D01*
X851549Y348094D01*
X851575Y348057D01*
X851597Y348028D01*
X851618Y348006D01*
X851640Y347995D01*
X851659Y347992D01*
X851669Y347988D01*
X851673D01*
X851691Y347992D01*
X851706Y347995D01*
X851739Y348017D01*
X851760Y348046D01*
X851782Y348079D01*
X851797Y348112D01*
X851808Y348141D01*
X851811Y348163D01*
X851815Y348166D01*
Y348170D01*
X851822Y348206D01*
X851830Y348250D01*
X851837Y348301D01*
X851844Y348356D01*
X851851Y348468D01*
X851855Y348581D01*
X851859Y348636D01*
Y348687D01*
X851862Y348734D01*
Y348774D01*
Y348811D01*
Y348836D01*
Y348851D01*
Y348858D01*
Y348938D01*
X851859Y349011D01*
Y349080D01*
X851855Y349142D01*
X851851Y349204D01*
X851844Y349258D01*
X851840Y349309D01*
X851833Y349357D01*
X851826Y349400D01*
X851819Y349440D01*
X851804Y349510D01*
X851786Y349568D01*
X851768Y349611D01*
X851750Y349648D01*
X851731Y349673D01*
X851717Y349695D01*
X851702Y349706D01*
X851691Y349713D01*
X851680Y349721D01*
D02*
G37*
G36*
X849762Y349138D02*
X849384D01*
X849755Y348268D01*
X849762D01*
Y349138D01*
D02*
G37*
G36*
X846129Y349706D02*
X846115D01*
X846086Y349703D01*
X846060Y349688D01*
X846038Y349673D01*
X846020Y349652D01*
X846006Y349633D01*
X845995Y349615D01*
X845987Y349604D01*
X845984Y349601D01*
X845969Y349557D01*
X845958Y349513D01*
X845947Y349466D01*
X845944Y349422D01*
X845940Y349382D01*
X845936Y349353D01*
Y349331D01*
Y349328D01*
Y349324D01*
X845940Y349258D01*
X845944Y349204D01*
X845955Y349153D01*
X845966Y349113D01*
X845977Y349076D01*
X845995Y349047D01*
X846009Y349022D01*
X846027Y349004D01*
X846042Y348985D01*
X846060Y348974D01*
X846086Y348964D01*
X846107Y348956D01*
X846115D01*
X846148Y348960D01*
X846177Y348971D01*
X846202Y348989D01*
X846224Y349014D01*
X846239Y349040D01*
X846257Y349073D01*
X846279Y349138D01*
X846290Y349207D01*
X846293Y349240D01*
X846297Y349266D01*
X846300Y349291D01*
Y349309D01*
Y349320D01*
Y349324D01*
X846297Y349386D01*
X846293Y349440D01*
X846286Y349488D01*
X846275Y349528D01*
X846264Y349560D01*
X846257Y349586D01*
X846253Y349601D01*
X846249Y349604D01*
X846228Y349637D01*
X846206Y349662D01*
X846184Y349681D01*
X846162Y349692D01*
X846144Y349699D01*
X846129Y349706D01*
D02*
G37*
G36*
X846126Y348687D02*
X846115D01*
X846089Y348683D01*
X846068Y348672D01*
X846049Y348658D01*
X846031Y348643D01*
X846020Y348629D01*
X846009Y348614D01*
X846006Y348603D01*
X846002Y348600D01*
X845987Y348563D01*
X845980Y348527D01*
X845973Y348487D01*
X845966Y348447D01*
Y348414D01*
X845962Y348389D01*
Y348370D01*
Y348363D01*
X845966Y348301D01*
X845969Y348243D01*
X845977Y348196D01*
X845987Y348155D01*
X845998Y348119D01*
X846009Y348090D01*
X846024Y348068D01*
X846038Y348046D01*
X846053Y348032D01*
X846068Y348021D01*
X846089Y348010D01*
X846107Y348003D01*
X846115D01*
X846140Y348006D01*
X846166Y348017D01*
X846188Y348035D01*
X846202Y348061D01*
X846217Y348086D01*
X846231Y348119D01*
X846249Y348185D01*
X846260Y348250D01*
X846264Y348283D01*
Y348308D01*
X846268Y348334D01*
Y348352D01*
Y348363D01*
Y348367D01*
Y348421D01*
X846260Y348465D01*
X846253Y348509D01*
X846246Y348541D01*
X846239Y348567D01*
X846231Y348589D01*
X846228Y348600D01*
X846224Y348603D01*
X846209Y348632D01*
X846191Y348651D01*
X846173Y348665D01*
X846155Y348676D01*
X846140Y348683D01*
X846126Y348687D01*
D02*
G37*
G36*
X842540Y349721D02*
X842533D01*
X842515Y349717D01*
X842500Y349710D01*
X842486Y349699D01*
X842471Y349684D01*
X842460Y349662D01*
X842446Y349641D01*
X842428Y349586D01*
X842409Y349520D01*
X842391Y349448D01*
X842380Y349371D01*
X842369Y349288D01*
X842362Y349207D01*
X842358Y349131D01*
X842355Y349058D01*
X842351Y348993D01*
X842347Y348938D01*
Y348916D01*
Y348894D01*
Y348880D01*
Y348869D01*
Y348862D01*
Y348858D01*
Y348760D01*
X842351Y348669D01*
Y348589D01*
X842355Y348516D01*
X842358Y348450D01*
X842362Y348392D01*
X842366Y348341D01*
X842369Y348298D01*
X842373Y348261D01*
X842377Y348228D01*
X842380Y348203D01*
X842384Y348181D01*
X842387Y348166D01*
X842391Y348155D01*
Y348148D01*
X842402Y348119D01*
X842409Y348094D01*
X842435Y348057D01*
X842457Y348028D01*
X842478Y348006D01*
X842500Y347995D01*
X842519Y347992D01*
X842529Y347988D01*
X842533D01*
X842551Y347992D01*
X842566Y347995D01*
X842599Y348017D01*
X842620Y348046D01*
X842642Y348079D01*
X842657Y348112D01*
X842668Y348141D01*
X842671Y348163D01*
X842675Y348166D01*
Y348170D01*
X842682Y348206D01*
X842690Y348250D01*
X842697Y348301D01*
X842704Y348356D01*
X842711Y348468D01*
X842715Y348581D01*
X842719Y348636D01*
Y348687D01*
X842722Y348734D01*
Y348774D01*
Y348811D01*
Y348836D01*
Y348851D01*
Y348858D01*
Y348938D01*
X842719Y349011D01*
Y349080D01*
X842715Y349142D01*
X842711Y349204D01*
X842704Y349258D01*
X842700Y349309D01*
X842693Y349357D01*
X842686Y349400D01*
X842679Y349440D01*
X842664Y349510D01*
X842646Y349568D01*
X842628Y349611D01*
X842610Y349648D01*
X842591Y349673D01*
X842577Y349695D01*
X842562Y349706D01*
X842551Y349713D01*
X842540Y349721D01*
D02*
G37*
G36*
X936168Y191106D02*
X936146D01*
X936124D01*
X936109D01*
X936098D01*
X936091D01*
X936087D01*
X935989D01*
X935898Y191102D01*
X935818D01*
X935745Y191099D01*
X935680Y191095D01*
X935621Y191092D01*
X935571Y191088D01*
X935527Y191084D01*
X935490Y191080D01*
X935458Y191077D01*
X935432Y191073D01*
X935410Y191070D01*
X935396Y191066D01*
X935385Y191062D01*
X935378D01*
X935349Y191051D01*
X935323Y191044D01*
X935287Y191019D01*
X935258Y190997D01*
X935236Y190975D01*
X935225Y190953D01*
X935221Y190935D01*
X935217Y190924D01*
Y190920D01*
X935221Y190902D01*
X935225Y190888D01*
X935246Y190855D01*
X935276Y190833D01*
X935308Y190811D01*
X935341Y190797D01*
X935370Y190786D01*
X935392Y190782D01*
X935396Y190778D01*
X935399D01*
X935436Y190771D01*
X935480Y190764D01*
X935530Y190757D01*
X935585Y190749D01*
X935698Y190742D01*
X935811Y190738D01*
X935865Y190735D01*
X935916D01*
X935964Y190731D01*
X936004D01*
X936040D01*
X936065D01*
X936080D01*
X936087D01*
X936168D01*
X936240Y190735D01*
X936309D01*
X936371Y190738D01*
X936433Y190742D01*
X936488Y190749D01*
X936539Y190753D01*
X936586Y190760D01*
X936630Y190768D01*
X936670Y190775D01*
X936739Y190789D01*
X936797Y190807D01*
X936841Y190826D01*
X936877Y190844D01*
X936903Y190862D01*
X936925Y190877D01*
X936936Y190891D01*
X936943Y190902D01*
X936950Y190913D01*
Y190920D01*
X936946Y190939D01*
X936939Y190953D01*
X936928Y190968D01*
X936914Y190982D01*
X936892Y190993D01*
X936870Y191008D01*
X936815Y191026D01*
X936750Y191044D01*
X936677Y191062D01*
X936601Y191073D01*
X936517Y191084D01*
X936437Y191092D01*
X936360Y191095D01*
X936288Y191099D01*
X936222Y191102D01*
X936168Y191106D01*
D02*
G37*
G36*
X927417Y190964D02*
X927396D01*
X927374D01*
X927359D01*
X927348D01*
X927341D01*
X927337D01*
X927239D01*
X927148Y190960D01*
X927068D01*
X926995Y190956D01*
X926930Y190953D01*
X926871Y190949D01*
X926820Y190946D01*
X926777Y190942D01*
X926740Y190938D01*
X926708Y190935D01*
X926682Y190931D01*
X926660Y190927D01*
X926646Y190924D01*
X926635Y190920D01*
X926628D01*
X926598Y190909D01*
X926573Y190902D01*
X926537Y190876D01*
X926507Y190855D01*
X926486Y190833D01*
X926475Y190811D01*
X926471Y190793D01*
X926467Y190782D01*
Y190778D01*
X926471Y190760D01*
X926475Y190745D01*
X926497Y190713D01*
X926526Y190691D01*
X926558Y190669D01*
X926591Y190654D01*
X926620Y190644D01*
X926642Y190640D01*
X926646Y190636D01*
X926649D01*
X926686Y190629D01*
X926729Y190622D01*
X926781Y190614D01*
X926835Y190607D01*
X926948Y190600D01*
X927061Y190596D01*
X927115Y190593D01*
X927166D01*
X927214Y190589D01*
X927254D01*
X927290D01*
X927316D01*
X927330D01*
X927337D01*
X927417D01*
X927490Y190593D01*
X927559D01*
X927621Y190596D01*
X927683Y190600D01*
X927738Y190607D01*
X927789Y190611D01*
X927836Y190618D01*
X927880Y190625D01*
X927920Y190633D01*
X927989Y190647D01*
X928047Y190665D01*
X928091Y190683D01*
X928127Y190702D01*
X928153Y190720D01*
X928175Y190735D01*
X928185Y190749D01*
X928193Y190760D01*
X928200Y190771D01*
Y190778D01*
X928196Y190796D01*
X928189Y190811D01*
X928178Y190825D01*
X928164Y190840D01*
X928142Y190851D01*
X928120Y190866D01*
X928065Y190884D01*
X928000Y190902D01*
X927927Y190920D01*
X927851Y190931D01*
X927767Y190942D01*
X927687Y190949D01*
X927610Y190953D01*
X927538Y190956D01*
X927472Y190960D01*
X927417Y190964D01*
D02*
G37*
G36*
X818734Y180409D02*
X818712D01*
X818690D01*
X818675D01*
X818664D01*
X818657D01*
X818653D01*
X818555D01*
X818464Y180405D01*
X818384D01*
X818311Y180402D01*
X818246Y180398D01*
X818188Y180394D01*
X818137Y180391D01*
X818093Y180387D01*
X818057Y180383D01*
X818024Y180380D01*
X817998Y180376D01*
X817976Y180372D01*
X817962Y180369D01*
X817951Y180365D01*
X817944D01*
X817915Y180354D01*
X817889Y180347D01*
X817853Y180321D01*
X817824Y180300D01*
X817802Y180278D01*
X817791Y180256D01*
X817787Y180238D01*
X817784Y180227D01*
Y180223D01*
X817787Y180205D01*
X817791Y180190D01*
X817813Y180158D01*
X817842Y180136D01*
X817875Y180114D01*
X817907Y180099D01*
X817936Y180088D01*
X817958Y180085D01*
X817962Y180081D01*
X817966D01*
X818002Y180074D01*
X818046Y180067D01*
X818097Y180059D01*
X818151Y180052D01*
X818264Y180045D01*
X818377Y180041D01*
X818431Y180037D01*
X818482D01*
X818530Y180034D01*
X818570D01*
X818606D01*
X818632D01*
X818646D01*
X818653D01*
X818734D01*
X818806Y180037D01*
X818876D01*
X818937Y180041D01*
X818999Y180045D01*
X819054Y180052D01*
X819105Y180056D01*
X819152Y180063D01*
X819196Y180070D01*
X819236Y180078D01*
X819305Y180092D01*
X819363Y180110D01*
X819407Y180129D01*
X819443Y180147D01*
X819469Y180165D01*
X819491Y180180D01*
X819502Y180194D01*
X819509Y180205D01*
X819516Y180216D01*
Y180223D01*
X819513Y180241D01*
X819505Y180256D01*
X819494Y180271D01*
X819480Y180285D01*
X819458Y180296D01*
X819436Y180310D01*
X819382Y180329D01*
X819316Y180347D01*
X819243Y180365D01*
X819167Y180376D01*
X819083Y180387D01*
X819003Y180394D01*
X818927Y180398D01*
X818854Y180402D01*
X818788Y180405D01*
X818734Y180409D01*
D02*
G37*
G36*
X1027556Y90563D02*
X1027548D01*
X1027545D01*
X1027508Y90559D01*
X1027472Y90548D01*
X1027436Y90534D01*
X1027403Y90515D01*
X1027337Y90468D01*
X1027279Y90410D01*
X1027232Y90355D01*
X1027195Y90308D01*
X1027181Y90290D01*
X1027170Y90275D01*
X1027166Y90264D01*
X1027163Y90260D01*
X1027541D01*
X1027548Y90264D01*
X1027563Y90268D01*
X1027592Y90290D01*
X1027607Y90301D01*
X1027621Y90308D01*
X1027629Y90315D01*
X1027632Y90319D01*
X1027658Y90341D01*
X1027676Y90359D01*
X1027687Y90381D01*
X1027694Y90399D01*
X1027701Y90413D01*
X1027705Y90428D01*
Y90439D01*
X1027701Y90457D01*
X1027698Y90475D01*
X1027683Y90504D01*
X1027668Y90523D01*
X1027661Y90530D01*
X1027621Y90548D01*
X1027585Y90559D01*
X1027570D01*
X1027556Y90563D01*
D02*
G37*
G36*
X1027039Y88306D02*
X1027017D01*
X1027013D01*
X1027010D01*
X1026952Y88302D01*
X1026900Y88299D01*
X1026857Y88291D01*
X1026820Y88280D01*
X1026791Y88273D01*
X1026770Y88266D01*
X1026755Y88262D01*
X1026751Y88258D01*
X1026719Y88240D01*
X1026693Y88218D01*
X1026678Y88197D01*
X1026664Y88178D01*
X1026657Y88160D01*
X1026653Y88146D01*
Y88131D01*
X1026657Y88106D01*
X1026667Y88080D01*
X1026686Y88062D01*
X1026704Y88044D01*
X1026722Y88029D01*
X1026740Y88018D01*
X1026751Y88015D01*
X1026755Y88011D01*
X1026795Y87997D01*
X1026839Y87982D01*
X1026882Y87975D01*
X1026926Y87971D01*
X1026966Y87967D01*
X1026995Y87964D01*
X1027017D01*
X1027021D01*
X1027024D01*
X1027083Y87967D01*
X1027133Y87971D01*
X1027177Y87978D01*
X1027213Y87985D01*
X1027243Y87997D01*
X1027261Y88004D01*
X1027275Y88007D01*
X1027279Y88011D01*
X1027308Y88029D01*
X1027330Y88047D01*
X1027348Y88069D01*
X1027359Y88087D01*
X1027366Y88106D01*
X1027370Y88117D01*
Y88131D01*
X1027366Y88160D01*
X1027355Y88186D01*
X1027341Y88208D01*
X1027323Y88229D01*
X1027304Y88244D01*
X1027290Y88255D01*
X1027279Y88258D01*
X1027275Y88262D01*
X1027235Y88277D01*
X1027195Y88288D01*
X1027148Y88295D01*
X1027108Y88299D01*
X1027068Y88302D01*
X1027039Y88306D01*
D02*
G37*
G36*
X1028284Y88371D02*
X1028273D01*
X1028269D01*
X1028233Y88368D01*
X1028204Y88361D01*
X1028174Y88349D01*
X1028149Y88339D01*
X1028131Y88328D01*
X1028116Y88317D01*
X1028109Y88310D01*
X1028105Y88306D01*
X1028084Y88280D01*
X1028069Y88251D01*
X1028058Y88222D01*
X1028051Y88197D01*
X1028047Y88171D01*
X1028043Y88153D01*
Y88135D01*
X1028047Y88095D01*
X1028054Y88058D01*
X1028065Y88026D01*
X1028076Y87997D01*
X1028087Y87975D01*
X1028098Y87956D01*
X1028105Y87945D01*
X1028109Y87942D01*
X1028135Y87913D01*
X1028160Y87894D01*
X1028189Y87880D01*
X1028214Y87869D01*
X1028236Y87862D01*
X1028255Y87858D01*
X1028265D01*
X1028269D01*
X1028302Y87862D01*
X1028331Y87869D01*
X1028360Y87884D01*
X1028382Y87894D01*
X1028400Y87909D01*
X1028415Y87924D01*
X1028422Y87931D01*
X1028426Y87935D01*
X1028448Y87964D01*
X1028462Y87997D01*
X1028477Y88026D01*
X1028484Y88055D01*
X1028487Y88080D01*
X1028491Y88102D01*
Y88120D01*
X1028487Y88160D01*
X1028480Y88197D01*
X1028473Y88226D01*
X1028458Y88255D01*
X1028448Y88273D01*
X1028440Y88291D01*
X1028433Y88299D01*
X1028429Y88302D01*
X1028404Y88324D01*
X1028378Y88342D01*
X1028353Y88353D01*
X1028327Y88364D01*
X1028302Y88368D01*
X1028284Y88371D01*
D02*
G37*
G36*
X1027046Y87221D02*
X1026973D01*
X1026911Y87214D01*
X1026861Y87207D01*
X1026813Y87199D01*
X1026773Y87188D01*
X1026740Y87177D01*
X1026715Y87167D01*
X1026693Y87152D01*
X1026675Y87137D01*
X1026664Y87126D01*
X1026649Y87105D01*
X1026642Y87090D01*
Y87083D01*
X1026646Y87057D01*
X1026660Y87032D01*
X1026678Y87014D01*
X1026704Y86996D01*
X1026737Y86981D01*
X1026770Y86970D01*
X1026842Y86952D01*
X1026919Y86941D01*
X1026952Y86937D01*
X1026984D01*
X1027010Y86934D01*
X1027028D01*
X1027042D01*
X1027046D01*
Y87221D01*
D02*
G37*
G36*
X1026908Y83323D02*
X1026886D01*
X1026864D01*
X1026849D01*
X1026839D01*
X1026831D01*
X1026828D01*
X1026729D01*
X1026638Y83319D01*
X1026558D01*
X1026486Y83315D01*
X1026420Y83312D01*
X1026362Y83308D01*
X1026311Y83305D01*
X1026267Y83301D01*
X1026231Y83297D01*
X1026198Y83294D01*
X1026173Y83290D01*
X1026151Y83286D01*
X1026136Y83283D01*
X1026125Y83279D01*
X1026118D01*
X1026089Y83268D01*
X1026063Y83261D01*
X1026027Y83235D01*
X1025998Y83214D01*
X1025976Y83192D01*
X1025965Y83170D01*
X1025961Y83152D01*
X1025958Y83141D01*
Y83137D01*
X1025961Y83119D01*
X1025965Y83104D01*
X1025987Y83072D01*
X1026016Y83050D01*
X1026049Y83028D01*
X1026081Y83013D01*
X1026111Y83002D01*
X1026132Y82999D01*
X1026136Y82995D01*
X1026140D01*
X1026176Y82988D01*
X1026220Y82981D01*
X1026271Y82973D01*
X1026325Y82966D01*
X1026438Y82959D01*
X1026551Y82955D01*
X1026606Y82951D01*
X1026657D01*
X1026704Y82948D01*
X1026744D01*
X1026780D01*
X1026806D01*
X1026820D01*
X1026828D01*
X1026908D01*
X1026981Y82951D01*
X1027050D01*
X1027112Y82955D01*
X1027174Y82959D01*
X1027228Y82966D01*
X1027279Y82970D01*
X1027326Y82977D01*
X1027370Y82984D01*
X1027410Y82991D01*
X1027479Y83006D01*
X1027538Y83024D01*
X1027581Y83042D01*
X1027618Y83061D01*
X1027643Y83079D01*
X1027665Y83093D01*
X1027676Y83108D01*
X1027683Y83119D01*
X1027690Y83130D01*
Y83137D01*
X1027687Y83155D01*
X1027680Y83170D01*
X1027668Y83184D01*
X1027654Y83199D01*
X1027632Y83210D01*
X1027610Y83224D01*
X1027556Y83243D01*
X1027490Y83261D01*
X1027417Y83279D01*
X1027341Y83290D01*
X1027257Y83301D01*
X1027177Y83308D01*
X1027101Y83312D01*
X1027028Y83315D01*
X1026962Y83319D01*
X1026908Y83323D01*
D02*
G37*
G36*
X1027574Y74976D02*
X1026806D01*
X1026799Y74972D01*
X1026788Y74969D01*
X1026762Y74954D01*
X1026740Y74940D01*
X1026737Y74932D01*
X1026733D01*
X1026715Y74914D01*
X1026700Y74896D01*
X1026689Y74882D01*
X1026682Y74863D01*
X1026678Y74849D01*
X1026675Y74838D01*
Y74827D01*
X1026682Y74787D01*
X1026697Y74751D01*
X1026722Y74721D01*
X1026758Y74696D01*
X1026799Y74670D01*
X1026842Y74652D01*
X1026937Y74627D01*
X1027035Y74608D01*
X1027079Y74605D01*
X1027119Y74601D01*
X1027155Y74598D01*
X1027181D01*
X1027195D01*
X1027203D01*
X1027290Y74601D01*
X1027370Y74605D01*
X1027436Y74616D01*
X1027494Y74630D01*
X1027541Y74645D01*
X1027581Y74663D01*
X1027614Y74681D01*
X1027643Y74699D01*
X1027661Y74718D01*
X1027680Y74736D01*
X1027690Y74754D01*
X1027698Y74769D01*
X1027705Y74794D01*
Y74801D01*
X1027698Y74834D01*
X1027683Y74867D01*
X1027665Y74896D01*
X1027639Y74922D01*
X1027614Y74943D01*
X1027596Y74962D01*
X1027581Y74972D01*
X1027574Y74976D01*
D02*
G37*
G36*
X1027046Y73873D02*
X1026973D01*
X1026911Y73866D01*
X1026861Y73859D01*
X1026813Y73851D01*
X1026773Y73840D01*
X1026740Y73830D01*
X1026715Y73819D01*
X1026693Y73804D01*
X1026675Y73790D01*
X1026664Y73779D01*
X1026649Y73757D01*
X1026642Y73742D01*
Y73735D01*
X1026646Y73709D01*
X1026660Y73684D01*
X1026678Y73666D01*
X1026704Y73648D01*
X1026737Y73633D01*
X1026770Y73622D01*
X1026842Y73604D01*
X1026919Y73593D01*
X1026952Y73589D01*
X1026984D01*
X1027010Y73586D01*
X1027028D01*
X1027042D01*
X1027046D01*
Y73873D01*
D02*
G37*
G36*
Y64205D02*
X1026973D01*
X1026911Y64198D01*
X1026861Y64191D01*
X1026813Y64184D01*
X1026773Y64173D01*
X1026740Y64162D01*
X1026715Y64151D01*
X1026693Y64136D01*
X1026675Y64122D01*
X1026664Y64111D01*
X1026649Y64089D01*
X1026642Y64074D01*
Y64067D01*
X1026646Y64042D01*
X1026660Y64016D01*
X1026678Y63998D01*
X1026704Y63980D01*
X1026737Y63965D01*
X1026770Y63954D01*
X1026842Y63936D01*
X1026919Y63925D01*
X1026952Y63921D01*
X1026984D01*
X1027010Y63918D01*
X1027028D01*
X1027042D01*
X1027046D01*
Y64205D01*
D02*
G37*
G36*
Y63183D02*
X1026973D01*
X1026911Y63175D01*
X1026861Y63168D01*
X1026813Y63161D01*
X1026773Y63150D01*
X1026740Y63139D01*
X1026715Y63128D01*
X1026693Y63113D01*
X1026675Y63099D01*
X1026664Y63088D01*
X1026649Y63066D01*
X1026642Y63051D01*
Y63044D01*
X1026646Y63019D01*
X1026660Y62993D01*
X1026678Y62975D01*
X1026704Y62957D01*
X1026737Y62942D01*
X1026770Y62931D01*
X1026842Y62913D01*
X1026919Y62902D01*
X1026952Y62899D01*
X1026984D01*
X1027010Y62895D01*
X1027028D01*
X1027042D01*
X1027046D01*
Y63183D01*
D02*
G37*
G36*
X1027232Y59969D02*
X1027206D01*
X1027192D01*
X1027184D01*
X1027093Y59965D01*
X1027010Y59961D01*
X1026941Y59950D01*
X1026882Y59939D01*
X1026831Y59925D01*
X1026788Y59910D01*
X1026755Y59892D01*
X1026726Y59874D01*
X1026704Y59859D01*
X1026689Y59841D01*
X1026675Y59826D01*
X1026667Y59812D01*
X1026660Y59790D01*
Y59783D01*
X1026667Y59746D01*
X1026682Y59717D01*
X1026708Y59692D01*
X1026740Y59670D01*
X1026780Y59652D01*
X1026828Y59634D01*
X1026922Y59612D01*
X1027017Y59597D01*
X1027064Y59593D01*
X1027101Y59590D01*
X1027137Y59586D01*
X1027163D01*
X1027177D01*
X1027184D01*
X1027275Y59590D01*
X1027355Y59593D01*
X1027425Y59605D01*
X1027487Y59615D01*
X1027538Y59630D01*
X1027577Y59645D01*
X1027614Y59663D01*
X1027639Y59681D01*
X1027661Y59699D01*
X1027676Y59717D01*
X1027690Y59732D01*
X1027698Y59746D01*
X1027705Y59768D01*
Y59776D01*
X1027698Y59808D01*
X1027683Y59837D01*
X1027658Y59866D01*
X1027625Y59888D01*
X1027585Y59907D01*
X1027541Y59921D01*
X1027443Y59943D01*
X1027348Y59957D01*
X1027304Y59961D01*
X1027264Y59965D01*
X1027232Y59969D01*
D02*
G37*
G36*
X1027574Y58800D02*
X1026806D01*
X1026799Y58796D01*
X1026788Y58793D01*
X1026762Y58778D01*
X1026740Y58764D01*
X1026737Y58756D01*
X1026733D01*
X1026715Y58738D01*
X1026700Y58720D01*
X1026689Y58705D01*
X1026682Y58687D01*
X1026678Y58673D01*
X1026675Y58662D01*
Y58651D01*
X1026682Y58611D01*
X1026697Y58574D01*
X1026722Y58545D01*
X1026758Y58520D01*
X1026799Y58494D01*
X1026842Y58476D01*
X1026937Y58451D01*
X1027035Y58432D01*
X1027079Y58429D01*
X1027119Y58425D01*
X1027155Y58421D01*
X1027181D01*
X1027195D01*
X1027203D01*
X1027290Y58425D01*
X1027370Y58429D01*
X1027436Y58440D01*
X1027494Y58454D01*
X1027541Y58469D01*
X1027581Y58487D01*
X1027614Y58505D01*
X1027643Y58523D01*
X1027661Y58542D01*
X1027680Y58560D01*
X1027690Y58578D01*
X1027698Y58592D01*
X1027705Y58618D01*
Y58625D01*
X1027698Y58658D01*
X1027683Y58691D01*
X1027665Y58720D01*
X1027639Y58745D01*
X1027614Y58767D01*
X1027596Y58785D01*
X1027581Y58796D01*
X1027574Y58800D01*
D02*
G37*
%LPD*%
D13*
X814476Y175489D02*
Y183363D01*
X809752Y175489D02*
X814476D01*
X809752D02*
Y183363D01*
X814476D01*
X805375Y197680D02*
X816891D01*
Y216972D01*
X801537D02*
X816891D01*
X801537Y201519D02*
Y216972D01*
Y201519D02*
X805375Y197680D01*
X779106Y309945D02*
X783831D01*
X779106D02*
Y317819D01*
X783831D01*
Y309945D02*
Y317819D01*
X759106Y244063D02*
Y251937D01*
Y244063D02*
X763831D01*
Y251937D01*
X759106D02*
X763831D01*
X745106Y244563D02*
Y252437D01*
Y244563D02*
X749831D01*
Y252437D01*
X745106D02*
X749831D01*
X761362Y310008D02*
Y317882D01*
X756638D02*
X761362D01*
X756638Y310008D02*
Y317882D01*
Y310008D02*
X761362D01*
X733862Y309563D02*
Y317437D01*
X729138D02*
X733862D01*
X729138Y309563D02*
Y317437D01*
Y309563D02*
X733862D01*
D19*
X722332Y213661D02*
X781190D01*
Y157991D02*
Y213661D01*
X722332Y157991D02*
X781190D01*
X722332D02*
Y213661D01*
M02*
