G04*
G04 #@! TF.GenerationSoftware,Altium Limited,Altium Designer,22.6.1 (34)*
G04*
G04 Layer_Color=65535*
%FSLAX25Y25*%
%MOIN*%
G70*
G04*
G04 #@! TF.SameCoordinates,44BA9B1E-1016-45A4-B772-E771DC22F3FE*
G04*
G04*
G04 #@! TF.FilePolarity,Positive*
G04*
G01*
G75*
%ADD17C,0.00787*%
%ADD18C,0.00472*%
%ADD19C,0.00500*%
%ADD20C,0.00591*%
%ADD21C,0.00602*%
G36*
X995887Y55927D02*
X995949Y55919D01*
X996011Y55909D01*
X996065Y55894D01*
X996116Y55876D01*
X996167Y55857D01*
X996211Y55836D01*
X996251Y55818D01*
X996288Y55796D01*
X996320Y55774D01*
X996346Y55756D01*
X996371Y55737D01*
X996389Y55723D01*
X996400Y55712D01*
X996408Y55705D01*
X996411Y55701D01*
X996451Y55657D01*
X996488Y55614D01*
X996517Y55566D01*
X996542Y55519D01*
X996568Y55472D01*
X996586Y55424D01*
X996611Y55337D01*
X996622Y55297D01*
X996630Y55261D01*
X996633Y55228D01*
X996637Y55199D01*
X996641Y55177D01*
Y55097D01*
X996633Y55053D01*
X996615Y54966D01*
X996590Y54886D01*
X996560Y54813D01*
X996531Y54755D01*
X996517Y54729D01*
X996506Y54707D01*
X996495Y54689D01*
X996488Y54678D01*
X996484Y54671D01*
X996480Y54667D01*
X997161Y54802D01*
Y55810D01*
X997456D01*
Y54558D01*
X996160Y54314D01*
X996120Y54605D01*
X996160Y54631D01*
X996193Y54664D01*
X996226Y54693D01*
X996251Y54722D01*
X996269Y54751D01*
X996288Y54773D01*
X996295Y54787D01*
X996298Y54791D01*
X996320Y54838D01*
X996338Y54886D01*
X996349Y54929D01*
X996360Y54973D01*
X996364Y55009D01*
X996368Y55038D01*
Y55108D01*
X996360Y55151D01*
X996342Y55228D01*
X996317Y55293D01*
X996291Y55352D01*
X996262Y55395D01*
X996237Y55428D01*
X996218Y55446D01*
X996215Y55453D01*
X996211D01*
X996149Y55505D01*
X996084Y55541D01*
X996014Y55566D01*
X995945Y55585D01*
X995887Y55595D01*
X995862Y55599D01*
X995840D01*
X995822Y55603D01*
X995807D01*
X995800D01*
X995796D01*
X995745D01*
X995698Y55595D01*
X995607Y55577D01*
X995530Y55552D01*
X995469Y55526D01*
X995417Y55497D01*
X995378Y55472D01*
X995367Y55461D01*
X995356Y55453D01*
X995352Y55450D01*
X995348Y55446D01*
X995319Y55417D01*
X995294Y55388D01*
X995250Y55322D01*
X995221Y55261D01*
X995203Y55199D01*
X995188Y55148D01*
X995185Y55104D01*
X995181Y55089D01*
Y55068D01*
X995185Y54998D01*
X995199Y54937D01*
X995217Y54882D01*
X995239Y54838D01*
X995261Y54798D01*
X995279Y54769D01*
X995294Y54755D01*
X995297Y54747D01*
X995348Y54704D01*
X995403Y54667D01*
X995465Y54638D01*
X995519Y54616D01*
X995574Y54602D01*
X995614Y54591D01*
X995632Y54587D01*
X995643Y54584D01*
X995650D01*
X995654D01*
X995629Y54260D01*
X995570Y54267D01*
X995516Y54278D01*
X995414Y54311D01*
X995327Y54351D01*
X995286Y54372D01*
X995254Y54394D01*
X995221Y54413D01*
X995192Y54434D01*
X995170Y54453D01*
X995152Y54471D01*
X995137Y54485D01*
X995123Y54492D01*
X995119Y54500D01*
X995115Y54504D01*
X995083Y54547D01*
X995053Y54591D01*
X995028Y54638D01*
X995006Y54685D01*
X994973Y54777D01*
X994952Y54868D01*
X994941Y54908D01*
X994937Y54948D01*
X994933Y54980D01*
X994930Y55009D01*
X994926Y55035D01*
Y55068D01*
X994930Y55144D01*
X994941Y55217D01*
X994955Y55286D01*
X994973Y55348D01*
X994999Y55406D01*
X995024Y55461D01*
X995050Y55512D01*
X995079Y55555D01*
X995108Y55595D01*
X995134Y55632D01*
X995163Y55661D01*
X995185Y55686D01*
X995203Y55705D01*
X995217Y55719D01*
X995228Y55726D01*
X995232Y55730D01*
X995279Y55766D01*
X995330Y55796D01*
X995378Y55825D01*
X995428Y55847D01*
X995527Y55883D01*
X995621Y55905D01*
X995661Y55912D01*
X995701Y55919D01*
X995734Y55923D01*
X995763Y55927D01*
X995789Y55930D01*
X995807D01*
X995818D01*
X995822D01*
X995887Y55927D01*
D02*
G37*
G36*
X996735Y36167D02*
X996793D01*
X996851Y36163D01*
X996902Y36156D01*
X996953Y36152D01*
X996997Y36148D01*
X997037Y36141D01*
X997073Y36138D01*
X997106Y36130D01*
X997132Y36127D01*
X997153Y36123D01*
X997172Y36119D01*
X997182Y36116D01*
X997190Y36112D01*
X997193D01*
X997274Y36090D01*
X997346Y36065D01*
X997408Y36036D01*
X997463Y36014D01*
X997510Y35988D01*
X997543Y35974D01*
X997561Y35959D01*
X997568Y35956D01*
X997623Y35915D01*
X997670Y35875D01*
X997710Y35832D01*
X997747Y35792D01*
X997772Y35755D01*
X997790Y35726D01*
X997801Y35708D01*
X997805Y35704D01*
Y35701D01*
X997834Y35642D01*
X997852Y35581D01*
X997867Y35522D01*
X997878Y35468D01*
X997885Y35420D01*
X997889Y35380D01*
Y35348D01*
X997881Y35249D01*
X997867Y35158D01*
X997841Y35082D01*
X997816Y35016D01*
X997787Y34962D01*
X997776Y34940D01*
X997761Y34922D01*
X997754Y34907D01*
X997747Y34896D01*
X997739Y34893D01*
Y34889D01*
X997681Y34824D01*
X997612Y34769D01*
X997543Y34721D01*
X997477Y34685D01*
X997416Y34656D01*
X997390Y34642D01*
X997365Y34634D01*
X997346Y34627D01*
X997332Y34620D01*
X997324Y34616D01*
X997321D01*
X997266Y34601D01*
X997212Y34587D01*
X997091Y34565D01*
X996971Y34547D01*
X996859Y34536D01*
X996804Y34532D01*
X996757Y34529D01*
X996713D01*
X996673Y34525D01*
X996644D01*
X996618D01*
X996604D01*
X996600D01*
X996473Y34529D01*
X996353Y34536D01*
X996243Y34547D01*
X996142Y34565D01*
X996047Y34583D01*
X995963Y34605D01*
X995887Y34627D01*
X995821Y34649D01*
X995763Y34671D01*
X995712Y34696D01*
X995668Y34714D01*
X995636Y34732D01*
X995606Y34751D01*
X995588Y34762D01*
X995577Y34769D01*
X995574Y34773D01*
X995530Y34813D01*
X995490Y34856D01*
X995453Y34903D01*
X995424Y34951D01*
X995399Y34998D01*
X995377Y35045D01*
X995362Y35093D01*
X995348Y35137D01*
X995337Y35180D01*
X995330Y35220D01*
X995323Y35257D01*
X995319Y35286D01*
X995315Y35311D01*
Y35348D01*
X995323Y35446D01*
X995337Y35537D01*
X995362Y35613D01*
X995388Y35679D01*
X995413Y35734D01*
X995428Y35752D01*
X995439Y35770D01*
X995446Y35784D01*
X995453Y35795D01*
X995461Y35799D01*
Y35803D01*
X995523Y35868D01*
X995588Y35923D01*
X995661Y35970D01*
X995726Y36007D01*
X995788Y36036D01*
X995814Y36050D01*
X995839Y36057D01*
X995858Y36065D01*
X995872Y36072D01*
X995879Y36076D01*
X995883D01*
X995938Y36094D01*
X995992Y36108D01*
X996109Y36130D01*
X996229Y36148D01*
X996345Y36159D01*
X996396Y36163D01*
X996444Y36167D01*
X996487D01*
X996527Y36170D01*
X996556D01*
X996582D01*
X996597D01*
X996600D01*
X996669D01*
X996735Y36167D01*
D02*
G37*
G36*
X997110Y80907D02*
X997161Y80900D01*
X997205Y80893D01*
X997249Y80882D01*
X997285Y80867D01*
X997318Y80857D01*
X997351Y80842D01*
X997376Y80827D01*
X997401Y80816D01*
X997434Y80791D01*
X997456Y80776D01*
X997463Y80769D01*
X997514Y80711D01*
X997551Y80642D01*
X997580Y80573D01*
X997598Y80507D01*
X997609Y80445D01*
X997613Y80420D01*
Y80394D01*
X997616Y80376D01*
Y80351D01*
X997613Y80285D01*
X997602Y80227D01*
X997587Y80168D01*
X997565Y80114D01*
X997540Y80063D01*
X997514Y80016D01*
X997485Y79976D01*
X997456Y79936D01*
X997423Y79899D01*
X997394Y79870D01*
X997369Y79845D01*
X997343Y79823D01*
X997321Y79804D01*
X997307Y79794D01*
X997296Y79786D01*
X997292Y79783D01*
X997347Y79761D01*
X997394Y79732D01*
X997434Y79699D01*
X997467Y79670D01*
X997496Y79641D01*
X997514Y79619D01*
X997525Y79604D01*
X997529Y79597D01*
X997558Y79546D01*
X997580Y79492D01*
X997594Y79437D01*
X997605Y79382D01*
X997613Y79339D01*
X997616Y79299D01*
Y79266D01*
X997613Y79200D01*
X997602Y79138D01*
X997591Y79084D01*
X997576Y79036D01*
X997558Y78996D01*
X997547Y78967D01*
X997536Y78949D01*
X997532Y78942D01*
X997500Y78891D01*
X997463Y78847D01*
X997427Y78807D01*
X997390Y78774D01*
X997361Y78749D01*
X997336Y78727D01*
X997321Y78716D01*
X997314Y78712D01*
X997576D01*
Y78436D01*
X995749D01*
Y78745D01*
X996695D01*
X996783Y78749D01*
X996859Y78753D01*
X996925Y78760D01*
X996979Y78771D01*
X997019Y78782D01*
X997048Y78789D01*
X997067Y78793D01*
X997074Y78796D01*
X997121Y78818D01*
X997161Y78844D01*
X997198Y78869D01*
X997227Y78895D01*
X997249Y78920D01*
X997263Y78938D01*
X997274Y78953D01*
X997278Y78956D01*
X997299Y79000D01*
X997318Y79040D01*
X997329Y79084D01*
X997340Y79120D01*
X997343Y79149D01*
X997347Y79175D01*
Y79197D01*
X997343Y79259D01*
X997332Y79309D01*
X997314Y79353D01*
X997296Y79386D01*
X997274Y79411D01*
X997260Y79430D01*
X997245Y79440D01*
X997241Y79444D01*
X997198Y79470D01*
X997150Y79488D01*
X997099Y79502D01*
X997048Y79510D01*
X997005Y79517D01*
X996965Y79521D01*
X996950D01*
X996943D01*
X996935D01*
X996932D01*
X995749D01*
Y79830D01*
X996808D01*
X996906Y79837D01*
X996990Y79852D01*
X997059Y79870D01*
X997118Y79896D01*
X997161Y79917D01*
X997190Y79939D01*
X997208Y79954D01*
X997216Y79957D01*
X997260Y80008D01*
X997292Y80063D01*
X997314Y80118D01*
X997332Y80168D01*
X997340Y80212D01*
X997343Y80249D01*
X997347Y80263D01*
Y80281D01*
X997343Y80321D01*
X997340Y80354D01*
X997332Y80387D01*
X997321Y80412D01*
X997310Y80438D01*
X997303Y80452D01*
X997299Y80463D01*
X997296Y80467D01*
X997274Y80496D01*
X997252Y80518D01*
X997230Y80536D01*
X997208Y80551D01*
X997190Y80562D01*
X997176Y80569D01*
X997165Y80576D01*
X997161D01*
X997128Y80587D01*
X997085Y80594D01*
X997041Y80598D01*
X996997Y80602D01*
X996957Y80605D01*
X996925D01*
X996903D01*
X996899D01*
X996896D01*
X995749D01*
Y80915D01*
X997001D01*
X997059D01*
X997110Y80907D01*
D02*
G37*
G36*
Y77974D02*
X997161Y77966D01*
X997205Y77959D01*
X997249Y77948D01*
X997285Y77934D01*
X997318Y77923D01*
X997351Y77908D01*
X997376Y77894D01*
X997401Y77883D01*
X997434Y77857D01*
X997456Y77843D01*
X997463Y77835D01*
X997514Y77777D01*
X997551Y77708D01*
X997580Y77639D01*
X997598Y77573D01*
X997609Y77511D01*
X997613Y77486D01*
Y77460D01*
X997616Y77442D01*
Y77417D01*
X997613Y77351D01*
X997602Y77293D01*
X997587Y77235D01*
X997565Y77180D01*
X997540Y77129D01*
X997514Y77082D01*
X997485Y77042D01*
X997456Y77002D01*
X997423Y76965D01*
X997394Y76936D01*
X997369Y76911D01*
X997343Y76889D01*
X997321Y76871D01*
X997307Y76860D01*
X997296Y76853D01*
X997292Y76849D01*
X997347Y76827D01*
X997394Y76798D01*
X997434Y76765D01*
X997467Y76736D01*
X997496Y76707D01*
X997514Y76685D01*
X997525Y76670D01*
X997529Y76663D01*
X997558Y76612D01*
X997580Y76558D01*
X997594Y76503D01*
X997605Y76448D01*
X997613Y76405D01*
X997616Y76365D01*
Y76332D01*
X997613Y76266D01*
X997602Y76205D01*
X997591Y76150D01*
X997576Y76103D01*
X997558Y76063D01*
X997547Y76034D01*
X997536Y76015D01*
X997532Y76008D01*
X997500Y75957D01*
X997463Y75913D01*
X997427Y75873D01*
X997390Y75841D01*
X997361Y75815D01*
X997336Y75793D01*
X997321Y75782D01*
X997314Y75779D01*
X997576D01*
Y75502D01*
X995749D01*
Y75811D01*
X996695D01*
X996783Y75815D01*
X996859Y75819D01*
X996925Y75826D01*
X996979Y75837D01*
X997019Y75848D01*
X997048Y75855D01*
X997067Y75859D01*
X997074Y75862D01*
X997121Y75884D01*
X997161Y75910D01*
X997198Y75935D01*
X997227Y75961D01*
X997249Y75986D01*
X997263Y76004D01*
X997274Y76019D01*
X997278Y76023D01*
X997299Y76066D01*
X997318Y76106D01*
X997329Y76150D01*
X997340Y76186D01*
X997343Y76215D01*
X997347Y76241D01*
Y76263D01*
X997343Y76325D01*
X997332Y76376D01*
X997314Y76419D01*
X997296Y76452D01*
X997274Y76478D01*
X997260Y76496D01*
X997245Y76507D01*
X997241Y76510D01*
X997198Y76536D01*
X997150Y76554D01*
X997099Y76569D01*
X997048Y76576D01*
X997005Y76583D01*
X996965Y76587D01*
X996950D01*
X996943D01*
X996935D01*
X996932D01*
X995749D01*
Y76896D01*
X996808D01*
X996906Y76903D01*
X996990Y76918D01*
X997059Y76936D01*
X997118Y76962D01*
X997161Y76983D01*
X997190Y77005D01*
X997208Y77020D01*
X997216Y77024D01*
X997260Y77074D01*
X997292Y77129D01*
X997314Y77184D01*
X997332Y77235D01*
X997340Y77278D01*
X997343Y77315D01*
X997347Y77329D01*
Y77347D01*
X997343Y77388D01*
X997340Y77420D01*
X997332Y77453D01*
X997321Y77479D01*
X997310Y77504D01*
X997303Y77519D01*
X997299Y77530D01*
X997296Y77533D01*
X997274Y77562D01*
X997252Y77584D01*
X997230Y77602D01*
X997208Y77617D01*
X997190Y77628D01*
X997176Y77635D01*
X997165Y77642D01*
X997161D01*
X997128Y77653D01*
X997085Y77661D01*
X997041Y77664D01*
X996997Y77668D01*
X996957Y77671D01*
X996925D01*
X996903D01*
X996899D01*
X996896D01*
X995749D01*
Y77981D01*
X997001D01*
X997059D01*
X997110Y77974D01*
D02*
G37*
G36*
X997125Y75102D02*
X997183D01*
X997241Y75098D01*
X997292Y75091D01*
X997343Y75087D01*
X997387Y75083D01*
X997427Y75076D01*
X997463Y75072D01*
X997496Y75065D01*
X997522Y75062D01*
X997543Y75058D01*
X997562Y75054D01*
X997573Y75051D01*
X997580Y75047D01*
X997583D01*
X997663Y75025D01*
X997736Y75000D01*
X997798Y74971D01*
X997853Y74949D01*
X997900Y74923D01*
X997933Y74909D01*
X997951Y74894D01*
X997958Y74891D01*
X998013Y74850D01*
X998060Y74810D01*
X998100Y74767D01*
X998137Y74727D01*
X998162Y74690D01*
X998180Y74661D01*
X998191Y74643D01*
X998195Y74639D01*
Y74636D01*
X998224Y74577D01*
X998242Y74516D01*
X998257Y74457D01*
X998268Y74403D01*
X998275Y74355D01*
X998279Y74315D01*
Y74283D01*
X998271Y74184D01*
X998257Y74093D01*
X998231Y74017D01*
X998206Y73951D01*
X998177Y73897D01*
X998166Y73875D01*
X998151Y73857D01*
X998144Y73842D01*
X998137Y73831D01*
X998129Y73828D01*
Y73824D01*
X998071Y73759D01*
X998002Y73704D01*
X997933Y73657D01*
X997867Y73620D01*
X997806Y73591D01*
X997780Y73576D01*
X997754Y73569D01*
X997736Y73562D01*
X997722Y73555D01*
X997715Y73551D01*
X997711D01*
X997656Y73536D01*
X997602Y73522D01*
X997482Y73500D01*
X997361Y73482D01*
X997249Y73471D01*
X997194Y73467D01*
X997147Y73464D01*
X997103D01*
X997063Y73460D01*
X997034D01*
X997008D01*
X996994D01*
X996990D01*
X996863Y73464D01*
X996743Y73471D01*
X996633Y73482D01*
X996531Y73500D01*
X996437Y73518D01*
X996353Y73540D01*
X996277Y73562D01*
X996211Y73584D01*
X996153Y73606D01*
X996102Y73631D01*
X996058Y73649D01*
X996025Y73668D01*
X995996Y73686D01*
X995978Y73697D01*
X995967Y73704D01*
X995964Y73707D01*
X995920Y73748D01*
X995880Y73791D01*
X995844Y73839D01*
X995814Y73886D01*
X995789Y73933D01*
X995767Y73980D01*
X995753Y74028D01*
X995738Y74072D01*
X995727Y74115D01*
X995720Y74155D01*
X995712Y74192D01*
X995709Y74221D01*
X995705Y74246D01*
Y74283D01*
X995712Y74381D01*
X995727Y74472D01*
X995753Y74548D01*
X995778Y74614D01*
X995804Y74669D01*
X995818Y74687D01*
X995829Y74705D01*
X995836Y74719D01*
X995844Y74730D01*
X995851Y74734D01*
Y74738D01*
X995913Y74803D01*
X995978Y74858D01*
X996051Y74905D01*
X996117Y74941D01*
X996178Y74971D01*
X996204Y74985D01*
X996229Y74992D01*
X996248Y75000D01*
X996262Y75007D01*
X996269Y75011D01*
X996273D01*
X996328Y75029D01*
X996382Y75043D01*
X996499Y75065D01*
X996619Y75083D01*
X996735Y75094D01*
X996786Y75098D01*
X996834Y75102D01*
X996877D01*
X996917Y75105D01*
X996946D01*
X996972D01*
X996986D01*
X996990D01*
X997059D01*
X997125Y75102D01*
D02*
G37*
G36*
X998279Y72466D02*
X998217Y72430D01*
X998159Y72390D01*
X998100Y72342D01*
X998049Y72299D01*
X998006Y72255D01*
X997969Y72222D01*
X997958Y72208D01*
X997947Y72197D01*
X997944Y72193D01*
X997940Y72190D01*
X997878Y72113D01*
X997820Y72037D01*
X997769Y71964D01*
X997729Y71891D01*
X997693Y71829D01*
X997678Y71804D01*
X997667Y71782D01*
X997656Y71764D01*
X997653Y71749D01*
X997645Y71742D01*
Y71738D01*
X997347D01*
X997369Y71793D01*
X997394Y71847D01*
X997420Y71902D01*
X997445Y71953D01*
X997467Y71997D01*
X997485Y72033D01*
X997500Y72055D01*
X997503Y72059D01*
Y72062D01*
X997543Y72128D01*
X997583Y72186D01*
X997620Y72237D01*
X997653Y72277D01*
X997678Y72313D01*
X997700Y72335D01*
X997715Y72353D01*
X997718Y72357D01*
X995749D01*
Y72667D01*
X998279D01*
Y72466D01*
D02*
G37*
%LPC*%
G36*
X996658Y35854D02*
X996626D01*
X996607D01*
X996604D01*
X996600D01*
X996487D01*
X996385Y35846D01*
X996294Y35839D01*
X996207Y35832D01*
X996134Y35821D01*
X996065Y35806D01*
X996007Y35792D01*
X995952Y35781D01*
X995909Y35766D01*
X995872Y35752D01*
X995839Y35741D01*
X995814Y35726D01*
X995796Y35719D01*
X995785Y35712D01*
X995778Y35704D01*
X995774D01*
X995737Y35675D01*
X995708Y35646D01*
X995679Y35617D01*
X995657Y35588D01*
X995621Y35526D01*
X995595Y35471D01*
X995581Y35420D01*
X995574Y35384D01*
X995570Y35370D01*
Y35348D01*
X995574Y35308D01*
X995577Y35271D01*
X995603Y35202D01*
X995636Y35140D01*
X995672Y35085D01*
X995708Y35045D01*
X995741Y35013D01*
X995767Y34995D01*
X995770Y34987D01*
X995774D01*
X995817Y34962D01*
X995868Y34940D01*
X995927Y34918D01*
X995989Y34903D01*
X996054Y34889D01*
X996123Y34878D01*
X996265Y34860D01*
X996331Y34853D01*
X996393Y34849D01*
X996451Y34845D01*
X996498D01*
X996542Y34842D01*
X996575D01*
X996593D01*
X996600D01*
X996713Y34845D01*
X996815Y34849D01*
X996910Y34856D01*
X996997Y34867D01*
X997073Y34878D01*
X997143Y34893D01*
X997204Y34907D01*
X997259Y34922D01*
X997306Y34936D01*
X997346Y34947D01*
X997379Y34962D01*
X997408Y34973D01*
X997426Y34984D01*
X997441Y34991D01*
X997448Y34998D01*
X997452D01*
X997485Y35024D01*
X997514Y35049D01*
X997536Y35078D01*
X997557Y35107D01*
X997590Y35166D01*
X997612Y35220D01*
X997623Y35267D01*
X997630Y35308D01*
X997634Y35322D01*
Y35344D01*
X997630Y35384D01*
X997627Y35424D01*
X997616Y35460D01*
X997601Y35493D01*
X997568Y35555D01*
X997532Y35610D01*
X997492Y35650D01*
X997459Y35682D01*
X997445Y35693D01*
X997434Y35701D01*
X997430Y35708D01*
X997426D01*
X997383Y35734D01*
X997332Y35755D01*
X997274Y35777D01*
X997212Y35792D01*
X997146Y35806D01*
X997077Y35817D01*
X996939Y35835D01*
X996869Y35843D01*
X996808Y35846D01*
X996749Y35850D01*
X996702D01*
X996658Y35854D01*
D02*
G37*
G36*
X997048Y74789D02*
X997016D01*
X996997D01*
X996994D01*
X996990D01*
X996877D01*
X996775Y74781D01*
X996684Y74774D01*
X996597Y74767D01*
X996524Y74756D01*
X996455Y74741D01*
X996397Y74727D01*
X996342Y74716D01*
X996299Y74701D01*
X996262Y74687D01*
X996229Y74676D01*
X996204Y74661D01*
X996186Y74654D01*
X996175Y74647D01*
X996167Y74639D01*
X996164D01*
X996127Y74610D01*
X996098Y74581D01*
X996069Y74552D01*
X996047Y74523D01*
X996011Y74461D01*
X995986Y74406D01*
X995971Y74355D01*
X995964Y74319D01*
X995960Y74304D01*
Y74283D01*
X995964Y74243D01*
X995967Y74206D01*
X995993Y74137D01*
X996025Y74075D01*
X996062Y74021D01*
X996098Y73980D01*
X996131Y73948D01*
X996157Y73930D01*
X996160Y73922D01*
X996164D01*
X996208Y73897D01*
X996259Y73875D01*
X996317Y73853D01*
X996379Y73839D01*
X996444Y73824D01*
X996513Y73813D01*
X996655Y73795D01*
X996721Y73788D01*
X996783Y73784D01*
X996841Y73780D01*
X996888D01*
X996932Y73777D01*
X996965D01*
X996983D01*
X996990D01*
X997103Y73780D01*
X997205Y73784D01*
X997299Y73791D01*
X997387Y73802D01*
X997463Y73813D01*
X997532Y73828D01*
X997594Y73842D01*
X997649Y73857D01*
X997696Y73871D01*
X997736Y73882D01*
X997769Y73897D01*
X997798Y73908D01*
X997816Y73919D01*
X997831Y73926D01*
X997838Y73933D01*
X997842D01*
X997875Y73959D01*
X997904Y73984D01*
X997926Y74013D01*
X997947Y74042D01*
X997980Y74101D01*
X998002Y74155D01*
X998013Y74203D01*
X998020Y74243D01*
X998024Y74257D01*
Y74279D01*
X998020Y74319D01*
X998017Y74359D01*
X998006Y74396D01*
X997991Y74428D01*
X997958Y74490D01*
X997922Y74545D01*
X997882Y74585D01*
X997849Y74617D01*
X997835Y74628D01*
X997824Y74636D01*
X997820Y74643D01*
X997816D01*
X997773Y74669D01*
X997722Y74690D01*
X997663Y74712D01*
X997602Y74727D01*
X997536Y74741D01*
X997467Y74752D01*
X997329Y74770D01*
X997260Y74778D01*
X997198Y74781D01*
X997139Y74785D01*
X997092D01*
X997048Y74789D01*
D02*
G37*
%LPD*%
D17*
X967330Y30198D02*
X966542D01*
X967330D01*
Y51497D02*
X966542D01*
X967330D01*
X845520Y351988D02*
X844732D01*
X845520D01*
X720108Y200826D02*
X719320D01*
X720108D01*
X798214Y195326D02*
X797464Y195759D01*
Y194893D01*
X798214Y195326D01*
X964886Y15248D02*
Y35248D01*
X704886Y15248D02*
Y35248D01*
X964886D01*
X704886Y15248D02*
X964886D01*
X704886Y36547D02*
X964886D01*
X704886Y56547D02*
X964886D01*
X704886Y36547D02*
Y56547D01*
X964886Y36547D02*
Y56547D01*
D18*
X814909Y178397D02*
Y180455D01*
X809319Y178397D02*
Y180455D01*
X809214Y217405D02*
X816891D01*
X801537D02*
X809214D01*
Y197247D02*
X816891D01*
X795631D02*
X809214D01*
X919656Y189322D02*
Y190604D01*
X923672Y189322D02*
Y190604D01*
X928406Y189311D02*
Y190593D01*
X932422Y189311D02*
Y190593D01*
X844859Y157492D02*
X846141D01*
X844859Y161508D02*
X846141D01*
X860450Y172999D02*
X861731D01*
X860450Y177015D02*
X861731D01*
X862759Y193992D02*
X864040D01*
X862759Y198008D02*
X864040D01*
X830073Y202818D02*
X831355D01*
X830073Y206834D02*
X831355D01*
X860456Y166497D02*
X861738D01*
X860456Y170513D02*
X861738D01*
X808573Y188318D02*
X809855D01*
X808573Y192334D02*
X809855D01*
X831508Y213859D02*
Y215141D01*
X827492Y213859D02*
Y215141D01*
X912706Y189322D02*
Y190604D01*
X916722Y189322D02*
Y190604D01*
D19*
X835874Y373839D02*
X865008D01*
Y372776D02*
Y373839D01*
X835874Y372776D02*
Y373839D01*
X864299Y356909D02*
X865008D01*
X835874D02*
X836583D01*
X865008D02*
Y363819D01*
X835874Y356909D02*
Y363819D01*
X781190Y170472D02*
Y192913D01*
X722332Y157991D02*
X726052D01*
X722332D02*
Y213661D01*
X726052D01*
D20*
X1003560Y70430D02*
X1007500D01*
X1003560Y66500D02*
X1007500D01*
X1003560Y62560D02*
X1007500D01*
X1003560Y58620D02*
X1007500D01*
X1003560Y50750D02*
X1007500D01*
X1003560Y46810D02*
X1007500D01*
X1003560Y42870D02*
X1007500D01*
X1003560Y38940D02*
X1007500D01*
X999630Y54690D02*
X1007500D01*
X999630Y35000D02*
X1007500D01*
Y74370D01*
X999630D02*
X1007500D01*
D21*
X717376Y217936D02*
X718688D01*
X718032D01*
Y214656D01*
X718688Y214000D01*
X719344D01*
X720000Y214656D01*
X716064Y214000D02*
X714752D01*
X715408D01*
Y217936D01*
X716064Y217280D01*
X912720Y179376D02*
X912064Y180032D01*
Y181344D01*
X912720Y182000D01*
X915344D01*
X916000Y181344D01*
Y180032D01*
X915344Y179376D01*
Y178064D02*
X916000Y177408D01*
Y176096D01*
X915344Y175440D01*
X912720D01*
X912064Y176096D01*
Y177408D01*
X912720Y178064D01*
X913376D01*
X914032Y177408D01*
Y175440D01*
X834011Y211454D02*
X837947D01*
Y213422D01*
X837290Y214078D01*
X835979D01*
X835323Y213422D01*
Y211454D01*
Y212766D02*
X834011Y214078D01*
X837947Y215390D02*
Y218014D01*
X837290D01*
X834667Y215390D01*
X834011D01*
X821338Y191602D02*
X821994Y192258D01*
X823306D01*
X823962Y191602D01*
Y188978D01*
X823306Y188322D01*
X821994D01*
X821338Y188978D01*
X818058Y188322D02*
Y192258D01*
X820026Y190290D01*
X817402D01*
X873865Y170014D02*
X874521Y170670D01*
X875833D01*
X876489Y170014D01*
Y167390D01*
X875833Y166734D01*
X874521D01*
X873865Y167390D01*
X872553Y166734D02*
X871241D01*
X871897D01*
Y170670D01*
X872553Y170014D01*
X869273Y166734D02*
X867961D01*
X868617D01*
Y170670D01*
X869273Y170014D01*
X844876Y206280D02*
X845532Y206936D01*
X846844D01*
X847500Y206280D01*
Y203656D01*
X846844Y203000D01*
X845532D01*
X844876Y203656D01*
X843564Y203000D02*
X842252D01*
X842908D01*
Y206936D01*
X843564Y206280D01*
X840285D02*
X839629Y206936D01*
X838317D01*
X837661Y206280D01*
Y205624D01*
X838317Y204968D01*
X838973D01*
X838317D01*
X837661Y204312D01*
Y203656D01*
X838317Y203000D01*
X839629D01*
X840285Y203656D01*
X865876Y203280D02*
X866532Y203936D01*
X867844D01*
X868500Y203280D01*
Y200656D01*
X867844Y200000D01*
X866532D01*
X865876Y200656D01*
X864564Y200000D02*
X863252D01*
X863908D01*
Y203936D01*
X864564Y203280D01*
X858661Y203936D02*
X861285D01*
Y201968D01*
X859973Y202624D01*
X859317D01*
X858661Y201968D01*
Y200656D01*
X859317Y200000D01*
X860629D01*
X861285Y200656D01*
X875389Y176596D02*
X876044Y177252D01*
X877356D01*
X878012Y176596D01*
Y173972D01*
X877356Y173316D01*
X876044D01*
X875389Y173972D01*
X874077Y173316D02*
X872765D01*
X873421D01*
Y177252D01*
X874077Y176596D01*
X868173Y177252D02*
X869485Y176596D01*
X870797Y175284D01*
Y173972D01*
X870141Y173316D01*
X868829D01*
X868173Y173972D01*
Y174628D01*
X868829Y175284D01*
X870797D01*
X847511Y154280D02*
X848167Y154936D01*
X849479D01*
X850135Y154280D01*
Y151656D01*
X849479Y151000D01*
X848167D01*
X847511Y151656D01*
X846199Y151000D02*
X844887D01*
X845543D01*
Y154936D01*
X846199Y154280D01*
X842920D02*
X842264Y154936D01*
X840952D01*
X840296Y154280D01*
Y151656D01*
X840952Y151000D01*
X842264D01*
X842920Y151656D01*
Y154280D01*
X812000Y222936D02*
Y219656D01*
X811344Y219000D01*
X810032D01*
X809376Y219656D01*
Y222936D01*
X808064Y219000D02*
X806752D01*
X807408D01*
Y222936D01*
X808064Y222280D01*
X871376Y360936D02*
X872688D01*
X872032D01*
Y357656D01*
X872688Y357000D01*
X873344D01*
X874000Y357656D01*
X867440Y360936D02*
X870064D01*
Y358968D01*
X868752Y359624D01*
X868096D01*
X867440Y358968D01*
Y357656D01*
X868096Y357000D01*
X869408D01*
X870064Y357656D01*
X698564Y47376D02*
Y48688D01*
Y48032D01*
X701844D01*
X702500Y48688D01*
Y49344D01*
X701844Y50000D01*
X702500Y44096D02*
X698564D01*
X700532Y46064D01*
Y43440D01*
X698564Y32376D02*
Y33688D01*
Y33032D01*
X701844D01*
X702500Y33688D01*
Y34344D01*
X701844Y35000D01*
X699220Y31064D02*
X698564Y30408D01*
Y29096D01*
X699220Y28440D01*
X699876D01*
X700532Y29096D01*
Y29752D01*
Y29096D01*
X701188Y28440D01*
X701844D01*
X702500Y29096D01*
Y30408D01*
X701844Y31064D01*
X932000Y182000D02*
X928064D01*
Y180032D01*
X928720Y179376D01*
X930032D01*
X930688Y180032D01*
Y182000D01*
Y180688D02*
X932000Y179376D01*
Y178064D02*
Y176752D01*
Y177408D01*
X928064D01*
X928720Y178064D01*
X923000Y182000D02*
X919064D01*
Y180032D01*
X919720Y179376D01*
X921032D01*
X921688Y180032D01*
Y182000D01*
Y180688D02*
X923000Y179376D01*
Y175440D02*
Y178064D01*
X920376Y175440D01*
X919720D01*
X919064Y176096D01*
Y177408D01*
X919720Y178064D01*
X802128Y182897D02*
X806064D01*
Y180273D01*
Y178961D02*
Y177649D01*
Y178305D01*
X802128D01*
X802784Y178961D01*
M02*
