G04*
G04 #@! TF.GenerationSoftware,Altium Limited,Altium Designer,22.6.1 (34)*
G04*
G04 Layer_Color=16711935*
%FSLAX25Y25*%
%MOIN*%
G70*
G04*
G04 #@! TF.SameCoordinates,44BA9B1E-1016-45A4-B772-E771DC22F3FE*
G04*
G04*
G04 #@! TF.FilePolarity,Positive*
G04*
G01*
G75*
%ADD20C,0.00591*%
D20*
X665238Y378676D02*
X664210Y378609D01*
X663200Y378408D01*
X662224Y378077D01*
X661301Y377621D01*
X660444Y377049D01*
X659670Y376370D01*
X658991Y375595D01*
X658419Y374739D01*
X657963Y373815D01*
X657632Y372840D01*
X657431Y371830D01*
X657364Y370802D01*
X1012364D02*
X1012296Y371830D01*
X1012096Y372840D01*
X1011764Y373815D01*
X1011309Y374739D01*
X1010737Y375595D01*
X1010058Y376370D01*
X1009283Y377049D01*
X1008427Y377621D01*
X1007503Y378077D01*
X1006528Y378408D01*
X1005517Y378609D01*
X1004490Y378676D01*
Y1176D02*
X1005517Y1243D01*
X1006528Y1444D01*
X1007503Y1775D01*
X1008427Y2231D01*
X1009283Y2803D01*
X1010058Y3482D01*
X1010737Y4257D01*
X1011309Y5113D01*
X1011764Y6037D01*
X1012096Y7012D01*
X1012296Y8022D01*
X1012364Y9050D01*
X657364D02*
X657431Y8022D01*
X657632Y7012D01*
X657963Y6037D01*
X658419Y5113D01*
X658991Y4257D01*
X659670Y3482D01*
X660444Y2803D01*
X661301Y2231D01*
X662224Y1775D01*
X663200Y1444D01*
X664210Y1243D01*
X665238Y1176D01*
Y378676D02*
X664210Y378609D01*
X663200Y378408D01*
X662224Y378077D01*
X661301Y377621D01*
X660444Y377049D01*
X659670Y376370D01*
X658991Y375595D01*
X658419Y374739D01*
X657963Y373815D01*
X657632Y372840D01*
X657431Y371830D01*
X657364Y370802D01*
X1012364D02*
X1012296Y371830D01*
X1012096Y372840D01*
X1011764Y373815D01*
X1011309Y374739D01*
X1010737Y375595D01*
X1010058Y376370D01*
X1009283Y377049D01*
X1008427Y377621D01*
X1007503Y378077D01*
X1006528Y378408D01*
X1005517Y378609D01*
X1004490Y378676D01*
Y1176D02*
X1005517Y1243D01*
X1006528Y1444D01*
X1007503Y1775D01*
X1008427Y2231D01*
X1009283Y2803D01*
X1010058Y3482D01*
X1010737Y4257D01*
X1011309Y5113D01*
X1011764Y6037D01*
X1012096Y7012D01*
X1012296Y8022D01*
X1012364Y9050D01*
X657364D02*
X657431Y8022D01*
X657632Y7012D01*
X657963Y6037D01*
X658419Y5113D01*
X658991Y4257D01*
X659670Y3482D01*
X660444Y2803D01*
X661301Y2231D01*
X662224Y1775D01*
X663200Y1444D01*
X664210Y1243D01*
X665238Y1176D01*
Y378676D02*
X825061D01*
X830100Y375137D01*
X872600D01*
X877600Y378637D01*
X1004490Y378676D01*
X1012364Y9050D02*
Y370802D01*
X665238Y1176D02*
X1004490D01*
X657364Y9050D02*
Y370802D01*
X665238Y378676D02*
X825061D01*
X830100Y375137D01*
X872600D01*
X877600Y378637D01*
X1004490Y378676D01*
X1012364Y9050D02*
Y370802D01*
X665238Y1176D02*
X1004490D01*
X657364Y9050D02*
Y370802D01*
M02*
