G04*
G04 #@! TF.GenerationSoftware,Altium Limited,Altium Designer,22.6.1 (34)*
G04*
G04 Layer_Color=32896*
%FSLAX25Y25*%
%MOIN*%
G70*
G04*
G04 #@! TF.SameCoordinates,44BA9B1E-1016-45A4-B772-E771DC22F3FE*
G04*
G04*
G04 #@! TF.FilePolarity,Positive*
G04*
G01*
G75*
%ADD11C,0.00000*%
%ADD12C,0.01968*%
%ADD13C,0.00394*%
%ADD16C,0.00600*%
%ADD134C,0.00197*%
%ADD135C,0.00781*%
D11*
X770900Y91800D02*
X771748Y92151D01*
X772100Y93000D01*
X771748Y93849D01*
X770900Y94200D01*
Y91800D02*
X771748Y92151D01*
X772100Y93000D01*
X771748Y93849D01*
X770900Y94200D01*
D12*
X985000Y133000D02*
X1006500D01*
Y184500D01*
X985000D02*
X1006500D01*
X985000Y133000D02*
Y184500D01*
D13*
X912466Y176885D02*
Y198538D01*
X893962Y176885D02*
X912466D01*
X893962D02*
Y198538D01*
X912466D01*
D16*
X794700Y77000D02*
X796200D01*
Y78000D01*
X794700D02*
X796200D01*
X781900Y109000D02*
X783400D01*
Y108000D02*
Y109000D01*
X781900Y108000D02*
X783400D01*
X771800Y84200D02*
X773000D01*
X771800Y80400D02*
Y84200D01*
Y80400D02*
X773000D01*
Y84200D01*
X774400D02*
X775600D01*
X774400Y80400D02*
Y84200D01*
Y80400D02*
X775600D01*
Y84200D01*
X776900D02*
X778100D01*
X776900Y80400D02*
Y84200D01*
Y80400D02*
X778100D01*
Y84200D01*
X779500D02*
X780700D01*
X779500Y80400D02*
Y84200D01*
Y80400D02*
X780700D01*
Y84200D01*
X782100D02*
X783300D01*
X782100Y80400D02*
Y84200D01*
Y80400D02*
X783300D01*
Y84200D01*
X784600D02*
X785800D01*
X784600Y80400D02*
Y84200D01*
Y80400D02*
X785800D01*
Y84200D01*
X787200D02*
X788400D01*
X787200Y80400D02*
Y84200D01*
Y80400D02*
X788400D01*
Y84200D01*
X789700D02*
X790900D01*
X789700Y80400D02*
Y84200D01*
Y80400D02*
X790900D01*
Y84200D01*
X792300D02*
X793500D01*
X792300Y80400D02*
Y84200D01*
Y80400D02*
X793500D01*
Y84200D01*
X794900D02*
X796100D01*
X794900Y80400D02*
Y84200D01*
Y80400D02*
X796100D01*
Y84200D01*
X797400D02*
X798600D01*
X797400Y80400D02*
Y84200D01*
Y80400D02*
X798600D01*
Y84200D01*
X800000D02*
X801200D01*
X800000Y80400D02*
Y84200D01*
Y80400D02*
X801200D01*
Y84200D01*
X800000Y101800D02*
X801200D01*
Y105600D01*
X800000D02*
X801200D01*
X800000Y101800D02*
Y105600D01*
X797400Y101800D02*
X798600D01*
Y105600D01*
X797400D02*
X798600D01*
X797400Y101800D02*
Y105600D01*
X794900Y101800D02*
X796100D01*
Y105600D01*
X794900D02*
X796100D01*
X794900Y101800D02*
Y105600D01*
X792300Y101800D02*
X793500D01*
Y105600D01*
X792300D02*
X793500D01*
X792300Y101800D02*
Y105600D01*
X789700Y101800D02*
X790900D01*
Y105600D01*
X789700D02*
X790900D01*
X789700Y101800D02*
Y105600D01*
X787200Y101800D02*
X788400D01*
Y105600D01*
X787200D02*
X788400D01*
X787200Y101800D02*
Y105600D01*
X784600Y101800D02*
X785800D01*
Y105600D01*
X784600D02*
X785800D01*
X784600Y101800D02*
Y105600D01*
X782100Y101800D02*
X783300D01*
Y105600D01*
X782100D02*
X783300D01*
X782100Y101800D02*
Y105600D01*
X779500Y101800D02*
X780700D01*
Y105600D01*
X779500D02*
X780700D01*
X779500Y101800D02*
Y105600D01*
X776900Y101800D02*
X778100D01*
Y105600D01*
X776900D02*
X778100D01*
X776900Y101800D02*
Y105600D01*
X774400Y101800D02*
X775600D01*
Y105600D01*
X774400D02*
X775600D01*
X774400Y101800D02*
Y105600D01*
X771800Y101800D02*
X773000D01*
Y105600D01*
X771800D02*
X773000D01*
X771800Y101800D02*
Y105600D01*
X802100Y84200D02*
Y101800D01*
X770900D02*
X802100D01*
X770900Y94200D02*
Y101800D01*
Y91800D02*
Y94200D01*
Y84200D02*
Y91800D01*
Y84200D02*
X802100D01*
X794700Y77000D02*
X796200D01*
Y78000D01*
X794700D02*
X796200D01*
X781900Y109000D02*
X783400D01*
Y108000D02*
Y109000D01*
X781900Y108000D02*
X783400D01*
X771800Y84200D02*
X773000D01*
X771800Y80400D02*
Y84200D01*
Y80400D02*
X773000D01*
Y84200D01*
X774400D02*
X775600D01*
X774400Y80400D02*
Y84200D01*
Y80400D02*
X775600D01*
Y84200D01*
X776900D02*
X778100D01*
X776900Y80400D02*
Y84200D01*
Y80400D02*
X778100D01*
Y84200D01*
X779500D02*
X780700D01*
X779500Y80400D02*
Y84200D01*
Y80400D02*
X780700D01*
Y84200D01*
X782100D02*
X783300D01*
X782100Y80400D02*
Y84200D01*
Y80400D02*
X783300D01*
Y84200D01*
X784600D02*
X785800D01*
X784600Y80400D02*
Y84200D01*
Y80400D02*
X785800D01*
Y84200D01*
X787200D02*
X788400D01*
X787200Y80400D02*
Y84200D01*
Y80400D02*
X788400D01*
Y84200D01*
X789700D02*
X790900D01*
X789700Y80400D02*
Y84200D01*
Y80400D02*
X790900D01*
Y84200D01*
X792300D02*
X793500D01*
X792300Y80400D02*
Y84200D01*
Y80400D02*
X793500D01*
Y84200D01*
X794900D02*
X796100D01*
X794900Y80400D02*
Y84200D01*
Y80400D02*
X796100D01*
Y84200D01*
X797400D02*
X798600D01*
X797400Y80400D02*
Y84200D01*
Y80400D02*
X798600D01*
Y84200D01*
X800000D02*
X801200D01*
X800000Y80400D02*
Y84200D01*
Y80400D02*
X801200D01*
Y84200D01*
X800000Y101800D02*
X801200D01*
Y105600D01*
X800000D02*
X801200D01*
X800000Y101800D02*
Y105600D01*
X797400Y101800D02*
X798600D01*
Y105600D01*
X797400D02*
X798600D01*
X797400Y101800D02*
Y105600D01*
X794900Y101800D02*
X796100D01*
Y105600D01*
X794900D02*
X796100D01*
X794900Y101800D02*
Y105600D01*
X792300Y101800D02*
X793500D01*
Y105600D01*
X792300D02*
X793500D01*
X792300Y101800D02*
Y105600D01*
X789700Y101800D02*
X790900D01*
Y105600D01*
X789700D02*
X790900D01*
X789700Y101800D02*
Y105600D01*
X787200Y101800D02*
X788400D01*
Y105600D01*
X787200D02*
X788400D01*
X787200Y101800D02*
Y105600D01*
X784600Y101800D02*
X785800D01*
Y105600D01*
X784600D02*
X785800D01*
X784600Y101800D02*
Y105600D01*
X782100Y101800D02*
X783300D01*
Y105600D01*
X782100D02*
X783300D01*
X782100Y101800D02*
Y105600D01*
X779500Y101800D02*
X780700D01*
Y105600D01*
X779500D02*
X780700D01*
X779500Y101800D02*
Y105600D01*
X776900Y101800D02*
X778100D01*
Y105600D01*
X776900D02*
X778100D01*
X776900Y101800D02*
Y105600D01*
X774400Y101800D02*
X775600D01*
Y105600D01*
X774400D02*
X775600D01*
X774400Y101800D02*
Y105600D01*
X771800Y101800D02*
X773000D01*
Y105600D01*
X771800D02*
X773000D01*
X771800Y101800D02*
Y105600D01*
X802100Y84200D02*
Y101800D01*
X770900D02*
X802100D01*
X770900Y94200D02*
Y101800D01*
Y91800D02*
Y94200D01*
Y84200D02*
Y91800D01*
Y84200D02*
X802100D01*
D134*
X689412Y358575D02*
X689370Y359580D01*
X689244Y360577D01*
X689035Y361561D01*
X688744Y362524D01*
X688374Y363459D01*
X687926Y364360D01*
X687405Y365220D01*
X686814Y366034D01*
X686157Y366795D01*
X685439Y367498D01*
X684664Y368139D01*
X683838Y368713D01*
X682967Y369216D01*
X682057Y369644D01*
X681114Y369995D01*
X680146Y370265D01*
X679158Y370454D01*
X678158Y370559D01*
X677152Y370580D01*
X676149Y370517D01*
X675154Y370370D01*
X674175Y370140D01*
X673218Y369830D01*
X672291Y369440D01*
X671400Y368974D01*
X670551Y368435D01*
X669750Y367827D01*
X669002Y367154D01*
X668314Y366421D01*
X667689Y365633D01*
X667133Y364795D01*
X666648Y363914D01*
X666239Y362995D01*
X665908Y362045D01*
X665658Y361071D01*
X665491Y360080D01*
X665407Y359078D01*
Y358072D01*
X665491Y357070D01*
X665658Y356078D01*
X665908Y355104D01*
X666239Y354154D01*
X666648Y353236D01*
X667133Y352354D01*
X667689Y351517D01*
X668314Y350729D01*
X669002Y349995D01*
X669750Y349323D01*
X670551Y348714D01*
X671400Y348176D01*
X672291Y347710D01*
X673218Y347320D01*
X674175Y347009D01*
X675154Y346780D01*
X676149Y346633D01*
X677152Y346570D01*
X678158Y346591D01*
X679158Y346696D01*
X680146Y346884D01*
X681114Y347155D01*
X682057Y347505D01*
X682967Y347933D01*
X683838Y348436D01*
X684664Y349010D01*
X685439Y349651D01*
X686157Y350355D01*
X686814Y351116D01*
X687405Y351930D01*
X687926Y352790D01*
X688374Y353691D01*
X688744Y354626D01*
X689035Y355589D01*
X689244Y356572D01*
X689370Y357570D01*
X689412Y358575D01*
X1004370Y358579D02*
X1004328Y359583D01*
X1004202Y360581D01*
X1003993Y361565D01*
X1003702Y362528D01*
X1003332Y363463D01*
X1002885Y364364D01*
X1002364Y365224D01*
X1001773Y366037D01*
X1001116Y366799D01*
X1000397Y367502D01*
X999622Y368143D01*
X998796Y368717D01*
X997925Y369220D01*
X997015Y369648D01*
X996073Y369999D01*
X995104Y370269D01*
X994116Y370458D01*
X993116Y370563D01*
X992111Y370584D01*
X991107Y370521D01*
X990112Y370374D01*
X989133Y370144D01*
X988177Y369833D01*
X987249Y369444D01*
X986358Y368978D01*
X985509Y368439D01*
X984708Y367831D01*
X983961Y367158D01*
X983272Y366425D01*
X982648Y365637D01*
X982091Y364799D01*
X981607Y363918D01*
X981198Y362999D01*
X980867Y362049D01*
X980617Y361075D01*
X980449Y360084D01*
X980365Y359082D01*
Y358076D01*
X980449Y357074D01*
X980617Y356082D01*
X980867Y355108D01*
X981198Y354158D01*
X981607Y353240D01*
X982091Y352358D01*
X982648Y351521D01*
X983272Y350732D01*
X983961Y349999D01*
X984708Y349326D01*
X985509Y348719D01*
X986358Y348180D01*
X987249Y347714D01*
X988177Y347324D01*
X989133Y347013D01*
X990112Y346784D01*
X991107Y346637D01*
X992111Y346573D01*
X993116Y346595D01*
X994116Y346700D01*
X995104Y346888D01*
X996073Y347159D01*
X997015Y347509D01*
X997925Y347937D01*
X998796Y348440D01*
X999622Y349014D01*
X1000397Y349655D01*
X1001116Y350359D01*
X1001773Y351120D01*
X1002364Y351934D01*
X1002885Y352794D01*
X1003332Y353695D01*
X1003702Y354630D01*
X1003993Y355592D01*
X1004202Y356576D01*
X1004328Y357574D01*
X1004370Y358579D01*
X701813Y21175D02*
X701771Y22180D01*
X701645Y23178D01*
X701436Y24161D01*
X701145Y25124D01*
X700775Y26059D01*
X700328Y26960D01*
X699807Y27820D01*
X699216Y28634D01*
X698559Y29395D01*
X697840Y30099D01*
X697065Y30740D01*
X696240Y31314D01*
X695369Y31817D01*
X694459Y32245D01*
X693516Y32595D01*
X692548Y32866D01*
X691560Y33054D01*
X690559Y33159D01*
X689554Y33180D01*
X688550Y33117D01*
X687555Y32970D01*
X686576Y32741D01*
X685620Y32430D01*
X684693Y32040D01*
X683802Y31574D01*
X682952Y31035D01*
X682151Y30427D01*
X681404Y29754D01*
X680716Y29021D01*
X680091Y28233D01*
X679534Y27395D01*
X679050Y26514D01*
X678641Y25596D01*
X678310Y24646D01*
X678060Y23672D01*
X677892Y22680D01*
X677808Y21678D01*
Y20672D01*
X677892Y19670D01*
X678060Y18678D01*
X678310Y17705D01*
X678641Y16755D01*
X679050Y15836D01*
X679534Y14955D01*
X680091Y14117D01*
X680716Y13329D01*
X681404Y12596D01*
X682151Y11923D01*
X682952Y11315D01*
X683802Y10776D01*
X684693Y10310D01*
X685620Y9920D01*
X686576Y9610D01*
X687555Y9380D01*
X688550Y9233D01*
X689554Y9170D01*
X690559Y9191D01*
X691560Y9296D01*
X692548Y9484D01*
X693516Y9755D01*
X694459Y10106D01*
X695369Y10534D01*
X696240Y11037D01*
X697065Y11610D01*
X697840Y12252D01*
X698559Y12955D01*
X699216Y13716D01*
X699807Y14530D01*
X700328Y15390D01*
X700775Y16291D01*
X701145Y17226D01*
X701436Y18189D01*
X701645Y19173D01*
X701771Y20170D01*
X701813Y21175D01*
X991972Y21174D02*
X991930Y22179D01*
X991804Y23177D01*
X991595Y24160D01*
X991304Y25123D01*
X990934Y26058D01*
X990487Y26959D01*
X989966Y27819D01*
X989375Y28633D01*
X988718Y29394D01*
X987999Y30098D01*
X987224Y30739D01*
X986399Y31313D01*
X985528Y31816D01*
X984618Y32244D01*
X983675Y32594D01*
X982707Y32865D01*
X981719Y33053D01*
X980719Y33158D01*
X979713Y33180D01*
X978709Y33116D01*
X977715Y32969D01*
X976735Y32740D01*
X975779Y32429D01*
X974852Y32039D01*
X973961Y31573D01*
X973112Y31034D01*
X972310Y30426D01*
X971563Y29754D01*
X970875Y29021D01*
X970250Y28232D01*
X969693Y27395D01*
X969209Y26513D01*
X968800Y25595D01*
X968469Y24645D01*
X968219Y23671D01*
X968051Y22679D01*
X967967Y21677D01*
Y20671D01*
X968051Y19669D01*
X968219Y18678D01*
X968469Y17704D01*
X968800Y16754D01*
X969209Y15835D01*
X969693Y14954D01*
X970250Y14116D01*
X970875Y13328D01*
X971563Y12595D01*
X972311Y11922D01*
X973112Y11314D01*
X973961Y10775D01*
X974852Y10309D01*
X975779Y9920D01*
X976735Y9609D01*
X977715Y9379D01*
X978709Y9232D01*
X979713Y9169D01*
X980719Y9190D01*
X981719Y9295D01*
X982707Y9484D01*
X983675Y9754D01*
X984618Y10105D01*
X985528Y10533D01*
X986399Y11036D01*
X987224Y11610D01*
X987999Y12251D01*
X988718Y12954D01*
X989375Y13716D01*
X989966Y14529D01*
X990487Y15389D01*
X990934Y16290D01*
X991304Y17225D01*
X991595Y18188D01*
X991804Y19172D01*
X991930Y20169D01*
X991972Y21174D01*
X665295Y239583D02*
X692067D01*
X665295Y202417D02*
Y239583D01*
Y202417D02*
X692067D01*
Y239583D01*
X822298Y131412D02*
Y147160D01*
X831353Y131412D02*
Y147160D01*
X822298Y131412D02*
X831353D01*
X822298Y147160D02*
X831353D01*
X817797Y343499D02*
Y365153D01*
X790631D02*
X817797D01*
X790631Y343499D02*
Y365153D01*
Y343499D02*
X817797D01*
X958126Y269827D02*
X963874D01*
Y258173D02*
Y269827D01*
X958126Y258173D02*
X963874D01*
X958126D02*
Y269827D01*
X912790Y195790D02*
X918538D01*
Y184136D02*
Y195790D01*
X912790Y184136D02*
X918538D01*
X912790D02*
Y195790D01*
X791126Y317276D02*
Y328930D01*
Y317276D02*
X796874D01*
Y328930D01*
X791126D02*
X796874D01*
X692067Y164245D02*
Y201411D01*
X665295Y164245D02*
X692067D01*
X665295D02*
Y201411D01*
X692067D01*
X881173Y196126D02*
Y201874D01*
X892827D01*
Y196126D02*
Y201874D01*
X881173Y196126D02*
X892827D01*
X881387Y188676D02*
X893041D01*
X881387Y182928D02*
Y188676D01*
Y182928D02*
X893041D01*
Y188676D01*
X828374Y349551D02*
Y361205D01*
X822626D02*
X828374D01*
X822626Y349551D02*
Y361205D01*
Y349551D02*
X828374D01*
X918790Y184136D02*
Y195790D01*
X924538D01*
Y184136D02*
Y195790D01*
X918790Y184136D02*
X924538D01*
X927540Y184125D02*
Y195779D01*
X933288D01*
Y184125D02*
Y195779D01*
X927540Y184125D02*
X933288D01*
X728299Y194409D02*
X734047D01*
Y182755D02*
Y194409D01*
X728299Y182755D02*
X734047D01*
X728299D02*
Y194409D01*
X881387Y182176D02*
X893041D01*
X881387Y176428D02*
Y182176D01*
Y176428D02*
X893041D01*
Y182176D01*
X803148Y200363D02*
X814801D01*
X803148Y194615D02*
Y200363D01*
Y194615D02*
X814801D01*
Y200363D01*
X881273Y189428D02*
X892927D01*
Y195176D01*
X881273D02*
X892927D01*
X881273Y189428D02*
Y195176D01*
X915340Y163786D02*
Y175440D01*
Y163786D02*
X921088D01*
Y175440D01*
X915340D02*
X921088D01*
X839673Y156626D02*
X851327D01*
X839673D02*
Y162374D01*
X851327D01*
Y156626D02*
Y162374D01*
X919450Y184152D02*
Y195806D01*
Y184152D02*
X925198D01*
Y195806D01*
X919450D02*
X925198D01*
X801387Y156700D02*
X813041D01*
X801387Y150952D02*
Y156700D01*
Y150952D02*
X813041D01*
Y156700D01*
X803387Y187452D02*
X815040D01*
Y193200D01*
X803387D02*
X815040D01*
X803387Y187452D02*
Y193200D01*
X855264Y172133D02*
X866917D01*
X855264D02*
Y177881D01*
X866917D01*
Y172133D02*
Y177881D01*
X803387Y178200D02*
X815040D01*
X803387Y172452D02*
Y178200D01*
Y172452D02*
X815040D01*
Y178200D01*
X857573Y193126D02*
X869226D01*
X857573D02*
Y198874D01*
X869226D01*
Y193126D02*
Y198874D01*
X803387Y178452D02*
X815040D01*
Y184200D01*
X803387D02*
X815040D01*
X803387Y178452D02*
Y184200D01*
X824887Y201952D02*
X836541D01*
X824887D02*
Y207700D01*
X836541D01*
Y201952D02*
Y207700D01*
X855270Y165631D02*
X866924D01*
X855270D02*
Y171379D01*
X866924D01*
Y165631D02*
Y171379D01*
X803387Y187452D02*
X815040D01*
X803387D02*
Y193200D01*
X815040D01*
Y187452D02*
Y193200D01*
X816452Y125459D02*
Y137113D01*
Y125459D02*
X822200D01*
Y137113D01*
X816452D02*
X822200D01*
Y141459D02*
Y153113D01*
X816452D02*
X822200D01*
X816452Y141459D02*
Y153113D01*
Y141459D02*
X822200D01*
X832374Y208673D02*
Y220327D01*
X826626Y208673D02*
X832374D01*
X826626D02*
Y220327D01*
X832374D01*
X926181Y272262D02*
X937835D01*
X926181Y266514D02*
Y272262D01*
Y266514D02*
X937835D01*
Y272262D01*
X688673Y265874D02*
X700327D01*
X688673Y260126D02*
Y265874D01*
Y260126D02*
X700327D01*
Y265874D01*
X968887Y263452D02*
X980541D01*
Y269200D01*
X968887D02*
X980541D01*
X968887Y263452D02*
Y269200D01*
X958226Y270810D02*
Y282463D01*
Y270810D02*
X963974D01*
Y282463D01*
X958226D02*
X963974D01*
X683716Y251078D02*
Y262731D01*
X677968D02*
X683716D01*
X677968Y251078D02*
Y262731D01*
Y251078D02*
X683716D01*
X668368D02*
Y262731D01*
Y251078D02*
X674116D01*
Y262731D01*
X668368D02*
X674116D01*
X911840Y184136D02*
Y195790D01*
X917588D01*
Y184136D02*
Y195790D01*
X911840Y184136D02*
X917588D01*
X665295Y163239D02*
X692067D01*
X665295Y126073D02*
Y163239D01*
Y126073D02*
X692067D01*
Y163239D01*
X665295Y86895D02*
X692067D01*
X665295Y49729D02*
Y86895D01*
Y49729D02*
X692067D01*
Y86895D01*
X665295Y125067D02*
X692067D01*
X665295Y87901D02*
Y125067D01*
Y87901D02*
X692067D01*
Y125067D01*
D135*
X765083Y80337D02*
X769300D01*
X766137Y78580D02*
X768246Y82094D01*
X766137D02*
X768246Y78580D01*
X765083Y80337D02*
X769300D01*
X766137Y78580D02*
X768246Y82094D01*
X766137D02*
X768246Y78580D01*
M02*
