%TF.GenerationSoftware,KiCad,Pcbnew,(5.1.9-0-10_14)*%
%TF.CreationDate,2021-08-19T21:49:59-05:00*%
%TF.ProjectId,OwlSat_Z_Panel,4f776c53-6174-45f5-9a5f-50616e656c2e,rev?*%
%TF.SameCoordinates,Original*%
%TF.FileFunction,Legend,Bot*%
%TF.FilePolarity,Positive*%
%FSLAX46Y46*%
G04 Gerber Fmt 4.6, Leading zero omitted, Abs format (unit mm)*
G04 Created by KiCad (PCBNEW (5.1.9-0-10_14)) date 2021-08-19 21:49:59*
%MOMM*%
%LPD*%
G01*
G04 APERTURE LIST*
%ADD10C,0.120000*%
%ADD11C,0.150000*%
G04 APERTURE END LIST*
D10*
%TO.C,U3*%
X186140000Y-85665000D02*
X186590000Y-85665000D01*
X186590000Y-85665000D02*
X186590000Y-84715000D01*
X186590000Y-84715000D02*
X188080000Y-84715000D01*
X186140000Y-78695000D02*
X186590000Y-78695000D01*
X186590000Y-78695000D02*
X186590000Y-79645000D01*
X182620000Y-85665000D02*
X182170000Y-85665000D01*
X182170000Y-85665000D02*
X182170000Y-78695000D01*
X182170000Y-78695000D02*
X182620000Y-78695000D01*
D11*
X188732380Y-81418095D02*
X189541904Y-81418095D01*
X189637142Y-81465714D01*
X189684761Y-81513333D01*
X189732380Y-81608571D01*
X189732380Y-81799047D01*
X189684761Y-81894285D01*
X189637142Y-81941904D01*
X189541904Y-81989523D01*
X188732380Y-81989523D01*
X188732380Y-82370476D02*
X188732380Y-82989523D01*
X189113333Y-82656190D01*
X189113333Y-82799047D01*
X189160952Y-82894285D01*
X189208571Y-82941904D01*
X189303809Y-82989523D01*
X189541904Y-82989523D01*
X189637142Y-82941904D01*
X189684761Y-82894285D01*
X189732380Y-82799047D01*
X189732380Y-82513333D01*
X189684761Y-82418095D01*
X189637142Y-82370476D01*
%TD*%
M02*
