%TF.GenerationSoftware,KiCad,Pcbnew,(5.1.9-0-10_14)*%
%TF.CreationDate,2021-09-11T10:50:20-05:00*%
%TF.ProjectId,OwlSat_Zbot_Panel,4f776c53-6174-45f5-9a62-6f745f50616e,rev?*%
%TF.SameCoordinates,Original*%
%TF.FileFunction,Copper,L1,Top*%
%TF.FilePolarity,Positive*%
%FSLAX46Y46*%
G04 Gerber Fmt 4.6, Leading zero omitted, Abs format (unit mm)*
G04 Created by KiCad (PCBNEW (5.1.9-0-10_14)) date 2021-09-11 10:50:20*
%MOMM*%
%LPD*%
G01*
G04 APERTURE LIST*
%TA.AperFunction,ComponentPad*%
%ADD10C,1.524000*%
%TD*%
%TA.AperFunction,ViaPad*%
%ADD11C,0.800000*%
%TD*%
%TA.AperFunction,Conductor*%
%ADD12C,0.500000*%
%TD*%
%TA.AperFunction,Conductor*%
%ADD13C,0.254000*%
%TD*%
%TA.AperFunction,Conductor*%
%ADD14C,0.100000*%
%TD*%
G04 APERTURE END LIST*
D10*
%TO.P,REF\u002A\u002A,2*%
%TO.N,Net-(U1-Pad2)*%
X143950000Y-83640000D03*
%TO.P,REF\u002A\u002A,1*%
%TO.N,Net-(U1-Pad1)*%
X143930000Y-80810000D03*
%TD*%
%TO.P,U1,4*%
%TO.N,Net-(U1-Pad1)*%
%TA.AperFunction,SMDPad,CuDef*%
G36*
G01*
X123230000Y-72800000D02*
X123230000Y-78500000D01*
G75*
G02*
X122580000Y-79150000I-650000J0D01*
G01*
X121280000Y-79150000D01*
G75*
G02*
X120630000Y-78500000I0J650000D01*
G01*
X120630000Y-72800000D01*
G75*
G02*
X121280000Y-72150000I650000J0D01*
G01*
X122580000Y-72150000D01*
G75*
G02*
X123230000Y-72800000I0J-650000D01*
G01*
G37*
%TD.AperFunction*%
%TO.P,U1,3*%
%TA.AperFunction,SMDPad,CuDef*%
G36*
G01*
X140780000Y-72800000D02*
X140780000Y-78500000D01*
G75*
G02*
X140130000Y-79150000I-650000J0D01*
G01*
X138830000Y-79150000D01*
G75*
G02*
X138180000Y-78500000I0J650000D01*
G01*
X138180000Y-72800000D01*
G75*
G02*
X138830000Y-72150000I650000J0D01*
G01*
X140130000Y-72150000D01*
G75*
G02*
X140780000Y-72800000I0J-650000D01*
G01*
G37*
%TD.AperFunction*%
%TO.P,U1,2*%
%TO.N,Net-(U1-Pad2)*%
%TA.AperFunction,SMDPad,CuDef*%
G36*
G01*
X147310000Y-73395000D02*
X147310000Y-76145000D01*
G75*
G02*
X146060000Y-77395000I-1250000J0D01*
G01*
X143560000Y-77395000D01*
G75*
G02*
X142310000Y-76145000I0J1250000D01*
G01*
X142310000Y-73395000D01*
G75*
G02*
X143560000Y-72145000I1250000J0D01*
G01*
X146060000Y-72145000D01*
G75*
G02*
X147310000Y-73395000I0J-1250000D01*
G01*
G37*
%TD.AperFunction*%
%TO.P,U1,1*%
%TO.N,Net-(U1-Pad1)*%
%TA.AperFunction,SMDPad,CuDef*%
G36*
G01*
X167680000Y-72800000D02*
X167680000Y-78500000D01*
G75*
G02*
X167030000Y-79150000I-650000J0D01*
G01*
X165730000Y-79150000D01*
G75*
G02*
X165080000Y-78500000I0J650000D01*
G01*
X165080000Y-72800000D01*
G75*
G02*
X165730000Y-72150000I650000J0D01*
G01*
X167030000Y-72150000D01*
G75*
G02*
X167680000Y-72800000I0J-650000D01*
G01*
G37*
%TD.AperFunction*%
%TD*%
%TO.P,U2,1*%
%TO.N,Net-(U1-Pad1)*%
%TA.AperFunction,SMDPad,CuDef*%
G36*
G01*
X131570000Y-91530000D02*
X131570000Y-85830000D01*
G75*
G02*
X132220000Y-85180000I650000J0D01*
G01*
X133520000Y-85180000D01*
G75*
G02*
X134170000Y-85830000I0J-650000D01*
G01*
X134170000Y-91530000D01*
G75*
G02*
X133520000Y-92180000I-650000J0D01*
G01*
X132220000Y-92180000D01*
G75*
G02*
X131570000Y-91530000I0J650000D01*
G01*
G37*
%TD.AperFunction*%
%TO.P,U2,2*%
%TO.N,Net-(U1-Pad2)*%
%TA.AperFunction,SMDPad,CuDef*%
G36*
G01*
X151940000Y-90935000D02*
X151940000Y-88185000D01*
G75*
G02*
X153190000Y-86935000I1250000J0D01*
G01*
X155690000Y-86935000D01*
G75*
G02*
X156940000Y-88185000I0J-1250000D01*
G01*
X156940000Y-90935000D01*
G75*
G02*
X155690000Y-92185000I-1250000J0D01*
G01*
X153190000Y-92185000D01*
G75*
G02*
X151940000Y-90935000I0J1250000D01*
G01*
G37*
%TD.AperFunction*%
%TO.P,U2,3*%
%TO.N,Net-(U1-Pad1)*%
%TA.AperFunction,SMDPad,CuDef*%
G36*
G01*
X158470000Y-91530000D02*
X158470000Y-85830000D01*
G75*
G02*
X159120000Y-85180000I650000J0D01*
G01*
X160420000Y-85180000D01*
G75*
G02*
X161070000Y-85830000I0J-650000D01*
G01*
X161070000Y-91530000D01*
G75*
G02*
X160420000Y-92180000I-650000J0D01*
G01*
X159120000Y-92180000D01*
G75*
G02*
X158470000Y-91530000I0J650000D01*
G01*
G37*
%TD.AperFunction*%
%TO.P,U2,4*%
%TA.AperFunction,SMDPad,CuDef*%
G36*
G01*
X176020000Y-91530000D02*
X176020000Y-85830000D01*
G75*
G02*
X176670000Y-85180000I650000J0D01*
G01*
X177970000Y-85180000D01*
G75*
G02*
X178620000Y-85830000I0J-650000D01*
G01*
X178620000Y-91530000D01*
G75*
G02*
X177970000Y-92180000I-650000J0D01*
G01*
X176670000Y-92180000D01*
G75*
G02*
X176020000Y-91530000I0J650000D01*
G01*
G37*
%TD.AperFunction*%
%TD*%
D11*
%TO.N,Net-(U1-Pad2)*%
X148910000Y-73260000D03*
X148920000Y-74490000D03*
X148920000Y-75820000D03*
X150370000Y-88350000D03*
X150380000Y-89570000D03*
X150380000Y-90830000D03*
%TD*%
D12*
%TO.N,Net-(U1-Pad2)*%
X153230000Y-88350000D02*
X154440000Y-89560000D01*
X150370000Y-88350000D02*
X153230000Y-88350000D01*
X154430000Y-89570000D02*
X154440000Y-89560000D01*
X150380000Y-89570000D02*
X154430000Y-89570000D01*
X153170000Y-90830000D02*
X154440000Y-89560000D01*
X150380000Y-90830000D02*
X153170000Y-90830000D01*
X146320000Y-73260000D02*
X144810000Y-74770000D01*
X148910000Y-73260000D02*
X146320000Y-73260000D01*
X145090000Y-74490000D02*
X144810000Y-74770000D01*
X148920000Y-74490000D02*
X145090000Y-74490000D01*
X145860000Y-75820000D02*
X144810000Y-74770000D01*
X148920000Y-75820000D02*
X145860000Y-75820000D01*
%TD*%
D13*
%TO.N,Net-(U1-Pad1)*%
X119995000Y-75364250D02*
X120153750Y-75523000D01*
X121803000Y-75523000D01*
X121803000Y-75503000D01*
X122057000Y-75503000D01*
X122057000Y-75523000D01*
X123706250Y-75523000D01*
X123865000Y-75364250D01*
X123867893Y-72337000D01*
X137542107Y-72337000D01*
X137545000Y-75364250D01*
X137703750Y-75523000D01*
X139353000Y-75523000D01*
X139353000Y-75503000D01*
X139607000Y-75503000D01*
X139607000Y-75523000D01*
X141256250Y-75523000D01*
X141415000Y-75364250D01*
X141417893Y-72337000D01*
X141997547Y-72337000D01*
X141990126Y-72346043D01*
X141815649Y-72672466D01*
X141708207Y-73026655D01*
X141671928Y-73395000D01*
X141671928Y-76145000D01*
X141708207Y-76513345D01*
X141815649Y-76867534D01*
X141990126Y-77193957D01*
X142224931Y-77480069D01*
X142511043Y-77714874D01*
X142837466Y-77889351D01*
X143191655Y-77996793D01*
X143560000Y-78033072D01*
X146060000Y-78033072D01*
X146428345Y-77996793D01*
X146782534Y-77889351D01*
X147108957Y-77714874D01*
X147395069Y-77480069D01*
X147629874Y-77193957D01*
X147719115Y-77027000D01*
X150320000Y-77027000D01*
X150344776Y-77024560D01*
X150368601Y-77017333D01*
X150390557Y-77005597D01*
X150409803Y-76989803D01*
X150425597Y-76970557D01*
X150437333Y-76948601D01*
X150444560Y-76924776D01*
X150447000Y-76900000D01*
X150447000Y-72337000D01*
X164442107Y-72337000D01*
X164445000Y-75364250D01*
X164603750Y-75523000D01*
X166253000Y-75523000D01*
X166253000Y-75503000D01*
X166507000Y-75503000D01*
X166507000Y-75523000D01*
X168156250Y-75523000D01*
X168315000Y-75364250D01*
X168317893Y-72337000D01*
X194463000Y-72337000D01*
X194463000Y-91993000D01*
X179257893Y-91993000D01*
X179255000Y-88965750D01*
X179096250Y-88807000D01*
X177447000Y-88807000D01*
X177447000Y-88827000D01*
X177193000Y-88827000D01*
X177193000Y-88807000D01*
X175543750Y-88807000D01*
X175385000Y-88965750D01*
X175382107Y-91993000D01*
X161707893Y-91993000D01*
X161705000Y-88965750D01*
X161546250Y-88807000D01*
X159897000Y-88807000D01*
X159897000Y-88827000D01*
X159643000Y-88827000D01*
X159643000Y-88807000D01*
X157993750Y-88807000D01*
X157835000Y-88965750D01*
X157832107Y-91993000D01*
X157252453Y-91993000D01*
X157259874Y-91983957D01*
X157434351Y-91657534D01*
X157541793Y-91303345D01*
X157578072Y-90935000D01*
X157578072Y-88185000D01*
X157541793Y-87816655D01*
X157434351Y-87462466D01*
X157259874Y-87136043D01*
X157025069Y-86849931D01*
X156738957Y-86615126D01*
X156412534Y-86440649D01*
X156058345Y-86333207D01*
X155690000Y-86296928D01*
X153190000Y-86296928D01*
X152821655Y-86333207D01*
X152467466Y-86440649D01*
X152141043Y-86615126D01*
X151854931Y-86849931D01*
X151620126Y-87136043D01*
X151611062Y-87153000D01*
X148840000Y-87153000D01*
X148815224Y-87155440D01*
X148791399Y-87162667D01*
X148769443Y-87174403D01*
X148750197Y-87190197D01*
X148734403Y-87209443D01*
X148722667Y-87231399D01*
X148715440Y-87255224D01*
X148713000Y-87280000D01*
X148713000Y-91993000D01*
X134807893Y-91993000D01*
X134805000Y-88965750D01*
X134646250Y-88807000D01*
X132997000Y-88807000D01*
X132997000Y-88827000D01*
X132743000Y-88827000D01*
X132743000Y-88807000D01*
X131093750Y-88807000D01*
X130935000Y-88965750D01*
X130932107Y-91993000D01*
X109977000Y-91993000D01*
X109977000Y-85180000D01*
X130931928Y-85180000D01*
X130935000Y-88394250D01*
X131093750Y-88553000D01*
X132743000Y-88553000D01*
X132743000Y-84703750D01*
X132997000Y-84703750D01*
X132997000Y-88553000D01*
X134646250Y-88553000D01*
X134805000Y-88394250D01*
X134808072Y-85180000D01*
X134795812Y-85055518D01*
X134759502Y-84935820D01*
X134700537Y-84825506D01*
X134621185Y-84728815D01*
X134524494Y-84649463D01*
X134414180Y-84590498D01*
X134294482Y-84554188D01*
X134170000Y-84541928D01*
X133155750Y-84545000D01*
X132997000Y-84703750D01*
X132743000Y-84703750D01*
X132584250Y-84545000D01*
X131570000Y-84541928D01*
X131445518Y-84554188D01*
X131325820Y-84590498D01*
X131215506Y-84649463D01*
X131118815Y-84728815D01*
X131039463Y-84825506D01*
X130980498Y-84935820D01*
X130944188Y-85055518D01*
X130931928Y-85180000D01*
X109977000Y-85180000D01*
X109977000Y-83502408D01*
X142553000Y-83502408D01*
X142553000Y-83777592D01*
X142606686Y-84047490D01*
X142711995Y-84301727D01*
X142864880Y-84530535D01*
X143059465Y-84725120D01*
X143288273Y-84878005D01*
X143542510Y-84983314D01*
X143812408Y-85037000D01*
X144087592Y-85037000D01*
X144357490Y-84983314D01*
X144611727Y-84878005D01*
X144840535Y-84725120D01*
X145035120Y-84530535D01*
X145188005Y-84301727D01*
X145293314Y-84047490D01*
X145325996Y-83883188D01*
X145542608Y-84406137D01*
X146052311Y-85168961D01*
X146701039Y-85817689D01*
X147463863Y-86327392D01*
X148311468Y-86678481D01*
X149211280Y-86857465D01*
X150128720Y-86857465D01*
X151028532Y-86678481D01*
X151876137Y-86327392D01*
X152638961Y-85817689D01*
X153276650Y-85180000D01*
X157831928Y-85180000D01*
X157835000Y-88394250D01*
X157993750Y-88553000D01*
X159643000Y-88553000D01*
X159643000Y-84703750D01*
X159897000Y-84703750D01*
X159897000Y-88553000D01*
X161546250Y-88553000D01*
X161705000Y-88394250D01*
X161708072Y-85180000D01*
X175381928Y-85180000D01*
X175385000Y-88394250D01*
X175543750Y-88553000D01*
X177193000Y-88553000D01*
X177193000Y-84703750D01*
X177447000Y-84703750D01*
X177447000Y-88553000D01*
X179096250Y-88553000D01*
X179255000Y-88394250D01*
X179258072Y-85180000D01*
X179245812Y-85055518D01*
X179209502Y-84935820D01*
X179150537Y-84825506D01*
X179071185Y-84728815D01*
X178974494Y-84649463D01*
X178864180Y-84590498D01*
X178744482Y-84554188D01*
X178620000Y-84541928D01*
X177605750Y-84545000D01*
X177447000Y-84703750D01*
X177193000Y-84703750D01*
X177034250Y-84545000D01*
X176020000Y-84541928D01*
X175895518Y-84554188D01*
X175775820Y-84590498D01*
X175665506Y-84649463D01*
X175568815Y-84728815D01*
X175489463Y-84825506D01*
X175430498Y-84935820D01*
X175394188Y-85055518D01*
X175381928Y-85180000D01*
X161708072Y-85180000D01*
X161695812Y-85055518D01*
X161659502Y-84935820D01*
X161600537Y-84825506D01*
X161521185Y-84728815D01*
X161424494Y-84649463D01*
X161314180Y-84590498D01*
X161194482Y-84554188D01*
X161070000Y-84541928D01*
X160055750Y-84545000D01*
X159897000Y-84703750D01*
X159643000Y-84703750D01*
X159484250Y-84545000D01*
X158470000Y-84541928D01*
X158345518Y-84554188D01*
X158225820Y-84590498D01*
X158115506Y-84649463D01*
X158018815Y-84728815D01*
X157939463Y-84825506D01*
X157880498Y-84935820D01*
X157844188Y-85055518D01*
X157831928Y-85180000D01*
X153276650Y-85180000D01*
X153287689Y-85168961D01*
X153797392Y-84406137D01*
X154148481Y-83558532D01*
X154327465Y-82658720D01*
X154327465Y-81741280D01*
X154148481Y-80841468D01*
X153797392Y-79993863D01*
X153287689Y-79231039D01*
X153206650Y-79150000D01*
X164441928Y-79150000D01*
X164454188Y-79274482D01*
X164490498Y-79394180D01*
X164549463Y-79504494D01*
X164628815Y-79601185D01*
X164725506Y-79680537D01*
X164835820Y-79739502D01*
X164955518Y-79775812D01*
X165080000Y-79788072D01*
X166094250Y-79785000D01*
X166253000Y-79626250D01*
X166253000Y-75777000D01*
X166507000Y-75777000D01*
X166507000Y-79626250D01*
X166665750Y-79785000D01*
X167680000Y-79788072D01*
X167804482Y-79775812D01*
X167924180Y-79739502D01*
X168034494Y-79680537D01*
X168131185Y-79601185D01*
X168210537Y-79504494D01*
X168269502Y-79394180D01*
X168305812Y-79274482D01*
X168318072Y-79150000D01*
X168315000Y-75935750D01*
X168156250Y-75777000D01*
X166507000Y-75777000D01*
X166253000Y-75777000D01*
X164603750Y-75777000D01*
X164445000Y-75935750D01*
X164441928Y-79150000D01*
X153206650Y-79150000D01*
X152638961Y-78582311D01*
X151876137Y-78072608D01*
X151028532Y-77721519D01*
X150128720Y-77542535D01*
X149211280Y-77542535D01*
X148311468Y-77721519D01*
X147463863Y-78072608D01*
X146701039Y-78582311D01*
X146052311Y-79231039D01*
X145542608Y-79993863D01*
X145305903Y-80565321D01*
X145290922Y-80465867D01*
X145197636Y-80206977D01*
X145135656Y-80091020D01*
X144895565Y-80024040D01*
X144109605Y-80810000D01*
X144895565Y-81595960D01*
X145050012Y-81552873D01*
X145012535Y-81741280D01*
X145012535Y-82658720D01*
X145029459Y-82743804D01*
X144840535Y-82554880D01*
X144611727Y-82401995D01*
X144357490Y-82296686D01*
X144087592Y-82243000D01*
X143812408Y-82243000D01*
X143542510Y-82296686D01*
X143288273Y-82401995D01*
X143059465Y-82554880D01*
X142864880Y-82749465D01*
X142711995Y-82978273D01*
X142606686Y-83232510D01*
X142553000Y-83502408D01*
X109977000Y-83502408D01*
X109977000Y-81775565D01*
X143144040Y-81775565D01*
X143211020Y-82015656D01*
X143460048Y-82132756D01*
X143727135Y-82199023D01*
X144002017Y-82211910D01*
X144274133Y-82170922D01*
X144533023Y-82077636D01*
X144648980Y-82015656D01*
X144715960Y-81775565D01*
X143930000Y-80989605D01*
X143144040Y-81775565D01*
X109977000Y-81775565D01*
X109977000Y-80882017D01*
X142528090Y-80882017D01*
X142569078Y-81154133D01*
X142662364Y-81413023D01*
X142724344Y-81528980D01*
X142964435Y-81595960D01*
X143750395Y-80810000D01*
X142964435Y-80024040D01*
X142724344Y-80091020D01*
X142607244Y-80340048D01*
X142540977Y-80607135D01*
X142528090Y-80882017D01*
X109977000Y-80882017D01*
X109977000Y-79844435D01*
X143144040Y-79844435D01*
X143930000Y-80630395D01*
X144715960Y-79844435D01*
X144648980Y-79604344D01*
X144399952Y-79487244D01*
X144132865Y-79420977D01*
X143857983Y-79408090D01*
X143585867Y-79449078D01*
X143326977Y-79542364D01*
X143211020Y-79604344D01*
X143144040Y-79844435D01*
X109977000Y-79844435D01*
X109977000Y-79150000D01*
X119991928Y-79150000D01*
X120004188Y-79274482D01*
X120040498Y-79394180D01*
X120099463Y-79504494D01*
X120178815Y-79601185D01*
X120275506Y-79680537D01*
X120385820Y-79739502D01*
X120505518Y-79775812D01*
X120630000Y-79788072D01*
X121644250Y-79785000D01*
X121803000Y-79626250D01*
X121803000Y-75777000D01*
X122057000Y-75777000D01*
X122057000Y-79626250D01*
X122215750Y-79785000D01*
X123230000Y-79788072D01*
X123354482Y-79775812D01*
X123474180Y-79739502D01*
X123584494Y-79680537D01*
X123681185Y-79601185D01*
X123760537Y-79504494D01*
X123819502Y-79394180D01*
X123855812Y-79274482D01*
X123868072Y-79150000D01*
X137541928Y-79150000D01*
X137554188Y-79274482D01*
X137590498Y-79394180D01*
X137649463Y-79504494D01*
X137728815Y-79601185D01*
X137825506Y-79680537D01*
X137935820Y-79739502D01*
X138055518Y-79775812D01*
X138180000Y-79788072D01*
X139194250Y-79785000D01*
X139353000Y-79626250D01*
X139353000Y-75777000D01*
X139607000Y-75777000D01*
X139607000Y-79626250D01*
X139765750Y-79785000D01*
X140780000Y-79788072D01*
X140904482Y-79775812D01*
X141024180Y-79739502D01*
X141134494Y-79680537D01*
X141231185Y-79601185D01*
X141310537Y-79504494D01*
X141369502Y-79394180D01*
X141405812Y-79274482D01*
X141418072Y-79150000D01*
X141415000Y-75935750D01*
X141256250Y-75777000D01*
X139607000Y-75777000D01*
X139353000Y-75777000D01*
X137703750Y-75777000D01*
X137545000Y-75935750D01*
X137541928Y-79150000D01*
X123868072Y-79150000D01*
X123865000Y-75935750D01*
X123706250Y-75777000D01*
X122057000Y-75777000D01*
X121803000Y-75777000D01*
X120153750Y-75777000D01*
X119995000Y-75935750D01*
X119991928Y-79150000D01*
X109977000Y-79150000D01*
X109977000Y-72337000D01*
X119992107Y-72337000D01*
X119995000Y-75364250D01*
%TA.AperFunction,Conductor*%
D14*
G36*
X119995000Y-75364250D02*
G01*
X120153750Y-75523000D01*
X121803000Y-75523000D01*
X121803000Y-75503000D01*
X122057000Y-75503000D01*
X122057000Y-75523000D01*
X123706250Y-75523000D01*
X123865000Y-75364250D01*
X123867893Y-72337000D01*
X137542107Y-72337000D01*
X137545000Y-75364250D01*
X137703750Y-75523000D01*
X139353000Y-75523000D01*
X139353000Y-75503000D01*
X139607000Y-75503000D01*
X139607000Y-75523000D01*
X141256250Y-75523000D01*
X141415000Y-75364250D01*
X141417893Y-72337000D01*
X141997547Y-72337000D01*
X141990126Y-72346043D01*
X141815649Y-72672466D01*
X141708207Y-73026655D01*
X141671928Y-73395000D01*
X141671928Y-76145000D01*
X141708207Y-76513345D01*
X141815649Y-76867534D01*
X141990126Y-77193957D01*
X142224931Y-77480069D01*
X142511043Y-77714874D01*
X142837466Y-77889351D01*
X143191655Y-77996793D01*
X143560000Y-78033072D01*
X146060000Y-78033072D01*
X146428345Y-77996793D01*
X146782534Y-77889351D01*
X147108957Y-77714874D01*
X147395069Y-77480069D01*
X147629874Y-77193957D01*
X147719115Y-77027000D01*
X150320000Y-77027000D01*
X150344776Y-77024560D01*
X150368601Y-77017333D01*
X150390557Y-77005597D01*
X150409803Y-76989803D01*
X150425597Y-76970557D01*
X150437333Y-76948601D01*
X150444560Y-76924776D01*
X150447000Y-76900000D01*
X150447000Y-72337000D01*
X164442107Y-72337000D01*
X164445000Y-75364250D01*
X164603750Y-75523000D01*
X166253000Y-75523000D01*
X166253000Y-75503000D01*
X166507000Y-75503000D01*
X166507000Y-75523000D01*
X168156250Y-75523000D01*
X168315000Y-75364250D01*
X168317893Y-72337000D01*
X194463000Y-72337000D01*
X194463000Y-91993000D01*
X179257893Y-91993000D01*
X179255000Y-88965750D01*
X179096250Y-88807000D01*
X177447000Y-88807000D01*
X177447000Y-88827000D01*
X177193000Y-88827000D01*
X177193000Y-88807000D01*
X175543750Y-88807000D01*
X175385000Y-88965750D01*
X175382107Y-91993000D01*
X161707893Y-91993000D01*
X161705000Y-88965750D01*
X161546250Y-88807000D01*
X159897000Y-88807000D01*
X159897000Y-88827000D01*
X159643000Y-88827000D01*
X159643000Y-88807000D01*
X157993750Y-88807000D01*
X157835000Y-88965750D01*
X157832107Y-91993000D01*
X157252453Y-91993000D01*
X157259874Y-91983957D01*
X157434351Y-91657534D01*
X157541793Y-91303345D01*
X157578072Y-90935000D01*
X157578072Y-88185000D01*
X157541793Y-87816655D01*
X157434351Y-87462466D01*
X157259874Y-87136043D01*
X157025069Y-86849931D01*
X156738957Y-86615126D01*
X156412534Y-86440649D01*
X156058345Y-86333207D01*
X155690000Y-86296928D01*
X153190000Y-86296928D01*
X152821655Y-86333207D01*
X152467466Y-86440649D01*
X152141043Y-86615126D01*
X151854931Y-86849931D01*
X151620126Y-87136043D01*
X151611062Y-87153000D01*
X148840000Y-87153000D01*
X148815224Y-87155440D01*
X148791399Y-87162667D01*
X148769443Y-87174403D01*
X148750197Y-87190197D01*
X148734403Y-87209443D01*
X148722667Y-87231399D01*
X148715440Y-87255224D01*
X148713000Y-87280000D01*
X148713000Y-91993000D01*
X134807893Y-91993000D01*
X134805000Y-88965750D01*
X134646250Y-88807000D01*
X132997000Y-88807000D01*
X132997000Y-88827000D01*
X132743000Y-88827000D01*
X132743000Y-88807000D01*
X131093750Y-88807000D01*
X130935000Y-88965750D01*
X130932107Y-91993000D01*
X109977000Y-91993000D01*
X109977000Y-85180000D01*
X130931928Y-85180000D01*
X130935000Y-88394250D01*
X131093750Y-88553000D01*
X132743000Y-88553000D01*
X132743000Y-84703750D01*
X132997000Y-84703750D01*
X132997000Y-88553000D01*
X134646250Y-88553000D01*
X134805000Y-88394250D01*
X134808072Y-85180000D01*
X134795812Y-85055518D01*
X134759502Y-84935820D01*
X134700537Y-84825506D01*
X134621185Y-84728815D01*
X134524494Y-84649463D01*
X134414180Y-84590498D01*
X134294482Y-84554188D01*
X134170000Y-84541928D01*
X133155750Y-84545000D01*
X132997000Y-84703750D01*
X132743000Y-84703750D01*
X132584250Y-84545000D01*
X131570000Y-84541928D01*
X131445518Y-84554188D01*
X131325820Y-84590498D01*
X131215506Y-84649463D01*
X131118815Y-84728815D01*
X131039463Y-84825506D01*
X130980498Y-84935820D01*
X130944188Y-85055518D01*
X130931928Y-85180000D01*
X109977000Y-85180000D01*
X109977000Y-83502408D01*
X142553000Y-83502408D01*
X142553000Y-83777592D01*
X142606686Y-84047490D01*
X142711995Y-84301727D01*
X142864880Y-84530535D01*
X143059465Y-84725120D01*
X143288273Y-84878005D01*
X143542510Y-84983314D01*
X143812408Y-85037000D01*
X144087592Y-85037000D01*
X144357490Y-84983314D01*
X144611727Y-84878005D01*
X144840535Y-84725120D01*
X145035120Y-84530535D01*
X145188005Y-84301727D01*
X145293314Y-84047490D01*
X145325996Y-83883188D01*
X145542608Y-84406137D01*
X146052311Y-85168961D01*
X146701039Y-85817689D01*
X147463863Y-86327392D01*
X148311468Y-86678481D01*
X149211280Y-86857465D01*
X150128720Y-86857465D01*
X151028532Y-86678481D01*
X151876137Y-86327392D01*
X152638961Y-85817689D01*
X153276650Y-85180000D01*
X157831928Y-85180000D01*
X157835000Y-88394250D01*
X157993750Y-88553000D01*
X159643000Y-88553000D01*
X159643000Y-84703750D01*
X159897000Y-84703750D01*
X159897000Y-88553000D01*
X161546250Y-88553000D01*
X161705000Y-88394250D01*
X161708072Y-85180000D01*
X175381928Y-85180000D01*
X175385000Y-88394250D01*
X175543750Y-88553000D01*
X177193000Y-88553000D01*
X177193000Y-84703750D01*
X177447000Y-84703750D01*
X177447000Y-88553000D01*
X179096250Y-88553000D01*
X179255000Y-88394250D01*
X179258072Y-85180000D01*
X179245812Y-85055518D01*
X179209502Y-84935820D01*
X179150537Y-84825506D01*
X179071185Y-84728815D01*
X178974494Y-84649463D01*
X178864180Y-84590498D01*
X178744482Y-84554188D01*
X178620000Y-84541928D01*
X177605750Y-84545000D01*
X177447000Y-84703750D01*
X177193000Y-84703750D01*
X177034250Y-84545000D01*
X176020000Y-84541928D01*
X175895518Y-84554188D01*
X175775820Y-84590498D01*
X175665506Y-84649463D01*
X175568815Y-84728815D01*
X175489463Y-84825506D01*
X175430498Y-84935820D01*
X175394188Y-85055518D01*
X175381928Y-85180000D01*
X161708072Y-85180000D01*
X161695812Y-85055518D01*
X161659502Y-84935820D01*
X161600537Y-84825506D01*
X161521185Y-84728815D01*
X161424494Y-84649463D01*
X161314180Y-84590498D01*
X161194482Y-84554188D01*
X161070000Y-84541928D01*
X160055750Y-84545000D01*
X159897000Y-84703750D01*
X159643000Y-84703750D01*
X159484250Y-84545000D01*
X158470000Y-84541928D01*
X158345518Y-84554188D01*
X158225820Y-84590498D01*
X158115506Y-84649463D01*
X158018815Y-84728815D01*
X157939463Y-84825506D01*
X157880498Y-84935820D01*
X157844188Y-85055518D01*
X157831928Y-85180000D01*
X153276650Y-85180000D01*
X153287689Y-85168961D01*
X153797392Y-84406137D01*
X154148481Y-83558532D01*
X154327465Y-82658720D01*
X154327465Y-81741280D01*
X154148481Y-80841468D01*
X153797392Y-79993863D01*
X153287689Y-79231039D01*
X153206650Y-79150000D01*
X164441928Y-79150000D01*
X164454188Y-79274482D01*
X164490498Y-79394180D01*
X164549463Y-79504494D01*
X164628815Y-79601185D01*
X164725506Y-79680537D01*
X164835820Y-79739502D01*
X164955518Y-79775812D01*
X165080000Y-79788072D01*
X166094250Y-79785000D01*
X166253000Y-79626250D01*
X166253000Y-75777000D01*
X166507000Y-75777000D01*
X166507000Y-79626250D01*
X166665750Y-79785000D01*
X167680000Y-79788072D01*
X167804482Y-79775812D01*
X167924180Y-79739502D01*
X168034494Y-79680537D01*
X168131185Y-79601185D01*
X168210537Y-79504494D01*
X168269502Y-79394180D01*
X168305812Y-79274482D01*
X168318072Y-79150000D01*
X168315000Y-75935750D01*
X168156250Y-75777000D01*
X166507000Y-75777000D01*
X166253000Y-75777000D01*
X164603750Y-75777000D01*
X164445000Y-75935750D01*
X164441928Y-79150000D01*
X153206650Y-79150000D01*
X152638961Y-78582311D01*
X151876137Y-78072608D01*
X151028532Y-77721519D01*
X150128720Y-77542535D01*
X149211280Y-77542535D01*
X148311468Y-77721519D01*
X147463863Y-78072608D01*
X146701039Y-78582311D01*
X146052311Y-79231039D01*
X145542608Y-79993863D01*
X145305903Y-80565321D01*
X145290922Y-80465867D01*
X145197636Y-80206977D01*
X145135656Y-80091020D01*
X144895565Y-80024040D01*
X144109605Y-80810000D01*
X144895565Y-81595960D01*
X145050012Y-81552873D01*
X145012535Y-81741280D01*
X145012535Y-82658720D01*
X145029459Y-82743804D01*
X144840535Y-82554880D01*
X144611727Y-82401995D01*
X144357490Y-82296686D01*
X144087592Y-82243000D01*
X143812408Y-82243000D01*
X143542510Y-82296686D01*
X143288273Y-82401995D01*
X143059465Y-82554880D01*
X142864880Y-82749465D01*
X142711995Y-82978273D01*
X142606686Y-83232510D01*
X142553000Y-83502408D01*
X109977000Y-83502408D01*
X109977000Y-81775565D01*
X143144040Y-81775565D01*
X143211020Y-82015656D01*
X143460048Y-82132756D01*
X143727135Y-82199023D01*
X144002017Y-82211910D01*
X144274133Y-82170922D01*
X144533023Y-82077636D01*
X144648980Y-82015656D01*
X144715960Y-81775565D01*
X143930000Y-80989605D01*
X143144040Y-81775565D01*
X109977000Y-81775565D01*
X109977000Y-80882017D01*
X142528090Y-80882017D01*
X142569078Y-81154133D01*
X142662364Y-81413023D01*
X142724344Y-81528980D01*
X142964435Y-81595960D01*
X143750395Y-80810000D01*
X142964435Y-80024040D01*
X142724344Y-80091020D01*
X142607244Y-80340048D01*
X142540977Y-80607135D01*
X142528090Y-80882017D01*
X109977000Y-80882017D01*
X109977000Y-79844435D01*
X143144040Y-79844435D01*
X143930000Y-80630395D01*
X144715960Y-79844435D01*
X144648980Y-79604344D01*
X144399952Y-79487244D01*
X144132865Y-79420977D01*
X143857983Y-79408090D01*
X143585867Y-79449078D01*
X143326977Y-79542364D01*
X143211020Y-79604344D01*
X143144040Y-79844435D01*
X109977000Y-79844435D01*
X109977000Y-79150000D01*
X119991928Y-79150000D01*
X120004188Y-79274482D01*
X120040498Y-79394180D01*
X120099463Y-79504494D01*
X120178815Y-79601185D01*
X120275506Y-79680537D01*
X120385820Y-79739502D01*
X120505518Y-79775812D01*
X120630000Y-79788072D01*
X121644250Y-79785000D01*
X121803000Y-79626250D01*
X121803000Y-75777000D01*
X122057000Y-75777000D01*
X122057000Y-79626250D01*
X122215750Y-79785000D01*
X123230000Y-79788072D01*
X123354482Y-79775812D01*
X123474180Y-79739502D01*
X123584494Y-79680537D01*
X123681185Y-79601185D01*
X123760537Y-79504494D01*
X123819502Y-79394180D01*
X123855812Y-79274482D01*
X123868072Y-79150000D01*
X137541928Y-79150000D01*
X137554188Y-79274482D01*
X137590498Y-79394180D01*
X137649463Y-79504494D01*
X137728815Y-79601185D01*
X137825506Y-79680537D01*
X137935820Y-79739502D01*
X138055518Y-79775812D01*
X138180000Y-79788072D01*
X139194250Y-79785000D01*
X139353000Y-79626250D01*
X139353000Y-75777000D01*
X139607000Y-75777000D01*
X139607000Y-79626250D01*
X139765750Y-79785000D01*
X140780000Y-79788072D01*
X140904482Y-79775812D01*
X141024180Y-79739502D01*
X141134494Y-79680537D01*
X141231185Y-79601185D01*
X141310537Y-79504494D01*
X141369502Y-79394180D01*
X141405812Y-79274482D01*
X141418072Y-79150000D01*
X141415000Y-75935750D01*
X141256250Y-75777000D01*
X139607000Y-75777000D01*
X139353000Y-75777000D01*
X137703750Y-75777000D01*
X137545000Y-75935750D01*
X137541928Y-79150000D01*
X123868072Y-79150000D01*
X123865000Y-75935750D01*
X123706250Y-75777000D01*
X122057000Y-75777000D01*
X121803000Y-75777000D01*
X120153750Y-75777000D01*
X119995000Y-75935750D01*
X119991928Y-79150000D01*
X109977000Y-79150000D01*
X109977000Y-72337000D01*
X119992107Y-72337000D01*
X119995000Y-75364250D01*
G37*
%TD.AperFunction*%
%TD*%
M02*
