%TF.GenerationSoftware,KiCad,Pcbnew,(5.1.9-0-10_14)*%
%TF.CreationDate,2022-02-18T16:21:06-06:00*%
%TF.ProjectId,OwlSat_Z_Panel,4f776c53-6174-45f5-9a5f-50616e656c2e,rev?*%
%TF.SameCoordinates,Original*%
%TF.FileFunction,Profile,NP*%
%FSLAX46Y46*%
G04 Gerber Fmt 4.6, Leading zero omitted, Abs format (unit mm)*
G04 Created by KiCad (PCBNEW (5.1.9-0-10_14)) date 2022-02-18 16:21:06*
%MOMM*%
%LPD*%
G01*
G04 APERTURE LIST*
%TA.AperFunction,Profile*%
%ADD10C,0.050000*%
%TD*%
G04 APERTURE END LIST*
D10*
X161180000Y-82160000D02*
G75*
G03*
X161180000Y-82160000I-2500000J0D01*
G01*
X143180000Y-82160000D02*
G75*
G03*
X143180000Y-82160000I-2500000J0D01*
G01*
X118670000Y-74200000D02*
G75*
G03*
X118670000Y-74200000I-1500000J0D01*
G01*
X183670033Y-90200000D02*
G75*
G03*
X183670033Y-90200000I-1500033J0D01*
G01*
X109670000Y-123200000D02*
X109670000Y-132200000D01*
X108670000Y-122200000D02*
X99670000Y-122200000D01*
X108670000Y-122200000D02*
G75*
G02*
X109670000Y-123200000I0J-1000000D01*
G01*
X189670000Y-123200000D02*
X189670000Y-132200000D01*
X190670000Y-122200000D02*
X199670000Y-122200000D01*
X189670000Y-123200000D02*
G75*
G02*
X190670000Y-122200000I1000000J0D01*
G01*
X190670001Y-42200049D02*
X199670000Y-42200000D01*
X189670001Y-41190001D02*
X189670000Y-32200000D01*
X190670001Y-42200049D02*
G75*
G02*
X189670001Y-41190001I-1J1000049D01*
G01*
X109670000Y-41200000D02*
X109670000Y-32200000D01*
X108670000Y-42200000D02*
X99670000Y-42200000D01*
X109670000Y-41200000D02*
G75*
G02*
X108670000Y-42200000I-1000000J0D01*
G01*
X153669999Y-82660001D02*
G75*
G02*
X145670001Y-82659999I-3999999J500001D01*
G01*
X144670000Y-82660000D02*
X145670000Y-82660000D01*
X144670000Y-81660000D02*
X144670000Y-82660000D01*
X145670000Y-81660000D02*
X144670000Y-81660000D01*
X145670155Y-81658765D02*
G75*
G02*
X153669999Y-81660001I3999845J-501235D01*
G01*
X154670000Y-81660000D02*
X153670000Y-81660000D01*
X154670000Y-82660000D02*
X153670000Y-82660000D01*
X154670000Y-81660000D02*
X154670000Y-82660000D01*
X196170000Y-102200000D02*
G75*
G03*
X196170000Y-102200000I-1500000J0D01*
G01*
X196170000Y-62200000D02*
G75*
G03*
X196170000Y-62200000I-1500000J0D01*
G01*
X106170000Y-62200000D02*
G75*
G03*
X106170000Y-62200000I-1500000J0D01*
G01*
X106170000Y-102200000D02*
G75*
G03*
X106170000Y-102200000I-1500000J0D01*
G01*
X99670000Y-122200000D02*
X99670000Y-42200000D01*
X189670000Y-132200000D02*
X109670000Y-132200000D01*
X199670000Y-42200000D02*
X199670000Y-122200000D01*
X109670000Y-32200000D02*
X189670000Y-32200000D01*
M02*
