%TF.GenerationSoftware,KiCad,Pcbnew,(5.1.9-0-10_14)*%
%TF.CreationDate,2021-09-11T10:47:45-05:00*%
%TF.ProjectId,OwlSat_Official_USB,4f776c53-6174-45f4-9f66-66696369616c,4*%
%TF.SameCoordinates,Original*%
%TF.FileFunction,Copper,L2,Bot*%
%TF.FilePolarity,Positive*%
%FSLAX46Y46*%
G04 Gerber Fmt 4.6, Leading zero omitted, Abs format (unit mm)*
G04 Created by KiCad (PCBNEW (5.1.9-0-10_14)) date 2021-09-11 10:47:45*
%MOMM*%
%LPD*%
G01*
G04 APERTURE LIST*
%TA.AperFunction,ViaPad*%
%ADD10C,0.800000*%
%TD*%
%TA.AperFunction,Conductor*%
%ADD11C,0.500000*%
%TD*%
%TA.AperFunction,Conductor*%
%ADD12C,0.254000*%
%TD*%
%TA.AperFunction,Conductor*%
%ADD13C,0.100000*%
%TD*%
G04 APERTURE END LIST*
%TO.P,U3,1*%
%TO.N,Net-(U1-Pad2)*%
%TA.AperFunction,SMDPad,CuDef*%
G36*
G01*
X182260000Y-97145000D02*
X181060000Y-97145000D01*
G75*
G02*
X180860000Y-96945000I0J200000D01*
G01*
X180860000Y-96545000D01*
G75*
G02*
X181060000Y-96345000I200000J0D01*
G01*
X182260000Y-96345000D01*
G75*
G02*
X182460000Y-96545000I0J-200000D01*
G01*
X182460000Y-96945000D01*
G75*
G02*
X182260000Y-97145000I-200000J0D01*
G01*
G37*
%TD.AperFunction*%
%TO.P,U3,2*%
%TA.AperFunction,SMDPad,CuDef*%
G36*
G01*
X182260000Y-95895000D02*
X181060000Y-95895000D01*
G75*
G02*
X180860000Y-95695000I0J200000D01*
G01*
X180860000Y-95295000D01*
G75*
G02*
X181060000Y-95095000I200000J0D01*
G01*
X182260000Y-95095000D01*
G75*
G02*
X182460000Y-95295000I0J-200000D01*
G01*
X182460000Y-95695000D01*
G75*
G02*
X182260000Y-95895000I-200000J0D01*
G01*
G37*
%TD.AperFunction*%
%TO.P,U3,3*%
%TO.N,Net-(U1-Pad1)*%
%TA.AperFunction,SMDPad,CuDef*%
G36*
G01*
X182260000Y-94645000D02*
X181060000Y-94645000D01*
G75*
G02*
X180860000Y-94445000I0J200000D01*
G01*
X180860000Y-94045000D01*
G75*
G02*
X181060000Y-93845000I200000J0D01*
G01*
X182260000Y-93845000D01*
G75*
G02*
X182460000Y-94045000I0J-200000D01*
G01*
X182460000Y-94445000D01*
G75*
G02*
X182260000Y-94645000I-200000J0D01*
G01*
G37*
%TD.AperFunction*%
%TO.P,U3,4*%
%TA.AperFunction,SMDPad,CuDef*%
G36*
G01*
X182260000Y-93395000D02*
X181060000Y-93395000D01*
G75*
G02*
X180860000Y-93195000I0J200000D01*
G01*
X180860000Y-92795000D01*
G75*
G02*
X181060000Y-92595000I200000J0D01*
G01*
X182260000Y-92595000D01*
G75*
G02*
X182460000Y-92795000I0J-200000D01*
G01*
X182460000Y-93195000D01*
G75*
G02*
X182260000Y-93395000I-200000J0D01*
G01*
G37*
%TD.AperFunction*%
%TO.P,U3,MP*%
%TO.N,N/C*%
%TA.AperFunction,SMDPad,CuDef*%
G36*
G01*
X180010001Y-100345000D02*
X177509999Y-100345000D01*
G75*
G02*
X177260000Y-100095001I0J249999D01*
G01*
X177260000Y-98494999D01*
G75*
G02*
X177509999Y-98245000I249999J0D01*
G01*
X180010001Y-98245000D01*
G75*
G02*
X180260000Y-98494999I0J-249999D01*
G01*
X180260000Y-100095001D01*
G75*
G02*
X180010001Y-100345000I-249999J0D01*
G01*
G37*
%TD.AperFunction*%
%TA.AperFunction,SMDPad,CuDef*%
G36*
G01*
X180010001Y-91495000D02*
X177509999Y-91495000D01*
G75*
G02*
X177260000Y-91245001I0J249999D01*
G01*
X177260000Y-89644999D01*
G75*
G02*
X177509999Y-89395000I249999J0D01*
G01*
X180010001Y-89395000D01*
G75*
G02*
X180260000Y-89644999I0J-249999D01*
G01*
X180260000Y-91245001D01*
G75*
G02*
X180010001Y-91495000I-249999J0D01*
G01*
G37*
%TD.AperFunction*%
%TD*%
D10*
%TO.N,Net-(U1-Pad1)*%
X184010000Y-92980000D03*
X184020000Y-94230000D03*
%TO.N,Net-(U1-Pad2)*%
X152390000Y-88800000D03*
X152400000Y-87560000D03*
X152400000Y-86290000D03*
X144990000Y-100780000D03*
X145010000Y-102160000D03*
X144980000Y-103510000D03*
%TD*%
D11*
%TO.N,Net-(U1-Pad1)*%
X181675000Y-92980000D02*
X181660000Y-92995000D01*
X184010000Y-92980000D02*
X181675000Y-92980000D01*
X181675000Y-94230000D02*
X181660000Y-94245000D01*
X184020000Y-94230000D02*
X181675000Y-94230000D01*
%TD*%
D12*
%TO.N,Net-(U1-Pad2)*%
X189950001Y-104513000D02*
X114197000Y-104513000D01*
X114197000Y-91910000D01*
X119846807Y-91910000D01*
X119850000Y-91942419D01*
X119850001Y-97877571D01*
X119846807Y-97910000D01*
X119859550Y-98039383D01*
X119897290Y-98163793D01*
X119958575Y-98278450D01*
X120041052Y-98378948D01*
X120141550Y-98461425D01*
X120256207Y-98522710D01*
X120380617Y-98560450D01*
X120477581Y-98570000D01*
X120510000Y-98573193D01*
X120542419Y-98570000D01*
X133577581Y-98570000D01*
X133610000Y-98573193D01*
X133642419Y-98570000D01*
X133739383Y-98560450D01*
X133863793Y-98522710D01*
X133978450Y-98461425D01*
X134078948Y-98378948D01*
X134161425Y-98278450D01*
X134222710Y-98163793D01*
X134260450Y-98039383D01*
X134273193Y-97910000D01*
X134270000Y-97877581D01*
X134270000Y-96061247D01*
X134424837Y-96292977D01*
X134727023Y-96595163D01*
X135082355Y-96832588D01*
X135477179Y-96996130D01*
X135896323Y-97079503D01*
X136323677Y-97079503D01*
X136742821Y-96996130D01*
X137137645Y-96832588D01*
X137492977Y-96595163D01*
X137795163Y-96292977D01*
X138032588Y-95937645D01*
X138196130Y-95542821D01*
X138279503Y-95123677D01*
X138279503Y-94696323D01*
X138230761Y-94451280D01*
X143952535Y-94451280D01*
X143952535Y-95368720D01*
X144131519Y-96268532D01*
X144482608Y-97116137D01*
X144992311Y-97878961D01*
X145641039Y-98527689D01*
X146403863Y-99037392D01*
X147251468Y-99388481D01*
X148151280Y-99567465D01*
X149068720Y-99567465D01*
X149968532Y-99388481D01*
X150816137Y-99037392D01*
X151578961Y-98527689D01*
X151611651Y-98494999D01*
X176621928Y-98494999D01*
X176621928Y-100095001D01*
X176638992Y-100268255D01*
X176689528Y-100434851D01*
X176771595Y-100588387D01*
X176882038Y-100722962D01*
X177016613Y-100833405D01*
X177170149Y-100915472D01*
X177336745Y-100966008D01*
X177509999Y-100983072D01*
X180010001Y-100983072D01*
X180183255Y-100966008D01*
X180349851Y-100915472D01*
X180503387Y-100833405D01*
X180637962Y-100722962D01*
X180748405Y-100588387D01*
X180830472Y-100434851D01*
X180881008Y-100268255D01*
X180898072Y-100095001D01*
X180898072Y-98494999D01*
X180881008Y-98321745D01*
X180830472Y-98155149D01*
X180748405Y-98001613D01*
X180637962Y-97867038D01*
X180503387Y-97756595D01*
X180349851Y-97674528D01*
X180183255Y-97623992D01*
X180010001Y-97606928D01*
X177509999Y-97606928D01*
X177336745Y-97623992D01*
X177170149Y-97674528D01*
X177016613Y-97756595D01*
X176882038Y-97867038D01*
X176771595Y-98001613D01*
X176689528Y-98155149D01*
X176638992Y-98321745D01*
X176621928Y-98494999D01*
X151611651Y-98494999D01*
X152227689Y-97878961D01*
X152718106Y-97145000D01*
X180221928Y-97145000D01*
X180234188Y-97269482D01*
X180270498Y-97389180D01*
X180329463Y-97499494D01*
X180408815Y-97596185D01*
X180505506Y-97675537D01*
X180615820Y-97734502D01*
X180735518Y-97770812D01*
X180860000Y-97783072D01*
X181374250Y-97780000D01*
X181533000Y-97621250D01*
X181533000Y-96872000D01*
X181787000Y-96872000D01*
X181787000Y-97621250D01*
X181945750Y-97780000D01*
X182460000Y-97783072D01*
X182584482Y-97770812D01*
X182704180Y-97734502D01*
X182814494Y-97675537D01*
X182911185Y-97596185D01*
X182990537Y-97499494D01*
X183049502Y-97389180D01*
X183085812Y-97269482D01*
X183098072Y-97145000D01*
X183095000Y-97030750D01*
X182936250Y-96872000D01*
X181787000Y-96872000D01*
X181533000Y-96872000D01*
X180383750Y-96872000D01*
X180225000Y-97030750D01*
X180221928Y-97145000D01*
X152718106Y-97145000D01*
X152737392Y-97116137D01*
X153088481Y-96268532D01*
X153267465Y-95368720D01*
X153267465Y-94696323D01*
X158940497Y-94696323D01*
X158940497Y-95123677D01*
X159023870Y-95542821D01*
X159187412Y-95937645D01*
X159424837Y-96292977D01*
X159727023Y-96595163D01*
X160082355Y-96832588D01*
X160477179Y-96996130D01*
X160896323Y-97079503D01*
X161323677Y-97079503D01*
X161742821Y-96996130D01*
X162137645Y-96832588D01*
X162492977Y-96595163D01*
X162795163Y-96292977D01*
X163032588Y-95937645D01*
X163050252Y-95895000D01*
X180221928Y-95895000D01*
X180234188Y-96019482D01*
X180264680Y-96120000D01*
X180234188Y-96220518D01*
X180221928Y-96345000D01*
X180225000Y-96459250D01*
X180383750Y-96618000D01*
X181533000Y-96618000D01*
X181533000Y-95622000D01*
X181787000Y-95622000D01*
X181787000Y-96618000D01*
X182936250Y-96618000D01*
X183095000Y-96459250D01*
X183098072Y-96345000D01*
X183085812Y-96220518D01*
X183055320Y-96120000D01*
X183085812Y-96019482D01*
X183098072Y-95895000D01*
X183095000Y-95780750D01*
X182936250Y-95622000D01*
X181787000Y-95622000D01*
X181533000Y-95622000D01*
X180383750Y-95622000D01*
X180225000Y-95780750D01*
X180221928Y-95895000D01*
X163050252Y-95895000D01*
X163196130Y-95542821D01*
X163279503Y-95123677D01*
X163279503Y-94696323D01*
X163196130Y-94277179D01*
X163032588Y-93882355D01*
X162795163Y-93527023D01*
X162492977Y-93224837D01*
X162137645Y-92987412D01*
X161742821Y-92823870D01*
X161597682Y-92795000D01*
X180221928Y-92795000D01*
X180221928Y-93195000D01*
X180238031Y-93358500D01*
X180285722Y-93515716D01*
X180341463Y-93620000D01*
X180285722Y-93724284D01*
X180238031Y-93881500D01*
X180221928Y-94045000D01*
X180221928Y-94445000D01*
X180238031Y-94608500D01*
X180285722Y-94765716D01*
X180300855Y-94794027D01*
X180270498Y-94850820D01*
X180234188Y-94970518D01*
X180221928Y-95095000D01*
X180225000Y-95209250D01*
X180383750Y-95368000D01*
X181533000Y-95368000D01*
X181533000Y-95348000D01*
X181787000Y-95348000D01*
X181787000Y-95368000D01*
X182936250Y-95368000D01*
X183095000Y-95209250D01*
X183097534Y-95115000D01*
X183481546Y-95115000D01*
X183529744Y-95147205D01*
X183718102Y-95225226D01*
X183918061Y-95265000D01*
X184121939Y-95265000D01*
X184321898Y-95225226D01*
X184510256Y-95147205D01*
X184679774Y-95033937D01*
X184823937Y-94889774D01*
X184832472Y-94877000D01*
X184850000Y-94877000D01*
X184874776Y-94874560D01*
X184898601Y-94867333D01*
X184920557Y-94855597D01*
X184939803Y-94839803D01*
X184955597Y-94820557D01*
X184967333Y-94798601D01*
X184974560Y-94774776D01*
X184977000Y-94750000D01*
X184977000Y-94624183D01*
X185015226Y-94531898D01*
X185055000Y-94331939D01*
X185055000Y-94128061D01*
X185015226Y-93928102D01*
X184977000Y-93835817D01*
X184977000Y-93350041D01*
X185005226Y-93281898D01*
X185045000Y-93081939D01*
X185045000Y-92878061D01*
X185005226Y-92678102D01*
X184977000Y-92609959D01*
X184977000Y-92400000D01*
X184974560Y-92375224D01*
X184967333Y-92351399D01*
X184955597Y-92329443D01*
X184939803Y-92310197D01*
X184920557Y-92294403D01*
X184898601Y-92282667D01*
X184874776Y-92275440D01*
X184850000Y-92273000D01*
X184766711Y-92273000D01*
X184669774Y-92176063D01*
X184500256Y-92062795D01*
X184311898Y-91984774D01*
X184111939Y-91945000D01*
X183908061Y-91945000D01*
X183708102Y-91984774D01*
X183519744Y-92062795D01*
X183471546Y-92095000D01*
X182719679Y-92095000D01*
X182580716Y-92020722D01*
X182423500Y-91973031D01*
X182260000Y-91956928D01*
X181060000Y-91956928D01*
X180896500Y-91973031D01*
X180739284Y-92020722D01*
X180594392Y-92098169D01*
X180467394Y-92202394D01*
X180363169Y-92329392D01*
X180285722Y-92474284D01*
X180238031Y-92631500D01*
X180221928Y-92795000D01*
X161597682Y-92795000D01*
X161323677Y-92740497D01*
X160896323Y-92740497D01*
X160477179Y-92823870D01*
X160082355Y-92987412D01*
X159727023Y-93224837D01*
X159424837Y-93527023D01*
X159187412Y-93882355D01*
X159023870Y-94277179D01*
X158940497Y-94696323D01*
X153267465Y-94696323D01*
X153267465Y-94451280D01*
X153088481Y-93551468D01*
X152737392Y-92703863D01*
X152227689Y-91941039D01*
X151578961Y-91292311D01*
X150816137Y-90782608D01*
X149968532Y-90431519D01*
X149068720Y-90252535D01*
X148151280Y-90252535D01*
X147251468Y-90431519D01*
X146403863Y-90782608D01*
X145641039Y-91292311D01*
X144992311Y-91941039D01*
X144482608Y-92703863D01*
X144131519Y-93551468D01*
X143952535Y-94451280D01*
X138230761Y-94451280D01*
X138196130Y-94277179D01*
X138032588Y-93882355D01*
X137795163Y-93527023D01*
X137492977Y-93224837D01*
X137137645Y-92987412D01*
X136742821Y-92823870D01*
X136323677Y-92740497D01*
X135896323Y-92740497D01*
X135477179Y-92823870D01*
X135082355Y-92987412D01*
X134727023Y-93224837D01*
X134424837Y-93527023D01*
X134270000Y-93758753D01*
X134270000Y-91942419D01*
X134273193Y-91910000D01*
X134260450Y-91780617D01*
X134222710Y-91656207D01*
X134161425Y-91541550D01*
X134078948Y-91441052D01*
X133978450Y-91358575D01*
X133863793Y-91297290D01*
X133739383Y-91259550D01*
X133642419Y-91250000D01*
X133610000Y-91246807D01*
X133577581Y-91250000D01*
X120542419Y-91250000D01*
X120510000Y-91246807D01*
X120477581Y-91250000D01*
X120380617Y-91259550D01*
X120256207Y-91297290D01*
X120141550Y-91358575D01*
X120041052Y-91441052D01*
X119958575Y-91541550D01*
X119897290Y-91656207D01*
X119859550Y-91780617D01*
X119846807Y-91910000D01*
X114197000Y-91910000D01*
X114197000Y-89644999D01*
X176621928Y-89644999D01*
X176621928Y-91245001D01*
X176638992Y-91418255D01*
X176689528Y-91584851D01*
X176771595Y-91738387D01*
X176882038Y-91872962D01*
X177016613Y-91983405D01*
X177170149Y-92065472D01*
X177336745Y-92116008D01*
X177509999Y-92133072D01*
X180010001Y-92133072D01*
X180183255Y-92116008D01*
X180349851Y-92065472D01*
X180503387Y-91983405D01*
X180637962Y-91872962D01*
X180748405Y-91738387D01*
X180830472Y-91584851D01*
X180881008Y-91418255D01*
X180898072Y-91245001D01*
X180898072Y-89644999D01*
X180881008Y-89471745D01*
X180830472Y-89305149D01*
X180748405Y-89151613D01*
X180637962Y-89017038D01*
X180503387Y-88906595D01*
X180349851Y-88824528D01*
X180183255Y-88773992D01*
X180010001Y-88756928D01*
X177509999Y-88756928D01*
X177336745Y-88773992D01*
X177170149Y-88824528D01*
X177016613Y-88906595D01*
X176882038Y-89017038D01*
X176771595Y-89151613D01*
X176689528Y-89305149D01*
X176638992Y-89471745D01*
X176621928Y-89644999D01*
X114197000Y-89644999D01*
X114197000Y-85196983D01*
X189950000Y-85187083D01*
X189950001Y-104513000D01*
%TA.AperFunction,Conductor*%
D13*
G36*
X189950001Y-104513000D02*
G01*
X114197000Y-104513000D01*
X114197000Y-91910000D01*
X119846807Y-91910000D01*
X119850000Y-91942419D01*
X119850001Y-97877571D01*
X119846807Y-97910000D01*
X119859550Y-98039383D01*
X119897290Y-98163793D01*
X119958575Y-98278450D01*
X120041052Y-98378948D01*
X120141550Y-98461425D01*
X120256207Y-98522710D01*
X120380617Y-98560450D01*
X120477581Y-98570000D01*
X120510000Y-98573193D01*
X120542419Y-98570000D01*
X133577581Y-98570000D01*
X133610000Y-98573193D01*
X133642419Y-98570000D01*
X133739383Y-98560450D01*
X133863793Y-98522710D01*
X133978450Y-98461425D01*
X134078948Y-98378948D01*
X134161425Y-98278450D01*
X134222710Y-98163793D01*
X134260450Y-98039383D01*
X134273193Y-97910000D01*
X134270000Y-97877581D01*
X134270000Y-96061247D01*
X134424837Y-96292977D01*
X134727023Y-96595163D01*
X135082355Y-96832588D01*
X135477179Y-96996130D01*
X135896323Y-97079503D01*
X136323677Y-97079503D01*
X136742821Y-96996130D01*
X137137645Y-96832588D01*
X137492977Y-96595163D01*
X137795163Y-96292977D01*
X138032588Y-95937645D01*
X138196130Y-95542821D01*
X138279503Y-95123677D01*
X138279503Y-94696323D01*
X138230761Y-94451280D01*
X143952535Y-94451280D01*
X143952535Y-95368720D01*
X144131519Y-96268532D01*
X144482608Y-97116137D01*
X144992311Y-97878961D01*
X145641039Y-98527689D01*
X146403863Y-99037392D01*
X147251468Y-99388481D01*
X148151280Y-99567465D01*
X149068720Y-99567465D01*
X149968532Y-99388481D01*
X150816137Y-99037392D01*
X151578961Y-98527689D01*
X151611651Y-98494999D01*
X176621928Y-98494999D01*
X176621928Y-100095001D01*
X176638992Y-100268255D01*
X176689528Y-100434851D01*
X176771595Y-100588387D01*
X176882038Y-100722962D01*
X177016613Y-100833405D01*
X177170149Y-100915472D01*
X177336745Y-100966008D01*
X177509999Y-100983072D01*
X180010001Y-100983072D01*
X180183255Y-100966008D01*
X180349851Y-100915472D01*
X180503387Y-100833405D01*
X180637962Y-100722962D01*
X180748405Y-100588387D01*
X180830472Y-100434851D01*
X180881008Y-100268255D01*
X180898072Y-100095001D01*
X180898072Y-98494999D01*
X180881008Y-98321745D01*
X180830472Y-98155149D01*
X180748405Y-98001613D01*
X180637962Y-97867038D01*
X180503387Y-97756595D01*
X180349851Y-97674528D01*
X180183255Y-97623992D01*
X180010001Y-97606928D01*
X177509999Y-97606928D01*
X177336745Y-97623992D01*
X177170149Y-97674528D01*
X177016613Y-97756595D01*
X176882038Y-97867038D01*
X176771595Y-98001613D01*
X176689528Y-98155149D01*
X176638992Y-98321745D01*
X176621928Y-98494999D01*
X151611651Y-98494999D01*
X152227689Y-97878961D01*
X152718106Y-97145000D01*
X180221928Y-97145000D01*
X180234188Y-97269482D01*
X180270498Y-97389180D01*
X180329463Y-97499494D01*
X180408815Y-97596185D01*
X180505506Y-97675537D01*
X180615820Y-97734502D01*
X180735518Y-97770812D01*
X180860000Y-97783072D01*
X181374250Y-97780000D01*
X181533000Y-97621250D01*
X181533000Y-96872000D01*
X181787000Y-96872000D01*
X181787000Y-97621250D01*
X181945750Y-97780000D01*
X182460000Y-97783072D01*
X182584482Y-97770812D01*
X182704180Y-97734502D01*
X182814494Y-97675537D01*
X182911185Y-97596185D01*
X182990537Y-97499494D01*
X183049502Y-97389180D01*
X183085812Y-97269482D01*
X183098072Y-97145000D01*
X183095000Y-97030750D01*
X182936250Y-96872000D01*
X181787000Y-96872000D01*
X181533000Y-96872000D01*
X180383750Y-96872000D01*
X180225000Y-97030750D01*
X180221928Y-97145000D01*
X152718106Y-97145000D01*
X152737392Y-97116137D01*
X153088481Y-96268532D01*
X153267465Y-95368720D01*
X153267465Y-94696323D01*
X158940497Y-94696323D01*
X158940497Y-95123677D01*
X159023870Y-95542821D01*
X159187412Y-95937645D01*
X159424837Y-96292977D01*
X159727023Y-96595163D01*
X160082355Y-96832588D01*
X160477179Y-96996130D01*
X160896323Y-97079503D01*
X161323677Y-97079503D01*
X161742821Y-96996130D01*
X162137645Y-96832588D01*
X162492977Y-96595163D01*
X162795163Y-96292977D01*
X163032588Y-95937645D01*
X163050252Y-95895000D01*
X180221928Y-95895000D01*
X180234188Y-96019482D01*
X180264680Y-96120000D01*
X180234188Y-96220518D01*
X180221928Y-96345000D01*
X180225000Y-96459250D01*
X180383750Y-96618000D01*
X181533000Y-96618000D01*
X181533000Y-95622000D01*
X181787000Y-95622000D01*
X181787000Y-96618000D01*
X182936250Y-96618000D01*
X183095000Y-96459250D01*
X183098072Y-96345000D01*
X183085812Y-96220518D01*
X183055320Y-96120000D01*
X183085812Y-96019482D01*
X183098072Y-95895000D01*
X183095000Y-95780750D01*
X182936250Y-95622000D01*
X181787000Y-95622000D01*
X181533000Y-95622000D01*
X180383750Y-95622000D01*
X180225000Y-95780750D01*
X180221928Y-95895000D01*
X163050252Y-95895000D01*
X163196130Y-95542821D01*
X163279503Y-95123677D01*
X163279503Y-94696323D01*
X163196130Y-94277179D01*
X163032588Y-93882355D01*
X162795163Y-93527023D01*
X162492977Y-93224837D01*
X162137645Y-92987412D01*
X161742821Y-92823870D01*
X161597682Y-92795000D01*
X180221928Y-92795000D01*
X180221928Y-93195000D01*
X180238031Y-93358500D01*
X180285722Y-93515716D01*
X180341463Y-93620000D01*
X180285722Y-93724284D01*
X180238031Y-93881500D01*
X180221928Y-94045000D01*
X180221928Y-94445000D01*
X180238031Y-94608500D01*
X180285722Y-94765716D01*
X180300855Y-94794027D01*
X180270498Y-94850820D01*
X180234188Y-94970518D01*
X180221928Y-95095000D01*
X180225000Y-95209250D01*
X180383750Y-95368000D01*
X181533000Y-95368000D01*
X181533000Y-95348000D01*
X181787000Y-95348000D01*
X181787000Y-95368000D01*
X182936250Y-95368000D01*
X183095000Y-95209250D01*
X183097534Y-95115000D01*
X183481546Y-95115000D01*
X183529744Y-95147205D01*
X183718102Y-95225226D01*
X183918061Y-95265000D01*
X184121939Y-95265000D01*
X184321898Y-95225226D01*
X184510256Y-95147205D01*
X184679774Y-95033937D01*
X184823937Y-94889774D01*
X184832472Y-94877000D01*
X184850000Y-94877000D01*
X184874776Y-94874560D01*
X184898601Y-94867333D01*
X184920557Y-94855597D01*
X184939803Y-94839803D01*
X184955597Y-94820557D01*
X184967333Y-94798601D01*
X184974560Y-94774776D01*
X184977000Y-94750000D01*
X184977000Y-94624183D01*
X185015226Y-94531898D01*
X185055000Y-94331939D01*
X185055000Y-94128061D01*
X185015226Y-93928102D01*
X184977000Y-93835817D01*
X184977000Y-93350041D01*
X185005226Y-93281898D01*
X185045000Y-93081939D01*
X185045000Y-92878061D01*
X185005226Y-92678102D01*
X184977000Y-92609959D01*
X184977000Y-92400000D01*
X184974560Y-92375224D01*
X184967333Y-92351399D01*
X184955597Y-92329443D01*
X184939803Y-92310197D01*
X184920557Y-92294403D01*
X184898601Y-92282667D01*
X184874776Y-92275440D01*
X184850000Y-92273000D01*
X184766711Y-92273000D01*
X184669774Y-92176063D01*
X184500256Y-92062795D01*
X184311898Y-91984774D01*
X184111939Y-91945000D01*
X183908061Y-91945000D01*
X183708102Y-91984774D01*
X183519744Y-92062795D01*
X183471546Y-92095000D01*
X182719679Y-92095000D01*
X182580716Y-92020722D01*
X182423500Y-91973031D01*
X182260000Y-91956928D01*
X181060000Y-91956928D01*
X180896500Y-91973031D01*
X180739284Y-92020722D01*
X180594392Y-92098169D01*
X180467394Y-92202394D01*
X180363169Y-92329392D01*
X180285722Y-92474284D01*
X180238031Y-92631500D01*
X180221928Y-92795000D01*
X161597682Y-92795000D01*
X161323677Y-92740497D01*
X160896323Y-92740497D01*
X160477179Y-92823870D01*
X160082355Y-92987412D01*
X159727023Y-93224837D01*
X159424837Y-93527023D01*
X159187412Y-93882355D01*
X159023870Y-94277179D01*
X158940497Y-94696323D01*
X153267465Y-94696323D01*
X153267465Y-94451280D01*
X153088481Y-93551468D01*
X152737392Y-92703863D01*
X152227689Y-91941039D01*
X151578961Y-91292311D01*
X150816137Y-90782608D01*
X149968532Y-90431519D01*
X149068720Y-90252535D01*
X148151280Y-90252535D01*
X147251468Y-90431519D01*
X146403863Y-90782608D01*
X145641039Y-91292311D01*
X144992311Y-91941039D01*
X144482608Y-92703863D01*
X144131519Y-93551468D01*
X143952535Y-94451280D01*
X138230761Y-94451280D01*
X138196130Y-94277179D01*
X138032588Y-93882355D01*
X137795163Y-93527023D01*
X137492977Y-93224837D01*
X137137645Y-92987412D01*
X136742821Y-92823870D01*
X136323677Y-92740497D01*
X135896323Y-92740497D01*
X135477179Y-92823870D01*
X135082355Y-92987412D01*
X134727023Y-93224837D01*
X134424837Y-93527023D01*
X134270000Y-93758753D01*
X134270000Y-91942419D01*
X134273193Y-91910000D01*
X134260450Y-91780617D01*
X134222710Y-91656207D01*
X134161425Y-91541550D01*
X134078948Y-91441052D01*
X133978450Y-91358575D01*
X133863793Y-91297290D01*
X133739383Y-91259550D01*
X133642419Y-91250000D01*
X133610000Y-91246807D01*
X133577581Y-91250000D01*
X120542419Y-91250000D01*
X120510000Y-91246807D01*
X120477581Y-91250000D01*
X120380617Y-91259550D01*
X120256207Y-91297290D01*
X120141550Y-91358575D01*
X120041052Y-91441052D01*
X119958575Y-91541550D01*
X119897290Y-91656207D01*
X119859550Y-91780617D01*
X119846807Y-91910000D01*
X114197000Y-91910000D01*
X114197000Y-89644999D01*
X176621928Y-89644999D01*
X176621928Y-91245001D01*
X176638992Y-91418255D01*
X176689528Y-91584851D01*
X176771595Y-91738387D01*
X176882038Y-91872962D01*
X177016613Y-91983405D01*
X177170149Y-92065472D01*
X177336745Y-92116008D01*
X177509999Y-92133072D01*
X180010001Y-92133072D01*
X180183255Y-92116008D01*
X180349851Y-92065472D01*
X180503387Y-91983405D01*
X180637962Y-91872962D01*
X180748405Y-91738387D01*
X180830472Y-91584851D01*
X180881008Y-91418255D01*
X180898072Y-91245001D01*
X180898072Y-89644999D01*
X180881008Y-89471745D01*
X180830472Y-89305149D01*
X180748405Y-89151613D01*
X180637962Y-89017038D01*
X180503387Y-88906595D01*
X180349851Y-88824528D01*
X180183255Y-88773992D01*
X180010001Y-88756928D01*
X177509999Y-88756928D01*
X177336745Y-88773992D01*
X177170149Y-88824528D01*
X177016613Y-88906595D01*
X176882038Y-89017038D01*
X176771595Y-89151613D01*
X176689528Y-89305149D01*
X176638992Y-89471745D01*
X176621928Y-89644999D01*
X114197000Y-89644999D01*
X114197000Y-85196983D01*
X189950000Y-85187083D01*
X189950001Y-104513000D01*
G37*
%TD.AperFunction*%
%TD*%
M02*
