%TF.GenerationSoftware,KiCad,Pcbnew,(5.1.9-0-10_14)*%
%TF.CreationDate,2022-02-18T16:21:06-06:00*%
%TF.ProjectId,OwlSat_Z_Panel,4f776c53-6174-45f5-9a5f-50616e656c2e,rev?*%
%TF.SameCoordinates,Original*%
%TF.FileFunction,Paste,Top*%
%TF.FilePolarity,Positive*%
%FSLAX46Y46*%
G04 Gerber Fmt 4.6, Leading zero omitted, Abs format (unit mm)*
G04 Created by KiCad (PCBNEW (5.1.9-0-10_14)) date 2022-02-18 16:21:06*
%MOMM*%
%LPD*%
G01*
G04 APERTURE LIST*
G04 APERTURE END LIST*
%TO.C,U1*%
G36*
G01*
X123230000Y-72800000D02*
X123230000Y-78500000D01*
G75*
G02*
X122580000Y-79150000I-650000J0D01*
G01*
X121280000Y-79150000D01*
G75*
G02*
X120630000Y-78500000I0J650000D01*
G01*
X120630000Y-72800000D01*
G75*
G02*
X121280000Y-72150000I650000J0D01*
G01*
X122580000Y-72150000D01*
G75*
G02*
X123230000Y-72800000I0J-650000D01*
G01*
G37*
G36*
G01*
X140780000Y-72800000D02*
X140780000Y-78500000D01*
G75*
G02*
X140130000Y-79150000I-650000J0D01*
G01*
X138830000Y-79150000D01*
G75*
G02*
X138180000Y-78500000I0J650000D01*
G01*
X138180000Y-72800000D01*
G75*
G02*
X138830000Y-72150000I650000J0D01*
G01*
X140130000Y-72150000D01*
G75*
G02*
X140780000Y-72800000I0J-650000D01*
G01*
G37*
G36*
G01*
X147310000Y-73395000D02*
X147310000Y-76145000D01*
G75*
G02*
X146060000Y-77395000I-1250000J0D01*
G01*
X143560000Y-77395000D01*
G75*
G02*
X142310000Y-76145000I0J1250000D01*
G01*
X142310000Y-73395000D01*
G75*
G02*
X143560000Y-72145000I1250000J0D01*
G01*
X146060000Y-72145000D01*
G75*
G02*
X147310000Y-73395000I0J-1250000D01*
G01*
G37*
G36*
G01*
X167680000Y-72800000D02*
X167680000Y-78500000D01*
G75*
G02*
X167030000Y-79150000I-650000J0D01*
G01*
X165730000Y-79150000D01*
G75*
G02*
X165080000Y-78500000I0J650000D01*
G01*
X165080000Y-72800000D01*
G75*
G02*
X165730000Y-72150000I650000J0D01*
G01*
X167030000Y-72150000D01*
G75*
G02*
X167680000Y-72800000I0J-650000D01*
G01*
G37*
%TD*%
%TO.C,U2*%
G36*
G01*
X131570000Y-91530000D02*
X131570000Y-85830000D01*
G75*
G02*
X132220000Y-85180000I650000J0D01*
G01*
X133520000Y-85180000D01*
G75*
G02*
X134170000Y-85830000I0J-650000D01*
G01*
X134170000Y-91530000D01*
G75*
G02*
X133520000Y-92180000I-650000J0D01*
G01*
X132220000Y-92180000D01*
G75*
G02*
X131570000Y-91530000I0J650000D01*
G01*
G37*
G36*
G01*
X151940000Y-90935000D02*
X151940000Y-88185000D01*
G75*
G02*
X153190000Y-86935000I1250000J0D01*
G01*
X155690000Y-86935000D01*
G75*
G02*
X156940000Y-88185000I0J-1250000D01*
G01*
X156940000Y-90935000D01*
G75*
G02*
X155690000Y-92185000I-1250000J0D01*
G01*
X153190000Y-92185000D01*
G75*
G02*
X151940000Y-90935000I0J1250000D01*
G01*
G37*
G36*
G01*
X158470000Y-91530000D02*
X158470000Y-85830000D01*
G75*
G02*
X159120000Y-85180000I650000J0D01*
G01*
X160420000Y-85180000D01*
G75*
G02*
X161070000Y-85830000I0J-650000D01*
G01*
X161070000Y-91530000D01*
G75*
G02*
X160420000Y-92180000I-650000J0D01*
G01*
X159120000Y-92180000D01*
G75*
G02*
X158470000Y-91530000I0J650000D01*
G01*
G37*
G36*
G01*
X176020000Y-91530000D02*
X176020000Y-85830000D01*
G75*
G02*
X176670000Y-85180000I650000J0D01*
G01*
X177970000Y-85180000D01*
G75*
G02*
X178620000Y-85830000I0J-650000D01*
G01*
X178620000Y-91530000D01*
G75*
G02*
X177970000Y-92180000I-650000J0D01*
G01*
X176670000Y-92180000D01*
G75*
G02*
X176020000Y-91530000I0J650000D01*
G01*
G37*
%TD*%
M02*
