%TF.GenerationSoftware,KiCad,Pcbnew,(5.1.9-0-10_14)*%
%TF.CreationDate,2022-02-18T16:21:06-06:00*%
%TF.ProjectId,OwlSat_Z_Panel,4f776c53-6174-45f5-9a5f-50616e656c2e,rev?*%
%TF.SameCoordinates,Original*%
%TF.FileFunction,Copper,L2,Bot*%
%TF.FilePolarity,Positive*%
%FSLAX46Y46*%
G04 Gerber Fmt 4.6, Leading zero omitted, Abs format (unit mm)*
G04 Created by KiCad (PCBNEW (5.1.9-0-10_14)) date 2022-02-18 16:21:06*
%MOMM*%
%LPD*%
G01*
G04 APERTURE LIST*
%TA.AperFunction,ComponentPad*%
%ADD10C,1.524000*%
%TD*%
%TA.AperFunction,ViaPad*%
%ADD11C,0.800000*%
%TD*%
%TA.AperFunction,Conductor*%
%ADD12C,0.250000*%
%TD*%
%TA.AperFunction,Conductor*%
%ADD13C,0.254000*%
%TD*%
%TA.AperFunction,Conductor*%
%ADD14C,0.100000*%
%TD*%
G04 APERTURE END LIST*
%TO.P,U3,1*%
%TO.N,Net-(U1-Pad2)*%
%TA.AperFunction,SMDPad,CuDef*%
G36*
G01*
X183000000Y-84425000D02*
X181800000Y-84425000D01*
G75*
G02*
X181600000Y-84225000I0J200000D01*
G01*
X181600000Y-83825000D01*
G75*
G02*
X181800000Y-83625000I200000J0D01*
G01*
X183000000Y-83625000D01*
G75*
G02*
X183200000Y-83825000I0J-200000D01*
G01*
X183200000Y-84225000D01*
G75*
G02*
X183000000Y-84425000I-200000J0D01*
G01*
G37*
%TD.AperFunction*%
%TO.P,U3,2*%
%TA.AperFunction,SMDPad,CuDef*%
G36*
G01*
X183000000Y-83175000D02*
X181800000Y-83175000D01*
G75*
G02*
X181600000Y-82975000I0J200000D01*
G01*
X181600000Y-82575000D01*
G75*
G02*
X181800000Y-82375000I200000J0D01*
G01*
X183000000Y-82375000D01*
G75*
G02*
X183200000Y-82575000I0J-200000D01*
G01*
X183200000Y-82975000D01*
G75*
G02*
X183000000Y-83175000I-200000J0D01*
G01*
G37*
%TD.AperFunction*%
%TO.P,U3,3*%
%TO.N,Net-(U1-Pad1)*%
%TA.AperFunction,SMDPad,CuDef*%
G36*
G01*
X183000000Y-81925000D02*
X181800000Y-81925000D01*
G75*
G02*
X181600000Y-81725000I0J200000D01*
G01*
X181600000Y-81325000D01*
G75*
G02*
X181800000Y-81125000I200000J0D01*
G01*
X183000000Y-81125000D01*
G75*
G02*
X183200000Y-81325000I0J-200000D01*
G01*
X183200000Y-81725000D01*
G75*
G02*
X183000000Y-81925000I-200000J0D01*
G01*
G37*
%TD.AperFunction*%
%TO.P,U3,4*%
%TA.AperFunction,SMDPad,CuDef*%
G36*
G01*
X183000000Y-80675000D02*
X181800000Y-80675000D01*
G75*
G02*
X181600000Y-80475000I0J200000D01*
G01*
X181600000Y-80075000D01*
G75*
G02*
X181800000Y-79875000I200000J0D01*
G01*
X183000000Y-79875000D01*
G75*
G02*
X183200000Y-80075000I0J-200000D01*
G01*
X183200000Y-80475000D01*
G75*
G02*
X183000000Y-80675000I-200000J0D01*
G01*
G37*
%TD.AperFunction*%
%TO.P,U3,MP*%
%TO.N,N/C*%
%TA.AperFunction,SMDPad,CuDef*%
G36*
G01*
X180750001Y-87625000D02*
X178249999Y-87625000D01*
G75*
G02*
X178000000Y-87375001I0J249999D01*
G01*
X178000000Y-85774999D01*
G75*
G02*
X178249999Y-85525000I249999J0D01*
G01*
X180750001Y-85525000D01*
G75*
G02*
X181000000Y-85774999I0J-249999D01*
G01*
X181000000Y-87375001D01*
G75*
G02*
X180750001Y-87625000I-249999J0D01*
G01*
G37*
%TD.AperFunction*%
%TA.AperFunction,SMDPad,CuDef*%
G36*
G01*
X180750001Y-78775000D02*
X178249999Y-78775000D01*
G75*
G02*
X178000000Y-78525001I0J249999D01*
G01*
X178000000Y-76924999D01*
G75*
G02*
X178249999Y-76675000I249999J0D01*
G01*
X180750001Y-76675000D01*
G75*
G02*
X181000000Y-76924999I0J-249999D01*
G01*
X181000000Y-78525001D01*
G75*
G02*
X180750001Y-78775000I-249999J0D01*
G01*
G37*
%TD.AperFunction*%
%TD*%
%TO.P,U4,1*%
%TO.N,Net-(U4-Pad1)*%
%TA.AperFunction,SMDPad,CuDef*%
G36*
G01*
X117320000Y-83445000D02*
X118520000Y-83445000D01*
G75*
G02*
X118720000Y-83645000I0J-200000D01*
G01*
X118720000Y-84045000D01*
G75*
G02*
X118520000Y-84245000I-200000J0D01*
G01*
X117320000Y-84245000D01*
G75*
G02*
X117120000Y-84045000I0J200000D01*
G01*
X117120000Y-83645000D01*
G75*
G02*
X117320000Y-83445000I200000J0D01*
G01*
G37*
%TD.AperFunction*%
%TO.P,U4,2*%
%TO.N,Net-(U4-Pad2)*%
%TA.AperFunction,SMDPad,CuDef*%
G36*
G01*
X117320000Y-84695000D02*
X118520000Y-84695000D01*
G75*
G02*
X118720000Y-84895000I0J-200000D01*
G01*
X118720000Y-85295000D01*
G75*
G02*
X118520000Y-85495000I-200000J0D01*
G01*
X117320000Y-85495000D01*
G75*
G02*
X117120000Y-85295000I0J200000D01*
G01*
X117120000Y-84895000D01*
G75*
G02*
X117320000Y-84695000I200000J0D01*
G01*
G37*
%TD.AperFunction*%
%TO.P,U4,MP*%
%TO.N,N/C*%
%TA.AperFunction,SMDPad,CuDef*%
G36*
G01*
X119570000Y-80245000D02*
X122070000Y-80245000D01*
G75*
G02*
X122320000Y-80495000I0J-250000D01*
G01*
X122320000Y-82095000D01*
G75*
G02*
X122070000Y-82345000I-250000J0D01*
G01*
X119570000Y-82345000D01*
G75*
G02*
X119320000Y-82095000I0J250000D01*
G01*
X119320000Y-80495000D01*
G75*
G02*
X119570000Y-80245000I250000J0D01*
G01*
G37*
%TD.AperFunction*%
%TA.AperFunction,SMDPad,CuDef*%
G36*
G01*
X119570000Y-86595000D02*
X122070000Y-86595000D01*
G75*
G02*
X122320000Y-86845000I0J-250000D01*
G01*
X122320000Y-88445000D01*
G75*
G02*
X122070000Y-88695000I-250000J0D01*
G01*
X119570000Y-88695000D01*
G75*
G02*
X119320000Y-88445000I0J250000D01*
G01*
X119320000Y-86845000D01*
G75*
G02*
X119570000Y-86595000I250000J0D01*
G01*
G37*
%TD.AperFunction*%
%TD*%
D10*
%TO.P,U5,1*%
%TO.N,Net-(U4-Pad1)*%
X112510000Y-83370000D03*
%TO.P,U5,2*%
%TO.N,Net-(U4-Pad2)*%
X112510000Y-85910000D03*
%TD*%
D11*
%TO.N,Net-(U1-Pad1)*%
X184840000Y-80270000D03*
X184840000Y-81540000D03*
%TO.N,Net-(U1-Pad2)*%
X148910000Y-73260000D03*
X148920000Y-74490000D03*
X148920000Y-75820000D03*
X150370000Y-88350000D03*
X150380000Y-89570000D03*
X150380000Y-90830000D03*
%TD*%
D12*
%TO.N,Net-(U1-Pad1)*%
X184835000Y-80275000D02*
X184840000Y-80270000D01*
X182400000Y-80275000D02*
X184835000Y-80275000D01*
X184825000Y-81525000D02*
X184840000Y-81540000D01*
X182400000Y-81525000D02*
X184825000Y-81525000D01*
%TO.N,Net-(U4-Pad1)*%
X112510000Y-83370000D02*
X114490000Y-83370000D01*
X114965000Y-83845000D02*
X117920000Y-83845000D01*
X114490000Y-83370000D02*
X114965000Y-83845000D01*
%TO.N,Net-(U4-Pad2)*%
X112510000Y-85910000D02*
X113660000Y-85910000D01*
X114475000Y-85095000D02*
X117920000Y-85095000D01*
X113660000Y-85910000D02*
X114475000Y-85095000D01*
%TD*%
D13*
%TO.N,Net-(U1-Pad2)*%
X115787023Y-72514837D02*
X115484837Y-72817023D01*
X115247412Y-73172355D01*
X115083870Y-73567179D01*
X115000497Y-73986323D01*
X115000497Y-74413677D01*
X115083870Y-74832821D01*
X115247412Y-75227645D01*
X115484837Y-75582977D01*
X115787023Y-75885163D01*
X116142355Y-76122588D01*
X116537179Y-76286130D01*
X116956323Y-76369503D01*
X117383677Y-76369503D01*
X117802821Y-76286130D01*
X118197645Y-76122588D01*
X118552977Y-75885163D01*
X118855163Y-75582977D01*
X119092588Y-75227645D01*
X119256130Y-74832821D01*
X119339503Y-74413677D01*
X119339503Y-73986323D01*
X119256130Y-73567179D01*
X119092588Y-73172355D01*
X118855163Y-72817023D01*
X118552977Y-72514837D01*
X118286825Y-72337000D01*
X194463000Y-72337000D01*
X194463000Y-91993000D01*
X183391646Y-91993000D01*
X183552998Y-91885188D01*
X183855188Y-91582998D01*
X184092617Y-91227660D01*
X184256162Y-90832830D01*
X184339536Y-90413681D01*
X184339536Y-89986319D01*
X184256162Y-89567170D01*
X184092617Y-89172340D01*
X183855188Y-88817002D01*
X183552998Y-88514812D01*
X183197660Y-88277383D01*
X182802830Y-88113838D01*
X182383681Y-88030464D01*
X181956319Y-88030464D01*
X181537170Y-88113838D01*
X181142340Y-88277383D01*
X180787002Y-88514812D01*
X180484812Y-88817002D01*
X180247383Y-89172340D01*
X180083838Y-89567170D01*
X180000464Y-89986319D01*
X180000464Y-90413681D01*
X180083838Y-90832830D01*
X180247383Y-91227660D01*
X180484812Y-91582998D01*
X180787002Y-91885188D01*
X180948354Y-91993000D01*
X109977000Y-91993000D01*
X109977000Y-88467000D01*
X118684095Y-88467000D01*
X118698992Y-88618254D01*
X118749528Y-88784850D01*
X118831595Y-88938386D01*
X118942038Y-89072962D01*
X119076614Y-89183405D01*
X119230150Y-89265472D01*
X119396746Y-89316008D01*
X119570000Y-89333072D01*
X122070000Y-89333072D01*
X122243254Y-89316008D01*
X122409850Y-89265472D01*
X122563386Y-89183405D01*
X122697962Y-89072962D01*
X122808405Y-88938386D01*
X122890472Y-88784850D01*
X122941008Y-88618254D01*
X122955905Y-88467000D01*
X124240000Y-88467000D01*
X124264939Y-88464527D01*
X124288754Y-88457269D01*
X124310695Y-88445505D01*
X124329919Y-88429686D01*
X124345688Y-88410420D01*
X124357396Y-88388448D01*
X124364592Y-88364614D01*
X124367000Y-88339835D01*
X124358548Y-81848305D01*
X137515313Y-81848305D01*
X137515313Y-82471695D01*
X137636930Y-83083105D01*
X137875490Y-83659042D01*
X138221827Y-84177371D01*
X138662629Y-84618173D01*
X139180958Y-84964510D01*
X139756895Y-85203070D01*
X140368305Y-85324687D01*
X140991695Y-85324687D01*
X141603105Y-85203070D01*
X142179042Y-84964510D01*
X142697371Y-84618173D01*
X143138173Y-84177371D01*
X143484510Y-83659042D01*
X143723070Y-83083105D01*
X143844687Y-82471695D01*
X143844687Y-81848305D01*
X143807231Y-81660000D01*
X144006807Y-81660000D01*
X144010000Y-81692420D01*
X144010001Y-82627571D01*
X144006807Y-82660000D01*
X144019550Y-82789383D01*
X144057290Y-82913793D01*
X144118575Y-83028450D01*
X144201052Y-83128948D01*
X144301550Y-83211425D01*
X144416207Y-83272710D01*
X144540617Y-83310450D01*
X144637581Y-83320000D01*
X144670000Y-83323193D01*
X144702419Y-83320000D01*
X145131717Y-83320000D01*
X145149968Y-83408910D01*
X145165750Y-83459891D01*
X145179810Y-83511377D01*
X145183154Y-83519964D01*
X145473729Y-84251075D01*
X145501126Y-84304213D01*
X145527809Y-84357789D01*
X145532757Y-84365563D01*
X145959804Y-85026310D01*
X145997019Y-85073138D01*
X146033583Y-85120489D01*
X146039947Y-85127154D01*
X146587201Y-85692370D01*
X146632822Y-85731093D01*
X146677866Y-85770423D01*
X146685403Y-85775725D01*
X147332019Y-86223881D01*
X147384247Y-86252981D01*
X147436119Y-86282839D01*
X147444542Y-86286576D01*
X148165891Y-86600602D01*
X148222800Y-86619010D01*
X148279459Y-86638216D01*
X148288448Y-86640246D01*
X149057054Y-86808181D01*
X149116457Y-86815185D01*
X149175765Y-86823020D01*
X149184977Y-86823265D01*
X149971565Y-86838712D01*
X150031185Y-86834046D01*
X150090897Y-86830211D01*
X150099981Y-86828662D01*
X150874587Y-86691033D01*
X150932165Y-86674875D01*
X150989996Y-86659515D01*
X150998607Y-86656231D01*
X151731729Y-86370767D01*
X151785094Y-86343722D01*
X151838817Y-86317433D01*
X151846625Y-86312539D01*
X152510338Y-85890115D01*
X152557414Y-85853236D01*
X152605028Y-85816997D01*
X152611738Y-85810680D01*
X152649108Y-85774999D01*
X177361928Y-85774999D01*
X177361928Y-87375001D01*
X177378992Y-87548255D01*
X177429528Y-87714851D01*
X177511595Y-87868387D01*
X177622038Y-88002962D01*
X177756613Y-88113405D01*
X177910149Y-88195472D01*
X178076745Y-88246008D01*
X178249999Y-88263072D01*
X180750001Y-88263072D01*
X180923255Y-88246008D01*
X181089851Y-88195472D01*
X181243387Y-88113405D01*
X181377962Y-88002962D01*
X181488405Y-87868387D01*
X181570472Y-87714851D01*
X181621008Y-87548255D01*
X181638072Y-87375001D01*
X181638072Y-85774999D01*
X181621008Y-85601745D01*
X181570472Y-85435149D01*
X181488405Y-85281613D01*
X181377962Y-85147038D01*
X181243387Y-85036595D01*
X181089851Y-84954528D01*
X180923255Y-84903992D01*
X180750001Y-84886928D01*
X178249999Y-84886928D01*
X178076745Y-84903992D01*
X177910149Y-84954528D01*
X177756613Y-85036595D01*
X177622038Y-85147038D01*
X177511595Y-85281613D01*
X177429528Y-85435149D01*
X177378992Y-85601745D01*
X177361928Y-85774999D01*
X152649108Y-85774999D01*
X153180762Y-85267385D01*
X153219774Y-85222069D01*
X153259447Y-85177267D01*
X153264801Y-85169766D01*
X153717461Y-84526295D01*
X153746943Y-84474238D01*
X153777143Y-84422609D01*
X153780939Y-84414212D01*
X154099993Y-83695073D01*
X154118797Y-83638296D01*
X154138399Y-83581771D01*
X154140491Y-83572796D01*
X154197577Y-83320000D01*
X154637581Y-83320000D01*
X154670000Y-83323193D01*
X154702419Y-83320000D01*
X154799383Y-83310450D01*
X154923793Y-83272710D01*
X155038450Y-83211425D01*
X155138948Y-83128948D01*
X155221425Y-83028450D01*
X155282710Y-82913793D01*
X155320450Y-82789383D01*
X155333193Y-82660000D01*
X155330000Y-82627581D01*
X155330000Y-81848305D01*
X155515313Y-81848305D01*
X155515313Y-82471695D01*
X155636930Y-83083105D01*
X155875490Y-83659042D01*
X156221827Y-84177371D01*
X156662629Y-84618173D01*
X157180958Y-84964510D01*
X157756895Y-85203070D01*
X158368305Y-85324687D01*
X158991695Y-85324687D01*
X159603105Y-85203070D01*
X160179042Y-84964510D01*
X160697371Y-84618173D01*
X160890544Y-84425000D01*
X180961928Y-84425000D01*
X180974188Y-84549482D01*
X181010498Y-84669180D01*
X181069463Y-84779494D01*
X181148815Y-84876185D01*
X181245506Y-84955537D01*
X181355820Y-85014502D01*
X181475518Y-85050812D01*
X181600000Y-85063072D01*
X182114250Y-85060000D01*
X182273000Y-84901250D01*
X182273000Y-84152000D01*
X182527000Y-84152000D01*
X182527000Y-84901250D01*
X182685750Y-85060000D01*
X183200000Y-85063072D01*
X183324482Y-85050812D01*
X183444180Y-85014502D01*
X183554494Y-84955537D01*
X183651185Y-84876185D01*
X183730537Y-84779494D01*
X183789502Y-84669180D01*
X183825812Y-84549482D01*
X183838072Y-84425000D01*
X183835000Y-84310750D01*
X183676250Y-84152000D01*
X182527000Y-84152000D01*
X182273000Y-84152000D01*
X181123750Y-84152000D01*
X180965000Y-84310750D01*
X180961928Y-84425000D01*
X160890544Y-84425000D01*
X161138173Y-84177371D01*
X161484510Y-83659042D01*
X161685005Y-83175000D01*
X180961928Y-83175000D01*
X180974188Y-83299482D01*
X181004680Y-83400000D01*
X180974188Y-83500518D01*
X180961928Y-83625000D01*
X180965000Y-83739250D01*
X181123750Y-83898000D01*
X182273000Y-83898000D01*
X182273000Y-82902000D01*
X182527000Y-82902000D01*
X182527000Y-83898000D01*
X183676250Y-83898000D01*
X183835000Y-83739250D01*
X183838072Y-83625000D01*
X183825812Y-83500518D01*
X183795320Y-83400000D01*
X183825812Y-83299482D01*
X183838072Y-83175000D01*
X183835000Y-83060750D01*
X183676250Y-82902000D01*
X182527000Y-82902000D01*
X182273000Y-82902000D01*
X181123750Y-82902000D01*
X180965000Y-83060750D01*
X180961928Y-83175000D01*
X161685005Y-83175000D01*
X161723070Y-83083105D01*
X161844687Y-82471695D01*
X161844687Y-81848305D01*
X161723070Y-81236895D01*
X161484510Y-80660958D01*
X161138173Y-80142629D01*
X161070544Y-80075000D01*
X180961928Y-80075000D01*
X180961928Y-80475000D01*
X180978031Y-80638500D01*
X181025722Y-80795716D01*
X181081463Y-80900000D01*
X181025722Y-81004284D01*
X180978031Y-81161500D01*
X180961928Y-81325000D01*
X180961928Y-81725000D01*
X180978031Y-81888500D01*
X181025722Y-82045716D01*
X181040855Y-82074027D01*
X181010498Y-82130820D01*
X180974188Y-82250518D01*
X180961928Y-82375000D01*
X180965000Y-82489250D01*
X181123750Y-82648000D01*
X182273000Y-82648000D01*
X182273000Y-82628000D01*
X182527000Y-82628000D01*
X182527000Y-82648000D01*
X183676250Y-82648000D01*
X183835000Y-82489250D01*
X183838072Y-82375000D01*
X183829208Y-82285000D01*
X184121289Y-82285000D01*
X184180226Y-82343937D01*
X184349744Y-82457205D01*
X184538102Y-82535226D01*
X184738061Y-82575000D01*
X184941939Y-82575000D01*
X185141898Y-82535226D01*
X185330256Y-82457205D01*
X185499774Y-82343937D01*
X185643937Y-82199774D01*
X185757205Y-82030256D01*
X185835226Y-81841898D01*
X185875000Y-81641939D01*
X185875000Y-81438061D01*
X185835226Y-81238102D01*
X185757205Y-81049744D01*
X185660490Y-80905000D01*
X185757205Y-80760256D01*
X185835226Y-80571898D01*
X185875000Y-80371939D01*
X185875000Y-80168061D01*
X185835226Y-79968102D01*
X185757205Y-79779744D01*
X185643937Y-79610226D01*
X185499774Y-79466063D01*
X185330256Y-79352795D01*
X185141898Y-79274774D01*
X184941939Y-79235000D01*
X184738061Y-79235000D01*
X184538102Y-79274774D01*
X184349744Y-79352795D01*
X184180226Y-79466063D01*
X184131289Y-79515000D01*
X183619365Y-79515000D01*
X183592606Y-79482394D01*
X183465608Y-79378169D01*
X183320716Y-79300722D01*
X183163500Y-79253031D01*
X183000000Y-79236928D01*
X181800000Y-79236928D01*
X181636500Y-79253031D01*
X181479284Y-79300722D01*
X181334392Y-79378169D01*
X181207394Y-79482394D01*
X181103169Y-79609392D01*
X181025722Y-79754284D01*
X180978031Y-79911500D01*
X180961928Y-80075000D01*
X161070544Y-80075000D01*
X160697371Y-79701827D01*
X160179042Y-79355490D01*
X159603105Y-79116930D01*
X158991695Y-78995313D01*
X158368305Y-78995313D01*
X157756895Y-79116930D01*
X157180958Y-79355490D01*
X156662629Y-79701827D01*
X156221827Y-80142629D01*
X155875490Y-80660958D01*
X155636930Y-81236895D01*
X155515313Y-81848305D01*
X155330000Y-81848305D01*
X155330000Y-81692419D01*
X155333193Y-81660000D01*
X155320450Y-81530617D01*
X155282710Y-81406207D01*
X155221425Y-81291550D01*
X155138948Y-81191052D01*
X155038450Y-81108575D01*
X154923793Y-81047290D01*
X154799383Y-81009550D01*
X154702419Y-81000000D01*
X154670000Y-80996807D01*
X154637581Y-81000000D01*
X154208366Y-81000000D01*
X154190395Y-80912385D01*
X154174641Y-80861467D01*
X154160606Y-80810010D01*
X154157264Y-80801422D01*
X153866917Y-80070221D01*
X153839518Y-80017041D01*
X153812869Y-79963490D01*
X153807923Y-79955714D01*
X153381079Y-79294834D01*
X153343869Y-79247983D01*
X153307330Y-79200634D01*
X153300968Y-79193967D01*
X152753888Y-78628582D01*
X152708301Y-78589863D01*
X152663247Y-78550500D01*
X152655712Y-78545196D01*
X152009234Y-78096840D01*
X151956996Y-78067714D01*
X151905153Y-78037851D01*
X151896731Y-78034112D01*
X151175479Y-77719863D01*
X151118588Y-77701441D01*
X151061922Y-77682213D01*
X151052933Y-77680181D01*
X150284380Y-77512009D01*
X150224990Y-77504988D01*
X150165672Y-77497133D01*
X150156460Y-77496885D01*
X149369879Y-77481196D01*
X149310209Y-77485848D01*
X149250544Y-77489661D01*
X149241460Y-77491207D01*
X149241456Y-77491207D01*
X148466811Y-77628597D01*
X148409257Y-77644729D01*
X148351392Y-77660079D01*
X148342781Y-77663360D01*
X147609571Y-77948597D01*
X147556221Y-77975613D01*
X147502465Y-78001898D01*
X147494656Y-78006789D01*
X146830812Y-78429008D01*
X146783696Y-78465896D01*
X146736100Y-78502098D01*
X146729388Y-78508413D01*
X146160197Y-79051533D01*
X146121153Y-79096858D01*
X146081485Y-79141627D01*
X146076128Y-79149125D01*
X145623270Y-79792457D01*
X145593782Y-79844487D01*
X145563556Y-79896123D01*
X145559758Y-79904519D01*
X145240481Y-80623561D01*
X145221666Y-80680311D01*
X145202039Y-80736852D01*
X145199944Y-80745826D01*
X145142464Y-81000000D01*
X144702419Y-81000000D01*
X144670000Y-80996807D01*
X144637581Y-81000000D01*
X144540617Y-81009550D01*
X144416207Y-81047290D01*
X144301550Y-81108575D01*
X144201052Y-81191052D01*
X144118575Y-81291550D01*
X144057290Y-81406207D01*
X144019550Y-81530617D01*
X144006807Y-81660000D01*
X143807231Y-81660000D01*
X143723070Y-81236895D01*
X143484510Y-80660958D01*
X143138173Y-80142629D01*
X142697371Y-79701827D01*
X142179042Y-79355490D01*
X141603105Y-79116930D01*
X140991695Y-78995313D01*
X140368305Y-78995313D01*
X139756895Y-79116930D01*
X139180958Y-79355490D01*
X138662629Y-79701827D01*
X138221827Y-80142629D01*
X137875490Y-80660958D01*
X137636930Y-81236895D01*
X137515313Y-81848305D01*
X124358548Y-81848305D01*
X124357000Y-80659835D01*
X124354560Y-80635224D01*
X124347333Y-80611399D01*
X124335597Y-80589443D01*
X124319803Y-80570197D01*
X124300557Y-80554403D01*
X124278601Y-80542667D01*
X124254776Y-80535440D01*
X124230000Y-80533000D01*
X122958072Y-80533000D01*
X122958072Y-80495000D01*
X122941008Y-80321746D01*
X122890472Y-80155150D01*
X122808405Y-80001614D01*
X122697962Y-79867038D01*
X122563386Y-79756595D01*
X122409850Y-79674528D01*
X122243254Y-79623992D01*
X122070000Y-79606928D01*
X119570000Y-79606928D01*
X119396746Y-79623992D01*
X119230150Y-79674528D01*
X119076614Y-79756595D01*
X118942038Y-79867038D01*
X118831595Y-80001614D01*
X118749528Y-80155150D01*
X118698992Y-80321746D01*
X118681928Y-80495000D01*
X118681928Y-80533000D01*
X109977000Y-80533000D01*
X109977000Y-76924999D01*
X177361928Y-76924999D01*
X177361928Y-78525001D01*
X177378992Y-78698255D01*
X177429528Y-78864851D01*
X177511595Y-79018387D01*
X177622038Y-79152962D01*
X177756613Y-79263405D01*
X177910149Y-79345472D01*
X178076745Y-79396008D01*
X178249999Y-79413072D01*
X180750001Y-79413072D01*
X180923255Y-79396008D01*
X181089851Y-79345472D01*
X181243387Y-79263405D01*
X181377962Y-79152962D01*
X181488405Y-79018387D01*
X181570472Y-78864851D01*
X181621008Y-78698255D01*
X181638072Y-78525001D01*
X181638072Y-76924999D01*
X181621008Y-76751745D01*
X181570472Y-76585149D01*
X181488405Y-76431613D01*
X181377962Y-76297038D01*
X181243387Y-76186595D01*
X181089851Y-76104528D01*
X180923255Y-76053992D01*
X180750001Y-76036928D01*
X178249999Y-76036928D01*
X178076745Y-76053992D01*
X177910149Y-76104528D01*
X177756613Y-76186595D01*
X177622038Y-76297038D01*
X177511595Y-76431613D01*
X177429528Y-76585149D01*
X177378992Y-76751745D01*
X177361928Y-76924999D01*
X109977000Y-76924999D01*
X109977000Y-72337000D01*
X116053175Y-72337000D01*
X115787023Y-72514837D01*
%TA.AperFunction,Conductor*%
D14*
G36*
X115787023Y-72514837D02*
G01*
X115484837Y-72817023D01*
X115247412Y-73172355D01*
X115083870Y-73567179D01*
X115000497Y-73986323D01*
X115000497Y-74413677D01*
X115083870Y-74832821D01*
X115247412Y-75227645D01*
X115484837Y-75582977D01*
X115787023Y-75885163D01*
X116142355Y-76122588D01*
X116537179Y-76286130D01*
X116956323Y-76369503D01*
X117383677Y-76369503D01*
X117802821Y-76286130D01*
X118197645Y-76122588D01*
X118552977Y-75885163D01*
X118855163Y-75582977D01*
X119092588Y-75227645D01*
X119256130Y-74832821D01*
X119339503Y-74413677D01*
X119339503Y-73986323D01*
X119256130Y-73567179D01*
X119092588Y-73172355D01*
X118855163Y-72817023D01*
X118552977Y-72514837D01*
X118286825Y-72337000D01*
X194463000Y-72337000D01*
X194463000Y-91993000D01*
X183391646Y-91993000D01*
X183552998Y-91885188D01*
X183855188Y-91582998D01*
X184092617Y-91227660D01*
X184256162Y-90832830D01*
X184339536Y-90413681D01*
X184339536Y-89986319D01*
X184256162Y-89567170D01*
X184092617Y-89172340D01*
X183855188Y-88817002D01*
X183552998Y-88514812D01*
X183197660Y-88277383D01*
X182802830Y-88113838D01*
X182383681Y-88030464D01*
X181956319Y-88030464D01*
X181537170Y-88113838D01*
X181142340Y-88277383D01*
X180787002Y-88514812D01*
X180484812Y-88817002D01*
X180247383Y-89172340D01*
X180083838Y-89567170D01*
X180000464Y-89986319D01*
X180000464Y-90413681D01*
X180083838Y-90832830D01*
X180247383Y-91227660D01*
X180484812Y-91582998D01*
X180787002Y-91885188D01*
X180948354Y-91993000D01*
X109977000Y-91993000D01*
X109977000Y-88467000D01*
X118684095Y-88467000D01*
X118698992Y-88618254D01*
X118749528Y-88784850D01*
X118831595Y-88938386D01*
X118942038Y-89072962D01*
X119076614Y-89183405D01*
X119230150Y-89265472D01*
X119396746Y-89316008D01*
X119570000Y-89333072D01*
X122070000Y-89333072D01*
X122243254Y-89316008D01*
X122409850Y-89265472D01*
X122563386Y-89183405D01*
X122697962Y-89072962D01*
X122808405Y-88938386D01*
X122890472Y-88784850D01*
X122941008Y-88618254D01*
X122955905Y-88467000D01*
X124240000Y-88467000D01*
X124264939Y-88464527D01*
X124288754Y-88457269D01*
X124310695Y-88445505D01*
X124329919Y-88429686D01*
X124345688Y-88410420D01*
X124357396Y-88388448D01*
X124364592Y-88364614D01*
X124367000Y-88339835D01*
X124358548Y-81848305D01*
X137515313Y-81848305D01*
X137515313Y-82471695D01*
X137636930Y-83083105D01*
X137875490Y-83659042D01*
X138221827Y-84177371D01*
X138662629Y-84618173D01*
X139180958Y-84964510D01*
X139756895Y-85203070D01*
X140368305Y-85324687D01*
X140991695Y-85324687D01*
X141603105Y-85203070D01*
X142179042Y-84964510D01*
X142697371Y-84618173D01*
X143138173Y-84177371D01*
X143484510Y-83659042D01*
X143723070Y-83083105D01*
X143844687Y-82471695D01*
X143844687Y-81848305D01*
X143807231Y-81660000D01*
X144006807Y-81660000D01*
X144010000Y-81692420D01*
X144010001Y-82627571D01*
X144006807Y-82660000D01*
X144019550Y-82789383D01*
X144057290Y-82913793D01*
X144118575Y-83028450D01*
X144201052Y-83128948D01*
X144301550Y-83211425D01*
X144416207Y-83272710D01*
X144540617Y-83310450D01*
X144637581Y-83320000D01*
X144670000Y-83323193D01*
X144702419Y-83320000D01*
X145131717Y-83320000D01*
X145149968Y-83408910D01*
X145165750Y-83459891D01*
X145179810Y-83511377D01*
X145183154Y-83519964D01*
X145473729Y-84251075D01*
X145501126Y-84304213D01*
X145527809Y-84357789D01*
X145532757Y-84365563D01*
X145959804Y-85026310D01*
X145997019Y-85073138D01*
X146033583Y-85120489D01*
X146039947Y-85127154D01*
X146587201Y-85692370D01*
X146632822Y-85731093D01*
X146677866Y-85770423D01*
X146685403Y-85775725D01*
X147332019Y-86223881D01*
X147384247Y-86252981D01*
X147436119Y-86282839D01*
X147444542Y-86286576D01*
X148165891Y-86600602D01*
X148222800Y-86619010D01*
X148279459Y-86638216D01*
X148288448Y-86640246D01*
X149057054Y-86808181D01*
X149116457Y-86815185D01*
X149175765Y-86823020D01*
X149184977Y-86823265D01*
X149971565Y-86838712D01*
X150031185Y-86834046D01*
X150090897Y-86830211D01*
X150099981Y-86828662D01*
X150874587Y-86691033D01*
X150932165Y-86674875D01*
X150989996Y-86659515D01*
X150998607Y-86656231D01*
X151731729Y-86370767D01*
X151785094Y-86343722D01*
X151838817Y-86317433D01*
X151846625Y-86312539D01*
X152510338Y-85890115D01*
X152557414Y-85853236D01*
X152605028Y-85816997D01*
X152611738Y-85810680D01*
X152649108Y-85774999D01*
X177361928Y-85774999D01*
X177361928Y-87375001D01*
X177378992Y-87548255D01*
X177429528Y-87714851D01*
X177511595Y-87868387D01*
X177622038Y-88002962D01*
X177756613Y-88113405D01*
X177910149Y-88195472D01*
X178076745Y-88246008D01*
X178249999Y-88263072D01*
X180750001Y-88263072D01*
X180923255Y-88246008D01*
X181089851Y-88195472D01*
X181243387Y-88113405D01*
X181377962Y-88002962D01*
X181488405Y-87868387D01*
X181570472Y-87714851D01*
X181621008Y-87548255D01*
X181638072Y-87375001D01*
X181638072Y-85774999D01*
X181621008Y-85601745D01*
X181570472Y-85435149D01*
X181488405Y-85281613D01*
X181377962Y-85147038D01*
X181243387Y-85036595D01*
X181089851Y-84954528D01*
X180923255Y-84903992D01*
X180750001Y-84886928D01*
X178249999Y-84886928D01*
X178076745Y-84903992D01*
X177910149Y-84954528D01*
X177756613Y-85036595D01*
X177622038Y-85147038D01*
X177511595Y-85281613D01*
X177429528Y-85435149D01*
X177378992Y-85601745D01*
X177361928Y-85774999D01*
X152649108Y-85774999D01*
X153180762Y-85267385D01*
X153219774Y-85222069D01*
X153259447Y-85177267D01*
X153264801Y-85169766D01*
X153717461Y-84526295D01*
X153746943Y-84474238D01*
X153777143Y-84422609D01*
X153780939Y-84414212D01*
X154099993Y-83695073D01*
X154118797Y-83638296D01*
X154138399Y-83581771D01*
X154140491Y-83572796D01*
X154197577Y-83320000D01*
X154637581Y-83320000D01*
X154670000Y-83323193D01*
X154702419Y-83320000D01*
X154799383Y-83310450D01*
X154923793Y-83272710D01*
X155038450Y-83211425D01*
X155138948Y-83128948D01*
X155221425Y-83028450D01*
X155282710Y-82913793D01*
X155320450Y-82789383D01*
X155333193Y-82660000D01*
X155330000Y-82627581D01*
X155330000Y-81848305D01*
X155515313Y-81848305D01*
X155515313Y-82471695D01*
X155636930Y-83083105D01*
X155875490Y-83659042D01*
X156221827Y-84177371D01*
X156662629Y-84618173D01*
X157180958Y-84964510D01*
X157756895Y-85203070D01*
X158368305Y-85324687D01*
X158991695Y-85324687D01*
X159603105Y-85203070D01*
X160179042Y-84964510D01*
X160697371Y-84618173D01*
X160890544Y-84425000D01*
X180961928Y-84425000D01*
X180974188Y-84549482D01*
X181010498Y-84669180D01*
X181069463Y-84779494D01*
X181148815Y-84876185D01*
X181245506Y-84955537D01*
X181355820Y-85014502D01*
X181475518Y-85050812D01*
X181600000Y-85063072D01*
X182114250Y-85060000D01*
X182273000Y-84901250D01*
X182273000Y-84152000D01*
X182527000Y-84152000D01*
X182527000Y-84901250D01*
X182685750Y-85060000D01*
X183200000Y-85063072D01*
X183324482Y-85050812D01*
X183444180Y-85014502D01*
X183554494Y-84955537D01*
X183651185Y-84876185D01*
X183730537Y-84779494D01*
X183789502Y-84669180D01*
X183825812Y-84549482D01*
X183838072Y-84425000D01*
X183835000Y-84310750D01*
X183676250Y-84152000D01*
X182527000Y-84152000D01*
X182273000Y-84152000D01*
X181123750Y-84152000D01*
X180965000Y-84310750D01*
X180961928Y-84425000D01*
X160890544Y-84425000D01*
X161138173Y-84177371D01*
X161484510Y-83659042D01*
X161685005Y-83175000D01*
X180961928Y-83175000D01*
X180974188Y-83299482D01*
X181004680Y-83400000D01*
X180974188Y-83500518D01*
X180961928Y-83625000D01*
X180965000Y-83739250D01*
X181123750Y-83898000D01*
X182273000Y-83898000D01*
X182273000Y-82902000D01*
X182527000Y-82902000D01*
X182527000Y-83898000D01*
X183676250Y-83898000D01*
X183835000Y-83739250D01*
X183838072Y-83625000D01*
X183825812Y-83500518D01*
X183795320Y-83400000D01*
X183825812Y-83299482D01*
X183838072Y-83175000D01*
X183835000Y-83060750D01*
X183676250Y-82902000D01*
X182527000Y-82902000D01*
X182273000Y-82902000D01*
X181123750Y-82902000D01*
X180965000Y-83060750D01*
X180961928Y-83175000D01*
X161685005Y-83175000D01*
X161723070Y-83083105D01*
X161844687Y-82471695D01*
X161844687Y-81848305D01*
X161723070Y-81236895D01*
X161484510Y-80660958D01*
X161138173Y-80142629D01*
X161070544Y-80075000D01*
X180961928Y-80075000D01*
X180961928Y-80475000D01*
X180978031Y-80638500D01*
X181025722Y-80795716D01*
X181081463Y-80900000D01*
X181025722Y-81004284D01*
X180978031Y-81161500D01*
X180961928Y-81325000D01*
X180961928Y-81725000D01*
X180978031Y-81888500D01*
X181025722Y-82045716D01*
X181040855Y-82074027D01*
X181010498Y-82130820D01*
X180974188Y-82250518D01*
X180961928Y-82375000D01*
X180965000Y-82489250D01*
X181123750Y-82648000D01*
X182273000Y-82648000D01*
X182273000Y-82628000D01*
X182527000Y-82628000D01*
X182527000Y-82648000D01*
X183676250Y-82648000D01*
X183835000Y-82489250D01*
X183838072Y-82375000D01*
X183829208Y-82285000D01*
X184121289Y-82285000D01*
X184180226Y-82343937D01*
X184349744Y-82457205D01*
X184538102Y-82535226D01*
X184738061Y-82575000D01*
X184941939Y-82575000D01*
X185141898Y-82535226D01*
X185330256Y-82457205D01*
X185499774Y-82343937D01*
X185643937Y-82199774D01*
X185757205Y-82030256D01*
X185835226Y-81841898D01*
X185875000Y-81641939D01*
X185875000Y-81438061D01*
X185835226Y-81238102D01*
X185757205Y-81049744D01*
X185660490Y-80905000D01*
X185757205Y-80760256D01*
X185835226Y-80571898D01*
X185875000Y-80371939D01*
X185875000Y-80168061D01*
X185835226Y-79968102D01*
X185757205Y-79779744D01*
X185643937Y-79610226D01*
X185499774Y-79466063D01*
X185330256Y-79352795D01*
X185141898Y-79274774D01*
X184941939Y-79235000D01*
X184738061Y-79235000D01*
X184538102Y-79274774D01*
X184349744Y-79352795D01*
X184180226Y-79466063D01*
X184131289Y-79515000D01*
X183619365Y-79515000D01*
X183592606Y-79482394D01*
X183465608Y-79378169D01*
X183320716Y-79300722D01*
X183163500Y-79253031D01*
X183000000Y-79236928D01*
X181800000Y-79236928D01*
X181636500Y-79253031D01*
X181479284Y-79300722D01*
X181334392Y-79378169D01*
X181207394Y-79482394D01*
X181103169Y-79609392D01*
X181025722Y-79754284D01*
X180978031Y-79911500D01*
X180961928Y-80075000D01*
X161070544Y-80075000D01*
X160697371Y-79701827D01*
X160179042Y-79355490D01*
X159603105Y-79116930D01*
X158991695Y-78995313D01*
X158368305Y-78995313D01*
X157756895Y-79116930D01*
X157180958Y-79355490D01*
X156662629Y-79701827D01*
X156221827Y-80142629D01*
X155875490Y-80660958D01*
X155636930Y-81236895D01*
X155515313Y-81848305D01*
X155330000Y-81848305D01*
X155330000Y-81692419D01*
X155333193Y-81660000D01*
X155320450Y-81530617D01*
X155282710Y-81406207D01*
X155221425Y-81291550D01*
X155138948Y-81191052D01*
X155038450Y-81108575D01*
X154923793Y-81047290D01*
X154799383Y-81009550D01*
X154702419Y-81000000D01*
X154670000Y-80996807D01*
X154637581Y-81000000D01*
X154208366Y-81000000D01*
X154190395Y-80912385D01*
X154174641Y-80861467D01*
X154160606Y-80810010D01*
X154157264Y-80801422D01*
X153866917Y-80070221D01*
X153839518Y-80017041D01*
X153812869Y-79963490D01*
X153807923Y-79955714D01*
X153381079Y-79294834D01*
X153343869Y-79247983D01*
X153307330Y-79200634D01*
X153300968Y-79193967D01*
X152753888Y-78628582D01*
X152708301Y-78589863D01*
X152663247Y-78550500D01*
X152655712Y-78545196D01*
X152009234Y-78096840D01*
X151956996Y-78067714D01*
X151905153Y-78037851D01*
X151896731Y-78034112D01*
X151175479Y-77719863D01*
X151118588Y-77701441D01*
X151061922Y-77682213D01*
X151052933Y-77680181D01*
X150284380Y-77512009D01*
X150224990Y-77504988D01*
X150165672Y-77497133D01*
X150156460Y-77496885D01*
X149369879Y-77481196D01*
X149310209Y-77485848D01*
X149250544Y-77489661D01*
X149241460Y-77491207D01*
X149241456Y-77491207D01*
X148466811Y-77628597D01*
X148409257Y-77644729D01*
X148351392Y-77660079D01*
X148342781Y-77663360D01*
X147609571Y-77948597D01*
X147556221Y-77975613D01*
X147502465Y-78001898D01*
X147494656Y-78006789D01*
X146830812Y-78429008D01*
X146783696Y-78465896D01*
X146736100Y-78502098D01*
X146729388Y-78508413D01*
X146160197Y-79051533D01*
X146121153Y-79096858D01*
X146081485Y-79141627D01*
X146076128Y-79149125D01*
X145623270Y-79792457D01*
X145593782Y-79844487D01*
X145563556Y-79896123D01*
X145559758Y-79904519D01*
X145240481Y-80623561D01*
X145221666Y-80680311D01*
X145202039Y-80736852D01*
X145199944Y-80745826D01*
X145142464Y-81000000D01*
X144702419Y-81000000D01*
X144670000Y-80996807D01*
X144637581Y-81000000D01*
X144540617Y-81009550D01*
X144416207Y-81047290D01*
X144301550Y-81108575D01*
X144201052Y-81191052D01*
X144118575Y-81291550D01*
X144057290Y-81406207D01*
X144019550Y-81530617D01*
X144006807Y-81660000D01*
X143807231Y-81660000D01*
X143723070Y-81236895D01*
X143484510Y-80660958D01*
X143138173Y-80142629D01*
X142697371Y-79701827D01*
X142179042Y-79355490D01*
X141603105Y-79116930D01*
X140991695Y-78995313D01*
X140368305Y-78995313D01*
X139756895Y-79116930D01*
X139180958Y-79355490D01*
X138662629Y-79701827D01*
X138221827Y-80142629D01*
X137875490Y-80660958D01*
X137636930Y-81236895D01*
X137515313Y-81848305D01*
X124358548Y-81848305D01*
X124357000Y-80659835D01*
X124354560Y-80635224D01*
X124347333Y-80611399D01*
X124335597Y-80589443D01*
X124319803Y-80570197D01*
X124300557Y-80554403D01*
X124278601Y-80542667D01*
X124254776Y-80535440D01*
X124230000Y-80533000D01*
X122958072Y-80533000D01*
X122958072Y-80495000D01*
X122941008Y-80321746D01*
X122890472Y-80155150D01*
X122808405Y-80001614D01*
X122697962Y-79867038D01*
X122563386Y-79756595D01*
X122409850Y-79674528D01*
X122243254Y-79623992D01*
X122070000Y-79606928D01*
X119570000Y-79606928D01*
X119396746Y-79623992D01*
X119230150Y-79674528D01*
X119076614Y-79756595D01*
X118942038Y-79867038D01*
X118831595Y-80001614D01*
X118749528Y-80155150D01*
X118698992Y-80321746D01*
X118681928Y-80495000D01*
X118681928Y-80533000D01*
X109977000Y-80533000D01*
X109977000Y-76924999D01*
X177361928Y-76924999D01*
X177361928Y-78525001D01*
X177378992Y-78698255D01*
X177429528Y-78864851D01*
X177511595Y-79018387D01*
X177622038Y-79152962D01*
X177756613Y-79263405D01*
X177910149Y-79345472D01*
X178076745Y-79396008D01*
X178249999Y-79413072D01*
X180750001Y-79413072D01*
X180923255Y-79396008D01*
X181089851Y-79345472D01*
X181243387Y-79263405D01*
X181377962Y-79152962D01*
X181488405Y-79018387D01*
X181570472Y-78864851D01*
X181621008Y-78698255D01*
X181638072Y-78525001D01*
X181638072Y-76924999D01*
X181621008Y-76751745D01*
X181570472Y-76585149D01*
X181488405Y-76431613D01*
X181377962Y-76297038D01*
X181243387Y-76186595D01*
X181089851Y-76104528D01*
X180923255Y-76053992D01*
X180750001Y-76036928D01*
X178249999Y-76036928D01*
X178076745Y-76053992D01*
X177910149Y-76104528D01*
X177756613Y-76186595D01*
X177622038Y-76297038D01*
X177511595Y-76431613D01*
X177429528Y-76585149D01*
X177378992Y-76751745D01*
X177361928Y-76924999D01*
X109977000Y-76924999D01*
X109977000Y-72337000D01*
X116053175Y-72337000D01*
X115787023Y-72514837D01*
G37*
%TD.AperFunction*%
%TD*%
M02*
