%TF.GenerationSoftware,KiCad,Pcbnew,(5.1.9-0-10_14)*%
%TF.CreationDate,2022-02-18T16:21:06-06:00*%
%TF.ProjectId,OwlSat_Z_Panel,4f776c53-6174-45f5-9a5f-50616e656c2e,rev?*%
%TF.SameCoordinates,Original*%
%TF.FileFunction,Legend,Bot*%
%TF.FilePolarity,Positive*%
%FSLAX46Y46*%
G04 Gerber Fmt 4.6, Leading zero omitted, Abs format (unit mm)*
G04 Created by KiCad (PCBNEW (5.1.9-0-10_14)) date 2022-02-18 16:21:06*
%MOMM*%
%LPD*%
G01*
G04 APERTURE LIST*
%ADD10C,0.120000*%
%ADD11C,0.150000*%
G04 APERTURE END LIST*
D10*
%TO.C,U3*%
X177290000Y-78665000D02*
X177740000Y-78665000D01*
X177290000Y-85635000D02*
X177290000Y-78665000D01*
X177740000Y-85635000D02*
X177290000Y-85635000D01*
X181710000Y-78665000D02*
X181710000Y-79615000D01*
X181260000Y-78665000D02*
X181710000Y-78665000D01*
X181710000Y-84685000D02*
X183200000Y-84685000D01*
X181710000Y-85635000D02*
X181710000Y-84685000D01*
X181260000Y-85635000D02*
X181710000Y-85635000D01*
%TO.C,U4*%
X119060000Y-82235000D02*
X118610000Y-82235000D01*
X118610000Y-82235000D02*
X118610000Y-83185000D01*
X118610000Y-83185000D02*
X117120000Y-83185000D01*
X119060000Y-86705000D02*
X118610000Y-86705000D01*
X118610000Y-86705000D02*
X118610000Y-85755000D01*
X122580000Y-82235000D02*
X123030000Y-82235000D01*
X123030000Y-82235000D02*
X123030000Y-86705000D01*
X123030000Y-86705000D02*
X122580000Y-86705000D01*
%TO.C,U5*%
X111240000Y-82100000D02*
X111240000Y-87180000D01*
X111240000Y-87180000D02*
X113780000Y-87180000D01*
X113780000Y-87180000D02*
X113780000Y-82100000D01*
X113780000Y-82100000D02*
X111240000Y-82100000D01*
%TO.C,U3*%
D11*
X183852380Y-81388095D02*
X184661904Y-81388095D01*
X184757142Y-81435714D01*
X184804761Y-81483333D01*
X184852380Y-81578571D01*
X184852380Y-81769047D01*
X184804761Y-81864285D01*
X184757142Y-81911904D01*
X184661904Y-81959523D01*
X183852380Y-81959523D01*
X183852380Y-82340476D02*
X183852380Y-82959523D01*
X184233333Y-82626190D01*
X184233333Y-82769047D01*
X184280952Y-82864285D01*
X184328571Y-82911904D01*
X184423809Y-82959523D01*
X184661904Y-82959523D01*
X184757142Y-82911904D01*
X184804761Y-82864285D01*
X184852380Y-82769047D01*
X184852380Y-82483333D01*
X184804761Y-82388095D01*
X184757142Y-82340476D01*
%TO.C,U4*%
X115372380Y-83708095D02*
X116181904Y-83708095D01*
X116277142Y-83755714D01*
X116324761Y-83803333D01*
X116372380Y-83898571D01*
X116372380Y-84089047D01*
X116324761Y-84184285D01*
X116277142Y-84231904D01*
X116181904Y-84279523D01*
X115372380Y-84279523D01*
X115705714Y-85184285D02*
X116372380Y-85184285D01*
X115324761Y-84946190D02*
X116039047Y-84708095D01*
X116039047Y-85327142D01*
%TO.C,U5*%
X114502380Y-82608095D02*
X115311904Y-82608095D01*
X115407142Y-82655714D01*
X115454761Y-82703333D01*
X115502380Y-82798571D01*
X115502380Y-82989047D01*
X115454761Y-83084285D01*
X115407142Y-83131904D01*
X115311904Y-83179523D01*
X114502380Y-83179523D01*
X114502380Y-84131904D02*
X114502380Y-83655714D01*
X114978571Y-83608095D01*
X114930952Y-83655714D01*
X114883333Y-83750952D01*
X114883333Y-83989047D01*
X114930952Y-84084285D01*
X114978571Y-84131904D01*
X115073809Y-84179523D01*
X115311904Y-84179523D01*
X115407142Y-84131904D01*
X115454761Y-84084285D01*
X115502380Y-83989047D01*
X115502380Y-83750952D01*
X115454761Y-83655714D01*
X115407142Y-83608095D01*
%TD*%
M02*
