%TF.GenerationSoftware,KiCad,Pcbnew,(5.1.9-0-10_14)*%
%TF.CreationDate,2022-02-18T16:18:21-06:00*%
%TF.ProjectId,OwlSat_Official_USB_actual,4f776c53-6174-45f4-9f66-66696369616c,4*%
%TF.SameCoordinates,Original*%
%TF.FileFunction,Soldermask,Bot*%
%TF.FilePolarity,Negative*%
%FSLAX46Y46*%
G04 Gerber Fmt 4.6, Leading zero omitted, Abs format (unit mm)*
G04 Created by KiCad (PCBNEW (5.1.9-0-10_14)) date 2022-02-18 16:18:21*
%MOMM*%
%LPD*%
G01*
G04 APERTURE LIST*
G04 APERTURE END LIST*
%TO.C,U3*%
G36*
G01*
X182260000Y-97145000D02*
X181060000Y-97145000D01*
G75*
G02*
X180860000Y-96945000I0J200000D01*
G01*
X180860000Y-96545000D01*
G75*
G02*
X181060000Y-96345000I200000J0D01*
G01*
X182260000Y-96345000D01*
G75*
G02*
X182460000Y-96545000I0J-200000D01*
G01*
X182460000Y-96945000D01*
G75*
G02*
X182260000Y-97145000I-200000J0D01*
G01*
G37*
G36*
G01*
X182260000Y-95895000D02*
X181060000Y-95895000D01*
G75*
G02*
X180860000Y-95695000I0J200000D01*
G01*
X180860000Y-95295000D01*
G75*
G02*
X181060000Y-95095000I200000J0D01*
G01*
X182260000Y-95095000D01*
G75*
G02*
X182460000Y-95295000I0J-200000D01*
G01*
X182460000Y-95695000D01*
G75*
G02*
X182260000Y-95895000I-200000J0D01*
G01*
G37*
G36*
G01*
X182260000Y-94645000D02*
X181060000Y-94645000D01*
G75*
G02*
X180860000Y-94445000I0J200000D01*
G01*
X180860000Y-94045000D01*
G75*
G02*
X181060000Y-93845000I200000J0D01*
G01*
X182260000Y-93845000D01*
G75*
G02*
X182460000Y-94045000I0J-200000D01*
G01*
X182460000Y-94445000D01*
G75*
G02*
X182260000Y-94645000I-200000J0D01*
G01*
G37*
G36*
G01*
X182260000Y-93395000D02*
X181060000Y-93395000D01*
G75*
G02*
X180860000Y-93195000I0J200000D01*
G01*
X180860000Y-92795000D01*
G75*
G02*
X181060000Y-92595000I200000J0D01*
G01*
X182260000Y-92595000D01*
G75*
G02*
X182460000Y-92795000I0J-200000D01*
G01*
X182460000Y-93195000D01*
G75*
G02*
X182260000Y-93395000I-200000J0D01*
G01*
G37*
G36*
G01*
X180010001Y-100345000D02*
X177509999Y-100345000D01*
G75*
G02*
X177260000Y-100095001I0J249999D01*
G01*
X177260000Y-98494999D01*
G75*
G02*
X177509999Y-98245000I249999J0D01*
G01*
X180010001Y-98245000D01*
G75*
G02*
X180260000Y-98494999I0J-249999D01*
G01*
X180260000Y-100095001D01*
G75*
G02*
X180010001Y-100345000I-249999J0D01*
G01*
G37*
G36*
G01*
X180010001Y-91495000D02*
X177509999Y-91495000D01*
G75*
G02*
X177260000Y-91245001I0J249999D01*
G01*
X177260000Y-89644999D01*
G75*
G02*
X177509999Y-89395000I249999J0D01*
G01*
X180010001Y-89395000D01*
G75*
G02*
X180260000Y-89644999I0J-249999D01*
G01*
X180260000Y-91245001D01*
G75*
G02*
X180010001Y-91495000I-249999J0D01*
G01*
G37*
%TD*%
M02*
